<?xml version="1.0" encoding="utf-8" ?>
<svg baseProfile="tiny" font-family="Exo" height="262" version="1.2" width="1856" xmlns="http://www.w3.org/2000/svg" xmlns:ev="http://www.w3.org/2001/xml-events" xmlns:xlink="http://www.w3.org/1999/xlink"><defs /><g><rect fill="#00723d" height="162" stroke="none" width="136" x="860" y="50" /><text fill="white" font-size="20" x="864" y="80">1</text><text fill="white" font-size="20" text-anchor="end" x="992" y="80">2</text><text fill="white" font-size="20" x="864" y="110">3</text><text fill="white" font-size="20" text-anchor="end" x="992" y="110">4</text><text fill="white" font-size="20" x="864" y="140">5</text><text fill="white" font-size="20" text-anchor="end" x="992" y="140">6</text><text fill="white" font-size="20" x="864" y="170">7</text><text fill="white" font-size="20" text-anchor="end" x="992" y="170">8</text><text fill="white" font-size="20" x="864" y="200">9</text><text fill="white" font-size="20" text-anchor="end" x="992" y="200">10</text></g><text fill="black" font-size="32" text-anchor="middle" transform="rotate(-0 925 36)" x="925" y="36">LCD</text><line stroke="black" stroke-width="2" x1="536" x2="860" y1="70" y2="70" /><g><rect fill="#ffffff" height="22" rx="5" ry="5" stroke="black" width="150" x="536" y="59" /><text fill="#000000" font-size="18" text-anchor="middle" x="611" y="77">BEEPER</text></g><g><rect fill="#ffffff" height="22" rx="5" ry="5" stroke="black" width="150" x="698" y="59" /><text fill="#000000" font-size="18" text-anchor="middle" x="773" y="77">PB5</text></g><line stroke="black" stroke-width="2" x1="996" x2="1644" y1="70" y2="70" /><g><rect fill="#ffffff" height="22" rx="5" ry="5" stroke="black" width="150" x="1008" y="59" /><text fill="#000000" font-size="18" text-anchor="middle" x="1083" y="77">PB6</text></g><g><rect fill="#ffffff" height="22" rx="5" ry="5" stroke="black" width="150" x="1170" y="59" /><text fill="#000000" font-size="18" text-anchor="middle" x="1245" y="77">BTN_ENC</text></g><g><rect fill="#f57900" height="22" rx="5" ry="5" stroke="black" width="150" x="1332" y="59" /><text fill="#000000" font-size="18" text-anchor="middle" x="1407" y="77">PWM</text></g><g><rect fill="#008c23" height="22" rx="5" ry="5" stroke="black" width="150" x="1494" y="59" /><text fill="#ffffff" font-size="18" text-anchor="middle" x="1569" y="77">SCL</text></g><line stroke="black" stroke-width="2" x1="50" x2="860" y1="100" y2="100" /><g><rect fill="#ffffff" height="22" rx="5" ry="5" stroke="black" width="150" x="50" y="89" /><text fill="#000000" font-size="18" text-anchor="middle" x="125" y="107">UART2_TX</text></g><g><rect fill="#73d216" height="22" rx="5" ry="5" stroke="black" width="150" x="212" y="89" /><text fill="#000000" font-size="18" text-anchor="middle" x="287" y="107">ADC</text></g><g><rect fill="#f57900" height="22" rx="5" ry="5" stroke="black" width="150" x="374" y="89" /><text fill="#000000" font-size="18" text-anchor="middle" x="449" y="107">PWM</text></g><g><rect fill="#ffffff" height="22" rx="5" ry="5" stroke="black" width="150" x="536" y="89" /><text fill="#000000" font-size="18" text-anchor="middle" x="611" y="107">BTN_EN1</text></g><g><rect fill="#ffffff" height="22" rx="5" ry="5" stroke="black" width="150" x="698" y="89" /><text fill="#000000" font-size="18" text-anchor="middle" x="773" y="107">PA2</text></g><line stroke="black" stroke-width="2" x1="996" x2="1158" y1="100" y2="100" /><g><rect fill="#fce94f" height="22" rx="5" ry="5" stroke="black" width="150" x="1008" y="89" /><text fill="#000000" font-size="18" text-anchor="middle" x="1083" y="107">RESET</text></g><line stroke="black" stroke-width="2" x1="50" x2="860" y1="130" y2="130" /><g><rect fill="#ffffff" height="22" rx="5" ry="5" stroke="black" width="150" x="50" y="119" /><text fill="#000000" font-size="18" text-anchor="middle" x="125" y="137">UART2_RX</text></g><g><rect fill="#73d216" height="22" rx="5" ry="5" stroke="black" width="150" x="212" y="119" /><text fill="#000000" font-size="18" text-anchor="middle" x="287" y="137">ADC</text></g><g><rect fill="#f57900" height="22" rx="5" ry="5" stroke="black" width="150" x="374" y="119" /><text fill="#000000" font-size="18" text-anchor="middle" x="449" y="137">PWM</text></g><g><rect fill="#ffffff" height="22" rx="5" ry="5" stroke="black" width="150" x="536" y="119" /><text fill="#000000" font-size="18" text-anchor="middle" x="611" y="137">BTN_EN2</text></g><g><rect fill="#ffffff" height="22" rx="5" ry="5" stroke="black" width="150" x="698" y="119" /><text fill="#000000" font-size="18" text-anchor="middle" x="773" y="137">PA3</text></g><line stroke="black" stroke-width="2" x1="996" x2="1482" y1="130" y2="130" /><g><rect fill="#ffffff" height="22" rx="5" ry="5" stroke="black" width="150" x="1008" y="119" /><text fill="#000000" font-size="18" text-anchor="middle" x="1083" y="137">PB8</text></g><g><rect fill="#ffffff" height="22" rx="5" ry="5" stroke="black" width="150" x="1170" y="119" /><text fill="#000000" font-size="18" text-anchor="middle" x="1245" y="137">LCD_CLK</text></g><g><rect fill="#f57900" height="22" rx="5" ry="5" stroke="black" width="150" x="1332" y="119" /><text fill="#000000" font-size="18" text-anchor="middle" x="1407" y="137">PWM</text></g><line stroke="black" stroke-width="2" x1="212" x2="860" y1="160" y2="160" /><g><rect fill="#008c23" height="22" rx="5" ry="5" stroke="black" width="150" x="212" y="149" /><text fill="#ffffff" font-size="18" text-anchor="middle" x="287" y="167">SDA</text></g><g><rect fill="#f57900" height="22" rx="5" ry="5" stroke="black" width="150" x="374" y="149" /><text fill="#000000" font-size="18" text-anchor="middle" x="449" y="167">PWM</text></g><g><rect fill="#ffffff" height="22" rx="5" ry="5" stroke="black" width="150" x="536" y="149" /><text fill="#000000" font-size="18" text-anchor="middle" x="611" y="167">LCD_CS</text></g><g><rect fill="#ffffff" height="22" rx="5" ry="5" stroke="black" width="150" x="698" y="149" /><text fill="#000000" font-size="18" text-anchor="middle" x="773" y="167">PB7</text></g><line stroke="black" stroke-width="2" x1="996" x2="1482" y1="160" y2="160" /><g><rect fill="#ffffff" height="22" rx="5" ry="5" stroke="black" width="150" x="1008" y="149" /><text fill="#000000" font-size="18" text-anchor="middle" x="1083" y="167">PA4</text></g><g><rect fill="#ffffff" height="22" rx="5" ry="5" stroke="black" width="150" x="1170" y="149" /><text fill="#000000" font-size="18" text-anchor="middle" x="1245" y="167">LCD_DAT</text></g><g><rect fill="#73d216" height="22" rx="5" ry="5" stroke="black" width="150" x="1332" y="149" /><text fill="#000000" font-size="18" text-anchor="middle" x="1407" y="167">ADC</text></g><line stroke="black" stroke-width="2" x1="698" x2="860" y1="190" y2="190" /><g><rect fill="#000000" height="22" rx="5" ry="5" stroke="black" width="150" x="698" y="179" /><text fill="#ffffff" font-size="18" text-anchor="middle" x="773" y="197">GND</text></g><line stroke="black" stroke-width="2" x1="996" x2="1158" y1="190" y2="190" /><g><rect fill="#f40000" height="22" rx="5" ry="5" stroke="black" width="150" x="1008" y="179" /><text fill="#ffffff" font-size="18" text-anchor="middle" x="1083" y="197">VCC5</text></g><image height="4970.0" preserveAspectRatio="none" width="7000.0" x="470" xlink:href="d:\test\git_repos\MEEB_3DP\hardware\tools\pinout\header2x5_male.svg" y="-40" /></svg>