<?xml version="1.0" encoding="utf-8"?>
<svg id="master-artboard" viewBox="0 0 128 64" version="1.1" xmlns="http://www.w3.org/2000/svg" x="0px" y="0px" style="enable-background:new 0 0 1400 980;" width="128px" height="64px"><rect id="ee-background" x="0" y="0" width="128" height="64" style="fill: white; fill-opacity: 0; pointer-events: none;"/><g transform="matrix(0.06400000303983688, 0, 0, 0.06400000303983688, 2.666670560836792, -16.333330154418945)"><defs><style id="ee-google-fonts">@import url(https://fonts.googleapis.com/css?family=Faster+One:400);</style></defs><path d="M 291.7698974609375 387.3846435546875 L 302.6899108886719 284.9046325683594 L 340.4898986816406 284.9046325683594 L 349.1698913574219 342.44464111328125 L 358.409912109375 284.9046325683594 L 396.20989990234375 284.9046325683594 L 407.2698974609375 387.3846435546875 L 380.5299072265625 387.3846435546875 L 373.5299072265625 331.524658203125 L 364.9898986816406 387.3846435546875 L 333.909912109375 387.3846435546875 L 324.94989013671875 331.524658203125 L 318.5098876953125 387.3846435546875 L 291.7698974609375 387.3846435546875 ZM 414.2662048339844 364.8446350097656 L 414.2662048339844 308.70465087890625 C 414.2662048339844 292.8379821777344 422.9461975097656 284.9046325683594 440.30621337890625 284.9046325683594 C 459.90618896484375 284.9046325683594 475.16619873046875 285.65130615234375 486.086181640625 287.1446533203125 L 486.086181640625 309.96466064453125 L 448.7062072753906 309.96466064453125 C 446.4661865234375 309.96466064453125 444.76287841796875 310.407958984375 443.59619140625 311.2946472167969 C 442.4295349121094 312.1813049316406 441.77618408203125 313.0679931640625 441.6361999511719 313.95465087890625 C 441.4962158203125 314.84130859375 441.42620849609375 316.1246337890625 441.42620849609375 317.80462646484375 L 441.42620849609375 323.96466064453125 L 479.086181640625 325.504638671875 L 479.086181640625 348.0446472167969 L 441.42620849609375 349.30462646484375 L 441.42620849609375 355.4646301269531 C 441.42620849609375 359.0113220214844 442.40618896484375 361.1579895019531 444.3662109375 361.9046325683594 C 445.952880859375 362.4646301269531 447.8662109375 362.74462890625 450.106201171875 362.74462890625 L 486.086181640625 362.74462890625 L 486.086181640625 385.4246520996094 C 476.6595458984375 386.6379699707031 464.4795227050781 387.3846435546875 449.54620361328125 387.6646423339844 L 441.7062072753906 387.8046569824219 C 440.95953369140625 387.8046569824219 440.0495300292969 387.8046569824219 438.9761962890625 387.8046569824219 C 437.9028625488281 387.8046569824219 436.50286865234375 387.7346496582031 434.77618408203125 387.5946350097656 C 433.0495300292969 387.45465087890625 430.856201171875 386.91796875 428.1961975097656 385.9846496582031 C 425.53619384765625 385.0513000488281 423.2261962890625 383.81463623046875 421.2662048339844 382.274658203125 C 419.30621337890625 380.7346496582031 417.6495361328125 378.4713134765625 416.29620361328125 375.4846496582031 C 414.94287109375 372.49798583984375 414.2662048339844 368.9513244628906 414.2662048339844 364.8446350097656 ZM 493.6437683105469 364.8446350097656 L 493.6437683105469 308.70465087890625 C 493.6437683105469 292.8379821777344 502.3237609863281 284.9046325683594 519.6837768554688 284.9046325683594 C 539.2837524414062 284.9046325683594 554.5437622070312 285.65130615234375 565.4637451171875 287.1446533203125 L 565.4637451171875 309.96466064453125 L 528.083740234375 309.96466064453125 C 525.84375 309.96466064453125 524.1404418945312 310.407958984375 522.9737548828125 311.2946472167969 C 521.8070678710938 312.1813049316406 521.1537475585938 313.0679931640625 521.0137939453125 313.95465087890625 C 520.873779296875 314.84130859375 520.8037719726562 316.1246337890625 520.8037719726562 317.80462646484375 L 520.8037719726562 323.96466064453125 L 558.4637451171875 325.504638671875 L 558.4637451171875 348.0446472167969 L 520.8037719726562 349.30462646484375 L 520.8037719726562 355.4646301269531 C 520.8037719726562 359.0113220214844 521.7837524414062 361.1579895019531 523.7437744140625 361.9046325683594 C 525.3304443359375 362.4646301269531 527.2437744140625 362.74462890625 529.4837646484375 362.74462890625 L 565.4637451171875 362.74462890625 L 565.4637451171875 385.4246520996094 C 556.037109375 386.6379699707031 543.8571166992188 387.3846435546875 528.9237670898438 387.6646423339844 L 521.083740234375 387.8046569824219 C 520.3370971679688 387.8046569824219 519.4271240234375 387.8046569824219 518.353759765625 387.8046569824219 C 517.2804565429688 387.8046569824219 515.8804321289062 387.7346496582031 514.1537475585938 387.5946350097656 C 512.4271240234375 387.45465087890625 510.2337646484375 386.91796875 507.5737609863281 385.9846496582031 C 504.91375732421875 385.0513000488281 502.603759765625 383.81463623046875 500.6437683105469 382.274658203125 C 498.68377685546875 380.7346496582031 497.027099609375 378.4713134765625 495.67376708984375 375.4846496582031 C 494.3204345703125 372.49798583984375 493.6437683105469 368.9513244628906 493.6437683105469 364.8446350097656 ZM 573.7213745117188 387.3846435546875 L 573.7213745117188 284.9046325683594 L 618.2413940429688 284.9046325683594 C 638.7747192382812 284.9046325683594 649.0413818359375 294.23797607421875 649.0413818359375 312.9046325683594 C 649.0413818359375 317.851318359375 647.7113647460938 322.54132080078125 645.0513916015625 326.9746398925781 C 642.391357421875 331.4079895019531 638.72802734375 333.8113098144531 634.0614013671875 334.18463134765625 C 639.1947021484375 335.024658203125 643.3947143554688 337.52130126953125 646.661376953125 341.6746520996094 C 649.9280395507812 345.8279724121094 651.5614013671875 350.6112976074219 651.5614013671875 356.024658203125 C 651.5614013671875 367.2246398925781 648.9013671875 375.2513122558594 643.5814208984375 380.1046447753906 C 638.2613525390625 384.9579772949219 630.0480346679688 387.3846435546875 618.94140625 387.3846435546875 L 573.7213745117188 387.3846435546875 M 600.8814086914062 364.4246520996094 L 617.5413818359375 364.4246520996094 C 620.0614013671875 364.4246520996094 621.834716796875 363.60797119140625 622.8613891601562 361.9746398925781 C 623.8880615234375 360.34130859375 624.4013671875 357.89129638671875 624.4013671875 354.6246337890625 C 624.4013671875 347.9046325683594 622.11474609375 344.5446472167969 617.5413818359375 344.5446472167969 L 600.8814086914062 344.5446472167969 L 600.8814086914062 364.4246520996094 M 600.8814086914062 322.9846496582031 L 616.141357421875 322.9846496582031 C 618.1947021484375 322.9846496582031 619.758056640625 322.3079833984375 620.8313598632812 320.95465087890625 C 621.9047241210938 319.601318359375 622.44140625 317.8979797363281 622.44140625 315.8446350097656 C 622.44140625 310.524658203125 620.3413696289062 307.8646545410156 616.141357421875 307.8646545410156 L 600.8814086914062 307.8646545410156 L 600.8814086914062 322.9846496582031 Z" transform="matrix(4.864802360534668, 0, 0, 4.864802360534668, -1338.8488784374204, -1103.685179550841)" style="fill: rgb(0, 0, 0); white-space: pre; color: rgb(0, 0, 0);"/><path d="M 1212.5736083984375 570.0780029296875" style="fill: rgb(0, 0, 0); fill-opacity: 1; stroke: rgb(0, 0, 0); stroke-opacity: 1; stroke-width: 0; paint-order: fill;"/><path d="M 634.1185913085938 922.0320434570312 L 480.818603515625 905.7220458984375 L 637.0186157226562 905.7220458984375 L 634.1185913085938 922.0320434570312 M 587.0086059570312 975.3020629882812 L 581.9285888671875 991.612060546875 L 430.4385986328125 975.3020629882812 L 587.0086059570312 975.3020629882812 M 575.4086303710938 1010.4520263671875 L 570.338623046875 1026.7620849609375 L 418.8486022949219 1010.4520263671875 L 575.4086303710938 1010.4520263671875 M 613.4586181640625 836.132080078125 L 613.4586181640625 852.4420166015625 L 459.7986145019531 836.132080078125 L 613.4586181640625 836.132080078125 M 628.318603515625 956.822021484375 L 474.6585998535156 940.5120849609375 L 631.2186279296875 940.5120849609375 L 628.318603515625 956.822021484375 M 613.818603515625 801.342041015625 L 613.818603515625 817.6520385742188 L 460.51861572265625 801.342041015625 L 613.818603515625 801.342041015625 M 486.6186218261719 870.9320678710938 L 643.1785888671875 870.9320678710938 L 639.9185791015625 887.2320556640625 L 486.6186218261719 870.9320678710938 M 624.6986083984375 855.7020263671875 L 624.6986083984375 809.6820678710938 C 654.1719360351562 800.5020751953125 681.9552612304688 795.9120483398438 708.048583984375 795.9120483398438 C 731.7286376953125 795.9120483398438 750.3319091796875 798.3253784179688 763.858642578125 803.1520385742188 C 779.0852661132812 808.4720458984375 786.6986083984375 820.3120727539062 786.6986083984375 838.6720581054688 C 786.6986083984375 870.0787353515625 773.6519775390625 892.4287109375 747.55859375 905.7220458984375 L 747.1885986328125 907.5320434570312 C 764.3419189453125 915.9853515625 772.9185791015625 929.6353759765625 772.9185791015625 948.4820556640625 C 772.9185791015625 1005.0220336914062 735.471923828125 1033.2919921875 660.57861328125 1033.2919921875 C 633.0319213867188 1033.2919921875 607.05859375 1030.148681640625 582.6586303710938 1023.862060546875 L 602.9486083984375 964.072021484375 C 623.7286376953125 969.6253662109375 641.7286376953125 972.4020385742188 656.9486083984375 972.4020385742188 C 672.1685791015625 972.4020385742188 685.338623046875 971.6787109375 696.4586181640625 970.2320556640625 L 700.4385986328125 947.0320434570312 L 642.088623046875 940.8720703125 L 651.1486206054688 888.322021484375 L 712.03857421875 881.072021484375 L 716.0286254882812 855.7020263671875 L 624.6986083984375 855.7020263671875 ZM 1007.7554321289062 801.342041015625 C 1038.922119140625 801.342041015625 1061.0887451171875 806.8387451171875 1074.25537109375 817.83203125 C 1087.422119140625 828.8253784179688 1094.00537109375 846.6453857421875 1094.00537109375 871.2920532226562 C 1094.00537109375 883.85205078125 1092.555419921875 898.3487548828125 1089.6553955078125 914.7820434570312 C 1082.40869140625 955.3687133789062 1070.02880859375 984.362060546875 1052.515380859375 1001.7620239257812 C 1034.995361328125 1019.1553955078125 1006.785400390625 1027.85205078125 967.8854370117188 1027.85205078125 L 871.4854125976562 1027.85205078125 L 911.3554077148438 801.342041015625 L 1007.7554321289062 801.342041015625 M 998.33544921875 859.33203125 L 969.7054443359375 859.33203125 L 950.4954223632812 969.862060546875 L 979.1254272460938 969.862060546875 C 988.54541015625 969.862060546875 995.5521240234375 968.7153930664062 1000.1453857421875 966.4220581054688 C 1004.7320556640625 964.1287231445312 1007.7520751953125 958.8753662109375 1009.2054443359375 950.6620483398438 L 1021.8854370117188 878.5420532226562 C 1022.132080078125 877.0887451171875 1022.2554321289062 875.1553955078125 1022.2554321289062 872.7420654296875 C 1022.2554321289062 867.1820678710938 1020.3220825195312 863.555419921875 1016.4554443359375 861.862060546875 C 1012.5887451171875 860.1754150390625 1006.5487670898438 859.33203125 998.33544921875 859.33203125 M 860.6154174804688 1026.7620849609375 L 706.9554443359375 1010.4520263671875 L 863.5154418945312 1010.4520263671875 L 860.6154174804688 1026.7620849609375 M 872.9354248046875 956.822021484375 L 719.275390625 940.5120849609375 L 875.83544921875 940.5120849609375 L 872.9354248046875 956.822021484375 M 879.0953979492188 922.0320434570312 L 725.4354248046875 905.7220458984375 L 881.9954223632812 905.7220458984375 L 879.0953979492188 922.0320434570312 M 885.2554321289062 887.2320556640625 L 731.5953979492188 870.9320678710938 L 888.1553955078125 870.9320678710938 L 885.2554321289062 887.2320556640625 M 891.4154052734375 852.4420166015625 L 737.7554321289062 836.132080078125 L 893.9554443359375 836.132080078125 L 891.4154052734375 852.4420166015625 M 866.775390625 991.612060546875 L 713.1154174804688 975.3020629882812 L 869.6754150390625 975.3020629882812 L 866.775390625 991.612060546875 M 897.2154541015625 817.6520385742188 L 743.9154052734375 801.342041015625 L 900.1154174804688 801.342041015625 L 897.2154541015625 817.6520385742188 ZM 1299.482666015625 973.132080078125 L 1254.5426025390625 973.132080078125 L 1245.1226806640625 1027.85205078125 L 1176.2626953125 1027.85205078125 L 1216.1326904296875 801.342041015625 L 1324.8526611328125 801.342041015625 C 1365.926025390625 801.342041015625 1386.462646484375 820.4287109375 1386.462646484375 858.60205078125 C 1386.462646484375 876.7220458984375 1383.926025390625 893.092041015625 1378.8526611328125 907.7120361328125 C 1373.779296875 922.33203125 1368.16259765625 933.9287109375 1362.002685546875 942.5020751953125 C 1355.8426513671875 951.08203125 1347.385986328125 958.33203125 1336.6326904296875 964.2520751953125 C 1325.8792724609375 970.1720581054688 1313.4959716796875 973.132080078125 1299.482666015625 973.132080078125 M 1280.642578125 915.1420288085938 C 1288.85595703125 915.1420288085938 1295.075927734375 914.2353515625 1299.3026123046875 912.4220581054688 C 1303.529296875 910.6087036132812 1306.249267578125 906.4420166015625 1307.462646484375 899.9220581054688 C 1310.6026611328125 882.0420532226562 1312.172607421875 872.25537109375 1312.172607421875 870.5620727539062 C 1312.172607421875 865.9754028320312 1310.359375 862.9553833007812 1306.732666015625 861.5020751953125 C 1303.10595703125 860.055419921875 1297.6693115234375 859.33203125 1290.422607421875 859.33203125 L 1274.482666015625 859.33203125 L 1264.692626953125 915.1420288085938 L 1280.642578125 915.1420288085938 M 1165.3927001953125 1026.7620849609375 L 1011.732666015625 1010.4520263671875 L 1168.2926025390625 1010.4520263671875 L 1165.3927001953125 1026.7620849609375 M 1177.712646484375 956.822021484375 L 1024.0526123046875 940.5120849609375 L 1180.6126708984375 940.5120849609375 L 1177.712646484375 956.822021484375 M 1189.672607421875 887.2320556640625 L 1036.3726806640625 870.9320678710938 L 1192.5726318359375 870.9320678710938 L 1189.672607421875 887.2320556640625 M 1195.8326416015625 852.4420166015625 L 1042.5325927734375 836.132080078125 L 1198.732666015625 836.132080078125 L 1195.8326416015625 852.4420166015625 M 1171.5526123046875 991.612060546875 L 1017.8926391601562 975.3020629882812 L 1174.45263671875 975.3020629882812 L 1171.5526123046875 991.612060546875 M 1201.99267578125 817.6520385742188 L 1048.692626953125 801.342041015625 L 1204.892578125 801.342041015625 L 1201.99267578125 817.6520385742188 M 1183.5126953125 922.0320434570312 L 1030.212646484375 905.7220458984375 L 1186.41259765625 905.7220458984375 L 1183.5126953125 922.0320434570312 Z" transform="matrix(1.795689344406128, 0, 0, 1.795689344406128, -699.5462036132812, -624.4738159179688)" style="fill: rgb(0, 0, 0); white-space: pre; color: rgb(51, 51, 51);"/></g></svg>