<?xml version="1.0" encoding="utf-8"?>
<svg id="master-artboard" viewBox="0 0 39 28" version="1.1" xmlns="http://www.w3.org/2000/svg" x="0px" y="0px" style="enable-background:new 0 0 1400 980;" width="39px" height="28px"><defs><style id="ee-google-fonts">@import url(https://fonts.googleapis.com/css?family=Electrolize:400);</style></defs><rect id="ee-background" x="0" y="0" width="39" height="28" style="fill: white; fill-opacity: 0; pointer-events: none;"/><path d="M 16.653949737548828 19.596527099609375 L 17.253950119018555 20.08652687072754 C 17.407283782958984 20.213191986083984 17.497283935546875 20.30652618408203 17.523948669433594 20.366525650024414 C 17.550617218017578 20.426525115966797 17.563949584960938 20.57986068725586 17.563949584960938 20.826526641845703 L 17.563949584960938 23.666526794433594 C 17.563949584960938 23.873193740844727 17.543949127197266 24.016525268554688 17.503950119018555 24.096527099609375 C 17.47061538696289 24.18319320678711 17.39061737060547 24.293193817138672 17.26395034790039 24.42652702331543 L 16.99394989013672 24.706525802612305 C 16.753950119018555 24.93985939025879 16.510616302490234 25.05652618408203 16.26395034790039 25.05652618408203 L 11.883950233459473 25.05652618408203 C 11.637283325195312 25.05652618408203 11.390616416931152 24.95319366455078 11.143949508666992 24.74652671813965 L 10.77394962310791 24.436525344848633 C 10.52728271484375 24.229860305786133 10.403949737548828 23.97319221496582 10.403949737548828 23.666526794433594 L 10.403949737548828 23.046525955200195 L 11.693949699401855 23.046525955200195 L 11.693949699401855 23.346527099609375 C 11.693949699401855 23.499858856201172 11.703949928283691 23.5998592376709 11.723949432373047 23.646526336669922 C 11.737283706665039 23.693193435668945 11.790616989135742 23.753192901611328 11.883950233459473 23.826526641845703 C 11.977283477783203 23.893192291259766 12.047283172607422 23.936525344848633 12.093950271606445 23.956525802612305 C 12.147283554077148 23.969860076904297 12.26728343963623 23.976526260375977 12.453949928283691 23.976526260375977 L 15.503950119018555 23.976526260375977 C 15.690616607666016 23.976526260375977 15.810616493225098 23.969860076904297 15.8639497756958 23.956525802612305 C 15.917283058166504 23.936525344848633 15.987283706665039 23.893192291259766 16.073949813842773 23.826526641845703 C 16.167282104492188 23.753192901611328 16.223949432373047 23.693193435668945 16.24394989013672 23.646526336669922 C 16.257282257080078 23.5998592376709 16.26395034790039 23.499858856201172 16.26395034790039 23.346527099609375 L 16.26395034790039 21.016525268554688 C 16.26395034790039 20.789859771728516 16.170616149902344 20.59319305419922 15.983949661254883 20.426525115966797 L 15.753950119018555 20.226526260375977 C 15.600616455078125 20.09319305419922 15.493949890136719 20.016525268554688 15.433950424194336 19.99652671813965 C 15.36728286743164 19.976526260375977 15.237283706665039 19.96652603149414 15.043950080871582 19.96652603149414 L 12.573949813842773 19.96652603149414 L 12.573949813842773 18.976526260375977 L 14.83395004272461 18.976526260375977 C 15.02728271484375 18.976526260375977 15.153949737548828 18.96652603149414 15.213949203491211 18.94652557373047 C 15.273950576782227 18.926525115966797 15.380617141723633 18.8498592376709 15.533949851989746 18.71652603149414 L 15.773950576782227 18.526525497436523 C 15.92728328704834 18.406526565551758 16.017284393310547 18.316526412963867 16.043949127197266 18.256526947021484 C 16.063949584960938 18.20319366455078 16.073949813842773 18.07986068725586 16.073949813842773 17.886526107788086 L 16.073949813842773 15.96652603149414 C 16.073949813842773 15.813193321228027 16.067283630371094 15.7131929397583 16.0539493560791 15.666525840759277 C 16.040616989135742 15.61985969543457 15.987283706665039 15.559859275817871 15.893949508666992 15.486526489257812 C 15.800617218017578 15.419859886169434 15.727283477783203 15.37652587890625 15.6739501953125 15.356526374816895 C 15.627283096313477 15.343193054199219 15.510616302490234 15.336525917053223 15.323949813842773 15.336525917053223 L 12.77394962310791 15.336525917053223 C 12.580615997314453 15.336525917053223 12.457283020019531 15.343193054199219 12.403949737548828 15.356526374816895 C 12.357282638549805 15.37652587890625 12.287282943725586 15.419859886169434 12.193949699401855 15.486526489257812 C 12.100616455078125 15.559859275817871 12.043950080871582 15.61985969543457 12.02394962310791 15.666525840759277 C 12.010616302490234 15.7131929397583 12.003950119018555 15.813193321228027 12.003950119018555 15.96652603149414 L 12.003950119018555 16.266525268554688 L 10.713950157165527 16.266525268554688 L 10.713950157165527 15.646526336669922 C 10.713950157165527 15.339859962463379 10.83728313446045 15.083192825317383 11.08395004272461 14.87652587890625 L 11.453949928283691 14.566526412963867 C 11.700616836547852 14.359859466552734 11.947282791137695 14.256525993347168 12.193949699401855 14.256525993347168 L 15.893949508666992 14.256525993347168 C 16.14061737060547 14.256525993347168 16.387283325195312 14.359859466552734 16.633949279785156 14.566526412963867 L 17.003950119018555 14.87652587890625 C 17.25061798095703 15.083192825317383 17.373950958251953 15.339859962463379 17.373950958251953 15.646526336669922 L 17.373950958251953 18.176525115966797 C 17.373950958251953 18.3498592376709 17.36061668395996 18.463191986083984 17.33395004272461 18.516525268554688 C 17.307283401489258 18.56985855102539 17.227283477783203 18.646526336669922 17.093950271606445 18.74652671813965 L 16.653949737548828 19.116525650024414 C 16.48728370666504 19.249858856201172 16.34061622619629 19.316526412963867 16.21394920349121 19.316526412963867 L 16.21394920349121 19.396526336669922 C 16.34061622619629 19.396526336669922 16.48728370666504 19.463191986083984 16.653949737548828 19.596527099609375 ZM 20.411148071289062 25.05652618408203 L 20.411148071289062 14.256525993347168 L 26.12114906311035 14.256525993347168 C 26.387815475463867 14.256525993347168 26.634483337402344 14.359859466552734 26.861148834228516 14.566526412963867 L 28.341148376464844 15.796525955200195 C 28.587814331054688 16.003192901611328 28.711149215698242 16.20985984802246 28.711149215698242 16.416526794433594 L 28.711149215698242 22.896526336669922 C 28.711149215698242 23.103193283081055 28.587814331054688 23.309860229492188 28.341148376464844 23.516525268554688 L 26.861148834228516 24.74652671813965 C 26.634483337402344 24.95319366455078 26.387815475463867 25.05652618408203 26.12114906311035 25.05652618408203 L 20.411148071289062 25.05652618408203 M 27.42115020751953 22.436527252197266 L 27.42115020751953 16.87652587890625 C 27.42115020751953 16.66986083984375 27.297815322875977 16.46652603149414 27.051149368286133 16.266525268554688 L 26.31114959716797 15.646526336669922 C 26.084482192993164 15.439859390258789 25.83781623840332 15.336525917053223 25.571147918701172 15.336525917053223 L 21.711149215698242 15.336525917053223 L 21.711149215698242 23.976526260375977 L 25.571147918701172 23.976526260375977 C 25.83781623840332 23.976526260375977 26.084482192993164 23.873193740844727 26.31114959716797 23.666526794433594 L 27.051149368286133 23.046525955200195 C 27.297815322875977 22.846527099609375 27.42115020751953 22.643192291259766 27.42115020751953 22.436527252197266 ZM 32.711456298828125 20.736526489257812 L 32.711456298828125 25.05652618408203 L 31.411457061767578 25.05652618408203 L 31.411457061767578 14.256525993347168 L 37.1214599609375 14.256525993347168 C 37.368125915527344 14.256525993347168 37.61479187011719 14.359859466552734 37.86145782470703 14.566526412963867 L 38.2314567565918 14.87652587890625 C 38.478126525878906 15.083192825317383 38.60145568847656 15.339859962463379 38.60145568847656 15.646526336669922 L 38.60145568847656 19.346527099609375 C 38.60145568847656 19.6531925201416 38.478126525878906 19.90985870361328 38.2314567565918 20.116525650024414 L 37.86145782470703 20.426525115966797 C 37.61479187011719 20.633193969726562 37.368125915527344 20.736526489257812 37.1214599609375 20.736526489257812 L 32.711456298828125 20.736526489257812 M 32.711456298828125 15.336525917053223 L 32.711456298828125 19.656526565551758 L 36.551456451416016 19.656526565551758 C 36.73812484741211 19.656526565551758 36.858123779296875 19.649860382080078 36.91145706176758 19.636526107788086 C 36.958126068115234 19.616525650024414 37.02812576293945 19.573192596435547 37.1214599609375 19.506526947021484 C 37.21479034423828 19.43319320678711 37.268123626708984 19.373191833496094 37.281455993652344 19.326526641845703 C 37.301456451416016 19.27985954284668 37.311458587646484 19.179859161376953 37.311458587646484 19.026525497436523 L 37.311458587646484 15.96652603149414 C 37.311458587646484 15.813193321228027 37.301456451416016 15.7131929397583 37.281455993652344 15.666525840759277 C 37.268123626708984 15.61985969543457 37.21479034423828 15.559859275817871 37.1214599609375 15.486526489257812 C 37.02812576293945 15.419859886169434 36.958126068115234 15.37652587890625 36.91145706176758 15.356526374816895 C 36.858123779296875 15.343193054199219 36.73812484741211 15.336525917053223 36.551456451416016 15.336525917053223 L 32.711456298828125 15.336525917053223 Z" transform="matrix(1.1924484968185425, 0, 0, 1.1924484968185425, -9.435083389282227, -3.100576162338257)" style="fill: rgb(0, 0, 0); white-space: pre; color: rgb(0, 0, 0);"/><path d="M 12.02394962310791 15.194808006286621 L 11.973949432373047 15.204808235168457 C 12.047283172607422 15.4514741897583 12.08395004272461 15.698141098022461 12.08395004272461 15.944808006286621 L 12.08395004272461 25.064807891845703 L 10.783949851989746 25.064807891845703 L 10.783949851989746 14.26480770111084 L 12.883950233459473 14.26480770111084 L 16.183950424194336 22.884807586669922 C 16.2506160736084 23.064807891845703 16.283950805664062 23.211475372314453 16.283950805664062 23.32480812072754 L 16.343950271606445 23.32480812072754 C 16.343950271606445 23.211475372314453 16.373950958251953 23.064807891845703 16.433950424194336 22.884807586669922 L 19.753950119018555 14.26480770111084 L 21.83395004272461 14.26480770111084 L 21.83395004272461 25.064807891845703 L 20.533950805664062 25.064807891845703 L 20.533950805664062 15.944808006286621 C 20.533950805664062 15.698141098022461 20.57061767578125 15.4514741897583 20.643949508666992 15.204808235168457 L 20.60395050048828 15.194808006286621 L 16.8039493560791 25.064807891845703 L 15.813949584960938 25.064807891845703 C 15.340616226196289 23.904808044433594 14.890616416931152 22.778141021728516 14.463949203491211 21.68480682373047 C 14.037282943725586 20.598140716552734 13.68728256225586 19.68480682373047 13.413949966430664 18.944808959960938 C 13.133950233459473 18.211475372314453 12.890616416931152 17.564807891845703 12.683950424194336 17.004806518554688 C 12.477283477783203 16.444808959960938 12.317283630371094 16.008140563964844 12.203949928283691 15.694808006286621 C 12.090616226196289 15.388141632080078 12.030616760253906 15.221474647521973 12.02394962310791 15.194808006286621 ZM 30.14629364013672 23.98480796813965 L 30.14629364013672 25.064807891845703 L 23.23629379272461 25.064807891845703 L 23.23629379272461 14.26480770111084 L 30.14629364013672 14.26480770111084 L 30.14629364013672 15.344807624816895 L 24.536293029785156 15.344807624816895 L 24.536293029785156 19.04480743408203 L 29.286293029785156 19.04480743408203 L 29.286293029785156 20.124807357788086 L 24.536293029785156 20.124807357788086 L 24.536293029785156 23.98480796813965 L 30.14629364013672 23.98480796813965 ZM 38.07822799682617 23.98480796813965 L 38.07822799682617 25.064807891845703 L 31.168228149414062 25.064807891845703 L 31.168228149414062 14.26480770111084 L 38.07822799682617 14.26480770111084 L 38.07822799682617 15.344807624816895 L 32.46822738647461 15.344807624816895 L 32.46822738647461 19.04480743408203 L 37.21822738647461 19.04480743408203 L 37.21822738647461 20.124807357788086 L 32.46822738647461 20.124807357788086 L 32.46822738647461 23.98480796813965 L 38.07822799682617 23.98480796813965 ZM 44.920162200927734 20.604808807373047 L 44.580162048339844 20.32480812072754 C 44.453495025634766 20.224807739257812 44.36682891845703 20.168140411376953 44.320159912109375 20.154808044433594 C 44.26682662963867 20.134807586669922 44.16349411010742 20.124807357788086 44.010162353515625 20.124807357788086 L 40.40016174316406 20.124807357788086 L 40.40016174316406 23.98480796813965 L 44.43016052246094 23.98480796813965 C 44.61016082763672 23.98480796813965 44.726829528808594 23.97814178466797 44.7801628112793 23.964807510375977 C 44.83349609375 23.944807052612305 44.906829833984375 23.901473999023438 45.000160217285156 23.834808349609375 C 45.0934944152832 23.761474609375 45.146827697753906 23.701475143432617 45.160160064697266 23.654808044433594 C 45.17349624633789 23.60814094543457 45.18016052246094 23.508140563964844 45.18016052246094 23.354808807373047 L 45.18016052246094 21.16480827331543 C 45.18016052246094 20.99814224243164 45.170162200927734 20.888141632080078 45.15016174316406 20.834808349609375 C 45.13016128540039 20.78814125061035 45.05349349975586 20.711475372314453 44.920162200927734 20.604808807373047 M 40.40016174316406 15.344807624816895 L 40.40016174316406 19.04480743408203 L 43.750160217285156 19.04480743408203 C 43.93016052246094 19.04480743408203 44.05016326904297 19.03814125061035 44.11016082763672 19.02480697631836 C 44.16349411010742 19.011474609375 44.24349594116211 18.961475372314453 44.350162506103516 18.874807357788086 L 44.750160217285156 18.554807662963867 C 44.87016296386719 18.44814109802246 44.94349670410156 18.371475219726562 44.97016143798828 18.32480812072754 C 44.99016189575195 18.271474838256836 45.000160217285156 18.15814208984375 45.000160217285156 17.98480796813965 L 45.000160217285156 15.974807739257812 C 45.000160217285156 15.8214750289917 44.99016189575195 15.721474647521973 44.97016143798828 15.67480754852295 C 44.95682907104492 15.628141403198242 44.90349578857422 15.568140983581543 44.81016159057617 15.494808197021484 C 44.716827392578125 15.428141593933105 44.646827697753906 15.384807586669922 44.600162506103516 15.364808082580566 C 44.54682922363281 15.35147476196289 44.42682647705078 15.344807624816895 44.24016189575195 15.344807624816895 L 40.40016174316406 15.344807624816895 M 45.09016036987305 19.41480827331543 L 45.09016036987305 19.494808197021484 C 45.21016311645508 19.494808197021484 45.35349655151367 19.561473846435547 45.52016067504883 19.694808959960938 L 46.260162353515625 20.29480743408203 C 46.353492736816406 20.381473541259766 46.41349411010742 20.458141326904297 46.440162658691406 20.52480697631836 C 46.466827392578125 20.591474533081055 46.48016357421875 20.714807510375977 46.48016357421875 20.894807815551758 L 46.48016357421875 23.674808502197266 C 46.48016357421875 23.981473922729492 46.35682678222656 24.238142013549805 46.11016082763672 24.444807052612305 C 46.023494720458984 24.511474609375 45.90016174316406 24.61480712890625 45.74016189575195 24.75480842590332 C 45.49349594116211 24.961475372314453 45.246826171875 25.064807891845703 45.000160217285156 25.064807891845703 L 39.100162506103516 25.064807891845703 L 39.100162506103516 14.26480770111084 L 44.81016159057617 14.26480770111084 C 45.056827545166016 14.26480770111084 45.30349349975586 14.368141174316406 45.55016326904297 14.574808120727539 L 45.920162200927734 14.884807586669922 C 46.16682815551758 15.091474533081055 46.2901611328125 15.34814167022705 46.2901611328125 15.654808044433594 L 46.2901611328125 18.29480743408203 C 46.2901611328125 18.508140563964844 46.21015930175781 18.681474685668945 46.05016326904297 18.814807891845703 L 45.52016067504883 19.214807510375977 C 45.35349655151367 19.348140716552734 45.21016311645508 19.41480827331543 45.09016036987305 19.41480827331543 Z" transform="matrix(1.101377010345459, 0, 0, 1.101377010345459, -11.957806587219238, -15.284862518310547)" style="fill: rgb(0, 0, 0); white-space: pre; color: rgb(0, 0, 0);"/></svg>