G04 Layer: BottomSolderMaskLayer*
G04 EasyEDA v6.3.53, 2020-06-18T10:34:05+08:00*
G04 fc4558d4a1fd407c996c982f62b69df0,fed530592efb474aaabf7115e2e2b964,10*
G04 Gerber Generator version 0.2*
G04 Scale: 100 percent, Rotated: No, Reflected: No *
G04 Dimensions in millimeters *
G04 leading zeros omitted , absolute positions ,3 integer and 3 decimal *
%FSLAX33Y33*%
%MOMM*%
G90*
G71D02*

%ADD33C,2.503195*%
%ADD34C,0.100000*%
%ADD35C,1.599997*%
%ADD37C,1.903197*%
%ADD38C,2.003196*%

%LPD*%
G54D33*
G01X49684Y5465D02*
G01X51384Y5465D01*
G01X49684Y16465D02*
G01X51384Y16465D01*
G36*
G01X21867Y10223D02*
G01X21867Y12128D01*
G01X23772Y12128D01*
G01X23772Y10223D01*
G01X21867Y10223D01*
G37*
G54D37*
G01X20279Y11176D03*
G01X17739Y11176D03*
G01X15199Y11176D03*
G54D38*
G01X24003Y37762D03*
G01X24003Y40302D03*
G01X21463Y37762D03*
G01X21463Y40302D03*
G01X18923Y37762D03*
G01X18923Y40302D03*
G01X16383Y37762D03*
G01X16383Y40302D03*
G01X13843Y37762D03*
G36*
G01X12842Y39301D02*
G01X12842Y41303D01*
G01X14844Y41303D01*
G01X14844Y39301D01*
G01X12842Y39301D01*
G37*
G36*
G01X40145Y33459D02*
G01X40145Y35461D01*
G01X42149Y35461D01*
G01X42149Y33459D01*
G01X40145Y33459D01*
G37*
G01X43686Y34460D03*
G01X46226Y34460D03*
G01X48766Y34460D03*
G36*
G01X45313Y40025D02*
G01X45313Y42029D01*
G01X47317Y42029D01*
G01X47317Y40025D01*
G01X45313Y40025D01*
G37*
G01X43815Y41027D03*
G01X41315Y41027D03*
G36*
G01X55854Y40025D02*
G01X55854Y42029D01*
G01X57858Y42029D01*
G01X57858Y40025D01*
G01X55854Y40025D01*
G37*
G01X54356Y41027D03*
G01X51856Y41027D03*
G01X57880Y28999D03*
G01X53880Y28999D03*
G01X53006Y35540D03*
G01X55546Y35540D03*
G36*
G01X57198Y34539D02*
G01X57198Y36543D01*
G01X58976Y36543D01*
G01X58976Y34539D01*
G01X57198Y34539D01*
G37*
G01X43034Y13505D03*
G01X43034Y10965D03*
G01X43034Y8425D03*
G01X57534Y13505D03*
G01X57534Y8425D03*
G54D34*
G75*
G01X2679Y3660D02*
G03X2679Y3660I-650J0D01*
G01*
G75*
G01X61979Y42160D02*
G03X61979Y42160I-650J0D01*
G01*
G54D35*
G75*
G01X5825Y40185D02*
G03X5825Y40185I-2000J0D01*
G01*
G75*
G01X5804Y11675D02*
G03X5804Y11675I-2000J0D01*
G01*
G75*
G01X36214Y40185D02*
G03X36214Y40185I-2000J0D01*
G01*
G75*
G01X36204Y11685D02*
G03X36204Y11685I-2000J0D01*
G01*
M00*
M02*
