G04 Layer: TopPasteMaskLayer*
G04 EasyEDA v6.3.53, 2020-06-18T10:34:05+08:00*
G04 fc4558d4a1fd407c996c982f62b69df0,fed530592efb474aaabf7115e2e2b964,10*
G04 Gerber Generator version 0.2*
G04 Scale: 100 percent, Rotated: No, Reflected: No *
G04 Dimensions in millimeters *
G04 leading zeros omitted , absolute positions ,3 integer and 3 decimal *
%FSLAX33Y33*%
%MOMM*%
G90*
G71D02*

%ADD14R,1.250010X0.699999*%
%ADD15R,1.299997X0.699999*%
%ADD16R,1.099998X0.999998*%
%ADD18R,0.799998X0.499999*%
%ADD19R,0.499999X0.799998*%
%ADD20R,0.550012X0.999998*%
%ADD21R,0.999998X1.099998*%

%LPD*%
G54D14*
G01X45597Y30200D03*
G01X43097Y29250D03*
G01X43097Y31150D03*
G54D15*
G01X47284Y26950D03*
G01X53284Y26950D03*
G01X47284Y23250D03*
G01X53284Y23250D03*
G54D16*
G01X8347Y31200D03*
G01X8347Y32800D03*
G01X13647Y31200D03*
G01X13647Y32800D03*
G36*
G01X13447Y2651D02*
G01X11948Y2651D01*
G01X11948Y3649D01*
G01X13447Y3649D01*
G01X13447Y2651D01*
G37*
G36*
G01X13447Y5650D02*
G01X11948Y5650D01*
G01X11948Y6649D01*
G01X13447Y6649D01*
G01X13447Y5650D01*
G37*
G36*
G01X8448Y5650D02*
G01X6947Y5650D01*
G01X6947Y6649D01*
G01X8448Y6649D01*
G01X8448Y5650D01*
G37*
G36*
G01X8448Y2651D02*
G01X6947Y2651D01*
G01X6947Y3649D01*
G01X8448Y3649D01*
G01X8448Y2651D01*
G37*
G36*
G01X22247Y2651D02*
G01X20748Y2651D01*
G01X20748Y3649D01*
G01X22247Y3649D01*
G01X22247Y2651D01*
G37*
G36*
G01X22247Y5650D02*
G01X20748Y5650D01*
G01X20748Y6649D01*
G01X22247Y6649D01*
G01X22247Y5650D01*
G37*
G36*
G01X17248Y5650D02*
G01X15747Y5650D01*
G01X15747Y6649D01*
G01X17248Y6649D01*
G01X17248Y5650D01*
G37*
G36*
G01X17248Y2651D02*
G01X15747Y2651D01*
G01X15747Y3649D01*
G01X17248Y3649D01*
G01X17248Y2651D01*
G37*
G36*
G01X31047Y2651D02*
G01X29548Y2651D01*
G01X29548Y3649D01*
G01X31047Y3649D01*
G01X31047Y2651D01*
G37*
G36*
G01X31047Y5650D02*
G01X29548Y5650D01*
G01X29548Y6649D01*
G01X31047Y6649D01*
G01X31047Y5650D01*
G37*
G36*
G01X26048Y5650D02*
G01X24547Y5650D01*
G01X24547Y6649D01*
G01X26048Y6649D01*
G01X26048Y5650D01*
G37*
G36*
G01X26048Y2651D02*
G01X24547Y2651D01*
G01X24547Y3649D01*
G01X26048Y3649D01*
G01X26048Y2651D01*
G37*
G54D18*
G01X41347Y29800D03*
G01X41347Y28800D03*
G01X41348Y31204D03*
G01X41348Y32204D03*
G54D19*
G01X41947Y38600D03*
G01X42947Y38600D03*
G01X52547Y38600D03*
G01X53547Y38600D03*
G54D20*
G01X24323Y32658D03*
G01X26223Y32658D03*
G01X26223Y29658D03*
G01X25273Y29658D03*
G01X24323Y29658D03*
G54D16*
G01X26747Y27800D03*
G01X26747Y26200D03*
G54D21*
G01X20947Y33400D03*
G01X22747Y33400D03*
G01X21847Y27800D03*
G01X23647Y27800D03*
G54D19*
G01X22247Y25900D03*
G01X23247Y25900D03*
M00*
M02*
