G04 Layer: BottomLayer*
G04 EasyEDA v6.3.53, 2020-06-18T10:34:05+08:00*
G04 fc4558d4a1fd407c996c982f62b69df0,fed530592efb474aaabf7115e2e2b964,10*
G04 Gerber Generator version 0.2*
G04 Scale: 100 percent, Rotated: No, Reflected: No *
G04 Dimensions in millimeters *
G04 leading zeros omitted , absolute positions ,3 integer and 3 decimal *
%FSLAX33Y33*%
%MOMM*%
G90*
G71D02*

%ADD11C,0.799998*%
%ADD12C,0.299999*%
%ADD13C,0.599999*%
%ADD22R,1.699997X1.699997*%
%ADD23C,1.699997*%
%ADD24C,1.799996*%
%ADD27C,2.299995*%

%LPD*%
G36*
G01X31531Y43712D02*
G01X6507Y43712D01*
G01X6493Y43711D01*
G01X6479Y43708D01*
G01X6465Y43703D01*
G01X6452Y43696D01*
G01X6441Y43687D01*
G01X6430Y43677D01*
G01X6422Y43666D01*
G01X6415Y43653D01*
G01X6410Y43639D01*
G01X6407Y43625D01*
G01X6406Y43611D01*
G01X6407Y43595D01*
G01X6410Y43580D01*
G01X6416Y43566D01*
G01X6424Y43553D01*
G01X6433Y43541D01*
G01X6445Y43531D01*
G01X6518Y43472D01*
G01X6590Y43412D01*
G01X6661Y43350D01*
G01X6730Y43286D01*
G01X6798Y43221D01*
G01X6864Y43155D01*
G01X6929Y43087D01*
G01X6992Y43017D01*
G01X7054Y42947D01*
G01X7114Y42875D01*
G01X7173Y42801D01*
G01X7230Y42727D01*
G01X7285Y42651D01*
G01X7339Y42574D01*
G01X7391Y42495D01*
G01X7441Y42416D01*
G01X7490Y42335D01*
G01X7536Y42254D01*
G01X7581Y42171D01*
G01X7624Y42088D01*
G01X7665Y42003D01*
G01X7705Y41918D01*
G01X7742Y41832D01*
G01X7777Y41745D01*
G01X7811Y41657D01*
G01X7842Y41568D01*
G01X7872Y41479D01*
G01X7900Y41389D01*
G01X7925Y41299D01*
G01X7949Y41208D01*
G01X7971Y41117D01*
G01X7990Y41025D01*
G01X8008Y40932D01*
G01X8023Y40840D01*
G01X8037Y40747D01*
G01X8048Y40654D01*
G01X8057Y40560D01*
G01X8065Y40466D01*
G01X8070Y40373D01*
G01X8073Y40279D01*
G01X8074Y40185D01*
G01X8073Y40091D01*
G01X8070Y39997D01*
G01X8065Y39903D01*
G01X8057Y39809D01*
G01X8048Y39716D01*
G01X8037Y39622D01*
G01X8023Y39529D01*
G01X8008Y39437D01*
G01X7990Y39344D01*
G01X7970Y39252D01*
G01X7949Y39161D01*
G01X7925Y39070D01*
G01X7900Y38979D01*
G01X7872Y38890D01*
G01X7842Y38800D01*
G01X7811Y38712D01*
G01X7777Y38624D01*
G01X7742Y38537D01*
G01X7704Y38451D01*
G01X7665Y38365D01*
G01X7624Y38281D01*
G01X7581Y38197D01*
G01X7536Y38115D01*
G01X7489Y38033D01*
G01X7441Y37952D01*
G01X7390Y37873D01*
G01X7338Y37795D01*
G01X7285Y37718D01*
G01X7229Y37642D01*
G01X7172Y37567D01*
G01X7113Y37494D01*
G01X7053Y37421D01*
G01X6991Y37351D01*
G01X6928Y37281D01*
G01X6863Y37213D01*
G01X6796Y37147D01*
G01X6728Y37082D01*
G01X6659Y37018D01*
G01X6588Y36957D01*
G01X6516Y36896D01*
G01X6443Y36837D01*
G01X6368Y36780D01*
G01X6292Y36725D01*
G01X6215Y36671D01*
G01X6137Y36619D01*
G01X6057Y36569D01*
G01X5977Y36520D01*
G01X5895Y36474D01*
G01X5813Y36429D01*
G01X5729Y36386D01*
G01X5645Y36344D01*
G01X5559Y36305D01*
G01X5473Y36268D01*
G01X5386Y36232D01*
G01X5298Y36199D01*
G01X5210Y36167D01*
G01X5120Y36137D01*
G01X5031Y36110D01*
G01X4940Y36084D01*
G01X4849Y36060D01*
G01X4758Y36039D01*
G01X4666Y36019D01*
G01X4573Y36001D01*
G01X4481Y35986D01*
G01X4388Y35972D01*
G01X4294Y35961D01*
G01X4201Y35951D01*
G01X4107Y35944D01*
G01X4013Y35939D01*
G01X3919Y35936D01*
G01X3825Y35935D01*
G01X3823Y35935D01*
G01X3730Y35936D01*
G01X3636Y35939D01*
G01X3543Y35944D01*
G01X3450Y35951D01*
G01X3358Y35960D01*
G01X3265Y35972D01*
G01X3173Y35985D01*
G01X3081Y36000D01*
G01X2989Y36018D01*
G01X2898Y36037D01*
G01X2807Y36058D01*
G01X2717Y36081D01*
G01X2627Y36107D01*
G01X2538Y36134D01*
G01X2450Y36163D01*
G01X2362Y36194D01*
G01X2274Y36227D01*
G01X2188Y36262D01*
G01X2102Y36299D01*
G01X2018Y36338D01*
G01X1934Y36378D01*
G01X1851Y36421D01*
G01X1768Y36465D01*
G01X1687Y36511D01*
G01X1607Y36559D01*
G01X1528Y36608D01*
G01X1450Y36659D01*
G01X1374Y36712D01*
G01X1298Y36767D01*
G01X1224Y36823D01*
G01X1151Y36881D01*
G01X1079Y36940D01*
G01X1008Y37001D01*
G01X939Y37064D01*
G01X871Y37128D01*
G01X805Y37193D01*
G01X740Y37260D01*
G01X677Y37329D01*
G01X615Y37398D01*
G01X555Y37469D01*
G01X496Y37542D01*
G01X439Y37615D01*
G01X428Y37627D01*
G01X416Y37637D01*
G01X403Y37645D01*
G01X388Y37651D01*
G01X373Y37654D01*
G01X358Y37656D01*
G01X343Y37655D01*
G01X329Y37652D01*
G01X315Y37646D01*
G01X303Y37640D01*
G01X291Y37631D01*
G01X281Y37621D01*
G01X272Y37609D01*
G01X265Y37596D01*
G01X260Y37583D01*
G01X257Y37568D01*
G01X256Y37554D01*
G01X256Y14332D01*
G01X257Y14317D01*
G01X260Y14303D01*
G01X265Y14289D01*
G01X272Y14277D01*
G01X281Y14265D01*
G01X291Y14255D01*
G01X303Y14246D01*
G01X315Y14239D01*
G01X329Y14234D01*
G01X343Y14231D01*
G01X358Y14230D01*
G01X373Y14231D01*
G01X388Y14235D01*
G01X402Y14240D01*
G01X416Y14248D01*
G01X428Y14258D01*
G01X438Y14270D01*
G01X497Y14344D01*
G01X557Y14417D01*
G01X619Y14489D01*
G01X683Y14559D01*
G01X748Y14628D01*
G01X814Y14695D01*
G01X882Y14761D01*
G01X952Y14826D01*
G01X1023Y14888D01*
G01X1095Y14950D01*
G01X1169Y15009D01*
G01X1244Y15067D01*
G01X1320Y15123D01*
G01X1398Y15178D01*
G01X1476Y15231D01*
G01X1556Y15282D01*
G01X1637Y15331D01*
G01X1719Y15378D01*
G01X1802Y15424D01*
G01X1886Y15467D01*
G01X1971Y15509D01*
G01X2057Y15549D01*
G01X2144Y15587D01*
G01X2232Y15623D01*
G01X2320Y15657D01*
G01X2409Y15689D01*
G01X2499Y15719D01*
G01X2589Y15748D01*
G01X2681Y15774D01*
G01X2772Y15798D01*
G01X2864Y15820D01*
G01X2957Y15840D01*
G01X3050Y15857D01*
G01X3143Y15873D01*
G01X3237Y15887D01*
G01X3331Y15898D01*
G01X3426Y15908D01*
G01X3520Y15915D01*
G01X3615Y15921D01*
G01X3709Y15924D01*
G01X3804Y15925D01*
G01X3898Y15924D01*
G01X3992Y15921D01*
G01X4086Y15915D01*
G01X4180Y15908D01*
G01X4273Y15899D01*
G01X4367Y15887D01*
G01X4460Y15874D01*
G01X4552Y15858D01*
G01X4645Y15841D01*
G01X4737Y15821D01*
G01X4828Y15800D01*
G01X4919Y15776D01*
G01X5010Y15750D01*
G01X5099Y15723D01*
G01X5189Y15693D01*
G01X5277Y15661D01*
G01X5365Y15628D01*
G01X5452Y15592D01*
G01X5538Y15555D01*
G01X5624Y15515D01*
G01X5708Y15474D01*
G01X5792Y15431D01*
G01X5875Y15386D01*
G01X5956Y15340D01*
G01X6037Y15291D01*
G01X6116Y15241D01*
G01X6194Y15189D01*
G01X6272Y15135D01*
G01X6348Y15080D01*
G01X6422Y15023D01*
G01X6496Y14964D01*
G01X6568Y14903D01*
G01X6639Y14842D01*
G01X6708Y14778D01*
G01X6776Y14713D01*
G01X6842Y14647D01*
G01X6907Y14579D01*
G01X6971Y14509D01*
G01X7033Y14439D01*
G01X7093Y14366D01*
G01X7152Y14293D01*
G01X7209Y14218D01*
G01X7264Y14142D01*
G01X7318Y14065D01*
G01X7370Y13987D01*
G01X7420Y13907D01*
G01X7469Y13827D01*
G01X7516Y13745D01*
G01X7560Y13663D01*
G01X7604Y13579D01*
G01X7645Y13495D01*
G01X7684Y13409D01*
G01X7721Y13323D01*
G01X7757Y13236D01*
G01X7791Y13148D01*
G01X7822Y13059D01*
G01X7852Y12970D01*
G01X7879Y12880D01*
G01X7905Y12790D01*
G01X7929Y12699D01*
G01X7950Y12607D01*
G01X7970Y12515D01*
G01X7988Y12423D01*
G01X8003Y12330D01*
G01X8017Y12237D01*
G01X8028Y12144D01*
G01X8037Y12050D01*
G01X8045Y11957D01*
G01X8050Y11863D01*
G01X8053Y11769D01*
G01X8054Y11675D01*
G01X8053Y11581D01*
G01X8050Y11487D01*
G01X8045Y11393D01*
G01X8037Y11299D01*
G01X8028Y11206D01*
G01X8017Y11112D01*
G01X8003Y11019D01*
G01X7988Y10927D01*
G01X7970Y10834D01*
G01X7950Y10742D01*
G01X7929Y10651D01*
G01X7905Y10560D01*
G01X7880Y10469D01*
G01X7852Y10380D01*
G01X7822Y10290D01*
G01X7791Y10202D01*
G01X7757Y10114D01*
G01X7722Y10027D01*
G01X7684Y9941D01*
G01X7645Y9855D01*
G01X7604Y9771D01*
G01X7561Y9687D01*
G01X7516Y9605D01*
G01X7469Y9523D01*
G01X7421Y9443D01*
G01X7370Y9363D01*
G01X7318Y9285D01*
G01X7265Y9208D01*
G01X7209Y9132D01*
G01X7152Y9057D01*
G01X7093Y8984D01*
G01X7033Y8911D01*
G01X6971Y8841D01*
G01X6908Y8771D01*
G01X6843Y8703D01*
G01X6776Y8637D01*
G01X6708Y8572D01*
G01X6639Y8509D01*
G01X6568Y8447D01*
G01X6496Y8386D01*
G01X6423Y8327D01*
G01X6348Y8270D01*
G01X6272Y8215D01*
G01X6195Y8161D01*
G01X6117Y8109D01*
G01X6037Y8059D01*
G01X5957Y8010D01*
G01X5875Y7964D01*
G01X5793Y7919D01*
G01X5709Y7876D01*
G01X5625Y7834D01*
G01X5539Y7795D01*
G01X5453Y7758D01*
G01X5366Y7722D01*
G01X5278Y7689D01*
G01X5190Y7657D01*
G01X5100Y7627D01*
G01X5011Y7600D01*
G01X4920Y7574D01*
G01X4829Y7550D01*
G01X4738Y7529D01*
G01X4646Y7509D01*
G01X4553Y7491D01*
G01X4461Y7476D01*
G01X4368Y7462D01*
G01X4274Y7451D01*
G01X4181Y7442D01*
G01X4087Y7434D01*
G01X3993Y7429D01*
G01X3899Y7426D01*
G01X3805Y7425D01*
G01X3803Y7425D01*
G01X3708Y7426D01*
G01X3613Y7429D01*
G01X3519Y7434D01*
G01X3424Y7442D01*
G01X3330Y7451D01*
G01X3236Y7463D01*
G01X3142Y7477D01*
G01X3049Y7492D01*
G01X2956Y7510D01*
G01X2863Y7530D01*
G01X2771Y7552D01*
G01X2680Y7576D01*
G01X2589Y7602D01*
G01X2498Y7630D01*
G01X2408Y7660D01*
G01X2319Y7693D01*
G01X2231Y7727D01*
G01X2143Y7763D01*
G01X2057Y7801D01*
G01X1971Y7841D01*
G01X1886Y7882D01*
G01X1802Y7926D01*
G01X1719Y7972D01*
G01X1637Y8019D01*
G01X1556Y8068D01*
G01X1476Y8119D01*
G01X1397Y8172D01*
G01X1320Y8227D01*
G01X1243Y8283D01*
G01X1169Y8341D01*
G01X1095Y8400D01*
G01X1023Y8461D01*
G01X952Y8524D01*
G01X882Y8589D01*
G01X814Y8654D01*
G01X748Y8722D01*
G01X682Y8791D01*
G01X619Y8861D01*
G01X557Y8933D01*
G01X497Y9006D01*
G01X438Y9080D01*
G01X428Y9091D01*
G01X416Y9101D01*
G01X402Y9109D01*
G01X388Y9115D01*
G01X373Y9118D01*
G01X358Y9120D01*
G01X343Y9119D01*
G01X329Y9115D01*
G01X315Y9110D01*
G01X303Y9103D01*
G01X291Y9095D01*
G01X281Y9084D01*
G01X272Y9073D01*
G01X265Y9060D01*
G01X260Y9047D01*
G01X257Y9032D01*
G01X256Y9018D01*
G01X256Y754D01*
G01X257Y722D01*
G01X260Y690D01*
G01X265Y658D01*
G01X272Y627D01*
G01X282Y597D01*
G01X293Y567D01*
G01X306Y537D01*
G01X320Y509D01*
G01X337Y482D01*
G01X355Y455D01*
G01X375Y430D01*
G01X397Y407D01*
G01X420Y385D01*
G01X444Y364D01*
G01X470Y345D01*
G01X497Y327D01*
G01X525Y312D01*
G01X554Y298D01*
G01X583Y286D01*
G01X614Y276D01*
G01X645Y268D01*
G01X676Y262D01*
G01X708Y258D01*
G01X740Y256D01*
G01X62493Y256D01*
G01X62525Y257D01*
G01X62557Y260D01*
G01X62588Y266D01*
G01X62620Y273D01*
G01X62650Y282D01*
G01X62680Y293D01*
G01X62710Y306D01*
G01X62738Y321D01*
G01X62765Y338D01*
G01X62792Y356D01*
G01X62817Y376D01*
G01X62840Y398D01*
G01X62863Y421D01*
G01X62883Y445D01*
G01X62902Y471D01*
G01X62920Y498D01*
G01X62935Y526D01*
G01X62949Y555D01*
G01X62961Y585D01*
G01X62971Y615D01*
G01X62979Y647D01*
G01X62985Y678D01*
G01X62989Y710D01*
G01X62990Y742D01*
G01X62990Y43215D01*
G01X62989Y43247D01*
G01X62986Y43279D01*
G01X62981Y43310D01*
G01X62974Y43341D01*
G01X62965Y43372D01*
G01X62954Y43402D01*
G01X62941Y43431D01*
G01X62926Y43460D01*
G01X62909Y43487D01*
G01X62891Y43513D01*
G01X62871Y43538D01*
G01X62849Y43562D01*
G01X62826Y43584D01*
G01X62802Y43605D01*
G01X62776Y43624D01*
G01X62749Y43641D01*
G01X62721Y43657D01*
G01X62692Y43671D01*
G01X62663Y43683D01*
G01X62632Y43693D01*
G01X62601Y43701D01*
G01X62570Y43707D01*
G01X62538Y43710D01*
G01X62506Y43712D01*
G01X36897Y43712D01*
G01X36883Y43711D01*
G01X36869Y43708D01*
G01X36855Y43703D01*
G01X36842Y43696D01*
G01X36831Y43687D01*
G01X36820Y43677D01*
G01X36812Y43666D01*
G01X36805Y43653D01*
G01X36800Y43639D01*
G01X36797Y43625D01*
G01X36796Y43611D01*
G01X36797Y43595D01*
G01X36800Y43580D01*
G01X36806Y43566D01*
G01X36814Y43553D01*
G01X36823Y43541D01*
G01X36835Y43531D01*
G01X36908Y43472D01*
G01X36980Y43412D01*
G01X37051Y43350D01*
G01X37120Y43286D01*
G01X37188Y43221D01*
G01X37254Y43155D01*
G01X37319Y43087D01*
G01X37382Y43017D01*
G01X37444Y42947D01*
G01X37504Y42875D01*
G01X37563Y42801D01*
G01X37620Y42727D01*
G01X37675Y42651D01*
G01X37729Y42574D01*
G01X37781Y42495D01*
G01X37831Y42416D01*
G01X37880Y42335D01*
G01X37926Y42254D01*
G01X37971Y42171D01*
G01X38014Y42088D01*
G01X38055Y42003D01*
G01X38095Y41918D01*
G01X38132Y41832D01*
G01X38167Y41745D01*
G01X38201Y41657D01*
G01X38232Y41568D01*
G01X38262Y41479D01*
G01X38290Y41389D01*
G01X38315Y41299D01*
G01X38339Y41208D01*
G01X38361Y41117D01*
G01X38380Y41025D01*
G01X38398Y40932D01*
G01X38413Y40840D01*
G01X38427Y40747D01*
G01X38438Y40654D01*
G01X38447Y40560D01*
G01X38455Y40466D01*
G01X38460Y40373D01*
G01X38463Y40279D01*
G01X38464Y40185D01*
G01X38463Y40091D01*
G01X38460Y39998D01*
G01X38455Y39905D01*
G01X38448Y39811D01*
G01X38438Y39719D01*
G01X38427Y39626D01*
G01X38414Y39533D01*
G01X38398Y39441D01*
G01X38381Y39349D01*
G01X38362Y39258D01*
G01X38340Y39167D01*
G01X38317Y39077D01*
G01X38292Y38987D01*
G01X38264Y38897D01*
G01X38235Y38808D01*
G01X38204Y38720D01*
G01X38171Y38633D01*
G01X38136Y38546D01*
G01X38099Y38461D01*
G01X38060Y38376D01*
G01X38019Y38292D01*
G01X37977Y38208D01*
G01X37932Y38126D01*
G01X37886Y38045D01*
G01X37838Y37965D01*
G01X37788Y37886D01*
G01X37737Y37808D01*
G01X37684Y37731D01*
G01X37629Y37655D01*
G01X37573Y37581D01*
G01X37515Y37507D01*
G01X37455Y37435D01*
G01X37394Y37365D01*
G01X37331Y37296D01*
G01X37267Y37228D01*
G01X37201Y37161D01*
G01X37134Y37097D01*
G01X37065Y37033D01*
G01X36995Y36971D01*
G01X36924Y36911D01*
G01X36851Y36852D01*
G01X36777Y36795D01*
G01X36702Y36739D01*
G01X36626Y36685D01*
G01X36548Y36633D01*
G01X36470Y36583D01*
G01X36390Y36534D01*
G01X36309Y36487D01*
G01X36228Y36442D01*
G01X36145Y36399D01*
G01X36061Y36357D01*
G01X35976Y36317D01*
G01X35891Y36280D01*
G01X35805Y36244D01*
G01X35718Y36210D01*
G01X35630Y36178D01*
G01X35542Y36147D01*
G01X35453Y36119D01*
G01X35363Y36093D01*
G01X35273Y36069D01*
G01X35182Y36046D01*
G01X35091Y36026D01*
G01X34999Y36008D01*
G01X34907Y35992D01*
G01X34815Y35977D01*
G01X34722Y35965D01*
G01X34629Y35955D01*
G01X34614Y35953D01*
G01X34600Y35948D01*
G01X34587Y35941D01*
G01X34575Y35932D01*
G01X34564Y35922D01*
G01X34555Y35910D01*
G01X34547Y35897D01*
G01X34542Y35883D01*
G01X34539Y35869D01*
G01X34538Y35854D01*
G01X34539Y35839D01*
G01X34542Y35825D01*
G01X34547Y35812D01*
G01X34554Y35799D01*
G01X34562Y35787D01*
G01X34573Y35777D01*
G01X34584Y35768D01*
G01X34610Y35756D01*
G01X34625Y35753D01*
G01X34639Y35752D01*
G01X38317Y35752D01*
G01X38333Y35754D01*
G01X38349Y35757D01*
G01X38363Y35763D01*
G01X38377Y35772D01*
G01X38389Y35782D01*
G01X40127Y37520D01*
G01X40150Y37542D01*
G01X40176Y37562D01*
G01X40202Y37581D01*
G01X40230Y37597D01*
G01X40259Y37611D01*
G01X40289Y37624D01*
G01X40319Y37634D01*
G01X40351Y37642D01*
G01X40382Y37648D01*
G01X40415Y37651D01*
G01X40447Y37652D01*
G01X54747Y37652D01*
G01X54779Y37651D01*
G01X54811Y37648D01*
G01X54843Y37642D01*
G01X54874Y37634D01*
G01X54905Y37624D01*
G01X54935Y37611D01*
G01X54964Y37597D01*
G01X54991Y37581D01*
G01X55018Y37562D01*
G01X55043Y37542D01*
G01X55067Y37520D01*
G01X55866Y36721D01*
G01X55876Y36710D01*
G01X55889Y36699D01*
G01X55903Y36690D01*
G01X55919Y36683D01*
G01X55966Y36666D01*
G01X56013Y36648D01*
G01X56059Y36627D01*
G01X56104Y36605D01*
G01X56148Y36581D01*
G01X56191Y36555D01*
G01X56233Y36527D01*
G01X56274Y36497D01*
G01X56313Y36466D01*
G01X56351Y36433D01*
G01X56388Y36398D01*
G01X56423Y36362D01*
G01X56457Y36325D01*
G01X56489Y36286D01*
G01X56519Y36246D01*
G01X56548Y36205D01*
G01X56575Y36162D01*
G01X56600Y36119D01*
G01X56623Y36074D01*
G01X56645Y36029D01*
G01X56664Y35982D01*
G01X56682Y35935D01*
G01X56697Y35887D01*
G01X56711Y35839D01*
G01X56722Y35790D01*
G01X56732Y35740D01*
G01X56739Y35690D01*
G01X56744Y35640D01*
G01X56747Y35590D01*
G01X56748Y35540D01*
G01X56747Y35490D01*
G01X56744Y35441D01*
G01X56739Y35391D01*
G01X56732Y35342D01*
G01X56723Y35293D01*
G01X56712Y35245D01*
G01X56698Y35197D01*
G01X56683Y35149D01*
G01X56666Y35103D01*
G01X56647Y35057D01*
G01X56626Y35012D01*
G01X56604Y34967D01*
G01X56579Y34924D01*
G01X56553Y34882D01*
G01X56525Y34841D01*
G01X56495Y34801D01*
G01X56464Y34763D01*
G01X56431Y34725D01*
G01X56396Y34689D01*
G01X56360Y34655D01*
G01X56323Y34622D01*
G01X56285Y34591D01*
G01X56245Y34561D01*
G01X56204Y34533D01*
G01X56161Y34507D01*
G01X56118Y34482D01*
G01X56074Y34459D01*
G01X56029Y34439D01*
G01X55983Y34420D01*
G01X55936Y34402D01*
G01X55889Y34387D01*
G01X55841Y34374D01*
G01X55793Y34363D01*
G01X55744Y34354D01*
G01X55695Y34347D01*
G01X55645Y34341D01*
G01X55596Y34338D01*
G01X55546Y34337D01*
G01X55496Y34338D01*
G01X55445Y34342D01*
G01X55395Y34347D01*
G01X55345Y34354D01*
G01X55296Y34364D01*
G01X55247Y34375D01*
G01X55198Y34389D01*
G01X55150Y34404D01*
G01X55103Y34422D01*
G01X55056Y34441D01*
G01X55011Y34463D01*
G01X54966Y34486D01*
G01X54923Y34512D01*
G01X54880Y34539D01*
G01X54839Y34567D01*
G01X54798Y34598D01*
G01X54760Y34630D01*
G01X54722Y34664D01*
G01X54686Y34699D01*
G01X54652Y34736D01*
G01X54619Y34774D01*
G01X54588Y34814D01*
G01X54558Y34854D01*
G01X54530Y34896D01*
G01X54504Y34940D01*
G01X54480Y34984D01*
G01X54457Y35029D01*
G01X54437Y35075D01*
G01X54418Y35122D01*
G01X54402Y35169D01*
G01X54387Y35218D01*
G01X54375Y35267D01*
G01X54370Y35281D01*
G01X54364Y35295D01*
G01X54355Y35307D01*
G01X54345Y35318D01*
G01X54333Y35328D01*
G01X54320Y35335D01*
G01X54306Y35341D01*
G01X54291Y35344D01*
G01X54276Y35345D01*
G01X54261Y35344D01*
G01X54246Y35341D01*
G01X54232Y35335D01*
G01X54219Y35328D01*
G01X54207Y35318D01*
G01X54197Y35307D01*
G01X54188Y35295D01*
G01X54182Y35281D01*
G01X54177Y35267D01*
G01X54164Y35218D01*
G01X54150Y35169D01*
G01X54133Y35122D01*
G01X54115Y35075D01*
G01X54094Y35029D01*
G01X54072Y34984D01*
G01X54048Y34940D01*
G01X54022Y34896D01*
G01X53994Y34854D01*
G01X53964Y34814D01*
G01X53933Y34774D01*
G01X53900Y34736D01*
G01X53866Y34699D01*
G01X53830Y34664D01*
G01X53792Y34630D01*
G01X53753Y34598D01*
G01X53713Y34567D01*
G01X53672Y34539D01*
G01X53629Y34512D01*
G01X53586Y34486D01*
G01X53541Y34463D01*
G01X53495Y34441D01*
G01X53449Y34422D01*
G01X53402Y34404D01*
G01X53354Y34389D01*
G01X53305Y34375D01*
G01X53256Y34364D01*
G01X53207Y34354D01*
G01X53157Y34347D01*
G01X53107Y34342D01*
G01X53056Y34338D01*
G01X53006Y34337D01*
G01X52956Y34338D01*
G01X52907Y34341D01*
G01X52857Y34347D01*
G01X52808Y34354D01*
G01X52759Y34363D01*
G01X52711Y34374D01*
G01X52663Y34387D01*
G01X52615Y34402D01*
G01X52569Y34420D01*
G01X52523Y34439D01*
G01X52478Y34459D01*
G01X52434Y34482D01*
G01X52390Y34507D01*
G01X52348Y34533D01*
G01X52307Y34561D01*
G01X52267Y34591D01*
G01X52229Y34622D01*
G01X52191Y34655D01*
G01X52156Y34689D01*
G01X52121Y34725D01*
G01X52088Y34763D01*
G01X52057Y34801D01*
G01X52027Y34841D01*
G01X51999Y34882D01*
G01X51973Y34924D01*
G01X51948Y34967D01*
G01X51926Y35012D01*
G01X51905Y35057D01*
G01X51886Y35103D01*
G01X51869Y35149D01*
G01X51853Y35197D01*
G01X51840Y35245D01*
G01X51829Y35293D01*
G01X51820Y35342D01*
G01X51813Y35391D01*
G01X51808Y35441D01*
G01X51804Y35490D01*
G01X51803Y35540D01*
G01X51804Y35591D01*
G01X51808Y35641D01*
G01X51813Y35692D01*
G01X51820Y35742D01*
G01X51830Y35792D01*
G01X51842Y35841D01*
G01X51855Y35890D01*
G01X51871Y35938D01*
G01X51889Y35985D01*
G01X51909Y36032D01*
G01X51931Y36078D01*
G01X51954Y36123D01*
G01X51980Y36167D01*
G01X52007Y36209D01*
G01X52036Y36251D01*
G01X52067Y36291D01*
G01X52099Y36330D01*
G01X52134Y36368D01*
G01X52169Y36404D01*
G01X52206Y36438D01*
G01X52245Y36471D01*
G01X52285Y36502D01*
G01X52326Y36532D01*
G01X52369Y36560D01*
G01X52380Y36568D01*
G01X52391Y36579D01*
G01X52400Y36590D01*
G01X52407Y36603D01*
G01X52412Y36617D01*
G01X52415Y36631D01*
G01X52416Y36646D01*
G01X52415Y36660D01*
G01X52412Y36674D01*
G01X52407Y36688D01*
G01X52400Y36701D01*
G01X52392Y36712D01*
G01X52381Y36723D01*
G01X52370Y36731D01*
G01X52357Y36738D01*
G01X52343Y36743D01*
G01X52329Y36746D01*
G01X52315Y36747D01*
G01X40676Y36747D01*
G01X40660Y36746D01*
G01X40645Y36742D01*
G01X40630Y36736D01*
G01X40617Y36728D01*
G01X40605Y36718D01*
G01X38867Y34980D01*
G01X38843Y34958D01*
G01X38818Y34938D01*
G01X38791Y34919D01*
G01X38764Y34903D01*
G01X38735Y34888D01*
G01X38705Y34876D01*
G01X38674Y34866D01*
G01X38643Y34858D01*
G01X38611Y34852D01*
G01X38579Y34848D01*
G01X38547Y34847D01*
G01X32947Y34847D01*
G01X32915Y34848D01*
G01X32882Y34852D01*
G01X32851Y34858D01*
G01X32819Y34866D01*
G01X32789Y34876D01*
G01X32759Y34888D01*
G01X32730Y34903D01*
G01X32702Y34919D01*
G01X32676Y34938D01*
G01X32650Y34958D01*
G01X32627Y34980D01*
G01X29734Y37873D01*
G01X29721Y37884D01*
G01X29707Y37892D01*
G01X29691Y37898D01*
G01X29674Y37902D01*
G01X29638Y37907D01*
G01X29603Y37915D01*
G01X29568Y37925D01*
G01X29533Y37937D01*
G01X29500Y37950D01*
G01X29467Y37966D01*
G01X29435Y37984D01*
G01X29405Y38004D01*
G01X29375Y38026D01*
G01X29347Y38049D01*
G01X29321Y38074D01*
G01X29296Y38100D01*
G01X29273Y38128D01*
G01X29251Y38158D01*
G01X29231Y38188D01*
G01X29213Y38220D01*
G01X29197Y38253D01*
G01X29183Y38286D01*
G01X29172Y38321D01*
G01X29162Y38356D01*
G01X29154Y38391D01*
G01X29149Y38427D01*
G01X29145Y38464D01*
G01X29144Y38500D01*
G01X29145Y38535D01*
G01X29148Y38570D01*
G01X29153Y38605D01*
G01X29160Y38639D01*
G01X29170Y38673D01*
G01X29181Y38706D01*
G01X29194Y38739D01*
G01X29208Y38770D01*
G01X29225Y38801D01*
G01X29243Y38831D01*
G01X29263Y38860D01*
G01X29285Y38887D01*
G01X29309Y38913D01*
G01X29333Y38938D01*
G01X29359Y38961D01*
G01X29387Y38983D01*
G01X29416Y39003D01*
G01X29445Y39022D01*
G01X29476Y39038D01*
G01X29508Y39053D01*
G01X29541Y39066D01*
G01X29574Y39077D01*
G01X29608Y39086D01*
G01X29642Y39093D01*
G01X29677Y39098D01*
G01X29712Y39101D01*
G01X29747Y39102D01*
G01X29788Y39101D01*
G01X29829Y39097D01*
G01X29870Y39090D01*
G01X29910Y39080D01*
G01X29950Y39067D01*
G01X29967Y39063D01*
G01X29984Y39061D01*
G01X29999Y39062D01*
G01X30013Y39065D01*
G01X30026Y39070D01*
G01X30039Y39077D01*
G01X30051Y39086D01*
G01X30061Y39096D01*
G01X30070Y39108D01*
G01X30082Y39134D01*
G01X30085Y39148D01*
G01X30086Y39163D01*
G01X30083Y39187D01*
G01X30060Y39285D01*
G01X30040Y39384D01*
G01X30022Y39483D01*
G01X30007Y39582D01*
G01X29994Y39682D01*
G01X29983Y39782D01*
G01X29975Y39883D01*
G01X29969Y39983D01*
G01X29965Y40084D01*
G01X29964Y40185D01*
G01X29965Y40279D01*
G01X29968Y40373D01*
G01X29973Y40466D01*
G01X29981Y40560D01*
G01X29990Y40654D01*
G01X30001Y40747D01*
G01X30015Y40840D01*
G01X30030Y40932D01*
G01X30048Y41025D01*
G01X30067Y41117D01*
G01X30089Y41208D01*
G01X30113Y41299D01*
G01X30138Y41389D01*
G01X30166Y41479D01*
G01X30196Y41568D01*
G01X30227Y41657D01*
G01X30261Y41745D01*
G01X30296Y41832D01*
G01X30333Y41918D01*
G01X30373Y42003D01*
G01X30414Y42088D01*
G01X30457Y42171D01*
G01X30502Y42254D01*
G01X30548Y42335D01*
G01X30597Y42416D01*
G01X30647Y42495D01*
G01X30699Y42574D01*
G01X30753Y42651D01*
G01X30808Y42727D01*
G01X30865Y42801D01*
G01X30924Y42875D01*
G01X30984Y42947D01*
G01X31046Y43017D01*
G01X31109Y43087D01*
G01X31174Y43155D01*
G01X31240Y43221D01*
G01X31308Y43286D01*
G01X31377Y43350D01*
G01X31448Y43412D01*
G01X31520Y43472D01*
G01X31593Y43531D01*
G01X31605Y43541D01*
G01X31614Y43553D01*
G01X31622Y43566D01*
G01X31628Y43580D01*
G01X31631Y43595D01*
G01X31632Y43611D01*
G01X31631Y43625D01*
G01X31628Y43639D01*
G01X31623Y43653D01*
G01X31616Y43666D01*
G01X31608Y43677D01*
G01X31597Y43687D01*
G01X31586Y43696D01*
G01X31573Y43703D01*
G01X31559Y43708D01*
G01X31545Y43711D01*
G01X31531Y43712D01*
G37*

%LPC*%
G36*
G01X14743Y41504D02*
G01X12943Y41504D01*
G01X12918Y41503D01*
G01X12893Y41500D01*
G01X12869Y41495D01*
G01X12845Y41488D01*
G01X12821Y41479D01*
G01X12799Y41468D01*
G01X12777Y41455D01*
G01X12757Y41441D01*
G01X12738Y41424D01*
G01X12720Y41407D01*
G01X12704Y41388D01*
G01X12690Y41367D01*
G01X12677Y41346D01*
G01X12666Y41323D01*
G01X12657Y41300D01*
G01X12650Y41276D01*
G01X12644Y41252D01*
G01X12641Y41227D01*
G01X12640Y41202D01*
G01X12640Y39781D01*
G01X12639Y39765D01*
G01X12635Y39750D01*
G01X12629Y39735D01*
G01X12621Y39722D01*
G01X12611Y39709D01*
G01X11727Y38826D01*
G01X11705Y38802D01*
G01X11685Y38777D01*
G01X11666Y38750D01*
G01X11650Y38723D01*
G01X11635Y38694D01*
G01X11623Y38664D01*
G01X11613Y38633D01*
G01X11605Y38602D01*
G01X11599Y38570D01*
G01X11595Y38538D01*
G01X11594Y38506D01*
G01X11594Y35200D01*
G01X11595Y35168D01*
G01X11599Y35135D01*
G01X11605Y35104D01*
G01X11613Y35072D01*
G01X11623Y35042D01*
G01X11635Y35012D01*
G01X11650Y34983D01*
G01X11666Y34955D01*
G01X11685Y34929D01*
G01X11705Y34903D01*
G01X11727Y34880D01*
G01X15027Y31580D01*
G01X15050Y31558D01*
G01X15076Y31538D01*
G01X15102Y31519D01*
G01X15130Y31503D01*
G01X15159Y31488D01*
G01X15189Y31476D01*
G01X15219Y31466D01*
G01X15251Y31458D01*
G01X15282Y31452D01*
G01X15315Y31448D01*
G01X15347Y31447D01*
G01X39312Y31447D01*
G01X39329Y31446D01*
G01X39345Y31442D01*
G01X39361Y31435D01*
G01X39375Y31426D01*
G01X39404Y31404D01*
G01X39435Y31384D01*
G01X39467Y31366D01*
G01X39499Y31350D01*
G01X39533Y31336D01*
G01X39567Y31325D01*
G01X39602Y31315D01*
G01X39638Y31307D01*
G01X39674Y31302D01*
G01X39710Y31298D01*
G01X39747Y31297D01*
G01X39782Y31298D01*
G01X39817Y31301D01*
G01X39851Y31306D01*
G01X39886Y31313D01*
G01X39920Y31323D01*
G01X39953Y31334D01*
G01X39985Y31347D01*
G01X40017Y31361D01*
G01X40048Y31378D01*
G01X40078Y31396D01*
G01X40107Y31416D01*
G01X40134Y31438D01*
G01X40160Y31461D01*
G01X40185Y31486D01*
G01X40208Y31512D01*
G01X40230Y31540D01*
G01X40250Y31569D01*
G01X40269Y31598D01*
G01X40285Y31629D01*
G01X40300Y31661D01*
G01X40313Y31694D01*
G01X40324Y31727D01*
G01X40333Y31761D01*
G01X40340Y31795D01*
G01X40345Y31830D01*
G01X40348Y31865D01*
G01X40349Y31900D01*
G01X40348Y31937D01*
G01X40345Y31975D01*
G01X40339Y32012D01*
G01X40331Y32049D01*
G01X40320Y32085D01*
G01X40307Y32120D01*
G01X40293Y32155D01*
G01X40276Y32188D01*
G01X40257Y32221D01*
G01X40236Y32252D01*
G01X40213Y32282D01*
G01X40203Y32296D01*
G01X40196Y32312D01*
G01X40191Y32329D01*
G01X40190Y32346D01*
G01X40191Y32361D01*
G01X40194Y32375D01*
G01X40199Y32388D01*
G01X40206Y32401D01*
G01X40214Y32413D01*
G01X40225Y32423D01*
G01X40236Y32432D01*
G01X40249Y32439D01*
G01X40263Y32444D01*
G01X40277Y32447D01*
G01X40291Y32448D01*
G01X42417Y32448D01*
G01X42433Y32446D01*
G01X42448Y32443D01*
G01X42463Y32437D01*
G01X42477Y32428D01*
G01X42489Y32418D01*
G01X43665Y31241D01*
G01X43676Y31229D01*
G01X43684Y31216D01*
G01X43690Y31201D01*
G01X43694Y31185D01*
G01X43695Y31170D01*
G01X43695Y26635D01*
G01X43694Y26618D01*
G01X43689Y26602D01*
G01X43683Y26586D01*
G01X43673Y26572D01*
G01X43652Y26543D01*
G01X43632Y26512D01*
G01X43614Y26481D01*
G01X43598Y26448D01*
G01X43584Y26414D01*
G01X43572Y26380D01*
G01X43562Y26344D01*
G01X43554Y26309D01*
G01X43549Y26273D01*
G01X43545Y26236D01*
G01X43544Y26200D01*
G01X43545Y26165D01*
G01X43548Y26130D01*
G01X43553Y26095D01*
G01X43561Y26061D01*
G01X43570Y26027D01*
G01X43581Y25994D01*
G01X43594Y25961D01*
G01X43608Y25929D01*
G01X43625Y25898D01*
G01X43643Y25869D01*
G01X43663Y25840D01*
G01X43685Y25812D01*
G01X43709Y25786D01*
G01X43733Y25761D01*
G01X43759Y25738D01*
G01X43787Y25716D01*
G01X43816Y25696D01*
G01X43846Y25678D01*
G01X43876Y25661D01*
G01X43908Y25646D01*
G01X43941Y25634D01*
G01X43974Y25623D01*
G01X44008Y25613D01*
G01X44042Y25606D01*
G01X44077Y25601D01*
G01X44112Y25598D01*
G01X44147Y25597D01*
G01X44182Y25598D01*
G01X44217Y25601D01*
G01X44251Y25606D01*
G01X44286Y25613D01*
G01X44320Y25623D01*
G01X44353Y25634D01*
G01X44385Y25646D01*
G01X44417Y25661D01*
G01X44448Y25678D01*
G01X44478Y25696D01*
G01X44507Y25716D01*
G01X44534Y25738D01*
G01X44560Y25761D01*
G01X44585Y25786D01*
G01X44608Y25812D01*
G01X44630Y25840D01*
G01X44650Y25869D01*
G01X44669Y25898D01*
G01X44685Y25929D01*
G01X44700Y25961D01*
G01X44713Y25994D01*
G01X44724Y26027D01*
G01X44733Y26061D01*
G01X44740Y26095D01*
G01X44745Y26130D01*
G01X44748Y26165D01*
G01X44749Y26200D01*
G01X44748Y26236D01*
G01X44745Y26272D01*
G01X44739Y26308D01*
G01X44732Y26344D01*
G01X44722Y26379D01*
G01X44710Y26413D01*
G01X44696Y26447D01*
G01X44681Y26479D01*
G01X44663Y26511D01*
G01X44643Y26541D01*
G01X44622Y26571D01*
G01X44612Y26585D01*
G01X44606Y26600D01*
G01X44601Y26616D01*
G01X44600Y26633D01*
G01X44600Y31399D01*
G01X44599Y31431D01*
G01X44595Y31463D01*
G01X44590Y31495D01*
G01X44582Y31527D01*
G01X44572Y31557D01*
G01X44559Y31587D01*
G01X44545Y31616D01*
G01X44528Y31644D01*
G01X44510Y31670D01*
G01X44490Y31695D01*
G01X44468Y31719D01*
G01X42966Y33220D01*
G01X42943Y33242D01*
G01X42918Y33263D01*
G01X42891Y33281D01*
G01X42863Y33297D01*
G01X42834Y33312D01*
G01X42805Y33324D01*
G01X42774Y33334D01*
G01X42743Y33342D01*
G01X42711Y33348D01*
G01X42679Y33352D01*
G01X42646Y33353D01*
G01X42436Y33353D01*
G01X42422Y33354D01*
G01X42407Y33357D01*
G01X42394Y33362D01*
G01X42381Y33369D01*
G01X42370Y33378D01*
G01X42359Y33388D01*
G01X42351Y33399D01*
G01X42344Y33412D01*
G01X42339Y33426D01*
G01X42336Y33440D01*
G01X42334Y33454D01*
G01X42338Y33481D01*
G01X42344Y33507D01*
G01X42347Y33533D01*
G01X42348Y33560D01*
G01X42348Y34044D01*
G01X42350Y34058D01*
G01X42353Y34072D01*
G01X42358Y34086D01*
G01X42365Y34098D01*
G01X42373Y34110D01*
G01X42384Y34120D01*
G01X42395Y34129D01*
G01X42408Y34136D01*
G01X42421Y34141D01*
G01X42436Y34144D01*
G01X42450Y34145D01*
G01X42466Y34144D01*
G01X42481Y34140D01*
G01X42496Y34134D01*
G01X42509Y34126D01*
G01X42521Y34116D01*
G01X42532Y34104D01*
G01X42540Y34090D01*
G01X42546Y34076D01*
G01X42563Y34029D01*
G01X42582Y33983D01*
G01X42603Y33937D01*
G01X42626Y33893D01*
G01X42650Y33849D01*
G01X42676Y33807D01*
G01X42704Y33765D01*
G01X42734Y33725D01*
G01X42765Y33686D01*
G01X42798Y33649D01*
G01X42833Y33613D01*
G01X42868Y33578D01*
G01X42906Y33545D01*
G01X42944Y33513D01*
G01X42984Y33483D01*
G01X43026Y33455D01*
G01X43068Y33428D01*
G01X43111Y33404D01*
G01X43156Y33381D01*
G01X43201Y33360D01*
G01X43247Y33340D01*
G01X43294Y33323D01*
G01X43341Y33308D01*
G01X43389Y33294D01*
G01X43438Y33283D01*
G01X43487Y33274D01*
G01X43537Y33267D01*
G01X43586Y33261D01*
G01X43636Y33258D01*
G01X43686Y33257D01*
G01X43738Y33258D01*
G01X43790Y33262D01*
G01X43842Y33267D01*
G01X43893Y33275D01*
G01X43944Y33285D01*
G01X43995Y33298D01*
G01X44045Y33312D01*
G01X44094Y33329D01*
G01X44111Y33333D01*
G01X44129Y33335D01*
G01X44145Y33334D01*
G01X44160Y33330D01*
G01X44175Y33324D01*
G01X44189Y33315D01*
G01X44201Y33305D01*
G01X49365Y28141D01*
G01X49375Y28129D01*
G01X49383Y28116D01*
G01X49389Y28101D01*
G01X49393Y28085D01*
G01X49394Y28069D01*
G01X49394Y23629D01*
G01X49393Y23613D01*
G01X49389Y23598D01*
G01X49383Y23583D01*
G01X49375Y23570D01*
G01X49365Y23558D01*
G01X48289Y22482D01*
G01X48277Y22472D01*
G01X48263Y22463D01*
G01X48249Y22457D01*
G01X48233Y22454D01*
G01X48217Y22452D01*
G01X44326Y22452D01*
G01X44311Y22453D01*
G01X44297Y22456D01*
G01X44271Y22468D01*
G01X44259Y22477D01*
G01X44249Y22487D01*
G01X44240Y22499D01*
G01X44233Y22512D01*
G01X44228Y22525D01*
G01X44225Y22539D01*
G01X44224Y22554D01*
G01X44225Y22570D01*
G01X44229Y22585D01*
G01X44235Y22600D01*
G01X44243Y22613D01*
G01X44253Y22625D01*
G01X44265Y22636D01*
G01X44296Y22659D01*
G01X44325Y22685D01*
G01X44352Y22712D01*
G01X44378Y22740D01*
G01X44403Y22770D01*
G01X44425Y22801D01*
G01X44446Y22833D01*
G01X44465Y22867D01*
G01X44483Y22901D01*
G01X44498Y22937D01*
G01X44512Y22973D01*
G01X44523Y23010D01*
G01X44533Y23047D01*
G01X44540Y23085D01*
G01X44545Y23123D01*
G01X44548Y23161D01*
G01X44549Y23200D01*
G01X44548Y23239D01*
G01X44545Y23278D01*
G01X44539Y23318D01*
G01X44532Y23356D01*
G01X44522Y23394D01*
G01X44510Y23432D01*
G01X44496Y23469D01*
G01X44480Y23505D01*
G01X44462Y23540D01*
G01X44442Y23574D01*
G01X44420Y23606D01*
G01X44396Y23638D01*
G01X44371Y23668D01*
G01X44344Y23697D01*
G01X43044Y24997D01*
G01X43015Y25024D01*
G01X42985Y25049D01*
G01X42953Y25073D01*
G01X42921Y25095D01*
G01X42887Y25115D01*
G01X42852Y25133D01*
G01X42816Y25149D01*
G01X42779Y25163D01*
G01X42741Y25175D01*
G01X42703Y25185D01*
G01X42665Y25192D01*
G01X42626Y25198D01*
G01X42586Y25201D01*
G01X42547Y25202D01*
G01X20680Y25202D01*
G01X20664Y25204D01*
G01X20649Y25207D01*
G01X20634Y25213D01*
G01X20620Y25222D01*
G01X20608Y25232D01*
G01X17944Y27897D01*
G01X17915Y27924D01*
G01X17885Y27949D01*
G01X17853Y27973D01*
G01X17821Y27995D01*
G01X17787Y28015D01*
G01X17752Y28033D01*
G01X17716Y28049D01*
G01X17679Y28063D01*
G01X17641Y28075D01*
G01X17603Y28085D01*
G01X17564Y28092D01*
G01X17525Y28098D01*
G01X17486Y28101D01*
G01X17447Y28102D01*
G01X13447Y28102D01*
G01X13407Y28101D01*
G01X13368Y28098D01*
G01X13329Y28092D01*
G01X13291Y28085D01*
G01X13253Y28075D01*
G01X13215Y28063D01*
G01X13178Y28049D01*
G01X13143Y28033D01*
G01X13108Y28015D01*
G01X13092Y28008D01*
G01X13075Y28004D01*
G01X13058Y28002D01*
G01X8347Y28002D01*
G01X8309Y28001D01*
G01X8271Y27998D01*
G01X8233Y27993D01*
G01X8196Y27986D01*
G01X8159Y27977D01*
G01X8122Y27966D01*
G01X8087Y27952D01*
G01X8052Y27937D01*
G01X8018Y27921D01*
G01X7985Y27902D01*
G01X7953Y27881D01*
G01X7922Y27859D01*
G01X7892Y27835D01*
G01X7864Y27810D01*
G01X7837Y27783D01*
G01X7811Y27755D01*
G01X7788Y27725D01*
G01X7765Y27694D01*
G01X7745Y27662D01*
G01X7726Y27629D01*
G01X7709Y27595D01*
G01X7694Y27560D01*
G01X7681Y27524D01*
G01X7670Y27488D01*
G01X7661Y27451D01*
G01X7654Y27414D01*
G01X7648Y27376D01*
G01X7645Y27338D01*
G01X7644Y27300D01*
G01X7645Y27262D01*
G01X7648Y27224D01*
G01X7654Y27186D01*
G01X7661Y27149D01*
G01X7670Y27112D01*
G01X7681Y27076D01*
G01X7694Y27040D01*
G01X7709Y27005D01*
G01X7726Y26971D01*
G01X7745Y26938D01*
G01X7765Y26906D01*
G01X7788Y26875D01*
G01X7811Y26845D01*
G01X7837Y26817D01*
G01X7864Y26790D01*
G01X7892Y26764D01*
G01X7922Y26741D01*
G01X7953Y26718D01*
G01X7985Y26698D01*
G01X8018Y26679D01*
G01X8052Y26662D01*
G01X8087Y26647D01*
G01X8122Y26634D01*
G01X8159Y26623D01*
G01X8196Y26614D01*
G01X8233Y26607D01*
G01X8271Y26601D01*
G01X8309Y26598D01*
G01X8347Y26597D01*
G01X13447Y26597D01*
G01X13486Y26598D01*
G01X13525Y26602D01*
G01X13564Y26607D01*
G01X13603Y26615D01*
G01X13641Y26625D01*
G01X13678Y26637D01*
G01X13715Y26651D01*
G01X13751Y26667D01*
G01X13786Y26685D01*
G01X13802Y26692D01*
G01X13818Y26696D01*
G01X13835Y26697D01*
G01X17114Y26697D01*
G01X17130Y26696D01*
G01X17145Y26692D01*
G01X17160Y26686D01*
G01X17173Y26678D01*
G01X17186Y26668D01*
G01X19850Y24003D01*
G01X19879Y23976D01*
G01X19909Y23951D01*
G01X19940Y23927D01*
G01X19973Y23905D01*
G01X20007Y23885D01*
G01X20042Y23867D01*
G01X20078Y23851D01*
G01X20115Y23837D01*
G01X20152Y23825D01*
G01X20191Y23815D01*
G01X20229Y23807D01*
G01X20268Y23802D01*
G01X20307Y23798D01*
G01X20347Y23797D01*
G01X33939Y23797D01*
G01X33954Y23796D01*
G01X33968Y23793D01*
G01X33982Y23788D01*
G01X33994Y23781D01*
G01X34006Y23773D01*
G01X34016Y23762D01*
G01X34025Y23751D01*
G01X34032Y23738D01*
G01X34037Y23724D01*
G01X34040Y23710D01*
G01X34041Y23696D01*
G01X34040Y23681D01*
G01X34037Y23667D01*
G01X34032Y23654D01*
G01X34025Y23641D01*
G01X34017Y23630D01*
G01X34006Y23619D01*
G01X33995Y23611D01*
G01X33982Y23604D01*
G01X33969Y23599D01*
G01X33955Y23595D01*
G01X33917Y23588D01*
G01X33880Y23579D01*
G01X33843Y23567D01*
G01X33807Y23553D01*
G01X33772Y23536D01*
G01X33739Y23518D01*
G01X33706Y23497D01*
G01X33675Y23474D01*
G01X33661Y23465D01*
G01X33645Y23458D01*
G01X33629Y23454D01*
G01X33612Y23452D01*
G01X20046Y23452D01*
G01X20014Y23451D01*
G01X19982Y23448D01*
G01X19950Y23442D01*
G01X19919Y23434D01*
G01X19888Y23424D01*
G01X19858Y23411D01*
G01X19829Y23397D01*
G01X19802Y23381D01*
G01X19775Y23362D01*
G01X19750Y23342D01*
G01X19726Y23320D01*
G01X19134Y22727D01*
G01X19121Y22716D01*
G01X19106Y22708D01*
G01X19091Y22701D01*
G01X19074Y22698D01*
G01X19038Y22693D01*
G01X19002Y22685D01*
G01X18967Y22675D01*
G01X18933Y22663D01*
G01X18899Y22649D01*
G01X18867Y22634D01*
G01X18835Y22616D01*
G01X18804Y22596D01*
G01X18775Y22574D01*
G01X18747Y22551D01*
G01X18720Y22526D01*
G01X18695Y22500D01*
G01X18672Y22472D01*
G01X18651Y22442D01*
G01X18631Y22412D01*
G01X18613Y22380D01*
G01X18597Y22347D01*
G01X18583Y22314D01*
G01X18571Y22279D01*
G01X18561Y22244D01*
G01X18554Y22209D01*
G01X18548Y22173D01*
G01X18545Y22136D01*
G01X18544Y22100D01*
G01X18545Y22065D01*
G01X18548Y22030D01*
G01X18553Y21995D01*
G01X18560Y21961D01*
G01X18569Y21927D01*
G01X18580Y21894D01*
G01X18593Y21861D01*
G01X18608Y21830D01*
G01X18625Y21799D01*
G01X18643Y21769D01*
G01X18663Y21740D01*
G01X18685Y21713D01*
G01X18708Y21686D01*
G01X18733Y21662D01*
G01X18759Y21638D01*
G01X18787Y21617D01*
G01X18815Y21597D01*
G01X18845Y21578D01*
G01X18876Y21561D01*
G01X18908Y21547D01*
G01X18940Y21534D01*
G01X18974Y21523D01*
G01X19007Y21514D01*
G01X19042Y21507D01*
G01X19076Y21501D01*
G01X19111Y21498D01*
G01X19146Y21497D01*
G01X19183Y21498D01*
G01X19219Y21502D01*
G01X19255Y21507D01*
G01X19291Y21515D01*
G01X19326Y21525D01*
G01X19360Y21537D01*
G01X19394Y21550D01*
G01X19426Y21566D01*
G01X19458Y21584D01*
G01X19489Y21604D01*
G01X19518Y21626D01*
G01X19546Y21649D01*
G01X19572Y21674D01*
G01X19597Y21700D01*
G01X19621Y21728D01*
G01X19642Y21758D01*
G01X19662Y21788D01*
G01X19680Y21820D01*
G01X19696Y21853D01*
G01X19710Y21886D01*
G01X19722Y21921D01*
G01X19731Y21956D01*
G01X19739Y21991D01*
G01X19744Y22027D01*
G01X19748Y22044D01*
G01X19754Y22060D01*
G01X19763Y22074D01*
G01X19773Y22087D01*
G01X20204Y22518D01*
G01X20216Y22528D01*
G01X20230Y22536D01*
G01X20244Y22542D01*
G01X20260Y22546D01*
G01X20276Y22547D01*
G01X22518Y22547D01*
G01X22532Y22546D01*
G01X22546Y22543D01*
G01X22560Y22538D01*
G01X22573Y22531D01*
G01X22584Y22522D01*
G01X22595Y22512D01*
G01X22603Y22501D01*
G01X22610Y22488D01*
G01X22615Y22474D01*
G01X22618Y22460D01*
G01X22619Y22446D01*
G01X22618Y22430D01*
G01X22615Y22415D01*
G01X22609Y22400D01*
G01X22600Y22386D01*
G01X22590Y22374D01*
G01X22578Y22364D01*
G01X22552Y22343D01*
G01X22527Y22320D01*
G01X14880Y14673D01*
G01X14858Y14649D01*
G01X14838Y14624D01*
G01X14819Y14597D01*
G01X14803Y14570D01*
G01X14788Y14541D01*
G01X14776Y14511D01*
G01X14766Y14480D01*
G01X14758Y14449D01*
G01X14752Y14417D01*
G01X14748Y14385D01*
G01X14747Y14353D01*
G01X14747Y12301D01*
G01X14746Y12285D01*
G01X14742Y12270D01*
G01X14736Y12255D01*
G01X14727Y12241D01*
G01X14717Y12229D01*
G01X14704Y12218D01*
G01X14691Y12210D01*
G01X14647Y12187D01*
G01X14604Y12163D01*
G01X14562Y12137D01*
G01X14522Y12108D01*
G01X14482Y12078D01*
G01X14444Y12047D01*
G01X14408Y12014D01*
G01X14373Y11979D01*
G01X14339Y11943D01*
G01X14307Y11905D01*
G01X14276Y11867D01*
G01X14248Y11826D01*
G01X14221Y11785D01*
G01X14196Y11743D01*
G01X14172Y11699D01*
G01X14151Y11655D01*
G01X14131Y11609D01*
G01X14114Y11563D01*
G01X14098Y11516D01*
G01X14085Y11469D01*
G01X14073Y11421D01*
G01X14064Y11373D01*
G01X14056Y11324D01*
G01X14051Y11275D01*
G01X14048Y11225D01*
G01X14047Y11176D01*
G01X14048Y11127D01*
G01X14051Y11078D01*
G01X14056Y11030D01*
G01X14063Y10981D01*
G01X14073Y10933D01*
G01X14084Y10886D01*
G01X14097Y10839D01*
G01X14112Y10792D01*
G01X14130Y10746D01*
G01X14149Y10701D01*
G01X14170Y10657D01*
G01X14193Y10614D01*
G01X14218Y10572D01*
G01X14244Y10531D01*
G01X14273Y10491D01*
G01X14302Y10452D01*
G01X14334Y10415D01*
G01X14367Y10379D01*
G01X14402Y10344D01*
G01X14438Y10311D01*
G01X14475Y10279D01*
G01X14514Y10249D01*
G01X14554Y10221D01*
G01X14595Y10195D01*
G01X14637Y10170D01*
G01X14680Y10147D01*
G01X14724Y10126D01*
G01X14769Y10107D01*
G01X14815Y10089D01*
G01X14862Y10074D01*
G01X14909Y10061D01*
G01X14956Y10049D01*
G01X15004Y10040D01*
G01X15053Y10033D01*
G01X15101Y10028D01*
G01X15150Y10025D01*
G01X15199Y10023D01*
G01X15248Y10025D01*
G01X15297Y10028D01*
G01X15346Y10033D01*
G01X15394Y10040D01*
G01X15442Y10049D01*
G01X15490Y10061D01*
G01X15537Y10074D01*
G01X15583Y10089D01*
G01X15629Y10107D01*
G01X15674Y10126D01*
G01X15718Y10147D01*
G01X15761Y10170D01*
G01X15803Y10195D01*
G01X15845Y10221D01*
G01X15884Y10249D01*
G01X15923Y10279D01*
G01X15961Y10311D01*
G01X15997Y10344D01*
G01X16031Y10379D01*
G01X16064Y10415D01*
G01X16096Y10452D01*
G01X16126Y10491D01*
G01X16154Y10531D01*
G01X16181Y10572D01*
G01X16205Y10614D01*
G01X16228Y10657D01*
G01X16249Y10701D01*
G01X16269Y10746D01*
G01X16286Y10792D01*
G01X16301Y10839D01*
G01X16314Y10886D01*
G01X16326Y10933D01*
G01X16335Y10981D01*
G01X16342Y11030D01*
G01X16348Y11078D01*
G01X16351Y11127D01*
G01X16352Y11176D01*
G01X16351Y11225D01*
G01X16347Y11275D01*
G01X16342Y11324D01*
G01X16335Y11372D01*
G01X16325Y11421D01*
G01X16314Y11469D01*
G01X16300Y11516D01*
G01X16285Y11563D01*
G01X16267Y11609D01*
G01X16248Y11654D01*
G01X16226Y11699D01*
G01X16203Y11742D01*
G01X16178Y11785D01*
G01X16151Y11826D01*
G01X16122Y11866D01*
G01X16092Y11905D01*
G01X16060Y11942D01*
G01X16026Y11979D01*
G01X15991Y12013D01*
G01X15955Y12046D01*
G01X15917Y12078D01*
G01X15878Y12108D01*
G01X15837Y12136D01*
G01X15795Y12162D01*
G01X15753Y12187D01*
G01X15709Y12210D01*
G01X15695Y12218D01*
G01X15683Y12228D01*
G01X15672Y12240D01*
G01X15664Y12254D01*
G01X15657Y12269D01*
G01X15654Y12285D01*
G01X15652Y12301D01*
G01X15652Y14123D01*
G01X15654Y14139D01*
G01X15657Y14155D01*
G01X15663Y14169D01*
G01X15672Y14183D01*
G01X15682Y14195D01*
G01X23005Y21518D01*
G01X23017Y21528D01*
G01X23030Y21536D01*
G01X23045Y21542D01*
G01X23060Y21546D01*
G01X23076Y21547D01*
G01X48447Y21547D01*
G01X48479Y21548D01*
G01X48511Y21552D01*
G01X48543Y21558D01*
G01X48574Y21566D01*
G01X48605Y21576D01*
G01X48635Y21588D01*
G01X48664Y21603D01*
G01X48691Y21619D01*
G01X48718Y21638D01*
G01X48743Y21658D01*
G01X48767Y21680D01*
G01X50167Y23080D01*
G01X50190Y23105D01*
G01X50211Y23131D01*
G01X50221Y23143D01*
G01X50233Y23153D01*
G01X50247Y23162D01*
G01X50262Y23168D01*
G01X50277Y23171D01*
G01X50293Y23172D01*
G01X50307Y23171D01*
G01X50321Y23168D01*
G01X50335Y23163D01*
G01X50348Y23156D01*
G01X50359Y23148D01*
G01X50370Y23137D01*
G01X50378Y23126D01*
G01X50385Y23113D01*
G01X50390Y23100D01*
G01X50393Y23085D01*
G01X50394Y23071D01*
G01X50394Y22229D01*
G01X50393Y22214D01*
G01X50389Y22198D01*
G01X50383Y22183D01*
G01X50375Y22170D01*
G01X50365Y22158D01*
G01X49390Y21183D01*
G01X49378Y21173D01*
G01X49364Y21164D01*
G01X49349Y21158D01*
G01X49334Y21154D01*
G01X49318Y21153D01*
G01X23546Y21153D01*
G01X23513Y21152D01*
G01X23481Y21149D01*
G01X23449Y21143D01*
G01X23418Y21135D01*
G01X23387Y21125D01*
G01X23358Y21112D01*
G01X23329Y21098D01*
G01X23301Y21081D01*
G01X23274Y21063D01*
G01X23249Y21043D01*
G01X23226Y21021D01*
G01X17419Y15212D01*
G01X17397Y15188D01*
G01X17377Y15163D01*
G01X17358Y15136D01*
G01X17342Y15108D01*
G01X17328Y15080D01*
G01X17315Y15050D01*
G01X17305Y15019D01*
G01X17297Y14988D01*
G01X17291Y14956D01*
G01X17288Y14924D01*
G01X17287Y14892D01*
G01X17287Y12301D01*
G01X17285Y12285D01*
G01X17282Y12269D01*
G01X17275Y12254D01*
G01X17267Y12241D01*
G01X17256Y12229D01*
G01X17244Y12218D01*
G01X17230Y12210D01*
G01X17186Y12187D01*
G01X17143Y12163D01*
G01X17102Y12136D01*
G01X17061Y12108D01*
G01X17022Y12078D01*
G01X16984Y12047D01*
G01X16947Y12013D01*
G01X16912Y11979D01*
G01X16879Y11943D01*
G01X16847Y11905D01*
G01X16816Y11866D01*
G01X16788Y11826D01*
G01X16761Y11785D01*
G01X16735Y11742D01*
G01X16712Y11699D01*
G01X16691Y11654D01*
G01X16671Y11609D01*
G01X16654Y11563D01*
G01X16638Y11516D01*
G01X16624Y11469D01*
G01X16613Y11421D01*
G01X16604Y11372D01*
G01X16596Y11324D01*
G01X16591Y11275D01*
G01X16588Y11225D01*
G01X16587Y11176D01*
G01X16588Y11127D01*
G01X16591Y11078D01*
G01X16596Y11030D01*
G01X16603Y10981D01*
G01X16613Y10933D01*
G01X16624Y10886D01*
G01X16637Y10839D01*
G01X16652Y10792D01*
G01X16670Y10746D01*
G01X16689Y10701D01*
G01X16710Y10657D01*
G01X16733Y10614D01*
G01X16758Y10572D01*
G01X16784Y10531D01*
G01X16813Y10491D01*
G01X16842Y10452D01*
G01X16874Y10415D01*
G01X16907Y10379D01*
G01X16942Y10344D01*
G01X16978Y10311D01*
G01X17015Y10279D01*
G01X17054Y10249D01*
G01X17094Y10221D01*
G01X17135Y10195D01*
G01X17177Y10170D01*
G01X17220Y10147D01*
G01X17264Y10126D01*
G01X17309Y10107D01*
G01X17355Y10089D01*
G01X17402Y10074D01*
G01X17449Y10061D01*
G01X17496Y10049D01*
G01X17544Y10040D01*
G01X17593Y10033D01*
G01X17641Y10028D01*
G01X17690Y10025D01*
G01X17739Y10023D01*
G01X17788Y10025D01*
G01X17837Y10028D01*
G01X17886Y10033D01*
G01X17934Y10040D01*
G01X17982Y10049D01*
G01X18030Y10061D01*
G01X18077Y10074D01*
G01X18123Y10089D01*
G01X18169Y10107D01*
G01X18214Y10126D01*
G01X18258Y10147D01*
G01X18301Y10170D01*
G01X18343Y10195D01*
G01X18385Y10221D01*
G01X18424Y10249D01*
G01X18463Y10279D01*
G01X18501Y10311D01*
G01X18537Y10344D01*
G01X18571Y10379D01*
G01X18604Y10415D01*
G01X18636Y10452D01*
G01X18666Y10491D01*
G01X18694Y10531D01*
G01X18721Y10572D01*
G01X18745Y10614D01*
G01X18768Y10657D01*
G01X18789Y10701D01*
G01X18809Y10746D01*
G01X18826Y10792D01*
G01X18841Y10839D01*
G01X18854Y10886D01*
G01X18866Y10933D01*
G01X18875Y10981D01*
G01X18882Y11030D01*
G01X18888Y11078D01*
G01X18891Y11127D01*
G01X18892Y11176D01*
G01X18891Y11225D01*
G01X18887Y11275D01*
G01X18882Y11324D01*
G01X18875Y11372D01*
G01X18865Y11421D01*
G01X18854Y11469D01*
G01X18840Y11516D01*
G01X18825Y11563D01*
G01X18807Y11609D01*
G01X18788Y11654D01*
G01X18766Y11699D01*
G01X18743Y11742D01*
G01X18718Y11785D01*
G01X18691Y11826D01*
G01X18662Y11866D01*
G01X18632Y11905D01*
G01X18600Y11943D01*
G01X18566Y11979D01*
G01X18531Y12013D01*
G01X18494Y12047D01*
G01X18456Y12078D01*
G01X18417Y12108D01*
G01X18377Y12136D01*
G01X18335Y12163D01*
G01X18292Y12187D01*
G01X18248Y12210D01*
G01X18235Y12218D01*
G01X18222Y12229D01*
G01X18212Y12241D01*
G01X18203Y12254D01*
G01X18197Y12269D01*
G01X18193Y12285D01*
G01X18192Y12301D01*
G01X18192Y14662D01*
G01X18193Y14678D01*
G01X18197Y14694D01*
G01X18203Y14708D01*
G01X18211Y14722D01*
G01X18221Y14734D01*
G01X23703Y20218D01*
G01X23715Y20229D01*
G01X23729Y20237D01*
G01X23744Y20243D01*
G01X23759Y20247D01*
G01X23775Y20248D01*
G01X29319Y20248D01*
G01X29333Y20247D01*
G01X29348Y20244D01*
G01X29361Y20239D01*
G01X29374Y20232D01*
G01X29385Y20223D01*
G01X29396Y20213D01*
G01X29404Y20201D01*
G01X29411Y20189D01*
G01X29416Y20175D01*
G01X29419Y20161D01*
G01X29420Y20147D01*
G01X29419Y20131D01*
G01X29416Y20115D01*
G01X29410Y20101D01*
G01X29401Y20087D01*
G01X29391Y20075D01*
G01X29379Y20065D01*
G01X29352Y20043D01*
G01X29327Y20020D01*
G01X28027Y18720D01*
G01X28005Y18696D01*
G01X27985Y18671D01*
G01X27966Y18644D01*
G01X27950Y18617D01*
G01X27935Y18588D01*
G01X27923Y18558D01*
G01X27913Y18527D01*
G01X27905Y18496D01*
G01X27899Y18464D01*
G01X27895Y18432D01*
G01X27894Y18400D01*
G01X27894Y12829D01*
G01X27893Y12813D01*
G01X27889Y12798D01*
G01X27883Y12783D01*
G01X27875Y12770D01*
G01X27865Y12758D01*
G01X24589Y9482D01*
G01X24577Y9472D01*
G01X24563Y9463D01*
G01X24549Y9457D01*
G01X24533Y9454D01*
G01X24517Y9452D01*
G01X11547Y9452D01*
G01X11515Y9451D01*
G01X11482Y9448D01*
G01X11451Y9442D01*
G01X11419Y9434D01*
G01X11389Y9424D01*
G01X11359Y9411D01*
G01X11330Y9397D01*
G01X11302Y9381D01*
G01X11276Y9362D01*
G01X11250Y9342D01*
G01X11227Y9320D01*
G01X9727Y7820D01*
G01X9705Y7796D01*
G01X9685Y7771D01*
G01X9666Y7744D01*
G01X9650Y7717D01*
G01X9635Y7688D01*
G01X9623Y7658D01*
G01X9613Y7627D01*
G01X9605Y7596D01*
G01X9599Y7564D01*
G01X9595Y7532D01*
G01X9594Y7500D01*
G01X9594Y5834D01*
G01X9593Y5818D01*
G01X9589Y5801D01*
G01X9582Y5786D01*
G01X9573Y5772D01*
G01X9551Y5742D01*
G01X9531Y5712D01*
G01X9513Y5680D01*
G01X9497Y5647D01*
G01X9483Y5614D01*
G01X9472Y5579D01*
G01X9462Y5544D01*
G01X9454Y5509D01*
G01X9449Y5473D01*
G01X9445Y5436D01*
G01X9444Y5400D01*
G01X9445Y5365D01*
G01X9448Y5330D01*
G01X9453Y5295D01*
G01X9460Y5261D01*
G01X9470Y5227D01*
G01X9481Y5194D01*
G01X9494Y5161D01*
G01X9508Y5130D01*
G01X9525Y5099D01*
G01X9543Y5069D01*
G01X9563Y5040D01*
G01X9585Y5013D01*
G01X9609Y4986D01*
G01X9633Y4962D01*
G01X9659Y4938D01*
G01X9687Y4917D01*
G01X9716Y4897D01*
G01X9746Y4878D01*
G01X9776Y4861D01*
G01X9808Y4847D01*
G01X9841Y4834D01*
G01X9874Y4823D01*
G01X9908Y4814D01*
G01X9942Y4807D01*
G01X9977Y4801D01*
G01X10012Y4798D01*
G01X10047Y4797D01*
G01X10082Y4798D01*
G01X10117Y4801D01*
G01X10151Y4807D01*
G01X10186Y4814D01*
G01X10220Y4823D01*
G01X10253Y4834D01*
G01X10285Y4847D01*
G01X10317Y4861D01*
G01X10348Y4878D01*
G01X10378Y4897D01*
G01X10407Y4917D01*
G01X10434Y4938D01*
G01X10460Y4962D01*
G01X10485Y4986D01*
G01X10508Y5013D01*
G01X10530Y5040D01*
G01X10550Y5069D01*
G01X10569Y5099D01*
G01X10585Y5130D01*
G01X10600Y5161D01*
G01X10613Y5194D01*
G01X10624Y5227D01*
G01X10633Y5261D01*
G01X10640Y5295D01*
G01X10645Y5330D01*
G01X10648Y5365D01*
G01X10649Y5400D01*
G01X10648Y5436D01*
G01X10645Y5473D01*
G01X10639Y5509D01*
G01X10632Y5544D01*
G01X10622Y5579D01*
G01X10610Y5614D01*
G01X10596Y5647D01*
G01X10580Y5680D01*
G01X10562Y5712D01*
G01X10543Y5742D01*
G01X10521Y5772D01*
G01X10512Y5786D01*
G01X10505Y5801D01*
G01X10501Y5817D01*
G01X10499Y5834D01*
G01X10499Y7270D01*
G01X10501Y7286D01*
G01X10504Y7302D01*
G01X10510Y7316D01*
G01X10519Y7330D01*
G01X10529Y7342D01*
G01X11705Y8518D01*
G01X11717Y8528D01*
G01X11730Y8536D01*
G01X11745Y8542D01*
G01X11760Y8546D01*
G01X11776Y8547D01*
G01X24747Y8547D01*
G01X24779Y8548D01*
G01X24811Y8552D01*
G01X24843Y8558D01*
G01X24874Y8566D01*
G01X24905Y8576D01*
G01X24935Y8588D01*
G01X24964Y8603D01*
G01X24991Y8619D01*
G01X25018Y8638D01*
G01X25043Y8658D01*
G01X25067Y8680D01*
G01X28667Y12280D01*
G01X28689Y12303D01*
G01X28709Y12329D01*
G01X28727Y12355D01*
G01X28744Y12383D01*
G01X28758Y12412D01*
G01X28771Y12442D01*
G01X28781Y12472D01*
G01X28789Y12504D01*
G01X28795Y12535D01*
G01X28798Y12568D01*
G01X28799Y12600D01*
G01X28799Y18170D01*
G01X28801Y18186D01*
G01X28804Y18202D01*
G01X28810Y18216D01*
G01X28819Y18230D01*
G01X28829Y18242D01*
G01X29804Y19218D01*
G01X29817Y19228D01*
G01X29830Y19236D01*
G01X29845Y19242D01*
G01X29860Y19246D01*
G01X29876Y19247D01*
G01X58547Y19247D01*
G01X58579Y19248D01*
G01X58611Y19252D01*
G01X58643Y19258D01*
G01X58674Y19266D01*
G01X58705Y19276D01*
G01X58735Y19288D01*
G01X58764Y19303D01*
G01X58792Y19319D01*
G01X58818Y19338D01*
G01X58843Y19358D01*
G01X58867Y19380D01*
G01X60467Y20980D01*
G01X60489Y21003D01*
G01X60509Y21029D01*
G01X60528Y21055D01*
G01X60544Y21083D01*
G01X60558Y21112D01*
G01X60571Y21142D01*
G01X60581Y21172D01*
G01X60589Y21204D01*
G01X60595Y21235D01*
G01X60598Y21268D01*
G01X60599Y21300D01*
G01X60599Y33479D01*
G01X60598Y33511D01*
G01X60595Y33543D01*
G01X60589Y33575D01*
G01X60581Y33606D01*
G01X60571Y33637D01*
G01X60558Y33667D01*
G01X60544Y33696D01*
G01X60528Y33724D01*
G01X60509Y33750D01*
G01X60489Y33775D01*
G01X60467Y33799D01*
G01X59206Y35060D01*
G01X59195Y35072D01*
G01X59187Y35086D01*
G01X59181Y35101D01*
G01X59177Y35116D01*
G01X59176Y35132D01*
G01X59176Y36440D01*
G01X59175Y36465D01*
G01X59172Y36490D01*
G01X59167Y36514D01*
G01X59159Y36538D01*
G01X59150Y36561D01*
G01X59139Y36584D01*
G01X59127Y36605D01*
G01X59112Y36626D01*
G01X59096Y36645D01*
G01X59078Y36662D01*
G01X59059Y36679D01*
G01X59039Y36693D01*
G01X59017Y36706D01*
G01X58995Y36717D01*
G01X58972Y36726D01*
G01X58948Y36733D01*
G01X58923Y36738D01*
G01X58898Y36741D01*
G01X58873Y36742D01*
G01X57299Y36742D01*
G01X57274Y36741D01*
G01X57249Y36738D01*
G01X57224Y36733D01*
G01X57200Y36726D01*
G01X57177Y36717D01*
G01X57155Y36706D01*
G01X57133Y36693D01*
G01X57113Y36679D01*
G01X57094Y36662D01*
G01X57076Y36645D01*
G01X57060Y36626D01*
G01X57045Y36605D01*
G01X57032Y36584D01*
G01X57021Y36561D01*
G01X57012Y36538D01*
G01X57005Y36514D01*
G01X57000Y36490D01*
G01X56997Y36465D01*
G01X56996Y36440D01*
G01X56996Y34640D01*
G01X56997Y34615D01*
G01X57000Y34590D01*
G01X57005Y34566D01*
G01X57012Y34542D01*
G01X57021Y34518D01*
G01X57032Y34496D01*
G01X57045Y34474D01*
G01X57060Y34454D01*
G01X57076Y34435D01*
G01X57094Y34417D01*
G01X57113Y34401D01*
G01X57133Y34387D01*
G01X57155Y34374D01*
G01X57177Y34363D01*
G01X57200Y34354D01*
G01X57224Y34347D01*
G01X57249Y34341D01*
G01X57274Y34338D01*
G01X57299Y34337D01*
G01X58607Y34337D01*
G01X58622Y34336D01*
G01X58638Y34332D01*
G01X58653Y34326D01*
G01X58666Y34318D01*
G01X58678Y34308D01*
G01X59665Y33321D01*
G01X59675Y33309D01*
G01X59683Y33296D01*
G01X59689Y33281D01*
G01X59693Y33265D01*
G01X59694Y33249D01*
G01X59694Y21529D01*
G01X59693Y21513D01*
G01X59689Y21498D01*
G01X59683Y21483D01*
G01X59675Y21470D01*
G01X59665Y21458D01*
G01X58389Y20182D01*
G01X58377Y20172D01*
G01X58363Y20163D01*
G01X58349Y20157D01*
G01X58333Y20154D01*
G01X58317Y20152D01*
G01X49875Y20152D01*
G01X49861Y20153D01*
G01X49847Y20156D01*
G01X49833Y20162D01*
G01X49821Y20168D01*
G01X49809Y20177D01*
G01X49799Y20187D01*
G01X49790Y20199D01*
G01X49783Y20212D01*
G01X49778Y20225D01*
G01X49775Y20239D01*
G01X49774Y20254D01*
G01X49775Y20270D01*
G01X49779Y20285D01*
G01X49785Y20300D01*
G01X49793Y20313D01*
G01X49803Y20325D01*
G01X49815Y20336D01*
G01X49842Y20357D01*
G01X49868Y20381D01*
G01X51163Y21677D01*
G01X51164Y21677D01*
G01X51171Y21684D01*
G01X51192Y21708D01*
G01X51212Y21733D01*
G01X51230Y21759D01*
G01X51246Y21786D01*
G01X51261Y21815D01*
G01X51273Y21845D01*
G01X51283Y21875D01*
G01X51290Y21906D01*
G01X51296Y21937D01*
G01X51299Y21969D01*
G01X51301Y22001D01*
G01X51300Y22031D01*
G01X51299Y22038D01*
G01X51299Y30000D01*
G01X51298Y30032D01*
G01X51295Y30064D01*
G01X51289Y30096D01*
G01X51281Y30127D01*
G01X51271Y30158D01*
G01X51258Y30188D01*
G01X51244Y30217D01*
G01X51228Y30244D01*
G01X51209Y30271D01*
G01X51189Y30296D01*
G01X51167Y30320D01*
G01X49274Y32213D01*
G01X49263Y32225D01*
G01X49255Y32240D01*
G01X49248Y32256D01*
G01X49245Y32272D01*
G01X49240Y32308D01*
G01X49232Y32344D01*
G01X49222Y32379D01*
G01X49210Y32413D01*
G01X49196Y32447D01*
G01X49180Y32480D01*
G01X49163Y32511D01*
G01X49143Y32542D01*
G01X49121Y32571D01*
G01X49098Y32599D01*
G01X49073Y32626D01*
G01X49046Y32651D01*
G01X49019Y32674D01*
G01X48989Y32696D01*
G01X48959Y32715D01*
G01X48927Y32733D01*
G01X48894Y32749D01*
G01X48861Y32763D01*
G01X48826Y32775D01*
G01X48791Y32785D01*
G01X48756Y32792D01*
G01X48720Y32798D01*
G01X48683Y32801D01*
G01X48647Y32802D01*
G01X48612Y32801D01*
G01X48577Y32798D01*
G01X48542Y32793D01*
G01X48508Y32786D01*
G01X48474Y32777D01*
G01X48441Y32766D01*
G01X48408Y32753D01*
G01X48376Y32738D01*
G01X48346Y32722D01*
G01X48316Y32703D01*
G01X48287Y32683D01*
G01X48260Y32661D01*
G01X48233Y32638D01*
G01X48209Y32613D01*
G01X48185Y32587D01*
G01X48164Y32560D01*
G01X48143Y32531D01*
G01X48125Y32501D01*
G01X48108Y32470D01*
G01X48094Y32438D01*
G01X48081Y32406D01*
G01X48070Y32373D01*
G01X48061Y32339D01*
G01X48054Y32304D01*
G01X48048Y32270D01*
G01X48045Y32235D01*
G01X48044Y32200D01*
G01X48045Y32163D01*
G01X48049Y32127D01*
G01X48054Y32091D01*
G01X48062Y32055D01*
G01X48072Y32020D01*
G01X48084Y31986D01*
G01X48097Y31952D01*
G01X48113Y31920D01*
G01X48131Y31888D01*
G01X48151Y31857D01*
G01X48173Y31828D01*
G01X48196Y31800D01*
G01X48221Y31774D01*
G01X48247Y31749D01*
G01X48275Y31725D01*
G01X48305Y31704D01*
G01X48335Y31684D01*
G01X48367Y31666D01*
G01X48400Y31650D01*
G01X48433Y31636D01*
G01X48468Y31624D01*
G01X48503Y31615D01*
G01X48539Y31607D01*
G01X48575Y31602D01*
G01X48591Y31598D01*
G01X48607Y31592D01*
G01X48621Y31583D01*
G01X48634Y31573D01*
G01X50365Y29842D01*
G01X50375Y29830D01*
G01X50383Y29816D01*
G01X50389Y29802D01*
G01X50393Y29786D01*
G01X50394Y29770D01*
G01X50394Y28628D01*
G01X50393Y28613D01*
G01X50390Y28599D01*
G01X50385Y28586D01*
G01X50378Y28573D01*
G01X50370Y28561D01*
G01X50359Y28551D01*
G01X50348Y28542D01*
G01X50335Y28535D01*
G01X50321Y28530D01*
G01X50307Y28527D01*
G01X50293Y28526D01*
G01X50277Y28527D01*
G01X50262Y28531D01*
G01X50247Y28537D01*
G01X50233Y28545D01*
G01X50221Y28556D01*
G01X50211Y28568D01*
G01X50190Y28594D01*
G01X50167Y28619D01*
G01X45557Y33228D01*
G01X45547Y33241D01*
G01X45539Y33254D01*
G01X45532Y33269D01*
G01X45529Y33284D01*
G01X45527Y33300D01*
G01X45528Y33315D01*
G01X45532Y33329D01*
G01X45537Y33343D01*
G01X45544Y33355D01*
G01X45552Y33367D01*
G01X45563Y33377D01*
G01X45574Y33386D01*
G01X45587Y33393D01*
G01X45600Y33398D01*
G01X45615Y33401D01*
G01X45629Y33402D01*
G01X45645Y33401D01*
G01X45661Y33397D01*
G01X45676Y33391D01*
G01X45712Y33372D01*
G01X45712Y33946D01*
G01X45139Y33946D01*
G01X45157Y33909D01*
G01X45163Y33895D01*
G01X45167Y33879D01*
G01X45168Y33863D01*
G01X45167Y33848D01*
G01X45164Y33834D01*
G01X45159Y33821D01*
G01X45152Y33808D01*
G01X45143Y33796D01*
G01X45133Y33786D01*
G01X45121Y33777D01*
G01X45109Y33770D01*
G01X45095Y33765D01*
G01X45081Y33762D01*
G01X45066Y33761D01*
G01X45051Y33763D01*
G01X45035Y33766D01*
G01X45020Y33772D01*
G01X45007Y33781D01*
G01X44995Y33791D01*
G01X44841Y33945D01*
G01X44830Y33957D01*
G01X44822Y33971D01*
G01X44816Y33985D01*
G01X44812Y34001D01*
G01X44811Y34017D01*
G01X44812Y34034D01*
G01X44817Y34051D01*
G01X44839Y34118D01*
G01X44857Y34187D01*
G01X44868Y34241D01*
G01X44877Y34295D01*
G01X44883Y34350D01*
G01X44887Y34405D01*
G01X44888Y34460D01*
G01X44887Y34515D01*
G01X44883Y34570D01*
G01X44877Y34625D01*
G01X44868Y34679D01*
G01X44857Y34733D01*
G01X44845Y34782D01*
G01X44830Y34830D01*
G01X44813Y34878D01*
G01X44795Y34925D01*
G01X44775Y34971D01*
G01X44752Y35016D01*
G01X44728Y35060D01*
G01X44702Y35103D01*
G01X44674Y35145D01*
G01X44644Y35186D01*
G01X44613Y35226D01*
G01X44580Y35264D01*
G01X44546Y35301D01*
G01X44510Y35336D01*
G01X44472Y35370D01*
G01X44433Y35402D01*
G01X44393Y35432D01*
G01X44352Y35461D01*
G01X44309Y35488D01*
G01X44266Y35513D01*
G01X44221Y35537D01*
G01X44175Y35558D01*
G01X44129Y35578D01*
G01X44082Y35595D01*
G01X44034Y35611D01*
G01X43985Y35624D01*
G01X43936Y35636D01*
G01X43887Y35645D01*
G01X43837Y35653D01*
G01X43787Y35658D01*
G01X43736Y35661D01*
G01X43686Y35662D01*
G01X43636Y35661D01*
G01X43586Y35658D01*
G01X43537Y35653D01*
G01X43487Y35646D01*
G01X43438Y35636D01*
G01X43389Y35625D01*
G01X43341Y35612D01*
G01X43294Y35597D01*
G01X43247Y35579D01*
G01X43201Y35560D01*
G01X43156Y35539D01*
G01X43111Y35516D01*
G01X43068Y35491D01*
G01X43026Y35465D01*
G01X42984Y35436D01*
G01X42944Y35406D01*
G01X42906Y35375D01*
G01X42868Y35342D01*
G01X42833Y35307D01*
G01X42798Y35271D01*
G01X42765Y35233D01*
G01X42734Y35194D01*
G01X42704Y35154D01*
G01X42676Y35113D01*
G01X42650Y35070D01*
G01X42626Y35027D01*
G01X42603Y34982D01*
G01X42582Y34937D01*
G01X42563Y34891D01*
G01X42546Y34844D01*
G01X42540Y34829D01*
G01X42532Y34816D01*
G01X42521Y34804D01*
G01X42509Y34794D01*
G01X42496Y34785D01*
G01X42481Y34779D01*
G01X42466Y34776D01*
G01X42450Y34774D01*
G01X42436Y34776D01*
G01X42421Y34779D01*
G01X42408Y34784D01*
G01X42395Y34791D01*
G01X42384Y34799D01*
G01X42373Y34810D01*
G01X42365Y34821D01*
G01X42358Y34834D01*
G01X42353Y34847D01*
G01X42350Y34862D01*
G01X42348Y34876D01*
G01X42348Y35360D01*
G01X42347Y35385D01*
G01X42344Y35410D01*
G01X42339Y35434D01*
G01X42332Y35458D01*
G01X42323Y35481D01*
G01X42312Y35504D01*
G01X42299Y35525D01*
G01X42285Y35546D01*
G01X42269Y35565D01*
G01X42251Y35582D01*
G01X42232Y35599D01*
G01X42211Y35613D01*
G01X42190Y35626D01*
G01X42167Y35637D01*
G01X42144Y35646D01*
G01X42120Y35653D01*
G01X42096Y35658D01*
G01X42071Y35661D01*
G01X42046Y35662D01*
G01X40246Y35662D01*
G01X40221Y35661D01*
G01X40196Y35658D01*
G01X40172Y35653D01*
G01X40148Y35646D01*
G01X40124Y35637D01*
G01X40102Y35626D01*
G01X40080Y35613D01*
G01X40060Y35599D01*
G01X40041Y35582D01*
G01X40023Y35565D01*
G01X40007Y35546D01*
G01X39993Y35525D01*
G01X39980Y35504D01*
G01X39969Y35481D01*
G01X39960Y35458D01*
G01X39953Y35434D01*
G01X39948Y35410D01*
G01X39944Y35385D01*
G01X39943Y35360D01*
G01X39943Y33560D01*
G01X39945Y33533D01*
G01X39948Y33507D01*
G01X39954Y33481D01*
G01X39957Y33454D01*
G01X39956Y33440D01*
G01X39953Y33426D01*
G01X39948Y33412D01*
G01X39941Y33399D01*
G01X39933Y33388D01*
G01X39922Y33378D01*
G01X39911Y33369D01*
G01X39898Y33362D01*
G01X39884Y33357D01*
G01X39870Y33354D01*
G01X39856Y33353D01*
G01X28334Y33353D01*
G01X28318Y33354D01*
G01X28304Y33357D01*
G01X28289Y33363D01*
G01X28276Y33371D01*
G01X28264Y33380D01*
G01X28254Y33391D01*
G01X28246Y33404D01*
G01X28239Y33417D01*
G01X28234Y33432D01*
G01X28225Y33469D01*
G01X28213Y33505D01*
G01X28199Y33540D01*
G01X28183Y33575D01*
G01X28165Y33608D01*
G01X28144Y33640D01*
G01X28122Y33670D01*
G01X28112Y33684D01*
G01X28106Y33700D01*
G01X28102Y33716D01*
G01X28100Y33733D01*
G01X28100Y36499D01*
G01X28099Y36532D01*
G01X28096Y36564D01*
G01X28090Y36596D01*
G01X28082Y36627D01*
G01X28072Y36658D01*
G01X28059Y36687D01*
G01X28045Y36716D01*
G01X28028Y36744D01*
G01X28010Y36771D01*
G01X27990Y36796D01*
G01X27968Y36819D01*
G01X25428Y39359D01*
G01X25404Y39381D01*
G01X25379Y39402D01*
G01X25352Y39420D01*
G01X25325Y39437D01*
G01X25296Y39451D01*
G01X25266Y39463D01*
G01X25235Y39474D01*
G01X25204Y39482D01*
G01X25172Y39487D01*
G01X25140Y39491D01*
G01X25108Y39492D01*
G01X25098Y39492D01*
G01X25083Y39493D01*
G01X25069Y39496D01*
G01X25056Y39501D01*
G01X25043Y39508D01*
G01X25031Y39517D01*
G01X25021Y39527D01*
G01X25012Y39539D01*
G01X25005Y39551D01*
G01X25000Y39565D01*
G01X24997Y39579D01*
G01X24996Y39594D01*
G01X24997Y39608D01*
G01X25000Y39622D01*
G01X25005Y39636D01*
G01X25013Y39649D01*
G01X25040Y39694D01*
G01X25066Y39741D01*
G01X25090Y39788D01*
G01X24516Y39788D01*
G01X24516Y39594D01*
G01X24515Y39579D01*
G01X24512Y39565D01*
G01X24507Y39551D01*
G01X24500Y39539D01*
G01X24491Y39527D01*
G01X24481Y39517D01*
G01X24470Y39508D01*
G01X24457Y39501D01*
G01X24443Y39496D01*
G01X24429Y39493D01*
G01X24415Y39492D01*
G01X23591Y39492D01*
G01X23576Y39493D01*
G01X23562Y39496D01*
G01X23549Y39501D01*
G01X23536Y39508D01*
G01X23524Y39517D01*
G01X23514Y39527D01*
G01X23505Y39539D01*
G01X23498Y39551D01*
G01X23493Y39565D01*
G01X23490Y39579D01*
G01X23489Y39594D01*
G01X23489Y39788D01*
G01X22915Y39788D01*
G01X22939Y39741D01*
G01X22965Y39694D01*
G01X22993Y39649D01*
G01X23000Y39636D01*
G01X23005Y39622D01*
G01X23008Y39608D01*
G01X23009Y39594D01*
G01X23008Y39579D01*
G01X23005Y39565D01*
G01X23000Y39551D01*
G01X22993Y39539D01*
G01X22985Y39527D01*
G01X22974Y39517D01*
G01X22963Y39508D01*
G01X22950Y39501D01*
G01X22936Y39496D01*
G01X22922Y39493D01*
G01X22908Y39492D01*
G01X22558Y39492D01*
G01X22543Y39493D01*
G01X22529Y39496D01*
G01X22516Y39501D01*
G01X22503Y39508D01*
G01X22491Y39517D01*
G01X22481Y39527D01*
G01X22472Y39539D01*
G01X22465Y39551D01*
G01X22460Y39565D01*
G01X22457Y39579D01*
G01X22456Y39594D01*
G01X22457Y39608D01*
G01X22460Y39622D01*
G01X22465Y39636D01*
G01X22473Y39649D01*
G01X22500Y39693D01*
G01X22525Y39738D01*
G01X22548Y39784D01*
G01X22570Y39832D01*
G01X22589Y39880D01*
G01X22606Y39929D01*
G01X22621Y39978D01*
G01X22634Y40029D01*
G01X22645Y40083D01*
G01X22654Y40137D01*
G01X22660Y40192D01*
G01X22664Y40247D01*
G01X22665Y40302D01*
G01X22664Y40357D01*
G01X22660Y40412D01*
G01X22654Y40467D01*
G01X22645Y40521D01*
G01X22634Y40575D01*
G01X22621Y40624D01*
G01X22607Y40672D01*
G01X22590Y40720D01*
G01X22572Y40767D01*
G01X22551Y40813D01*
G01X22529Y40858D01*
G01X22505Y40902D01*
G01X22479Y40945D01*
G01X22451Y40987D01*
G01X22421Y41028D01*
G01X22390Y41068D01*
G01X22357Y41106D01*
G01X22323Y41143D01*
G01X22287Y41178D01*
G01X22249Y41212D01*
G01X22210Y41244D01*
G01X22170Y41274D01*
G01X22129Y41303D01*
G01X22086Y41330D01*
G01X22043Y41355D01*
G01X21998Y41379D01*
G01X21952Y41400D01*
G01X21906Y41420D01*
G01X21859Y41437D01*
G01X21811Y41453D01*
G01X21762Y41466D01*
G01X21713Y41478D01*
G01X21664Y41487D01*
G01X21614Y41495D01*
G01X21564Y41500D01*
G01X21513Y41503D01*
G01X21463Y41504D01*
G01X21412Y41503D01*
G01X21362Y41500D01*
G01X21312Y41495D01*
G01X21262Y41487D01*
G01X21213Y41478D01*
G01X21163Y41466D01*
G01X21115Y41453D01*
G01X21067Y41437D01*
G01X21020Y41420D01*
G01X20973Y41400D01*
G01X20928Y41379D01*
G01X20883Y41355D01*
G01X20839Y41330D01*
G01X20797Y41303D01*
G01X20755Y41274D01*
G01X20715Y41244D01*
G01X20676Y41212D01*
G01X20639Y41178D01*
G01X20603Y41143D01*
G01X20569Y41106D01*
G01X20536Y41068D01*
G01X20504Y41028D01*
G01X20475Y40987D01*
G01X20447Y40945D01*
G01X20421Y40902D01*
G01X20397Y40858D01*
G01X20374Y40813D01*
G01X20354Y40767D01*
G01X20335Y40720D01*
G01X20319Y40672D01*
G01X20304Y40624D01*
G01X20292Y40575D01*
G01X20287Y40561D01*
G01X20281Y40547D01*
G01X20272Y40535D01*
G01X20262Y40523D01*
G01X20250Y40514D01*
G01X20237Y40507D01*
G01X20223Y40501D01*
G01X20208Y40498D01*
G01X20193Y40497D01*
G01X20178Y40498D01*
G01X20163Y40501D01*
G01X20149Y40507D01*
G01X20136Y40514D01*
G01X20124Y40523D01*
G01X20114Y40535D01*
G01X20105Y40547D01*
G01X20098Y40561D01*
G01X20094Y40575D01*
G01X20081Y40624D01*
G01X20067Y40672D01*
G01X20050Y40720D01*
G01X20032Y40767D01*
G01X20011Y40813D01*
G01X19989Y40858D01*
G01X19965Y40902D01*
G01X19939Y40945D01*
G01X19911Y40987D01*
G01X19881Y41028D01*
G01X19850Y41068D01*
G01X19817Y41106D01*
G01X19783Y41143D01*
G01X19747Y41178D01*
G01X19709Y41212D01*
G01X19670Y41244D01*
G01X19630Y41274D01*
G01X19589Y41303D01*
G01X19546Y41330D01*
G01X19503Y41355D01*
G01X19458Y41379D01*
G01X19412Y41400D01*
G01X19366Y41420D01*
G01X19319Y41437D01*
G01X19271Y41453D01*
G01X19222Y41466D01*
G01X19173Y41478D01*
G01X19124Y41487D01*
G01X19074Y41495D01*
G01X19024Y41500D01*
G01X18973Y41503D01*
G01X18923Y41504D01*
G01X18872Y41503D01*
G01X18822Y41500D01*
G01X18772Y41495D01*
G01X18722Y41487D01*
G01X18673Y41478D01*
G01X18623Y41466D01*
G01X18575Y41453D01*
G01X18527Y41437D01*
G01X18480Y41420D01*
G01X18433Y41400D01*
G01X18388Y41379D01*
G01X18343Y41355D01*
G01X18299Y41330D01*
G01X18257Y41303D01*
G01X18215Y41274D01*
G01X18175Y41244D01*
G01X18136Y41212D01*
G01X18099Y41178D01*
G01X18063Y41143D01*
G01X18029Y41106D01*
G01X17996Y41068D01*
G01X17964Y41028D01*
G01X17935Y40987D01*
G01X17907Y40945D01*
G01X17881Y40902D01*
G01X17857Y40858D01*
G01X17834Y40813D01*
G01X17814Y40767D01*
G01X17795Y40720D01*
G01X17779Y40672D01*
G01X17764Y40624D01*
G01X17752Y40575D01*
G01X17747Y40561D01*
G01X17741Y40547D01*
G01X17732Y40535D01*
G01X17722Y40523D01*
G01X17710Y40514D01*
G01X17697Y40507D01*
G01X17683Y40501D01*
G01X17668Y40498D01*
G01X17653Y40497D01*
G01X17638Y40498D01*
G01X17623Y40501D01*
G01X17609Y40507D01*
G01X17596Y40514D01*
G01X17584Y40523D01*
G01X17574Y40535D01*
G01X17565Y40547D01*
G01X17558Y40561D01*
G01X17554Y40575D01*
G01X17541Y40624D01*
G01X17527Y40672D01*
G01X17510Y40720D01*
G01X17492Y40767D01*
G01X17471Y40813D01*
G01X17449Y40858D01*
G01X17425Y40902D01*
G01X17399Y40945D01*
G01X17371Y40987D01*
G01X17341Y41028D01*
G01X17310Y41068D01*
G01X17277Y41106D01*
G01X17243Y41143D01*
G01X17207Y41178D01*
G01X17169Y41212D01*
G01X17130Y41244D01*
G01X17090Y41274D01*
G01X17049Y41303D01*
G01X17006Y41330D01*
G01X16963Y41355D01*
G01X16918Y41379D01*
G01X16872Y41400D01*
G01X16826Y41420D01*
G01X16779Y41437D01*
G01X16731Y41453D01*
G01X16682Y41466D01*
G01X16633Y41478D01*
G01X16584Y41487D01*
G01X16534Y41495D01*
G01X16484Y41500D01*
G01X16433Y41503D01*
G01X16383Y41504D01*
G01X16333Y41503D01*
G01X16283Y41500D01*
G01X16233Y41495D01*
G01X16184Y41488D01*
G01X16135Y41478D01*
G01X16086Y41467D01*
G01X16038Y41454D01*
G01X15991Y41439D01*
G01X15944Y41421D01*
G01X15898Y41402D01*
G01X15852Y41381D01*
G01X15808Y41358D01*
G01X15765Y41333D01*
G01X15722Y41307D01*
G01X15681Y41278D01*
G01X15641Y41248D01*
G01X15603Y41217D01*
G01X15565Y41184D01*
G01X15529Y41149D01*
G01X15495Y41113D01*
G01X15462Y41075D01*
G01X15431Y41036D01*
G01X15401Y40996D01*
G01X15373Y40955D01*
G01X15347Y40912D01*
G01X15322Y40869D01*
G01X15300Y40824D01*
G01X15279Y40779D01*
G01X15260Y40733D01*
G01X15243Y40686D01*
G01X15237Y40671D01*
G01X15229Y40658D01*
G01X15218Y40646D01*
G01X15206Y40636D01*
G01X15193Y40627D01*
G01X15178Y40621D01*
G01X15163Y40618D01*
G01X15147Y40616D01*
G01X15132Y40618D01*
G01X15118Y40621D01*
G01X15105Y40626D01*
G01X15092Y40633D01*
G01X15080Y40641D01*
G01X15070Y40652D01*
G01X15061Y40663D01*
G01X15054Y40676D01*
G01X15049Y40689D01*
G01X15046Y40704D01*
G01X15045Y40718D01*
G01X15045Y41202D01*
G01X15044Y41227D01*
G01X15041Y41252D01*
G01X15036Y41276D01*
G01X15029Y41300D01*
G01X15020Y41323D01*
G01X15009Y41346D01*
G01X14996Y41367D01*
G01X14982Y41388D01*
G01X14965Y41407D01*
G01X14948Y41424D01*
G01X14929Y41441D01*
G01X14908Y41455D01*
G01X14887Y41468D01*
G01X14864Y41479D01*
G01X14841Y41488D01*
G01X14817Y41495D01*
G01X14793Y41500D01*
G01X14768Y41503D01*
G01X14743Y41504D01*
G37*
G36*
G01X34298Y15934D02*
G01X34204Y15935D01*
G01X34110Y15934D01*
G01X34016Y15931D01*
G01X33922Y15925D01*
G01X33828Y15918D01*
G01X33735Y15909D01*
G01X33641Y15897D01*
G01X33548Y15884D01*
G01X33456Y15868D01*
G01X33363Y15851D01*
G01X33271Y15831D01*
G01X33180Y15810D01*
G01X33089Y15786D01*
G01X32998Y15760D01*
G01X32909Y15733D01*
G01X32819Y15703D01*
G01X32731Y15671D01*
G01X32643Y15638D01*
G01X32556Y15602D01*
G01X32470Y15565D01*
G01X32384Y15526D01*
G01X32300Y15484D01*
G01X32216Y15441D01*
G01X32133Y15396D01*
G01X32052Y15350D01*
G01X31971Y15301D01*
G01X31892Y15251D01*
G01X31814Y15199D01*
G01X31736Y15145D01*
G01X31660Y15090D01*
G01X31586Y15033D01*
G01X31512Y14974D01*
G01X31440Y14913D01*
G01X31369Y14852D01*
G01X31300Y14788D01*
G01X31232Y14723D01*
G01X31166Y14657D01*
G01X31101Y14589D01*
G01X31037Y14519D01*
G01X30975Y14449D01*
G01X30915Y14376D01*
G01X30856Y14303D01*
G01X30799Y14228D01*
G01X30744Y14152D01*
G01X30690Y14075D01*
G01X30638Y13997D01*
G01X30588Y13917D01*
G01X30539Y13837D01*
G01X30492Y13755D01*
G01X30448Y13673D01*
G01X30404Y13589D01*
G01X30363Y13505D01*
G01X30324Y13419D01*
G01X30287Y13333D01*
G01X30251Y13246D01*
G01X30217Y13158D01*
G01X30186Y13069D01*
G01X30156Y12980D01*
G01X30129Y12890D01*
G01X30103Y12800D01*
G01X30079Y12709D01*
G01X30058Y12617D01*
G01X30038Y12525D01*
G01X30020Y12433D01*
G01X30005Y12340D01*
G01X29991Y12247D01*
G01X29980Y12154D01*
G01X29971Y12060D01*
G01X29963Y11967D01*
G01X29958Y11873D01*
G01X29955Y11779D01*
G01X29954Y11685D01*
G01X29955Y11591D01*
G01X29958Y11497D01*
G01X29963Y11403D01*
G01X29971Y11309D01*
G01X29980Y11216D01*
G01X29991Y11122D01*
G01X30005Y11029D01*
G01X30020Y10937D01*
G01X30038Y10844D01*
G01X30058Y10752D01*
G01X30079Y10661D01*
G01X30103Y10570D01*
G01X30128Y10479D01*
G01X30156Y10390D01*
G01X30186Y10300D01*
G01X30217Y10212D01*
G01X30251Y10124D01*
G01X30286Y10037D01*
G01X30324Y9951D01*
G01X30363Y9865D01*
G01X30404Y9781D01*
G01X30447Y9697D01*
G01X30492Y9615D01*
G01X30539Y9533D01*
G01X30587Y9453D01*
G01X30638Y9373D01*
G01X30690Y9295D01*
G01X30743Y9218D01*
G01X30799Y9142D01*
G01X30856Y9067D01*
G01X30915Y8994D01*
G01X30975Y8922D01*
G01X31037Y8851D01*
G01X31100Y8781D01*
G01X31165Y8713D01*
G01X31232Y8647D01*
G01X31300Y8582D01*
G01X31369Y8519D01*
G01X31440Y8457D01*
G01X31512Y8396D01*
G01X31585Y8337D01*
G01X31660Y8280D01*
G01X31736Y8225D01*
G01X31813Y8171D01*
G01X31891Y8119D01*
G01X31971Y8069D01*
G01X32051Y8020D01*
G01X32133Y7974D01*
G01X32215Y7929D01*
G01X32299Y7886D01*
G01X32383Y7844D01*
G01X32469Y7805D01*
G01X32555Y7768D01*
G01X32642Y7732D01*
G01X32730Y7699D01*
G01X32818Y7667D01*
G01X32908Y7637D01*
G01X32997Y7610D01*
G01X33088Y7584D01*
G01X33179Y7560D01*
G01X33270Y7539D01*
G01X33362Y7519D01*
G01X33455Y7501D01*
G01X33547Y7486D01*
G01X33640Y7472D01*
G01X33734Y7461D01*
G01X33827Y7452D01*
G01X33921Y7444D01*
G01X34015Y7439D01*
G01X34109Y7436D01*
G01X34203Y7435D01*
G01X34205Y7435D01*
G01X34299Y7436D01*
G01X34393Y7439D01*
G01X34487Y7444D01*
G01X34581Y7452D01*
G01X34674Y7461D01*
G01X34768Y7472D01*
G01X34861Y7486D01*
G01X34953Y7501D01*
G01X35046Y7519D01*
G01X35138Y7539D01*
G01X35229Y7560D01*
G01X35320Y7584D01*
G01X35411Y7610D01*
G01X35500Y7637D01*
G01X35590Y7667D01*
G01X35678Y7699D01*
G01X35766Y7732D01*
G01X35853Y7768D01*
G01X35939Y7805D01*
G01X36025Y7844D01*
G01X36109Y7886D01*
G01X36193Y7929D01*
G01X36275Y7974D01*
G01X36357Y8020D01*
G01X36437Y8069D01*
G01X36517Y8119D01*
G01X36595Y8171D01*
G01X36672Y8225D01*
G01X36748Y8280D01*
G01X36823Y8337D01*
G01X36896Y8396D01*
G01X36968Y8457D01*
G01X37039Y8519D01*
G01X37108Y8582D01*
G01X37176Y8647D01*
G01X37243Y8713D01*
G01X37308Y8781D01*
G01X37371Y8851D01*
G01X37433Y8922D01*
G01X37493Y8994D01*
G01X37552Y9067D01*
G01X37609Y9142D01*
G01X37665Y9218D01*
G01X37718Y9295D01*
G01X37770Y9373D01*
G01X37821Y9453D01*
G01X37869Y9533D01*
G01X37916Y9615D01*
G01X37961Y9697D01*
G01X38004Y9781D01*
G01X38045Y9865D01*
G01X38084Y9951D01*
G01X38122Y10037D01*
G01X38157Y10124D01*
G01X38191Y10212D01*
G01X38222Y10300D01*
G01X38252Y10390D01*
G01X38279Y10479D01*
G01X38305Y10570D01*
G01X38329Y10661D01*
G01X38350Y10752D01*
G01X38370Y10844D01*
G01X38388Y10937D01*
G01X38403Y11029D01*
G01X38417Y11122D01*
G01X38428Y11216D01*
G01X38437Y11309D01*
G01X38445Y11403D01*
G01X38450Y11497D01*
G01X38453Y11591D01*
G01X38454Y11685D01*
G01X38453Y11779D01*
G01X38450Y11873D01*
G01X38445Y11967D01*
G01X38437Y12060D01*
G01X38428Y12154D01*
G01X38417Y12247D01*
G01X38403Y12340D01*
G01X38388Y12433D01*
G01X38370Y12525D01*
G01X38350Y12617D01*
G01X38329Y12709D01*
G01X38305Y12800D01*
G01X38279Y12890D01*
G01X38252Y12980D01*
G01X38222Y13069D01*
G01X38190Y13158D01*
G01X38157Y13246D01*
G01X38121Y13333D01*
G01X38084Y13419D01*
G01X38045Y13505D01*
G01X38003Y13589D01*
G01X37960Y13673D01*
G01X37916Y13755D01*
G01X37869Y13837D01*
G01X37820Y13917D01*
G01X37770Y13997D01*
G01X37718Y14075D01*
G01X37664Y14152D01*
G01X37609Y14228D01*
G01X37552Y14303D01*
G01X37493Y14376D01*
G01X37433Y14449D01*
G01X37371Y14519D01*
G01X37307Y14589D01*
G01X37242Y14657D01*
G01X37176Y14723D01*
G01X37108Y14788D01*
G01X37038Y14852D01*
G01X36968Y14913D01*
G01X36896Y14974D01*
G01X36822Y15033D01*
G01X36747Y15090D01*
G01X36672Y15145D01*
G01X36594Y15199D01*
G01X36516Y15251D01*
G01X36437Y15301D01*
G01X36356Y15350D01*
G01X36274Y15396D01*
G01X36192Y15441D01*
G01X36108Y15484D01*
G01X36024Y15526D01*
G01X35938Y15565D01*
G01X35852Y15602D01*
G01X35765Y15638D01*
G01X35677Y15671D01*
G01X35589Y15703D01*
G01X35499Y15733D01*
G01X35410Y15760D01*
G01X35319Y15786D01*
G01X35228Y15810D01*
G01X35137Y15831D01*
G01X35045Y15851D01*
G01X34952Y15868D01*
G01X34860Y15884D01*
G01X34766Y15897D01*
G01X34673Y15909D01*
G01X34580Y15918D01*
G01X34486Y15925D01*
G01X34392Y15931D01*
G01X34298Y15934D01*
G37*
G36*
G01X51384Y17917D02*
G01X49684Y17917D01*
G01X49629Y17916D01*
G01X49575Y17913D01*
G01X49521Y17908D01*
G01X49467Y17901D01*
G01X49414Y17892D01*
G01X49360Y17881D01*
G01X49308Y17868D01*
G01X49255Y17853D01*
G01X49204Y17836D01*
G01X49153Y17817D01*
G01X49103Y17796D01*
G01X49053Y17774D01*
G01X49005Y17749D01*
G01X48957Y17723D01*
G01X48911Y17695D01*
G01X48865Y17665D01*
G01X48821Y17634D01*
G01X48778Y17601D01*
G01X48736Y17566D01*
G01X48696Y17530D01*
G01X48657Y17492D01*
G01X48619Y17453D01*
G01X48583Y17412D01*
G01X48548Y17371D01*
G01X48515Y17327D01*
G01X48483Y17283D01*
G01X48454Y17238D01*
G01X48426Y17191D01*
G01X48399Y17144D01*
G01X48375Y17095D01*
G01X48352Y17046D01*
G01X48332Y16996D01*
G01X48313Y16945D01*
G01X48296Y16893D01*
G01X48281Y16841D01*
G01X48268Y16788D01*
G01X48256Y16735D01*
G01X48247Y16681D01*
G01X48240Y16628D01*
G01X48235Y16573D01*
G01X48232Y16519D01*
G01X48231Y16465D01*
G01X48232Y16411D01*
G01X48235Y16356D01*
G01X48240Y16302D01*
G01X48247Y16248D01*
G01X48256Y16195D01*
G01X48268Y16142D01*
G01X48281Y16089D01*
G01X48296Y16037D01*
G01X48313Y15985D01*
G01X48332Y15934D01*
G01X48352Y15884D01*
G01X48375Y15835D01*
G01X48399Y15786D01*
G01X48426Y15739D01*
G01X48454Y15692D01*
G01X48483Y15647D01*
G01X48515Y15602D01*
G01X48548Y15559D01*
G01X48583Y15517D01*
G01X48619Y15477D01*
G01X48657Y15438D01*
G01X48696Y15400D01*
G01X48736Y15364D01*
G01X48778Y15329D01*
G01X48821Y15296D01*
G01X48865Y15265D01*
G01X48911Y15235D01*
G01X48957Y15207D01*
G01X49005Y15181D01*
G01X49053Y15156D01*
G01X49103Y15134D01*
G01X49153Y15113D01*
G01X49204Y15094D01*
G01X49255Y15077D01*
G01X49308Y15062D01*
G01X49360Y15049D01*
G01X49414Y15038D01*
G01X49467Y15029D01*
G01X49521Y15022D01*
G01X49575Y15016D01*
G01X49629Y15013D01*
G01X49684Y15012D01*
G01X51384Y15012D01*
G01X51438Y15013D01*
G01X51492Y15016D01*
G01X51546Y15022D01*
G01X51600Y15029D01*
G01X51654Y15038D01*
G01X51707Y15049D01*
G01X51760Y15062D01*
G01X51812Y15077D01*
G01X51863Y15094D01*
G01X51914Y15113D01*
G01X51964Y15134D01*
G01X52014Y15156D01*
G01X52062Y15181D01*
G01X52110Y15207D01*
G01X52156Y15235D01*
G01X52202Y15265D01*
G01X52246Y15296D01*
G01X52289Y15329D01*
G01X52331Y15364D01*
G01X52372Y15400D01*
G01X52411Y15438D01*
G01X52448Y15477D01*
G01X52485Y15517D01*
G01X52519Y15559D01*
G01X52552Y15602D01*
G01X52584Y15647D01*
G01X52613Y15692D01*
G01X52642Y15739D01*
G01X52668Y15786D01*
G01X52692Y15835D01*
G01X52715Y15884D01*
G01X52736Y15934D01*
G01X52755Y15985D01*
G01X52772Y16037D01*
G01X52787Y16089D01*
G01X52800Y16142D01*
G01X52811Y16195D01*
G01X52820Y16248D01*
G01X52827Y16302D01*
G01X52832Y16356D01*
G01X52835Y16411D01*
G01X52836Y16465D01*
G01X52835Y16519D01*
G01X52832Y16573D01*
G01X52827Y16628D01*
G01X52820Y16681D01*
G01X52811Y16735D01*
G01X52800Y16788D01*
G01X52787Y16841D01*
G01X52772Y16893D01*
G01X52755Y16945D01*
G01X52736Y16996D01*
G01X52715Y17046D01*
G01X52692Y17095D01*
G01X52668Y17144D01*
G01X52642Y17191D01*
G01X52613Y17238D01*
G01X52584Y17283D01*
G01X52552Y17327D01*
G01X52519Y17371D01*
G01X52485Y17412D01*
G01X52448Y17453D01*
G01X52411Y17492D01*
G01X52372Y17530D01*
G01X52331Y17566D01*
G01X52289Y17601D01*
G01X52246Y17634D01*
G01X52202Y17665D01*
G01X52156Y17695D01*
G01X52110Y17723D01*
G01X52062Y17749D01*
G01X52014Y17774D01*
G01X51964Y17796D01*
G01X51914Y17817D01*
G01X51863Y17836D01*
G01X51812Y17853D01*
G01X51760Y17868D01*
G01X51707Y17881D01*
G01X51654Y17892D01*
G01X51600Y17901D01*
G01X51546Y17908D01*
G01X51492Y17913D01*
G01X51438Y17916D01*
G01X51384Y17917D01*
G37*
G36*
G01X51384Y6917D02*
G01X49684Y6917D01*
G01X49629Y6916D01*
G01X49575Y6913D01*
G01X49521Y6908D01*
G01X49467Y6901D01*
G01X49414Y6892D01*
G01X49360Y6881D01*
G01X49308Y6868D01*
G01X49255Y6853D01*
G01X49204Y6836D01*
G01X49153Y6817D01*
G01X49103Y6796D01*
G01X49053Y6774D01*
G01X49005Y6749D01*
G01X48957Y6723D01*
G01X48911Y6695D01*
G01X48865Y6665D01*
G01X48821Y6634D01*
G01X48778Y6601D01*
G01X48736Y6566D01*
G01X48696Y6530D01*
G01X48657Y6492D01*
G01X48619Y6453D01*
G01X48583Y6412D01*
G01X48548Y6371D01*
G01X48515Y6327D01*
G01X48483Y6283D01*
G01X48454Y6238D01*
G01X48426Y6191D01*
G01X48399Y6144D01*
G01X48375Y6095D01*
G01X48352Y6046D01*
G01X48332Y5996D01*
G01X48313Y5945D01*
G01X48296Y5893D01*
G01X48281Y5841D01*
G01X48268Y5788D01*
G01X48256Y5735D01*
G01X48247Y5681D01*
G01X48240Y5628D01*
G01X48235Y5573D01*
G01X48232Y5519D01*
G01X48231Y5465D01*
G01X48232Y5411D01*
G01X48235Y5356D01*
G01X48240Y5302D01*
G01X48247Y5248D01*
G01X48256Y5195D01*
G01X48268Y5142D01*
G01X48281Y5089D01*
G01X48296Y5037D01*
G01X48313Y4985D01*
G01X48332Y4934D01*
G01X48352Y4884D01*
G01X48375Y4835D01*
G01X48399Y4786D01*
G01X48426Y4739D01*
G01X48454Y4692D01*
G01X48483Y4647D01*
G01X48515Y4602D01*
G01X48548Y4559D01*
G01X48583Y4517D01*
G01X48619Y4477D01*
G01X48657Y4438D01*
G01X48696Y4400D01*
G01X48736Y4364D01*
G01X48778Y4329D01*
G01X48821Y4296D01*
G01X48865Y4265D01*
G01X48911Y4235D01*
G01X48957Y4207D01*
G01X49005Y4181D01*
G01X49053Y4156D01*
G01X49103Y4134D01*
G01X49153Y4113D01*
G01X49204Y4094D01*
G01X49255Y4077D01*
G01X49308Y4062D01*
G01X49360Y4049D01*
G01X49414Y4038D01*
G01X49467Y4029D01*
G01X49521Y4022D01*
G01X49575Y4016D01*
G01X49629Y4013D01*
G01X49684Y4012D01*
G01X51384Y4012D01*
G01X51438Y4013D01*
G01X51492Y4016D01*
G01X51546Y4022D01*
G01X51600Y4029D01*
G01X51654Y4038D01*
G01X51707Y4049D01*
G01X51760Y4062D01*
G01X51812Y4077D01*
G01X51863Y4094D01*
G01X51914Y4113D01*
G01X51964Y4134D01*
G01X52014Y4156D01*
G01X52062Y4181D01*
G01X52110Y4207D01*
G01X52156Y4235D01*
G01X52202Y4265D01*
G01X52246Y4296D01*
G01X52289Y4329D01*
G01X52331Y4364D01*
G01X52372Y4400D01*
G01X52411Y4438D01*
G01X52448Y4477D01*
G01X52485Y4517D01*
G01X52519Y4559D01*
G01X52552Y4602D01*
G01X52584Y4647D01*
G01X52613Y4692D01*
G01X52642Y4739D01*
G01X52668Y4786D01*
G01X52692Y4835D01*
G01X52715Y4884D01*
G01X52736Y4934D01*
G01X52755Y4985D01*
G01X52772Y5037D01*
G01X52787Y5089D01*
G01X52800Y5142D01*
G01X52811Y5195D01*
G01X52820Y5248D01*
G01X52827Y5302D01*
G01X52832Y5356D01*
G01X52835Y5411D01*
G01X52836Y5465D01*
G01X52835Y5519D01*
G01X52832Y5573D01*
G01X52827Y5628D01*
G01X52820Y5681D01*
G01X52811Y5735D01*
G01X52800Y5788D01*
G01X52787Y5841D01*
G01X52772Y5893D01*
G01X52755Y5945D01*
G01X52736Y5996D01*
G01X52715Y6046D01*
G01X52692Y6095D01*
G01X52668Y6144D01*
G01X52642Y6191D01*
G01X52613Y6238D01*
G01X52584Y6283D01*
G01X52552Y6327D01*
G01X52519Y6371D01*
G01X52485Y6412D01*
G01X52448Y6453D01*
G01X52411Y6492D01*
G01X52372Y6530D01*
G01X52331Y6566D01*
G01X52289Y6601D01*
G01X52246Y6634D01*
G01X52202Y6665D01*
G01X52156Y6695D01*
G01X52110Y6723D01*
G01X52062Y6749D01*
G01X52014Y6774D01*
G01X51964Y6796D01*
G01X51914Y6817D01*
G01X51863Y6836D01*
G01X51812Y6853D01*
G01X51760Y6868D01*
G01X51707Y6881D01*
G01X51654Y6892D01*
G01X51600Y6901D01*
G01X51546Y6908D01*
G01X51492Y6913D01*
G01X51438Y6916D01*
G01X51384Y6917D01*
G37*
G36*
G01X54406Y42228D02*
G01X54356Y42229D01*
G01X54306Y42228D01*
G01X54257Y42225D01*
G01X54207Y42220D01*
G01X54158Y42213D01*
G01X54109Y42204D01*
G01X54061Y42193D01*
G01X54013Y42179D01*
G01X53965Y42164D01*
G01X53919Y42147D01*
G01X53873Y42128D01*
G01X53828Y42107D01*
G01X53783Y42084D01*
G01X53740Y42060D01*
G01X53698Y42033D01*
G01X53657Y42005D01*
G01X53617Y41976D01*
G01X53579Y41944D01*
G01X53541Y41911D01*
G01X53505Y41877D01*
G01X53471Y41841D01*
G01X53438Y41804D01*
G01X53407Y41765D01*
G01X53377Y41725D01*
G01X53349Y41684D01*
G01X53323Y41642D01*
G01X53298Y41599D01*
G01X53275Y41555D01*
G01X53255Y41509D01*
G01X53236Y41464D01*
G01X53218Y41417D01*
G01X53203Y41369D01*
G01X53190Y41322D01*
G01X53179Y41273D01*
G01X53170Y41224D01*
G01X53163Y41175D01*
G01X53158Y41126D01*
G01X53154Y41076D01*
G01X53153Y41027D01*
G01X53154Y40977D01*
G01X53158Y40928D01*
G01X53163Y40878D01*
G01X53170Y40829D01*
G01X53179Y40780D01*
G01X53190Y40732D01*
G01X53203Y40684D01*
G01X53218Y40637D01*
G01X53236Y40590D01*
G01X53255Y40544D01*
G01X53275Y40499D01*
G01X53298Y40455D01*
G01X53323Y40412D01*
G01X53349Y40369D01*
G01X53377Y40328D01*
G01X53407Y40289D01*
G01X53438Y40250D01*
G01X53471Y40213D01*
G01X53505Y40177D01*
G01X53541Y40142D01*
G01X53579Y40109D01*
G01X53617Y40078D01*
G01X53657Y40048D01*
G01X53698Y40020D01*
G01X53740Y39994D01*
G01X53783Y39969D01*
G01X53828Y39947D01*
G01X53873Y39926D01*
G01X53919Y39907D01*
G01X53965Y39890D01*
G01X54013Y39874D01*
G01X54061Y39861D01*
G01X54109Y39850D01*
G01X54158Y39841D01*
G01X54207Y39834D01*
G01X54257Y39828D01*
G01X54306Y39825D01*
G01X54356Y39824D01*
G01X54406Y39825D01*
G01X54455Y39828D01*
G01X54505Y39834D01*
G01X54554Y39841D01*
G01X54603Y39850D01*
G01X54652Y39861D01*
G01X54700Y39875D01*
G01X54747Y39890D01*
G01X54794Y39907D01*
G01X54840Y39926D01*
G01X54885Y39947D01*
G01X54930Y39970D01*
G01X54973Y39995D01*
G01X55015Y40021D01*
G01X55056Y40049D01*
G01X55096Y40079D01*
G01X55135Y40111D01*
G01X55172Y40144D01*
G01X55208Y40178D01*
G01X55242Y40214D01*
G01X55275Y40252D01*
G01X55307Y40290D01*
G01X55336Y40330D01*
G01X55364Y40372D01*
G01X55391Y40414D01*
G01X55415Y40457D01*
G01X55438Y40502D01*
G01X55459Y40547D01*
G01X55465Y40560D01*
G01X55474Y40572D01*
G01X55484Y40582D01*
G01X55496Y40591D01*
G01X55509Y40599D01*
G01X55523Y40604D01*
G01X55537Y40607D01*
G01X55552Y40608D01*
G01X55566Y40607D01*
G01X55580Y40604D01*
G01X55594Y40599D01*
G01X55607Y40592D01*
G01X55618Y40583D01*
G01X55628Y40573D01*
G01X55637Y40561D01*
G01X55644Y40549D01*
G01X55649Y40535D01*
G01X55652Y40521D01*
G01X55653Y40506D01*
G01X55653Y40127D01*
G01X55654Y40102D01*
G01X55657Y40077D01*
G01X55663Y40053D01*
G01X55670Y40029D01*
G01X55679Y40005D01*
G01X55690Y39983D01*
G01X55703Y39961D01*
G01X55717Y39941D01*
G01X55733Y39922D01*
G01X55751Y39904D01*
G01X55770Y39888D01*
G01X55790Y39874D01*
G01X55812Y39861D01*
G01X55834Y39850D01*
G01X55858Y39841D01*
G01X55882Y39834D01*
G01X55906Y39828D01*
G01X55931Y39825D01*
G01X55956Y39824D01*
G01X57756Y39824D01*
G01X57781Y39825D01*
G01X57806Y39828D01*
G01X57830Y39834D01*
G01X57854Y39841D01*
G01X57877Y39850D01*
G01X57900Y39861D01*
G01X57921Y39874D01*
G01X57942Y39888D01*
G01X57961Y39904D01*
G01X57978Y39922D01*
G01X57995Y39941D01*
G01X58009Y39961D01*
G01X58022Y39983D01*
G01X58033Y40005D01*
G01X58042Y40029D01*
G01X58049Y40053D01*
G01X58054Y40077D01*
G01X58057Y40102D01*
G01X58058Y40127D01*
G01X58058Y41927D01*
G01X58057Y41952D01*
G01X58054Y41977D01*
G01X58049Y42001D01*
G01X58042Y42025D01*
G01X58033Y42048D01*
G01X58022Y42071D01*
G01X58009Y42092D01*
G01X57995Y42113D01*
G01X57978Y42132D01*
G01X57961Y42149D01*
G01X57942Y42166D01*
G01X57921Y42180D01*
G01X57900Y42193D01*
G01X57877Y42204D01*
G01X57854Y42213D01*
G01X57830Y42220D01*
G01X57806Y42225D01*
G01X57781Y42228D01*
G01X57756Y42229D01*
G01X55956Y42229D01*
G01X55931Y42228D01*
G01X55906Y42225D01*
G01X55882Y42220D01*
G01X55858Y42213D01*
G01X55834Y42204D01*
G01X55812Y42193D01*
G01X55790Y42180D01*
G01X55770Y42166D01*
G01X55751Y42149D01*
G01X55733Y42132D01*
G01X55717Y42113D01*
G01X55703Y42092D01*
G01X55690Y42071D01*
G01X55679Y42048D01*
G01X55670Y42025D01*
G01X55663Y42001D01*
G01X55657Y41977D01*
G01X55654Y41952D01*
G01X55653Y41927D01*
G01X55653Y41547D01*
G01X55652Y41533D01*
G01X55649Y41519D01*
G01X55644Y41505D01*
G01X55637Y41492D01*
G01X55628Y41481D01*
G01X55618Y41471D01*
G01X55607Y41462D01*
G01X55594Y41455D01*
G01X55580Y41450D01*
G01X55566Y41447D01*
G01X55552Y41446D01*
G01X55537Y41447D01*
G01X55523Y41450D01*
G01X55509Y41455D01*
G01X55496Y41462D01*
G01X55484Y41471D01*
G01X55474Y41482D01*
G01X55465Y41494D01*
G01X55459Y41507D01*
G01X55438Y41552D01*
G01X55415Y41596D01*
G01X55391Y41640D01*
G01X55364Y41682D01*
G01X55336Y41723D01*
G01X55307Y41763D01*
G01X55275Y41802D01*
G01X55242Y41839D01*
G01X55208Y41876D01*
G01X55172Y41910D01*
G01X55135Y41943D01*
G01X55096Y41975D01*
G01X55056Y42004D01*
G01X55015Y42033D01*
G01X54973Y42059D01*
G01X54930Y42084D01*
G01X54885Y42107D01*
G01X54840Y42128D01*
G01X54794Y42147D01*
G01X54747Y42164D01*
G01X54700Y42179D01*
G01X54652Y42192D01*
G01X54603Y42204D01*
G01X54554Y42213D01*
G01X54505Y42220D01*
G01X54455Y42225D01*
G01X54406Y42228D01*
G37*
G36*
G01X43865Y42228D02*
G01X43815Y42229D01*
G01X43765Y42228D01*
G01X43716Y42225D01*
G01X43666Y42220D01*
G01X43617Y42213D01*
G01X43568Y42204D01*
G01X43520Y42193D01*
G01X43472Y42179D01*
G01X43424Y42164D01*
G01X43378Y42147D01*
G01X43332Y42128D01*
G01X43287Y42107D01*
G01X43242Y42084D01*
G01X43199Y42060D01*
G01X43157Y42033D01*
G01X43116Y42005D01*
G01X43076Y41976D01*
G01X43038Y41944D01*
G01X43000Y41911D01*
G01X42964Y41877D01*
G01X42930Y41841D01*
G01X42897Y41804D01*
G01X42866Y41765D01*
G01X42836Y41725D01*
G01X42808Y41684D01*
G01X42782Y41642D01*
G01X42757Y41599D01*
G01X42734Y41555D01*
G01X42714Y41509D01*
G01X42695Y41464D01*
G01X42677Y41417D01*
G01X42662Y41369D01*
G01X42649Y41322D01*
G01X42638Y41273D01*
G01X42629Y41224D01*
G01X42622Y41175D01*
G01X42617Y41126D01*
G01X42613Y41076D01*
G01X42612Y41027D01*
G01X42613Y40977D01*
G01X42617Y40928D01*
G01X42622Y40878D01*
G01X42629Y40829D01*
G01X42638Y40780D01*
G01X42649Y40732D01*
G01X42662Y40684D01*
G01X42677Y40637D01*
G01X42695Y40590D01*
G01X42714Y40544D01*
G01X42734Y40499D01*
G01X42757Y40455D01*
G01X42782Y40412D01*
G01X42808Y40369D01*
G01X42836Y40328D01*
G01X42866Y40289D01*
G01X42897Y40250D01*
G01X42930Y40213D01*
G01X42964Y40177D01*
G01X43000Y40142D01*
G01X43038Y40109D01*
G01X43076Y40078D01*
G01X43116Y40048D01*
G01X43157Y40020D01*
G01X43199Y39994D01*
G01X43242Y39969D01*
G01X43287Y39947D01*
G01X43332Y39926D01*
G01X43378Y39907D01*
G01X43424Y39890D01*
G01X43472Y39874D01*
G01X43520Y39861D01*
G01X43568Y39850D01*
G01X43617Y39841D01*
G01X43666Y39834D01*
G01X43716Y39828D01*
G01X43765Y39825D01*
G01X43815Y39824D01*
G01X43865Y39825D01*
G01X43914Y39828D01*
G01X43964Y39834D01*
G01X44013Y39841D01*
G01X44062Y39850D01*
G01X44111Y39861D01*
G01X44159Y39875D01*
G01X44206Y39890D01*
G01X44253Y39907D01*
G01X44299Y39926D01*
G01X44344Y39947D01*
G01X44389Y39970D01*
G01X44432Y39995D01*
G01X44474Y40021D01*
G01X44515Y40049D01*
G01X44555Y40079D01*
G01X44594Y40111D01*
G01X44631Y40144D01*
G01X44667Y40178D01*
G01X44701Y40214D01*
G01X44734Y40252D01*
G01X44766Y40290D01*
G01X44795Y40330D01*
G01X44823Y40372D01*
G01X44850Y40414D01*
G01X44874Y40457D01*
G01X44897Y40502D01*
G01X44918Y40547D01*
G01X44924Y40560D01*
G01X44933Y40572D01*
G01X44943Y40582D01*
G01X44955Y40591D01*
G01X44968Y40599D01*
G01X44982Y40604D01*
G01X44996Y40607D01*
G01X45011Y40608D01*
G01X45025Y40607D01*
G01X45039Y40604D01*
G01X45053Y40599D01*
G01X45066Y40592D01*
G01X45077Y40583D01*
G01X45087Y40573D01*
G01X45096Y40561D01*
G01X45103Y40549D01*
G01X45108Y40535D01*
G01X45111Y40521D01*
G01X45112Y40506D01*
G01X45112Y40127D01*
G01X45113Y40102D01*
G01X45116Y40077D01*
G01X45122Y40053D01*
G01X45129Y40029D01*
G01X45138Y40005D01*
G01X45149Y39983D01*
G01X45162Y39961D01*
G01X45176Y39941D01*
G01X45192Y39922D01*
G01X45210Y39904D01*
G01X45229Y39888D01*
G01X45249Y39874D01*
G01X45271Y39861D01*
G01X45293Y39850D01*
G01X45317Y39841D01*
G01X45341Y39834D01*
G01X45365Y39828D01*
G01X45390Y39825D01*
G01X45415Y39824D01*
G01X47215Y39824D01*
G01X47240Y39825D01*
G01X47265Y39828D01*
G01X47289Y39834D01*
G01X47313Y39841D01*
G01X47336Y39850D01*
G01X47359Y39861D01*
G01X47380Y39874D01*
G01X47401Y39888D01*
G01X47420Y39904D01*
G01X47437Y39922D01*
G01X47454Y39941D01*
G01X47468Y39961D01*
G01X47481Y39983D01*
G01X47492Y40005D01*
G01X47501Y40029D01*
G01X47508Y40053D01*
G01X47513Y40077D01*
G01X47516Y40102D01*
G01X47517Y40127D01*
G01X47517Y41927D01*
G01X47516Y41952D01*
G01X47513Y41977D01*
G01X47508Y42001D01*
G01X47501Y42025D01*
G01X47492Y42048D01*
G01X47481Y42071D01*
G01X47468Y42092D01*
G01X47454Y42113D01*
G01X47437Y42132D01*
G01X47420Y42149D01*
G01X47401Y42166D01*
G01X47380Y42180D01*
G01X47359Y42193D01*
G01X47336Y42204D01*
G01X47313Y42213D01*
G01X47289Y42220D01*
G01X47265Y42225D01*
G01X47240Y42228D01*
G01X47215Y42229D01*
G01X45415Y42229D01*
G01X45390Y42228D01*
G01X45365Y42225D01*
G01X45341Y42220D01*
G01X45317Y42213D01*
G01X45293Y42204D01*
G01X45271Y42193D01*
G01X45249Y42180D01*
G01X45229Y42166D01*
G01X45210Y42149D01*
G01X45192Y42132D01*
G01X45176Y42113D01*
G01X45162Y42092D01*
G01X45149Y42071D01*
G01X45138Y42048D01*
G01X45129Y42025D01*
G01X45122Y42001D01*
G01X45116Y41977D01*
G01X45113Y41952D01*
G01X45112Y41927D01*
G01X45112Y41547D01*
G01X45111Y41533D01*
G01X45108Y41519D01*
G01X45103Y41505D01*
G01X45096Y41492D01*
G01X45087Y41481D01*
G01X45077Y41471D01*
G01X45066Y41462D01*
G01X45053Y41455D01*
G01X45039Y41450D01*
G01X45025Y41447D01*
G01X45011Y41446D01*
G01X44996Y41447D01*
G01X44982Y41450D01*
G01X44968Y41455D01*
G01X44955Y41462D01*
G01X44943Y41471D01*
G01X44933Y41482D01*
G01X44924Y41494D01*
G01X44918Y41507D01*
G01X44897Y41552D01*
G01X44874Y41596D01*
G01X44850Y41640D01*
G01X44823Y41682D01*
G01X44795Y41723D01*
G01X44766Y41763D01*
G01X44734Y41802D01*
G01X44701Y41839D01*
G01X44667Y41876D01*
G01X44631Y41910D01*
G01X44594Y41943D01*
G01X44555Y41975D01*
G01X44515Y42004D01*
G01X44474Y42033D01*
G01X44432Y42059D01*
G01X44389Y42084D01*
G01X44344Y42107D01*
G01X44299Y42128D01*
G01X44253Y42147D01*
G01X44206Y42164D01*
G01X44159Y42179D01*
G01X44111Y42192D01*
G01X44062Y42204D01*
G01X44013Y42213D01*
G01X43964Y42220D01*
G01X43914Y42225D01*
G01X43865Y42228D01*
G37*
G36*
G01X43089Y9626D02*
G01X43034Y9627D01*
G01X42979Y9626D01*
G01X42924Y9622D01*
G01X42869Y9616D01*
G01X42814Y9607D01*
G01X42761Y9596D01*
G01X42712Y9584D01*
G01X42663Y9569D01*
G01X42616Y9552D01*
G01X42569Y9534D01*
G01X42523Y9514D01*
G01X42478Y9491D01*
G01X42433Y9467D01*
G01X42390Y9441D01*
G01X42348Y9413D01*
G01X42307Y9383D01*
G01X42268Y9352D01*
G01X42230Y9319D01*
G01X42193Y9285D01*
G01X42158Y9249D01*
G01X42124Y9211D01*
G01X42092Y9172D01*
G01X42061Y9132D01*
G01X42032Y9091D01*
G01X42005Y9048D01*
G01X41980Y9005D01*
G01X41957Y8960D01*
G01X41935Y8914D01*
G01X41916Y8868D01*
G01X41898Y8821D01*
G01X41883Y8773D01*
G01X41869Y8724D01*
G01X41858Y8675D01*
G01X41848Y8626D01*
G01X41841Y8576D01*
G01X41835Y8526D01*
G01X41832Y8475D01*
G01X41831Y8425D01*
G01X41832Y8375D01*
G01X41835Y8326D01*
G01X41840Y8276D01*
G01X41848Y8227D01*
G01X41857Y8178D01*
G01X41868Y8130D01*
G01X41881Y8082D01*
G01X41896Y8034D01*
G01X41914Y7988D01*
G01X41933Y7942D01*
G01X41953Y7897D01*
G01X41976Y7853D01*
G01X42001Y7809D01*
G01X42027Y7767D01*
G01X42055Y7726D01*
G01X42085Y7686D01*
G01X42116Y7648D01*
G01X42149Y7610D01*
G01X42183Y7575D01*
G01X42219Y7540D01*
G01X42257Y7507D01*
G01X42295Y7476D01*
G01X42335Y7446D01*
G01X42376Y7418D01*
G01X42418Y7392D01*
G01X42461Y7367D01*
G01X42506Y7345D01*
G01X42551Y7324D01*
G01X42597Y7305D01*
G01X42643Y7288D01*
G01X42691Y7272D01*
G01X42739Y7259D01*
G01X42787Y7248D01*
G01X42836Y7239D01*
G01X42885Y7232D01*
G01X42934Y7227D01*
G01X42984Y7223D01*
G01X43034Y7222D01*
G01X43083Y7223D01*
G01X43133Y7227D01*
G01X43182Y7232D01*
G01X43232Y7239D01*
G01X43281Y7248D01*
G01X43329Y7259D01*
G01X43377Y7272D01*
G01X43424Y7288D01*
G01X43471Y7305D01*
G01X43517Y7324D01*
G01X43562Y7345D01*
G01X43606Y7367D01*
G01X43649Y7392D01*
G01X43691Y7418D01*
G01X43733Y7446D01*
G01X43772Y7476D01*
G01X43811Y7507D01*
G01X43848Y7540D01*
G01X43884Y7575D01*
G01X43918Y7610D01*
G01X43951Y7648D01*
G01X43983Y7686D01*
G01X44012Y7726D01*
G01X44040Y7767D01*
G01X44067Y7809D01*
G01X44091Y7853D01*
G01X44114Y7897D01*
G01X44135Y7942D01*
G01X44154Y7988D01*
G01X44171Y8034D01*
G01X44186Y8082D01*
G01X44199Y8130D01*
G01X44211Y8178D01*
G01X44220Y8227D01*
G01X44227Y8276D01*
G01X44232Y8326D01*
G01X44235Y8375D01*
G01X44236Y8425D01*
G01X44235Y8475D01*
G01X44232Y8526D01*
G01X44227Y8576D01*
G01X44219Y8626D01*
G01X44210Y8675D01*
G01X44198Y8724D01*
G01X44185Y8773D01*
G01X44169Y8821D01*
G01X44152Y8868D01*
G01X44132Y8914D01*
G01X44111Y8960D01*
G01X44087Y9005D01*
G01X44062Y9048D01*
G01X44035Y9091D01*
G01X44006Y9132D01*
G01X43976Y9172D01*
G01X43944Y9211D01*
G01X43910Y9249D01*
G01X43875Y9285D01*
G01X43838Y9319D01*
G01X43800Y9352D01*
G01X43760Y9383D01*
G01X43719Y9413D01*
G01X43677Y9441D01*
G01X43634Y9467D01*
G01X43590Y9491D01*
G01X43545Y9514D01*
G01X43499Y9534D01*
G01X43452Y9552D01*
G01X43404Y9569D01*
G01X43356Y9584D01*
G01X43307Y9596D01*
G01X43253Y9607D01*
G01X43199Y9616D01*
G01X43144Y9622D01*
G01X43089Y9626D01*
G37*
G36*
G01X53929Y30200D02*
G01X53880Y30201D01*
G01X53830Y30200D01*
G01X53780Y30197D01*
G01X53731Y30192D01*
G01X53682Y30185D01*
G01X53633Y30176D01*
G01X53585Y30165D01*
G01X53537Y30151D01*
G01X53489Y30136D01*
G01X53443Y30119D01*
G01X53397Y30100D01*
G01X53352Y30079D01*
G01X53307Y30056D01*
G01X53264Y30032D01*
G01X53222Y30006D01*
G01X53181Y29977D01*
G01X53141Y29948D01*
G01X53065Y29884D01*
G01X53029Y29849D01*
G01X52995Y29813D01*
G01X52962Y29776D01*
G01X52931Y29737D01*
G01X52901Y29698D01*
G01X52873Y29657D01*
G01X52847Y29614D01*
G01X52822Y29571D01*
G01X52799Y29527D01*
G01X52779Y29482D01*
G01X52760Y29436D01*
G01X52742Y29389D01*
G01X52727Y29342D01*
G01X52714Y29294D01*
G01X52703Y29246D01*
G01X52694Y29197D01*
G01X52687Y29148D01*
G01X52681Y29098D01*
G01X52678Y29048D01*
G01X52677Y28999D01*
G01X52678Y28949D01*
G01X52681Y28899D01*
G01X52687Y28850D01*
G01X52694Y28801D01*
G01X52703Y28752D01*
G01X52714Y28704D01*
G01X52727Y28656D01*
G01X52742Y28608D01*
G01X52760Y28562D01*
G01X52779Y28516D01*
G01X52799Y28471D01*
G01X52822Y28426D01*
G01X52847Y28383D01*
G01X52873Y28341D01*
G01X52901Y28300D01*
G01X52931Y28260D01*
G01X52962Y28222D01*
G01X52995Y28184D01*
G01X53029Y28148D01*
G01X53065Y28114D01*
G01X53103Y28081D01*
G01X53141Y28050D01*
G01X53181Y28020D01*
G01X53222Y27992D01*
G01X53264Y27966D01*
G01X53307Y27941D01*
G01X53352Y27918D01*
G01X53397Y27898D01*
G01X53443Y27879D01*
G01X53489Y27861D01*
G01X53537Y27846D01*
G01X53585Y27833D01*
G01X53633Y27822D01*
G01X53682Y27813D01*
G01X53731Y27806D01*
G01X53780Y27800D01*
G01X53830Y27797D01*
G01X53880Y27796D01*
G01X53929Y27797D01*
G01X53979Y27800D01*
G01X54029Y27806D01*
G01X54078Y27813D01*
G01X54127Y27822D01*
G01X54175Y27833D01*
G01X54223Y27846D01*
G01X54270Y27861D01*
G01X54317Y27879D01*
G01X54363Y27898D01*
G01X54408Y27918D01*
G01X54452Y27941D01*
G01X54495Y27966D01*
G01X54538Y27992D01*
G01X54579Y28020D01*
G01X54618Y28050D01*
G01X54657Y28081D01*
G01X54694Y28114D01*
G01X54730Y28148D01*
G01X54765Y28184D01*
G01X54829Y28260D01*
G01X54858Y28300D01*
G01X54887Y28341D01*
G01X54913Y28383D01*
G01X54937Y28426D01*
G01X54960Y28471D01*
G01X54981Y28516D01*
G01X55000Y28562D01*
G01X55017Y28608D01*
G01X55032Y28656D01*
G01X55046Y28704D01*
G01X55057Y28752D01*
G01X55066Y28801D01*
G01X55073Y28850D01*
G01X55078Y28899D01*
G01X55081Y28949D01*
G01X55082Y28999D01*
G01X55081Y29048D01*
G01X55078Y29098D01*
G01X55073Y29148D01*
G01X55066Y29197D01*
G01X55057Y29246D01*
G01X55046Y29294D01*
G01X55032Y29342D01*
G01X55017Y29389D01*
G01X55000Y29436D01*
G01X54981Y29482D01*
G01X54960Y29527D01*
G01X54937Y29571D01*
G01X54913Y29614D01*
G01X54887Y29657D01*
G01X54858Y29698D01*
G01X54829Y29737D01*
G01X54797Y29776D01*
G01X54765Y29813D01*
G01X54730Y29849D01*
G01X54694Y29884D01*
G01X54657Y29916D01*
G01X54618Y29948D01*
G01X54579Y29977D01*
G01X54538Y30006D01*
G01X54495Y30032D01*
G01X54452Y30056D01*
G01X54408Y30079D01*
G01X54363Y30100D01*
G01X54317Y30119D01*
G01X54270Y30136D01*
G01X54223Y30151D01*
G01X54175Y30165D01*
G01X54127Y30176D01*
G01X54078Y30185D01*
G01X54029Y30192D01*
G01X53979Y30197D01*
G01X53929Y30200D01*
G37*
G36*
G01X43083Y14706D02*
G01X43034Y14707D01*
G01X42984Y14706D01*
G01X42934Y14703D01*
G01X42885Y14698D01*
G01X42836Y14691D01*
G01X42787Y14682D01*
G01X42739Y14671D01*
G01X42691Y14657D01*
G01X42643Y14642D01*
G01X42597Y14625D01*
G01X42551Y14606D01*
G01X42506Y14585D01*
G01X42461Y14563D01*
G01X42418Y14538D01*
G01X42376Y14512D01*
G01X42335Y14484D01*
G01X42295Y14454D01*
G01X42257Y14423D01*
G01X42219Y14390D01*
G01X42183Y14355D01*
G01X42149Y14319D01*
G01X42116Y14282D01*
G01X42085Y14244D01*
G01X42055Y14204D01*
G01X42027Y14163D01*
G01X42001Y14120D01*
G01X41976Y14077D01*
G01X41953Y14033D01*
G01X41933Y13988D01*
G01X41914Y13942D01*
G01X41896Y13895D01*
G01X41881Y13848D01*
G01X41868Y13800D01*
G01X41857Y13752D01*
G01X41848Y13703D01*
G01X41840Y13654D01*
G01X41835Y13604D01*
G01X41832Y13555D01*
G01X41831Y13505D01*
G01X41832Y13455D01*
G01X41835Y13404D01*
G01X41841Y13354D01*
G01X41848Y13304D01*
G01X41858Y13255D01*
G01X41869Y13206D01*
G01X41883Y13157D01*
G01X41898Y13109D01*
G01X41916Y13062D01*
G01X41935Y13015D01*
G01X41957Y12970D01*
G01X41980Y12925D01*
G01X42005Y12882D01*
G01X42032Y12839D01*
G01X42061Y12798D01*
G01X42092Y12757D01*
G01X42124Y12719D01*
G01X42158Y12681D01*
G01X42193Y12645D01*
G01X42230Y12611D01*
G01X42268Y12578D01*
G01X42307Y12547D01*
G01X42348Y12517D01*
G01X42390Y12489D01*
G01X42433Y12463D01*
G01X42478Y12439D01*
G01X42523Y12416D01*
G01X42569Y12396D01*
G01X42616Y12377D01*
G01X42663Y12361D01*
G01X42712Y12346D01*
G01X42761Y12334D01*
G01X42814Y12323D01*
G01X42869Y12314D01*
G01X42924Y12307D01*
G01X42979Y12304D01*
G01X43034Y12302D01*
G01X43089Y12304D01*
G01X43144Y12307D01*
G01X43199Y12314D01*
G01X43253Y12323D01*
G01X43307Y12334D01*
G01X43356Y12346D01*
G01X43404Y12361D01*
G01X43452Y12377D01*
G01X43499Y12396D01*
G01X43545Y12416D01*
G01X43590Y12439D01*
G01X43634Y12463D01*
G01X43677Y12489D01*
G01X43719Y12517D01*
G01X43760Y12547D01*
G01X43800Y12578D01*
G01X43838Y12611D01*
G01X43875Y12645D01*
G01X43910Y12681D01*
G01X43944Y12719D01*
G01X43976Y12757D01*
G01X44006Y12798D01*
G01X44035Y12839D01*
G01X44062Y12882D01*
G01X44087Y12925D01*
G01X44111Y12970D01*
G01X44132Y13015D01*
G01X44152Y13062D01*
G01X44169Y13109D01*
G01X44185Y13157D01*
G01X44198Y13206D01*
G01X44210Y13255D01*
G01X44219Y13304D01*
G01X44227Y13354D01*
G01X44232Y13404D01*
G01X44235Y13455D01*
G01X44236Y13505D01*
G01X44235Y13555D01*
G01X44232Y13604D01*
G01X44227Y13654D01*
G01X44220Y13703D01*
G01X44211Y13752D01*
G01X44199Y13800D01*
G01X44186Y13848D01*
G01X44171Y13895D01*
G01X44154Y13942D01*
G01X44135Y13988D01*
G01X44114Y14033D01*
G01X44091Y14077D01*
G01X44067Y14120D01*
G01X44040Y14163D01*
G01X44012Y14204D01*
G01X43983Y14244D01*
G01X43951Y14282D01*
G01X43918Y14319D01*
G01X43884Y14355D01*
G01X43848Y14390D01*
G01X43811Y14423D01*
G01X43772Y14454D01*
G01X43733Y14484D01*
G01X43691Y14512D01*
G01X43649Y14538D01*
G01X43606Y14563D01*
G01X43562Y14585D01*
G01X43517Y14606D01*
G01X43471Y14625D01*
G01X43424Y14642D01*
G01X43377Y14657D01*
G01X43329Y14671D01*
G01X43281Y14682D01*
G01X43232Y14691D01*
G01X43182Y14698D01*
G01X43133Y14703D01*
G01X43083Y14706D01*
G37*
G36*
G01X48816Y35661D02*
G01X48766Y35662D01*
G01X48716Y35661D01*
G01X48665Y35658D01*
G01X48615Y35653D01*
G01X48565Y35645D01*
G01X48516Y35636D01*
G01X48467Y35624D01*
G01X48418Y35611D01*
G01X48370Y35595D01*
G01X48323Y35578D01*
G01X48276Y35558D01*
G01X48231Y35537D01*
G01X48186Y35513D01*
G01X48143Y35488D01*
G01X48100Y35461D01*
G01X48059Y35432D01*
G01X48018Y35402D01*
G01X47980Y35370D01*
G01X47942Y35336D01*
G01X47906Y35301D01*
G01X47872Y35264D01*
G01X47839Y35226D01*
G01X47808Y35186D01*
G01X47778Y35145D01*
G01X47750Y35103D01*
G01X47724Y35060D01*
G01X47700Y35016D01*
G01X47677Y34971D01*
G01X47657Y34925D01*
G01X47638Y34878D01*
G01X47622Y34830D01*
G01X47607Y34782D01*
G01X47595Y34733D01*
G01X47584Y34679D01*
G01X47575Y34625D01*
G01X47568Y34570D01*
G01X47565Y34515D01*
G01X47563Y34460D01*
G01X47565Y34405D01*
G01X47568Y34350D01*
G01X47575Y34295D01*
G01X47584Y34241D01*
G01X47595Y34187D01*
G01X47607Y34138D01*
G01X47622Y34089D01*
G01X47638Y34042D01*
G01X47657Y33995D01*
G01X47677Y33949D01*
G01X47700Y33904D01*
G01X47724Y33860D01*
G01X47750Y33816D01*
G01X47778Y33774D01*
G01X47808Y33734D01*
G01X47839Y33694D01*
G01X47872Y33656D01*
G01X47906Y33619D01*
G01X47942Y33584D01*
G01X47980Y33550D01*
G01X48018Y33518D01*
G01X48059Y33487D01*
G01X48100Y33459D01*
G01X48143Y33432D01*
G01X48186Y33406D01*
G01X48231Y33383D01*
G01X48276Y33361D01*
G01X48323Y33342D01*
G01X48370Y33324D01*
G01X48418Y33309D01*
G01X48467Y33295D01*
G01X48516Y33284D01*
G01X48565Y33274D01*
G01X48615Y33267D01*
G01X48665Y33262D01*
G01X48716Y33258D01*
G01X48766Y33257D01*
G01X48816Y33258D01*
G01X48865Y33261D01*
G01X48915Y33267D01*
G01X48964Y33274D01*
G01X49013Y33283D01*
G01X49061Y33294D01*
G01X49109Y33307D01*
G01X49156Y33322D01*
G01X49203Y33340D01*
G01X49249Y33359D01*
G01X49294Y33379D01*
G01X49338Y33402D01*
G01X49381Y33427D01*
G01X49424Y33453D01*
G01X49465Y33481D01*
G01X49505Y33511D01*
G01X49543Y33542D01*
G01X49580Y33575D01*
G01X49616Y33609D01*
G01X49651Y33645D01*
G01X49684Y33683D01*
G01X49715Y33721D01*
G01X49745Y33761D01*
G01X49773Y33802D01*
G01X49799Y33844D01*
G01X49824Y33887D01*
G01X49846Y33932D01*
G01X49867Y33977D01*
G01X49886Y34023D01*
G01X49903Y34069D01*
G01X49918Y34117D01*
G01X49932Y34165D01*
G01X49943Y34213D01*
G01X49952Y34262D01*
G01X49959Y34311D01*
G01X49964Y34360D01*
G01X49967Y34410D01*
G01X49968Y34460D01*
G01X49967Y34509D01*
G01X49964Y34559D01*
G01X49959Y34609D01*
G01X49952Y34658D01*
G01X49943Y34707D01*
G01X49932Y34755D01*
G01X49918Y34803D01*
G01X49903Y34850D01*
G01X49886Y34897D01*
G01X49867Y34943D01*
G01X49846Y34988D01*
G01X49824Y35032D01*
G01X49799Y35075D01*
G01X49773Y35118D01*
G01X49745Y35159D01*
G01X49715Y35198D01*
G01X49684Y35237D01*
G01X49651Y35274D01*
G01X49616Y35310D01*
G01X49580Y35345D01*
G01X49543Y35377D01*
G01X49505Y35409D01*
G01X49465Y35438D01*
G01X49424Y35467D01*
G01X49381Y35493D01*
G01X49338Y35517D01*
G01X49294Y35540D01*
G01X49249Y35561D01*
G01X49203Y35580D01*
G01X49156Y35597D01*
G01X49109Y35612D01*
G01X49061Y35626D01*
G01X49013Y35637D01*
G01X48964Y35646D01*
G01X48915Y35653D01*
G01X48865Y35658D01*
G01X48816Y35661D01*
G37*
G36*
G01X57584Y14706D02*
G01X57534Y14707D01*
G01X57484Y14706D01*
G01X57435Y14703D01*
G01X57385Y14698D01*
G01X57336Y14691D01*
G01X57287Y14682D01*
G01X57239Y14671D01*
G01X57191Y14657D01*
G01X57143Y14642D01*
G01X57097Y14625D01*
G01X57051Y14606D01*
G01X57006Y14585D01*
G01X56962Y14563D01*
G01X56918Y14538D01*
G01X56876Y14512D01*
G01X56835Y14484D01*
G01X56795Y14454D01*
G01X56757Y14423D01*
G01X56719Y14390D01*
G01X56684Y14355D01*
G01X56649Y14319D01*
G01X56616Y14282D01*
G01X56585Y14244D01*
G01X56555Y14204D01*
G01X56527Y14163D01*
G01X56501Y14120D01*
G01X56476Y14077D01*
G01X56454Y14033D01*
G01X56433Y13988D01*
G01X56414Y13942D01*
G01X56396Y13895D01*
G01X56381Y13848D01*
G01X56368Y13800D01*
G01X56357Y13752D01*
G01X56348Y13703D01*
G01X56341Y13654D01*
G01X56335Y13604D01*
G01X56332Y13555D01*
G01X56331Y13505D01*
G01X56332Y13455D01*
G01X56335Y13406D01*
G01X56341Y13356D01*
G01X56348Y13307D01*
G01X56357Y13258D01*
G01X56368Y13210D01*
G01X56381Y13162D01*
G01X56396Y13114D01*
G01X56414Y13068D01*
G01X56433Y13022D01*
G01X56454Y12977D01*
G01X56476Y12933D01*
G01X56501Y12889D01*
G01X56527Y12847D01*
G01X56555Y12806D01*
G01X56585Y12766D01*
G01X56616Y12728D01*
G01X56649Y12690D01*
G01X56719Y12620D01*
G01X56757Y12587D01*
G01X56795Y12556D01*
G01X56835Y12526D01*
G01X56876Y12498D01*
G01X56918Y12472D01*
G01X56962Y12447D01*
G01X57006Y12425D01*
G01X57051Y12404D01*
G01X57097Y12385D01*
G01X57143Y12368D01*
G01X57191Y12352D01*
G01X57239Y12339D01*
G01X57287Y12328D01*
G01X57336Y12319D01*
G01X57385Y12312D01*
G01X57435Y12307D01*
G01X57484Y12303D01*
G01X57534Y12302D01*
G01X57584Y12303D01*
G01X57633Y12307D01*
G01X57683Y12312D01*
G01X57732Y12319D01*
G01X57781Y12328D01*
G01X57829Y12339D01*
G01X57877Y12352D01*
G01X57924Y12368D01*
G01X57971Y12385D01*
G01X58017Y12404D01*
G01X58062Y12425D01*
G01X58106Y12447D01*
G01X58149Y12472D01*
G01X58192Y12498D01*
G01X58233Y12526D01*
G01X58272Y12556D01*
G01X58311Y12587D01*
G01X58348Y12620D01*
G01X58384Y12655D01*
G01X58419Y12690D01*
G01X58483Y12766D01*
G01X58513Y12806D01*
G01X58541Y12847D01*
G01X58567Y12889D01*
G01X58591Y12933D01*
G01X58614Y12977D01*
G01X58635Y13022D01*
G01X58654Y13068D01*
G01X58671Y13114D01*
G01X58686Y13162D01*
G01X58700Y13210D01*
G01X58711Y13258D01*
G01X58720Y13307D01*
G01X58727Y13356D01*
G01X58732Y13406D01*
G01X58735Y13455D01*
G01X58736Y13505D01*
G01X58735Y13555D01*
G01X58732Y13604D01*
G01X58727Y13654D01*
G01X58720Y13703D01*
G01X58711Y13752D01*
G01X58700Y13800D01*
G01X58686Y13848D01*
G01X58671Y13895D01*
G01X58654Y13942D01*
G01X58635Y13988D01*
G01X58614Y14033D01*
G01X58591Y14077D01*
G01X58567Y14120D01*
G01X58541Y14163D01*
G01X58513Y14204D01*
G01X58483Y14244D01*
G01X58451Y14282D01*
G01X58419Y14319D01*
G01X58384Y14355D01*
G01X58348Y14390D01*
G01X58311Y14423D01*
G01X58272Y14454D01*
G01X58233Y14484D01*
G01X58192Y14512D01*
G01X58149Y14538D01*
G01X58106Y14563D01*
G01X58062Y14585D01*
G01X58017Y14606D01*
G01X57971Y14625D01*
G01X57924Y14642D01*
G01X57877Y14657D01*
G01X57829Y14671D01*
G01X57781Y14682D01*
G01X57732Y14691D01*
G01X57683Y14698D01*
G01X57633Y14703D01*
G01X57584Y14706D01*
G37*
G36*
G01X57929Y30200D02*
G01X57880Y30201D01*
G01X57830Y30200D01*
G01X57780Y30197D01*
G01X57731Y30192D01*
G01X57682Y30185D01*
G01X57633Y30176D01*
G01X57585Y30165D01*
G01X57537Y30151D01*
G01X57489Y30136D01*
G01X57443Y30119D01*
G01X57397Y30100D01*
G01X57352Y30079D01*
G01X57307Y30056D01*
G01X57264Y30032D01*
G01X57222Y30006D01*
G01X57181Y29977D01*
G01X57141Y29948D01*
G01X57065Y29884D01*
G01X57029Y29849D01*
G01X56995Y29813D01*
G01X56962Y29776D01*
G01X56931Y29737D01*
G01X56901Y29698D01*
G01X56873Y29657D01*
G01X56847Y29614D01*
G01X56822Y29571D01*
G01X56799Y29527D01*
G01X56779Y29482D01*
G01X56760Y29436D01*
G01X56742Y29389D01*
G01X56727Y29342D01*
G01X56714Y29294D01*
G01X56703Y29246D01*
G01X56694Y29197D01*
G01X56687Y29148D01*
G01X56681Y29098D01*
G01X56678Y29048D01*
G01X56677Y28999D01*
G01X56678Y28949D01*
G01X56681Y28899D01*
G01X56687Y28850D01*
G01X56694Y28801D01*
G01X56703Y28752D01*
G01X56714Y28704D01*
G01X56727Y28656D01*
G01X56742Y28608D01*
G01X56760Y28562D01*
G01X56779Y28516D01*
G01X56799Y28471D01*
G01X56822Y28426D01*
G01X56847Y28383D01*
G01X56873Y28341D01*
G01X56901Y28300D01*
G01X56931Y28260D01*
G01X56962Y28222D01*
G01X56995Y28184D01*
G01X57029Y28148D01*
G01X57065Y28114D01*
G01X57103Y28081D01*
G01X57141Y28050D01*
G01X57181Y28020D01*
G01X57222Y27992D01*
G01X57264Y27966D01*
G01X57307Y27941D01*
G01X57352Y27918D01*
G01X57397Y27898D01*
G01X57443Y27879D01*
G01X57489Y27861D01*
G01X57537Y27846D01*
G01X57585Y27833D01*
G01X57633Y27822D01*
G01X57682Y27813D01*
G01X57731Y27806D01*
G01X57780Y27800D01*
G01X57830Y27797D01*
G01X57880Y27796D01*
G01X57929Y27797D01*
G01X57979Y27800D01*
G01X58029Y27806D01*
G01X58078Y27813D01*
G01X58127Y27822D01*
G01X58175Y27833D01*
G01X58223Y27846D01*
G01X58270Y27861D01*
G01X58317Y27879D01*
G01X58363Y27898D01*
G01X58408Y27918D01*
G01X58452Y27941D01*
G01X58495Y27966D01*
G01X58538Y27992D01*
G01X58579Y28020D01*
G01X58618Y28050D01*
G01X58657Y28081D01*
G01X58694Y28114D01*
G01X58730Y28148D01*
G01X58765Y28184D01*
G01X58829Y28260D01*
G01X58858Y28300D01*
G01X58887Y28341D01*
G01X58913Y28383D01*
G01X58937Y28426D01*
G01X58960Y28471D01*
G01X58981Y28516D01*
G01X59000Y28562D01*
G01X59017Y28608D01*
G01X59032Y28656D01*
G01X59046Y28704D01*
G01X59057Y28752D01*
G01X59066Y28801D01*
G01X59073Y28850D01*
G01X59078Y28899D01*
G01X59081Y28949D01*
G01X59082Y28999D01*
G01X59081Y29048D01*
G01X59078Y29098D01*
G01X59073Y29148D01*
G01X59066Y29197D01*
G01X59057Y29246D01*
G01X59046Y29294D01*
G01X59032Y29342D01*
G01X59017Y29389D01*
G01X59000Y29436D01*
G01X58981Y29482D01*
G01X58960Y29527D01*
G01X58937Y29571D01*
G01X58913Y29614D01*
G01X58887Y29657D01*
G01X58858Y29698D01*
G01X58829Y29737D01*
G01X58797Y29776D01*
G01X58765Y29813D01*
G01X58730Y29849D01*
G01X58694Y29884D01*
G01X58657Y29916D01*
G01X58618Y29948D01*
G01X58579Y29977D01*
G01X58538Y30006D01*
G01X58495Y30032D01*
G01X58452Y30056D01*
G01X58408Y30079D01*
G01X58363Y30100D01*
G01X58317Y30119D01*
G01X58270Y30136D01*
G01X58223Y30151D01*
G01X58175Y30165D01*
G01X58127Y30176D01*
G01X58078Y30185D01*
G01X58029Y30192D01*
G01X57979Y30197D01*
G01X57929Y30200D01*
G37*
G36*
G01X20328Y12327D02*
G01X20279Y12329D01*
G01X20230Y12327D01*
G01X20181Y12324D01*
G01X20133Y12319D01*
G01X20084Y12312D01*
G01X20036Y12303D01*
G01X19989Y12291D01*
G01X19942Y12278D01*
G01X19895Y12263D01*
G01X19849Y12245D01*
G01X19804Y12226D01*
G01X19760Y12205D01*
G01X19717Y12182D01*
G01X19675Y12157D01*
G01X19634Y12131D01*
G01X19594Y12103D01*
G01X19555Y12073D01*
G01X19518Y12041D01*
G01X19482Y12008D01*
G01X19447Y11973D01*
G01X19414Y11937D01*
G01X19382Y11900D01*
G01X19353Y11861D01*
G01X19324Y11821D01*
G01X19298Y11780D01*
G01X19273Y11738D01*
G01X19250Y11695D01*
G01X19229Y11651D01*
G01X19210Y11606D01*
G01X19192Y11560D01*
G01X19177Y11513D01*
G01X19164Y11466D01*
G01X19153Y11419D01*
G01X19143Y11371D01*
G01X19136Y11322D01*
G01X19131Y11274D01*
G01X19128Y11225D01*
G01X19127Y11176D01*
G01X19128Y11127D01*
G01X19131Y11078D01*
G01X19136Y11030D01*
G01X19143Y10981D01*
G01X19153Y10933D01*
G01X19164Y10886D01*
G01X19177Y10839D01*
G01X19192Y10792D01*
G01X19210Y10746D01*
G01X19229Y10701D01*
G01X19250Y10657D01*
G01X19273Y10614D01*
G01X19298Y10572D01*
G01X19324Y10531D01*
G01X19353Y10491D01*
G01X19382Y10452D01*
G01X19414Y10415D01*
G01X19447Y10379D01*
G01X19482Y10344D01*
G01X19518Y10311D01*
G01X19555Y10279D01*
G01X19594Y10249D01*
G01X19634Y10221D01*
G01X19675Y10195D01*
G01X19717Y10170D01*
G01X19760Y10147D01*
G01X19804Y10126D01*
G01X19849Y10107D01*
G01X19895Y10089D01*
G01X19942Y10074D01*
G01X19989Y10061D01*
G01X20036Y10049D01*
G01X20084Y10040D01*
G01X20133Y10033D01*
G01X20181Y10028D01*
G01X20230Y10025D01*
G01X20279Y10023D01*
G01X20328Y10025D01*
G01X20377Y10028D01*
G01X20426Y10033D01*
G01X20474Y10040D01*
G01X20522Y10049D01*
G01X20570Y10061D01*
G01X20617Y10074D01*
G01X20663Y10089D01*
G01X20709Y10107D01*
G01X20754Y10126D01*
G01X20798Y10147D01*
G01X20841Y10170D01*
G01X20883Y10195D01*
G01X20925Y10221D01*
G01X20964Y10249D01*
G01X21003Y10279D01*
G01X21041Y10311D01*
G01X21077Y10344D01*
G01X21111Y10379D01*
G01X21144Y10415D01*
G01X21176Y10452D01*
G01X21206Y10491D01*
G01X21234Y10531D01*
G01X21261Y10572D01*
G01X21285Y10614D01*
G01X21308Y10657D01*
G01X21329Y10701D01*
G01X21349Y10746D01*
G01X21366Y10792D01*
G01X21381Y10839D01*
G01X21394Y10886D01*
G01X21406Y10933D01*
G01X21415Y10981D01*
G01X21422Y11030D01*
G01X21428Y11078D01*
G01X21431Y11127D01*
G01X21432Y11176D01*
G01X21431Y11225D01*
G01X21428Y11274D01*
G01X21422Y11322D01*
G01X21415Y11371D01*
G01X21406Y11419D01*
G01X21394Y11466D01*
G01X21381Y11513D01*
G01X21366Y11560D01*
G01X21349Y11606D01*
G01X21329Y11651D01*
G01X21308Y11695D01*
G01X21285Y11738D01*
G01X21261Y11780D01*
G01X21234Y11821D01*
G01X21206Y11861D01*
G01X21176Y11900D01*
G01X21144Y11937D01*
G01X21111Y11973D01*
G01X21077Y12008D01*
G01X21041Y12041D01*
G01X21003Y12073D01*
G01X20964Y12103D01*
G01X20925Y12131D01*
G01X20883Y12157D01*
G01X20841Y12182D01*
G01X20798Y12205D01*
G01X20754Y12226D01*
G01X20709Y12245D01*
G01X20663Y12263D01*
G01X20617Y12278D01*
G01X20570Y12291D01*
G01X20522Y12303D01*
G01X20474Y12312D01*
G01X20426Y12319D01*
G01X20377Y12324D01*
G01X20328Y12327D01*
G37*
G36*
G01X2072Y4537D02*
G01X2029Y4538D01*
G01X1986Y4537D01*
G01X1943Y4534D01*
G01X1900Y4529D01*
G01X1857Y4521D01*
G01X1815Y4512D01*
G01X1774Y4500D01*
G01X1733Y4487D01*
G01X1693Y4471D01*
G01X1653Y4454D01*
G01X1615Y4435D01*
G01X1577Y4413D01*
G01X1541Y4390D01*
G01X1505Y4365D01*
G01X1471Y4339D01*
G01X1439Y4311D01*
G01X1408Y4281D01*
G01X1378Y4250D01*
G01X1350Y4217D01*
G01X1323Y4183D01*
G01X1298Y4148D01*
G01X1275Y4111D01*
G01X1254Y4074D01*
G01X1235Y4035D01*
G01X1217Y3996D01*
G01X1202Y3956D01*
G01X1188Y3915D01*
G01X1177Y3873D01*
G01X1167Y3831D01*
G01X1160Y3789D01*
G01X1154Y3746D01*
G01X1151Y3703D01*
G01X1150Y3660D01*
G01X1151Y3617D01*
G01X1154Y3574D01*
G01X1160Y3531D01*
G01X1167Y3488D01*
G01X1177Y3446D01*
G01X1188Y3405D01*
G01X1202Y3364D01*
G01X1217Y3324D01*
G01X1235Y3284D01*
G01X1254Y3246D01*
G01X1275Y3208D01*
G01X1298Y3172D01*
G01X1323Y3136D01*
G01X1350Y3102D01*
G01X1378Y3070D01*
G01X1408Y3039D01*
G01X1439Y3009D01*
G01X1471Y2981D01*
G01X1505Y2954D01*
G01X1541Y2929D01*
G01X1577Y2906D01*
G01X1615Y2885D01*
G01X1653Y2866D01*
G01X1693Y2848D01*
G01X1733Y2833D01*
G01X1774Y2819D01*
G01X1815Y2808D01*
G01X1857Y2798D01*
G01X1900Y2791D01*
G01X1943Y2785D01*
G01X1986Y2782D01*
G01X2029Y2781D01*
G01X2072Y2782D01*
G01X2115Y2785D01*
G01X2158Y2791D01*
G01X2200Y2798D01*
G01X2242Y2808D01*
G01X2284Y2819D01*
G01X2325Y2833D01*
G01X2365Y2848D01*
G01X2404Y2866D01*
G01X2443Y2885D01*
G01X2480Y2906D01*
G01X2517Y2929D01*
G01X2552Y2954D01*
G01X2586Y2981D01*
G01X2619Y3009D01*
G01X2650Y3039D01*
G01X2680Y3070D01*
G01X2708Y3102D01*
G01X2734Y3136D01*
G01X2759Y3172D01*
G01X2782Y3208D01*
G01X2804Y3246D01*
G01X2823Y3284D01*
G01X2840Y3324D01*
G01X2856Y3364D01*
G01X2869Y3405D01*
G01X2881Y3446D01*
G01X2890Y3488D01*
G01X2898Y3531D01*
G01X2903Y3574D01*
G01X2906Y3617D01*
G01X2907Y3660D01*
G01X2906Y3703D01*
G01X2903Y3746D01*
G01X2898Y3789D01*
G01X2890Y3831D01*
G01X2881Y3873D01*
G01X2869Y3915D01*
G01X2856Y3956D01*
G01X2840Y3996D01*
G01X2823Y4035D01*
G01X2804Y4074D01*
G01X2782Y4111D01*
G01X2759Y4148D01*
G01X2734Y4183D01*
G01X2708Y4217D01*
G01X2680Y4250D01*
G01X2650Y4281D01*
G01X2619Y4311D01*
G01X2586Y4339D01*
G01X2552Y4365D01*
G01X2517Y4390D01*
G01X2480Y4413D01*
G01X2443Y4435D01*
G01X2404Y4454D01*
G01X2365Y4471D01*
G01X2325Y4487D01*
G01X2284Y4500D01*
G01X2242Y4512D01*
G01X2200Y4521D01*
G01X2158Y4529D01*
G01X2115Y4534D01*
G01X2072Y4537D01*
G37*
G36*
G01X61372Y43037D02*
G01X61329Y43038D01*
G01X61286Y43037D01*
G01X61243Y43034D01*
G01X61200Y43029D01*
G01X61157Y43021D01*
G01X61115Y43012D01*
G01X61074Y43001D01*
G01X61033Y42987D01*
G01X60993Y42971D01*
G01X60953Y42954D01*
G01X60915Y42935D01*
G01X60877Y42913D01*
G01X60841Y42890D01*
G01X60806Y42865D01*
G01X60772Y42839D01*
G01X60739Y42811D01*
G01X60708Y42781D01*
G01X60678Y42750D01*
G01X60650Y42717D01*
G01X60623Y42683D01*
G01X60598Y42648D01*
G01X60575Y42611D01*
G01X60554Y42574D01*
G01X60535Y42535D01*
G01X60517Y42496D01*
G01X60502Y42456D01*
G01X60488Y42415D01*
G01X60477Y42373D01*
G01X60467Y42331D01*
G01X60460Y42289D01*
G01X60455Y42246D01*
G01X60451Y42203D01*
G01X60450Y42160D01*
G01X60451Y42117D01*
G01X60455Y42074D01*
G01X60460Y42031D01*
G01X60467Y41988D01*
G01X60477Y41946D01*
G01X60488Y41905D01*
G01X60502Y41864D01*
G01X60517Y41824D01*
G01X60535Y41784D01*
G01X60554Y41746D01*
G01X60575Y41708D01*
G01X60598Y41672D01*
G01X60623Y41637D01*
G01X60650Y41602D01*
G01X60678Y41570D01*
G01X60708Y41539D01*
G01X60739Y41509D01*
G01X60772Y41481D01*
G01X60806Y41454D01*
G01X60841Y41429D01*
G01X60877Y41406D01*
G01X60915Y41385D01*
G01X60953Y41366D01*
G01X60993Y41348D01*
G01X61033Y41333D01*
G01X61074Y41319D01*
G01X61115Y41308D01*
G01X61157Y41298D01*
G01X61200Y41291D01*
G01X61243Y41286D01*
G01X61286Y41282D01*
G01X61329Y41281D01*
G01X61372Y41282D01*
G01X61415Y41286D01*
G01X61458Y41291D01*
G01X61500Y41298D01*
G01X61542Y41308D01*
G01X61584Y41319D01*
G01X61625Y41333D01*
G01X61665Y41348D01*
G01X61704Y41366D01*
G01X61743Y41385D01*
G01X61781Y41406D01*
G01X61817Y41429D01*
G01X61852Y41454D01*
G01X61886Y41481D01*
G01X61919Y41509D01*
G01X61950Y41539D01*
G01X61980Y41570D01*
G01X62008Y41602D01*
G01X62035Y41637D01*
G01X62059Y41672D01*
G01X62082Y41708D01*
G01X62104Y41746D01*
G01X62123Y41784D01*
G01X62140Y41824D01*
G01X62156Y41864D01*
G01X62170Y41905D01*
G01X62181Y41946D01*
G01X62190Y41988D01*
G01X62198Y42031D01*
G01X62203Y42074D01*
G01X62206Y42117D01*
G01X62207Y42160D01*
G01X62206Y42203D01*
G01X62203Y42246D01*
G01X62198Y42289D01*
G01X62190Y42331D01*
G01X62181Y42373D01*
G01X62170Y42415D01*
G01X62156Y42456D01*
G01X62140Y42496D01*
G01X62123Y42535D01*
G01X62104Y42574D01*
G01X62082Y42611D01*
G01X62059Y42648D01*
G01X62035Y42683D01*
G01X62008Y42717D01*
G01X61980Y42750D01*
G01X61950Y42781D01*
G01X61919Y42811D01*
G01X61886Y42839D01*
G01X61852Y42865D01*
G01X61817Y42890D01*
G01X61781Y42913D01*
G01X61743Y42935D01*
G01X61704Y42954D01*
G01X61665Y42971D01*
G01X61625Y42987D01*
G01X61584Y43001D01*
G01X61542Y43012D01*
G01X61500Y43021D01*
G01X61458Y43029D01*
G01X61415Y43034D01*
G01X61372Y43037D01*
G37*
G36*
G01X22331Y12329D02*
G01X21969Y12329D01*
G01X21944Y12327D01*
G01X21919Y12324D01*
G01X21895Y12319D01*
G01X21871Y12312D01*
G01X21848Y12303D01*
G01X21825Y12292D01*
G01X21804Y12279D01*
G01X21783Y12265D01*
G01X21764Y12249D01*
G01X21747Y12231D01*
G01X21730Y12212D01*
G01X21716Y12191D01*
G01X21703Y12170D01*
G01X21692Y12148D01*
G01X21683Y12124D01*
G01X21676Y12100D01*
G01X21671Y12076D01*
G01X21668Y12051D01*
G01X21667Y12026D01*
G01X21667Y11665D01*
G01X22331Y11665D01*
G01X22331Y12329D01*
G37*
G36*
G01X22331Y10687D02*
G01X21667Y10687D01*
G01X21667Y10326D01*
G01X21668Y10301D01*
G01X21671Y10276D01*
G01X21676Y10252D01*
G01X21683Y10228D01*
G01X21692Y10204D01*
G01X21703Y10182D01*
G01X21716Y10161D01*
G01X21730Y10140D01*
G01X21747Y10121D01*
G01X21764Y10103D01*
G01X21783Y10087D01*
G01X21804Y10073D01*
G01X21825Y10060D01*
G01X21848Y10049D01*
G01X21871Y10040D01*
G01X21895Y10033D01*
G01X21919Y10028D01*
G01X21944Y10025D01*
G01X21969Y10023D01*
G01X22331Y10023D01*
G01X22331Y10687D01*
G37*
G36*
G01X23669Y12329D02*
G01X23308Y12329D01*
G01X23308Y11665D01*
G01X23972Y11665D01*
G01X23972Y12026D01*
G01X23971Y12051D01*
G01X23968Y12076D01*
G01X23962Y12100D01*
G01X23955Y12124D01*
G01X23946Y12148D01*
G01X23935Y12170D01*
G01X23922Y12191D01*
G01X23908Y12212D01*
G01X23892Y12231D01*
G01X23874Y12249D01*
G01X23855Y12265D01*
G01X23835Y12279D01*
G01X23813Y12292D01*
G01X23791Y12303D01*
G01X23767Y12312D01*
G01X23743Y12319D01*
G01X23719Y12324D01*
G01X23694Y12327D01*
G01X23669Y12329D01*
G37*
G36*
G01X23972Y10687D02*
G01X23308Y10687D01*
G01X23308Y10023D01*
G01X23669Y10023D01*
G01X23694Y10025D01*
G01X23719Y10028D01*
G01X23743Y10033D01*
G01X23767Y10040D01*
G01X23791Y10049D01*
G01X23813Y10060D01*
G01X23835Y10073D01*
G01X23855Y10087D01*
G01X23874Y10103D01*
G01X23892Y10121D01*
G01X23908Y10140D01*
G01X23922Y10161D01*
G01X23935Y10182D01*
G01X23946Y10204D01*
G01X23955Y10228D01*
G01X23962Y10252D01*
G01X23968Y10276D01*
G01X23971Y10301D01*
G01X23972Y10326D01*
G01X23972Y10687D01*
G37*
G36*
G01X58621Y7911D02*
G01X58047Y7911D01*
G01X58047Y7338D01*
G01X58094Y7361D01*
G01X58139Y7386D01*
G01X58183Y7413D01*
G01X58226Y7442D01*
G01X58268Y7472D01*
G01X58308Y7505D01*
G01X58347Y7539D01*
G01X58384Y7575D01*
G01X58420Y7612D01*
G01X58454Y7651D01*
G01X58487Y7691D01*
G01X58517Y7733D01*
G01X58546Y7776D01*
G01X58573Y7820D01*
G01X58598Y7865D01*
G01X58621Y7911D01*
G37*
G36*
G01X57020Y8938D02*
G01X57020Y9512D01*
G01X56974Y9489D01*
G01X56929Y9464D01*
G01X56885Y9437D01*
G01X56842Y9408D01*
G01X56800Y9378D01*
G01X56760Y9345D01*
G01X56721Y9311D01*
G01X56684Y9275D01*
G01X56648Y9238D01*
G01X56614Y9199D01*
G01X56581Y9159D01*
G01X56550Y9117D01*
G01X56522Y9074D01*
G01X56495Y9030D01*
G01X56470Y8985D01*
G01X56447Y8938D01*
G01X57020Y8938D01*
G37*
G36*
G01X57020Y7911D02*
G01X56447Y7911D01*
G01X56470Y7865D01*
G01X56495Y7820D01*
G01X56522Y7776D01*
G01X56550Y7733D01*
G01X56581Y7691D01*
G01X56614Y7651D01*
G01X56648Y7612D01*
G01X56684Y7575D01*
G01X56721Y7539D01*
G01X56760Y7505D01*
G01X56800Y7472D01*
G01X56842Y7442D01*
G01X56885Y7413D01*
G01X56929Y7386D01*
G01X56974Y7361D01*
G01X57020Y7338D01*
G01X57020Y7911D01*
G37*
G36*
G01X58094Y9489D02*
G01X58047Y9512D01*
G01X58047Y8938D01*
G01X58621Y8938D01*
G01X58598Y8985D01*
G01X58573Y9030D01*
G01X58546Y9074D01*
G01X58517Y9117D01*
G01X58487Y9159D01*
G01X58454Y9199D01*
G01X58420Y9238D01*
G01X58384Y9275D01*
G01X58347Y9311D01*
G01X58308Y9345D01*
G01X58268Y9378D01*
G01X58226Y9408D01*
G01X58183Y9437D01*
G01X58139Y9464D01*
G01X58094Y9489D01*
G37*
G36*
G01X47313Y33946D02*
G01X46739Y33946D01*
G01X46739Y33372D01*
G01X46786Y33396D01*
G01X46831Y33421D01*
G01X46875Y33448D01*
G01X46918Y33476D01*
G01X46960Y33507D01*
G01X47000Y33540D01*
G01X47039Y33574D01*
G01X47076Y33609D01*
G01X47112Y33647D01*
G01X47146Y33686D01*
G01X47179Y33726D01*
G01X47209Y33768D01*
G01X47238Y33811D01*
G01X47265Y33855D01*
G01X47290Y33900D01*
G01X47313Y33946D01*
G37*
G36*
G01X46786Y35524D02*
G01X46739Y35547D01*
G01X46739Y34973D01*
G01X47313Y34973D01*
G01X47290Y35020D01*
G01X47265Y35065D01*
G01X47238Y35109D01*
G01X47209Y35152D01*
G01X47179Y35194D01*
G01X47146Y35234D01*
G01X47112Y35273D01*
G01X47076Y35310D01*
G01X47039Y35346D01*
G01X47000Y35380D01*
G01X46960Y35412D01*
G01X46918Y35443D01*
G01X46875Y35472D01*
G01X46831Y35499D01*
G01X46786Y35524D01*
G37*
G36*
G01X23489Y40815D02*
G01X23489Y41389D01*
G01X23443Y41366D01*
G01X23398Y41341D01*
G01X23354Y41314D01*
G01X23311Y41285D01*
G01X23269Y41254D01*
G01X23229Y41222D01*
G01X23190Y41188D01*
G01X23152Y41152D01*
G01X23117Y41115D01*
G01X23083Y41076D01*
G01X23050Y41036D01*
G01X23019Y40994D01*
G01X22991Y40951D01*
G01X22964Y40907D01*
G01X22939Y40862D01*
G01X22915Y40815D01*
G01X23489Y40815D01*
G37*
G36*
G01X45712Y34973D02*
G01X45712Y35547D01*
G01X45666Y35524D01*
G01X45621Y35499D01*
G01X45577Y35472D01*
G01X45534Y35443D01*
G01X45492Y35412D01*
G01X45452Y35380D01*
G01X45413Y35346D01*
G01X45376Y35310D01*
G01X45340Y35273D01*
G01X45306Y35234D01*
G01X45273Y35194D01*
G01X45243Y35152D01*
G01X45214Y35109D01*
G01X45187Y35065D01*
G01X45162Y35020D01*
G01X45139Y34973D01*
G01X45712Y34973D01*
G37*
G36*
G01X40801Y41540D02*
G01X40801Y42114D01*
G01X40755Y42091D01*
G01X40710Y42066D01*
G01X40666Y42039D01*
G01X40623Y42010D01*
G01X40581Y41980D01*
G01X40541Y41947D01*
G01X40502Y41913D01*
G01X40464Y41877D01*
G01X40429Y41840D01*
G01X40395Y41801D01*
G01X40362Y41761D01*
G01X40331Y41719D01*
G01X40303Y41676D01*
G01X40276Y41632D01*
G01X40251Y41587D01*
G01X40227Y41540D01*
G01X40801Y41540D01*
G37*
G36*
G01X24563Y41366D02*
G01X24516Y41389D01*
G01X24516Y40815D01*
G01X25090Y40815D01*
G01X25067Y40862D01*
G01X25042Y40907D01*
G01X25015Y40951D01*
G01X24986Y40994D01*
G01X24955Y41036D01*
G01X24923Y41076D01*
G01X24889Y41115D01*
G01X24853Y41152D01*
G01X24816Y41188D01*
G01X24777Y41222D01*
G01X24737Y41254D01*
G01X24695Y41285D01*
G01X24652Y41314D01*
G01X24608Y41341D01*
G01X24563Y41366D01*
G37*
G36*
G01X40801Y40513D02*
G01X40227Y40513D01*
G01X40251Y40467D01*
G01X40276Y40422D01*
G01X40303Y40378D01*
G01X40331Y40335D01*
G01X40362Y40293D01*
G01X40395Y40253D01*
G01X40429Y40214D01*
G01X40464Y40177D01*
G01X40502Y40141D01*
G01X40541Y40107D01*
G01X40581Y40074D01*
G01X40623Y40043D01*
G01X40666Y40015D01*
G01X40710Y39988D01*
G01X40755Y39963D01*
G01X40801Y39939D01*
G01X40801Y40513D01*
G37*
G36*
G01X41875Y42091D02*
G01X41828Y42114D01*
G01X41828Y41540D01*
G01X42402Y41540D01*
G01X42379Y41587D01*
G01X42354Y41632D01*
G01X42327Y41676D01*
G01X42298Y41719D01*
G01X42267Y41761D01*
G01X42235Y41801D01*
G01X42201Y41840D01*
G01X42165Y41877D01*
G01X42128Y41913D01*
G01X42089Y41947D01*
G01X42049Y41980D01*
G01X42007Y42010D01*
G01X41964Y42039D01*
G01X41920Y42066D01*
G01X41875Y42091D01*
G37*
G36*
G01X51342Y41540D02*
G01X51342Y42114D01*
G01X51296Y42091D01*
G01X51251Y42066D01*
G01X51207Y42039D01*
G01X51164Y42010D01*
G01X51122Y41980D01*
G01X51082Y41947D01*
G01X51043Y41913D01*
G01X51005Y41877D01*
G01X50970Y41840D01*
G01X50936Y41801D01*
G01X50903Y41761D01*
G01X50872Y41719D01*
G01X50844Y41676D01*
G01X50817Y41632D01*
G01X50792Y41587D01*
G01X50768Y41540D01*
G01X51342Y41540D01*
G37*
G36*
G01X52943Y40513D02*
G01X52369Y40513D01*
G01X52369Y39939D01*
G01X52416Y39963D01*
G01X52461Y39988D01*
G01X52505Y40015D01*
G01X52548Y40043D01*
G01X52590Y40074D01*
G01X52630Y40107D01*
G01X52669Y40141D01*
G01X52706Y40177D01*
G01X52742Y40214D01*
G01X52776Y40253D01*
G01X52808Y40293D01*
G01X52839Y40335D01*
G01X52868Y40378D01*
G01X52895Y40422D01*
G01X52920Y40467D01*
G01X52943Y40513D01*
G37*
G36*
G01X52416Y42091D02*
G01X52369Y42114D01*
G01X52369Y41540D01*
G01X52943Y41540D01*
G01X52920Y41587D01*
G01X52895Y41632D01*
G01X52868Y41676D01*
G01X52839Y41719D01*
G01X52808Y41761D01*
G01X52776Y41801D01*
G01X52742Y41840D01*
G01X52706Y41877D01*
G01X52669Y41913D01*
G01X52630Y41947D01*
G01X52590Y41980D01*
G01X52548Y42010D01*
G01X52505Y42039D01*
G01X52461Y42066D01*
G01X52416Y42091D01*
G37*
G36*
G01X42402Y40513D02*
G01X41828Y40513D01*
G01X41828Y39939D01*
G01X41875Y39963D01*
G01X41920Y39988D01*
G01X41964Y40015D01*
G01X42007Y40043D01*
G01X42049Y40074D01*
G01X42089Y40107D01*
G01X42128Y40141D01*
G01X42165Y40177D01*
G01X42201Y40214D01*
G01X42235Y40253D01*
G01X42267Y40293D01*
G01X42298Y40335D01*
G01X42327Y40378D01*
G01X42354Y40422D01*
G01X42379Y40467D01*
G01X42402Y40513D01*
G37*
G36*
G01X51342Y40513D02*
G01X50768Y40513D01*
G01X50792Y40467D01*
G01X50817Y40422D01*
G01X50844Y40378D01*
G01X50872Y40335D01*
G01X50903Y40293D01*
G01X50936Y40253D01*
G01X50970Y40214D01*
G01X51005Y40177D01*
G01X51043Y40141D01*
G01X51082Y40107D01*
G01X51122Y40074D01*
G01X51164Y40043D01*
G01X51207Y40015D01*
G01X51251Y39988D01*
G01X51296Y39963D01*
G01X51342Y39939D01*
G01X51342Y40513D01*
G37*
G36*
G01X42520Y10451D02*
G01X41946Y10451D01*
G01X41969Y10405D01*
G01X41995Y10360D01*
G01X42022Y10316D01*
G01X42050Y10273D01*
G01X42081Y10231D01*
G01X42114Y10191D01*
G01X42148Y10152D01*
G01X42183Y10115D01*
G01X42221Y10079D01*
G01X42260Y10045D01*
G01X42300Y10012D01*
G01X42342Y9982D01*
G01X42385Y9953D01*
G01X42429Y9926D01*
G01X42474Y9901D01*
G01X42520Y9878D01*
G01X42520Y10451D01*
G37*
G36*
G01X42520Y11478D02*
G01X42520Y12052D01*
G01X42474Y12029D01*
G01X42429Y12004D01*
G01X42385Y11977D01*
G01X42342Y11948D01*
G01X42300Y11918D01*
G01X42260Y11885D01*
G01X42221Y11851D01*
G01X42183Y11815D01*
G01X42148Y11778D01*
G01X42114Y11739D01*
G01X42081Y11699D01*
G01X42050Y11657D01*
G01X42022Y11614D01*
G01X41995Y11570D01*
G01X41969Y11525D01*
G01X41946Y11478D01*
G01X42520Y11478D01*
G37*
G36*
G01X44121Y10451D02*
G01X43547Y10451D01*
G01X43547Y9878D01*
G01X43594Y9901D01*
G01X43639Y9926D01*
G01X43683Y9953D01*
G01X43726Y9982D01*
G01X43768Y10012D01*
G01X43808Y10045D01*
G01X43847Y10079D01*
G01X43884Y10115D01*
G01X43920Y10152D01*
G01X43954Y10191D01*
G01X43986Y10231D01*
G01X44017Y10273D01*
G01X44046Y10316D01*
G01X44073Y10360D01*
G01X44098Y10405D01*
G01X44121Y10451D01*
G37*
G36*
G01X43594Y12029D02*
G01X43547Y12052D01*
G01X43547Y11478D01*
G01X44121Y11478D01*
G01X44098Y11525D01*
G01X44073Y11570D01*
G01X44046Y11614D01*
G01X44017Y11657D01*
G01X43986Y11699D01*
G01X43954Y11739D01*
G01X43920Y11778D01*
G01X43884Y11815D01*
G01X43847Y11851D01*
G01X43808Y11885D01*
G01X43768Y11918D01*
G01X43726Y11948D01*
G01X43683Y11977D01*
G01X43639Y12004D01*
G01X43594Y12029D01*
G37*

%LPD*%
G54D12*
G01X17739Y11676D02*
G01X17739Y14892D01*
G01X23546Y20701D01*
G01X49548Y20701D01*
G01X50848Y22001D01*
G01X27648Y33299D02*
G01X28046Y32900D01*
G01X42646Y32900D01*
G01X44148Y31399D01*
G01X44148Y26200D01*
G01X13843Y40302D02*
G01X12047Y38506D01*
G01X12047Y35200D01*
G01X15347Y31900D01*
G01X39747Y31900D01*
G01X10047Y5400D02*
G01X10047Y7500D01*
G01X11547Y9000D01*
G01X24747Y9000D01*
G01X28347Y12600D01*
G01X28347Y18400D01*
G01X29647Y19700D01*
G01X58547Y19700D01*
G01X60147Y21300D01*
G01X60147Y33479D01*
G01X58086Y35540D01*
G01X43686Y34460D02*
G01X49847Y28299D01*
G01X49847Y23400D01*
G01X48447Y22000D01*
G01X22847Y22000D01*
G01X15200Y14353D01*
G01X15200Y11675D01*
G01X50847Y22000D02*
G01X50847Y30000D01*
G01X48647Y32200D01*
G01X29747Y38500D02*
G01X32947Y35300D01*
G01X38547Y35300D01*
G01X40447Y37200D01*
G01X54747Y37200D01*
G01X55546Y36401D01*
G01X55546Y35540D01*
G01X16383Y37762D02*
G01X17660Y39039D01*
G01X25108Y39039D01*
G01X27648Y36499D01*
G01X27648Y33299D01*
G01X19146Y22100D02*
G01X20046Y23000D01*
G01X34047Y23000D01*
G54D11*
G01X8347Y27300D02*
G01X13447Y27300D01*
G01X13447Y27400D01*
G01X23337Y24500D02*
G01X24147Y24500D01*
G01X13447Y27400D02*
G01X17447Y27400D01*
G01X20347Y24500D01*
G01X23337Y24500D01*
G01X24147Y24500D02*
G01X42547Y24500D01*
G01X43847Y23200D01*
G54D22*
G01X22819Y11176D03*
G54D23*
G01X20279Y11176D03*
G01X17739Y11176D03*
G01X15199Y11176D03*
G54D24*
G01X24003Y37762D03*
G01X24003Y40302D03*
G01X21463Y37762D03*
G01X21463Y40302D03*
G01X18923Y37762D03*
G01X18923Y40302D03*
G01X16383Y37762D03*
G01X16383Y40302D03*
G01X13843Y37762D03*
G36*
G01X12943Y39402D02*
G01X14743Y39402D01*
G01X14743Y41202D01*
G01X12943Y41202D01*
G01X12943Y39402D01*
G37*
G36*
G01X40246Y33560D02*
G01X42046Y33560D01*
G01X42046Y35360D01*
G01X40246Y35360D01*
G01X40246Y33560D01*
G37*
G01X43686Y34460D03*
G01X46226Y34460D03*
G01X48766Y34460D03*
G36*
G01X45415Y40127D02*
G01X47215Y40127D01*
G01X47215Y41927D01*
G01X45415Y41927D01*
G01X45415Y40127D01*
G37*
G01X43815Y41027D03*
G01X41315Y41027D03*
G36*
G01X55956Y40127D02*
G01X57756Y40127D01*
G01X57756Y41927D01*
G01X55956Y41927D01*
G01X55956Y40127D01*
G37*
G01X54356Y41027D03*
G01X51856Y41027D03*
G01X57880Y28999D03*
G01X53880Y28999D03*
G01X53006Y35540D03*
G01X55546Y35540D03*
G36*
G01X58873Y36440D02*
G01X57299Y36440D01*
G01X57299Y34640D01*
G01X58873Y34640D01*
G01X58873Y36440D01*
G37*
G01X43034Y13505D03*
G01X43034Y10965D03*
G01X43034Y8425D03*
G01X57534Y13505D03*
G01X57534Y8425D03*
G54D13*
G01X27647Y33300D03*
G01X44147Y26200D03*
G01X39747Y31900D03*
G01X10047Y5400D03*
G01X48647Y32200D03*
G01X29747Y38500D03*
G01X19146Y22100D03*
G01X34047Y23000D03*
G01X8347Y27300D03*
G01X13447Y27400D03*
G01X24147Y24500D03*
G01X43847Y23200D03*
G01X25951Y40586D03*
G01X26951Y39586D03*
G01X12861Y25366D03*
G01X13861Y25366D03*
G01X13861Y24366D03*
G01X14861Y29366D03*
G01X14861Y25366D03*
G01X14861Y24366D03*
G01X14861Y23366D03*
G01X15861Y30366D03*
G01X15861Y29366D03*
G01X15861Y25366D03*
G01X15861Y24366D03*
G01X15861Y22366D03*
G01X16861Y30366D03*
G01X16861Y29366D03*
G01X16861Y25366D03*
G01X16861Y24366D03*
G01X16861Y22366D03*
G01X17861Y30366D03*
G01X17861Y29366D03*
G01X17861Y24366D03*
G01X20861Y30366D03*
G01X20861Y29366D03*
G01X20861Y26366D03*
G01X21861Y30366D03*
G01X21861Y29366D03*
G01X1064Y6904D03*
G01X1064Y5904D03*
G01X2064Y34904D03*
G01X2064Y33904D03*
G01X2064Y32904D03*
G01X2064Y31904D03*
G01X2064Y30904D03*
G01X2064Y29904D03*
G01X2064Y28904D03*
G01X2064Y27904D03*
G01X2064Y26904D03*
G01X2064Y25904D03*
G01X2064Y24904D03*
G01X2064Y23904D03*
G01X2064Y22904D03*
G01X2064Y21904D03*
G01X2064Y20904D03*
G01X2064Y19904D03*
G01X2064Y18904D03*
G01X2064Y17904D03*
G01X2064Y16904D03*
G01X2064Y6904D03*
G01X2064Y5904D03*
G01X3064Y34904D03*
G01X3064Y33904D03*
G01X3064Y32904D03*
G01X3064Y31904D03*
G01X3064Y30904D03*
G01X3064Y29904D03*
G01X3064Y28904D03*
G01X3064Y27904D03*
G01X3064Y26904D03*
G01X3064Y25904D03*
G01X3064Y24904D03*
G01X3064Y23904D03*
G01X3064Y22904D03*
G01X3064Y21904D03*
G01X3064Y19904D03*
G01X3064Y18904D03*
G01X3064Y17904D03*
G01X3064Y16904D03*
G01X3064Y5904D03*
G01X4064Y34904D03*
G01X4064Y33904D03*
G01X4064Y32904D03*
G01X4064Y31904D03*
G01X4064Y5904D03*
G01X4064Y4904D03*
G01X4064Y3904D03*
G01X4064Y2904D03*
G01X5064Y34904D03*
G01X5064Y33904D03*
G01X5064Y32904D03*
G01X5064Y31904D03*
G01X5064Y30904D03*
G01X5064Y29904D03*
G01X5064Y28904D03*
G01X5064Y27904D03*
G01X5064Y26904D03*
G01X5064Y25904D03*
G01X5064Y24904D03*
G01X5064Y23904D03*
G01X5064Y22904D03*
G01X5064Y21904D03*
G01X5064Y19904D03*
G01X5064Y18904D03*
G01X5064Y17904D03*
G01X5064Y16904D03*
G01X5064Y6904D03*
G01X5064Y5904D03*
G01X5064Y4904D03*
G01X5064Y3904D03*
G01X5064Y2904D03*
G01X6064Y35904D03*
G01X6064Y34904D03*
G01X6064Y33904D03*
G01X6064Y32904D03*
G01X6064Y31904D03*
G01X6064Y30904D03*
G01X6064Y29904D03*
G01X6064Y28904D03*
G01X6064Y27904D03*
G01X6064Y26904D03*
G01X6064Y25904D03*
G01X6064Y24904D03*
G01X6064Y23904D03*
G01X6064Y22904D03*
G01X6064Y18904D03*
G01X6064Y17904D03*
G01X6064Y16904D03*
G01X7064Y35904D03*
G01X7064Y34904D03*
G01X7064Y33904D03*
G01X7064Y29904D03*
G01X7064Y28904D03*
G01X7064Y27904D03*
G01X7064Y26904D03*
G01X7064Y25904D03*
G01X7064Y24904D03*
G01X7064Y18904D03*
G01X7064Y17904D03*
G01X7064Y16904D03*
G01X7064Y15904D03*
G01X8064Y25904D03*
G01X8064Y19904D03*
G01X8064Y18904D03*
G01X8064Y17904D03*
G01X8064Y16904D03*
G01X8064Y15904D03*
G01X8064Y14904D03*
G01X9064Y41904D03*
G01X9064Y40904D03*
G01X9064Y39904D03*
G01X9064Y38904D03*
G01X9064Y25904D03*
G01X9064Y24904D03*
G01X9064Y19904D03*
G01X9064Y18904D03*
G01X9064Y17904D03*
G01X9064Y16904D03*
G01X9064Y15904D03*
G01X9064Y14904D03*
G01X9064Y13904D03*
G01X9064Y12904D03*
G01X9064Y11904D03*
G01X9064Y10904D03*
G01X9064Y9904D03*
G01X10064Y34904D03*
G01X10064Y33904D03*
G01X10064Y22904D03*
G01X10064Y19904D03*
G01X10064Y18904D03*
G01X10064Y17904D03*
G01X10064Y16904D03*
G01X10064Y15904D03*
G01X10064Y14904D03*
G01X10064Y13904D03*
G01X10064Y12904D03*
G01X10064Y11904D03*
G01X10064Y10904D03*
G01X10064Y9904D03*
G01X11064Y36904D03*
G01X11064Y34904D03*
G01X11064Y33904D03*
G01X11064Y32904D03*
G01X11064Y21904D03*
G01X11064Y19904D03*
G01X11064Y18904D03*
G01X11064Y17904D03*
G01X11064Y16904D03*
G01X11064Y15904D03*
G01X11064Y14904D03*
G01X11064Y13904D03*
G01X11064Y12904D03*
G01X11064Y11904D03*
G01X11064Y10904D03*
G01X11064Y9904D03*
G01X12064Y19904D03*
G01X12064Y18904D03*
G01X12064Y17904D03*
G01X12064Y16904D03*
G01X12064Y15904D03*
G01X12064Y14904D03*
G01X12064Y13904D03*
G01X12064Y12904D03*
G01X12064Y11904D03*
G01X12064Y10904D03*
G01X13064Y19904D03*
G01X13064Y18904D03*
G01X13064Y17904D03*
G01X13064Y16904D03*
G01X13064Y15904D03*
G01X13064Y14904D03*
G01X13064Y13904D03*
G01X13064Y12904D03*
G01X13064Y11904D03*
G01X13064Y10904D03*
G01X14064Y18904D03*
G01X14064Y17904D03*
G01X14064Y16904D03*
G01X14064Y15904D03*
G01X14064Y14904D03*
G01X24064Y15904D03*
G01X24064Y14904D03*
G01X25064Y16904D03*
G01X25064Y15904D03*
G01X25064Y14904D03*
G01X25064Y13904D03*
G01X25064Y12904D03*
G01X25064Y11904D03*
G01X26064Y16904D03*
G01X26064Y15904D03*
G01X26064Y14904D03*
G01X26064Y13904D03*
G01X26064Y12904D03*
G01X26064Y11904D03*
G01X27064Y16904D03*
G01X27064Y15904D03*
G01X27064Y14904D03*
G01X27064Y13904D03*
G01X27064Y12904D03*
G01X27064Y9904D03*
G01X28064Y30904D03*
G01X28064Y29904D03*
G01X28064Y28904D03*
G01X28064Y10904D03*
G01X28064Y9904D03*
G01X29064Y33904D03*
G01X29064Y30904D03*
G01X29064Y29904D03*
G01X29064Y28904D03*
G01X29064Y27904D03*
G01X29064Y26904D03*
G01X29064Y11904D03*
G01X29064Y10904D03*
G01X29064Y9904D03*
G01X30064Y33904D03*
G01X30064Y30904D03*
G01X30064Y29904D03*
G01X30064Y28904D03*
G01X30064Y27904D03*
G01X30064Y26904D03*
G01X30064Y16904D03*
G01X30064Y15904D03*
G01X30064Y14904D03*
G01X31064Y33904D03*
G01X31064Y30904D03*
G01X31064Y29904D03*
G01X31064Y28904D03*
G01X31064Y27904D03*
G01X31064Y26904D03*
G01X31064Y17904D03*
G01X31064Y16904D03*
G01X31064Y15904D03*
G01X32064Y33904D03*
G01X32064Y30904D03*
G01X32064Y29904D03*
G01X32064Y28904D03*
G01X32064Y27904D03*
G01X32064Y26904D03*
G01X32064Y25904D03*
G01X32064Y17904D03*
G01X32064Y16904D03*
G01X32447Y3400D03*
G01X32447Y2400D03*
G01X33064Y33904D03*
G01X33064Y30904D03*
G01X33064Y29904D03*
G01X33064Y28904D03*
G01X33064Y27904D03*
G01X33064Y26904D03*
G01X33064Y25904D03*
G01X33064Y17904D03*
G01X33064Y16904D03*
G01X33064Y2904D03*
G01X34064Y33904D03*
G01X34064Y30904D03*
G01X34064Y29904D03*
G01X34064Y28904D03*
G01X34064Y27904D03*
G01X34064Y26904D03*
G01X34064Y25904D03*
G01X34064Y17904D03*
G01X34064Y16904D03*
G01X34064Y3904D03*
G01X35064Y33904D03*
G01X35064Y30904D03*
G01X35064Y29904D03*
G01X35064Y28904D03*
G01X35064Y27904D03*
G01X35064Y26904D03*
G01X35064Y25904D03*
G01X35064Y16904D03*
G01X35064Y3904D03*
G01X36064Y17904D03*
G01X36064Y3904D03*
G01X36064Y2904D03*
G01X37064Y2904D03*
G01X38147Y36600D03*
G01X38064Y16904D03*
G01X38064Y15904D03*
G01X38064Y14904D03*
G01X38064Y7904D03*
G01X38064Y2904D03*
G01X39247Y34000D03*
G01X39064Y29904D03*
G01X39064Y28904D03*
G01X39064Y27904D03*
G01X39064Y26904D03*
G01X39064Y25904D03*
G01X40064Y29904D03*
G01X40064Y28904D03*
G01X40064Y27904D03*
G01X40064Y26904D03*
G01X40064Y25904D03*
G01X41064Y26904D03*
G01X41064Y25904D03*
G01X42064Y26904D03*
G01X42064Y25904D03*
G01X42064Y16904D03*
G01X42064Y15904D03*
G01X43064Y26904D03*
G01X43064Y25904D03*
G01X44064Y24904D03*
G01X44064Y16904D03*
G01X44064Y14904D03*
G01X45064Y24904D03*
G01X45064Y23904D03*
G01X45064Y15904D03*
G01X45064Y14904D03*
G01X45064Y13904D03*
G01X45064Y12904D03*
G01X45064Y11904D03*
G01X45064Y10904D03*
G01X45064Y9904D03*
G01X45064Y8904D03*
G01X45064Y7904D03*
G01X45064Y6904D03*
G01X45064Y5904D03*
G01X46064Y28904D03*
G01X46064Y25904D03*
G01X46064Y24904D03*
G01X46064Y15904D03*
G01X46064Y14904D03*
G01X46064Y13904D03*
G01X46064Y12904D03*
G01X46064Y8904D03*
G01X46064Y7904D03*
G01X46064Y6904D03*
G01X46064Y5904D03*
G01X47064Y28904D03*
G01X47064Y24904D03*
G01X47064Y15904D03*
G01X47064Y14904D03*
G01X47064Y6904D03*
G01X47064Y5904D03*
G01X48064Y10904D03*
G01X48064Y7904D03*
G01X48064Y6904D03*
G01X49064Y10904D03*
G01X49064Y8904D03*
G01X50064Y11904D03*
G01X50064Y10904D03*
G01X50064Y9904D03*
G01X51064Y11904D03*
G01X51064Y10904D03*
G01X51064Y9904D03*
G01X52064Y28904D03*
G01X52064Y12904D03*
G01X52064Y11904D03*
G01X52064Y10904D03*
G01X52064Y9904D03*
G01X52064Y8904D03*
G01X53064Y10904D03*
G01X53064Y6904D03*
G01X54064Y30904D03*
G01X54064Y15904D03*
G01X54064Y14904D03*
G01X54064Y6904D03*
G01X54064Y5904D03*
G01X55064Y30904D03*
G01X55064Y26904D03*
G01X55064Y25904D03*
G01X55064Y24904D03*
G01X55064Y23904D03*
G01X55064Y22904D03*
G01X55064Y15904D03*
G01X55064Y5904D03*
G01X56064Y28904D03*
G01X56064Y27904D03*
G01X56064Y26904D03*
G01X56064Y25904D03*
G01X56064Y24904D03*
G01X56064Y23904D03*
G01X56064Y22904D03*
G01X56064Y15904D03*
G01X56064Y5904D03*
G01X57064Y16904D03*
G01X57064Y10904D03*
G01X58064Y16904D03*
G01X58064Y15904D03*
G01X58064Y10904D03*
G01X59064Y16904D03*
G01X59064Y15904D03*
G01X59064Y14904D03*
G01X59064Y3904D03*
G01X60064Y4904D03*
G01X60064Y3904D03*
G01X60064Y2904D03*
G01X61064Y4904D03*
G01X61064Y3904D03*
G01X61064Y2904D03*
G01X62064Y22904D03*
G01X62064Y21904D03*
G01X62064Y20904D03*
G01X62064Y19904D03*
G01X62064Y18904D03*
G01X62064Y17904D03*
G01X62064Y16904D03*
G01X62064Y15904D03*
G01X62064Y14904D03*
G01X62064Y13904D03*
G01X62064Y12904D03*
G01X62064Y11904D03*
G01X62064Y9904D03*
G01X62064Y8904D03*
G01X62064Y7904D03*
G01X62064Y6904D03*
G01X62064Y5904D03*
G01X62064Y4904D03*
G01X62064Y3904D03*
G01X62064Y2904D03*
G01X23337Y24500D03*
G01X28647Y41000D03*
G01X28647Y39300D03*
G01X29064Y25904D03*
G01X30064Y25904D03*
G01X31064Y25904D03*
G01X6064Y21904D03*
G01X7064Y23904D03*
G01X9064Y23904D03*
G01X8064Y21904D03*
G54D27*
G01X49684Y5465D02*
G01X51384Y5465D01*
G01X49684Y16465D02*
G01X51384Y16465D01*
M00*
M02*
