G04 Layer: TopSolderMaskLayer*
G04 EasyEDA v6.3.53, 2020-06-18T10:34:05+08:00*
G04 fc4558d4a1fd407c996c982f62b69df0,fed530592efb474aaabf7115e2e2b964,10*
G04 Gerber Generator version 0.2*
G04 Scale: 100 percent, Rotated: No, Reflected: No *
G04 Dimensions in millimeters *
G04 leading zeros omitted , absolute positions ,3 integer and 3 decimal *
%FSLAX33Y33*%
%MOMM*%
G90*
G71D02*

%ADD33C,2.503195*%
%ADD34C,0.100000*%
%ADD35C,1.599997*%
%ADD37C,1.903197*%
%ADD38C,2.003196*%

%LPD*%
G54D33*
G01X49684Y5465D02*
G01X51384Y5465D01*
G01X49684Y16465D02*
G01X51384Y16465D01*
G36*
G01X21867Y10223D02*
G01X21867Y12128D01*
G01X23772Y12128D01*
G01X23772Y10223D01*
G01X21867Y10223D01*
G37*
G54D37*
G01X20279Y11176D03*
G01X17739Y11176D03*
G01X15199Y11176D03*
G54D38*
G01X24003Y37762D03*
G01X24003Y40302D03*
G01X21463Y37762D03*
G01X21463Y40302D03*
G01X18923Y37762D03*
G01X18923Y40302D03*
G01X16383Y37762D03*
G01X16383Y40302D03*
G01X13843Y37762D03*
G36*
G01X12842Y39301D02*
G01X12842Y41303D01*
G01X14844Y41303D01*
G01X14844Y39301D01*
G01X12842Y39301D01*
G37*
G36*
G01X40145Y33459D02*
G01X40145Y35461D01*
G01X42149Y35461D01*
G01X42149Y33459D01*
G01X40145Y33459D01*
G37*
G01X43686Y34460D03*
G01X46226Y34460D03*
G01X48766Y34460D03*
G36*
G01X45313Y40025D02*
G01X45313Y42029D01*
G01X47317Y42029D01*
G01X47317Y40025D01*
G01X45313Y40025D01*
G37*
G01X43815Y41027D03*
G01X41315Y41027D03*
G36*
G01X55854Y40025D02*
G01X55854Y42029D01*
G01X57858Y42029D01*
G01X57858Y40025D01*
G01X55854Y40025D01*
G37*
G01X54356Y41027D03*
G01X51856Y41027D03*
G01X57880Y28999D03*
G01X53880Y28999D03*
G01X53006Y35540D03*
G01X55546Y35540D03*
G36*
G01X57198Y34539D02*
G01X57198Y36543D01*
G01X58976Y36543D01*
G01X58976Y34539D01*
G01X57198Y34539D01*
G37*
G01X43034Y13505D03*
G01X43034Y10965D03*
G01X43034Y8425D03*
G01X57534Y13505D03*
G01X57534Y8425D03*
G36*
G01X44869Y29748D02*
G01X44869Y30652D01*
G01X46324Y30652D01*
G01X46324Y29748D01*
G01X44869Y29748D01*
G37*
G36*
G01X42370Y28798D02*
G01X42370Y29702D01*
G01X43825Y29702D01*
G01X43825Y28798D01*
G01X42370Y28798D01*
G37*
G36*
G01X42370Y30698D02*
G01X42370Y31602D01*
G01X43825Y31602D01*
G01X43825Y30698D01*
G01X42370Y30698D01*
G37*
G36*
G01X46533Y26499D02*
G01X46533Y27401D01*
G01X48036Y27401D01*
G01X48036Y26499D01*
G01X46533Y26499D01*
G37*
G36*
G01X52532Y26499D02*
G01X52532Y27401D01*
G01X54036Y27401D01*
G01X54036Y26499D01*
G01X52532Y26499D01*
G37*
G36*
G01X46533Y22799D02*
G01X46533Y23700D01*
G01X48036Y23700D01*
G01X48036Y22799D01*
G01X46533Y22799D01*
G37*
G36*
G01X52532Y22799D02*
G01X52532Y23700D01*
G01X54036Y23700D01*
G01X54036Y22799D01*
G01X52532Y22799D01*
G37*
G36*
G01X7696Y30599D02*
G01X7696Y31800D01*
G01X8999Y31800D01*
G01X8999Y30599D01*
G01X7696Y30599D01*
G37*
G36*
G01X7696Y32199D02*
G01X7696Y33401D01*
G01X8999Y33401D01*
G01X8999Y32199D01*
G01X7696Y32199D01*
G37*
G36*
G01X12994Y30599D02*
G01X12994Y31800D01*
G01X14297Y31800D01*
G01X14297Y30599D01*
G01X12994Y30599D01*
G37*
G36*
G01X12994Y32199D02*
G01X12994Y33401D01*
G01X14297Y33401D01*
G01X14297Y32199D01*
G01X12994Y32199D01*
G37*
G36*
G01X11846Y2550D02*
G01X11846Y3751D01*
G01X13548Y3751D01*
G01X13548Y2550D01*
G01X11846Y2550D01*
G37*
G36*
G01X11846Y5550D02*
G01X11846Y6751D01*
G01X13548Y6751D01*
G01X13548Y5550D01*
G01X11846Y5550D01*
G37*
G36*
G01X6845Y5550D02*
G01X6845Y6751D01*
G01X8549Y6751D01*
G01X8549Y5550D01*
G01X6845Y5550D01*
G37*
G36*
G01X6845Y2550D02*
G01X6845Y3751D01*
G01X8549Y3751D01*
G01X8549Y2550D01*
G01X6845Y2550D01*
G37*
G36*
G01X20647Y2550D02*
G01X20647Y3751D01*
G01X22349Y3751D01*
G01X22349Y2550D01*
G01X20647Y2550D01*
G37*
G36*
G01X20647Y5550D02*
G01X20647Y6751D01*
G01X22349Y6751D01*
G01X22349Y5550D01*
G01X20647Y5550D01*
G37*
G36*
G01X15646Y5550D02*
G01X15646Y6751D01*
G01X17351Y6751D01*
G01X17351Y5550D01*
G01X15646Y5550D01*
G37*
G36*
G01X15646Y2550D02*
G01X15646Y3751D01*
G01X17351Y3751D01*
G01X17351Y2550D01*
G01X15646Y2550D01*
G37*
G36*
G01X29446Y2550D02*
G01X29446Y3751D01*
G01X31148Y3751D01*
G01X31148Y2550D01*
G01X29446Y2550D01*
G37*
G36*
G01X29446Y5550D02*
G01X29446Y6751D01*
G01X31148Y6751D01*
G01X31148Y5550D01*
G01X29446Y5550D01*
G37*
G36*
G01X24445Y5550D02*
G01X24445Y6751D01*
G01X26149Y6751D01*
G01X26149Y5550D01*
G01X24445Y5550D01*
G37*
G36*
G01X24445Y2550D02*
G01X24445Y3751D01*
G01X26149Y3751D01*
G01X26149Y2550D01*
G01X24445Y2550D01*
G37*
G36*
G01X40846Y29448D02*
G01X40846Y30152D01*
G01X41849Y30152D01*
G01X41849Y29448D01*
G01X40846Y29448D01*
G37*
G36*
G01X40846Y28448D02*
G01X40846Y29151D01*
G01X41849Y29151D01*
G01X41849Y28448D01*
G01X40846Y28448D01*
G37*
G36*
G01X40846Y30853D02*
G01X40846Y31557D01*
G01X41849Y31557D01*
G01X41849Y30853D01*
G01X40846Y30853D01*
G37*
G36*
G01X40846Y31851D02*
G01X40846Y32555D01*
G01X41849Y32555D01*
G01X41849Y31851D01*
G01X40846Y31851D01*
G37*
G36*
G01X41595Y38097D02*
G01X41595Y39100D01*
G01X42298Y39100D01*
G01X42298Y38097D01*
G01X41595Y38097D01*
G37*
G36*
G01X42596Y38097D02*
G01X42596Y39100D01*
G01X43299Y39100D01*
G01X43299Y38097D01*
G01X42596Y38097D01*
G37*
G36*
G01X52194Y38097D02*
G01X52194Y39100D01*
G01X52898Y39100D01*
G01X52898Y38097D01*
G01X52194Y38097D01*
G37*
G36*
G01X53195Y38097D02*
G01X53195Y39100D01*
G01X53899Y39100D01*
G01X53899Y38097D01*
G01X53195Y38097D01*
G37*
G36*
G01X23947Y32057D02*
G01X23947Y33258D01*
G01X24699Y33258D01*
G01X24699Y32057D01*
G01X23947Y32057D01*
G37*
G36*
G01X25847Y32057D02*
G01X25847Y33258D01*
G01X26599Y33258D01*
G01X26599Y32057D01*
G01X25847Y32057D01*
G37*
G36*
G01X25847Y29057D02*
G01X25847Y30259D01*
G01X26599Y30259D01*
G01X26599Y29057D01*
G01X25847Y29057D01*
G37*
G36*
G01X24897Y29057D02*
G01X24897Y30259D01*
G01X25649Y30259D01*
G01X25649Y29057D01*
G01X24897Y29057D01*
G37*
G36*
G01X23947Y29057D02*
G01X23947Y30259D01*
G01X24699Y30259D01*
G01X24699Y29057D01*
G01X23947Y29057D01*
G37*
G36*
G01X26096Y27198D02*
G01X26096Y28402D01*
G01X27399Y28402D01*
G01X27399Y27198D01*
G01X26096Y27198D01*
G37*
G36*
G01X26096Y25598D02*
G01X26096Y26802D01*
G01X27399Y26802D01*
G01X27399Y25598D01*
G01X26096Y25598D01*
G37*
G36*
G01X20345Y32748D02*
G01X20345Y34051D01*
G01X21549Y34051D01*
G01X21549Y32748D01*
G01X20345Y32748D01*
G37*
G36*
G01X22146Y32748D02*
G01X22146Y34051D01*
G01X23347Y34051D01*
G01X23347Y32748D01*
G01X22146Y32748D01*
G37*
G36*
G01X21244Y27147D02*
G01X21244Y28453D01*
G01X22448Y28453D01*
G01X22448Y27147D01*
G01X21244Y27147D01*
G37*
G36*
G01X23045Y27147D02*
G01X23045Y28453D01*
G01X24249Y28453D01*
G01X24249Y27147D01*
G01X23045Y27147D01*
G37*
G36*
G01X21895Y25397D02*
G01X21895Y26400D01*
G01X22598Y26400D01*
G01X22598Y25397D01*
G01X21895Y25397D01*
G37*
G36*
G01X22895Y25397D02*
G01X22895Y26400D01*
G01X23599Y26400D01*
G01X23599Y25397D01*
G01X22895Y25397D01*
G37*
G54D34*
G75*
G01X2679Y3660D02*
G03X2679Y3660I-650J0D01*
G01*
G75*
G01X61979Y42160D02*
G03X61979Y42160I-650J0D01*
G01*
G54D35*
G75*
G01X5825Y40185D02*
G03X5825Y40185I-2000J0D01*
G01*
G75*
G01X5804Y11675D02*
G03X5804Y11675I-2000J0D01*
G01*
G75*
G01X36214Y40185D02*
G03X36214Y40185I-2000J0D01*
G01*
G75*
G01X36204Y11685D02*
G03X36204Y11685I-2000J0D01*
G01*
M00*
M02*
