;Layer: Drill PTH
;EasyEDA v6.3.53, 2020-06-18T10:34:05+08:00
;fc4558d4a1fd407c996c982f62b69df0,fed530592efb474aaabf7115e2e2b964,10
;Gerber Generator version 0.2
M48
METRIC,LZ,000.000
;Holesize 1 = 0.301 METRIC
T01C0.301
;Holesize 2 = 0.951 METRIC
T02C0.951
;Holesize 3 = 1.000 METRIC
T03C1.000
;Holesize 4 = 1.301 METRIC
T04C1.301
;Holesize 5 = 1.501 METRIC
T05C1.501
%
G05
G90
T01
X+027647Y+033300
X+044147Y+026200
X+039747Y+031900
X+010047Y+005400
X+048647Y+032200
X+029747Y+038500
X+019146Y+022100
X+034047Y+023000
X+008347Y+027300
X+013447Y+027400
X+024147Y+024500
X+043847Y+023200
X+025951Y+040586
X+026951Y+039586
X+012861Y+025366
X+013861Y+025366
X+013861Y+024366
X+014861Y+029366
X+014861Y+025366
X+014861Y+024366
X+014861Y+023366
X+015861Y+030366
X+015861Y+029366
X+015861Y+025366
X+015861Y+024366
X+015861Y+022366
X+016861Y+030366
X+016861Y+029366
X+016861Y+025366
X+016861Y+024366
X+016861Y+022366
X+017861Y+030366
X+017861Y+029366
X+017861Y+024366
X+020861Y+030366
X+020861Y+029366
X+020861Y+026366
X+021861Y+030366
X+021861Y+029366
X+001064Y+006904
X+001064Y+005904
X+002064Y+034904
X+002064Y+033904
X+002064Y+032904
X+002064Y+031904
X+002064Y+030904
X+002064Y+029904
X+002064Y+028904
X+002064Y+027904
X+002064Y+026904
X+002064Y+025904
X+002064Y+024904
X+002064Y+023904
X+002064Y+022904
X+002064Y+021904
X+002064Y+020904
X+002064Y+019904
X+002064Y+018904
X+002064Y+017904
X+002064Y+016904
X+002064Y+006904
X+002064Y+005904
X+003064Y+034904
X+003064Y+033904
X+003064Y+032904
X+003064Y+031904
X+003064Y+030904
X+003064Y+029904
X+003064Y+028904
X+003064Y+027904
X+003064Y+026904
X+003064Y+025904
X+003064Y+024904
X+003064Y+023904
X+003064Y+022904
X+003064Y+021904
X+003064Y+019904
X+003064Y+018904
X+003064Y+017904
X+003064Y+016904
X+003064Y+005904
X+004064Y+034904
X+004064Y+033904
X+004064Y+032904
X+004064Y+031904
X+004064Y+005904
X+004064Y+004904
X+004064Y+003904
X+004064Y+002904
X+005064Y+034904
X+005064Y+033904
X+005064Y+032904
X+005064Y+031904
X+005064Y+030904
X+005064Y+029904
X+005064Y+028904
X+005064Y+027904
X+005064Y+026904
X+005064Y+025904
X+005064Y+024904
X+005064Y+023904
X+005064Y+022904
X+005064Y+021904
X+005064Y+019904
X+005064Y+018904
X+005064Y+017904
X+005064Y+016904
X+005064Y+006904
X+005064Y+005904
X+005064Y+004904
X+005064Y+003904
X+005064Y+002904
X+006064Y+035904
X+006064Y+034904
X+006064Y+033904
X+006064Y+032904
X+006064Y+031904
X+006064Y+030904
X+006064Y+029904
X+006064Y+028904
X+006064Y+027904
X+006064Y+026904
X+006064Y+025904
X+006064Y+024904
X+006064Y+023904
X+006064Y+022904
X+006064Y+018904
X+006064Y+017904
X+006064Y+016904
X+007064Y+035904
X+007064Y+034904
X+007064Y+033904
X+007064Y+029904
X+007064Y+028904
X+007064Y+027904
X+007064Y+026904
X+007064Y+025904
X+007064Y+024904
X+007064Y+018904
X+007064Y+017904
X+007064Y+016904
X+007064Y+015904
X+008064Y+025904
X+008064Y+019904
X+008064Y+018904
X+008064Y+017904
X+008064Y+016904
X+008064Y+015904
X+008064Y+014904
X+009064Y+041904
X+009064Y+040904
X+009064Y+039904
X+009064Y+038904
X+009064Y+025904
X+009064Y+024904
X+009064Y+019904
X+009064Y+018904
X+009064Y+017904
X+009064Y+016904
X+009064Y+015904
X+009064Y+014904
X+009064Y+013904
X+009064Y+012904
X+009064Y+011904
X+009064Y+010904
X+009064Y+009904
X+010064Y+034904
X+010064Y+033904
X+010064Y+022904
X+010064Y+019904
X+010064Y+018904
X+010064Y+017904
X+010064Y+016904
X+010064Y+015904
X+010064Y+014904
X+010064Y+013904
X+010064Y+012904
X+010064Y+011904
X+010064Y+010904
X+010064Y+009904
X+011064Y+036904
X+011064Y+034904
X+011064Y+033904
X+011064Y+032904
X+011064Y+021904
X+011064Y+019904
X+011064Y+018904
X+011064Y+017904
X+011064Y+016904
X+011064Y+015904
X+011064Y+014904
X+011064Y+013904
X+011064Y+012904
X+011064Y+011904
X+011064Y+010904
X+011064Y+009904
X+012064Y+019904
X+012064Y+018904
X+012064Y+017904
X+012064Y+016904
X+012064Y+015904
X+012064Y+014904
X+012064Y+013904
X+012064Y+012904
X+012064Y+011904
X+012064Y+010904
X+013064Y+019904
X+013064Y+018904
X+013064Y+017904
X+013064Y+016904
X+013064Y+015904
X+013064Y+014904
X+013064Y+013904
X+013064Y+012904
X+013064Y+011904
X+013064Y+010904
X+014064Y+018904
X+014064Y+017904
X+014064Y+016904
X+014064Y+015904
X+014064Y+014904
X+024064Y+015904
X+024064Y+014904
X+025064Y+016904
X+025064Y+015904
X+025064Y+014904
X+025064Y+013904
X+025064Y+012904
X+025064Y+011904
X+026064Y+016904
X+026064Y+015904
X+026064Y+014904
X+026064Y+013904
X+026064Y+012904
X+026064Y+011904
X+027064Y+016904
X+027064Y+015904
X+027064Y+014904
X+027064Y+013904
X+027064Y+012904
X+027064Y+009904
X+028064Y+030904
X+028064Y+029904
X+028064Y+028904
X+028064Y+010904
X+028064Y+009904
X+029064Y+033904
X+029064Y+030904
X+029064Y+029904
X+029064Y+028904
X+029064Y+027904
X+029064Y+026904
X+029064Y+011904
X+029064Y+010904
X+029064Y+009904
X+030064Y+033904
X+030064Y+030904
X+030064Y+029904
X+030064Y+028904
X+030064Y+027904
X+030064Y+026904
X+030064Y+016904
X+030064Y+015904
X+030064Y+014904
X+031064Y+033904
X+031064Y+030904
X+031064Y+029904
X+031064Y+028904
X+031064Y+027904
X+031064Y+026904
X+031064Y+017904
X+031064Y+016904
X+031064Y+015904
X+032064Y+033904
X+032064Y+030904
X+032064Y+029904
X+032064Y+028904
X+032064Y+027904
X+032064Y+026904
X+032064Y+025904
X+032064Y+017904
X+032064Y+016904
X+032447Y+003400
X+032447Y+002400
X+033064Y+033904
X+033064Y+030904
X+033064Y+029904
X+033064Y+028904
X+033064Y+027904
X+033064Y+026904
X+033064Y+025904
X+033064Y+017904
X+033064Y+016904
X+033064Y+002904
X+034064Y+033904
X+034064Y+030904
X+034064Y+029904
X+034064Y+028904
X+034064Y+027904
X+034064Y+026904
X+034064Y+025904
X+034064Y+017904
X+034064Y+016904
X+034064Y+003904
X+035064Y+033904
X+035064Y+030904
X+035064Y+029904
X+035064Y+028904
X+035064Y+027904
X+035064Y+026904
X+035064Y+025904
X+035064Y+016904
X+035064Y+003904
X+036064Y+017904
X+036064Y+003904
X+036064Y+002904
X+037064Y+002904
X+038147Y+036600
X+038064Y+016904
X+038064Y+015904
X+038064Y+014904
X+038064Y+007904
X+038064Y+002904
X+039247Y+034000
X+039064Y+029904
X+039064Y+028904
X+039064Y+027904
X+039064Y+026904
X+039064Y+025904
X+040064Y+029904
X+040064Y+028904
X+040064Y+027904
X+040064Y+026904
X+040064Y+025904
X+041064Y+026904
X+041064Y+025904
X+042064Y+026904
X+042064Y+025904
X+042064Y+016904
X+042064Y+015904
X+043064Y+026904
X+043064Y+025904
X+044064Y+024904
X+044064Y+016904
X+044064Y+014904
X+045064Y+024904
X+045064Y+023904
X+045064Y+015904
X+045064Y+014904
X+045064Y+013904
X+045064Y+012904
X+045064Y+011904
X+045064Y+010904
X+045064Y+009904
X+045064Y+008904
X+045064Y+007904
X+045064Y+006904
X+045064Y+005904
X+046064Y+028904
X+046064Y+025904
X+046064Y+024904
X+046064Y+015904
X+046064Y+014904
X+046064Y+013904
X+046064Y+012904
X+046064Y+008904
X+046064Y+007904
X+046064Y+006904
X+046064Y+005904
X+047064Y+028904
X+047064Y+024904
X+047064Y+015904
X+047064Y+014904
X+047064Y+006904
X+047064Y+005904
X+048064Y+010904
X+048064Y+007904
X+048064Y+006904
X+049064Y+010904
X+049064Y+008904
X+050064Y+011904
X+050064Y+010904
X+050064Y+009904
X+051064Y+011904
X+051064Y+010904
X+051064Y+009904
X+052064Y+028904
X+052064Y+012904
X+052064Y+011904
X+052064Y+010904
X+052064Y+009904
X+052064Y+008904
X+053064Y+010904
X+053064Y+006904
X+054064Y+030904
X+054064Y+015904
X+054064Y+014904
X+054064Y+006904
X+054064Y+005904
X+055064Y+030904
X+055064Y+026904
X+055064Y+025904
X+055064Y+024904
X+055064Y+023904
X+055064Y+022904
X+055064Y+015904
X+055064Y+005904
X+056064Y+028904
X+056064Y+027904
X+056064Y+026904
X+056064Y+025904
X+056064Y+024904
X+056064Y+023904
X+056064Y+022904
X+056064Y+015904
X+056064Y+005904
X+057064Y+016904
X+057064Y+010904
X+058064Y+016904
X+058064Y+015904
X+058064Y+010904
X+059064Y+016904
X+059064Y+015904
X+059064Y+014904
X+059064Y+003904
X+060064Y+004904
X+060064Y+003904
X+060064Y+002904
X+061064Y+004904
X+061064Y+003904
X+061064Y+002904
X+062064Y+022904
X+062064Y+021904
X+062064Y+020904
X+062064Y+019904
X+062064Y+018904
X+062064Y+017904
X+062064Y+016904
X+062064Y+015904
X+062064Y+014904
X+062064Y+013904
X+062064Y+012904
X+062064Y+011904
X+062064Y+009904
X+062064Y+008904
X+062064Y+007904
X+062064Y+006904
X+062064Y+005904
X+062064Y+004904
X+062064Y+003904
X+062064Y+002904
X+023337Y+024500
X+028647Y+041000
X+028647Y+039300
X+029064Y+025904
X+030064Y+025904
X+031064Y+025904
X+006064Y+021904
X+007064Y+023904
X+009064Y+023904
X+008064Y+021904
T02
X+046315Y+041027
X+043815Y+041027
X+041315Y+041027
X+056856Y+041027
X+054356Y+041027
X+051856Y+041027
T03
X+022819Y+011176
X+020279Y+011176
X+017739Y+011176
X+015199Y+011176
X+024003Y+037762
X+024003Y+040302
X+021463Y+037762
X+021463Y+040302
X+018923Y+037762
X+018923Y+040302
X+016383Y+037762
X+016383Y+040302
X+013843Y+037762
X+013843Y+040302
X+041146Y+034460
X+043686Y+034460
X+046226Y+034460
X+048766Y+034460
X+057880Y+028999
X+053880Y+028999
X+053006Y+035540
X+055546Y+035540
X+058086Y+035540
T04
X+043034Y+013505
X+043034Y+010965
X+043034Y+008425
X+057534Y+013505
X+057534Y+008425
T05
X+049784Y+005465G85X+051284Y+005465
X+049784Y+016465G85X+051284Y+016465
M30
