<svg xmlns="http://www.w3.org/2000/svg" xmlns:xlink="http://www.w3.org/1999/xlink" width="132.283mm" height="98.069mm" viewBox="4002.1 3088.7 520.8 386.1"><title></title><style type="text/css">
*[layerid="1"] {stroke:#000000;fill:#000000;}
*[layerid="2"] {stroke:#000000;fill:#000000;}
*[layerid="3"] {stroke:#000000;fill:#000000;}
*[layerid="4"] {stroke:#000000;fill:#000000;}
*[layerid="5"] {stroke:#000000;fill:#000000;}
*[layerid="6"] {stroke:#000000;fill:#000000;}
*[layerid="7"] {stroke:#000000;fill:#000000;}
*[layerid="8"] {stroke:#000000;fill:#000000;}
*[layerid="9"] {stroke:#000000;fill:#000000;}
*[layerid="10"] {stroke:#000000;fill:#000000;}
*[layerid="11"] {stroke:#000000;fill:#000000;}
*[layerid="12"] {stroke:#000000;fill:#000000;}
*[layerid="13"] {stroke:#000000;fill:#000000;}
*[layerid="14"] {stroke:#000000;fill:#000000;}
*[layerid="15"] {stroke:#000000;fill:#000000;}
*[layerid="19"] {stroke:#000000;fill:#000000;}
*[layerid="21"] {stroke:#000000;fill:#000000;}
*[layerid="22"] {stroke:#000000;fill:#000000;}
*[layerid="23"] {stroke:#000000;fill:#000000;}
*[layerid="24"] {stroke:#000000;fill:#000000;}
*[layerid="25"] {stroke:#000000;fill:#000000;}
*[layerid="26"] {stroke:#000000;fill:#000000;}
*[layerid="27"] {stroke:#000000;fill:#000000;}
*[layerid="28"] {stroke:#000000;fill:#000000;}
*[layerid="29"] {stroke:#000000;fill:#000000;}
*[layerid="30"] {stroke:#000000;fill:#000000;}
*[layerid="31"] {stroke:#000000;fill:#000000;}
*[layerid="32"] {stroke:#000000;fill:#000000;}
*[layerid="33"] {stroke:#000000;fill:#000000;}
*[layerid="34"] {stroke:#000000;fill:#000000;}
*[layerid="35"] {stroke:#000000;fill:#000000;}
*[layerid="36"] {stroke:#000000;fill:#000000;}
*[layerid="37"] {stroke:#000000;fill:#000000;}
*[layerid="38"] {stroke:#000000;fill:#000000;}
*[layerid="39"] {stroke:#000000;fill:#000000;}
*[layerid="40"] {stroke:#000000;fill:#000000;}
*[layerid="41"] {stroke:#000000;fill:#000000;}
*[layerid="42"] {stroke:#000000;fill:#000000;}
*[layerid="43"] {stroke:#000000;fill:#000000;}
*[layerid="44"] {stroke:#000000;fill:#000000;}
*[layerid="45"] {stroke:#000000;fill:#000000;}
*[layerid="46"] {stroke:#000000;fill:#000000;}
*[layerid="47"] {stroke:#000000;fill:#000000;}
*[layerid="48"] {stroke:#000000;fill:#000000;}
*[layerid="49"] {stroke:#000000;fill:#000000;}
*[layerid="50"] {stroke:#000000;fill:#000000;}
*[layerid="51"] {stroke:#000000;fill:#000000;}
*[layerid="52"] {stroke:#000000;fill:#000000;}
*[layerid="99"] {stroke:#000000;fill:#000000;}
*[layerid="100"] {stroke:#000000;fill:#000000;}
*[layerid="Hole"] {stroke:#000000;fill:#000000;}
*[layerid="DRCError"] {stroke:#000000;fill:#000000;}
*[fill="none"] {fill: none;}
*[stroke="none"] {stroke: none;}
path, polyline, polygon, line {stroke-linecap:round;}
g[c_partid="part_pad"][layerid="1"] ellipse:not([c_etype="pad_outer"]) {fill:#000000;}
g[c_partid="part_pad"][layerid="1"] polygon:not([c_etype="pad_outer"]) {fill:#000000;}
g[c_partid="part_pad"][layerid="1"] polyline:not([c_etype="pad_outer"]) {stroke:#000000;}
g[c_partid="part_pad"][layerid="2"] ellipse:not([c_etype="pad_outer"]) {fill:#000000;}
g[c_partid="part_pad"][layerid="2"] polygon:not([c_etype="pad_outer"]) {fill:#000000;}
g[c_partid="part_pad"][layerid="2"] polyline:not([c_etype="pad_outer"]) {stroke:#000000;}
g[c_partid="part_pad"][layerid="11"] ellipse:not([c_etype="pad_outer"]) {fill:#000000;}
g[c_partid="part_pad"][layerid="11"] polygon:not([c_etype="pad_outer"]) {fill:#000000;}
g[c_partid="part_pad"][layerid="11"] polyline:not([c_etype="pad_outer"]) {stroke:#000000;}
g[c_partid="part_pad"][layerid="11"] circle {fill:#FFFFFF;}
g[c_partid="part_pad"][layerid="11"] > polyline:nth-of-type(2) {stroke:#FFFFFF;}
g[c_partid="part_pad"][layerid="11"][c_shape="ELLIPSE"]  polyline:nth-last-of-type(1) {stroke:#FFFFFF;}
g[c_partid="part_pad"][layerid="11"][c_shape="RECT"]  polyline:nth-last-of-type(1) {stroke:#FFFFFF;}
g[c_partid="part_pad"][layerid="11"][c_shape="POLYGON"]  polyline:nth-last-of-type(1) {stroke:#FFFFFF;}
g[c_partid="part_via"] > * + circle, #gCurParts g[c_partid="part_via"] > * + circle {fill:#FFFFFF;}
g[c_partid="part_pad"] > polygon[c_etype="pad_outer"], #gCurParts g[c_partid="part_pad"] > polygon[c_etype="pad_outer"] {stroke-linejoin: miter;stroke-miterlimit: 100;}
g[c_partid="part_hole"] > circle {fill: #FFFFFF;}path, polyline, polygon {stroke-linejoin:round;}
rect, circle, ellipse, polyline, line, polygon, path {shape-rendering:crispEdges;}
</style>
<rect x="4002.1" y="3088.7" width="520.8" height="386.1" fill="#FFFFFF" stroke="none"/><polyline points="4439.296 3414.0982 4439.296 3149.1482" stroke-width="1"  stroke-linecap="round" fill="none" layerid="10" net="S$4539" id="gge4540" locked="1" /><polyline points="4042.5937 3149.1382 4042.5937 3414.1377" stroke-width="1"  stroke-linecap="round" fill="none" layerid="10" net="S$4543" id="gge4544" locked="1" /><polyline points="4048.4255 3143.3064 4433.4542 3143.3064" stroke-width="1"  stroke-linecap="round" fill="none" layerid="10" net="S$4522" id="gge4523" locked="1" /><polyline points="4048.4251 3419.9699 4433.4243 3419.9699" stroke-width="1"  stroke-linecap="round" fill="none" layerid="10" net="S$4535" id="gge4536" locked="1" /><path d="M4433.4594 3143.3116A5.8318 5.8318 0 0 1 4439.2912 3149.1434" locked="1"  fill="none" stroke-width="1" c_helper_type="arc2" net="S$4515" layerid="10" id="gge4516" /><path d="M 4042.5937 3149.1382 A 5.8318 5.8318 0 0 1 4048.4255 3143.3064" locked="1"  fill="none" stroke-width="1" c_helper_type="arc2" net="S$4515" layerid="10" id="gge4520" /><path d="M4433.4542 3143.3064A0.0052 0.0052 0 0 1 4433.4594 3143.3116" locked="1"  fill="none" stroke-width="1" c_helper_type="arc2" net="S$4522" layerid="10" id="gge4524" /><path d="M 4048.4251 3419.9699 A 5.8318 5.8318 0 0 1 4042.5933 3414.1381" locked="1"  fill="none" stroke-width="1" c_helper_type="arc2" net="S$4515" layerid="10" id="gge4527" /><path d="M 4439.296 3414.0982 A 5.8318 5.8318 0 0 1 4433.4642 3419.93" locked="1"  fill="none" stroke-width="1" c_helper_type="arc2" net="S$4515" layerid="10" id="gge4533" /><path d="M4433.4243 3419.9699A0.0399 0.0399 0 0 0 4433.4642 3419.93" locked="1"  fill="none" stroke-width="1" c_helper_type="arc2" net="S$4535" layerid="10" id="gge4537" /><path d="M4439.296 3149.1482A0.0048 0.0048 0 0 0 4439.2912 3149.1434" locked="1"  fill="none" stroke-width="1" c_helper_type="arc2" net="S$4539" layerid="10" id="gge4541" /><path d="M4042.5937 3414.1377A0.0004 0.0004 0 0 1 4042.5933 3414.1381" locked="1"  fill="none" stroke-width="1" c_helper_type="arc2" net="S$4543" layerid="10" id="gge4545" /><polyline points="4438.5789 3419.8661 4439.2327 3419.8661" stroke-width="1"  stroke-linecap="round" fill="none" layerid="12" net="" id="gge3960" locked="0" /><polyline points="4439.2327 3419.8661 4439.2327 3418.8819" stroke-width="1"  stroke-linecap="round" fill="none" layerid="12" net="" id="gge3961" locked="0" /><polyline points="4436.2791 3419.8661 4438.5789 3419.8661" stroke-width="1"  stroke-linecap="round" fill="none" layerid="12" net="" id="gge3962" locked="0" /><polyline points="4042.5782 3418.8819 4042.5782 3143.2913" stroke-width="1"  stroke-linecap="round" fill="none" layerid="12" net="" id="gge3963" locked="0" /><polyline points="4042.5782 3143.2913 4436.2791 3143.2913" stroke-width="1"  stroke-linecap="round" fill="none" layerid="12" net="" id="gge3964" locked="0" /><polyline points="4439.2327 3418.8819 4439.2327 3143.3819" stroke-width="1"  stroke-linecap="round" fill="none" layerid="12" net="" id="gge3965" locked="0" /><polyline points="4436.2791 3143.2913 4439.2327 3143.2913" stroke-width="1"  stroke-linecap="round" fill="none" layerid="12" net="" id="gge3966" locked="0" /><polyline points="4042.5782 3419.8661 4436.2791 3419.8661" stroke-width="1"  stroke-linecap="round" fill="none" layerid="12" net="" id="gge3967" locked="0" /><path d="M 4438.4807 3419.8661 A 0.0984 0.0984 0 1 0 4438.6775 3419.8661" locked="0"  fill="none" stroke-width="1" c_helper_type="arc2" net="" layerid="12" id="gge1979" /><path d="M 4438.6775 3419.8661 A 0.0984 0.0984 0 1 0 4438.4807 3419.8661" locked="0"  fill="none" stroke-width="1" c_helper_type="arc2" net="" layerid="12" id="gge1980" /><path d="M 4439.1342 3419.8661 A 0.0984 0.0984 0 1 0 4439.3311 3419.8661" locked="0"  fill="none" stroke-width="1" c_helper_type="arc2" net="" layerid="12" id="gge1981" /><path d="M 4439.3311 3419.8661 A 0.0984 0.0984 0 1 0 4439.1342 3419.8661" locked="0"  fill="none" stroke-width="1" c_helper_type="arc2" net="" layerid="12" id="gge1982" /><path d="M 4439.1342 3419.8661 A 0.0984 0.0984 0 1 0 4439.3311 3419.8661" locked="0"  fill="none" stroke-width="1" c_helper_type="arc2" net="" layerid="12" id="gge1984" /><path d="M 4439.3311 3419.8661 A 0.0984 0.0984 0 1 0 4439.1342 3419.8661" locked="0"  fill="none" stroke-width="1" c_helper_type="arc2" net="" layerid="12" id="gge1985" /><path d="M 4439.1342 3418.8819 A 0.0984 0.0984 0 1 0 4439.3311 3418.8819" locked="0"  fill="none" stroke-width="1" c_helper_type="arc2" net="" layerid="12" id="gge1986" /><path d="M 4439.3311 3418.8819 A 0.0984 0.0984 0 1 0 4439.1342 3418.8819" locked="0"  fill="none" stroke-width="1" c_helper_type="arc2" net="" layerid="12" id="gge1987" /><path d="M 4436.1807 3419.8661 A 0.0984 0.0984 0 1 0 4436.3775 3419.8661" locked="0"  fill="none" stroke-width="1" c_helper_type="arc2" net="" layerid="12" id="gge1994" /><path d="M 4436.3775 3419.8661 A 0.0984 0.0984 0 1 0 4436.1807 3419.8661" locked="0"  fill="none" stroke-width="1" c_helper_type="arc2" net="" layerid="12" id="gge1995" /><path d="M 4438.4807 3419.8661 A 0.0984 0.0984 0 1 0 4438.6775 3419.8661" locked="0"  fill="none" stroke-width="1" c_helper_type="arc2" net="" layerid="12" id="gge1996" /><path d="M 4438.6775 3419.8661 A 0.0984 0.0984 0 1 0 4438.4807 3419.8661" locked="0"  fill="none" stroke-width="1" c_helper_type="arc2" net="" layerid="12" id="gge1997" /><path d="M 4436.1807 3143.2913 A 0.0984 0.0984 0 1 0 4436.3775 3143.2913" locked="0"  fill="none" stroke-width="1" c_helper_type="arc2" net="" layerid="12" id="gge2006" /><path d="M 4436.3775 3143.2913 A 0.0984 0.0984 0 1 0 4436.1807 3143.2913" locked="0"  fill="none" stroke-width="1" c_helper_type="arc2" net="" layerid="12" id="gge2007" /><path d="M 4439.1342 3418.8819 A 0.0984 0.0984 0 1 0 4439.3311 3418.8819" locked="0"  fill="none" stroke-width="1" c_helper_type="arc2" net="" layerid="12" id="gge2009" /><path d="M 4439.3311 3418.8819 A 0.0984 0.0984 0 1 0 4439.1342 3418.8819" locked="0"  fill="none" stroke-width="1" c_helper_type="arc2" net="" layerid="12" id="gge2010" /><path d="M 4439.1342 3143.3819 A 0.0984 0.0984 0 1 0 4439.3311 3143.3819" locked="0"  fill="none" stroke-width="1" c_helper_type="arc2" net="" layerid="12" id="gge2011" /><path d="M 4439.3311 3143.3819 A 0.0984 0.0984 0 1 0 4439.1342 3143.3819" locked="0"  fill="none" stroke-width="1" c_helper_type="arc2" net="" layerid="12" id="gge2012" /><path d="M 4436.1807 3143.2913 A 0.0984 0.0984 0 1 0 4436.3775 3143.2913" locked="0"  fill="none" stroke-width="1" c_helper_type="arc2" net="" layerid="12" id="gge2014" /><path d="M 4436.3775 3143.2913 A 0.0984 0.0984 0 1 0 4436.1807 3143.2913" locked="0"  fill="none" stroke-width="1" c_helper_type="arc2" net="" layerid="12" id="gge2015" /><path d="M 4439.1342 3143.2913 A 0.0984 0.0984 0 1 0 4439.3311 3143.2913" locked="0"  fill="none" stroke-width="1" c_helper_type="arc2" net="" layerid="12" id="gge2016" /><path d="M 4439.3311 3143.2913 A 0.0984 0.0984 0 1 0 4439.1342 3143.2913" locked="0"  fill="none" stroke-width="1" c_helper_type="arc2" net="" layerid="12" id="gge2017" /><path d="M 4436.1807 3419.8661 A 0.0984 0.0984 0 1 0 4436.3775 3419.8661" locked="0"  fill="none" stroke-width="1" c_helper_type="arc2" net="" layerid="12" id="gge2021" /><path d="M 4436.3775 3419.8661 A 0.0984 0.0984 0 1 0 4436.1807 3419.8661" locked="0"  fill="none" stroke-width="1" c_helper_type="arc2" net="" layerid="12" id="gge2022" /><path d="M 4418.376 3255.1819 A 1.9685 1.9685 0 1 0 4414.439 3255.1819" locked="0"  fill="none" stroke-width="1" c_helper_type="arc2" net="" layerid="12" id="gge2071" /><path d="M 4414.439 3255.1819 A 1.9685 1.9685 0 1 0 4418.376 3255.1819" locked="0"  fill="none" stroke-width="1" c_helper_type="arc2" net="" layerid="12" id="gge2072" /><path d="M 4418.2775 3255.1819 A 0.0984 0.0984 0 1 0 4418.4744 3255.1819" locked="0"  fill="none" stroke-width="1" c_helper_type="arc2" net="" layerid="12" id="gge2073" /><path d="M 4418.4744 3255.1819 A 0.0984 0.0984 0 1 0 4418.2775 3255.1819" locked="0"  fill="none" stroke-width="1" c_helper_type="arc2" net="" layerid="12" id="gge2074" /><path d="M 4414.3405 3255.1819 A 0.0984 0.0984 0 1 0 4414.5374 3255.1819" locked="0"  fill="none" stroke-width="1" c_helper_type="arc2" net="" layerid="12" id="gge2075" /><path d="M 4414.5374 3255.1819 A 0.0984 0.0984 0 1 0 4414.3405 3255.1819" locked="0"  fill="none" stroke-width="1" c_helper_type="arc2" net="" layerid="12" id="gge2076" /><path d="M 4418.376 3236.9819 A 1.9685 1.9685 0 1 0 4414.439 3236.9819" locked="0"  fill="none" stroke-width="1" c_helper_type="arc2" net="" layerid="12" id="gge2077" /><path d="M 4414.439 3236.9819 A 1.9685 1.9685 0 1 0 4418.376 3236.9819" locked="0"  fill="none" stroke-width="1" c_helper_type="arc2" net="" layerid="12" id="gge2078" /><path d="M 4418.2775 3236.9819 A 0.0984 0.0984 0 1 0 4418.4744 3236.9819" locked="0"  fill="none" stroke-width="1" c_helper_type="arc2" net="" layerid="12" id="gge2079" /><path d="M 4418.4744 3236.9819 A 0.0984 0.0984 0 1 0 4418.2775 3236.9819" locked="0"  fill="none" stroke-width="1" c_helper_type="arc2" net="" layerid="12" id="gge2080" /><path d="M 4414.3405 3236.9819 A 0.0984 0.0984 0 1 0 4414.5374 3236.9819" locked="0"  fill="none" stroke-width="1" c_helper_type="arc2" net="" layerid="12" id="gge2081" /><path d="M 4414.5374 3236.9819 A 0.0984 0.0984 0 1 0 4414.3405 3236.9819" locked="0"  fill="none" stroke-width="1" c_helper_type="arc2" net="" layerid="12" id="gge2082" /><path d="M 4426.976 3168.4819 A 1.9685 1.9685 0 1 0 4423.039 3168.4819" locked="0"  fill="none" stroke-width="1" c_helper_type="arc2" net="" layerid="12" id="gge2083" /><path d="M 4423.039 3168.4819 A 1.9685 1.9685 0 1 0 4426.976 3168.4819" locked="0"  fill="none" stroke-width="1" c_helper_type="arc2" net="" layerid="12" id="gge2084" /><path d="M 4426.8775 3168.4819 A 0.0984 0.0984 0 1 0 4427.0744 3168.4819" locked="0"  fill="none" stroke-width="1" c_helper_type="arc2" net="" layerid="12" id="gge2085" /><path d="M 4427.0744 3168.4819 A 0.0984 0.0984 0 1 0 4426.8775 3168.4819" locked="0"  fill="none" stroke-width="1" c_helper_type="arc2" net="" layerid="12" id="gge2086" /><path d="M 4422.9405 3168.4819 A 0.0984 0.0984 0 1 0 4423.1374 3168.4819" locked="0"  fill="none" stroke-width="1" c_helper_type="arc2" net="" layerid="12" id="gge2087" /><path d="M 4423.1374 3168.4819 A 0.0984 0.0984 0 1 0 4422.9405 3168.4819" locked="0"  fill="none" stroke-width="1" c_helper_type="arc2" net="" layerid="12" id="gge2088" /><path d="M 4426.976 3200.0819 A 1.9685 1.9685 0 1 0 4423.039 3200.0819" locked="0"  fill="none" stroke-width="1" c_helper_type="arc2" net="" layerid="12" id="gge2089" /><path d="M 4423.039 3200.0819 A 1.9685 1.9685 0 1 0 4426.976 3200.0819" locked="0"  fill="none" stroke-width="1" c_helper_type="arc2" net="" layerid="12" id="gge2090" /><path d="M 4426.8775 3200.0819 A 0.0984 0.0984 0 1 0 4427.0744 3200.0819" locked="0"  fill="none" stroke-width="1" c_helper_type="arc2" net="" layerid="12" id="gge2091" /><path d="M 4427.0744 3200.0819 A 0.0984 0.0984 0 1 0 4426.8775 3200.0819" locked="0"  fill="none" stroke-width="1" c_helper_type="arc2" net="" layerid="12" id="gge2092" /><path d="M 4422.9405 3200.0819 A 0.0984 0.0984 0 1 0 4423.1374 3200.0819" locked="0"  fill="none" stroke-width="1" c_helper_type="arc2" net="" layerid="12" id="gge2093" /><path d="M 4423.1374 3200.0819 A 0.0984 0.0984 0 1 0 4422.9405 3200.0819" locked="0"  fill="none" stroke-width="1" c_helper_type="arc2" net="" layerid="12" id="gge2094" /><path d="M 4059.4689 3293.6716 A 6.8898 6.8898 0 1 0 4045.6894 3293.6716" locked="0"  fill="none" stroke-width="1" c_helper_type="arc2" net="" layerid="12" id="gge2101" /><path d="M 4045.6894 3293.6716 A 6.8898 6.8898 0 1 0 4059.4689 3293.6716" locked="0"  fill="none" stroke-width="1" c_helper_type="arc2" net="" layerid="12" id="gge2102" /><path d="M 4059.3705 3293.6716 A 0.0984 0.0984 0 1 0 4059.5673 3293.6716" locked="0"  fill="none" stroke-width="1" c_helper_type="arc2" net="" layerid="12" id="gge2103" /><path d="M 4059.5673 3293.6716 A 0.0984 0.0984 0 1 0 4059.3705 3293.6716" locked="0"  fill="none" stroke-width="1" c_helper_type="arc2" net="" layerid="12" id="gge2104" /><path d="M 4045.5909 3293.6716 A 0.0984 0.0984 0 1 0 4045.7878 3293.6716" locked="0"  fill="none" stroke-width="1" c_helper_type="arc2" net="" layerid="12" id="gge2105" /><path d="M 4045.7878 3293.6716 A 0.0984 0.0984 0 1 0 4045.5909 3293.6716" locked="0"  fill="none" stroke-width="1" c_helper_type="arc2" net="" layerid="12" id="gge2106" /><path d="M 4129.8476 3155.9716 A 6.9685 6.9685 0 1 0 4115.9106 3155.9716" locked="0"  fill="none" stroke-width="1" c_helper_type="arc2" net="" layerid="12" id="gge2107" /><path d="M 4115.9106 3155.9716 A 6.9685 6.9685 0 1 0 4129.8476 3155.9716" locked="0"  fill="none" stroke-width="1" c_helper_type="arc2" net="" layerid="12" id="gge2108" /><path d="M 4436.2476 3409.7716 A 6.9685 6.9685 0 1 0 4422.3106 3409.7716" locked="0"  fill="none" stroke-width="1" c_helper_type="arc2" net="" layerid="12" id="gge2113" /><path d="M 4422.3106 3409.7716 A 6.9685 6.9685 0 1 0 4436.2476 3409.7716" locked="0"  fill="none" stroke-width="1" c_helper_type="arc2" net="" layerid="12" id="gge2114" /><path d="M 4436.1492 3409.7716 A 0.0984 0.0984 0 1 0 4436.346 3409.7716" locked="0"  fill="none" stroke-width="1" c_helper_type="arc2" net="" layerid="12" id="gge2115" /><path d="M 4436.346 3409.7716 A 0.0984 0.0984 0 1 0 4436.1492 3409.7716" locked="0"  fill="none" stroke-width="1" c_helper_type="arc2" net="" layerid="12" id="gge2116" /><path d="M 4374.5476 3155.1716 A 6.9685 6.9685 0 1 0 4360.6106 3155.1716" locked="0"  fill="none" stroke-width="1" c_helper_type="arc2" net="" layerid="12" id="gge2119" /><path d="M 4360.6106 3155.1716 A 6.9685 6.9685 0 1 0 4374.5476 3155.1716" locked="0"  fill="none" stroke-width="1" c_helper_type="arc2" net="" layerid="12" id="gge2120" /><path d="M 4374.4492 3155.1716 A 0.0984 0.0984 0 1 0 4374.646 3155.1716" locked="0"  fill="none" stroke-width="1" c_helper_type="arc2" net="" layerid="12" id="gge2121" /><path d="M 4374.646 3155.1716 A 0.0984 0.0984 0 1 0 4374.4492 3155.1716" locked="0"  fill="none" stroke-width="1" c_helper_type="arc2" net="" layerid="12" id="gge2122" /><path d="M 4360.5122 3155.1716 A 0.0984 0.0984 0 1 0 4360.709 3155.1716" locked="0"  fill="none" stroke-width="1" c_helper_type="arc2" net="" layerid="12" id="gge2123" /><path d="M 4360.709 3155.1716 A 0.0984 0.0984 0 1 0 4360.5122 3155.1716" locked="0"  fill="none" stroke-width="1" c_helper_type="arc2" net="" layerid="12" id="gge2124" /><path d="M 4184.7476 3304.0716 A 6.9685 6.9685 0 1 0 4170.8106 3304.0716" locked="0"  fill="none" stroke-width="1" c_helper_type="arc2" net="" layerid="12" id="gge2125" /><path d="M 4170.8106 3304.0716 A 6.9685 6.9685 0 1 0 4184.7476 3304.0716" locked="0"  fill="none" stroke-width="1" c_helper_type="arc2" net="" layerid="12" id="gge2126" /><path d="M 4184.6492 3304.0716 A 0.0984 0.0984 0 1 0 4184.846 3304.0716" locked="0"  fill="none" stroke-width="1" c_helper_type="arc2" net="" layerid="12" id="gge2127" /><path d="M 4184.846 3304.0716 A 0.0984 0.0984 0 1 0 4184.6492 3304.0716" locked="0"  fill="none" stroke-width="1" c_helper_type="arc2" net="" layerid="12" id="gge2128" /><path d="M 4170.7122 3304.0716 A 0.0984 0.0984 0 1 0 4170.909 3304.0716" locked="0"  fill="none" stroke-width="1" c_helper_type="arc2" net="" layerid="12" id="gge2129" /><path d="M 4170.909 3304.0716 A 0.0984 0.0984 0 1 0 4170.7122 3304.0716" locked="0"  fill="none" stroke-width="1" c_helper_type="arc2" net="" layerid="12" id="gge2130" /></svg>