<svg xmlns="http://www.w3.org/2000/svg" xmlns:xlink="http://www.w3.org/1999/xlink" width="132.283mm" height="98.069mm" viewBox="4002.1 3088.7 520.8 386.1"><title></title><style type="text/css">
*[layerid="1"] {stroke:#000000;fill:#000000;}
*[layerid="2"] {stroke:#000000;fill:#000000;}
*[layerid="3"] {stroke:#000000;fill:#000000;}
*[layerid="4"] {stroke:#000000;fill:#000000;}
*[layerid="5"] {stroke:#000000;fill:#000000;}
*[layerid="6"] {stroke:#000000;fill:#000000;}
*[layerid="7"] {stroke:#000000;fill:#000000;}
*[layerid="8"] {stroke:#000000;fill:#000000;}
*[layerid="9"] {stroke:#000000;fill:#000000;}
*[layerid="10"] {stroke:#000000;fill:#000000;}
*[layerid="11"] {stroke:#000000;fill:#000000;}
*[layerid="12"] {stroke:#000000;fill:#000000;}
*[layerid="13"] {stroke:#000000;fill:#000000;}
*[layerid="14"] {stroke:#000000;fill:#000000;}
*[layerid="15"] {stroke:#000000;fill:#000000;}
*[layerid="19"] {stroke:#000000;fill:#000000;}
*[layerid="21"] {stroke:#000000;fill:#000000;}
*[layerid="22"] {stroke:#000000;fill:#000000;}
*[layerid="23"] {stroke:#000000;fill:#000000;}
*[layerid="24"] {stroke:#000000;fill:#000000;}
*[layerid="25"] {stroke:#000000;fill:#000000;}
*[layerid="26"] {stroke:#000000;fill:#000000;}
*[layerid="27"] {stroke:#000000;fill:#000000;}
*[layerid="28"] {stroke:#000000;fill:#000000;}
*[layerid="29"] {stroke:#000000;fill:#000000;}
*[layerid="30"] {stroke:#000000;fill:#000000;}
*[layerid="31"] {stroke:#000000;fill:#000000;}
*[layerid="32"] {stroke:#000000;fill:#000000;}
*[layerid="33"] {stroke:#000000;fill:#000000;}
*[layerid="34"] {stroke:#000000;fill:#000000;}
*[layerid="35"] {stroke:#000000;fill:#000000;}
*[layerid="36"] {stroke:#000000;fill:#000000;}
*[layerid="37"] {stroke:#000000;fill:#000000;}
*[layerid="38"] {stroke:#000000;fill:#000000;}
*[layerid="39"] {stroke:#000000;fill:#000000;}
*[layerid="40"] {stroke:#000000;fill:#000000;}
*[layerid="41"] {stroke:#000000;fill:#000000;}
*[layerid="42"] {stroke:#000000;fill:#000000;}
*[layerid="43"] {stroke:#000000;fill:#000000;}
*[layerid="44"] {stroke:#000000;fill:#000000;}
*[layerid="45"] {stroke:#000000;fill:#000000;}
*[layerid="46"] {stroke:#000000;fill:#000000;}
*[layerid="47"] {stroke:#000000;fill:#000000;}
*[layerid="48"] {stroke:#000000;fill:#000000;}
*[layerid="49"] {stroke:#000000;fill:#000000;}
*[layerid="50"] {stroke:#000000;fill:#000000;}
*[layerid="51"] {stroke:#000000;fill:#000000;}
*[layerid="52"] {stroke:#000000;fill:#000000;}
*[layerid="99"] {stroke:#000000;fill:#000000;}
*[layerid="100"] {stroke:#000000;fill:#000000;}
*[layerid="Hole"] {stroke:#000000;fill:#000000;}
*[layerid="DRCError"] {stroke:#000000;fill:#000000;}
*[fill="none"] {fill: none;}
*[stroke="none"] {stroke: none;}
path, polyline, polygon, line {stroke-linecap:round;}
g[c_partid="part_pad"][layerid="1"] ellipse:not([c_etype="pad_outer"]) {fill:#000000;}
g[c_partid="part_pad"][layerid="1"] polygon:not([c_etype="pad_outer"]) {fill:#000000;}
g[c_partid="part_pad"][layerid="1"] polyline:not([c_etype="pad_outer"]) {stroke:#000000;}
g[c_partid="part_pad"][layerid="2"] ellipse:not([c_etype="pad_outer"]) {fill:#000000;}
g[c_partid="part_pad"][layerid="2"] polygon:not([c_etype="pad_outer"]) {fill:#000000;}
g[c_partid="part_pad"][layerid="2"] polyline:not([c_etype="pad_outer"]) {stroke:#000000;}
g[c_partid="part_pad"][layerid="11"] ellipse:not([c_etype="pad_outer"]) {fill:#000000;}
g[c_partid="part_pad"][layerid="11"] polygon:not([c_etype="pad_outer"]) {fill:#000000;}
g[c_partid="part_pad"][layerid="11"] polyline:not([c_etype="pad_outer"]) {stroke:#000000;}
g[c_partid="part_pad"][layerid="11"] circle {fill:#FFFFFF;}
g[c_partid="part_pad"][layerid="11"] > polyline:nth-of-type(2) {stroke:#FFFFFF;}
g[c_partid="part_pad"][layerid="11"][c_shape="ELLIPSE"]  polyline:nth-last-of-type(1) {stroke:#FFFFFF;}
g[c_partid="part_pad"][layerid="11"][c_shape="RECT"]  polyline:nth-last-of-type(1) {stroke:#FFFFFF;}
g[c_partid="part_pad"][layerid="11"][c_shape="POLYGON"]  polyline:nth-last-of-type(1) {stroke:#FFFFFF;}
g[c_partid="part_via"] > * + circle, #gCurParts g[c_partid="part_via"] > * + circle {fill:#FFFFFF;}
g[c_partid="part_pad"] > polygon[c_etype="pad_outer"], #gCurParts g[c_partid="part_pad"] > polygon[c_etype="pad_outer"] {stroke-linejoin: miter;stroke-miterlimit: 100;}
g[c_partid="part_hole"] > circle {fill: #FFFFFF;}path, polyline, polygon {stroke-linejoin:round;}
rect, circle, ellipse, polyline, line, polygon, path {shape-rendering:crispEdges;}
</style>
<rect x="4002.1" y="3088.7" width="520.8" height="386.1" fill="#FFFFFF" stroke="none"/><path d="M4477.3467,3419.9646L4477.3467,3320.6393M4477.3467,3242.912L4477.3467,3143.5867M4478.8467,3413.9646L4477.3467,3419.9646L4475.8467,3413.9646M4478.8467,3149.5867L4477.3467,3143.5867L4475.8467,3149.5867M 4487.4387 3251.2753L4477.8887 3246.7253 M 4487.4387 3244.9153L4487.4387 3251.2753 M 4487.4387 3257.0053L4486.9787 3255.6353 L4485.6187 3254.7253 L4483.3487 3254.2753 L4481.9787 3254.2753 L4479.7087 3254.7253 L4478.3487 3255.6353 L4477.8887 3257.0053 L4477.8887 3257.9153 L4478.3487 3259.2753 L4479.7087 3260.1853 L4481.9787 3260.6353 L4483.3487 3260.6353 L4485.6187 3260.1853 L4486.9787 3259.2753 L4487.4387 3257.9153 L4487.4387 3257.0053 M 4480.1687 3264.0953L4479.7087 3263.6353 L4479.2587 3264.0953 L4479.7087 3264.5453 L4480.1687 3264.0953 M 4485.1687 3268.0053L4485.6187 3268.0053 L4486.5287 3268.4553 L4486.9787 3268.9153 L4487.4387 3269.8253 L4487.4387 3271.6353 L4486.9787 3272.5453 L4486.5287 3273.0053 L4485.6187 3273.4553 L4484.7087 3273.4553 L4483.7987 3273.0053 L4482.4387 3272.0953 L4477.8887 3267.5453 L4477.8887 3273.9153 M 4487.4387 3279.6353L4486.9787 3278.2753 L4485.6187 3277.3653 L4483.3487 3276.9153 L4481.9787 3276.9153 L4479.7087 3277.3653 L4478.3487 3278.2753 L4477.8887 3279.6353 L4477.8887 3280.5453 L4478.3487 3281.9153 L4479.7087 3282.8253 L4481.9787 3283.2753 L4483.3487 3283.2753 L4485.6187 3282.8253 L4486.9787 3281.9153 L4487.4387 3280.5453 L4487.4387 3279.6353 M 4487.4387 3289.0053L4486.9787 3287.6353 L4485.6187 3286.7253 L4483.3487 3286.2753 L4481.9787 3286.2753 L4479.7087 3286.7253 L4478.3487 3287.6353 L4477.8887 3289.0053 L4477.8887 3289.9153 L4478.3487 3291.2753 L4479.7087 3292.1853 L4481.9787 3292.6353 L4483.3487 3292.6353 L4485.6187 3292.1853 L4486.9787 3291.2753 L4487.4387 3289.9153 L4487.4387 3289.0053 M 4484.2587 3295.6353L4477.8887 3295.6353 M 4482.4387 3295.6353L4483.7987 3297.0053 L4484.2587 3297.9153 L4484.2587 3299.2753 L4483.7987 3300.1853 L4482.4387 3300.6353 L4477.8887 3300.6353 M 4482.4387 3300.6353L4483.7987 3302.0053 L4484.2587 3302.9153 L4484.2587 3304.2753 L4483.7987 3305.1853 L4482.4387 3305.6353 L4477.8887 3305.6353 M 4484.2587 3308.6353L4477.8887 3308.6353 M 4482.4387 3308.6353L4483.7987 3310.0053 L4484.2587 3310.9153 L4484.2587 3312.2753 L4483.7987 3313.1853 L4482.4387 3313.6353 L4477.8887 3313.6353 M 4482.4387 3313.6353L4483.7987 3315.0053 L4484.2587 3315.9153 L4484.2587 3317.2753 L4483.7987 3318.1853 L4482.4387 3318.6353 L4477.8887 3318.6353 M 4408.5826 3419.9646 4487.3467 3419.9646 M 4408.5826 3143.5867 4487.3467 3143.5867" stroke-width="0.4" fill="none" c_shapetype="group" layerid="13" c_fontsize="" id="gge4705" locked="1" measuring_type="vertical"/><path d="M 4438.5038 3454.8014 L 4281.5787 3454.8014 M 4198.5787 3454.8014 L 4041.6535 3454.8014 M 4432.5038 3453.3014 L 4438.5038 3454.8014 L 4432.5038 3456.3014 M 4047.6535 3453.3014 L 4041.6535 3454.8014 L 4047.6535 3456.3014 M 4200.5826 3446.53 L 4201.4926 3446.07 L 4202.8526 3444.71 L 4202.8526 3454.26 M 4208.5826 3444.71 L 4207.2126 3445.17 L 4206.3026 3446.53 L 4205.8526 3448.8 L 4205.8526 3450.17 L 4206.3026 3452.44 L 4207.2126 3453.8 L 4208.5826 3454.26 L 4209.4926 3454.26 L 4210.8526 3453.8 L 4211.7626 3452.44 L 4212.2126 3450.17 L 4212.2126 3448.8 L 4211.7626 3446.53 L 4210.8526 3445.17 L 4209.4926 3444.71 L 4208.5826 3444.71 M 4217.9426 3444.71 L 4216.5826 3445.17 L 4215.6726 3446.53 L 4215.2126 3448.8 L 4215.2126 3450.17 L 4215.6726 3452.44 L 4216.5826 3453.8 L 4217.9426 3454.26 L 4218.8526 3454.26 L 4220.2126 3453.8 L 4221.1226 3452.44 L 4221.5826 3450.17 L 4221.5826 3448.8 L 4221.1226 3446.53 L 4220.2126 3445.17 L 4218.8526 3444.71 L 4217.9426 3444.71 M 4225.0326 3451.98 L 4224.5826 3452.44 L 4225.0326 3452.89 L 4225.4926 3452.44 L 4225.0326 3451.98 M 4230.7626 3444.71 L 4229.3926 3445.17 L 4228.9426 3446.07 L 4228.9426 3446.98 L 4229.3926 3447.89 L 4230.3026 3448.35 L 4232.1226 3448.8 L 4233.4926 3449.26 L 4234.3926 3450.17 L 4234.8526 3451.07 L 4234.8526 3452.44 L 4234.3926 3453.35 L 4233.9426 3453.8 L 4232.5826 3454.26 L 4230.7626 3454.26 L 4229.3926 3453.8 L 4228.9426 3453.35 L 4228.4926 3452.44 L 4228.4926 3451.07 L 4228.9426 3450.17 L 4229.8526 3449.26 L 4231.2126 3448.8 L 4233.0326 3448.35 L 4233.9426 3447.89 L 4234.3926 3446.98 L 4234.3926 3446.07 L 4233.9426 3445.17 L 4232.5826 3444.71 L 4230.7626 3444.71 M 4240.5826 3444.71 L 4239.2126 3445.17 L 4238.3026 3446.53 L 4237.8526 3448.8 L 4237.8526 3450.17 L 4238.3026 3452.44 L 4239.2126 3453.8 L 4240.5826 3454.26 L 4241.4926 3454.26 L 4242.8526 3453.8 L 4243.7626 3452.44 L 4244.2126 3450.17 L 4244.2126 3448.8 L 4243.7626 3446.53 L 4242.8526 3445.17 L 4241.4926 3444.71 L 4240.5826 3444.71 M 4249.9426 3444.71 L 4248.5826 3445.17 L 4247.6726 3446.53 L 4247.2126 3448.8 L 4247.2126 3450.17 L 4247.6726 3452.44 L 4248.5826 3453.8 L 4249.9426 3454.26 L 4250.8526 3454.26 L 4252.2126 3453.8 L 4253.1226 3452.44 L 4253.5826 3450.17 L 4253.5826 3448.8 L 4253.1226 3446.53 L 4252.2126 3445.17 L 4250.8526 3444.71 L 4249.9426 3444.71 M 4256.5826 3447.89 L 4256.5826 3454.26 M 4256.5826 3449.71 L 4257.9426 3448.35 L 4258.8526 3447.89 L 4260.2126 3447.89 L 4261.1226 3448.35 L 4261.5826 3449.71 L 4261.5826 3454.26 M 4261.5826 3449.71 L 4262.9426 3448.35 L 4263.8526 3447.89 L 4265.2126 3447.89 L 4266.1226 3448.35 L 4266.5826 3449.71 L 4266.5826 3454.26 M 4269.5826 3447.89 L 4269.5826 3454.26 M 4269.5826 3449.71 L 4270.9426 3448.35 L 4271.8526 3447.89 L 4273.2126 3447.89 L 4274.1226 3448.35 L 4274.5826 3449.71 L 4274.5826 3454.26 M 4274.5826 3449.71 L 4275.9426 3448.35 L 4276.8526 3447.89 L 4278.2126 3447.89 L 4279.1226 3448.35 L 4279.5826 3449.71 L 4279.5826 3454.26 M 4438.5038 3399.8858 L 4438.5038 3464.8014 M 4041.6535 3399.8858 L 4041.6535 3464.8014" stroke-width="0.4" fill="none" c_shapetype="group" layerid="13" c_fontsize="" id="gge5128" locked="1" measuring_type="level"/><path d="M4459.8169,3153.0355L4459.8169,3242.912M4459.8169,3320.6393L4459.8169,3410.5158M4458.3169,3159.0355L4459.8169,3153.0355L4461.3169,3159.0355M4458.3169,3404.5158L4459.8169,3410.5158L4461.3169,3404.5158M 4451.0876 3313.1862L4450.1776 3313.6362 L4449.7276 3315.0062 L4449.7276 3315.9162 L4450.1776 3317.2762 L4451.5476 3318.1862 L4453.8176 3318.6362 L4456.0876 3318.6362 L4457.9076 3318.1862 L4458.8176 3317.2762 L4459.2676 3315.9162 L4459.2676 3315.4562 L4458.8176 3314.0962 L4457.9076 3313.1862 L4456.5476 3312.7262 L4456.0876 3312.7262 L4454.7276 3313.1862 L4453.8176 3314.0962 L4453.3576 3315.4562 L4453.3576 3315.9162 L4453.8176 3317.2762 L4454.7276 3318.1862 L4456.0876 3318.6362 M 4449.7276 3304.2762L4449.7276 3308.8162 L4453.8176 3309.2762 L4453.3576 3308.8162 L4452.9076 3307.4562 L4452.9076 3306.0962 L4453.3576 3304.7262 L4454.2676 3303.8162 L4455.6376 3303.3662 L4456.5476 3303.3662 L4457.9076 3303.8162 L4458.8176 3304.7262 L4459.2676 3306.0962 L4459.2676 3307.4562 L4458.8176 3308.8162 L4458.3576 3309.2762 L4457.4576 3309.7262 M 4456.9976 3299.9162L4457.4576 3300.3662 L4457.9076 3299.9162 L4457.4576 3299.4562 L4456.9976 3299.9162 M 4449.7276 3291.9162L4456.0876 3296.4562 L4456.0876 3289.6362 M 4449.7276 3291.9162L4459.2676 3291.9162 M 4449.7276 3283.9162L4450.1776 3285.2762 L4451.5476 3286.1862 L4453.8176 3286.6362 L4455.1776 3286.6362 L4457.4576 3286.1862 L4458.8176 3285.2762 L4459.2676 3283.9162 L4459.2676 3283.0062 L4458.8176 3281.6362 L4457.4576 3280.7262 L4455.1776 3280.2762 L4453.8176 3280.2762 L4451.5476 3280.7262 L4450.1776 3281.6362 L4449.7276 3283.0062 L4449.7276 3283.9162 M 4449.7276 3274.5462L4450.1776 3275.9162 L4451.5476 3276.8162 L4453.8176 3277.2762 L4455.1776 3277.2762 L4457.4576 3276.8162 L4458.8176 3275.9162 L4459.2676 3274.5462 L4459.2676 3273.6362 L4458.8176 3272.2762 L4457.4576 3271.3662 L4455.1776 3270.9162 L4453.8176 3270.9162 L4451.5476 3271.3662 L4450.1776 3272.2762 L4449.7276 3273.6362 L4449.7276 3274.5462 M 4452.9076 3267.9162L4459.2676 3267.9162 M 4454.7276 3267.9162L4453.3576 3266.5462 L4452.9076 3265.6362 L4452.9076 3264.2762 L4453.3576 3263.3662 L4454.7276 3262.9162 L4459.2676 3262.9162 M 4454.7276 3262.9162L4453.3576 3261.5462 L4452.9076 3260.6362 L4452.9076 3259.2762 L4453.3576 3258.3662 L4454.7276 3257.9162 L4459.2676 3257.9162 M 4452.9076 3254.9162L4459.2676 3254.9162 M 4454.7276 3254.9162L4453.3576 3253.5462 L4452.9076 3252.6362 L4452.9076 3251.2762 L4453.3576 3250.3662 L4454.7276 3249.9162 L4459.2676 3249.9162 M 4454.7276 3249.9162L4453.3576 3248.5462 L4452.9076 3247.6362 L4452.9076 3246.2762 L4453.3576 3245.3662 L4454.7276 3244.9162 L4459.2676 3244.9162 M 4428.6613 3153.0355 4469.8169 3153.0355 M 4429.8424 3410.5158 4469.8169 3410.5158" stroke-width="0.4" fill="none" c_shapetype="group" layerid="13" c_fontsize="" id="gge5200" locked="1" measuring_type="vertical"/><path d="M4428.6613,3436.753L4279.7297,3436.753M4202.0025,3436.753L4053.0709,3436.753M4422.6613,3435.253L4428.6613,3436.753L4422.6613,3438.253M4059.0709,3435.253L4053.0709,3436.753L4059.0709,3438.253M 4209.91 3429.84L4209.46 3431.21 L4208.55 3432.12 L4207.18 3432.57 L4206.73 3432.57 L4205.37 3432.12 L4204.46 3431.21 L4204 3429.84 L4204 3429.39 L4204.46 3428.03 L4205.37 3427.12 L4206.73 3426.66 L4207.18 3426.66 L4208.55 3427.12 L4209.46 3428.03 L4209.91 3429.84 L4209.91 3432.12 L4209.46 3434.39 L4208.55 3435.75 L4207.18 3436.21 L4206.28 3436.21 L4204.91 3435.75 L4204.46 3434.84 M 4218.37 3426.66L4213.82 3426.66 L4213.37 3430.75 L4213.82 3430.3 L4215.18 3429.84 L4216.55 3429.84 L4217.91 3430.3 L4218.82 3431.21 L4219.28 3432.57 L4219.28 3433.48 L4218.82 3434.84 L4217.91 3435.75 L4216.55 3436.21 L4215.18 3436.21 L4213.82 3435.75 L4213.37 3435.3 L4212.91 3434.39 M 4222.73 3433.93L4222.28 3434.39 L4222.73 3434.84 L4223.18 3434.39 L4222.73 3433.93 M 4230.73 3426.66L4226.18 3433.03 L4233 3433.03 M 4230.73 3426.66L4230.73 3436.21 M 4238.73 3426.66L4237.37 3427.12 L4236.46 3428.48 L4236 3430.75 L4236 3432.12 L4236.46 3434.39 L4237.37 3435.75 L4238.73 3436.21 L4239.64 3436.21 L4241 3435.75 L4241.91 3434.39 L4242.37 3432.12 L4242.37 3430.75 L4241.91 3428.48 L4241 3427.12 L4239.64 3426.66 L4238.73 3426.66 M 4248.09 3426.66L4246.73 3427.12 L4245.82 3428.48 L4245.37 3430.75 L4245.37 3432.12 L4245.82 3434.39 L4246.73 3435.75 L4248.09 3436.21 L4249 3436.21 L4250.37 3435.75 L4251.28 3434.39 L4251.73 3432.12 L4251.73 3430.75 L4251.28 3428.48 L4250.37 3427.12 L4249 3426.66 L4248.09 3426.66 M 4254.73 3429.84L4254.73 3436.21 M 4254.73 3431.66L4256.09 3430.3 L4257 3429.84 L4258.37 3429.84 L4259.28 3430.3 L4259.73 3431.66 L4259.73 3436.21 M 4259.73 3431.66L4261.09 3430.3 L4262 3429.84 L4263.37 3429.84 L4264.28 3430.3 L4264.73 3431.66 L4264.73 3436.21 M 4267.73 3429.84L4267.73 3436.21 M 4267.73 3431.66L4269.09 3430.3 L4270 3429.84 L4271.37 3429.84 L4272.28 3430.3 L4272.73 3431.66 L4272.73 3436.21 M 4272.73 3431.66L4274.09 3430.3 L4275 3429.84 L4276.37 3429.84 L4277.28 3430.3 L4277.73 3431.66 L4277.73 3436.21 M 4428.6613 3409.3347 4428.6613 3446.753 M 4053.0709 3409.3347 4053.0709 3446.753" stroke-width="0.4" fill="none" c_shapetype="group" layerid="13" c_fontsize="" id="gge5201" locked="1" measuring_type="level"/><polyline points="4439.296 3414.0982 4439.296 3149.1482" stroke-width="1"  stroke-linecap="round" fill="none" layerid="10" net="S$4539" id="gge4540" locked="1" /><polyline points="4042.5937 3149.1382 4042.5937 3414.1377" stroke-width="1"  stroke-linecap="round" fill="none" layerid="10" net="S$4543" id="gge4544" locked="1" /><polyline points="4048.4255 3143.3064 4433.4542 3143.3064" stroke-width="1"  stroke-linecap="round" fill="none" layerid="10" net="S$4522" id="gge4523" locked="1" /><polyline points="4048.4251 3419.9699 4433.4243 3419.9699" stroke-width="1"  stroke-linecap="round" fill="none" layerid="10" net="S$4535" id="gge4536" locked="1" /><path d="M4433.4594 3143.3116A5.8318 5.8318 0 0 1 4439.2912 3149.1434" locked="1"  fill="none" stroke-width="1" c_helper_type="arc2" net="S$4515" layerid="10" id="gge4516" /><path d="M 4042.5937 3149.1382 A 5.8318 5.8318 0 0 1 4048.4255 3143.3064" locked="1"  fill="none" stroke-width="1" c_helper_type="arc2" net="S$4515" layerid="10" id="gge4520" /><path d="M4433.4542 3143.3064A0.0052 0.0052 0 0 1 4433.4594 3143.3116" locked="1"  fill="none" stroke-width="1" c_helper_type="arc2" net="S$4522" layerid="10" id="gge4524" /><path d="M 4048.4251 3419.9699 A 5.8318 5.8318 0 0 1 4042.5933 3414.1381" locked="1"  fill="none" stroke-width="1" c_helper_type="arc2" net="S$4515" layerid="10" id="gge4527" /><path d="M 4439.296 3414.0982 A 5.8318 5.8318 0 0 1 4433.4642 3419.93" locked="1"  fill="none" stroke-width="1" c_helper_type="arc2" net="S$4515" layerid="10" id="gge4533" /><path d="M4433.4243 3419.9699A0.0399 0.0399 0 0 0 4433.4642 3419.93" locked="1"  fill="none" stroke-width="1" c_helper_type="arc2" net="S$4535" layerid="10" id="gge4537" /><path d="M4439.296 3149.1482A0.0048 0.0048 0 0 0 4439.2912 3149.1434" locked="1"  fill="none" stroke-width="1" c_helper_type="arc2" net="S$4539" layerid="10" id="gge4541" /><path d="M4042.5937 3414.1377A0.0004 0.0004 0 0 1 4042.5933 3414.1381" locked="1"  fill="none" stroke-width="1" c_helper_type="arc2" net="S$4543" layerid="10" id="gge4545" /></svg>