<svg version="1.1" xmlns="http://www.w3.org/2000/svg" xmlns:xlink="http://www.w3.org/1999/xlink" stroke-linecap="round" stroke-linejoin="round" stroke-width="0" fill-rule="evenodd" width="101.4289965mm" height="70.9799965mm" viewBox="-330.9985 -324.998 101428.9965 70979.9965" id="T7QeGQOcOW01GQPIQ9LQ"><defs><circle cx="0" cy="0" r="1351.5975" id="T7QeGQOcOW01GQPIQ9LQ_pad-83"/><circle cx="0" cy="0" r="889" id="T7QeGQOcOW01GQPIQ9LQ_pad-87"/><circle cx="0" cy="0" r="1001.598" id="T7QeGQOcOW01GQPIQ9LQ_pad-98"/><circle cx="0" cy="0" r="1401.5975" id="T7QeGQOcOW01GQPIQ9LQ_pad-100"/><rect x="-1001.598" y="-889" width="2003.196" height="1778" id="T7QeGQOcOW01GQPIQ9LQ_pad-117"/><circle cx="0" cy="0" r="1501.648" id="T7QeGQOcOW01GQPIQ9LQ_pad-118"/><circle cx="0" cy="0" r="651.599" id="T7QeGQOcOW01GQPIQ9LQ_pad-120"/></defs><g transform="translate(0,70330.0005) scale(1,-1)" fill="currentColor" stroke="currentColor"><path d="M 99023 48481 98223 48481 M 99023 39841 98223 39841 M 95023 48481 93923 48481 M 95023 39841 93923 39841" fill="none" stroke-width="1203.198"/><path d="M 21366 33572 21366 32372 M 20096 33572 20096 32372 M 18826 33572 18826 32372 M 17556 33572 17556 32372 M 21366 27629 21366 26429 M 20096 27629 20096 26429 M 18826 27629 18826 26429 M 17556 27629 17556 26429 M 87141 50696 88061 50696 M 87141 51966 88061 51966 M 87141 53236 88061 53236 M 87141 54506 88061 54506 M 81661 50696 82581 50696 M 81661 51966 82581 51966 M 81661 53236 82581 53236 M 81661 54506 82581 54506 M 87141 57896 88061 57896 M 87141 59166 88061 59166 M 87141 60436 88061 60436 M 87141 61706 88061 61706 M 81661 57896 82581 57896 M 81661 59166 82581 59166 M 81661 60436 82581 60436 M 81661 61706 82581 61706" fill="none" stroke-width="803.199"/><path d="M 68911 20191 68911 21711 M 68411 20191 68411 21711 M 67911 20191 67911 21711 M 67411 20191 67411 21711 M 66911 20191 66911 21711 M 66411 20191 66411 21711 M 65911 20191 65911 21711 M 65411 20191 65411 21711 M 64911 20191 64911 21711 M 64411 20191 64411 21711 M 63911 20191 63911 21711 M 63411 20191 63411 21711 M 62911 20191 62911 21711 M 62411 20191 62411 21711 M 61911 20191 61911 21711 M 61411 20191 61411 21711 M 60371 22751 58851 22751 M 60371 23251 58851 23251 M 60371 23751 58851 23751 M 60371 24251 58851 24251 M 60371 24751 58851 24751 M 60371 25251 58851 25251 M 60371 25751 58851 25751 M 60371 26251 58851 26251 M 60371 26751 58851 26751 M 60371 27251 58851 27251 M 60371 27751 58851 27751 M 60371 28251 58851 28251 M 60371 28751 58851 28751 M 60371 29251 58851 29251 M 60371 29751 58851 29751 M 60371 30251 58851 30251 M 61411 31291 61411 32811 M 61911 31291 61911 32811 M 62411 31291 62411 32811 M 62911 31291 62911 32811 M 63411 31291 63411 32811 M 63911 31291 63911 32811 M 64411 31291 64411 32811 M 64911 31291 64911 32811 M 65411 31291 65411 32811 M 65911 31291 65911 32811 M 66411 31291 66411 32811 M 66911 31291 66911 32811 M 67411 31291 67411 32811 M 67911 31291 67911 32811 M 68411 31291 68411 32811 M 68911 31291 68911 32811 M 71471 30251 69951 30251 M 71471 29751 69951 29751 M 71471 29251 69951 29251 M 71471 28751 69951 28751 M 71471 28251 69951 28251 M 71471 27751 69951 27751 M 71471 27251 69951 27251 M 71471 26751 69951 26751 M 71471 26251 69951 26251 M 71471 25751 69951 25751 M 71471 25251 69951 25251 M 71471 24751 69951 24751 M 71471 24251 69951 24251 M 71471 23751 69951 23751 M 71471 23251 69951 23251 M 71471 22751 69951 22751 M 30060 50611 30060 49991 M 30560 50611 30560 49991 M 31060 50611 31060 49991 M 31561 50611 31561 49991 M 32061 50611 32061 49991 M 32561 50611 32561 49991 M 33062 50611 33062 49991 M 33751 49302 34371 49302 M 33751 48802 34371 48802 M 33751 48301 34371 48301 M 33751 47801 34371 47801 M 33751 47301 34371 47301 M 33751 46800 34371 46800 M 33751 46300 34371 46300 M 33062 45611 33062 44991 M 32561 45611 32561 44991 M 32061 45611 32061 44991 M 31561 45611 31561 44991 M 31060 45611 31060 44991 M 30560 45611 30560 44991 M 30060 45611 30060 44991 M 28751 46300 29371 46300 M 28751 46800 29371 46800 M 28751 47301 29371 47301 M 28751 47801 29371 47801 M 28751 48301 29371 48301 M 28751 48802 29371 48802 M 28751 49302 29371 49302 M 12460 46711 12460 46091 M 12960 46711 12960 46091 M 13460 46711 13460 46091 M 13961 46711 13961 46091 M 14461 46711 14461 46091 M 14962 46711 14962 46091 M 15462 46711 15462 46091 M 16151 45402 16771 45402 M 16151 44902 16771 44902 M 16151 44401 16771 44401 M 16151 43901 16771 43901 M 16151 43400 16771 43400 M 16151 42900 16771 42900 M 16151 42400 16771 42400 M 15462 41711 15462 41091 M 14962 41711 14962 41091 M 14461 41711 14461 41091 M 13961 41711 13961 41091 M 13460 41711 13460 41091 M 12960 41711 12960 41091 M 12460 41711 12460 41091 M 11151 42400 11771 42400 M 11151 42900 11771 42900 M 11151 43400 11771 43400 M 11151 43901 11771 43901 M 11151 44401 11771 44401 M 11151 44902 11771 44902 M 11151 45402 11771 45402 M 70460 50611 70460 49991 M 70960 50611 70960 49991 M 71461 50611 71461 49991 M 71961 50611 71961 49991 M 72461 50611 72461 49991 M 72962 50611 72962 49991 M 73462 50611 73462 49991 M 74151 49302 74771 49302 M 74151 48802 74771 48802 M 74151 48301 74771 48301 M 74151 47801 74771 47801 M 74151 47301 74771 47301 M 74151 46800 74771 46800 M 74151 46300 74771 46300 M 73462 45611 73462 44991 M 72962 45611 72962 44991 M 72461 45611 72461 44991 M 71961 45611 71961 44991 M 71461 45611 71461 44991 M 70960 45611 70960 44991 M 70460 45611 70460 44991 M 69151 46300 69771 46300 M 69151 46800 69771 46800 M 69151 47301 69771 47301 M 69151 47801 69771 47801 M 69151 48301 69771 48301 M 69151 48802 69771 48802 M 69151 49302 69771 49302 M 50260 50611 50260 49991 M 50760 50611 50760 49991 M 51260 50611 51260 49991 M 51761 50611 51761 49991 M 52261 50611 52261 49991 M 52762 50611 52762 49991 M 53262 50611 53262 49991 M 53951 49302 54571 49302 M 53951 48802 54571 48802 M 53951 48301 54571 48301 M 53951 47801 54571 47801 M 53951 47301 54571 47301 M 53951 46800 54571 46800 M 53951 46300 54571 46300 M 53262 45611 53262 44991 M 52762 45611 52762 44991 M 52261 45611 52261 44991 M 51761 45611 51761 44991 M 51260 45611 51260 44991 M 50760 45611 50760 44991 M 50260 45611 50260 44991 M 48951 46300 49571 46300 M 48951 46800 49571 46800 M 48951 47301 49571 47301 M 48951 47801 49571 47801 M 48951 48301 49571 48301 M 48951 48802 49571 48802 M 48951 49302 49571 49302" fill="none" stroke-width="483.21"/><path d="M 93222 40558 93222 41363 94576 41363 94576 40558 93222 40558"/><path d="M 93222 41358 93222 42163 94576 42163 94576 41358 93222 41358"/><path d="M 93222 46959 93222 47762 94576 47762 94576 46959 93222 46959"/><path d="M 93222 46159 93222 46962 94576 46962 94576 46159 93222 46159"/><path d="M 93146 45659 93146 46161 94649 46161 94649 45659 93146 45659"/><path d="M 93222 45158 93222 45664 94576 45664 94576 45158 93222 45158"/><path d="M 93146 44660 93146 45163 94649 45163 94649 44660 93146 44660"/><path d="M 93146 44160 93146 44663 94649 44663 94649 44160 93146 44160"/><path d="M 93146 43660 93146 44162 94649 44162 94649 43660 93146 43660"/><path d="M 93146 43159 93146 43662 94649 43662 94649 43159 93146 43159"/><path d="M 93146 42659 93146 43162 94649 43162 94649 42659 93146 42659"/><path d="M 93222 42158 93222 42661 94576 42661 94576 42158 93222 42158"/><path d="M 73684 22600 73684 24203 75038 24203 75038 22600 73684 22600"/><path d="M 75284 20398 75284 21582 75724 22003 76638 22003 76638 20398 75284 20398"/><path d="M 73684 20398 73684 22003 75038 22003 75038 20398 73684 20398"/><path d="M 75284 22600 75284 24203 76638 24203 76638 22600 75284 22600"/><path d="M 82160 39148 82160 41252 83562 41252 83562 39148 82160 39148"/><path d="M 85360 39148 85360 41252 86763 41252 86763 39148 85360 39148"/><path d="M 31959 20825 31959 22578 33163 22578 33163 20825 31959 20825"/><path d="M 29961 20825 29961 22578 31162 22578 31162 20825 29961 20825"/><use xlink:href="#T7QeGQOcOW01GQPIQ9LQ_pad-83" x="11382" y="21825"/><use xlink:href="#T7QeGQOcOW01GQPIQ9LQ_pad-83" x="3382" y="21952"/><path d="M 28419 26603 27573 27810 28945 28770 29788 27564 28419 26603"/><path d="M 30778 23233 29933 24439 31304 25399 32150 24193 30778 23233"/><path d="M 72358 6624 72358 8376 73562 8376 73562 6624 72358 6624"/><path d="M 70359 6624 70359 8376 71563 8376 71563 6624 70359 6624"/><path d="M 78985 10800 78985 12004 80738 12004 80738 10800 78985 10800"/><path d="M 78985 8798 78985 10002 80738 10002 80738 8798 78985 8798"/><path d="M 92508 64899 92508 65803 94012 65803 94012 64899 92508 64899"/><path d="M 86509 64899 86509 65803 88012 65803 88012 64899 86509 64899"/><path d="M 92508 68600 92508 69501 94012 69501 94012 68600 92508 68600"/><path d="M 86509 68600 86509 69501 88012 69501 88012 68600 86509 68600"/><use xlink:href="#T7QeGQOcOW01GQPIQ9LQ_pad-87" x="71341" y="15101"/><use xlink:href="#T7QeGQOcOW01GQPIQ9LQ_pad-87" x="68801" y="15101"/><use xlink:href="#T7QeGQOcOW01GQPIQ9LQ_pad-87" x="66261" y="15101"/><use xlink:href="#T7QeGQOcOW01GQPIQ9LQ_pad-87" x="63721" y="15101"/><path d="M 60291 14211 60291 15989 62069 15989 62069 14211 60291 14211"/><path d="M 82249 44998 82249 46202 83001 46202 83001 44998 82249 44998"/><path d="M 83199 44998 83199 46202 83951 46202 83951 44998 83199 44998"/><path d="M 84149 44998 84149 46202 84901 46202 84901 44998 84149 44998"/><path d="M 84149 42199 84149 43403 84901 43403 84901 42199 84149 42199"/><path d="M 83199 42199 83199 43403 83951 43403 83951 42199 83199 42199"/><path d="M 82249 42199 82249 43403 83001 43403 83001 42199 82249 42199"/><path d="M 24825 26306 24825 27779 26498 27779 26498 26306 24825 26306"/><path d="M 24825 30421 24825 31894 26498 31894 26498 30421 24825 30421"/><path d="M 47360 25849 47360 27152 48563 27152 48563 25849 47360 25849"/><path d="M 45559 25849 45559 27152 46763 27152 46763 25849 45559 25849"/><path d="M 33809 19298 33809 20502 35112 20502 35112 19298 33809 19298"/><path d="M 33809 21099 33809 22303 35112 22303 35112 21099 33809 21099"/><path d="M 83760 46748 83760 48054 84962 48054 84962 46748 83760 46748"/><path d="M 81959 46748 81959 48054 83163 48054 83163 46748 81959 46748"/><path d="M 23158 32550 23158 34653 24563 34653 24563 32550 23158 32550"/><path d="M 26359 32550 26359 34653 27763 34653 27763 32550 26359 32550"/><path d="M 17634 28620 17634 31381 21286 31381 21286 28620 17634 28620"/><path d="M 22610 27698 22610 28902 23913 28902 23913 27698 22610 27698"/><path d="M 22610 29499 22610 30703 23913 30703 23913 29499 22610 29499"/><path d="M 40931 19425 37451 20693 38271 22951 41751 21686 40931 19425"/><path d="M 39760 26448 38536 26893 39359 29151 40583 28707 39760 26448"/><path d="M 41921 25661 40697 26106 41520 28364 42744 27919 41921 25661"/><path d="M 44083 24874 42859 25321 43682 27579 44906 27132 44083 24874"/><path d="M 28409 19499 28409 20502 29112 20502 29112 19499 28409 19499"/><path d="M 27410 19499 27410 20502 28111 20502 28111 19499 27410 19499"/><path d="M 86460 29400 86460 31401 88462 31401 88462 29400 86460 29400"/><use xlink:href="#T7QeGQOcOW01GQPIQ9LQ_pad-98" x="87461" y="32901"/><use xlink:href="#T7QeGQOcOW01GQPIQ9LQ_pad-98" x="87461" y="35401"/><path d="M 86460 8199 86460 10203 88462 10203 88462 8199 86460 8199"/><use xlink:href="#T7QeGQOcOW01GQPIQ9LQ_pad-98" x="87461" y="11701"/><use xlink:href="#T7QeGQOcOW01GQPIQ9LQ_pad-98" x="87461" y="14201"/><path d="M 86460 18798 86460 20802 88462 20802 88462 18798 86460 18798"/><use xlink:href="#T7QeGQOcOW01GQPIQ9LQ_pad-98" x="87461" y="22301"/><use xlink:href="#T7QeGQOcOW01GQPIQ9LQ_pad-98" x="87461" y="24801"/><path d="M 14609 51399 14609 52402 15312 52402 15312 51399 14609 51399"/><path d="M 13608 51399 13608 52402 14312 52402 14312 51399 13608 51399"/><path d="M 18310 45498 18310 46502 19013 46502 19013 45498 18310 45498"/><path d="M 19310 45498 19310 46502 20011 46502 20011 45498 19310 45498"/><path d="M 12610 49900 12610 50904 13313 50904 13313 49900 12610 49900"/><path d="M 13611 49900 13611 50904 14312 50904 14312 49900 13611 49900"/><path d="M 8909 45498 8909 46502 9613 46502 9613 45498 8909 45498"/><path d="M 7908 45498 7908 46502 8612 46502 8612 45498 7908 45498"/><path d="M 32208 55300 32208 56304 32912 56304 32912 55300 32208 55300"/><path d="M 31210 55300 31210 56304 31911 56304 31911 55300 31210 55300"/><path d="M 35909 49400 35909 50403 36613 50403 36613 49400 35909 49400"/><path d="M 36910 49400 36910 50403 37614 50403 37614 49400 36910 49400"/><path d="M 30209 53799 30209 54803 30913 54803 30913 53799 30209 53799"/><path d="M 31210 53799 31210 54803 31914 54803 31914 53799 31210 53799"/><path d="M 26610 49400 26610 50403 27311 50403 27311 49400 26610 49400"/><path d="M 25609 49400 25609 50403 26313 50403 26313 49400 25609 49400"/><path d="M 52409 55300 52409 56304 53113 56304 53113 55300 52409 55300"/><path d="M 51408 55300 51408 56304 52112 56304 52112 55300 51408 55300"/><path d="M 56008 49400 56008 50403 56712 50403 56712 49400 56008 49400"/><path d="M 57009 49400 57009 50403 57713 50403 57713 49400 57009 49400"/><path d="M 50410 53799 50410 54803 51114 54803 51114 53799 50410 53799"/><path d="M 51408 53799 51408 54803 52112 54803 52112 53799 51408 53799"/><path d="M 46808 49400 46808 50403 47512 50403 47512 49400 46808 49400"/><path d="M 45810 49400 45810 50403 46511 50403 46511 49400 45810 49400"/><path d="M 72610 55300 72610 56304 73313 56304 73313 55300 72610 55300"/><path d="M 71609 55300 71609 56304 72312 56304 72312 55300 71609 55300"/><path d="M 76209 49400 76209 50403 76912 50403 76912 49400 76209 49400"/><path d="M 77210 49400 77210 50403 77913 50403 77913 49400 77210 49400"/><path d="M 70608 53799 70608 54803 71312 54803 71312 53799 70608 53799"/><path d="M 71609 53799 71609 54803 72312 54803 72312 53799 71609 53799"/><path d="M 67009 49400 67009 50403 67713 50403 67713 49400 67009 49400"/><path d="M 66008 49400 66008 50403 66712 50403 66712 49400 66008 49400"/><path d="M 73163 13002 73163 14297 74357 14297 74357 13002 73163 13002"/><path d="M 73163 14704 73163 15999 74357 15999 74357 14704 73163 14704"/><use xlink:href="#T7QeGQOcOW01GQPIQ9LQ_pad-100" x="5061" y="14541"/><use xlink:href="#T7QeGQOcOW01GQPIQ9LQ_pad-100" x="5061" y="9461"/><path d="M 17360 36050 17360 36753 18363 36753 18363 36050 17360 36050"/><path d="M 17360 37050 17360 37751 18363 37751 18363 37050 17360 37050"/><path d="M 12508 36700 12508 37703 13212 37703 13212 36700 12508 36700"/><path d="M 11510 36700 11510 37703 12214 37703 12214 36700 11510 36700"/><path d="M 13608 36700 13608 37703 14312 37703 14312 36700 13608 36700"/><path d="M 14609 36700 14609 37703 15312 37703 15312 36700 14609 36700"/><path d="M 29709 45948 29709 49651 33412 49651 33412 45948 29709 45948"/><path d="M 12109 42049 12109 45752 15813 45752 15813 42049 12109 42049"/><path d="M 70110 45951 70110 49654 73814 49654 73814 45951 70110 45951"/><path d="M 49910 45951 49910 49654 53613 49654 53613 45951 49910 45951"/><path d="M 28310 21048 28310 22552 29112 22552 29112 21048 28310 21048"/><path d="M 27360 23449 27360 24952 28162 24952 28162 23449 27360 23449"/><path d="M 26410 21048 26410 22552 27212 22552 27212 21048 26410 21048"/><path d="M 2760 52489 2760 54493 4761 54493 4761 52489 2760 52489"/><use xlink:href="#T7QeGQOcOW01GQPIQ9LQ_pad-98" x="3761" y="56031"/><use xlink:href="#T7QeGQOcOW01GQPIQ9LQ_pad-98" x="3761" y="58571"/><use xlink:href="#T7QeGQOcOW01GQPIQ9LQ_pad-98" x="3761" y="61111"/><path d="M 26750 65498 26750 67503 28751 67503 28751 65498 26750 65498"/><use xlink:href="#T7QeGQOcOW01GQPIQ9LQ_pad-98" x="30291" y="66501"/><use xlink:href="#T7QeGQOcOW01GQPIQ9LQ_pad-98" x="32831" y="66501"/><use xlink:href="#T7QeGQOcOW01GQPIQ9LQ_pad-98" x="35371" y="66501"/><path d="M 46940 65498 46940 67503 48942 67503 48942 65498 46940 65498"/><use xlink:href="#T7QeGQOcOW01GQPIQ9LQ_pad-98" x="50481" y="66501"/><use xlink:href="#T7QeGQOcOW01GQPIQ9LQ_pad-98" x="53021" y="66501"/><use xlink:href="#T7QeGQOcOW01GQPIQ9LQ_pad-98" x="55561" y="66501"/><path d="M 67149 65498 67149 67503 69153 67503 69153 65498 67149 65498"/><use xlink:href="#T7QeGQOcOW01GQPIQ9LQ_pad-98" x="70691" y="66501"/><use xlink:href="#T7QeGQOcOW01GQPIQ9LQ_pad-98" x="73231" y="66501"/><use xlink:href="#T7QeGQOcOW01GQPIQ9LQ_pad-98" x="75771" y="66501"/><path d="M 81258 27500 81258 28902 82462 28902 82462 27500 81258 27500"/><path d="M 81258 30299 81258 31701 82462 31701 82462 30299 81258 30299"/><path d="M 83059 30299 83059 31701 84263 31701 84263 30299 83059 30299"/><path d="M 83059 27500 83059 28902 84263 28902 84263 27500 83059 27500"/><path d="M 10758 38049 10758 38752 11761 38752 11761 38049 10758 38049"/><path d="M 10758 39049 10758 39753 11761 39753 11761 39049 10758 39049"/><path d="M 28660 41950 28660 42654 29663 42654 29663 41950 28660 41950"/><path d="M 28660 42948 28660 43652 29663 43652 29663 42948 28660 42948"/><path d="M 48858 41950 48858 42654 49861 42654 49861 41950 48858 41950"/><path d="M 48858 42948 48858 43652 49861 43652 49861 42948 48858 42948"/><path d="M 69059 41950 69059 42654 70062 42654 70062 41950 69059 41950"/><path d="M 69059 42948 69059 43652 70062 43652 70062 42948 69059 42948"/><path d="M 6410 38524 6410 39977 7311 39977 7311 38524 6410 38524"/><path d="M 7360 36024 7360 37477 8261 37477 8261 36024 7360 36024"/><path d="M 5460 36024 5460 37477 6361 37477 6361 36024 5460 36024"/><path d="M 9508 36225 9508 37678 10413 37678 10413 36225 9508 36225"/><path d="M 10458 33726 10458 35178 11363 35178 11363 33726 10458 33726"/><path d="M 8558 33726 8558 35178 9463 35178 9463 33726 8558 33726"/><path d="M 39186 45049 39186 45953 40639 45953 40639 45049 39186 45049"/><path d="M 41685 45999 41685 46903 43138 46903 43138 45999 41685 45999"/><path d="M 41685 44099 41685 45003 43138 45003 43138 44099 41685 44099"/><path d="M 39186 41650 39186 42552 40639 42552 40639 41650 39186 41650"/><path d="M 41685 42600 41685 43502 43138 43502 43138 42600 41685 42600"/><path d="M 41685 40700 41685 41602 43138 41602 43138 40700 41685 40700"/><path d="M 67085 38450 67085 39352 68538 39352 68538 38450 67085 38450"/><path d="M 69585 39400 69585 40302 71037 40302 71037 39400 69585 39400"/><path d="M 69585 37500 69585 38402 71037 38402 71037 37500 69585 37500"/><path d="M 73008 38925 73008 40378 73913 40378 73913 38925 73008 38925"/><path d="M 73958 36426 73958 37878 74863 37878 74863 36426 73958 36426"/><path d="M 72058 36426 72058 37878 72963 37878 72963 36426 72058 36426"/><path d="M 59186 45049 59186 45953 60639 45953 60639 45049 59186 45049"/><path d="M 61685 45999 61685 46903 63138 46903 63138 45999 61685 45999"/><path d="M 61685 44099 61685 45003 63138 45003 63138 44099 61685 44099"/><path d="M 59186 41650 59186 42552 60639 42552 60639 41650 59186 41650"/><path d="M 61685 42600 61685 43502 63138 43502 63138 42600 61685 42600"/><path d="M 61685 40700 61685 41602 63138 41602 63138 40700 61685 40700"/><path d="M 7459 40149 7459 41452 8663 41452 8663 40149 7459 40149"/><path d="M 9260 40149 9260 41452 10463 41452 10463 40149 9260 40149"/><path d="M 25358 44048 25358 45354 26562 45354 26562 44048 25358 44048"/><path d="M 27159 44048 27159 45354 28363 45354 28363 44048 27159 44048"/><path d="M 9460 48249 9460 49552 10662 49552 10662 48249 9460 48249"/><path d="M 7659 48249 7659 49552 8863 49552 8863 48249 7659 48249"/><path d="M 17261 48249 17261 49552 18462 49552 18462 48249 17261 48249"/><path d="M 19059 48249 19059 49552 20263 49552 20263 48249 19059 48249"/><path d="M 34860 52148 34860 53451 36062 53451 36062 52148 34860 52148"/><path d="M 36658 52148 36658 53451 37862 53451 37862 52148 36658 52148"/><path d="M 27060 52148 27060 53451 28261 53451 28261 52148 27060 52148"/><path d="M 25259 52148 25259 53451 26463 53451 26463 52148 25259 52148"/><path d="M 75259 52148 75259 53451 76463 53451 76463 52148 75259 52148"/><path d="M 77060 52148 77060 53451 78264 53451 78264 52148 77060 52148"/><path d="M 67459 52148 67459 53451 68662 53451 68662 52148 67459 52148"/><path d="M 65660 52148 65660 53451 66862 53451 66862 52148 65660 52148"/><path d="M 47260 52148 47260 53451 48462 53451 48462 52148 47260 52148"/><path d="M 45460 52148 45460 53451 46664 53451 46664 52148 45460 52148"/><path d="M 55058 52148 55058 53451 56262 53451 56262 52148 55058 52148"/><path d="M 56859 52148 56859 53451 58063 53451 58063 52148 56859 52148"/><path d="M 45559 44048 45559 45354 46763 45354 46763 44048 45559 44048"/><path d="M 47360 44048 47360 45354 48563 45354 48563 44048 47360 44048"/><path d="M 65759 44048 65759 45354 66963 45354 66963 44048 65759 44048"/><path d="M 67560 44048 67560 45354 68762 45354 68762 44048 67560 44048"/><path d="M 14959 39049 14959 39753 15963 39753 15963 39049 14959 39049"/><path d="M 14959 38049 14959 38752 15963 38752 15963 38049 14959 38049"/><path d="M 12160 38049 12160 38752 13163 38752 13163 38049 12160 38049"/><path d="M 12160 39049 12160 39753 13163 39753 13163 39049 12160 39049"/><path d="M 13560 38049 13560 38752 14563 38752 14563 38049 13560 38049"/><path d="M 13560 39049 13560 39753 14563 39753 14563 39049 13560 39049"/><path d="M 45663 22405 45663 23599 46958 23599 46958 22405 45663 22405"/><path d="M 47365 22405 47365 23599 48660 23599 48660 22405 47365 22405"/><path d="M 8759 42948 8759 43652 9762 43652 9762 42948 8759 42948"/><path d="M 8759 41950 8759 42651 9762 42651 9762 41950 8759 41950"/><path d="M 26260 46850 26260 47553 27263 47553 27263 46850 26260 46850"/><path d="M 26260 45849 26260 46553 27263 46553 27263 45849 26260 45849"/><path d="M 66658 46850 66658 47553 67662 47553 67662 46850 66658 46850"/><path d="M 66658 45849 66658 46553 67662 46553 67662 45849 66658 45849"/><path d="M 46460 46850 46460 47553 47461 47553 47461 46850 46460 46850"/><path d="M 46460 45849 46460 46553 47461 46553 47461 45849 46460 45849"/><path d="M 9734 38930 9734 39453 10258 39453 10258 38930 9734 38930"/><path d="M 9734 38150 9734 38674 10258 38674 10258 38150 9734 38150"/><path d="M 8665 38150 8665 38674 9188 38674 9188 38150 8665 38150"/><path d="M 8665 38930 8665 39453 9188 39453 9188 38930 8665 38930"/><path d="M 27634 42829 27634 43352 28157 43352 28157 42829 27634 42829"/><path d="M 27634 42049 27634 42572 28157 42572 28157 42049 27634 42049"/><path d="M 26565 42049 26565 42572 27088 42572 27088 42049 26565 42049"/><path d="M 26565 42829 26565 43352 27088 43352 27088 42829 26565 42829"/><path d="M 68035 42829 68035 43352 68558 43352 68558 42829 68035 42829"/><path d="M 68035 42049 68035 42572 68558 42572 68558 42049 68035 42049"/><path d="M 66963 42049 66963 42572 67486 42572 67486 42049 66963 42049"/><path d="M 66963 42829 66963 43352 67486 43352 67486 42829 66963 42829"/><path d="M 47834 42829 47834 43352 48358 43352 48358 42829 47834 42829"/><path d="M 47834 42049 47834 42572 48358 42572 48358 42049 47834 42049"/><path d="M 46765 42049 46765 42572 47288 42572 47288 42049 46765 42049"/><path d="M 46765 42829 46765 43352 47288 43352 47288 42829 46765 42829"/><path d="M 43389 3804 43389 4328 43913 4328 43913 3804 43389 3804"/><path d="M 42610 3804 42610 4328 43133 4328 43133 3804 42610 3804"/><path d="M 42610 4874 42610 5397 43133 5397 43133 4874 42610 4874"/><path d="M 43389 4874 43389 5397 43913 5397 43913 4874 43389 4874"/><path d="M 15048 61462 12782 63728 13633 64579 15899 62313 15048 61462"/><path d="M 11088 65422 8823 67688 9674 68539 11939 66273 11088 65422"/><path d="M 3059 44998 3059 48204 4263 48204 4263 44998 3059 44998"/><path d="M 3059 39400 3059 42603 4263 42603 4263 39400 3059 39400"/><path d="M 61258 49199 61258 52402 62462 52402 62462 49199 61258 49199"/><path d="M 61258 54800 61258 58003 62462 58003 62462 54800 61258 54800"/><path d="M 41060 49199 41060 52402 42262 52402 42262 49199 41060 49199"/><path d="M 41060 54800 41060 58003 42262 58003 42262 54800 41060 54800"/><path d="M 15810 57950 15810 59753 19313 59753 19313 57950 15810 57950"/><path d="M 15810 51450 15810 53253 19313 53253 19313 51450 15810 51450"/><path d="M 8609 57950 8609 59753 12112 59753 12112 57950 8609 57950"/><path d="M 8609 51450 8609 53253 12112 53253 12112 51450 8609 51450"/><path d="M 36910 45199 36910 46202 37614 46202 37614 45199 36910 45199"/><path d="M 35909 45199 35909 46202 36613 46202 36613 45199 35909 45199"/><path d="M 19310 41300 19310 42303 20011 42303 20011 41300 19310 41300"/><path d="M 18310 41300 18310 42303 19013 42303 19013 41300 18310 41300"/><path d="M 18708 49999 18708 51003 19412 51003 19412 49999 18708 49999"/><path d="M 17710 49999 17710 51003 18411 51003 18411 49999 17710 49999"/><path d="M 8510 49999 8510 51003 9214 51003 9214 49999 8510 49999"/><path d="M 9508 49999 9508 51003 10212 51003 10212 49999 9508 49999"/><path d="M 36308 53898 36308 54902 37012 54902 37012 53898 36308 53898"/><path d="M 35310 53898 35310 54902 36013 54902 36013 53898 35310 53898"/><path d="M 26110 53898 26110 54902 26813 54902 26813 53898 26110 53898"/><path d="M 27108 53898 27108 54902 27812 54902 27812 53898 27108 53898"/><path d="M 77210 45199 77210 46202 77913 46202 77913 45199 77210 45199"/><path d="M 76209 45199 76209 46202 76912 46202 76912 45199 76209 45199"/><path d="M 57009 45199 57009 46202 57713 46202 57713 45199 57009 45199"/><path d="M 56008 45199 56008 46202 56712 46202 56712 45199 56008 45199"/><path d="M 56509 53898 56509 54902 57212 54902 57212 53898 56509 53898"/><path d="M 55510 53898 55510 54902 56211 54902 56211 53898 55510 53898"/><path d="M 46310 53898 46310 54902 47012 54902 47012 53898 46310 53898"/><path d="M 47309 53898 47309 54902 48012 54902 48012 53898 47309 53898"/><path d="M 76709 53898 76709 54902 77413 54902 77413 53898 76709 53898"/><path d="M 75708 53898 75708 54902 76412 54902 76412 53898 75708 53898"/><path d="M 66509 53898 66509 54902 67212 54902 67212 53898 66509 53898"/><path d="M 67509 53898 67509 54902 68213 54902 68213 53898 67509 53898"/><path d="M 11660 13200 11660 13401 10959 13401 10959 14203 11660 14203 11660 15798 10959 15798 10959 16703 11660 16703 11660 17302 16062 17302 16062 16703 16763 16703 16763 15798 16062 15798 16062 14203 16763 14203 16763 13401 16062 13401 16062 13200 11660 13200"/><path d="M 15366 16728 15366 17950 16168 17950 16168 16728 15366 16728"/><path d="M 14096 16728 14096 17950 14898 17950 14898 16728 14096 16728"/><path d="M 12826 16728 12826 17950 13628 17950 13628 16728 12826 16728"/><path d="M 11553 16728 11553 17950 12356 17950 12356 16728 11553 16728"/><path d="M 15366 11127 15366 12600 16168 12600 16168 11127 15366 11127"/><path d="M 14096 11127 14096 12600 14898 12600 14898 11127 14096 11127"/><path d="M 12826 11127 12826 12600 13628 12600 13628 11127 12826 11127"/><path d="M 11556 11127 11556 12600 12358 12600 12358 11127 11556 11127"/><path d="M 39988 31899 39988 33903 41992 33903 41992 31899 39988 31899"/><use xlink:href="#T7QeGQOcOW01GQPIQ9LQ_pad-98" x="43531" y="32901"/><path d="M 96064 57630 96064 59634 98066 59634 98066 57630 96064 57630"/><use xlink:href="#T7QeGQOcOW01GQPIQ9LQ_pad-98" x="97065" y="61171"/><path d="M 84390 2720 84390 4724 86392 4724 86392 2720 84390 2720"/><use xlink:href="#T7QeGQOcOW01GQPIQ9LQ_pad-98" x="87931" y="3722"/><path d="M 76689 2720 76689 4724 78693 4724 78693 2720 76689 2720"/><use xlink:href="#T7QeGQOcOW01GQPIQ9LQ_pad-98" x="80231" y="3722"/><path d="M 53590 2720 53590 4724 55592 4724 55592 2720 53590 2720"/><use xlink:href="#T7QeGQOcOW01GQPIQ9LQ_pad-98" x="57131" y="3722"/><path d="M 61289 2720 61289 4724 63293 4724 63293 2720 61289 2720"/><use xlink:href="#T7QeGQOcOW01GQPIQ9LQ_pad-98" x="64831" y="3722"/><path d="M 68990 2720 68990 4724 70992 4724 70992 2720 68990 2720"/><use xlink:href="#T7QeGQOcOW01GQPIQ9LQ_pad-98" x="72531" y="3722"/><path d="M 37235 11836 37235 15539 41688 15539 41688 11836 37235 11836"/><path d="M 41015 10891 41015 12395 41718 12395 41718 10891 41015 10891"/><path d="M 39745 10891 39745 12395 40448 12395 40448 10891 39745 10891"/><path d="M 38475 10891 38475 12395 39178 12395 39178 10891 38475 10891"/><path d="M 37205 10891 37205 12395 37908 12395 37908 10891 37205 10891"/><path d="M 37205 16606 37205 18110 37908 18110 37908 16606 37205 16606"/><path d="M 38475 16606 38475 18110 39178 18110 39178 16606 38475 16606"/><path d="M 39745 16606 39745 18110 40448 18110 40448 16606 39745 16606"/><path d="M 41015 16606 41015 18110 41718 18110 41718 16606 41015 16606"/><path d="M 29135 11836 29135 15539 33588 15539 33588 11836 29135 11836"/><path d="M 32915 10891 32915 12395 33618 12395 33618 10891 32915 10891"/><path d="M 31645 10891 31645 12395 32348 12395 32348 10891 31645 10891"/><path d="M 30375 10891 30375 12395 31078 12395 31078 10891 30375 10891"/><path d="M 29105 10891 29105 12395 29808 12395 29808 10891 29105 10891"/><path d="M 29105 16606 29105 18110 29808 18110 29808 16606 29105 16606"/><path d="M 30375 16606 30375 18110 31078 18110 31078 16606 30375 16606"/><path d="M 31645 16606 31645 18110 32348 18110 32348 16606 31645 16606"/><path d="M 32915 16606 32915 18110 33618 18110 33618 16606 32915 16606"/><path d="M 7560 32250 7560 32953 8564 32953 8564 32250 7560 32250"/><path d="M 7560 31249 7560 31953 8564 31953 8564 31249 7560 31249"/><path d="M 22084 12049 22084 12953 23537 12953 23537 12049 22084 12049"/><path d="M 24583 12999 24583 13903 26036 13903 26036 12999 24583 12999"/><path d="M 24583 11099 24583 12004 26036 12004 26036 11099 24583 11099"/><path d="M 52285 11348 52285 12252 53737 12252 53737 11348 52285 11348"/><path d="M 54784 12298 54784 13202 56237 13202 56237 12298 54784 12298"/><path d="M 54784 10398 54784 11302 56237 11302 56237 10398 54784 10398"/><path d="M 52285 7650 52285 8552 53737 8552 53737 7650 52285 7650"/><path d="M 54784 8600 54784 9502 56237 9502 56237 8600 54784 8600"/><path d="M 54784 6700 54784 7602 56237 7602 56237 6700 54784 6700"/><path d="M 63008 6598 63008 7802 64311 7802 64311 6598 63008 6598"/><path d="M 63008 8399 63008 9603 64311 9603 64311 8399 63008 8399"/><path d="M 81258 6850 81258 8153 82462 8153 82462 6850 81258 6850"/><path d="M 83059 6850 83059 8153 84263 8153 84263 6850 83059 6850"/><path d="M 79460 6850 79460 8153 80661 8153 80661 6850 79460 6850"/><path d="M 77659 6850 77659 8153 78863 8153 78863 6850 77659 6850"/><path d="M 30458 33225 30458 34978 31662 34978 31662 33225 30458 33225"/><path d="M 28459 33225 28459 34978 29663 34978 29663 33225 28459 33225"/><path d="M 8810 27698 8810 28902 10113 28902 10113 27698 8810 27698"/><path d="M 8810 29499 8810 30703 10113 30703 10113 29499 8810 29499"/><path d="M 22658 21549 22658 22852 23862 22852 23862 21549 22658 21549"/><path d="M 24459 21549 24459 22852 25663 22852 25663 21549 24459 21549"/><path d="M 17360 21549 17360 23652 18762 23652 18762 21549 17360 21549"/><path d="M 20560 21549 20560 23652 21962 23652 21962 21549 20560 21549"/><path d="M 17659 17099 17659 18303 20862 18303 20862 17099 17659 17099"/><path d="M 23260 17099 23260 18303 26463 18303 26463 17099 23260 17099"/><path d="M 71060 11750 71060 12453 72064 12453 72064 11750 71060 11750"/><path d="M 71060 12750 71060 13451 72064 13451 72064 12750 71060 12750"/><path d="M 73958 27050 73958 27752 74962 27752 74962 27050 73958 27050"/><path d="M 73958 28049 73958 28752 74962 28752 74962 28049 73958 28049"/><path d="M 59910 8100 59910 9103 60613 9103 60613 8100 59910 8100"/><path d="M 58909 8100 58909 9103 59612 9103 59612 8100 58909 8100"/><path d="M 61009 6700 61009 7703 61713 7703 61713 6700 61009 6700"/><path d="M 60009 6700 60009 7703 60712 7703 60712 6700 60009 6700"/><path d="M 68708 6700 68708 7703 69412 7703 69412 6700 68708 6700"/><path d="M 67710 6700 67710 7703 68414 7703 68414 6700 67710 6700"/><path d="M 83359 23850 83359 24551 84362 24551 84362 23850 83359 23850"/><path d="M 83359 22849 83359 23553 84362 23553 84362 22849 83359 22849"/><path d="M 83359 11849 83359 12552 84362 12552 84362 11849 83359 11849"/><path d="M 83359 10850 83359 11551 84362 11551 84362 10850 83359 10850"/><path d="M 59513 31343 58805 32054 59303 32550 60011 31841 59513 31343"/><path d="M 60220 32052 59511 32760 60009 33258 60717 32550 60220 32052"/><path d="M 68609 33599 68609 34602 69313 34602 69313 33599 68609 33599"/><path d="M 67608 33599 67608 34602 68312 34602 68312 33599 67608 33599"/><path d="M 57260 22550 57260 23253 58261 23253 58261 22550 57260 22550"/><path d="M 57260 21549 57260 22252 58261 22252 58261 21549 57260 21549"/><path d="M 69209 18498 69209 19502 69912 19502 69912 18498 69209 18498"/><path d="M 70209 18498 70209 19502 70913 19502 70913 18498 70209 18498"/><path d="M 79110 61300 79110 62303 79813 62303 79813 61300 79110 61300"/><path d="M 80110 61300 80110 62303 80811 62303 80811 61300 80110 61300"/><path d="M 81909 55699 81909 56702 82612 56702 82612 55699 81909 55699"/><path d="M 82909 55699 82909 56702 83613 56702 83613 55699 82909 55699"/><path d="M 73709 24698 73709 25702 74413 25702 74413 24698 73709 24698"/><path d="M 74710 24698 74710 25702 75414 25702 75414 24698 74710 24698"/><path d="M 73709 18900 73709 19903 74413 19903 74413 18900 73709 18900"/><path d="M 74710 18900 74710 19903 75411 19903 75411 18900 74710 18900"/><path d="M 20359 11198 20359 12804 21764 12804 21764 11198 20359 11198"/><path d="M 16958 11198 16958 12804 18363 12804 18363 11198 16958 11198"/><use xlink:href="#T7QeGQOcOW01GQPIQ9LQ_pad-98" x="47561" y="34041"/><use xlink:href="#T7QeGQOcOW01GQPIQ9LQ_pad-98" x="47561" y="31501"/><use xlink:href="#T7QeGQOcOW01GQPIQ9LQ_pad-117" x="47561" y="28961"/><path d="M 56209 24698 56209 25702 56912 25702 56912 24698 56209 24698"/><path d="M 55208 24698 55208 25702 55912 25702 55912 24698 55208 24698"/><path d="M 56209 23299 56209 24302 56912 24302 56912 23299 56209 23299"/><path d="M 55208 23299 55208 24302 55912 24302 55912 23299 55208 23299"/><path d="M 81357 8747 81357 10053 82561 10053 82561 8747 81357 8747"/><path d="M 82958 8747 82958 10053 84162 10053 84162 8747 82958 8747"/><path d="M 74258 6847 74258 8153 75462 8153 75462 6847 74258 6847"/><path d="M 75858 6847 75858 8153 77062 8153 77062 6847 75858 6847"/><path d="M 25960 19748 25960 20452 26963 20452 26963 19748 25960 19748"/><path d="M 25960 18750 25960 19451 26963 19451 26963 18750 25960 18750"/><path d="M 12358 29547 12358 30853 13562 30853 13562 29547 12358 29547"/><path d="M 10758 29547 10758 30853 11962 30853 11962 29547 10758 29547"/><path d="M 15307 20299 15307 21501 16613 21501 16613 20299 15307 20299"/><path d="M 15307 18900 15307 20101 16613 20101 16613 18900 15307 18900"/><path d="M 16059 24249 16059 25554 17261 25554 17261 24249 16059 24249"/><path d="M 17459 24249 17459 25554 18660 25554 18660 24249 17459 24249"/><path d="M 10260 25747 10260 27053 11462 27053 11462 25747 10260 25747"/><path d="M 8861 25747 8861 27053 10062 27053 10062 25747 8861 25747"/><path d="M 24258 47950 24258 48653 25262 48653 25262 47950 24258 47950"/><path d="M 24258 48950 24258 49651 25262 49651 25262 48950 24258 48950"/><path d="M 31507 40599 31507 41602 32211 41602 32211 40599 31507 40599"/><path d="M 32508 40599 32508 41602 33212 41602 33212 40599 32508 40599"/><path d="M 30410 40599 30410 41602 31114 41602 31114 40599 30410 40599"/><path d="M 29409 40599 29409 41602 30113 41602 30113 40599 29409 40599"/><path d="M 44459 47950 44459 48653 45462 48653 45462 47950 44459 47950"/><path d="M 44459 48950 44459 49651 45462 49651 45462 48950 44459 48950"/><path d="M 64659 47950 64659 48653 65663 48653 65663 47950 64659 47950"/><path d="M 64659 48950 64659 49651 65663 49651 65663 48950 64659 48950"/><path d="M 70809 40599 70809 41602 71512 41602 71512 40599 70809 40599"/><path d="M 69808 40599 69808 41602 70512 41602 70512 40599 69808 40599"/><path d="M 71909 40599 71909 41602 72612 41602 72612 40599 71909 40599"/><path d="M 72909 40599 72909 41602 73613 41602 73613 40599 72909 40599"/><path d="M 51708 40599 51708 41602 52412 41602 52412 40599 51708 40599"/><path d="M 52709 40599 52709 41602 53412 41602 53412 40599 52709 40599"/><path d="M 50608 40599 50608 41602 51312 41602 51312 40599 50608 40599"/><path d="M 49607 40599 49607 41602 50311 41602 50311 40599 49607 40599"/><path d="M 12358 27548 12358 28854 13562 28854 13562 27548 12358 27548"/><path d="M 10758 27548 10758 28854 11962 28854 11962 27548 10758 27548"/><path d="M 69658 11948 69658 12651 70661 12651 70661 11948 69658 11948"/><path d="M 69658 10949 69658 11650 70661 11650 70661 10949 69658 10949"/><path d="M 62109 10198 62109 11201 62813 11201 62813 10198 62109 10198"/><path d="M 63110 10198 63110 11201 63814 11201 63814 10198 63110 10198"/><path d="M 68259 11750 68259 12451 69262 12451 69262 11750 68259 11750"/><path d="M 68259 12748 68259 13451 69262 13451 69262 12748 68259 12748"/><path d="M 63260 11650 63260 12351 64263 12351 64263 11650 63260 11650"/><path d="M 63260 12649 63260 13352 64263 13352 64263 12649 63260 12649"/><path d="M 66610 16697 66610 17701 67314 17701 67314 16697 66610 16697"/><path d="M 65609 16697 65609 17701 66313 17701 66313 16697 65609 16697"/><path d="M 35259 16151 35259 16852 36262 16852 36262 16151 35259 16151"/><path d="M 35259 17150 35259 17853 36262 17853 36262 17150 35259 17150"/><path d="M 26958 16151 26958 16852 27962 16852 27962 16151 26958 16151"/><path d="M 26958 17150 26958 17853 27962 17853 27962 17150 26958 17150"/><path d="M 27509 12499 27509 13502 28213 13502 28213 12499 27509 12499"/><path d="M 26509 12499 26509 13502 27212 13502 27212 12499 26509 12499"/><path d="M 57809 12298 57809 13301 58513 13301 58513 12298 57809 12298"/><path d="M 56808 12298 56808 13301 57512 13301 57512 12298 56808 12298"/><path d="M 57809 9499 57809 10502 58513 10502 58513 9499 57809 9499"/><path d="M 56808 9499 56808 10502 57512 10502 57512 9499 56808 9499"/><path d="M 92358 31051 92358 31752 93361 31752 93361 31051 92358 31051"/><path d="M 92358 32049 92358 32753 93361 32753 93361 32049 92358 32049"/><path d="M 98109 54797 98109 55801 98812 55801 98812 54797 98109 54797"/><path d="M 97108 54797 97108 55801 97812 55801 97812 54797 97108 54797"/><path d="M 94809 54797 94809 55801 95513 55801 95513 54797 94809 54797"/><path d="M 95810 54797 95810 55801 96514 55801 96514 54797 95810 54797"/><path d="M 84009 55699 84009 56702 84713 56702 84713 55699 84009 55699"/><path d="M 85010 55699 85010 56702 85714 56702 85714 55699 85010 55699"/><path d="M 87309 62999 87309 64002 88012 64002 88012 62999 87309 62999"/><path d="M 86308 62999 86308 64002 87011 64002 87011 62999 86308 62999"/><path d="M 93158 61549 93158 62252 94162 62252 94162 61549 93158 61549"/><path d="M 93158 60551 93158 61252 94162 61252 94162 60551 93158 60551"/><path d="M 66410 10398 66410 11602 67713 11602 67713 10398 66410 10398"/><path d="M 66410 11998 66410 13202 67713 13202 67713 11998 66410 11998"/><path d="M 32859 42948 32859 43652 33862 43652 33862 42948 32859 42948"/><path d="M 32859 41950 32859 42651 33862 42651 33862 41950 32859 41950"/><path d="M 31459 41950 31459 42651 32462 42651 32462 41950 31459 41950"/><path d="M 31459 42948 31459 43652 32462 43652 32462 42948 31459 42948"/><path d="M 30060 41950 30060 42651 31063 42651 31063 41950 30060 41950"/><path d="M 30060 42948 30060 43652 31063 43652 31063 42948 30060 42948"/><path d="M 73260 42948 73260 43652 74263 43652 74263 42948 73260 42948"/><path d="M 73260 41950 73260 42651 74263 42651 74263 41950 73260 41950"/><path d="M 53059 42948 53059 43652 54063 43652 54063 42948 53059 42948"/><path d="M 53059 41950 53059 42651 54063 42651 54063 41950 53059 41950"/><path d="M 70458 41950 70458 42651 71462 42651 71462 41950 70458 41950"/><path d="M 70458 42948 70458 43652 71462 43652 71462 42948 70458 42948"/><path d="M 71858 41950 71858 42651 72861 42651 72861 41950 71858 41950"/><path d="M 71858 42948 71858 43652 72861 43652 72861 42948 71858 42948"/><path d="M 51660 41950 51660 42651 52663 42651 52663 41950 51660 41950"/><path d="M 51660 42948 51660 43652 52663 43652 52663 42948 51660 42948"/><path d="M 50260 41950 50260 42651 51263 42651 51263 41950 50260 41950"/><path d="M 50260 42948 50260 43652 51263 43652 51263 42948 50260 42948"/><path d="M 46509 24297 46509 25300 47212 25300 47212 24297 46509 24297"/><path d="M 45508 24297 45508 25300 46211 25300 46211 24297 45508 24297"/><path d="M 72460 25250 72460 25951 73463 25951 73463 25250 72460 25250"/><path d="M 72460 26248 72460 26951 73463 26951 73463 26248 72460 26248"/><path d="M 56209 21899 56209 22903 56912 22903 56912 21899 56209 21899"/><path d="M 55208 21899 55208 22903 55912 22903 55912 21899 55208 21899"/><path d="M 26209 61851 26209 63652 29712 63652 29712 61851 26209 61851"/><path d="M 26209 55349 26209 57152 29712 57152 29712 55349 26209 55349"/><path d="M 33410 61851 33410 63652 36912 63652 36912 61851 33410 61851"/><path d="M 33410 55349 33410 57152 36912 57152 36912 55349 33410 55349"/><path d="M 66610 61851 66610 63652 70113 63652 70113 61851 66610 61851"/><path d="M 66610 55349 66610 57152 70113 57152 70113 55349 66610 55349"/><path d="M 73809 61851 73809 63652 77311 63652 77311 61851 73809 61851"/><path d="M 73809 55349 73809 57152 77311 57152 77311 55349 73809 55349"/><path d="M 53610 61851 53610 63652 57113 63652 57113 61851 53610 61851"/><path d="M 53610 55349 53610 57152 57113 57152 57113 55349 53610 55349"/><path d="M 46410 61851 46410 63652 49912 63652 49912 61851 46410 61851"/><path d="M 46410 55349 46410 57152 49912 57152 49912 55349 46410 55349"/><path d="M 35259 14051 35259 14752 36262 14752 36262 14051 35259 14051"/><path d="M 35259 15049 35259 15753 36262 15753 36262 15049 35259 15049"/><path d="M 26559 14051 26559 14752 27563 14752 27563 14051 26559 14051"/><path d="M 26559 15049 26559 15753 27563 15753 27563 15049 26559 15049"/><path d="M 26509 11099 26509 12103 27212 12103 27212 11099 26509 11099"/><path d="M 27509 11099 27509 12103 28213 12103 28213 11099 27509 11099"/><path d="M 56808 10899 56808 11902 57512 11902 57512 10899 56808 10899"/><path d="M 57809 10899 57809 11902 58513 11902 58513 10899 57809 10899"/><path d="M 56808 8097 56808 9100 57512 9100 57512 8097 56808 8097"/><path d="M 57809 8097 57809 9100 58513 9100 58513 8097 57809 8097"/><path d="M 65208 10198 65208 11201 65912 11201 65912 10198 65208 10198"/><path d="M 64207 10198 64207 11201 64911 11201 64911 10198 64207 10198"/><path d="M 93158 56349 93158 57050 94162 57050 94162 56349 93158 56349"/><path d="M 93158 57348 93158 58051 94162 58051 94162 57348 93158 57348"/><path d="M 93158 58450 93158 59151 94162 59151 94162 58450 93158 58450"/><path d="M 93158 59448 93158 60152 94162 60152 94162 59448 93158 59448"/><path d="M 24860 45852 24860 46553 25863 46553 25863 45852 24860 45852"/><path d="M 24860 46850 24860 47553 25863 47553 25863 46850 24860 46850"/><path d="M 45058 45852 45058 46553 46062 46553 46062 45852 45058 45852"/><path d="M 45058 46850 45058 47553 46062 47553 46062 46850 45058 46850"/><path d="M 65259 45852 65259 46553 66262 46553 66262 45852 65259 45852"/><path d="M 65259 46850 65259 47553 66262 47553 66262 46850 65259 46850"/><path d="M 56808 13698 56808 14701 57512 14701 57512 13698 56808 13698"/><path d="M 57809 13698 57809 14701 58513 14701 58513 13698 57809 13698"/><path d="M 18310 44099 18310 45102 19013 45102 19013 44099 18310 44099"/><path d="M 19310 44099 19310 45102 20014 45102 20014 44099 19310 44099"/><path d="M 18310 42699 18310 43703 19013 43703 19013 42699 18310 42699"/><path d="M 19310 42699 19310 43703 20014 43703 20014 42699 19310 42699"/><path d="M 35909 46598 35909 47602 36613 47602 36613 46598 35909 46598"/><path d="M 36910 46598 36910 47602 37614 47602 37614 46598 36910 46598"/><path d="M 35909 47998 35909 49001 36613 49001 36613 47998 35909 47998"/><path d="M 36910 47998 36910 49001 37614 49001 37614 47998 36910 47998"/><path d="M 56008 46598 56008 47602 56712 47602 56712 46598 56008 46598"/><path d="M 57009 46598 57009 47602 57713 47602 57713 46598 57009 46598"/><path d="M 56008 47998 56008 49001 56712 49001 56712 47998 56008 47998"/><path d="M 57009 47998 57009 49001 57713 49001 57713 47998 57009 47998"/><path d="M 76209 47998 76209 49001 76912 49001 76912 47998 76209 47998"/><path d="M 77210 47998 77210 49001 77913 49001 77913 47998 77210 47998"/><path d="M 76209 46598 76209 47602 76912 47602 76912 46598 76209 46598"/><path d="M 77210 46598 77210 47602 77913 47602 77913 46598 77210 46598"/><use xlink:href="#T7QeGQOcOW01GQPIQ9LQ_pad-98" x="97231" y="13321"/><use xlink:href="#T7QeGQOcOW01GQPIQ9LQ_pad-98" x="94691" y="13321"/><use xlink:href="#T7QeGQOcOW01GQPIQ9LQ_pad-98" x="97231" y="15861"/><use xlink:href="#T7QeGQOcOW01GQPIQ9LQ_pad-98" x="94691" y="15861"/><use xlink:href="#T7QeGQOcOW01GQPIQ9LQ_pad-98" x="97231" y="18401"/><use xlink:href="#T7QeGQOcOW01GQPIQ9LQ_pad-98" x="94691" y="18401"/><use xlink:href="#T7QeGQOcOW01GQPIQ9LQ_pad-98" x="97231" y="20941"/><use xlink:href="#T7QeGQOcOW01GQPIQ9LQ_pad-98" x="94691" y="20941"/><use xlink:href="#T7QeGQOcOW01GQPIQ9LQ_pad-98" x="97231" y="23481"/><path d="M 93689 22478 93689 24483 95693 24483 95693 22478 93689 22478"/><use xlink:href="#T7QeGQOcOW01GQPIQ9LQ_pad-118" x="39360" y="5101"/><use xlink:href="#T7QeGQOcOW01GQPIQ9LQ_pad-118" x="34280" y="5101"/><use xlink:href="#T7QeGQOcOW01GQPIQ9LQ_pad-118" x="29202" y="5100"/><use xlink:href="#T7QeGQOcOW01GQPIQ9LQ_pad-118" x="24120" y="5101"/><use xlink:href="#T7QeGQOcOW01GQPIQ9LQ_pad-118" x="19040" y="5101"/><use xlink:href="#T7QeGQOcOW01GQPIQ9LQ_pad-118" x="13963" y="5099"/><path d="M 89409 52948 89409 54251 90712 54251 90712 52948 89409 52948"/><use xlink:href="#T7QeGQOcOW01GQPIQ9LQ_pad-120" x="90060" y="55099"/><use xlink:href="#T7QeGQOcOW01GQPIQ9LQ_pad-120" x="90060" y="56600"/><use xlink:href="#T7QeGQOcOW01GQPIQ9LQ_pad-120" x="90060" y="58101"/><use xlink:href="#T7QeGQOcOW01GQPIQ9LQ_pad-120" x="90060" y="59602"/><use xlink:href="#T7QeGQOcOW01GQPIQ9LQ_pad-120" x="90060" y="61101"/><use xlink:href="#T7QeGQOcOW01GQPIQ9LQ_pad-120" x="90062" y="62602"/><path d="M 96064 31729 96064 33731 98066 33731 98066 31729 96064 31729"/><use xlink:href="#T7QeGQOcOW01GQPIQ9LQ_pad-98" x="97065" y="35270"/><path d="M 45889 10299 45889 12301 47890 12301 47890 10299 45889 10299"/><use xlink:href="#T7QeGQOcOW01GQPIQ9LQ_pad-98" x="49430" y="11300"/><path d="M 45889 2722 45889 4724 47890 4724 47890 2722 45889 2722"/><use xlink:href="#T7QeGQOcOW01GQPIQ9LQ_pad-98" x="49430" y="3723"/><path d="M 4538 32075 A 2000 2000 0 0 1 538 32075 2000 2000 0 0 1 4538 32075 M 36328 29455 A 2000 2000 0 0 1 32328 29455 2000 2000 0 0 1 36328 29455" fill="none" stroke-width="1599.997"/><path d="M 100198 2575 A 2000 2000 0 0 1 96198 2575 2000 2000 0 0 1 100198 2575" fill="none" stroke-width="1799.996"/><path d="M 22398 67055 A 2000 2000 0 0 1 18398 67055 2000 2000 0 0 1 22398 67055 M 84538 67265 A 2000 2000 0 0 1 80538 67265 2000 2000 0 0 1 84538 67265 M 100198 67855 A 2000 2000 0 0 1 96198 67855 2000 2000 0 0 1 100198 67855 M 4469 2575 A 2000 2000 0 0 1 469 2575 2000 2000 0 0 1 4469 2575 M 4470 67855 A 2000 2000 0 0 1 470 67855 2000 2000 0 0 1 4470 67855" fill="none" stroke-width="1599.997"/><path d="M 1728 7888 A 650 650 0 0 1 428 7888 650 650 0 0 1 1728 7888 M 90928 67188 A 650 650 0 0 1 89628 67188 650 650 0 0 1 90928 67188" fill="none" stroke-width="100"/></g></svg>