<svg version="1.1" xmlns="http://www.w3.org/2000/svg" xmlns:xlink="http://www.w3.org/1999/xlink" stroke-linecap="round" stroke-linejoin="round" stroke-width="0" fill-rule="evenodd" width="100.762mm" height="70.273mm" viewBox="0 0 100762 70273" id="cv-Jap3DhJks0z-GM8fc"><g transform="translate(0,70273) scale(1,-1)" fill="currentColor" stroke="currentColor"><path d="M 1481 70273 99279 70273 A 2 2 0 0 0 99280 70271 1481 1481 0 0 0 100761 68790 1 1 0 0 0 100762 68789 L 100762 1491 A 1481 1481 0 0 0 99281 10 10 10 0 0 0 99271 0 L 1481 0 A 1481 1481 0 0 0 0 1481 L 0 68791 A 1481 1481 0 0 0 1481 70273 M 0 1481 0 1481" fill="none" stroke-width="254"/></g></svg>