<svg version="1.1" xmlns="http://www.w3.org/2000/svg" xmlns:xlink="http://www.w3.org/1999/xlink" stroke-linecap="round" stroke-linejoin="round" stroke-width="0" fill-rule="evenodd" width="101.4289965mm" height="70.9799965mm" viewBox="-330.9985 -324.998 101428.9965 70979.9965" id="yTM0NqVVU9wvFaSiz-c7"><defs><circle cx="0" cy="0" r="1351.5975" id="yTM0NqVVU9wvFaSiz-c7_pad-83"/><circle cx="0" cy="0" r="889" id="yTM0NqVVU9wvFaSiz-c7_pad-87"/><circle cx="0" cy="0" r="1001.598" id="yTM0NqVVU9wvFaSiz-c7_pad-98"/><circle cx="0" cy="0" r="1401.5975" id="yTM0NqVVU9wvFaSiz-c7_pad-100"/><rect x="-1001.598" y="-889" width="2003.196" height="1778" id="yTM0NqVVU9wvFaSiz-c7_pad-117"/><circle cx="0" cy="0" r="1501.648" id="yTM0NqVVU9wvFaSiz-c7_pad-118"/><circle cx="0" cy="0" r="651.599" id="yTM0NqVVU9wvFaSiz-c7_pad-120"/></defs><g transform="translate(0,70330.0005) scale(1,-1)" fill="currentColor" stroke="currentColor"><path d="M 32568 60901 34689 58780 M 33275 61640 34689 60226 M 33982 62294 34689 61587 M 32568 59501 34689 57380 M 32568 58101 34689 55980 M 32568 56601 34689 54480 M 28461 62201 30582 60080 M 28461 60576 30582 58455 M 28461 58951 30582 56830 M 28461 57326 30582 55205 M 28461 55701 29875 54287 M 32361 54994 33068 54287 M 29761 62501 30468 61794 M 49861 62601 50568 61894 M 48561 62301 50682 60180 M 48561 60676 50682 58555 M 48561 59051 50682 56930 M 48561 57426 50682 55305 M 48561 55801 49975 54387 M 52461 55094 53168 54387 M 52668 56701 54789 54580 M 52668 58201 54789 56080 M 52668 59601 54789 57480 M 52668 61001 54789 58880 M 53375 61740 54789 60326 M 54082 62394 54789 61687 M 69961 62601 70314 62247 M 68661 62301 70782 60180 M 68661 60676 70782 58555 M 68661 59051 70782 56930 M 68661 57426 70782 55305 M 68661 55801 70075 54387 M 72861 55101 73568 54394 M 73068 56708 75189 54587 M 73068 58208 75189 56087 M 73068 59608 75189 57487 M 73775 60401 75189 58987 M 74061 61501 75192 60370 M 74482 62401 75189 61694 M 51261 45701 53382 43580 M 51461 44101 52168 43394 M 50061 43401 47940 45522 M 50861 44701 50154 45408 M 54161 45701 54868 44994 M 78161 49001 80282 46880 M 79561 49001 80268 48294 M 77061 48701 77768 47994 M 74907 46347 74200 47054 M 76361 46401 74240 48522 M 77461 46840 75340 48962 M 72461 45201 74582 43080 M 70961 45201 73082 43080 M 70961 43601 73082 41480 M 74261 44801 73554 45508 M 79261 46501 81382 44380 M 79261 44801 80392 43670 M 77761 43101 78892 41969 M 77761 41501 78892 40369 M 77761 40001 78892 38869 M 67961 45501 70082 43380 M 70961 41901 73082 39780 M 68161 43601 70282 41480 M 67061 42901 69182 40780 M 69761 38601 71882 36480 M 69061 37591 71182 35470 M 67261 37601 69382 35480 M 66861 39601 67992 38469 M 66761 41401 67892 40269 M 66561 36601 67692 35469 M 63161 36601 64292 35470 M 64861 36601 65992 35469 M 32461 45601 33592 44469 M 30927 45601 32059 44469 M 30061 45101 31192 43969 M 27861 45601 28992 44469 M 14361 41601 15492 40469 M 14361 40321 15492 39190 M 14361 39041 15492 37910 M 14361 37761 15492 36629 M 14361 36481 15492 35349 M 14361 35201 15492 34069 M 11961 56201 14082 54080 M 10661 55601 12782 53480 M 9261 55201 11382 53080 M 8661 54001 10782 51880 M 6761 52401 8882 50280 M 12061 52401 14182 50280 M 13961 52401 16082 50280 M 14861 53301 16982 51180 M 11661 50987 12368 50280 M 16561 43301 17268 42594 M 17921 43301 18628 42594 M 19281 43301 19988 42594 M 20641 43301 21348 42594 M 22001 43301 22708 42594 M 23361 43301 24068 42594 M 47861 44108 48568 43401 M 27661 44677 28368 43969 M 27861 46801 28568 46094 M 32921 38801 33628 38094 M 31561 38801 32268 38094 M 34281 38801 34988 38094 M 35641 38801 36348 38094 M 26421 38701 27128 37994 M 25061 38701 25768 37994 M 27781 38701 28488 37994 M 29141 38701 29848 37994 M 28321 35001 29028 34294 M 26961 35001 27668 34294 M 29681 35001 30388 34294 M 31041 35001 31748 34294 M 21521 34901 22228 34194 M 20161 34901 20868 34194 M 22881 34901 23588 34194 M 24241 34901 24948 34194 M 23821 31701 24528 30994 M 22461 31701 23168 30994 M 25181 31701 25888 30994 M 26541 31701 27248 30994 M 25421 30001 26128 29294 M 24061 30001 24768 29294 M 26781 30001 27488 29294 M 28141 30001 28848 29294 M 25021 28201 25728 27494 M 23661 28201 24368 27494 M 26381 28201 27088 27494 M 27741 28201 28448 27494 M 15361 30241 16492 29110 M 15361 31521 16492 30389 M 15361 32801 16492 31669 M 23761 23741 24892 22609 M 23761 25021 24892 23889 M 23761 26301 24892 25169 M 24061 18801 25192 17669 M 24061 20081 25192 18949 M 24061 21361 25192 20229 M 23761 13941 24892 12809 M 23761 15221 24892 14089 M 23761 16501 24892 15369 M 25761 12141 26892 11009 M 25761 13421 26892 12289 M 25761 14701 26892 13569 M 51261 13901 53382 11780 M 51261 12468 53382 10346 M 51261 11034 53382 8913 M 51261 9601 53382 7480 M 79561 9241 80692 8109 M 79561 10521 80692 9389 M 79561 11801 80692 10669 M 77561 9541 78692 8409 M 77561 10821 78692 9689 M 77561 12101 78692 10969 M 60961 8801 61668 8094 M 62315 8801 63022 8094 M 63669 8801 64377 8094 M 65024 8801 65731 8094 M 66378 8801 67085 8094 M 67732 8801 68439 8094 M 69087 8801 69794 8094 M 70441 8801 71148 8094 M 86561 49001 87268 48294 M 87921 49001 88628 48294 M 89281 49001 89988 48294 M 90641 49001 91348 48294 M 78461 44001 79592 42869 M 52761 45701 54882 43580 M 26361 20001 27068 19294 M 25961 19201 26668 18494 M 37561 35301 38268 34594 M 38861 35301 39568 34594 M 40161 35301 40868 34594 M 38361 33501 39068 32794 M 38861 31701 39568 30994 M 39061 30101 39768 29394 M 39161 28601 39868 27894 M 38861 27201 39568 26494 M 51461 7301 52168 6594 M 51461 5901 52168 5194 M 51461 4501 52168 3794 M 35061 15801 36192 14669 M 35061 14521 36192 13389 M 35061 13241 36192 12109 M 35061 11961 36192 10829 M 35061 10681 36192 9549 M 45761 21801 46468 21094 M 47115 21801 47822 21094 M 45661 20601 46368 19894 M 47015 20601 47722 19894 M 72861 15301 73568 14594 M 74215 15301 74922 14594 M 89661 5776 90368 5069 M 89661 6901 90368 6194 M 89661 2401 90368 1694 M 89661 3526 90368 2819 M 89661 4651 90368 3944 M 8461 52401 10582 50280 M 30961 18001 33082 15880 M 29861 17801 31982 15680 M 29561 16801 30692 15669 M 32061 18101 33192 16969 M 37861 16901 38992 15769 M 38161 17901 40282 15780 M 39261 18101 41382 15980 M 40361 18301 41492 17169 M 30261 10501 31392 9369 M 40161 10901 41292 9769 M 40661 11601 41792 10469 M 32061 11501 33192 10369 M 30661 11501 32782 9380 M 25761 10801 26892 9669 M 2861 42701 5689 39872 M 1561 42701 3682 40580 M 4261 42701 5392 41569" fill="none" stroke-width="499.999"/><path d="M 99023 48481 98223 48481 M 99023 39841 98223 39841 M 95023 48481 93923 48481 M 95023 39841 93923 39841" fill="none" stroke-width="1203.198"/><use xlink:href="#yTM0NqVVU9wvFaSiz-c7_pad-83" x="11382" y="21825"/><use xlink:href="#yTM0NqVVU9wvFaSiz-c7_pad-83" x="3382" y="21952"/><use xlink:href="#yTM0NqVVU9wvFaSiz-c7_pad-87" x="71341" y="15101"/><use xlink:href="#yTM0NqVVU9wvFaSiz-c7_pad-87" x="68801" y="15101"/><use xlink:href="#yTM0NqVVU9wvFaSiz-c7_pad-87" x="66261" y="15101"/><use xlink:href="#yTM0NqVVU9wvFaSiz-c7_pad-87" x="63721" y="15101"/><path d="M 60291 14211 60291 15989 62069 15989 62069 14211 60291 14211"/><path d="M 86460 29400 86460 31401 88462 31401 88462 29400 86460 29400"/><use xlink:href="#yTM0NqVVU9wvFaSiz-c7_pad-98" x="87461" y="32901"/><use xlink:href="#yTM0NqVVU9wvFaSiz-c7_pad-98" x="87461" y="35401"/><path d="M 86460 8199 86460 10203 88462 10203 88462 8199 86460 8199"/><use xlink:href="#yTM0NqVVU9wvFaSiz-c7_pad-98" x="87461" y="11701"/><use xlink:href="#yTM0NqVVU9wvFaSiz-c7_pad-98" x="87461" y="14201"/><path d="M 86460 18798 86460 20802 88462 20802 88462 18798 86460 18798"/><use xlink:href="#yTM0NqVVU9wvFaSiz-c7_pad-98" x="87461" y="22301"/><use xlink:href="#yTM0NqVVU9wvFaSiz-c7_pad-98" x="87461" y="24801"/><use xlink:href="#yTM0NqVVU9wvFaSiz-c7_pad-100" x="5061" y="14541"/><use xlink:href="#yTM0NqVVU9wvFaSiz-c7_pad-100" x="5061" y="9461"/><path d="M 2760 52489 2760 54493 4761 54493 4761 52489 2760 52489"/><use xlink:href="#yTM0NqVVU9wvFaSiz-c7_pad-98" x="3761" y="56031"/><use xlink:href="#yTM0NqVVU9wvFaSiz-c7_pad-98" x="3761" y="58571"/><use xlink:href="#yTM0NqVVU9wvFaSiz-c7_pad-98" x="3761" y="61111"/><path d="M 26750 65498 26750 67503 28751 67503 28751 65498 26750 65498"/><use xlink:href="#yTM0NqVVU9wvFaSiz-c7_pad-98" x="30291" y="66501"/><use xlink:href="#yTM0NqVVU9wvFaSiz-c7_pad-98" x="32831" y="66501"/><use xlink:href="#yTM0NqVVU9wvFaSiz-c7_pad-98" x="35371" y="66501"/><path d="M 46940 65498 46940 67503 48942 67503 48942 65498 46940 65498"/><use xlink:href="#yTM0NqVVU9wvFaSiz-c7_pad-98" x="50481" y="66501"/><use xlink:href="#yTM0NqVVU9wvFaSiz-c7_pad-98" x="53021" y="66501"/><use xlink:href="#yTM0NqVVU9wvFaSiz-c7_pad-98" x="55561" y="66501"/><path d="M 67149 65498 67149 67503 69153 67503 69153 65498 67149 65498"/><use xlink:href="#yTM0NqVVU9wvFaSiz-c7_pad-98" x="70691" y="66501"/><use xlink:href="#yTM0NqVVU9wvFaSiz-c7_pad-98" x="73231" y="66501"/><use xlink:href="#yTM0NqVVU9wvFaSiz-c7_pad-98" x="75771" y="66501"/><path d="M 39988 31899 39988 33903 41992 33903 41992 31899 39988 31899"/><use xlink:href="#yTM0NqVVU9wvFaSiz-c7_pad-98" x="43531" y="32901"/><path d="M 96064 57630 96064 59634 98066 59634 98066 57630 96064 57630"/><use xlink:href="#yTM0NqVVU9wvFaSiz-c7_pad-98" x="97065" y="61171"/><path d="M 84390 2720 84390 4724 86392 4724 86392 2720 84390 2720"/><use xlink:href="#yTM0NqVVU9wvFaSiz-c7_pad-98" x="87931" y="3722"/><path d="M 76689 2720 76689 4724 78693 4724 78693 2720 76689 2720"/><use xlink:href="#yTM0NqVVU9wvFaSiz-c7_pad-98" x="80231" y="3722"/><path d="M 53590 2720 53590 4724 55592 4724 55592 2720 53590 2720"/><use xlink:href="#yTM0NqVVU9wvFaSiz-c7_pad-98" x="57131" y="3722"/><path d="M 61289 2720 61289 4724 63293 4724 63293 2720 61289 2720"/><use xlink:href="#yTM0NqVVU9wvFaSiz-c7_pad-98" x="64831" y="3722"/><path d="M 68990 2720 68990 4724 70992 4724 70992 2720 68990 2720"/><use xlink:href="#yTM0NqVVU9wvFaSiz-c7_pad-98" x="72531" y="3722"/><use xlink:href="#yTM0NqVVU9wvFaSiz-c7_pad-98" x="47561" y="34041"/><use xlink:href="#yTM0NqVVU9wvFaSiz-c7_pad-98" x="47561" y="31501"/><use xlink:href="#yTM0NqVVU9wvFaSiz-c7_pad-117" x="47561" y="28961"/><use xlink:href="#yTM0NqVVU9wvFaSiz-c7_pad-98" x="97231" y="13321"/><use xlink:href="#yTM0NqVVU9wvFaSiz-c7_pad-98" x="94691" y="13321"/><use xlink:href="#yTM0NqVVU9wvFaSiz-c7_pad-98" x="97231" y="15861"/><use xlink:href="#yTM0NqVVU9wvFaSiz-c7_pad-98" x="94691" y="15861"/><use xlink:href="#yTM0NqVVU9wvFaSiz-c7_pad-98" x="97231" y="18401"/><use xlink:href="#yTM0NqVVU9wvFaSiz-c7_pad-98" x="94691" y="18401"/><use xlink:href="#yTM0NqVVU9wvFaSiz-c7_pad-98" x="97231" y="20941"/><use xlink:href="#yTM0NqVVU9wvFaSiz-c7_pad-98" x="94691" y="20941"/><use xlink:href="#yTM0NqVVU9wvFaSiz-c7_pad-98" x="97231" y="23481"/><path d="M 93689 22478 93689 24483 95693 24483 95693 22478 93689 22478"/><use xlink:href="#yTM0NqVVU9wvFaSiz-c7_pad-118" x="39360" y="5101"/><use xlink:href="#yTM0NqVVU9wvFaSiz-c7_pad-118" x="34280" y="5101"/><use xlink:href="#yTM0NqVVU9wvFaSiz-c7_pad-118" x="29202" y="5100"/><use xlink:href="#yTM0NqVVU9wvFaSiz-c7_pad-118" x="24120" y="5101"/><use xlink:href="#yTM0NqVVU9wvFaSiz-c7_pad-118" x="19040" y="5101"/><use xlink:href="#yTM0NqVVU9wvFaSiz-c7_pad-118" x="13963" y="5099"/><path d="M 89409 52948 89409 54251 90712 54251 90712 52948 89409 52948"/><use xlink:href="#yTM0NqVVU9wvFaSiz-c7_pad-120" x="90060" y="55099"/><use xlink:href="#yTM0NqVVU9wvFaSiz-c7_pad-120" x="90060" y="56600"/><use xlink:href="#yTM0NqVVU9wvFaSiz-c7_pad-120" x="90060" y="58101"/><use xlink:href="#yTM0NqVVU9wvFaSiz-c7_pad-120" x="90060" y="59602"/><use xlink:href="#yTM0NqVVU9wvFaSiz-c7_pad-120" x="90060" y="61101"/><use xlink:href="#yTM0NqVVU9wvFaSiz-c7_pad-120" x="90062" y="62602"/><path d="M 96064 31729 96064 33731 98066 33731 98066 31729 96064 31729"/><use xlink:href="#yTM0NqVVU9wvFaSiz-c7_pad-98" x="97065" y="35270"/><path d="M 45889 10299 45889 12301 47890 12301 47890 10299 45889 10299"/><use xlink:href="#yTM0NqVVU9wvFaSiz-c7_pad-98" x="49430" y="11300"/><path d="M 45889 2722 45889 4724 47890 4724 47890 2722 45889 2722"/><use xlink:href="#yTM0NqVVU9wvFaSiz-c7_pad-98" x="49430" y="3723"/><path d="M 4538 32075 A 2000 2000 0 0 1 538 32075 2000 2000 0 0 1 4538 32075 M 36328 29455 A 2000 2000 0 0 1 32328 29455 2000 2000 0 0 1 36328 29455" fill="none" stroke-width="1599.997"/><path d="M 100198 2575 A 2000 2000 0 0 1 96198 2575 2000 2000 0 0 1 100198 2575" fill="none" stroke-width="1799.996"/><path d="M 22398 67055 A 2000 2000 0 0 1 18398 67055 2000 2000 0 0 1 22398 67055 M 84538 67265 A 2000 2000 0 0 1 80538 67265 2000 2000 0 0 1 84538 67265 M 100198 67855 A 2000 2000 0 0 1 96198 67855 2000 2000 0 0 1 100198 67855 M 4469 2575 A 2000 2000 0 0 1 469 2575 2000 2000 0 0 1 4469 2575 M 4470 67855 A 2000 2000 0 0 1 470 67855 2000 2000 0 0 1 4470 67855" fill="none" stroke-width="1599.997"/><path d="M 1728 7888 A 650 650 0 0 1 428 7888 650 650 0 0 1 1728 7888 M 90928 67188 A 650 650 0 0 1 89628 67188 650 650 0 0 1 90928 67188" fill="none" stroke-width="100"/></g></svg>