<svg version="1.1" xmlns="http://www.w3.org/2000/svg" xmlns:xlink="http://www.w3.org/1999/xlink" stroke-linecap="round" stroke-linejoin="round" stroke-width="0" fill-rule="evenodd" width="95.5489985mm" height="65.494994mm" viewBox="3161.001 3906.0055 95548.9985 65494.994" id="PIg8FUQxGNQzMHHw2LEq"><defs><rect x="-575.005" y="-299.9995" width="1150.01" height="599.999" id="PIg8FUQxGNQzMHHw2LEq_pad-22"/><rect x="-649.9985" y="-149.9995" width="1299.997" height="299.999" id="PIg8FUQxGNQzMHHw2LEq_pad-23"/><rect x="-575.005" y="-149.9995" width="1150.01" height="299.999" id="PIg8FUQxGNQzMHHw2LEq_pad-24"/><rect x="-575.005" y="-699.9985" width="1150.01" height="1399.997" id="PIg8FUQxGNQzMHHw2LEq_pad-25"/><rect x="-599.999" y="-949.998" width="1199.998" height="1899.996" id="PIg8FUQxGNQzMHHw2LEq_pad-26"/><rect x="-499.999" y="-775.005" width="999.998" height="1550.01" id="PIg8FUQxGNQzMHHw2LEq_pad-27"/><rect x="-775.005" y="-499.999" width="1550.01" height="999.998" id="PIg8FUQxGNQzMHHw2LEq_pad-29"/><rect x="-649.9985" y="-349.9995" width="1299.997" height="699.999" id="PIg8FUQxGNQzMHHw2LEq_pad-30"/><rect x="-275.006" y="-499.999" width="550.012" height="999.998" id="PIg8FUQxGNQzMHHw2LEq_pad-31"/><rect x="-735.33" y="-635" width="1470.66" height="1270" id="PIg8FUQxGNQzMHHw2LEq_pad-32"/><rect x="-499.999" y="-549.999" width="999.998" height="1099.998" id="PIg8FUQxGNQzMHHw2LEq_pad-33"/><rect x="-549.999" y="-499.999" width="1099.998" height="999.998" id="PIg8FUQxGNQzMHHw2LEq_pad-34"/><rect x="-1725.041" y="-1279.995" width="3450.082" height="2559.99" id="PIg8FUQxGNQzMHHw2LEq_pad-35"/><rect x="-249.9995" y="-399.999" width="499.999" height="799.998" id="PIg8FUQxGNQzMHHw2LEq_pad-38"/><rect x="-495.3" y="-546.1" width="990.6" height="1092.2" id="PIg8FUQxGNQzMHHw2LEq_pad-39"/><rect x="-399.999" y="-249.9995" width="799.998" height="499.999" id="PIg8FUQxGNQzMHHw2LEq_pad-40"/><rect x="-1749.9965" y="-1749.9965" width="3499.993" height="3499.993" id="PIg8FUQxGNQzMHHw2LEq_pad-41"/><rect x="-299.9995" y="-649.9985" width="599.999" height="1299.997" id="PIg8FUQxGNQzMHHw2LEq_pad-42"/><rect x="-499.999" y="-599.999" width="999.998" height="1199.998" id="PIg8FUQxGNQzMHHw2LEq_pad-43"/><rect x="-349.9995" y="-625.005" width="699.999" height="1250.01" id="PIg8FUQxGNQzMHHw2LEq_pad-44"/><rect x="-625.005" y="-349.9995" width="1250.01" height="699.999" id="PIg8FUQxGNQzMHHw2LEq_pad-45"/><rect x="-546.1" y="-495.3" width="1092.2" height="990.6" id="PIg8FUQxGNQzMHHw2LEq_pad-46"/><rect x="-159.9945" y="-159.9945" width="319.989" height="319.989" id="PIg8FUQxGNQzMHHw2LEq_pad-47"/><rect x="-499.999" y="-1499.997" width="999.998" height="2999.994" id="PIg8FUQxGNQzMHHw2LEq_pad-49"/><rect x="-1649.9965" y="-799.9985" width="3299.993" height="1599.997" id="PIg8FUQxGNQzMHHw2LEq_pad-50"/><rect x="-299.9995" y="-509.994" width="599.999" height="1019.988" id="PIg8FUQxGNQzMHHw2LEq_pad-51"/><rect x="-299.9995" y="-635" width="599.999" height="1270" id="PIg8FUQxGNQzMHHw2LEq_pad-52"/><rect x="-2125.002" y="-1749.933" width="4250.004" height="3499.866" id="PIg8FUQxGNQzMHHw2LEq_pad-53"/><rect x="-249.9995" y="-649.9985" width="499.999" height="1299.997" id="PIg8FUQxGNQzMHHw2LEq_pad-54"/><rect x="-1499.997" y="-499.999" width="2999.994" height="999.998" id="PIg8FUQxGNQzMHHw2LEq_pad-48"/><rect x="-599.999" y="-699.9985" width="1199.998" height="1399.997" id="PIg8FUQxGNQzMHHw2LEq_pad-55"/></defs><g transform="translate(0,73307.005) scale(1,-1)" fill="currentColor" stroke="currentColor"><path d="M 21366 33572 21366 32372 M 20096 33572 20096 32372 M 18826 33572 18826 32372 M 17556 33572 17556 32372 M 21366 27629 21366 26429 M 20096 27629 20096 26429 M 18826 27629 18826 26429 M 17556 27629 17556 26429 M 87141 50696 88061 50696 M 87141 51966 88061 51966 M 87141 53236 88061 53236 M 87141 54506 88061 54506 M 81661 50696 82581 50696 M 81661 51966 82581 51966 M 81661 53236 82581 53236 M 81661 54506 82581 54506 M 87141 57896 88061 57896 M 87141 59166 88061 59166 M 87141 60436 88061 60436 M 87141 61706 88061 61706 M 81661 57896 82581 57896 M 81661 59166 82581 59166 M 81661 60436 82581 60436 M 81661 61706 82581 61706" fill="none" stroke-width="599.999"/><path d="M 68911 20191 68911 21711 M 68411 20191 68411 21711 M 67911 20191 67911 21711 M 67411 20191 67411 21711 M 66911 20191 66911 21711 M 66411 20191 66411 21711 M 65911 20191 65911 21711 M 65411 20191 65411 21711 M 64911 20191 64911 21711 M 64411 20191 64411 21711 M 63911 20191 63911 21711 M 63411 20191 63411 21711 M 62911 20191 62911 21711 M 62411 20191 62411 21711 M 61911 20191 61911 21711 M 61411 20191 61411 21711 M 60371 22751 58851 22751 M 60371 23251 58851 23251 M 60371 23751 58851 23751 M 60371 24251 58851 24251 M 60371 24751 58851 24751 M 60371 25251 58851 25251 M 60371 25751 58851 25751 M 60371 26251 58851 26251 M 60371 26751 58851 26751 M 60371 27251 58851 27251 M 60371 27751 58851 27751 M 60371 28251 58851 28251 M 60371 28751 58851 28751 M 60371 29251 58851 29251 M 60371 29751 58851 29751 M 60371 30251 58851 30251 M 61411 31291 61411 32811 M 61911 31291 61911 32811 M 62411 31291 62411 32811 M 62911 31291 62911 32811 M 63411 31291 63411 32811 M 63911 31291 63911 32811 M 64411 31291 64411 32811 M 64911 31291 64911 32811 M 65411 31291 65411 32811 M 65911 31291 65911 32811 M 66411 31291 66411 32811 M 66911 31291 66911 32811 M 67411 31291 67411 32811 M 67911 31291 67911 32811 M 68411 31291 68411 32811 M 68911 31291 68911 32811 M 71471 30251 69951 30251 M 71471 29751 69951 29751 M 71471 29251 69951 29251 M 71471 28751 69951 28751 M 71471 28251 69951 28251 M 71471 27751 69951 27751 M 71471 27251 69951 27251 M 71471 26751 69951 26751 M 71471 26251 69951 26251 M 71471 25751 69951 25751 M 71471 25251 69951 25251 M 71471 24751 69951 24751 M 71471 24251 69951 24251 M 71471 23751 69951 23751 M 71471 23251 69951 23251 M 71471 22751 69951 22751 M 30060 50611 30060 49991 M 30560 50611 30560 49991 M 31060 50611 31060 49991 M 31561 50611 31561 49991 M 32061 50611 32061 49991 M 32561 50611 32561 49991 M 33062 50611 33062 49991 M 33751 49302 34371 49302 M 33751 48802 34371 48802 M 33751 48301 34371 48301 M 33751 47801 34371 47801 M 33751 47301 34371 47301 M 33751 46800 34371 46800 M 33751 46300 34371 46300 M 33062 45611 33062 44991 M 32561 45611 32561 44991 M 32061 45611 32061 44991 M 31561 45611 31561 44991 M 31060 45611 31060 44991 M 30560 45611 30560 44991 M 30060 45611 30060 44991 M 28751 46300 29371 46300 M 28751 46800 29371 46800 M 28751 47301 29371 47301 M 28751 47801 29371 47801 M 28751 48301 29371 48301 M 28751 48802 29371 48802 M 28751 49302 29371 49302 M 12460 46711 12460 46091 M 12960 46711 12960 46091 M 13460 46711 13460 46091 M 13961 46711 13961 46091 M 14461 46711 14461 46091 M 14962 46711 14962 46091 M 15462 46711 15462 46091 M 16151 45402 16771 45402 M 16151 44902 16771 44902 M 16151 44401 16771 44401 M 16151 43901 16771 43901 M 16151 43400 16771 43400 M 16151 42900 16771 42900 M 16151 42400 16771 42400 M 15462 41711 15462 41091 M 14962 41711 14962 41091 M 14461 41711 14461 41091 M 13961 41711 13961 41091 M 13460 41711 13460 41091 M 12960 41711 12960 41091 M 12460 41711 12460 41091 M 11151 42400 11771 42400 M 11151 42900 11771 42900 M 11151 43400 11771 43400 M 11151 43901 11771 43901 M 11151 44401 11771 44401 M 11151 44902 11771 44902 M 11151 45402 11771 45402 M 70460 50611 70460 49991 M 70960 50611 70960 49991 M 71461 50611 71461 49991 M 71961 50611 71961 49991 M 72461 50611 72461 49991 M 72962 50611 72962 49991 M 73462 50611 73462 49991 M 74151 49302 74771 49302 M 74151 48802 74771 48802 M 74151 48301 74771 48301 M 74151 47801 74771 47801 M 74151 47301 74771 47301 M 74151 46800 74771 46800 M 74151 46300 74771 46300 M 73462 45611 73462 44991 M 72962 45611 72962 44991 M 72461 45611 72461 44991 M 71961 45611 71961 44991 M 71461 45611 71461 44991 M 70960 45611 70960 44991 M 70460 45611 70460 44991 M 69151 46300 69771 46300 M 69151 46800 69771 46800 M 69151 47301 69771 47301 M 69151 47801 69771 47801 M 69151 48301 69771 48301 M 69151 48802 69771 48802 M 69151 49302 69771 49302 M 50260 50611 50260 49991 M 50760 50611 50760 49991 M 51260 50611 51260 49991 M 51761 50611 51761 49991 M 52261 50611 52261 49991 M 52762 50611 52762 49991 M 53262 50611 53262 49991 M 53951 49302 54571 49302 M 53951 48802 54571 48802 M 53951 48301 54571 48301 M 53951 47801 54571 47801 M 53951 47301 54571 47301 M 53951 46800 54571 46800 M 53951 46300 54571 46300 M 53262 45611 53262 44991 M 52762 45611 52762 44991 M 52261 45611 52261 44991 M 51761 45611 51761 44991 M 51260 45611 51260 44991 M 50760 45611 50760 44991 M 50260 45611 50260 44991 M 48951 46300 49571 46300 M 48951 46800 49571 46800 M 48951 47301 49571 47301 M 48951 47801 49571 47801 M 48951 48301 49571 48301 M 48951 48802 49571 48802 M 48951 49302 49571 49302" fill="none" stroke-width="280.01"/><use xlink:href="#PIg8FUQxGNQzMHHw2LEq_pad-22" x="93898" y="40961"/><use xlink:href="#PIg8FUQxGNQzMHHw2LEq_pad-22" x="93898" y="41761"/><use xlink:href="#PIg8FUQxGNQzMHHw2LEq_pad-22" x="93898" y="47361"/><use xlink:href="#PIg8FUQxGNQzMHHw2LEq_pad-22" x="93898" y="46561"/><use xlink:href="#PIg8FUQxGNQzMHHw2LEq_pad-23" x="93898" y="45911"/><use xlink:href="#PIg8FUQxGNQzMHHw2LEq_pad-24" x="93898" y="45411"/><use xlink:href="#PIg8FUQxGNQzMHHw2LEq_pad-23" x="93898" y="44911"/><use xlink:href="#PIg8FUQxGNQzMHHw2LEq_pad-23" x="93898" y="44411"/><use xlink:href="#PIg8FUQxGNQzMHHw2LEq_pad-23" x="93898" y="43911"/><use xlink:href="#PIg8FUQxGNQzMHHw2LEq_pad-23" x="93898" y="43411"/><use xlink:href="#PIg8FUQxGNQzMHHw2LEq_pad-23" x="93898" y="42911"/><use xlink:href="#PIg8FUQxGNQzMHHw2LEq_pad-24" x="93898" y="42411"/><use xlink:href="#PIg8FUQxGNQzMHHw2LEq_pad-25" x="74361" y="23401"/><path d="M 75386 20501 75386 21539 75765 21901 76536 21901 76536 20501 75386 20501"/><use xlink:href="#PIg8FUQxGNQzMHHw2LEq_pad-25" x="74361" y="21201"/><use xlink:href="#PIg8FUQxGNQzMHHw2LEq_pad-25" x="75961" y="23401"/><use xlink:href="#PIg8FUQxGNQzMHHw2LEq_pad-26" x="82861" y="40201"/><use xlink:href="#PIg8FUQxGNQzMHHw2LEq_pad-26" x="86061" y="40201"/><use xlink:href="#PIg8FUQxGNQzMHHw2LEq_pad-27" x="32561" y="21701"/><use xlink:href="#PIg8FUQxGNQzMHHw2LEq_pad-27" x="30561" y="21701"/><path d="M 28919 28628 29647 27588 28443 26744 27714 27785 28919 28628"/><path d="M 31279 25257 32007 24217 30803 23374 30074 24414 31279 25257"/><use xlink:href="#PIg8FUQxGNQzMHHw2LEq_pad-27" x="72961" y="7501"/><use xlink:href="#PIg8FUQxGNQzMHHw2LEq_pad-27" x="70961" y="7501"/><use xlink:href="#PIg8FUQxGNQzMHHw2LEq_pad-29" x="79861" y="11401"/><use xlink:href="#PIg8FUQxGNQzMHHw2LEq_pad-29" x="79861" y="9401"/><use xlink:href="#PIg8FUQxGNQzMHHw2LEq_pad-30" x="93261" y="65351"/><use xlink:href="#PIg8FUQxGNQzMHHw2LEq_pad-30" x="87261" y="65351"/><use xlink:href="#PIg8FUQxGNQzMHHw2LEq_pad-30" x="93261" y="69051"/><use xlink:href="#PIg8FUQxGNQzMHHw2LEq_pad-30" x="87261" y="69051"/><use xlink:href="#PIg8FUQxGNQzMHHw2LEq_pad-31" x="82625" y="45601"/><use xlink:href="#PIg8FUQxGNQzMHHw2LEq_pad-31" x="83575" y="45601"/><use xlink:href="#PIg8FUQxGNQzMHHw2LEq_pad-31" x="84525" y="45601"/><use xlink:href="#PIg8FUQxGNQzMHHw2LEq_pad-31" x="84525" y="42801"/><use xlink:href="#PIg8FUQxGNQzMHHw2LEq_pad-31" x="83575" y="42801"/><use xlink:href="#PIg8FUQxGNQzMHHw2LEq_pad-31" x="82625" y="42801"/><use xlink:href="#PIg8FUQxGNQzMHHw2LEq_pad-32" x="25661" y="27043"/><use xlink:href="#PIg8FUQxGNQzMHHw2LEq_pad-32" x="25661" y="31158"/><use xlink:href="#PIg8FUQxGNQzMHHw2LEq_pad-33" x="47961" y="26501"/><use xlink:href="#PIg8FUQxGNQzMHHw2LEq_pad-33" x="46161" y="26501"/><use xlink:href="#PIg8FUQxGNQzMHHw2LEq_pad-34" x="34461" y="19901"/><use xlink:href="#PIg8FUQxGNQzMHHw2LEq_pad-34" x="34461" y="21701"/><use xlink:href="#PIg8FUQxGNQzMHHw2LEq_pad-33" x="84361" y="47401"/><use xlink:href="#PIg8FUQxGNQzMHHw2LEq_pad-33" x="82561" y="47401"/><use xlink:href="#PIg8FUQxGNQzMHHw2LEq_pad-26" x="23861" y="33601"/><use xlink:href="#PIg8FUQxGNQzMHHw2LEq_pad-26" x="27061" y="33601"/><use xlink:href="#PIg8FUQxGNQzMHHw2LEq_pad-35" x="19461" y="30001"/><use xlink:href="#PIg8FUQxGNQzMHHw2LEq_pad-34" x="23261" y="28301"/><use xlink:href="#PIg8FUQxGNQzMHHw2LEq_pad-34" x="23261" y="30101"/><path d="M 40869 19557 37580 20754 38333 22821 41622 21624 40869 19557"/><path d="M 39700 26578 38666 26954 39419 29021 40452 28645 39700 26578"/><path d="M 41861 25791 40828 26167 41580 28235 42614 27858 41861 25791"/><path d="M 44023 25004 42989 25381 43741 27448 44775 27072 44023 25004"/><use xlink:href="#PIg8FUQxGNQzMHHw2LEq_pad-38" x="28761" y="20001"/><use xlink:href="#PIg8FUQxGNQzMHHw2LEq_pad-38" x="27761" y="20001"/><use xlink:href="#PIg8FUQxGNQzMHHw2LEq_pad-38" x="14961" y="51901"/><use xlink:href="#PIg8FUQxGNQzMHHw2LEq_pad-38" x="13961" y="51901"/><use xlink:href="#PIg8FUQxGNQzMHHw2LEq_pad-38" x="18661" y="46001"/><use xlink:href="#PIg8FUQxGNQzMHHw2LEq_pad-38" x="19661" y="46001"/><use xlink:href="#PIg8FUQxGNQzMHHw2LEq_pad-38" x="12961" y="50401"/><use xlink:href="#PIg8FUQxGNQzMHHw2LEq_pad-38" x="13961" y="50401"/><use xlink:href="#PIg8FUQxGNQzMHHw2LEq_pad-38" x="9261" y="46001"/><use xlink:href="#PIg8FUQxGNQzMHHw2LEq_pad-38" x="8261" y="46001"/><use xlink:href="#PIg8FUQxGNQzMHHw2LEq_pad-38" x="32561" y="55801"/><use xlink:href="#PIg8FUQxGNQzMHHw2LEq_pad-38" x="31561" y="55801"/><use xlink:href="#PIg8FUQxGNQzMHHw2LEq_pad-38" x="36261" y="49901"/><use xlink:href="#PIg8FUQxGNQzMHHw2LEq_pad-38" x="37261" y="49901"/><use xlink:href="#PIg8FUQxGNQzMHHw2LEq_pad-38" x="30561" y="54301"/><use xlink:href="#PIg8FUQxGNQzMHHw2LEq_pad-38" x="31561" y="54301"/><use xlink:href="#PIg8FUQxGNQzMHHw2LEq_pad-38" x="26961" y="49901"/><use xlink:href="#PIg8FUQxGNQzMHHw2LEq_pad-38" x="25961" y="49901"/><use xlink:href="#PIg8FUQxGNQzMHHw2LEq_pad-38" x="52761" y="55801"/><use xlink:href="#PIg8FUQxGNQzMHHw2LEq_pad-38" x="51761" y="55801"/><use xlink:href="#PIg8FUQxGNQzMHHw2LEq_pad-38" x="56361" y="49901"/><use xlink:href="#PIg8FUQxGNQzMHHw2LEq_pad-38" x="57361" y="49901"/><use xlink:href="#PIg8FUQxGNQzMHHw2LEq_pad-38" x="50761" y="54301"/><use xlink:href="#PIg8FUQxGNQzMHHw2LEq_pad-38" x="51761" y="54301"/><use xlink:href="#PIg8FUQxGNQzMHHw2LEq_pad-38" x="47161" y="49901"/><use xlink:href="#PIg8FUQxGNQzMHHw2LEq_pad-38" x="46161" y="49901"/><use xlink:href="#PIg8FUQxGNQzMHHw2LEq_pad-38" x="72961" y="55801"/><use xlink:href="#PIg8FUQxGNQzMHHw2LEq_pad-38" x="71961" y="55801"/><use xlink:href="#PIg8FUQxGNQzMHHw2LEq_pad-38" x="76561" y="49901"/><use xlink:href="#PIg8FUQxGNQzMHHw2LEq_pad-38" x="77561" y="49901"/><use xlink:href="#PIg8FUQxGNQzMHHw2LEq_pad-38" x="70961" y="54301"/><use xlink:href="#PIg8FUQxGNQzMHHw2LEq_pad-38" x="71961" y="54301"/><use xlink:href="#PIg8FUQxGNQzMHHw2LEq_pad-38" x="67361" y="49901"/><use xlink:href="#PIg8FUQxGNQzMHHw2LEq_pad-38" x="66361" y="49901"/><use xlink:href="#PIg8FUQxGNQzMHHw2LEq_pad-39" x="73761" y="13650"/><use xlink:href="#PIg8FUQxGNQzMHHw2LEq_pad-39" x="73761" y="15352"/><use xlink:href="#PIg8FUQxGNQzMHHw2LEq_pad-40" x="17861" y="36401"/><use xlink:href="#PIg8FUQxGNQzMHHw2LEq_pad-40" x="17861" y="37401"/><use xlink:href="#PIg8FUQxGNQzMHHw2LEq_pad-38" x="12861" y="37201"/><use xlink:href="#PIg8FUQxGNQzMHHw2LEq_pad-38" x="11861" y="37201"/><use xlink:href="#PIg8FUQxGNQzMHHw2LEq_pad-38" x="13961" y="37201"/><use xlink:href="#PIg8FUQxGNQzMHHw2LEq_pad-38" x="14961" y="37201"/><use xlink:href="#PIg8FUQxGNQzMHHw2LEq_pad-41" x="31561" y="47801"/><use xlink:href="#PIg8FUQxGNQzMHHw2LEq_pad-41" x="13961" y="43901"/><use xlink:href="#PIg8FUQxGNQzMHHw2LEq_pad-41" x="71961" y="47801"/><use xlink:href="#PIg8FUQxGNQzMHHw2LEq_pad-41" x="51761" y="47801"/><use xlink:href="#PIg8FUQxGNQzMHHw2LEq_pad-42" x="28711" y="21801"/><use xlink:href="#PIg8FUQxGNQzMHHw2LEq_pad-42" x="27761" y="24201"/><use xlink:href="#PIg8FUQxGNQzMHHw2LEq_pad-42" x="26811" y="21801"/><use xlink:href="#PIg8FUQxGNQzMHHw2LEq_pad-43" x="81861" y="28201"/><use xlink:href="#PIg8FUQxGNQzMHHw2LEq_pad-43" x="81861" y="31001"/><use xlink:href="#PIg8FUQxGNQzMHHw2LEq_pad-43" x="83661" y="31001"/><use xlink:href="#PIg8FUQxGNQzMHHw2LEq_pad-43" x="83661" y="28201"/><use xlink:href="#PIg8FUQxGNQzMHHw2LEq_pad-40" x="11261" y="38401"/><use xlink:href="#PIg8FUQxGNQzMHHw2LEq_pad-40" x="11261" y="39401"/><use xlink:href="#PIg8FUQxGNQzMHHw2LEq_pad-40" x="29161" y="42301"/><use xlink:href="#PIg8FUQxGNQzMHHw2LEq_pad-40" x="29161" y="43301"/><use xlink:href="#PIg8FUQxGNQzMHHw2LEq_pad-40" x="49361" y="42301"/><use xlink:href="#PIg8FUQxGNQzMHHw2LEq_pad-40" x="49361" y="43301"/><use xlink:href="#PIg8FUQxGNQzMHHw2LEq_pad-40" x="69561" y="42301"/><use xlink:href="#PIg8FUQxGNQzMHHw2LEq_pad-40" x="69561" y="43301"/><use xlink:href="#PIg8FUQxGNQzMHHw2LEq_pad-44" x="6861" y="39251"/><use xlink:href="#PIg8FUQxGNQzMHHw2LEq_pad-44" x="7811" y="36751"/><use xlink:href="#PIg8FUQxGNQzMHHw2LEq_pad-44" x="5911" y="36751"/><use xlink:href="#PIg8FUQxGNQzMHHw2LEq_pad-44" x="9961" y="36951"/><use xlink:href="#PIg8FUQxGNQzMHHw2LEq_pad-44" x="10911" y="34451"/><use xlink:href="#PIg8FUQxGNQzMHHw2LEq_pad-44" x="9011" y="34451"/><use xlink:href="#PIg8FUQxGNQzMHHw2LEq_pad-45" x="39911" y="45501"/><use xlink:href="#PIg8FUQxGNQzMHHw2LEq_pad-45" x="42411" y="46451"/><use xlink:href="#PIg8FUQxGNQzMHHw2LEq_pad-45" x="42411" y="44551"/><use xlink:href="#PIg8FUQxGNQzMHHw2LEq_pad-45" x="39911" y="42101"/><use xlink:href="#PIg8FUQxGNQzMHHw2LEq_pad-45" x="42411" y="43051"/><use xlink:href="#PIg8FUQxGNQzMHHw2LEq_pad-45" x="42411" y="41151"/><use xlink:href="#PIg8FUQxGNQzMHHw2LEq_pad-45" x="67811" y="38901"/><use xlink:href="#PIg8FUQxGNQzMHHw2LEq_pad-45" x="70310" y="39851"/><use xlink:href="#PIg8FUQxGNQzMHHw2LEq_pad-45" x="70310" y="37951"/><use xlink:href="#PIg8FUQxGNQzMHHw2LEq_pad-44" x="73461" y="39651"/><use xlink:href="#PIg8FUQxGNQzMHHw2LEq_pad-44" x="74411" y="37151"/><use xlink:href="#PIg8FUQxGNQzMHHw2LEq_pad-44" x="72511" y="37151"/><use xlink:href="#PIg8FUQxGNQzMHHw2LEq_pad-45" x="59911" y="45501"/><use xlink:href="#PIg8FUQxGNQzMHHw2LEq_pad-45" x="62411" y="46451"/><use xlink:href="#PIg8FUQxGNQzMHHw2LEq_pad-45" x="62411" y="44551"/><use xlink:href="#PIg8FUQxGNQzMHHw2LEq_pad-45" x="59911" y="42101"/><use xlink:href="#PIg8FUQxGNQzMHHw2LEq_pad-45" x="62411" y="43051"/><use xlink:href="#PIg8FUQxGNQzMHHw2LEq_pad-45" x="62411" y="41151"/><use xlink:href="#PIg8FUQxGNQzMHHw2LEq_pad-33" x="8061" y="40801"/><use xlink:href="#PIg8FUQxGNQzMHHw2LEq_pad-33" x="9861" y="40801"/><use xlink:href="#PIg8FUQxGNQzMHHw2LEq_pad-33" x="25961" y="44701"/><use xlink:href="#PIg8FUQxGNQzMHHw2LEq_pad-33" x="27761" y="44701"/><use xlink:href="#PIg8FUQxGNQzMHHw2LEq_pad-33" x="10061" y="48901"/><use xlink:href="#PIg8FUQxGNQzMHHw2LEq_pad-33" x="8261" y="48901"/><use xlink:href="#PIg8FUQxGNQzMHHw2LEq_pad-33" x="17861" y="48901"/><use xlink:href="#PIg8FUQxGNQzMHHw2LEq_pad-33" x="19661" y="48901"/><use xlink:href="#PIg8FUQxGNQzMHHw2LEq_pad-33" x="35461" y="52801"/><use xlink:href="#PIg8FUQxGNQzMHHw2LEq_pad-33" x="37261" y="52801"/><use xlink:href="#PIg8FUQxGNQzMHHw2LEq_pad-33" x="27661" y="52801"/><use xlink:href="#PIg8FUQxGNQzMHHw2LEq_pad-33" x="25861" y="52801"/><use xlink:href="#PIg8FUQxGNQzMHHw2LEq_pad-33" x="75861" y="52801"/><use xlink:href="#PIg8FUQxGNQzMHHw2LEq_pad-33" x="77661" y="52801"/><use xlink:href="#PIg8FUQxGNQzMHHw2LEq_pad-33" x="68061" y="52801"/><use xlink:href="#PIg8FUQxGNQzMHHw2LEq_pad-33" x="66261" y="52801"/><use xlink:href="#PIg8FUQxGNQzMHHw2LEq_pad-33" x="47861" y="52801"/><use xlink:href="#PIg8FUQxGNQzMHHw2LEq_pad-33" x="46061" y="52801"/><use xlink:href="#PIg8FUQxGNQzMHHw2LEq_pad-33" x="55661" y="52801"/><use xlink:href="#PIg8FUQxGNQzMHHw2LEq_pad-33" x="57461" y="52801"/><use xlink:href="#PIg8FUQxGNQzMHHw2LEq_pad-33" x="46161" y="44701"/><use xlink:href="#PIg8FUQxGNQzMHHw2LEq_pad-33" x="47961" y="44701"/><use xlink:href="#PIg8FUQxGNQzMHHw2LEq_pad-33" x="66361" y="44701"/><use xlink:href="#PIg8FUQxGNQzMHHw2LEq_pad-33" x="68161" y="44701"/><use xlink:href="#PIg8FUQxGNQzMHHw2LEq_pad-40" x="15461" y="39401"/><use xlink:href="#PIg8FUQxGNQzMHHw2LEq_pad-40" x="15461" y="38401"/><use xlink:href="#PIg8FUQxGNQzMHHw2LEq_pad-40" x="12661" y="38401"/><use xlink:href="#PIg8FUQxGNQzMHHw2LEq_pad-40" x="12661" y="39401"/><use xlink:href="#PIg8FUQxGNQzMHHw2LEq_pad-40" x="14061" y="38401"/><use xlink:href="#PIg8FUQxGNQzMHHw2LEq_pad-40" x="14061" y="39401"/><use xlink:href="#PIg8FUQxGNQzMHHw2LEq_pad-46" x="46310" y="23001"/><use xlink:href="#PIg8FUQxGNQzMHHw2LEq_pad-46" x="48012" y="23001"/><use xlink:href="#PIg8FUQxGNQzMHHw2LEq_pad-40" x="9261" y="43301"/><use xlink:href="#PIg8FUQxGNQzMHHw2LEq_pad-40" x="9261" y="42301"/><use xlink:href="#PIg8FUQxGNQzMHHw2LEq_pad-40" x="26761" y="47201"/><use xlink:href="#PIg8FUQxGNQzMHHw2LEq_pad-40" x="26761" y="46201"/><use xlink:href="#PIg8FUQxGNQzMHHw2LEq_pad-40" x="67161" y="47201"/><use xlink:href="#PIg8FUQxGNQzMHHw2LEq_pad-40" x="67161" y="46201"/><use xlink:href="#PIg8FUQxGNQzMHHw2LEq_pad-40" x="46961" y="47201"/><use xlink:href="#PIg8FUQxGNQzMHHw2LEq_pad-40" x="46961" y="46201"/><use xlink:href="#PIg8FUQxGNQzMHHw2LEq_pad-47" x="9996" y="39191"/><use xlink:href="#PIg8FUQxGNQzMHHw2LEq_pad-47" x="9996" y="38411"/><use xlink:href="#PIg8FUQxGNQzMHHw2LEq_pad-47" x="8926" y="38411"/><use xlink:href="#PIg8FUQxGNQzMHHw2LEq_pad-47" x="8926" y="39191"/><use xlink:href="#PIg8FUQxGNQzMHHw2LEq_pad-47" x="27896" y="43091"/><use xlink:href="#PIg8FUQxGNQzMHHw2LEq_pad-47" x="27896" y="42311"/><use xlink:href="#PIg8FUQxGNQzMHHw2LEq_pad-47" x="26826" y="42311"/><use xlink:href="#PIg8FUQxGNQzMHHw2LEq_pad-47" x="26826" y="43091"/><use xlink:href="#PIg8FUQxGNQzMHHw2LEq_pad-47" x="68296" y="43091"/><use xlink:href="#PIg8FUQxGNQzMHHw2LEq_pad-47" x="68296" y="42311"/><use xlink:href="#PIg8FUQxGNQzMHHw2LEq_pad-47" x="67226" y="42311"/><use xlink:href="#PIg8FUQxGNQzMHHw2LEq_pad-47" x="67226" y="43091"/><use xlink:href="#PIg8FUQxGNQzMHHw2LEq_pad-47" x="48096" y="43091"/><use xlink:href="#PIg8FUQxGNQzMHHw2LEq_pad-47" x="48096" y="42311"/><use xlink:href="#PIg8FUQxGNQzMHHw2LEq_pad-47" x="47026" y="42311"/><use xlink:href="#PIg8FUQxGNQzMHHw2LEq_pad-47" x="47026" y="43091"/><use xlink:href="#PIg8FUQxGNQzMHHw2LEq_pad-47" x="43651" y="4066"/><use xlink:href="#PIg8FUQxGNQzMHHw2LEq_pad-47" x="42871" y="4066"/><use xlink:href="#PIg8FUQxGNQzMHHw2LEq_pad-47" x="42871" y="5136"/><use xlink:href="#PIg8FUQxGNQzMHHw2LEq_pad-47" x="43651" y="5136"/><path d="M 13634 64435 15755 62314 15048 61607 12926 63728 13634 64435"/><path d="M 9674 68395 11795 66274 11088 65567 8967 67688 9674 68395"/><use xlink:href="#PIg8FUQxGNQzMHHw2LEq_pad-49" x="3661" y="46601"/><use xlink:href="#PIg8FUQxGNQzMHHw2LEq_pad-49" x="3661" y="41001"/><use xlink:href="#PIg8FUQxGNQzMHHw2LEq_pad-49" x="61861" y="50801"/><use xlink:href="#PIg8FUQxGNQzMHHw2LEq_pad-49" x="61861" y="56401"/><use xlink:href="#PIg8FUQxGNQzMHHw2LEq_pad-49" x="41661" y="50801"/><use xlink:href="#PIg8FUQxGNQzMHHw2LEq_pad-49" x="41661" y="56401"/><use xlink:href="#PIg8FUQxGNQzMHHw2LEq_pad-50" x="17561" y="58851"/><use xlink:href="#PIg8FUQxGNQzMHHw2LEq_pad-50" x="17561" y="52351"/><use xlink:href="#PIg8FUQxGNQzMHHw2LEq_pad-50" x="10361" y="58851"/><use xlink:href="#PIg8FUQxGNQzMHHw2LEq_pad-50" x="10361" y="52351"/><use xlink:href="#PIg8FUQxGNQzMHHw2LEq_pad-38" x="37261" y="45701"/><use xlink:href="#PIg8FUQxGNQzMHHw2LEq_pad-38" x="36261" y="45701"/><use xlink:href="#PIg8FUQxGNQzMHHw2LEq_pad-38" x="19661" y="41801"/><use xlink:href="#PIg8FUQxGNQzMHHw2LEq_pad-38" x="18661" y="41801"/><use xlink:href="#PIg8FUQxGNQzMHHw2LEq_pad-38" x="19061" y="50501"/><use xlink:href="#PIg8FUQxGNQzMHHw2LEq_pad-38" x="18061" y="50501"/><use xlink:href="#PIg8FUQxGNQzMHHw2LEq_pad-38" x="8861" y="50501"/><use xlink:href="#PIg8FUQxGNQzMHHw2LEq_pad-38" x="9861" y="50501"/><use xlink:href="#PIg8FUQxGNQzMHHw2LEq_pad-38" x="36661" y="54401"/><use xlink:href="#PIg8FUQxGNQzMHHw2LEq_pad-38" x="35661" y="54401"/><use xlink:href="#PIg8FUQxGNQzMHHw2LEq_pad-38" x="26461" y="54401"/><use xlink:href="#PIg8FUQxGNQzMHHw2LEq_pad-38" x="27461" y="54401"/><use xlink:href="#PIg8FUQxGNQzMHHw2LEq_pad-38" x="77561" y="45701"/><use xlink:href="#PIg8FUQxGNQzMHHw2LEq_pad-38" x="76561" y="45701"/><use xlink:href="#PIg8FUQxGNQzMHHw2LEq_pad-38" x="57361" y="45701"/><use xlink:href="#PIg8FUQxGNQzMHHw2LEq_pad-38" x="56361" y="45701"/><use xlink:href="#PIg8FUQxGNQzMHHw2LEq_pad-38" x="56861" y="54401"/><use xlink:href="#PIg8FUQxGNQzMHHw2LEq_pad-38" x="55861" y="54401"/><use xlink:href="#PIg8FUQxGNQzMHHw2LEq_pad-38" x="46661" y="54401"/><use xlink:href="#PIg8FUQxGNQzMHHw2LEq_pad-38" x="47661" y="54401"/><use xlink:href="#PIg8FUQxGNQzMHHw2LEq_pad-38" x="77061" y="54401"/><use xlink:href="#PIg8FUQxGNQzMHHw2LEq_pad-38" x="76061" y="54401"/><use xlink:href="#PIg8FUQxGNQzMHHw2LEq_pad-38" x="66861" y="54401"/><use xlink:href="#PIg8FUQxGNQzMHHw2LEq_pad-38" x="67861" y="54401"/><path d="M 11761 17201 11761 16601 11061 16601 11061 15901 11761 15901 11761 14101 11061 14101 11061 13501 11761 13501 11761 13301 15961 13301 15961 13501 16661 13501 16661 14101 15961 14101 15961 15901 16661 15901 16661 16601 15961 16601 15961 17201 11761 17201"/><use xlink:href="#PIg8FUQxGNQzMHHw2LEq_pad-51" x="15767" y="17338"/><use xlink:href="#PIg8FUQxGNQzMHHw2LEq_pad-51" x="14497" y="17338"/><use xlink:href="#PIg8FUQxGNQzMHHw2LEq_pad-51" x="13227" y="17338"/><use xlink:href="#PIg8FUQxGNQzMHHw2LEq_pad-51" x="11954" y="17338"/><use xlink:href="#PIg8FUQxGNQzMHHw2LEq_pad-52" x="15767" y="11863"/><use xlink:href="#PIg8FUQxGNQzMHHw2LEq_pad-52" x="14497" y="11863"/><use xlink:href="#PIg8FUQxGNQzMHHw2LEq_pad-52" x="13227" y="11863"/><use xlink:href="#PIg8FUQxGNQzMHHw2LEq_pad-52" x="11957" y="11863"/><use xlink:href="#PIg8FUQxGNQzMHHw2LEq_pad-53" x="39461" y="13688"/><use xlink:href="#PIg8FUQxGNQzMHHw2LEq_pad-54" x="41366" y="11643"/><use xlink:href="#PIg8FUQxGNQzMHHw2LEq_pad-54" x="40096" y="11643"/><use xlink:href="#PIg8FUQxGNQzMHHw2LEq_pad-54" x="38826" y="11643"/><use xlink:href="#PIg8FUQxGNQzMHHw2LEq_pad-54" x="37556" y="11643"/><use xlink:href="#PIg8FUQxGNQzMHHw2LEq_pad-54" x="37556" y="17358"/><use xlink:href="#PIg8FUQxGNQzMHHw2LEq_pad-54" x="38826" y="17358"/><use xlink:href="#PIg8FUQxGNQzMHHw2LEq_pad-54" x="40096" y="17358"/><use xlink:href="#PIg8FUQxGNQzMHHw2LEq_pad-54" x="41366" y="17358"/><use xlink:href="#PIg8FUQxGNQzMHHw2LEq_pad-53" x="31361" y="13688"/><use xlink:href="#PIg8FUQxGNQzMHHw2LEq_pad-54" x="33266" y="11643"/><use xlink:href="#PIg8FUQxGNQzMHHw2LEq_pad-54" x="31996" y="11643"/><use xlink:href="#PIg8FUQxGNQzMHHw2LEq_pad-54" x="30726" y="11643"/><use xlink:href="#PIg8FUQxGNQzMHHw2LEq_pad-54" x="29456" y="11643"/><use xlink:href="#PIg8FUQxGNQzMHHw2LEq_pad-54" x="29456" y="17358"/><use xlink:href="#PIg8FUQxGNQzMHHw2LEq_pad-54" x="30726" y="17358"/><use xlink:href="#PIg8FUQxGNQzMHHw2LEq_pad-54" x="31996" y="17358"/><use xlink:href="#PIg8FUQxGNQzMHHw2LEq_pad-54" x="33266" y="17358"/><use xlink:href="#PIg8FUQxGNQzMHHw2LEq_pad-40" x="8061" y="32601"/><use xlink:href="#PIg8FUQxGNQzMHHw2LEq_pad-40" x="8061" y="31601"/><use xlink:href="#PIg8FUQxGNQzMHHw2LEq_pad-45" x="22811" y="12501"/><use xlink:href="#PIg8FUQxGNQzMHHw2LEq_pad-45" x="25311" y="13451"/><use xlink:href="#PIg8FUQxGNQzMHHw2LEq_pad-45" x="25311" y="11551"/><use xlink:href="#PIg8FUQxGNQzMHHw2LEq_pad-45" x="53011" y="11801"/><use xlink:href="#PIg8FUQxGNQzMHHw2LEq_pad-45" x="55511" y="12751"/><use xlink:href="#PIg8FUQxGNQzMHHw2LEq_pad-45" x="55511" y="10851"/><use xlink:href="#PIg8FUQxGNQzMHHw2LEq_pad-45" x="53011" y="8101"/><use xlink:href="#PIg8FUQxGNQzMHHw2LEq_pad-45" x="55511" y="9051"/><use xlink:href="#PIg8FUQxGNQzMHHw2LEq_pad-45" x="55511" y="7151"/><use xlink:href="#PIg8FUQxGNQzMHHw2LEq_pad-34" x="63661" y="7201"/><use xlink:href="#PIg8FUQxGNQzMHHw2LEq_pad-34" x="63661" y="9001"/><use xlink:href="#PIg8FUQxGNQzMHHw2LEq_pad-33" x="81861" y="7501"/><use xlink:href="#PIg8FUQxGNQzMHHw2LEq_pad-33" x="83661" y="7501"/><use xlink:href="#PIg8FUQxGNQzMHHw2LEq_pad-33" x="80061" y="7501"/><use xlink:href="#PIg8FUQxGNQzMHHw2LEq_pad-33" x="78261" y="7501"/><use xlink:href="#PIg8FUQxGNQzMHHw2LEq_pad-27" x="31061" y="34101"/><use xlink:href="#PIg8FUQxGNQzMHHw2LEq_pad-27" x="29061" y="34101"/><use xlink:href="#PIg8FUQxGNQzMHHw2LEq_pad-34" x="9461" y="28301"/><use xlink:href="#PIg8FUQxGNQzMHHw2LEq_pad-34" x="9461" y="30101"/><use xlink:href="#PIg8FUQxGNQzMHHw2LEq_pad-33" x="23261" y="22201"/><use xlink:href="#PIg8FUQxGNQzMHHw2LEq_pad-33" x="25061" y="22201"/><use xlink:href="#PIg8FUQxGNQzMHHw2LEq_pad-26" x="18061" y="22601"/><use xlink:href="#PIg8FUQxGNQzMHHw2LEq_pad-26" x="21261" y="22601"/><use xlink:href="#PIg8FUQxGNQzMHHw2LEq_pad-48" x="19261" y="17701"/><use xlink:href="#PIg8FUQxGNQzMHHw2LEq_pad-48" x="24861" y="17701"/><use xlink:href="#PIg8FUQxGNQzMHHw2LEq_pad-40" x="71561" y="12101"/><use xlink:href="#PIg8FUQxGNQzMHHw2LEq_pad-40" x="71561" y="13101"/><use xlink:href="#PIg8FUQxGNQzMHHw2LEq_pad-40" x="74461" y="27401"/><use xlink:href="#PIg8FUQxGNQzMHHw2LEq_pad-40" x="74461" y="28401"/><use xlink:href="#PIg8FUQxGNQzMHHw2LEq_pad-38" x="60261" y="8601"/><use xlink:href="#PIg8FUQxGNQzMHHw2LEq_pad-38" x="59261" y="8601"/><use xlink:href="#PIg8FUQxGNQzMHHw2LEq_pad-38" x="61361" y="7201"/><use xlink:href="#PIg8FUQxGNQzMHHw2LEq_pad-38" x="60361" y="7201"/><use xlink:href="#PIg8FUQxGNQzMHHw2LEq_pad-38" x="69061" y="7201"/><use xlink:href="#PIg8FUQxGNQzMHHw2LEq_pad-38" x="68061" y="7201"/><use xlink:href="#PIg8FUQxGNQzMHHw2LEq_pad-40" x="83861" y="24201"/><use xlink:href="#PIg8FUQxGNQzMHHw2LEq_pad-40" x="83861" y="23201"/><use xlink:href="#PIg8FUQxGNQzMHHw2LEq_pad-40" x="83861" y="12201"/><use xlink:href="#PIg8FUQxGNQzMHHw2LEq_pad-40" x="83861" y="11201"/><path d="M 58948 32053 59301 32407 59867 31841 59513 31488 58948 32053"/><path d="M 59655 32761 60008 33114 60574 32548 60221 32195 59655 32761"/><use xlink:href="#PIg8FUQxGNQzMHHw2LEq_pad-38" x="68961" y="34101"/><use xlink:href="#PIg8FUQxGNQzMHHw2LEq_pad-38" x="67961" y="34101"/><use xlink:href="#PIg8FUQxGNQzMHHw2LEq_pad-40" x="57761" y="22901"/><use xlink:href="#PIg8FUQxGNQzMHHw2LEq_pad-40" x="57761" y="21901"/><use xlink:href="#PIg8FUQxGNQzMHHw2LEq_pad-38" x="69561" y="19001"/><use xlink:href="#PIg8FUQxGNQzMHHw2LEq_pad-38" x="70561" y="19001"/><use xlink:href="#PIg8FUQxGNQzMHHw2LEq_pad-38" x="79461" y="61801"/><use xlink:href="#PIg8FUQxGNQzMHHw2LEq_pad-38" x="80461" y="61801"/><use xlink:href="#PIg8FUQxGNQzMHHw2LEq_pad-38" x="82261" y="56201"/><use xlink:href="#PIg8FUQxGNQzMHHw2LEq_pad-38" x="83261" y="56201"/><use xlink:href="#PIg8FUQxGNQzMHHw2LEq_pad-38" x="74061" y="25201"/><use xlink:href="#PIg8FUQxGNQzMHHw2LEq_pad-38" x="75061" y="25201"/><use xlink:href="#PIg8FUQxGNQzMHHw2LEq_pad-38" x="74061" y="19401"/><use xlink:href="#PIg8FUQxGNQzMHHw2LEq_pad-38" x="75061" y="19401"/><use xlink:href="#PIg8FUQxGNQzMHHw2LEq_pad-55" x="21061" y="12001"/><use xlink:href="#PIg8FUQxGNQzMHHw2LEq_pad-55" x="17661" y="12001"/><use xlink:href="#PIg8FUQxGNQzMHHw2LEq_pad-38" x="56560" y="25201"/><use xlink:href="#PIg8FUQxGNQzMHHw2LEq_pad-38" x="55560" y="25201"/><use xlink:href="#PIg8FUQxGNQzMHHw2LEq_pad-38" x="56560" y="23802"/><use xlink:href="#PIg8FUQxGNQzMHHw2LEq_pad-38" x="55560" y="23802"/><use xlink:href="#PIg8FUQxGNQzMHHw2LEq_pad-33" x="81960" y="9400"/><use xlink:href="#PIg8FUQxGNQzMHHw2LEq_pad-33" x="83560" y="9400"/><use xlink:href="#PIg8FUQxGNQzMHHw2LEq_pad-33" x="74861" y="7500"/><use xlink:href="#PIg8FUQxGNQzMHHw2LEq_pad-33" x="76461" y="7500"/><use xlink:href="#PIg8FUQxGNQzMHHw2LEq_pad-40" x="26462" y="20100"/><use xlink:href="#PIg8FUQxGNQzMHHw2LEq_pad-40" x="26462" y="19100"/><use xlink:href="#PIg8FUQxGNQzMHHw2LEq_pad-33" x="12961" y="30200"/><use xlink:href="#PIg8FUQxGNQzMHHw2LEq_pad-33" x="11361" y="30200"/><use xlink:href="#PIg8FUQxGNQzMHHw2LEq_pad-34" x="15960" y="20900"/><use xlink:href="#PIg8FUQxGNQzMHHw2LEq_pad-34" x="15960" y="19500"/><use xlink:href="#PIg8FUQxGNQzMHHw2LEq_pad-33" x="16660" y="24902"/><use xlink:href="#PIg8FUQxGNQzMHHw2LEq_pad-33" x="18060" y="24902"/><use xlink:href="#PIg8FUQxGNQzMHHw2LEq_pad-33" x="10861" y="26400"/><use xlink:href="#PIg8FUQxGNQzMHHw2LEq_pad-33" x="9461" y="26400"/><use xlink:href="#PIg8FUQxGNQzMHHw2LEq_pad-40" x="24761" y="48301"/><use xlink:href="#PIg8FUQxGNQzMHHw2LEq_pad-40" x="24761" y="49301"/><use xlink:href="#PIg8FUQxGNQzMHHw2LEq_pad-38" x="31860" y="41102"/><use xlink:href="#PIg8FUQxGNQzMHHw2LEq_pad-38" x="32860" y="41102"/><use xlink:href="#PIg8FUQxGNQzMHHw2LEq_pad-38" x="30762" y="41102"/><use xlink:href="#PIg8FUQxGNQzMHHw2LEq_pad-38" x="29762" y="41102"/><use xlink:href="#PIg8FUQxGNQzMHHw2LEq_pad-40" x="44961" y="48301"/><use xlink:href="#PIg8FUQxGNQzMHHw2LEq_pad-40" x="44961" y="49301"/><use xlink:href="#PIg8FUQxGNQzMHHw2LEq_pad-40" x="65161" y="48301"/><use xlink:href="#PIg8FUQxGNQzMHHw2LEq_pad-40" x="65161" y="49301"/><use xlink:href="#PIg8FUQxGNQzMHHw2LEq_pad-38" x="71160" y="41102"/><use xlink:href="#PIg8FUQxGNQzMHHw2LEq_pad-38" x="70160" y="41102"/><use xlink:href="#PIg8FUQxGNQzMHHw2LEq_pad-38" x="72261" y="41102"/><use xlink:href="#PIg8FUQxGNQzMHHw2LEq_pad-38" x="73261" y="41102"/><use xlink:href="#PIg8FUQxGNQzMHHw2LEq_pad-38" x="52060" y="41102"/><use xlink:href="#PIg8FUQxGNQzMHHw2LEq_pad-38" x="53060" y="41102"/><use xlink:href="#PIg8FUQxGNQzMHHw2LEq_pad-38" x="50960" y="41102"/><use xlink:href="#PIg8FUQxGNQzMHHw2LEq_pad-38" x="49960" y="41102"/><use xlink:href="#PIg8FUQxGNQzMHHw2LEq_pad-33" x="12961" y="28201"/><use xlink:href="#PIg8FUQxGNQzMHHw2LEq_pad-33" x="11361" y="28201"/><use xlink:href="#PIg8FUQxGNQzMHHw2LEq_pad-40" x="70160" y="12300"/><use xlink:href="#PIg8FUQxGNQzMHHw2LEq_pad-40" x="70160" y="11300"/><use xlink:href="#PIg8FUQxGNQzMHHw2LEq_pad-38" x="62462" y="10700"/><use xlink:href="#PIg8FUQxGNQzMHHw2LEq_pad-38" x="63462" y="10700"/><use xlink:href="#PIg8FUQxGNQzMHHw2LEq_pad-40" x="68761" y="12100"/><use xlink:href="#PIg8FUQxGNQzMHHw2LEq_pad-40" x="68761" y="13100"/><use xlink:href="#PIg8FUQxGNQzMHHw2LEq_pad-40" x="63762" y="12001"/><use xlink:href="#PIg8FUQxGNQzMHHw2LEq_pad-40" x="63762" y="13001"/><use xlink:href="#PIg8FUQxGNQzMHHw2LEq_pad-38" x="66962" y="17200"/><use xlink:href="#PIg8FUQxGNQzMHHw2LEq_pad-38" x="65962" y="17200"/><use xlink:href="#PIg8FUQxGNQzMHHw2LEq_pad-40" x="35761" y="16502"/><use xlink:href="#PIg8FUQxGNQzMHHw2LEq_pad-40" x="35761" y="17502"/><use xlink:href="#PIg8FUQxGNQzMHHw2LEq_pad-40" x="27460" y="16502"/><use xlink:href="#PIg8FUQxGNQzMHHw2LEq_pad-40" x="27460" y="17502"/><use xlink:href="#PIg8FUQxGNQzMHHw2LEq_pad-38" x="27861" y="13001"/><use xlink:href="#PIg8FUQxGNQzMHHw2LEq_pad-38" x="26861" y="13001"/><use xlink:href="#PIg8FUQxGNQzMHHw2LEq_pad-38" x="58161" y="12801"/><use xlink:href="#PIg8FUQxGNQzMHHw2LEq_pad-38" x="57161" y="12801"/><use xlink:href="#PIg8FUQxGNQzMHHw2LEq_pad-38" x="58161" y="10002"/><use xlink:href="#PIg8FUQxGNQzMHHw2LEq_pad-38" x="57161" y="10002"/><use xlink:href="#PIg8FUQxGNQzMHHw2LEq_pad-40" x="92860" y="31401"/><use xlink:href="#PIg8FUQxGNQzMHHw2LEq_pad-40" x="92860" y="32401"/><use xlink:href="#PIg8FUQxGNQzMHHw2LEq_pad-38" x="98460" y="55300"/><use xlink:href="#PIg8FUQxGNQzMHHw2LEq_pad-38" x="97460" y="55300"/><use xlink:href="#PIg8FUQxGNQzMHHw2LEq_pad-38" x="95162" y="55300"/><use xlink:href="#PIg8FUQxGNQzMHHw2LEq_pad-38" x="96162" y="55300"/><use xlink:href="#PIg8FUQxGNQzMHHw2LEq_pad-38" x="84361" y="56202"/><use xlink:href="#PIg8FUQxGNQzMHHw2LEq_pad-38" x="85361" y="56202"/><use xlink:href="#PIg8FUQxGNQzMHHw2LEq_pad-38" x="87660" y="63502"/><use xlink:href="#PIg8FUQxGNQzMHHw2LEq_pad-38" x="86660" y="63502"/><use xlink:href="#PIg8FUQxGNQzMHHw2LEq_pad-40" x="93660" y="61901"/><use xlink:href="#PIg8FUQxGNQzMHHw2LEq_pad-40" x="93660" y="60901"/><use xlink:href="#PIg8FUQxGNQzMHHw2LEq_pad-34" x="67061" y="11000"/><use xlink:href="#PIg8FUQxGNQzMHHw2LEq_pad-34" x="67061" y="12600"/><use xlink:href="#PIg8FUQxGNQzMHHw2LEq_pad-40" x="33361" y="43301"/><use xlink:href="#PIg8FUQxGNQzMHHw2LEq_pad-40" x="33361" y="42301"/><use xlink:href="#PIg8FUQxGNQzMHHw2LEq_pad-40" x="31961" y="42301"/><use xlink:href="#PIg8FUQxGNQzMHHw2LEq_pad-40" x="31961" y="43301"/><use xlink:href="#PIg8FUQxGNQzMHHw2LEq_pad-40" x="30561" y="42301"/><use xlink:href="#PIg8FUQxGNQzMHHw2LEq_pad-40" x="30561" y="43301"/><use xlink:href="#PIg8FUQxGNQzMHHw2LEq_pad-40" x="73762" y="43301"/><use xlink:href="#PIg8FUQxGNQzMHHw2LEq_pad-40" x="73762" y="42301"/><use xlink:href="#PIg8FUQxGNQzMHHw2LEq_pad-40" x="53561" y="43301"/><use xlink:href="#PIg8FUQxGNQzMHHw2LEq_pad-40" x="53561" y="42301"/><use xlink:href="#PIg8FUQxGNQzMHHw2LEq_pad-40" x="70960" y="42301"/><use xlink:href="#PIg8FUQxGNQzMHHw2LEq_pad-40" x="70960" y="43301"/><use xlink:href="#PIg8FUQxGNQzMHHw2LEq_pad-40" x="72360" y="42301"/><use xlink:href="#PIg8FUQxGNQzMHHw2LEq_pad-40" x="72360" y="43301"/><use xlink:href="#PIg8FUQxGNQzMHHw2LEq_pad-40" x="52162" y="42301"/><use xlink:href="#PIg8FUQxGNQzMHHw2LEq_pad-40" x="52162" y="43301"/><use xlink:href="#PIg8FUQxGNQzMHHw2LEq_pad-40" x="50762" y="42301"/><use xlink:href="#PIg8FUQxGNQzMHHw2LEq_pad-40" x="50762" y="43301"/><use xlink:href="#PIg8FUQxGNQzMHHw2LEq_pad-38" x="46860" y="24800"/><use xlink:href="#PIg8FUQxGNQzMHHw2LEq_pad-38" x="45860" y="24800"/><use xlink:href="#PIg8FUQxGNQzMHHw2LEq_pad-40" x="72962" y="25600"/><use xlink:href="#PIg8FUQxGNQzMHHw2LEq_pad-40" x="72962" y="26600"/><use xlink:href="#PIg8FUQxGNQzMHHw2LEq_pad-38" x="56560" y="22402"/><use xlink:href="#PIg8FUQxGNQzMHHw2LEq_pad-38" x="55560" y="22402"/><use xlink:href="#PIg8FUQxGNQzMHHw2LEq_pad-50" x="27960" y="62751"/><use xlink:href="#PIg8FUQxGNQzMHHw2LEq_pad-50" x="27960" y="56251"/><use xlink:href="#PIg8FUQxGNQzMHHw2LEq_pad-50" x="35161" y="62751"/><use xlink:href="#PIg8FUQxGNQzMHHw2LEq_pad-50" x="35161" y="56251"/><use xlink:href="#PIg8FUQxGNQzMHHw2LEq_pad-50" x="68362" y="62751"/><use xlink:href="#PIg8FUQxGNQzMHHw2LEq_pad-50" x="68362" y="56251"/><use xlink:href="#PIg8FUQxGNQzMHHw2LEq_pad-50" x="75560" y="62751"/><use xlink:href="#PIg8FUQxGNQzMHHw2LEq_pad-50" x="75560" y="56251"/><use xlink:href="#PIg8FUQxGNQzMHHw2LEq_pad-50" x="55362" y="62751"/><use xlink:href="#PIg8FUQxGNQzMHHw2LEq_pad-50" x="55362" y="56251"/><use xlink:href="#PIg8FUQxGNQzMHHw2LEq_pad-50" x="48161" y="62751"/><use xlink:href="#PIg8FUQxGNQzMHHw2LEq_pad-50" x="48161" y="56251"/><use xlink:href="#PIg8FUQxGNQzMHHw2LEq_pad-40" x="35761" y="14401"/><use xlink:href="#PIg8FUQxGNQzMHHw2LEq_pad-40" x="35761" y="15401"/><use xlink:href="#PIg8FUQxGNQzMHHw2LEq_pad-40" x="27061" y="14401"/><use xlink:href="#PIg8FUQxGNQzMHHw2LEq_pad-40" x="27061" y="15401"/><use xlink:href="#PIg8FUQxGNQzMHHw2LEq_pad-38" x="26861" y="11602"/><use xlink:href="#PIg8FUQxGNQzMHHw2LEq_pad-38" x="27861" y="11602"/><use xlink:href="#PIg8FUQxGNQzMHHw2LEq_pad-38" x="57161" y="11401"/><use xlink:href="#PIg8FUQxGNQzMHHw2LEq_pad-38" x="58161" y="11401"/><use xlink:href="#PIg8FUQxGNQzMHHw2LEq_pad-38" x="57161" y="8600"/><use xlink:href="#PIg8FUQxGNQzMHHw2LEq_pad-38" x="58161" y="8600"/><use xlink:href="#PIg8FUQxGNQzMHHw2LEq_pad-38" x="65560" y="10700"/><use xlink:href="#PIg8FUQxGNQzMHHw2LEq_pad-38" x="64560" y="10700"/><use xlink:href="#PIg8FUQxGNQzMHHw2LEq_pad-40" x="93660" y="56700"/><use xlink:href="#PIg8FUQxGNQzMHHw2LEq_pad-40" x="93660" y="57700"/><use xlink:href="#PIg8FUQxGNQzMHHw2LEq_pad-40" x="93660" y="58800"/><use xlink:href="#PIg8FUQxGNQzMHHw2LEq_pad-40" x="93660" y="59800"/><use xlink:href="#PIg8FUQxGNQzMHHw2LEq_pad-40" x="25362" y="46202"/><use xlink:href="#PIg8FUQxGNQzMHHw2LEq_pad-40" x="25362" y="47202"/><use xlink:href="#PIg8FUQxGNQzMHHw2LEq_pad-40" x="45560" y="46202"/><use xlink:href="#PIg8FUQxGNQzMHHw2LEq_pad-40" x="45560" y="47202"/><use xlink:href="#PIg8FUQxGNQzMHHw2LEq_pad-40" x="65761" y="46202"/><use xlink:href="#PIg8FUQxGNQzMHHw2LEq_pad-40" x="65761" y="47202"/><use xlink:href="#PIg8FUQxGNQzMHHw2LEq_pad-38" x="57161" y="14200"/><use xlink:href="#PIg8FUQxGNQzMHHw2LEq_pad-38" x="58161" y="14200"/><use xlink:href="#PIg8FUQxGNQzMHHw2LEq_pad-38" x="18662" y="44602"/><use xlink:href="#PIg8FUQxGNQzMHHw2LEq_pad-38" x="19662" y="44602"/><use xlink:href="#PIg8FUQxGNQzMHHw2LEq_pad-38" x="18662" y="43202"/><use xlink:href="#PIg8FUQxGNQzMHHw2LEq_pad-38" x="19662" y="43202"/><use xlink:href="#PIg8FUQxGNQzMHHw2LEq_pad-38" x="36261" y="47101"/><use xlink:href="#PIg8FUQxGNQzMHHw2LEq_pad-38" x="37261" y="47101"/><use xlink:href="#PIg8FUQxGNQzMHHw2LEq_pad-38" x="36261" y="48501"/><use xlink:href="#PIg8FUQxGNQzMHHw2LEq_pad-38" x="37261" y="48501"/><use xlink:href="#PIg8FUQxGNQzMHHw2LEq_pad-38" x="56360" y="47101"/><use xlink:href="#PIg8FUQxGNQzMHHw2LEq_pad-38" x="57360" y="47101"/><use xlink:href="#PIg8FUQxGNQzMHHw2LEq_pad-38" x="56360" y="48501"/><use xlink:href="#PIg8FUQxGNQzMHHw2LEq_pad-38" x="57360" y="48501"/><use xlink:href="#PIg8FUQxGNQzMHHw2LEq_pad-38" x="76561" y="48501"/><use xlink:href="#PIg8FUQxGNQzMHHw2LEq_pad-38" x="77561" y="48501"/><use xlink:href="#PIg8FUQxGNQzMHHw2LEq_pad-38" x="76561" y="47101"/><use xlink:href="#PIg8FUQxGNQzMHHw2LEq_pad-38" x="77561" y="47101"/></g></svg>