<svg version="1.1" xmlns="http://www.w3.org/2000/svg" xmlns:xlink="http://www.w3.org/1999/xlink" stroke-linecap="round" stroke-linejoin="round" stroke-width="0" fill-rule="evenodd" width="113.3296mm" height="81.68960000000001mm" viewBox="-288.8 -11437.8 113329.6 81689.6" id="yPiPc1jt7TrRMtKPjDmD"><g transform="translate(0,58814.00000000001) scale(1,-1)" fill="currentColor" stroke="currentColor"><path d="M 110427 1 110427 25229 M 110427 44972 110427 70201 M 110808 1525 110427 1 110046 1525 M 110808 68677 110427 70201 110046 68677 M 112990 42848 110565 44004 M 112990 44463 112990 42848 M 112990 41393 112873 41740 112528 41972 111951 42086 111603 42086 111027 41972 110681 41740 110565 41393 110565 41161 110681 40816 111027 40585 111603 40470 111951 40470 112528 40585 112873 40816 112990 41161 112990 41393 M 111144 39592 111027 39708 110913 39592 111027 39477 111144 39592 M 112414 38599 112528 38599 112759 38484 112873 38367 112990 38136 112990 37676 112873 37445 112759 37329 112528 37214 112297 37214 112066 37329 111720 37560 110565 38715 110565 37097 M 112990 35644 112873 35990 112528 36221 111951 36335 111603 36335 111027 36221 110681 35990 110565 35644 110565 35413 110681 35065 111027 34834 111603 34720 111951 34720 112528 34834 112873 35065 112990 35413 112990 35644 M 112990 33265 112873 33612 112528 33844 111951 33958 111603 33958 111027 33844 110681 33612 110565 33265 110565 33033 110681 32688 111027 32457 111603 32342 111951 32342 112528 32457 112873 32688 112990 33033 112990 33265 M 112183 31580 110565 31580 M 111720 31580 112066 31233 112183 31001 112183 30656 112066 30425 111720 30310 110565 30310 M 111720 30310 112066 29963 112183 29731 112183 29386 112066 29155 111720 29040 110565 29040 M 112183 28278 110565 28278 M 111720 28278 112066 27931 112183 27699 112183 27354 112066 27123 111720 27008 110565 27008 M 111720 27008 112066 26661 112183 26429 112183 26084 112066 25853 111720 25738 110565 25738 M 92961 1 112967 1 M 92961 70201 112967 70201 M 100561 -8847 60702 -8847 M 39620 -8847 -238 -8847 M 99037 -8466 100561 -8847 99037 -9228 M 1285 -8466 -238 -8847 1285 -9228 M 40129 -6746 40360 -6629 40705 -6283 40705 -8709 M 42161 -6283 41813 -6400 41582 -6746 41467 -7322 41467 -7670 41582 -8247 41813 -8592 42161 -8709 42392 -8709 42737 -8592 42969 -8247 43083 -7670 43083 -7322 42969 -6746 42737 -6400 42392 -6283 42161 -6283 M 44538 -6283 44193 -6400 43962 -6746 43845 -7322 43845 -7670 43962 -8247 44193 -8592 44538 -8709 44769 -8709 45115 -8592 45346 -8247 45463 -7670 45463 -7322 45346 -6746 45115 -6400 44769 -6283 44538 -6283 M 46339 -8130 46225 -8247 46339 -8361 46456 -8247 46339 -8130 M 47795 -6283 47447 -6400 47332 -6629 47332 -6860 47447 -7091 47678 -7208 48140 -7322 48488 -7439 48717 -7670 48833 -7899 48833 -8247 48717 -8478 48602 -8592 48257 -8709 47795 -8709 47447 -8592 47332 -8478 47218 -8247 47218 -7899 47332 -7670 47563 -7439 47909 -7322 48371 -7208 48602 -7091 48717 -6860 48717 -6629 48602 -6400 48257 -6283 47795 -6283 M 50289 -6283 49941 -6400 49710 -6746 49595 -7322 49595 -7670 49710 -8247 49941 -8592 50289 -8709 50520 -8709 50865 -8592 51097 -8247 51211 -7670 51211 -7322 51097 -6746 50865 -6400 50520 -6283 50289 -6283 M 52666 -6283 52321 -6400 52090 -6746 51973 -7322 51973 -7670 52090 -8247 52321 -8592 52666 -8709 52897 -8709 53243 -8592 53474 -8247 53591 -7670 53591 -7322 53474 -6746 53243 -6400 52897 -6283 52666 -6283 M 54353 -7091 54353 -8709 M 54353 -7553 54698 -7208 54929 -7091 55275 -7091 55506 -7208 55623 -7553 55623 -8709 M 55623 -7553 55968 -7208 56199 -7091 56545 -7091 56776 -7208 56893 -7553 56893 -8709 M 57655 -7091 57655 -8709 M 57655 -7553 58000 -7208 58231 -7091 58577 -7091 58808 -7208 58925 -7553 58925 -8709 M 58925 -7553 59270 -7208 59501 -7091 59847 -7091 60078 -7208 60195 -7553 60195 -8709 M 100561 5101 100561 -11387 M -238 5101 -238 -11387 M 105974 67801 105974 44972 M 105974 25229 105974 2401 M 105593 66277 105974 67801 106355 66277 M 105593 3925 105974 2401 106355 3925 M 103757 27123 103526 27008 103412 26660 103412 26429 103526 26084 103874 25853 104450 25738 105027 25738 105489 25853 105720 26084 105835 26429 105835 26546 105720 26891 105489 27123 105144 27239 105027 27239 104682 27123 104450 26891 104334 26546 104334 26429 104450 26084 104682 25853 105027 25738 M 103412 29386 103412 28233 104450 28116 104334 28233 104219 28578 104219 28923 104334 29271 104565 29503 104913 29617 105144 29617 105489 29503 105720 29271 105835 28923 105835 28578 105720 28233 105604 28116 105375 28001 M 105258 30493 105375 30379 105489 30493 105375 30610 105258 30493 M 103412 32525 105027 31372 105027 33104 M 103412 32525 105835 32525 M 103412 34557 103526 34212 103874 33981 104450 33866 104796 33866 105375 33981 105720 34212 105835 34557 105835 34788 105720 35136 105375 35367 104796 35482 104450 35482 103874 35367 103526 35136 103412 34788 103412 34557 M 103412 36937 103526 36589 103874 36361 104450 36244 104796 36244 105375 36361 105720 36589 105835 36937 105835 37168 105720 37514 105375 37745 104796 37859 104450 37859 103874 37745 103526 37514 103412 37168 103412 36937 M 104219 38621 105835 38621 M 104682 38621 104334 38969 104219 39200 104219 39546 104334 39777 104682 39891 105835 39891 M 104682 39891 104334 40239 104219 40470 104219 40816 104334 41047 104682 41161 105835 41161 M 104219 41923 105835 41923 M 104682 41923 104334 42271 104219 42502 104219 42848 104334 43079 104682 43193 105835 43193 M 104682 43193 104334 43541 104219 43772 104219 44118 104334 44349 104682 44463 105835 44463 M 98061 67801 108514 67801 M 98361 2401 108514 2401 M 98061 -4262 60232 -4262 M 40489 -4262 2661 -4262 M 96537 -3881 98061 -4262 96537 -4643 M 4185 -3881 2661 -4262 4185 -4643 M 42498 -2507 42384 -2854 42153 -3086 41805 -3200 41690 -3200 41345 -3086 41114 -2854 40997 -2507 40997 -2392 41114 -2047 41345 -1816 41690 -1699 41805 -1699 42153 -1816 42384 -2047 42498 -2507 42498 -3086 42384 -3662 42153 -4008 41805 -4124 41576 -4124 41228 -4008 41114 -3777 M 44647 -1699 43491 -1699 43377 -2738 43491 -2623 43837 -2507 44185 -2507 44530 -2623 44761 -2854 44878 -3200 44878 -3431 44761 -3777 44530 -4008 44185 -4124 43837 -4124 43491 -4008 43377 -3893 43260 -3662 M 45754 -3545 45640 -3662 45754 -3777 45869 -3662 45754 -3545 M 47786 -1699 46631 -3317 48363 -3317 M 47786 -1699 47786 -4124 M 49818 -1699 49473 -1816 49242 -2161 49125 -2738 49125 -3086 49242 -3662 49473 -4008 49818 -4124 50049 -4124 50395 -4008 50626 -3662 50743 -3086 50743 -2738 50626 -2161 50395 -1816 50049 -1699 49818 -1699 M 52196 -1699 51850 -1816 51619 -2161 51505 -2738 51505 -3086 51619 -3662 51850 -4008 52196 -4124 52427 -4124 52775 -4008 53006 -3662 53120 -3086 53120 -2738 53006 -2161 52775 -1816 52427 -1699 52196 -1699 M 53882 -2507 53882 -4124 M 53882 -2969 54228 -2623 54459 -2507 54807 -2507 55038 -2623 55152 -2969 55152 -4124 M 55152 -2969 55498 -2623 55729 -2507 56077 -2507 56308 -2623 56422 -2969 56422 -4124 M 57184 -2507 57184 -4124 M 57184 -2969 57530 -2623 57761 -2507 58109 -2507 58340 -2623 58454 -2969 58454 -4124 M 58454 -2969 58800 -2623 59031 -2507 59379 -2507 59610 -2623 59724 -2969 59724 -4124 M 98061 2701 98061 -6802 M 2661 2701 2661 -6802" fill="none" stroke-width="101.6"/></g></svg>