;Layer: Drill PTH
;EasyEDA v6.4.2, 2020-07-29T20:00:14+08:00
;a4d3a70eaac246dab60b55038e04b420,fed530592efb474aaabf7115e2e2b964,NaN
;Gerber Generator version 0.2
M48
METRIC,LZ,000.000
;Holesize 1 = 0.301 METRIC
T01C0.301
%
G05
G90
T01
X+005064Y+012037
X+005864Y+024838
X+005864Y+024037
X+005864Y+023237
X+005864Y+015237
X+005864Y+014438
X+005864Y+013637
X+005864Y+012837
X+005864Y+012037
X+005864Y+004037
X+005864Y+003237
X+006664Y+031237
X+006664Y+030437
X+006664Y+029637
X+006664Y+028037
X+006664Y+027237
X+006664Y+026437
X+006664Y+025637
X+006664Y+024838
X+006664Y+024037
X+006664Y+023237
X+006664Y+018438
X+006664Y+017637
X+006664Y+016837
X+006664Y+016037
X+006664Y+015237
X+006664Y+014438
X+006664Y+013637
X+006664Y+012837
X+006664Y+012037
X+006664Y+011237
X+006664Y+004037
X+006664Y+003237
X+006664Y+002438
X+007464Y+033637
X+007464Y+032838
X+007464Y+032037
X+007464Y+031237
X+007464Y+030437
X+007464Y+029637
X+007464Y+028838
X+007464Y+028037
X+007464Y+027237
X+007464Y+026437
X+007464Y+025637
X+007464Y+024838
X+007464Y+024037
X+007464Y+023237
X+007464Y+022438
X+007464Y+021637
X+007464Y+020838
X+007464Y+020037
X+007464Y+019237
X+007464Y+018438
X+007464Y+017637
X+007464Y+016837
X+007464Y+016037
X+007464Y+015237
X+007464Y+014438
X+007464Y+013637
X+007464Y+012837
X+007464Y+012037
X+007464Y+011237
X+007464Y+010438
X+008264Y+032838
X+008264Y+032037
X+008264Y+031237
X+008264Y+030437
X+008264Y+029637
X+008264Y+028838
X+008264Y+028037
X+008264Y+027237
X+008264Y+026437
X+008264Y+025637
X+008264Y+024838
X+008264Y+024037
X+008264Y+023237
X+008264Y+022438
X+008264Y+021637
X+008264Y+020838
X+008264Y+020037
X+008264Y+019237
X+008264Y+018438
X+008264Y+017637
X+008264Y+016837
X+008264Y+016037
X+008264Y+015237
X+008264Y+014438
X+008264Y+013637
X+008264Y+012837
X+008264Y+012037
X+008264Y+011237
X+008264Y+010438
X+008264Y+009637
X+008264Y+008837
X+008264Y+008037
X+008264Y+007237
X+009064Y+031237
X+009064Y+030437
X+009064Y+029637
X+009064Y+028838
X+009064Y+028037
X+009064Y+027237
X+009064Y+026437
X+009064Y+025637
X+009064Y+024838
X+009064Y+024037
X+009064Y+023237
X+009064Y+022438
X+009064Y+021637
X+009064Y+020838
X+009064Y+020037
X+009064Y+019237
X+009064Y+018438
X+009064Y+017637
X+009064Y+016837
X+009064Y+016037
X+009064Y+015237
X+009064Y+014438
X+009064Y+013637
X+009064Y+012837
X+009064Y+012037
X+009064Y+011237
X+009064Y+010438
X+009064Y+009637
X+009064Y+008837
X+009064Y+008037
X+009864Y+031237
X+009864Y+030437
X+009864Y+029637
X+009864Y+028838
X+009864Y+028037
X+009864Y+027237
X+009864Y+026437
X+009864Y+025637
X+009864Y+024838
X+009864Y+024037
X+009864Y+023237
X+009864Y+022438
X+009864Y+021637
X+009864Y+020838
X+009864Y+020037
X+009864Y+019237
X+009864Y+018438
X+009864Y+017637
X+009864Y+016837
X+009864Y+016037
X+009864Y+015237
X+009864Y+014438
X+009864Y+013637
X+009864Y+012837
X+009864Y+012037
X+009864Y+011237
X+009864Y+010438
X+009864Y+009637
X+009864Y+008837
X+009864Y+008037
X+012264Y+040037
X+013064Y+040838
X+013064Y+040037
X+013864Y+040838
X+013864Y+040037
X+013864Y+039237
X+014664Y+041637
X+014664Y+040838
X+014664Y+040037
X+014664Y+039237
X+014664Y+038437
X+015464Y+042437
X+015464Y+041637
X+015464Y+040838
X+015464Y+040037
X+015464Y+039237
X+015464Y+038437
X+015464Y+037637
X+015464Y+036838
X+015464Y+002438
X+016264Y+042437
X+016264Y+041637
X+016264Y+040838
X+016264Y+040037
X+016264Y+039237
X+016264Y+038437
X+016264Y+037637
X+016264Y+036838
X+016264Y+002438
X+017064Y+043238
X+017064Y+042437
X+017064Y+041637
X+017064Y+040838
X+017064Y+040037
X+017064Y+039237
X+017064Y+038437
X+017064Y+037637
X+017064Y+036838
X+017864Y+043238
X+017864Y+041637
X+017864Y+040838
X+017864Y+040037
X+017864Y+039237
X+018664Y+040037
X+018664Y+039237
X+019464Y+039237
X+019464Y+002438
X+023464Y+002438
X+024264Y+039237
X+025064Y+040037
X+025064Y+039237
X+025864Y+044037
X+025864Y+041637
X+025864Y+040838
X+025864Y+040037
X+025864Y+039237
X+026664Y+044037
X+026664Y+043238
X+026664Y+042437
X+026664Y+041637
X+026664Y+040838
X+026664Y+040037
X+026664Y+039237
X+027464Y+044037
X+027464Y+043238
X+027464Y+042437
X+027464Y+041637
X+027464Y+040838
X+027464Y+040037
X+027464Y+039237
X+027464Y+002438
X+028264Y+043238
X+028264Y+042437
X+028264Y+041637
X+028264Y+040838
X+028264Y+040037
X+028264Y+039237
X+029064Y+043238
X+029064Y+042437
X+029064Y+041637
X+029064Y+040838
X+029064Y+040037
X+029064Y+039237
X+029864Y+043238
X+029864Y+042437
X+029864Y+041637
X+029864Y+040838
X+029864Y+040037
X+029864Y+039237
X+030664Y+043238
X+030664Y+042437
X+030664Y+041637
X+030664Y+040838
X+030664Y+040037
X+030664Y+039237
X+031464Y+042437
X+031464Y+041637
X+031464Y+040838
X+031464Y+040037
X+031464Y+039237
X+031464Y+002438
X+032264Y+042437
X+032264Y+041637
X+032264Y+040838
X+032264Y+040037
X+032264Y+039237
X+033064Y+042437
X+033064Y+041637
X+033064Y+040838
X+033064Y+040037
X+033064Y+039237
X+033864Y+041637
X+033864Y+040838
X+033864Y+040037
X+033864Y+039237
X+034664Y+041637
X+034664Y+040838
X+034664Y+040037
X+034664Y+039237
X+035464Y+041637
X+035464Y+040838
X+035464Y+040037
X+035464Y+039237
X+036264Y+040838
X+036264Y+040037
X+036264Y+039237
X+037064Y+040838
X+037064Y+040037
X+037064Y+039237
X+037064Y+038437
X+037064Y+037637
X+037064Y+036838
X+037064Y+002438
X+037864Y+040838
X+037864Y+040037
X+037864Y+039237
X+037864Y+038437
X+037864Y+037637
X+037864Y+036838
X+037864Y+002438
X+038664Y+040037
X+038664Y+039237
X+038664Y+038437
X+038664Y+037637
X+038664Y+036838
X+038664Y+002438
X+039464Y+040037
X+039464Y+039237
X+039464Y+038437
X+040264Y+040037
X+040264Y+039237
X+044264Y+032037
X+044264Y+031237
X+044264Y+030437
X+044264Y+029637
X+044264Y+028838
X+044264Y+028037
X+044264Y+027237
X+044264Y+026437
X+044264Y+025637
X+044264Y+024838
X+044264Y+024037
X+044264Y+023237
X+044264Y+022438
X+044264Y+021637
X+044264Y+020838
X+044264Y+020037
X+044264Y+019237
X+044264Y+018438
X+044264Y+017637
X+044264Y+016837
X+044264Y+016037
X+044264Y+015237
X+044264Y+014438
X+044264Y+013637
X+044264Y+012837
X+044264Y+012037
X+044264Y+011237
X+044264Y+010438
X+044264Y+009637
X+044264Y+008837
X+044264Y+008037
X+045064Y+032037
X+045064Y+031237
X+045064Y+030437
X+045064Y+029637
X+045064Y+028838
X+045064Y+028037
X+045064Y+027237
X+045064Y+026437
X+045064Y+025637
X+045064Y+024838
X+045064Y+024037
X+045064Y+023237
X+045064Y+022438
X+045064Y+021637
X+045064Y+020838
X+045064Y+020037
X+045064Y+019237
X+045064Y+018438
X+045064Y+017637
X+045064Y+016837
X+045064Y+016037
X+045064Y+015237
X+045064Y+014438
X+045064Y+013637
X+045064Y+012837
X+045064Y+012037
X+045064Y+011237
X+045064Y+010438
X+045064Y+009637
X+045064Y+008837
X+045064Y+008037
X+045864Y+032037
X+045864Y+031237
X+045864Y+030437
X+045864Y+029637
X+045864Y+028838
X+045864Y+028037
X+045864Y+027237
X+045864Y+026437
X+045864Y+025637
X+045864Y+024838
X+045864Y+024037
X+045864Y+023237
X+045864Y+022438
X+045864Y+021637
X+045864Y+020838
X+045864Y+020037
X+045864Y+019237
X+045864Y+018438
X+045864Y+017637
X+045864Y+016837
X+045864Y+016037
X+045864Y+015237
X+045864Y+014438
X+045864Y+013637
X+045864Y+012837
X+045864Y+012037
X+045864Y+011237
X+045864Y+010438
X+045864Y+009637
X+045864Y+008837
X+045864Y+008037
X+045864Y+007237
X+046664Y+033637
X+046664Y+032838
X+046664Y+032037
X+046664Y+007237
X+046664Y+006438
X+047464Y+034437
X+047464Y+033637
X+047464Y+032838
X+047464Y+032037
X+047464Y+007237
X+047464Y+006438
X+047464Y+005637
X+047464Y+004837
X+048264Y+034437
X+048264Y+033637
X+048264Y+032838
X+048264Y+032037
X+048264Y+007237
X+048264Y+006438
X+048264Y+005637
X+048264Y+004837
X+049064Y+034437
X+049064Y+033637
X+049064Y+006438
X+049064Y+005637
X+049064Y+004837
X+049864Y+034437
X+049864Y+033637
X+049864Y+005637
X+049864Y+004837
X+050664Y+034437
X+050664Y+033637
X+050664Y+005637
X+050664Y+004837
M30
