G04 Layer: TopLayer*
G04 EasyEDA v6.4.2, 2020-07-29T20:00:14+08:00*
G04 a4d3a70eaac246dab60b55038e04b420,fed530592efb474aaabf7115e2e2b964,NaN*
G04 Gerber Generator version 0.2*
G04 Scale: 100 percent, Rotated: No, Reflected: No *
G04 Dimensions in millimeters *
G04 leading zeros omitted , absolute positions ,3 integer and 3 decimal *
%FSLAX33Y33*%
%MOMM*%
G90*
G71D02*

%ADD11C,0.599999*%

%LPD*%
G36*
G01X21947Y46445D02*
G01X21859Y46446D01*
G01X21769Y46445D01*
G01X21679Y46441D01*
G01X21589Y46436D01*
G01X21499Y46428D01*
G01X21410Y46419D01*
G01X21320Y46406D01*
G01X21232Y46392D01*
G01X21143Y46376D01*
G01X21054Y46358D01*
G01X20967Y46337D01*
G01X20879Y46315D01*
G01X20793Y46290D01*
G01X20707Y46264D01*
G01X20621Y46235D01*
G01X20537Y46204D01*
G01X20452Y46171D01*
G01X20369Y46136D01*
G01X20287Y46099D01*
G01X20206Y46061D01*
G01X20125Y46020D01*
G01X20046Y45977D01*
G01X19968Y45933D01*
G01X19890Y45886D01*
G01X9054Y39183D01*
G01X8980Y39136D01*
G01X8906Y39088D01*
G01X8835Y39037D01*
G01X8764Y38985D01*
G01X8695Y38931D01*
G01X8627Y38876D01*
G01X8560Y38819D01*
G01X8495Y38761D01*
G01X8431Y38701D01*
G01X8368Y38639D01*
G01X8307Y38577D01*
G01X8248Y38512D01*
G01X8190Y38447D01*
G01X8133Y38380D01*
G01X8078Y38311D01*
G01X8025Y38241D01*
G01X7973Y38171D01*
G01X7923Y38099D01*
G01X7875Y38025D01*
G01X7828Y37951D01*
G01X7783Y37876D01*
G01X7699Y37722D01*
G01X7660Y37644D01*
G01X7622Y37565D01*
G01X7587Y37484D01*
G01X7553Y37404D01*
G01X7521Y37322D01*
G01X7491Y37240D01*
G01X7463Y37157D01*
G01X7436Y37073D01*
G01X7412Y36989D01*
G01X7390Y36904D01*
G01X7390Y36902D01*
G01X366Y8624D01*
G01X366Y8622D01*
G01X345Y8534D01*
G01X326Y8445D01*
G01X310Y8356D01*
G01X296Y8266D01*
G01X284Y8176D01*
G01X273Y8085D01*
G01X266Y7995D01*
G01X260Y7904D01*
G01X257Y7813D01*
G01X256Y7722D01*
G01X257Y7635D01*
G01X260Y7548D01*
G01X265Y7460D01*
G01X272Y7373D01*
G01X282Y7286D01*
G01X293Y7200D01*
G01X306Y7113D01*
G01X321Y7027D01*
G01X338Y6941D01*
G01X358Y6856D01*
G01X379Y6772D01*
G01X402Y6687D01*
G01X427Y6604D01*
G01X454Y6520D01*
G01X483Y6438D01*
G01X514Y6356D01*
G01X547Y6275D01*
G01X582Y6195D01*
G01X618Y6116D01*
G01X656Y6037D01*
G01X697Y5960D01*
G01X739Y5883D01*
G01X782Y5808D01*
G01X828Y5733D01*
G01X875Y5660D01*
G01X925Y5587D01*
G01X975Y5516D01*
G01X1027Y5446D01*
G01X1081Y5377D01*
G01X1137Y5310D01*
G01X1194Y5244D01*
G01X1252Y5179D01*
G01X1313Y5116D01*
G01X1374Y5054D01*
G01X1437Y4993D01*
G01X1502Y4934D01*
G01X1567Y4876D01*
G01X1634Y4821D01*
G01X1703Y4766D01*
G01X1773Y4713D01*
G01X1843Y4662D01*
G01X1915Y4613D01*
G01X1988Y4565D01*
G01X1992Y4563D01*
G01X7834Y842D01*
G01X7838Y839D01*
G01X7839Y838D01*
G01X7914Y792D01*
G01X7990Y747D01*
G01X8067Y705D01*
G01X8145Y664D01*
G01X8224Y624D01*
G01X8304Y587D01*
G01X8385Y552D01*
G01X8466Y519D01*
G01X8549Y487D01*
G01X8632Y458D01*
G01X8716Y430D01*
G01X8800Y405D01*
G01X8885Y381D01*
G01X8971Y359D01*
G01X9057Y340D01*
G01X9143Y322D01*
G01X9230Y307D01*
G01X9317Y293D01*
G01X9404Y282D01*
G01X9492Y272D01*
G01X9580Y265D01*
G01X9668Y260D01*
G01X9756Y257D01*
G01X9844Y256D01*
G01X43023Y256D01*
G01X43111Y257D01*
G01X43198Y260D01*
G01X43286Y265D01*
G01X43373Y272D01*
G01X43461Y282D01*
G01X43547Y293D01*
G01X43634Y306D01*
G01X43721Y322D01*
G01X43807Y339D01*
G01X43892Y358D01*
G01X43977Y380D01*
G01X44062Y403D01*
G01X44146Y428D01*
G01X44230Y456D01*
G01X44312Y485D01*
G01X44394Y516D01*
G01X44476Y549D01*
G01X44556Y584D01*
G01X44636Y621D01*
G01X44714Y660D01*
G01X44792Y701D01*
G01X44869Y743D01*
G01X44945Y787D01*
G01X45020Y833D01*
G01X45093Y881D01*
G01X45166Y930D01*
G01X45237Y981D01*
G01X45307Y1034D01*
G01X45376Y1088D01*
G01X45444Y1144D01*
G01X45510Y1202D01*
G01X45575Y1261D01*
G01X45638Y1321D01*
G01X45700Y1383D01*
G01X45761Y1447D01*
G01X45820Y1512D01*
G01X45878Y1579D01*
G01X45934Y1646D01*
G01X45988Y1715D01*
G01X46041Y1785D01*
G01X46092Y1856D01*
G01X46141Y1929D01*
G01X46189Y2003D01*
G01X46235Y2077D01*
G01X46279Y2153D01*
G01X46322Y2230D01*
G01X46362Y2308D01*
G01X46401Y2387D01*
G01X46438Y2466D01*
G01X46506Y2628D01*
G01X46537Y2710D01*
G01X46566Y2793D01*
G01X46593Y2876D01*
G01X46619Y2960D01*
G01X46642Y3045D01*
G01X46664Y3130D01*
G01X46683Y3215D01*
G01X46701Y3302D01*
G01X46716Y3388D01*
G01X46729Y3474D01*
G01X46740Y3562D01*
G01X46750Y3649D01*
G01X46757Y3737D01*
G01X46762Y3824D01*
G01X46765Y3912D01*
G01X46766Y4000D01*
G01X46767Y4023D01*
G01X46771Y4046D01*
G01X46776Y4070D01*
G01X46783Y4092D01*
G01X46793Y4114D01*
G01X46805Y4135D01*
G01X46818Y4154D01*
G01X46833Y4172D01*
G01X46850Y4189D01*
G01X46868Y4204D01*
G01X46888Y4218D01*
G01X46908Y4229D01*
G01X46930Y4239D01*
G01X46953Y4246D01*
G01X46975Y4252D01*
G01X46999Y4255D01*
G01X47023Y4256D01*
G01X51744Y4256D01*
G01X51758Y4257D01*
G01X51772Y4260D01*
G01X51786Y4265D01*
G01X51798Y4272D01*
G01X51810Y4281D01*
G01X51820Y4291D01*
G01X51829Y4302D01*
G01X51836Y4316D01*
G01X51841Y4329D01*
G01X51844Y4343D01*
G01X51845Y4358D01*
G01X51845Y35641D01*
G01X51844Y35656D01*
G01X51841Y35670D01*
G01X51836Y35684D01*
G01X51829Y35696D01*
G01X51820Y35708D01*
G01X51810Y35718D01*
G01X51798Y35727D01*
G01X51786Y35734D01*
G01X51772Y35739D01*
G01X51758Y35742D01*
G01X51744Y35743D01*
G01X47023Y35743D01*
G01X46999Y35744D01*
G01X46975Y35747D01*
G01X46953Y35753D01*
G01X46930Y35760D01*
G01X46908Y35770D01*
G01X46888Y35781D01*
G01X46868Y35795D01*
G01X46850Y35810D01*
G01X46833Y35827D01*
G01X46818Y35845D01*
G01X46805Y35864D01*
G01X46793Y35885D01*
G01X46783Y35907D01*
G01X46776Y35929D01*
G01X46771Y35952D01*
G01X46767Y35976D01*
G01X46766Y36000D01*
G01X46765Y36087D01*
G01X46762Y36175D01*
G01X46757Y36262D01*
G01X46750Y36350D01*
G01X46741Y36436D01*
G01X46729Y36523D01*
G01X46716Y36610D01*
G01X46701Y36697D01*
G01X46683Y36782D01*
G01X46664Y36868D01*
G01X46643Y36953D01*
G01X46619Y37037D01*
G01X46594Y37121D01*
G01X46567Y37205D01*
G01X46538Y37287D01*
G01X46507Y37369D01*
G01X46474Y37450D01*
G01X46438Y37531D01*
G01X46402Y37610D01*
G01X46363Y37689D01*
G01X46323Y37766D01*
G01X46280Y37843D01*
G01X46236Y37919D01*
G01X46191Y37993D01*
G01X46143Y38067D01*
G01X46094Y38140D01*
G01X46043Y38211D01*
G01X45990Y38281D01*
G01X45936Y38350D01*
G01X45880Y38418D01*
G01X45823Y38484D01*
G01X45764Y38549D01*
G01X45703Y38612D01*
G01X45642Y38674D01*
G01X45578Y38735D01*
G01X45514Y38794D01*
G01X45447Y38851D01*
G01X45380Y38907D01*
G01X45311Y38962D01*
G01X45242Y39015D01*
G01X45098Y39115D01*
G01X45025Y39163D01*
G01X44950Y39209D01*
G01X44874Y39253D01*
G01X44798Y39295D01*
G01X44720Y39336D01*
G01X44641Y39375D01*
G01X44562Y39412D01*
G01X44482Y39447D01*
G01X44400Y39480D01*
G01X44319Y39511D01*
G01X44236Y39541D01*
G01X44153Y39568D01*
G01X44149Y39569D01*
G01X44147Y39570D01*
G01X22990Y46271D01*
G01X22986Y46272D01*
G01X22984Y46273D01*
G01X22984Y46272D01*
G01X22900Y46298D01*
G01X22815Y46322D01*
G01X22730Y46343D01*
G01X22645Y46362D01*
G01X22558Y46380D01*
G01X22472Y46395D01*
G01X22385Y46409D01*
G01X22298Y46420D01*
G01X22210Y46429D01*
G01X22123Y46436D01*
G01X22035Y46442D01*
G01X21947Y46445D01*
G37*

%LPC*%
G36*
G01X43098Y7494D02*
G01X43014Y7495D01*
G01X42929Y7494D01*
G01X42845Y7491D01*
G01X42761Y7486D01*
G01X42676Y7478D01*
G01X42592Y7469D01*
G01X42508Y7458D01*
G01X42425Y7445D01*
G01X42341Y7429D01*
G01X42259Y7412D01*
G01X42176Y7393D01*
G01X42095Y7372D01*
G01X42013Y7348D01*
G01X41933Y7323D01*
G01X41852Y7296D01*
G01X41773Y7267D01*
G01X41694Y7236D01*
G01X41616Y7204D01*
G01X41539Y7169D01*
G01X41463Y7132D01*
G01X41387Y7094D01*
G01X41313Y7054D01*
G01X41240Y7012D01*
G01X41167Y6968D01*
G01X41096Y6922D01*
G01X41026Y6875D01*
G01X40957Y6826D01*
G01X40889Y6776D01*
G01X40823Y6724D01*
G01X40757Y6670D01*
G01X40693Y6614D01*
G01X40630Y6557D01*
G01X40569Y6499D01*
G01X40509Y6440D01*
G01X40451Y6378D01*
G01X40394Y6316D01*
G01X40339Y6252D01*
G01X40285Y6186D01*
G01X40233Y6120D01*
G01X40182Y6052D01*
G01X40134Y5983D01*
G01X40086Y5913D01*
G01X40041Y5841D01*
G01X39997Y5769D01*
G01X39955Y5695D01*
G01X39915Y5621D01*
G01X39877Y5546D01*
G01X39840Y5469D01*
G01X39805Y5393D01*
G01X39772Y5314D01*
G01X39741Y5236D01*
G01X39685Y5076D01*
G01X39660Y4995D01*
G01X39637Y4914D01*
G01X39616Y4832D01*
G01X39596Y4750D01*
G01X39579Y4667D01*
G01X39564Y4584D01*
G01X39550Y4501D01*
G01X39539Y4417D01*
G01X39530Y4332D01*
G01X39523Y4248D01*
G01X39518Y4164D01*
G01X39515Y4079D01*
G01X39514Y3995D01*
G01X39515Y3910D01*
G01X39518Y3825D01*
G01X39523Y3741D01*
G01X39530Y3657D01*
G01X39539Y3573D01*
G01X39550Y3489D01*
G01X39564Y3405D01*
G01X39579Y3322D01*
G01X39596Y3240D01*
G01X39616Y3157D01*
G01X39637Y3076D01*
G01X39660Y2994D01*
G01X39685Y2914D01*
G01X39712Y2833D01*
G01X39741Y2754D01*
G01X39772Y2675D01*
G01X39805Y2597D01*
G01X39840Y2520D01*
G01X39876Y2444D01*
G01X39915Y2368D01*
G01X39955Y2294D01*
G01X39997Y2221D01*
G01X40041Y2148D01*
G01X40086Y2077D01*
G01X40133Y2007D01*
G01X40182Y1938D01*
G01X40233Y1870D01*
G01X40285Y1804D01*
G01X40338Y1738D01*
G01X40394Y1674D01*
G01X40451Y1612D01*
G01X40509Y1550D01*
G01X40569Y1491D01*
G01X40630Y1432D01*
G01X40692Y1375D01*
G01X40756Y1320D01*
G01X40822Y1266D01*
G01X40888Y1214D01*
G01X40956Y1163D01*
G01X41025Y1115D01*
G01X41095Y1067D01*
G01X41166Y1022D01*
G01X41239Y978D01*
G01X41312Y936D01*
G01X41386Y896D01*
G01X41462Y858D01*
G01X41538Y821D01*
G01X41616Y786D01*
G01X41693Y754D01*
G01X41772Y723D01*
G01X41851Y694D01*
G01X41931Y666D01*
G01X42012Y641D01*
G01X42094Y618D01*
G01X42175Y597D01*
G01X42258Y577D01*
G01X42340Y560D01*
G01X42424Y545D01*
G01X42507Y532D01*
G01X42591Y520D01*
G01X42675Y511D01*
G01X42759Y504D01*
G01X42843Y499D01*
G01X42928Y495D01*
G01X43013Y494D01*
G01X43015Y494D01*
G01X43100Y495D01*
G01X43184Y499D01*
G01X43269Y504D01*
G01X43353Y511D01*
G01X43437Y520D01*
G01X43521Y532D01*
G01X43604Y545D01*
G01X43688Y560D01*
G01X43770Y577D01*
G01X43853Y597D01*
G01X43935Y618D01*
G01X44016Y641D01*
G01X44097Y666D01*
G01X44176Y694D01*
G01X44256Y723D01*
G01X44335Y754D01*
G01X44413Y786D01*
G01X44490Y821D01*
G01X44566Y858D01*
G01X44641Y896D01*
G01X44716Y936D01*
G01X44789Y978D01*
G01X44861Y1022D01*
G01X44933Y1067D01*
G01X45003Y1115D01*
G01X45072Y1163D01*
G01X45140Y1214D01*
G01X45206Y1266D01*
G01X45272Y1320D01*
G01X45336Y1375D01*
G01X45398Y1432D01*
G01X45459Y1491D01*
G01X45519Y1550D01*
G01X45577Y1612D01*
G01X45634Y1674D01*
G01X45689Y1738D01*
G01X45743Y1804D01*
G01X45795Y1870D01*
G01X45846Y1938D01*
G01X45894Y2007D01*
G01X45942Y2077D01*
G01X45987Y2148D01*
G01X46031Y2221D01*
G01X46073Y2294D01*
G01X46113Y2368D01*
G01X46151Y2444D01*
G01X46188Y2520D01*
G01X46223Y2597D01*
G01X46256Y2675D01*
G01X46287Y2754D01*
G01X46316Y2833D01*
G01X46342Y2914D01*
G01X46368Y2994D01*
G01X46391Y3076D01*
G01X46412Y3157D01*
G01X46431Y3240D01*
G01X46449Y3322D01*
G01X46464Y3405D01*
G01X46477Y3489D01*
G01X46488Y3573D01*
G01X46497Y3657D01*
G01X46505Y3741D01*
G01X46510Y3825D01*
G01X46513Y3910D01*
G01X46514Y3995D01*
G01X46513Y4079D01*
G01X46510Y4164D01*
G01X46505Y4248D01*
G01X46497Y4332D01*
G01X46488Y4417D01*
G01X46477Y4501D01*
G01X46464Y4584D01*
G01X46449Y4667D01*
G01X46431Y4750D01*
G01X46412Y4832D01*
G01X46391Y4914D01*
G01X46368Y4995D01*
G01X46342Y5076D01*
G01X46316Y5156D01*
G01X46287Y5236D01*
G01X46256Y5314D01*
G01X46223Y5393D01*
G01X46188Y5469D01*
G01X46151Y5546D01*
G01X46113Y5621D01*
G01X46073Y5695D01*
G01X46031Y5769D01*
G01X45987Y5841D01*
G01X45942Y5913D01*
G01X45894Y5983D01*
G01X45846Y6052D01*
G01X45795Y6120D01*
G01X45743Y6186D01*
G01X45689Y6252D01*
G01X45634Y6316D01*
G01X45577Y6378D01*
G01X45518Y6440D01*
G01X45459Y6499D01*
G01X45398Y6557D01*
G01X45335Y6614D01*
G01X45271Y6670D01*
G01X45206Y6724D01*
G01X45139Y6776D01*
G01X45071Y6826D01*
G01X45002Y6875D01*
G01X44932Y6922D01*
G01X44861Y6968D01*
G01X44788Y7012D01*
G01X44715Y7054D01*
G01X44641Y7094D01*
G01X44565Y7132D01*
G01X44489Y7169D01*
G01X44412Y7204D01*
G01X44334Y7236D01*
G01X44255Y7267D01*
G01X44176Y7296D01*
G01X44096Y7323D01*
G01X44015Y7348D01*
G01X43934Y7372D01*
G01X43852Y7393D01*
G01X43769Y7412D01*
G01X43686Y7429D01*
G01X43603Y7445D01*
G01X43519Y7458D01*
G01X43436Y7469D01*
G01X43352Y7478D01*
G01X43268Y7486D01*
G01X43183Y7491D01*
G01X43098Y7494D01*
G37*
G36*
G01X11109Y7513D02*
G01X11024Y7514D01*
G01X10939Y7513D01*
G01X10855Y7510D01*
G01X10770Y7505D01*
G01X10686Y7498D01*
G01X10602Y7489D01*
G01X10518Y7478D01*
G01X10435Y7465D01*
G01X10352Y7449D01*
G01X10269Y7432D01*
G01X10187Y7413D01*
G01X10104Y7392D01*
G01X10023Y7369D01*
G01X9942Y7343D01*
G01X9862Y7316D01*
G01X9783Y7287D01*
G01X9704Y7256D01*
G01X9626Y7223D01*
G01X9549Y7189D01*
G01X9473Y7152D01*
G01X9398Y7114D01*
G01X9323Y7074D01*
G01X9177Y6988D01*
G01X9106Y6942D01*
G01X9036Y6895D01*
G01X8967Y6846D01*
G01X8899Y6796D01*
G01X8832Y6743D01*
G01X8767Y6690D01*
G01X8703Y6635D01*
G01X8640Y6578D01*
G01X8579Y6519D01*
G01X8519Y6459D01*
G01X8461Y6398D01*
G01X8404Y6335D01*
G01X8349Y6271D01*
G01X8295Y6206D01*
G01X8243Y6140D01*
G01X8193Y6072D01*
G01X8143Y6003D01*
G01X8096Y5933D01*
G01X8051Y5861D01*
G01X8007Y5789D01*
G01X7965Y5716D01*
G01X7925Y5641D01*
G01X7886Y5566D01*
G01X7850Y5490D01*
G01X7815Y5412D01*
G01X7782Y5335D01*
G01X7751Y5256D01*
G01X7722Y5176D01*
G01X7695Y5096D01*
G01X7670Y5016D01*
G01X7647Y4934D01*
G01X7626Y4852D01*
G01X7606Y4770D01*
G01X7589Y4687D01*
G01X7574Y4604D01*
G01X7561Y4520D01*
G01X7550Y4437D01*
G01X7540Y4352D01*
G01X7533Y4268D01*
G01X7528Y4184D01*
G01X7525Y4099D01*
G01X7524Y4014D01*
G01X7525Y3930D01*
G01X7528Y3846D01*
G01X7533Y3761D01*
G01X7540Y3677D01*
G01X7550Y3593D01*
G01X7561Y3509D01*
G01X7574Y3426D01*
G01X7589Y3342D01*
G01X7606Y3259D01*
G01X7626Y3177D01*
G01X7647Y3095D01*
G01X7670Y3014D01*
G01X7695Y2933D01*
G01X7722Y2853D01*
G01X7751Y2774D01*
G01X7782Y2695D01*
G01X7815Y2617D01*
G01X7850Y2540D01*
G01X7886Y2464D01*
G01X7925Y2388D01*
G01X7965Y2314D01*
G01X8007Y2240D01*
G01X8050Y2168D01*
G01X8096Y2097D01*
G01X8143Y2027D01*
G01X8192Y1958D01*
G01X8242Y1890D01*
G01X8295Y1823D01*
G01X8349Y1758D01*
G01X8404Y1694D01*
G01X8460Y1631D01*
G01X8519Y1570D01*
G01X8579Y1510D01*
G01X8640Y1452D01*
G01X8703Y1395D01*
G01X8767Y1340D01*
G01X8832Y1286D01*
G01X8898Y1234D01*
G01X8966Y1183D01*
G01X9035Y1135D01*
G01X9105Y1087D01*
G01X9177Y1042D01*
G01X9249Y998D01*
G01X9322Y956D01*
G01X9397Y916D01*
G01X9472Y877D01*
G01X9548Y841D01*
G01X9625Y806D01*
G01X9703Y773D01*
G01X9782Y742D01*
G01X9861Y713D01*
G01X9941Y686D01*
G01X10022Y661D01*
G01X10103Y638D01*
G01X10186Y616D01*
G01X10268Y597D01*
G01X10351Y580D01*
G01X10433Y565D01*
G01X10517Y551D01*
G01X10601Y540D01*
G01X10685Y531D01*
G01X10769Y524D01*
G01X10854Y519D01*
G01X10938Y516D01*
G01X11023Y515D01*
G01X11025Y515D01*
G01X11110Y516D01*
G01X11194Y519D01*
G01X11279Y524D01*
G01X11363Y531D01*
G01X11447Y540D01*
G01X11531Y551D01*
G01X11615Y565D01*
G01X11697Y580D01*
G01X11780Y597D01*
G01X11862Y616D01*
G01X11944Y638D01*
G01X12026Y661D01*
G01X12106Y686D01*
G01X12187Y713D01*
G01X12266Y742D01*
G01X12345Y773D01*
G01X12423Y806D01*
G01X12499Y841D01*
G01X12576Y877D01*
G01X12651Y916D01*
G01X12726Y956D01*
G01X12799Y998D01*
G01X12871Y1042D01*
G01X12942Y1087D01*
G01X13013Y1135D01*
G01X13082Y1183D01*
G01X13150Y1234D01*
G01X13216Y1286D01*
G01X13281Y1340D01*
G01X13345Y1395D01*
G01X13408Y1452D01*
G01X13469Y1510D01*
G01X13529Y1570D01*
G01X13587Y1631D01*
G01X13644Y1694D01*
G01X13699Y1758D01*
G01X13753Y1823D01*
G01X13806Y1890D01*
G01X13856Y1958D01*
G01X13905Y2027D01*
G01X13952Y2097D01*
G01X13998Y2168D01*
G01X14041Y2240D01*
G01X14083Y2314D01*
G01X14123Y2388D01*
G01X14162Y2464D01*
G01X14198Y2540D01*
G01X14233Y2617D01*
G01X14266Y2695D01*
G01X14297Y2774D01*
G01X14326Y2853D01*
G01X14353Y2933D01*
G01X14378Y3014D01*
G01X14401Y3095D01*
G01X14422Y3177D01*
G01X14442Y3259D01*
G01X14459Y3342D01*
G01X14474Y3426D01*
G01X14487Y3509D01*
G01X14498Y3593D01*
G01X14508Y3677D01*
G01X14515Y3761D01*
G01X14520Y3846D01*
G01X14523Y3930D01*
G01X14524Y4014D01*
G01X14523Y4099D01*
G01X14520Y4184D01*
G01X14515Y4268D01*
G01X14508Y4352D01*
G01X14498Y4437D01*
G01X14487Y4520D01*
G01X14474Y4604D01*
G01X14459Y4687D01*
G01X14442Y4770D01*
G01X14422Y4852D01*
G01X14401Y4934D01*
G01X14378Y5016D01*
G01X14353Y5096D01*
G01X14326Y5176D01*
G01X14296Y5256D01*
G01X14266Y5335D01*
G01X14233Y5412D01*
G01X14198Y5490D01*
G01X14162Y5566D01*
G01X14123Y5641D01*
G01X14083Y5716D01*
G01X14041Y5789D01*
G01X13997Y5861D01*
G01X13952Y5933D01*
G01X13905Y6003D01*
G01X13855Y6072D01*
G01X13805Y6140D01*
G01X13753Y6206D01*
G01X13699Y6271D01*
G01X13644Y6335D01*
G01X13587Y6398D01*
G01X13529Y6459D01*
G01X13469Y6519D01*
G01X13407Y6578D01*
G01X13345Y6635D01*
G01X13281Y6690D01*
G01X13216Y6743D01*
G01X13149Y6796D01*
G01X13081Y6846D01*
G01X13012Y6895D01*
G01X12942Y6942D01*
G01X12871Y6988D01*
G01X12725Y7074D01*
G01X12650Y7114D01*
G01X12575Y7152D01*
G01X12499Y7189D01*
G01X12422Y7223D01*
G01X12344Y7256D01*
G01X12265Y7287D01*
G01X12186Y7316D01*
G01X12105Y7343D01*
G01X12025Y7369D01*
G01X11943Y7392D01*
G01X11861Y7413D01*
G01X11779Y7432D01*
G01X11696Y7449D01*
G01X11613Y7465D01*
G01X11530Y7478D01*
G01X11446Y7489D01*
G01X11362Y7498D01*
G01X11278Y7505D01*
G01X11193Y7510D01*
G01X11109Y7513D01*
G37*
G36*
G01X39023Y36256D02*
G01X15023Y36256D01*
G01X14999Y36255D01*
G01X14975Y36252D01*
G01X14953Y36246D01*
G01X14930Y36239D01*
G01X14908Y36229D01*
G01X14888Y36218D01*
G01X14868Y36204D01*
G01X14850Y36189D01*
G01X14833Y36172D01*
G01X14818Y36154D01*
G01X14804Y36135D01*
G01X14793Y36114D01*
G01X14783Y36092D01*
G01X14776Y36070D01*
G01X14770Y36047D01*
G01X14767Y36023D01*
G01X14766Y36000D01*
G01X14765Y35912D01*
G01X14762Y35824D01*
G01X14757Y35736D01*
G01X14749Y35649D01*
G01X14740Y35562D01*
G01X14729Y35475D01*
G01X14716Y35388D01*
G01X14701Y35302D01*
G01X14683Y35215D01*
G01X14664Y35130D01*
G01X14642Y35045D01*
G01X14619Y34960D01*
G01X14593Y34876D01*
G01X14566Y34793D01*
G01X14537Y34710D01*
G01X14506Y34628D01*
G01X14473Y34547D01*
G01X14438Y34466D01*
G01X14401Y34387D01*
G01X14362Y34308D01*
G01X14322Y34230D01*
G01X14279Y34153D01*
G01X14235Y34077D01*
G01X14189Y34003D01*
G01X14141Y33929D01*
G01X14092Y33856D01*
G01X14041Y33785D01*
G01X13988Y33715D01*
G01X13934Y33646D01*
G01X13878Y33578D01*
G01X13820Y33512D01*
G01X13761Y33447D01*
G01X13700Y33384D01*
G01X13638Y33321D01*
G01X13575Y33261D01*
G01X13510Y33202D01*
G01X13444Y33145D01*
G01X13376Y33088D01*
G01X13307Y33034D01*
G01X13237Y32982D01*
G01X13166Y32930D01*
G01X13093Y32881D01*
G01X13020Y32833D01*
G01X12945Y32787D01*
G01X12869Y32743D01*
G01X12792Y32701D01*
G01X12714Y32660D01*
G01X12636Y32621D01*
G01X12556Y32584D01*
G01X12476Y32549D01*
G01X12394Y32516D01*
G01X12312Y32485D01*
G01X12229Y32456D01*
G01X12146Y32428D01*
G01X12062Y32403D01*
G01X11977Y32380D01*
G01X11892Y32358D01*
G01X11807Y32339D01*
G01X11721Y32322D01*
G01X11634Y32306D01*
G01X11547Y32293D01*
G01X11461Y32282D01*
G01X11373Y32272D01*
G01X11286Y32265D01*
G01X11198Y32260D01*
G01X11111Y32257D01*
G01X11023Y32256D01*
G01X10999Y32255D01*
G01X10975Y32252D01*
G01X10953Y32246D01*
G01X10930Y32239D01*
G01X10908Y32229D01*
G01X10888Y32218D01*
G01X10868Y32204D01*
G01X10850Y32189D01*
G01X10833Y32172D01*
G01X10818Y32154D01*
G01X10804Y32135D01*
G01X10793Y32114D01*
G01X10783Y32092D01*
G01X10776Y32070D01*
G01X10770Y32047D01*
G01X10767Y32023D01*
G01X10766Y32000D01*
G01X10766Y8000D01*
G01X10767Y7976D01*
G01X10770Y7952D01*
G01X10776Y7930D01*
G01X10783Y7907D01*
G01X10793Y7885D01*
G01X10804Y7865D01*
G01X10818Y7845D01*
G01X10833Y7826D01*
G01X10850Y7810D01*
G01X10868Y7795D01*
G01X10888Y7781D01*
G01X10908Y7770D01*
G01X10930Y7760D01*
G01X10953Y7753D01*
G01X10975Y7747D01*
G01X10999Y7744D01*
G01X11023Y7743D01*
G01X11111Y7742D01*
G01X11198Y7739D01*
G01X11286Y7733D01*
G01X11373Y7726D01*
G01X11461Y7717D01*
G01X11547Y7706D01*
G01X11634Y7693D01*
G01X11721Y7677D01*
G01X11807Y7660D01*
G01X11892Y7640D01*
G01X11977Y7619D01*
G01X12062Y7596D01*
G01X12146Y7570D01*
G01X12229Y7543D01*
G01X12312Y7514D01*
G01X12394Y7482D01*
G01X12476Y7449D01*
G01X12556Y7414D01*
G01X12636Y7378D01*
G01X12714Y7339D01*
G01X12792Y7298D01*
G01X12869Y7256D01*
G01X12945Y7212D01*
G01X13020Y7166D01*
G01X13093Y7118D01*
G01X13166Y7068D01*
G01X13237Y7018D01*
G01X13307Y6965D01*
G01X13376Y6910D01*
G01X13444Y6855D01*
G01X13510Y6797D01*
G01X13575Y6738D01*
G01X13638Y6677D01*
G01X13700Y6615D01*
G01X13761Y6552D01*
G01X13820Y6487D01*
G01X13878Y6421D01*
G01X13934Y6353D01*
G01X13988Y6284D01*
G01X14041Y6214D01*
G01X14092Y6142D01*
G01X14141Y6070D01*
G01X14189Y5997D01*
G01X14235Y5921D01*
G01X14279Y5846D01*
G01X14322Y5769D01*
G01X14362Y5691D01*
G01X14401Y5613D01*
G01X14438Y5533D01*
G01X14473Y5453D01*
G01X14506Y5371D01*
G01X14537Y5289D01*
G01X14566Y5206D01*
G01X14593Y5123D01*
G01X14619Y5039D01*
G01X14642Y4954D01*
G01X14664Y4869D01*
G01X14683Y4783D01*
G01X14701Y4698D01*
G01X14716Y4611D01*
G01X14729Y4524D01*
G01X14740Y4438D01*
G01X14749Y4350D01*
G01X14757Y4263D01*
G01X14762Y4175D01*
G01X14765Y4087D01*
G01X14766Y4000D01*
G01X14767Y3975D01*
G01X14771Y3951D01*
G01X14776Y3928D01*
G01X14784Y3905D01*
G01X14794Y3882D01*
G01X14806Y3861D01*
G01X14836Y3823D01*
G01X14854Y3806D01*
G01X14873Y3791D01*
G01X14893Y3778D01*
G01X14915Y3767D01*
G01X14937Y3757D01*
G01X14960Y3751D01*
G01X14991Y3745D01*
G01X15023Y3743D01*
G01X39023Y3743D01*
G01X39047Y3744D01*
G01X39070Y3747D01*
G01X39093Y3753D01*
G01X39116Y3760D01*
G01X39137Y3770D01*
G01X39158Y3781D01*
G01X39177Y3795D01*
G01X39195Y3810D01*
G01X39212Y3826D01*
G01X39227Y3845D01*
G01X39241Y3865D01*
G01X39252Y3885D01*
G01X39262Y3907D01*
G01X39270Y3929D01*
G01X39275Y3952D01*
G01X39278Y3976D01*
G01X39279Y4000D01*
G01X39279Y4008D01*
G01X39280Y4096D01*
G01X39284Y4183D01*
G01X39289Y4270D01*
G01X39296Y4358D01*
G01X39306Y4445D01*
G01X39317Y4532D01*
G01X39331Y4618D01*
G01X39346Y4705D01*
G01X39364Y4791D01*
G01X39383Y4876D01*
G01X39405Y4961D01*
G01X39428Y5046D01*
G01X39453Y5129D01*
G01X39481Y5212D01*
G01X39510Y5295D01*
G01X39542Y5377D01*
G01X39575Y5458D01*
G01X39610Y5538D01*
G01X39647Y5618D01*
G01X39686Y5696D01*
G01X39726Y5774D01*
G01X39769Y5851D01*
G01X39813Y5926D01*
G01X39859Y6001D01*
G01X39907Y6074D01*
G01X39956Y6147D01*
G01X40007Y6218D01*
G01X40060Y6288D01*
G01X40114Y6357D01*
G01X40171Y6424D01*
G01X40228Y6490D01*
G01X40287Y6555D01*
G01X40348Y6618D01*
G01X40410Y6680D01*
G01X40473Y6741D01*
G01X40538Y6800D01*
G01X40604Y6857D01*
G01X40672Y6913D01*
G01X40741Y6967D01*
G01X40811Y7020D01*
G01X40882Y7071D01*
G01X40955Y7120D01*
G01X41028Y7168D01*
G01X41103Y7213D01*
G01X41179Y7257D01*
G01X41255Y7300D01*
G01X41333Y7340D01*
G01X41412Y7379D01*
G01X41492Y7415D01*
G01X41572Y7450D01*
G01X41653Y7484D01*
G01X41735Y7514D01*
G01X41818Y7543D01*
G01X41901Y7571D01*
G01X41985Y7596D01*
G01X42069Y7620D01*
G01X42154Y7641D01*
G01X42240Y7660D01*
G01X42326Y7678D01*
G01X42412Y7693D01*
G01X42498Y7706D01*
G01X42585Y7717D01*
G01X42673Y7726D01*
G01X42760Y7734D01*
G01X42847Y7739D01*
G01X42935Y7742D01*
G01X43023Y7743D01*
G01X43047Y7744D01*
G01X43070Y7747D01*
G01X43093Y7753D01*
G01X43115Y7760D01*
G01X43137Y7770D01*
G01X43158Y7781D01*
G01X43177Y7795D01*
G01X43195Y7810D01*
G01X43212Y7826D01*
G01X43227Y7845D01*
G01X43241Y7865D01*
G01X43252Y7885D01*
G01X43262Y7907D01*
G01X43270Y7930D01*
G01X43275Y7952D01*
G01X43278Y7976D01*
G01X43279Y8000D01*
G01X43279Y32000D01*
G01X43278Y32023D01*
G01X43275Y32047D01*
G01X43270Y32070D01*
G01X43262Y32092D01*
G01X43252Y32114D01*
G01X43241Y32135D01*
G01X43227Y32154D01*
G01X43212Y32172D01*
G01X43195Y32189D01*
G01X43177Y32204D01*
G01X43158Y32218D01*
G01X43137Y32229D01*
G01X43115Y32239D01*
G01X43093Y32246D01*
G01X43070Y32252D01*
G01X43047Y32255D01*
G01X43023Y32256D01*
G01X42935Y32257D01*
G01X42847Y32260D01*
G01X42760Y32265D01*
G01X42673Y32272D01*
G01X42585Y32282D01*
G01X42498Y32293D01*
G01X42412Y32306D01*
G01X42326Y32322D01*
G01X42240Y32339D01*
G01X42154Y32358D01*
G01X42069Y32380D01*
G01X41985Y32403D01*
G01X41901Y32428D01*
G01X41818Y32455D01*
G01X41735Y32485D01*
G01X41653Y32516D01*
G01X41572Y32549D01*
G01X41492Y32583D01*
G01X41412Y32620D01*
G01X41333Y32659D01*
G01X41255Y32700D01*
G01X41179Y32742D01*
G01X41103Y32786D01*
G01X41028Y32832D01*
G01X40955Y32879D01*
G01X40882Y32928D01*
G01X40811Y32980D01*
G01X40741Y33032D01*
G01X40672Y33086D01*
G01X40604Y33142D01*
G01X40538Y33199D01*
G01X40473Y33258D01*
G01X40410Y33319D01*
G01X40348Y33381D01*
G01X40287Y33444D01*
G01X40228Y33509D01*
G01X40171Y33575D01*
G01X40114Y33642D01*
G01X40060Y33711D01*
G01X40007Y33781D01*
G01X39956Y33852D01*
G01X39907Y33924D01*
G01X39859Y33998D01*
G01X39813Y34073D01*
G01X39769Y34148D01*
G01X39726Y34225D01*
G01X39686Y34302D01*
G01X39647Y34381D01*
G01X39610Y34461D01*
G01X39575Y34541D01*
G01X39542Y34622D01*
G01X39510Y34704D01*
G01X39481Y34786D01*
G01X39454Y34870D01*
G01X39428Y34954D01*
G01X39405Y35038D01*
G01X39383Y35123D01*
G01X39364Y35208D01*
G01X39346Y35294D01*
G01X39331Y35380D01*
G01X39317Y35467D01*
G01X39306Y35554D01*
G01X39296Y35641D01*
G01X39289Y35728D01*
G01X39284Y35816D01*
G01X39280Y35904D01*
G01X39279Y35991D01*
G01X39279Y36000D01*
G01X39278Y36023D01*
G01X39275Y36047D01*
G01X39270Y36070D01*
G01X39262Y36092D01*
G01X39252Y36114D01*
G01X39241Y36135D01*
G01X39227Y36154D01*
G01X39212Y36172D01*
G01X39195Y36189D01*
G01X39177Y36204D01*
G01X39158Y36218D01*
G01X39137Y36229D01*
G01X39116Y36239D01*
G01X39093Y36246D01*
G01X39070Y36252D01*
G01X39047Y36255D01*
G01X39023Y36256D01*
G37*
G36*
G01X4089Y11253D02*
G01X4004Y11254D01*
G01X3919Y11253D01*
G01X3835Y11250D01*
G01X3750Y11245D01*
G01X3666Y11238D01*
G01X3582Y11229D01*
G01X3498Y11218D01*
G01X3415Y11205D01*
G01X3332Y11189D01*
G01X3249Y11172D01*
G01X3167Y11153D01*
G01X3003Y11109D01*
G01X2923Y11083D01*
G01X2842Y11056D01*
G01X2763Y11027D01*
G01X2684Y10996D01*
G01X2606Y10963D01*
G01X2529Y10929D01*
G01X2453Y10892D01*
G01X2378Y10854D01*
G01X2303Y10813D01*
G01X2230Y10771D01*
G01X2157Y10728D01*
G01X2086Y10682D01*
G01X2016Y10635D01*
G01X1947Y10586D01*
G01X1879Y10536D01*
G01X1812Y10483D01*
G01X1747Y10430D01*
G01X1683Y10375D01*
G01X1621Y10318D01*
G01X1559Y10259D01*
G01X1499Y10199D01*
G01X1441Y10138D01*
G01X1384Y10075D01*
G01X1329Y10011D01*
G01X1275Y9946D01*
G01X1223Y9880D01*
G01X1173Y9812D01*
G01X1123Y9743D01*
G01X1076Y9672D01*
G01X1031Y9601D01*
G01X987Y9529D01*
G01X945Y9456D01*
G01X905Y9381D01*
G01X866Y9306D01*
G01X830Y9230D01*
G01X795Y9152D01*
G01X762Y9075D01*
G01X732Y8996D01*
G01X702Y8916D01*
G01X675Y8836D01*
G01X650Y8756D01*
G01X627Y8674D01*
G01X606Y8592D01*
G01X586Y8510D01*
G01X569Y8427D01*
G01X554Y8344D01*
G01X541Y8260D01*
G01X529Y8176D01*
G01X520Y8093D01*
G01X513Y8008D01*
G01X508Y7924D01*
G01X505Y7839D01*
G01X504Y7755D01*
G01X505Y7670D01*
G01X508Y7586D01*
G01X513Y7501D01*
G01X520Y7417D01*
G01X529Y7333D01*
G01X541Y7249D01*
G01X554Y7166D01*
G01X569Y7082D01*
G01X586Y6999D01*
G01X606Y6917D01*
G01X627Y6835D01*
G01X650Y6754D01*
G01X675Y6673D01*
G01X702Y6593D01*
G01X731Y6514D01*
G01X762Y6435D01*
G01X795Y6357D01*
G01X830Y6280D01*
G01X866Y6204D01*
G01X905Y6129D01*
G01X945Y6054D01*
G01X987Y5981D01*
G01X1030Y5908D01*
G01X1076Y5837D01*
G01X1123Y5767D01*
G01X1172Y5698D01*
G01X1222Y5630D01*
G01X1275Y5563D01*
G01X1329Y5498D01*
G01X1384Y5434D01*
G01X1441Y5372D01*
G01X1499Y5310D01*
G01X1559Y5250D01*
G01X1620Y5192D01*
G01X1683Y5135D01*
G01X1747Y5080D01*
G01X1812Y5026D01*
G01X1878Y4974D01*
G01X1946Y4924D01*
G01X2015Y4874D01*
G01X2085Y4827D01*
G01X2157Y4782D01*
G01X2229Y4738D01*
G01X2302Y4696D01*
G01X2377Y4656D01*
G01X2452Y4617D01*
G01X2528Y4581D01*
G01X2605Y4546D01*
G01X2683Y4513D01*
G01X2762Y4482D01*
G01X2841Y4453D01*
G01X2922Y4426D01*
G01X3002Y4401D01*
G01X3084Y4378D01*
G01X3165Y4357D01*
G01X3248Y4337D01*
G01X3331Y4320D01*
G01X3413Y4305D01*
G01X3497Y4292D01*
G01X3581Y4280D01*
G01X3665Y4271D01*
G01X3749Y4264D01*
G01X3834Y4259D01*
G01X3918Y4256D01*
G01X4003Y4255D01*
G01X4005Y4255D01*
G01X4090Y4256D01*
G01X4174Y4259D01*
G01X4259Y4264D01*
G01X4343Y4271D01*
G01X4427Y4280D01*
G01X4511Y4292D01*
G01X4595Y4305D01*
G01X4677Y4320D01*
G01X4760Y4337D01*
G01X4842Y4357D01*
G01X4925Y4378D01*
G01X5006Y4401D01*
G01X5087Y4426D01*
G01X5167Y4453D01*
G01X5246Y4482D01*
G01X5324Y4513D01*
G01X5403Y4546D01*
G01X5480Y4581D01*
G01X5556Y4617D01*
G01X5631Y4656D01*
G01X5705Y4696D01*
G01X5779Y4738D01*
G01X5851Y4782D01*
G01X5923Y4827D01*
G01X5993Y4874D01*
G01X6062Y4924D01*
G01X6130Y4974D01*
G01X6196Y5026D01*
G01X6261Y5080D01*
G01X6325Y5135D01*
G01X6388Y5192D01*
G01X6449Y5250D01*
G01X6509Y5310D01*
G01X6568Y5371D01*
G01X6624Y5434D01*
G01X6679Y5498D01*
G01X6733Y5563D01*
G01X6786Y5630D01*
G01X6836Y5698D01*
G01X6885Y5767D01*
G01X6932Y5837D01*
G01X6978Y5908D01*
G01X7021Y5981D01*
G01X7063Y6054D01*
G01X7103Y6129D01*
G01X7142Y6204D01*
G01X7178Y6280D01*
G01X7213Y6357D01*
G01X7246Y6435D01*
G01X7277Y6514D01*
G01X7306Y6593D01*
G01X7333Y6673D01*
G01X7358Y6754D01*
G01X7381Y6835D01*
G01X7402Y6917D01*
G01X7422Y6999D01*
G01X7439Y7082D01*
G01X7454Y7166D01*
G01X7467Y7249D01*
G01X7478Y7333D01*
G01X7488Y7417D01*
G01X7495Y7501D01*
G01X7500Y7586D01*
G01X7503Y7670D01*
G01X7504Y7755D01*
G01X7503Y7839D01*
G01X7500Y7924D01*
G01X7495Y8008D01*
G01X7488Y8093D01*
G01X7478Y8176D01*
G01X7467Y8260D01*
G01X7454Y8344D01*
G01X7439Y8427D01*
G01X7422Y8510D01*
G01X7402Y8592D01*
G01X7381Y8674D01*
G01X7358Y8756D01*
G01X7333Y8836D01*
G01X7306Y8916D01*
G01X7277Y8996D01*
G01X7246Y9075D01*
G01X7213Y9152D01*
G01X7178Y9230D01*
G01X7142Y9306D01*
G01X7103Y9381D01*
G01X7063Y9456D01*
G01X7021Y9529D01*
G01X6977Y9601D01*
G01X6932Y9672D01*
G01X6885Y9743D01*
G01X6835Y9812D01*
G01X6785Y9880D01*
G01X6733Y9946D01*
G01X6679Y10011D01*
G01X6624Y10075D01*
G01X6567Y10138D01*
G01X6509Y10199D01*
G01X6449Y10259D01*
G01X6388Y10318D01*
G01X6325Y10375D01*
G01X6261Y10430D01*
G01X6196Y10483D01*
G01X6129Y10536D01*
G01X6061Y10586D01*
G01X5992Y10635D01*
G01X5922Y10682D01*
G01X5851Y10728D01*
G01X5778Y10771D01*
G01X5705Y10813D01*
G01X5630Y10854D01*
G01X5555Y10892D01*
G01X5479Y10929D01*
G01X5402Y10963D01*
G01X5324Y10996D01*
G01X5245Y11027D01*
G01X5165Y11056D01*
G01X5086Y11083D01*
G01X5005Y11109D01*
G01X4924Y11131D01*
G01X4841Y11153D01*
G01X4759Y11172D01*
G01X4676Y11189D01*
G01X4593Y11205D01*
G01X4510Y11218D01*
G01X4426Y11229D01*
G01X4342Y11238D01*
G01X4258Y11245D01*
G01X4173Y11250D01*
G01X4089Y11253D01*
G37*
G36*
G01X49961Y32751D02*
G01X49915Y32752D01*
G01X49869Y32751D01*
G01X49823Y32748D01*
G01X49777Y32743D01*
G01X49732Y32736D01*
G01X49687Y32726D01*
G01X49642Y32714D01*
G01X49598Y32701D01*
G01X49554Y32685D01*
G01X49511Y32668D01*
G01X49470Y32648D01*
G01X49429Y32627D01*
G01X49389Y32604D01*
G01X49350Y32579D01*
G01X49313Y32552D01*
G01X49276Y32523D01*
G01X49241Y32493D01*
G01X49208Y32462D01*
G01X49176Y32428D01*
G01X49145Y32394D01*
G01X49116Y32358D01*
G01X49089Y32321D01*
G01X49063Y32282D01*
G01X49040Y32242D01*
G01X49018Y32202D01*
G01X48998Y32160D01*
G01X48980Y32118D01*
G01X48964Y32074D01*
G01X48950Y32031D01*
G01X48938Y31986D01*
G01X48928Y31941D01*
G01X48920Y31895D01*
G01X48914Y31850D01*
G01X48910Y31804D01*
G01X48909Y31758D01*
G01X48909Y7752D01*
G01X48910Y7706D01*
G01X48914Y7659D01*
G01X48920Y7614D01*
G01X48928Y7568D01*
G01X48938Y7523D01*
G01X48950Y7478D01*
G01X48964Y7435D01*
G01X48980Y7392D01*
G01X48998Y7349D01*
G01X49018Y7307D01*
G01X49040Y7267D01*
G01X49063Y7227D01*
G01X49089Y7188D01*
G01X49116Y7151D01*
G01X49145Y7115D01*
G01X49176Y7081D01*
G01X49208Y7048D01*
G01X49241Y7016D01*
G01X49276Y6986D01*
G01X49313Y6957D01*
G01X49350Y6930D01*
G01X49389Y6905D01*
G01X49429Y6882D01*
G01X49470Y6861D01*
G01X49511Y6841D01*
G01X49554Y6824D01*
G01X49598Y6808D01*
G01X49642Y6795D01*
G01X49687Y6783D01*
G01X49732Y6774D01*
G01X49777Y6766D01*
G01X49823Y6761D01*
G01X49869Y6758D01*
G01X49915Y6757D01*
G01X49961Y6758D01*
G01X50007Y6761D01*
G01X50053Y6766D01*
G01X50099Y6774D01*
G01X50144Y6783D01*
G01X50189Y6795D01*
G01X50233Y6808D01*
G01X50276Y6824D01*
G01X50319Y6841D01*
G01X50361Y6861D01*
G01X50402Y6882D01*
G01X50442Y6905D01*
G01X50480Y6930D01*
G01X50518Y6957D01*
G01X50554Y6986D01*
G01X50589Y7016D01*
G01X50623Y7048D01*
G01X50655Y7081D01*
G01X50685Y7115D01*
G01X50714Y7151D01*
G01X50742Y7188D01*
G01X50767Y7227D01*
G01X50790Y7267D01*
G01X50812Y7307D01*
G01X50833Y7349D01*
G01X50867Y7435D01*
G01X50880Y7478D01*
G01X50893Y7523D01*
G01X50903Y7568D01*
G01X50910Y7614D01*
G01X50916Y7659D01*
G01X50920Y7706D01*
G01X50922Y7752D01*
G01X50922Y31758D01*
G01X50920Y31804D01*
G01X50916Y31850D01*
G01X50910Y31895D01*
G01X50903Y31941D01*
G01X50893Y31986D01*
G01X50880Y32031D01*
G01X50867Y32074D01*
G01X50850Y32118D01*
G01X50833Y32160D01*
G01X50812Y32202D01*
G01X50790Y32242D01*
G01X50767Y32282D01*
G01X50742Y32321D01*
G01X50714Y32358D01*
G01X50685Y32394D01*
G01X50655Y32428D01*
G01X50623Y32462D01*
G01X50589Y32493D01*
G01X50554Y32523D01*
G01X50518Y32552D01*
G01X50480Y32579D01*
G01X50442Y32604D01*
G01X50402Y32627D01*
G01X50361Y32648D01*
G01X50319Y32668D01*
G01X50276Y32685D01*
G01X50233Y32701D01*
G01X50189Y32714D01*
G01X50144Y32726D01*
G01X50099Y32736D01*
G01X50053Y32743D01*
G01X50007Y32748D01*
G01X49961Y32751D01*
G37*
G36*
G01X6051Y22798D02*
G01X6005Y22799D01*
G01X5959Y22798D01*
G01X5913Y22795D01*
G01X5868Y22790D01*
G01X5822Y22782D01*
G01X5777Y22773D01*
G01X5732Y22762D01*
G01X5689Y22748D01*
G01X5646Y22733D01*
G01X5603Y22715D01*
G01X5561Y22696D01*
G01X5521Y22675D01*
G01X5480Y22652D01*
G01X5442Y22627D01*
G01X5404Y22601D01*
G01X5368Y22573D01*
G01X5333Y22543D01*
G01X5300Y22511D01*
G01X5268Y22478D01*
G01X5237Y22444D01*
G01X5208Y22408D01*
G01X5181Y22371D01*
G01X5155Y22333D01*
G01X5132Y22294D01*
G01X5110Y22254D01*
G01X5090Y22212D01*
G01X5072Y22170D01*
G01X5055Y22127D01*
G01X5041Y22083D01*
G01X5029Y22039D01*
G01X5028Y22038D01*
G01X2869Y13301D01*
G01X2869Y13300D01*
G01X2859Y13253D01*
G01X2851Y13206D01*
G01X2845Y13158D01*
G01X2842Y13111D01*
G01X2841Y13063D01*
G01X2842Y13016D01*
G01X2845Y12970D01*
G01X2851Y12924D01*
G01X2858Y12878D01*
G01X2868Y12832D01*
G01X2879Y12788D01*
G01X2893Y12743D01*
G01X2909Y12699D01*
G01X2927Y12656D01*
G01X2947Y12614D01*
G01X2968Y12573D01*
G01X2992Y12533D01*
G01X3017Y12494D01*
G01X3044Y12456D01*
G01X3073Y12420D01*
G01X3104Y12385D01*
G01X3136Y12351D01*
G01X3170Y12319D01*
G01X3205Y12289D01*
G01X3241Y12260D01*
G01X3279Y12232D01*
G01X3318Y12207D01*
G01X3358Y12184D01*
G01X3399Y12162D01*
G01X3441Y12142D01*
G01X3484Y12124D01*
G01X3528Y12108D01*
G01X3572Y12095D01*
G01X3617Y12083D01*
G01X3663Y12073D01*
G01X3709Y12066D01*
G01X3755Y12061D01*
G01X3801Y12058D01*
G01X3848Y12057D01*
G01X3893Y12058D01*
G01X3939Y12061D01*
G01X3985Y12066D01*
G01X4030Y12073D01*
G01X4075Y12082D01*
G01X4120Y12094D01*
G01X4164Y12107D01*
G01X4207Y12123D01*
G01X4250Y12140D01*
G01X4291Y12159D01*
G01X4332Y12180D01*
G01X4371Y12203D01*
G01X4410Y12228D01*
G01X4448Y12255D01*
G01X4484Y12283D01*
G01X4519Y12313D01*
G01X4552Y12344D01*
G01X4584Y12377D01*
G01X4615Y12412D01*
G01X4644Y12447D01*
G01X4671Y12484D01*
G01X4697Y12522D01*
G01X4720Y12561D01*
G01X4742Y12602D01*
G01X4763Y12643D01*
G01X4780Y12685D01*
G01X4797Y12729D01*
G01X4811Y12772D01*
G01X4824Y12816D01*
G01X4824Y12818D01*
G01X6983Y21555D01*
G01X6983Y21556D01*
G01X6993Y21603D01*
G01X7001Y21650D01*
G01X7006Y21697D01*
G01X7010Y21745D01*
G01X7011Y21793D01*
G01X7010Y21839D01*
G01X7007Y21886D01*
G01X7001Y21932D01*
G01X6994Y21978D01*
G01X6985Y22023D01*
G01X6973Y22068D01*
G01X6959Y22112D01*
G01X6943Y22156D01*
G01X6926Y22199D01*
G01X6906Y22241D01*
G01X6884Y22283D01*
G01X6861Y22323D01*
G01X6835Y22361D01*
G01X6808Y22399D01*
G01X6779Y22436D01*
G01X6748Y22471D01*
G01X6716Y22505D01*
G01X6683Y22537D01*
G01X6648Y22567D01*
G01X6611Y22596D01*
G01X6574Y22623D01*
G01X6535Y22648D01*
G01X6494Y22672D01*
G01X6453Y22694D01*
G01X6411Y22713D01*
G01X6368Y22731D01*
G01X6325Y22747D01*
G01X6280Y22761D01*
G01X6235Y22772D01*
G01X6190Y22782D01*
G01X6144Y22790D01*
G01X6098Y22795D01*
G01X6051Y22798D01*
G37*
G36*
G01X43119Y39504D02*
G01X43034Y39505D01*
G01X42950Y39504D01*
G01X42865Y39501D01*
G01X42780Y39495D01*
G01X42696Y39488D01*
G01X42612Y39479D01*
G01X42528Y39468D01*
G01X42445Y39454D01*
G01X42361Y39439D01*
G01X42278Y39422D01*
G01X42196Y39403D01*
G01X42114Y39382D01*
G01X42033Y39358D01*
G01X41952Y39333D01*
G01X41872Y39306D01*
G01X41793Y39277D01*
G01X41714Y39246D01*
G01X41636Y39213D01*
G01X41559Y39179D01*
G01X41483Y39142D01*
G01X41407Y39103D01*
G01X41333Y39063D01*
G01X41259Y39022D01*
G01X41187Y38977D01*
G01X41116Y38932D01*
G01X41046Y38885D01*
G01X40976Y38836D01*
G01X40842Y38734D01*
G01X40777Y38680D01*
G01X40713Y38624D01*
G01X40650Y38568D01*
G01X40589Y38509D01*
G01X40529Y38449D01*
G01X40471Y38388D01*
G01X40414Y38326D01*
G01X40359Y38262D01*
G01X40305Y38196D01*
G01X40253Y38130D01*
G01X40202Y38062D01*
G01X40153Y37993D01*
G01X40106Y37922D01*
G01X40061Y37851D01*
G01X40017Y37779D01*
G01X39975Y37705D01*
G01X39935Y37631D01*
G01X39896Y37556D01*
G01X39860Y37479D01*
G01X39825Y37402D01*
G01X39792Y37324D01*
G01X39761Y37246D01*
G01X39732Y37166D01*
G01X39705Y37086D01*
G01X39680Y37005D01*
G01X39657Y36924D01*
G01X39636Y36842D01*
G01X39617Y36760D01*
G01X39599Y36677D01*
G01X39584Y36594D01*
G01X39571Y36510D01*
G01X39560Y36426D01*
G01X39550Y36342D01*
G01X39543Y36258D01*
G01X39538Y36174D01*
G01X39535Y36089D01*
G01X39534Y36005D01*
G01X39535Y35920D01*
G01X39538Y35835D01*
G01X39543Y35751D01*
G01X39550Y35667D01*
G01X39560Y35583D01*
G01X39571Y35499D01*
G01X39584Y35415D01*
G01X39599Y35332D01*
G01X39617Y35249D01*
G01X39635Y35167D01*
G01X39657Y35085D01*
G01X39680Y35004D01*
G01X39705Y34923D01*
G01X39732Y34843D01*
G01X39761Y34764D01*
G01X39792Y34685D01*
G01X39825Y34607D01*
G01X39860Y34530D01*
G01X39896Y34454D01*
G01X39935Y34379D01*
G01X39975Y34304D01*
G01X40017Y34231D01*
G01X40061Y34158D01*
G01X40106Y34087D01*
G01X40153Y34017D01*
G01X40202Y33948D01*
G01X40253Y33880D01*
G01X40305Y33813D01*
G01X40358Y33748D01*
G01X40414Y33684D01*
G01X40470Y33622D01*
G01X40529Y33560D01*
G01X40589Y33500D01*
G01X40650Y33442D01*
G01X40712Y33385D01*
G01X40776Y33330D01*
G01X40842Y33276D01*
G01X40908Y33224D01*
G01X40976Y33174D01*
G01X41045Y33125D01*
G01X41115Y33078D01*
G01X41186Y33032D01*
G01X41259Y32988D01*
G01X41332Y32946D01*
G01X41407Y32906D01*
G01X41482Y32867D01*
G01X41558Y32831D01*
G01X41635Y32796D01*
G01X41713Y32763D01*
G01X41792Y32732D01*
G01X41872Y32703D01*
G01X41951Y32676D01*
G01X42032Y32651D01*
G01X42113Y32628D01*
G01X42195Y32607D01*
G01X42277Y32587D01*
G01X42360Y32570D01*
G01X42444Y32555D01*
G01X42527Y32542D01*
G01X42611Y32530D01*
G01X42695Y32521D01*
G01X42779Y32514D01*
G01X42864Y32509D01*
G01X42948Y32506D01*
G01X43033Y32505D01*
G01X43035Y32505D01*
G01X43120Y32506D01*
G01X43204Y32509D01*
G01X43289Y32514D01*
G01X43373Y32521D01*
G01X43457Y32530D01*
G01X43541Y32542D01*
G01X43624Y32555D01*
G01X43707Y32570D01*
G01X43790Y32587D01*
G01X43873Y32607D01*
G01X43954Y32628D01*
G01X44036Y32651D01*
G01X44116Y32676D01*
G01X44197Y32703D01*
G01X44276Y32732D01*
G01X44355Y32763D01*
G01X44432Y32796D01*
G01X44510Y32831D01*
G01X44586Y32867D01*
G01X44661Y32906D01*
G01X44736Y32946D01*
G01X44809Y32988D01*
G01X44881Y33032D01*
G01X44953Y33078D01*
G01X45023Y33125D01*
G01X45092Y33174D01*
G01X45159Y33224D01*
G01X45226Y33276D01*
G01X45291Y33330D01*
G01X45355Y33385D01*
G01X45418Y33442D01*
G01X45479Y33500D01*
G01X45539Y33560D01*
G01X45597Y33622D01*
G01X45654Y33684D01*
G01X45709Y33748D01*
G01X45763Y33813D01*
G01X45815Y33880D01*
G01X45866Y33948D01*
G01X45915Y34017D01*
G01X45962Y34087D01*
G01X46007Y34158D01*
G01X46051Y34231D01*
G01X46093Y34304D01*
G01X46133Y34379D01*
G01X46172Y34454D01*
G01X46208Y34530D01*
G01X46243Y34607D01*
G01X46275Y34685D01*
G01X46306Y34764D01*
G01X46335Y34843D01*
G01X46363Y34923D01*
G01X46388Y35004D01*
G01X46411Y35085D01*
G01X46432Y35167D01*
G01X46452Y35249D01*
G01X46469Y35332D01*
G01X46484Y35415D01*
G01X46497Y35499D01*
G01X46509Y35583D01*
G01X46518Y35667D01*
G01X46525Y35751D01*
G01X46530Y35835D01*
G01X46533Y35920D01*
G01X46534Y36005D01*
G01X46533Y36089D01*
G01X46530Y36174D01*
G01X46525Y36258D01*
G01X46518Y36342D01*
G01X46509Y36426D01*
G01X46497Y36510D01*
G01X46484Y36594D01*
G01X46469Y36677D01*
G01X46452Y36760D01*
G01X46432Y36842D01*
G01X46411Y36924D01*
G01X46388Y37005D01*
G01X46363Y37086D01*
G01X46335Y37166D01*
G01X46306Y37246D01*
G01X46275Y37324D01*
G01X46243Y37402D01*
G01X46208Y37479D01*
G01X46171Y37556D01*
G01X46133Y37631D01*
G01X46093Y37705D01*
G01X46051Y37779D01*
G01X46007Y37851D01*
G01X45961Y37922D01*
G01X45914Y37993D01*
G01X45865Y38062D01*
G01X45815Y38130D01*
G01X45763Y38196D01*
G01X45709Y38262D01*
G01X45654Y38326D01*
G01X45597Y38388D01*
G01X45538Y38449D01*
G01X45479Y38509D01*
G01X45417Y38568D01*
G01X45355Y38624D01*
G01X45291Y38680D01*
G01X45225Y38734D01*
G01X45159Y38785D01*
G01X45091Y38836D01*
G01X45022Y38885D01*
G01X44952Y38932D01*
G01X44808Y39022D01*
G01X44735Y39063D01*
G01X44660Y39103D01*
G01X44585Y39142D01*
G01X44509Y39179D01*
G01X44432Y39213D01*
G01X44354Y39246D01*
G01X44275Y39277D01*
G01X44196Y39306D01*
G01X44115Y39333D01*
G01X44035Y39358D01*
G01X43953Y39382D01*
G01X43872Y39403D01*
G01X43789Y39422D01*
G01X43706Y39439D01*
G01X43623Y39454D01*
G01X43540Y39468D01*
G01X43456Y39479D01*
G01X43372Y39488D01*
G01X43287Y39495D01*
G01X43203Y39501D01*
G01X43119Y39504D01*
G37*
G36*
G01X11113Y39513D02*
G01X11028Y39514D01*
G01X10944Y39513D01*
G01X10859Y39510D01*
G01X10775Y39505D01*
G01X10691Y39498D01*
G01X10607Y39489D01*
G01X10523Y39477D01*
G01X10439Y39464D01*
G01X10356Y39449D01*
G01X10273Y39432D01*
G01X10191Y39412D01*
G01X10109Y39391D01*
G01X10028Y39368D01*
G01X9947Y39343D01*
G01X9867Y39316D01*
G01X9787Y39286D01*
G01X9709Y39256D01*
G01X9631Y39223D01*
G01X9554Y39188D01*
G01X9477Y39152D01*
G01X9402Y39113D01*
G01X9328Y39073D01*
G01X9254Y39031D01*
G01X9182Y38987D01*
G01X9110Y38941D01*
G01X9040Y38895D01*
G01X8971Y38845D01*
G01X8903Y38795D01*
G01X8837Y38743D01*
G01X8771Y38689D01*
G01X8707Y38634D01*
G01X8645Y38577D01*
G01X8583Y38519D01*
G01X8524Y38459D01*
G01X8465Y38397D01*
G01X8409Y38335D01*
G01X8353Y38271D01*
G01X8299Y38206D01*
G01X8248Y38139D01*
G01X8197Y38071D01*
G01X8148Y38002D01*
G01X8101Y37932D01*
G01X8055Y37861D01*
G01X8011Y37788D01*
G01X7970Y37715D01*
G01X7929Y37640D01*
G01X7891Y37565D01*
G01X7854Y37489D01*
G01X7820Y37412D01*
G01X7787Y37334D01*
G01X7756Y37255D01*
G01X7727Y37176D01*
G01X7700Y37095D01*
G01X7675Y37015D01*
G01X7651Y36933D01*
G01X7630Y36851D01*
G01X7611Y36769D01*
G01X7594Y36686D01*
G01X7578Y36603D01*
G01X7565Y36520D01*
G01X7554Y36436D01*
G01X7544Y36352D01*
G01X7537Y36267D01*
G01X7532Y36183D01*
G01X7529Y36099D01*
G01X7528Y36014D01*
G01X7529Y35929D01*
G01X7532Y35845D01*
G01X7537Y35760D01*
G01X7544Y35676D01*
G01X7554Y35592D01*
G01X7565Y35508D01*
G01X7578Y35425D01*
G01X7594Y35342D01*
G01X7611Y35259D01*
G01X7630Y35177D01*
G01X7651Y35095D01*
G01X7699Y34933D01*
G01X7727Y34853D01*
G01X7756Y34773D01*
G01X7787Y34695D01*
G01X7819Y34616D01*
G01X7854Y34540D01*
G01X7891Y34463D01*
G01X7929Y34388D01*
G01X7969Y34314D01*
G01X8011Y34240D01*
G01X8055Y34168D01*
G01X8100Y34097D01*
G01X8147Y34026D01*
G01X8197Y33957D01*
G01X8247Y33889D01*
G01X8299Y33823D01*
G01X8353Y33757D01*
G01X8408Y33694D01*
G01X8465Y33631D01*
G01X8523Y33570D01*
G01X8583Y33510D01*
G01X8644Y33451D01*
G01X8707Y33395D01*
G01X8771Y33339D01*
G01X8836Y33286D01*
G01X8903Y33234D01*
G01X8970Y33183D01*
G01X9040Y33134D01*
G01X9110Y33087D01*
G01X9181Y33041D01*
G01X9253Y32997D01*
G01X9327Y32956D01*
G01X9401Y32916D01*
G01X9476Y32877D01*
G01X9553Y32840D01*
G01X9630Y32806D01*
G01X9708Y32773D01*
G01X9786Y32742D01*
G01X9866Y32713D01*
G01X9946Y32685D01*
G01X10027Y32660D01*
G01X10108Y32637D01*
G01X10190Y32616D01*
G01X10272Y32596D01*
G01X10355Y32579D01*
G01X10438Y32564D01*
G01X10521Y32551D01*
G01X10605Y32540D01*
G01X10689Y32530D01*
G01X10774Y32523D01*
G01X10858Y32518D01*
G01X10942Y32515D01*
G01X11027Y32514D01*
G01X11030Y32514D01*
G01X11114Y32515D01*
G01X11199Y32518D01*
G01X11283Y32523D01*
G01X11367Y32530D01*
G01X11451Y32540D01*
G01X11535Y32551D01*
G01X11619Y32564D01*
G01X11702Y32579D01*
G01X11785Y32596D01*
G01X11867Y32616D01*
G01X11949Y32637D01*
G01X12030Y32660D01*
G01X12111Y32685D01*
G01X12191Y32713D01*
G01X12270Y32742D01*
G01X12349Y32773D01*
G01X12427Y32806D01*
G01X12504Y32840D01*
G01X12580Y32877D01*
G01X12655Y32916D01*
G01X12730Y32956D01*
G01X12803Y32997D01*
G01X12876Y33041D01*
G01X12947Y33087D01*
G01X13017Y33134D01*
G01X13086Y33183D01*
G01X13154Y33234D01*
G01X13220Y33286D01*
G01X13286Y33339D01*
G01X13350Y33395D01*
G01X13412Y33451D01*
G01X13474Y33510D01*
G01X13533Y33570D01*
G01X13592Y33631D01*
G01X13649Y33694D01*
G01X13704Y33757D01*
G01X13810Y33889D01*
G01X13860Y33957D01*
G01X13909Y34026D01*
G01X13956Y34097D01*
G01X14002Y34168D01*
G01X14045Y34240D01*
G01X14087Y34314D01*
G01X14128Y34388D01*
G01X14166Y34463D01*
G01X14202Y34540D01*
G01X14237Y34616D01*
G01X14270Y34695D01*
G01X14301Y34773D01*
G01X14330Y34853D01*
G01X14357Y34933D01*
G01X14382Y35014D01*
G01X14406Y35095D01*
G01X14427Y35177D01*
G01X14446Y35259D01*
G01X14463Y35342D01*
G01X14479Y35425D01*
G01X14492Y35508D01*
G01X14503Y35592D01*
G01X14512Y35676D01*
G01X14519Y35760D01*
G01X14524Y35845D01*
G01X14527Y35929D01*
G01X14528Y36014D01*
G01X14527Y36099D01*
G01X14524Y36183D01*
G01X14519Y36267D01*
G01X14512Y36352D01*
G01X14503Y36436D01*
G01X14492Y36520D01*
G01X14478Y36603D01*
G01X14463Y36686D01*
G01X14446Y36769D01*
G01X14427Y36851D01*
G01X14406Y36933D01*
G01X14382Y37015D01*
G01X14357Y37095D01*
G01X14330Y37176D01*
G01X14301Y37255D01*
G01X14270Y37334D01*
G01X14237Y37412D01*
G01X14202Y37489D01*
G01X14166Y37565D01*
G01X14128Y37640D01*
G01X14087Y37715D01*
G01X14045Y37788D01*
G01X14002Y37861D01*
G01X13956Y37932D01*
G01X13909Y38002D01*
G01X13860Y38071D01*
G01X13809Y38139D01*
G01X13757Y38206D01*
G01X13703Y38271D01*
G01X13648Y38335D01*
G01X13591Y38397D01*
G01X13533Y38459D01*
G01X13473Y38519D01*
G01X13412Y38577D01*
G01X13349Y38634D01*
G01X13285Y38689D01*
G01X13220Y38743D01*
G01X13153Y38795D01*
G01X13086Y38845D01*
G01X13017Y38895D01*
G01X12947Y38941D01*
G01X12875Y38987D01*
G01X12803Y39031D01*
G01X12729Y39073D01*
G01X12655Y39113D01*
G01X12580Y39152D01*
G01X12503Y39188D01*
G01X12426Y39223D01*
G01X12348Y39256D01*
G01X12190Y39316D01*
G01X12110Y39343D01*
G01X12029Y39368D01*
G01X11948Y39391D01*
G01X11866Y39412D01*
G01X11784Y39432D01*
G01X11701Y39449D01*
G01X11618Y39464D01*
G01X11534Y39477D01*
G01X11450Y39489D01*
G01X11366Y39498D01*
G01X11282Y39505D01*
G01X11197Y39510D01*
G01X11113Y39513D01*
G37*
G36*
G01X21984Y46200D02*
G01X21899Y46201D01*
G01X21815Y46200D01*
G01X21730Y46197D01*
G01X21646Y46192D01*
G01X21561Y46185D01*
G01X21477Y46176D01*
G01X21394Y46165D01*
G01X21310Y46151D01*
G01X21226Y46136D01*
G01X21144Y46119D01*
G01X21061Y46100D01*
G01X20980Y46078D01*
G01X20898Y46055D01*
G01X20817Y46030D01*
G01X20737Y46003D01*
G01X20658Y45974D01*
G01X20579Y45943D01*
G01X20502Y45910D01*
G01X20424Y45876D01*
G01X20348Y45839D01*
G01X20272Y45800D01*
G01X20198Y45760D01*
G01X20125Y45718D01*
G01X20052Y45674D01*
G01X19981Y45629D01*
G01X19911Y45582D01*
G01X19842Y45533D01*
G01X19774Y45482D01*
G01X19708Y45430D01*
G01X19642Y45377D01*
G01X19578Y45321D01*
G01X19515Y45264D01*
G01X19455Y45206D01*
G01X19395Y45146D01*
G01X19336Y45085D01*
G01X19279Y45022D01*
G01X19224Y44958D01*
G01X19170Y44893D01*
G01X19118Y44827D01*
G01X19067Y44759D01*
G01X18971Y44619D01*
G01X18926Y44548D01*
G01X18882Y44476D01*
G01X18840Y44402D01*
G01X18800Y44328D01*
G01X18762Y44253D01*
G01X18725Y44176D01*
G01X18690Y44099D01*
G01X18657Y44021D01*
G01X18626Y43943D01*
G01X18598Y43863D01*
G01X18571Y43783D01*
G01X18545Y43702D01*
G01X18522Y43621D01*
G01X18501Y43539D01*
G01X18482Y43457D01*
G01X18464Y43374D01*
G01X18449Y43291D01*
G01X18436Y43207D01*
G01X18425Y43123D01*
G01X18415Y43039D01*
G01X18408Y42955D01*
G01X18403Y42870D01*
G01X18400Y42786D01*
G01X18399Y42702D01*
G01X18400Y42617D01*
G01X18403Y42532D01*
G01X18408Y42448D01*
G01X18415Y42364D01*
G01X18425Y42279D01*
G01X18436Y42196D01*
G01X18449Y42112D01*
G01X18464Y42029D01*
G01X18482Y41946D01*
G01X18500Y41864D01*
G01X18522Y41782D01*
G01X18545Y41701D01*
G01X18570Y41620D01*
G01X18598Y41540D01*
G01X18626Y41461D01*
G01X18657Y41382D01*
G01X18690Y41304D01*
G01X18725Y41227D01*
G01X18762Y41151D01*
G01X18800Y41075D01*
G01X18840Y41001D01*
G01X18882Y40928D01*
G01X18926Y40855D01*
G01X18971Y40784D01*
G01X19018Y40714D01*
G01X19067Y40645D01*
G01X19118Y40577D01*
G01X19170Y40510D01*
G01X19223Y40445D01*
G01X19279Y40381D01*
G01X19336Y40318D01*
G01X19394Y40257D01*
G01X19454Y40197D01*
G01X19515Y40139D01*
G01X19577Y40082D01*
G01X19641Y40027D01*
G01X19707Y39973D01*
G01X19774Y39921D01*
G01X19841Y39871D01*
G01X19910Y39821D01*
G01X19980Y39774D01*
G01X20051Y39729D01*
G01X20124Y39685D01*
G01X20197Y39643D01*
G01X20272Y39603D01*
G01X20347Y39564D01*
G01X20423Y39528D01*
G01X20500Y39493D01*
G01X20578Y39460D01*
G01X20657Y39429D01*
G01X20736Y39400D01*
G01X20816Y39373D01*
G01X20897Y39348D01*
G01X20979Y39324D01*
G01X21060Y39304D01*
G01X21143Y39284D01*
G01X21225Y39267D01*
G01X21309Y39252D01*
G01X21392Y39238D01*
G01X21476Y39227D01*
G01X21560Y39218D01*
G01X21645Y39211D01*
G01X21729Y39206D01*
G01X21813Y39203D01*
G01X21898Y39202D01*
G01X21901Y39202D01*
G01X21985Y39203D01*
G01X22069Y39206D01*
G01X22154Y39211D01*
G01X22238Y39218D01*
G01X22322Y39227D01*
G01X22406Y39238D01*
G01X22489Y39252D01*
G01X22573Y39267D01*
G01X22655Y39284D01*
G01X22738Y39304D01*
G01X22820Y39324D01*
G01X22901Y39348D01*
G01X22982Y39373D01*
G01X23062Y39400D01*
G01X23141Y39429D01*
G01X23220Y39460D01*
G01X23298Y39493D01*
G01X23375Y39528D01*
G01X23451Y39564D01*
G01X23526Y39603D01*
G01X23601Y39643D01*
G01X23674Y39685D01*
G01X23747Y39729D01*
G01X23818Y39774D01*
G01X23888Y39821D01*
G01X23957Y39871D01*
G01X24024Y39921D01*
G01X24091Y39973D01*
G01X24157Y40027D01*
G01X24221Y40082D01*
G01X24283Y40139D01*
G01X24345Y40197D01*
G01X24404Y40257D01*
G01X24462Y40318D01*
G01X24519Y40381D01*
G01X24575Y40445D01*
G01X24628Y40510D01*
G01X24680Y40577D01*
G01X24731Y40645D01*
G01X24780Y40714D01*
G01X24827Y40784D01*
G01X24872Y40855D01*
G01X24916Y40927D01*
G01X24958Y41001D01*
G01X24998Y41075D01*
G01X25037Y41151D01*
G01X25074Y41227D01*
G01X25108Y41304D01*
G01X25141Y41382D01*
G01X25172Y41461D01*
G01X25201Y41540D01*
G01X25228Y41620D01*
G01X25253Y41701D01*
G01X25276Y41782D01*
G01X25298Y41864D01*
G01X25317Y41946D01*
G01X25334Y42029D01*
G01X25349Y42112D01*
G01X25363Y42196D01*
G01X25374Y42279D01*
G01X25383Y42364D01*
G01X25390Y42448D01*
G01X25395Y42532D01*
G01X25398Y42617D01*
G01X25399Y42702D01*
G01X25398Y42786D01*
G01X25395Y42870D01*
G01X25390Y42955D01*
G01X25383Y43039D01*
G01X25374Y43123D01*
G01X25363Y43207D01*
G01X25349Y43291D01*
G01X25334Y43374D01*
G01X25317Y43457D01*
G01X25298Y43539D01*
G01X25276Y43621D01*
G01X25253Y43702D01*
G01X25228Y43783D01*
G01X25201Y43863D01*
G01X25172Y43943D01*
G01X25141Y44021D01*
G01X25108Y44099D01*
G01X25073Y44176D01*
G01X25036Y44253D01*
G01X24998Y44328D01*
G01X24958Y44402D01*
G01X24916Y44476D01*
G01X24872Y44548D01*
G01X24827Y44619D01*
G01X24731Y44759D01*
G01X24680Y44827D01*
G01X24628Y44893D01*
G01X24574Y44958D01*
G01X24519Y45022D01*
G01X24462Y45085D01*
G01X24403Y45146D01*
G01X24344Y45206D01*
G01X24283Y45264D01*
G01X24220Y45321D01*
G01X24156Y45377D01*
G01X24091Y45430D01*
G01X24024Y45482D01*
G01X23956Y45533D01*
G01X23887Y45582D01*
G01X23817Y45629D01*
G01X23746Y45674D01*
G01X23673Y45718D01*
G01X23600Y45760D01*
G01X23526Y45800D01*
G01X23450Y45839D01*
G01X23374Y45876D01*
G01X23297Y45910D01*
G01X23219Y45943D01*
G01X23140Y45974D01*
G01X23061Y46003D01*
G01X22981Y46030D01*
G01X22900Y46055D01*
G01X22818Y46078D01*
G01X22737Y46100D01*
G01X22654Y46119D01*
G01X22572Y46136D01*
G01X22488Y46151D01*
G01X22405Y46165D01*
G01X22321Y46176D01*
G01X22237Y46185D01*
G01X22153Y46192D01*
G01X22068Y46197D01*
G01X21984Y46200D01*
G37*

%LPD*%
G54D11*
G01X5064Y12037D03*
G01X5864Y24838D03*
G01X5864Y24037D03*
G01X5864Y23237D03*
G01X5864Y15237D03*
G01X5864Y14438D03*
G01X5864Y13637D03*
G01X5864Y12837D03*
G01X5864Y12037D03*
G01X5864Y4037D03*
G01X5864Y3237D03*
G01X6664Y31237D03*
G01X6664Y30437D03*
G01X6664Y29637D03*
G01X6664Y28037D03*
G01X6664Y27237D03*
G01X6664Y26437D03*
G01X6664Y25637D03*
G01X6664Y24838D03*
G01X6664Y24037D03*
G01X6664Y23237D03*
G01X6664Y18438D03*
G01X6664Y17637D03*
G01X6664Y16837D03*
G01X6664Y16037D03*
G01X6664Y15237D03*
G01X6664Y14438D03*
G01X6664Y13637D03*
G01X6664Y12837D03*
G01X6664Y12037D03*
G01X6664Y11237D03*
G01X6664Y4037D03*
G01X6664Y3237D03*
G01X6664Y2438D03*
G01X7464Y33637D03*
G01X7464Y32838D03*
G01X7464Y32037D03*
G01X7464Y31237D03*
G01X7464Y30437D03*
G01X7464Y29637D03*
G01X7464Y28838D03*
G01X7464Y28037D03*
G01X7464Y27237D03*
G01X7464Y26437D03*
G01X7464Y25637D03*
G01X7464Y24838D03*
G01X7464Y24037D03*
G01X7464Y23237D03*
G01X7464Y22438D03*
G01X7464Y21637D03*
G01X7464Y20838D03*
G01X7464Y20037D03*
G01X7464Y19237D03*
G01X7464Y18438D03*
G01X7464Y17637D03*
G01X7464Y16837D03*
G01X7464Y16037D03*
G01X7464Y15237D03*
G01X7464Y14438D03*
G01X7464Y13637D03*
G01X7464Y12837D03*
G01X7464Y12037D03*
G01X7464Y11237D03*
G01X7464Y10438D03*
G01X8264Y32838D03*
G01X8264Y32037D03*
G01X8264Y31237D03*
G01X8264Y30437D03*
G01X8264Y29637D03*
G01X8264Y28838D03*
G01X8264Y28037D03*
G01X8264Y27237D03*
G01X8264Y26437D03*
G01X8264Y25637D03*
G01X8264Y24838D03*
G01X8264Y24037D03*
G01X8264Y23237D03*
G01X8264Y22438D03*
G01X8264Y21637D03*
G01X8264Y20838D03*
G01X8264Y20037D03*
G01X8264Y19237D03*
G01X8264Y18438D03*
G01X8264Y17637D03*
G01X8264Y16837D03*
G01X8264Y16037D03*
G01X8264Y15237D03*
G01X8264Y14438D03*
G01X8264Y13637D03*
G01X8264Y12837D03*
G01X8264Y12037D03*
G01X8264Y11237D03*
G01X8264Y10438D03*
G01X8264Y9637D03*
G01X8264Y8837D03*
G01X8264Y8037D03*
G01X8264Y7237D03*
G01X9064Y31237D03*
G01X9064Y30437D03*
G01X9064Y29637D03*
G01X9064Y28838D03*
G01X9064Y28037D03*
G01X9064Y27237D03*
G01X9064Y26437D03*
G01X9064Y25637D03*
G01X9064Y24838D03*
G01X9064Y24037D03*
G01X9064Y23237D03*
G01X9064Y22438D03*
G01X9064Y21637D03*
G01X9064Y20838D03*
G01X9064Y20037D03*
G01X9064Y19237D03*
G01X9064Y18438D03*
G01X9064Y17637D03*
G01X9064Y16837D03*
G01X9064Y16037D03*
G01X9064Y15237D03*
G01X9064Y14438D03*
G01X9064Y13637D03*
G01X9064Y12837D03*
G01X9064Y12037D03*
G01X9064Y11237D03*
G01X9064Y10438D03*
G01X9064Y9637D03*
G01X9064Y8837D03*
G01X9064Y8037D03*
G01X9864Y31237D03*
G01X9864Y30437D03*
G01X9864Y29637D03*
G01X9864Y28838D03*
G01X9864Y28037D03*
G01X9864Y27237D03*
G01X9864Y26437D03*
G01X9864Y25637D03*
G01X9864Y24838D03*
G01X9864Y24037D03*
G01X9864Y23237D03*
G01X9864Y22438D03*
G01X9864Y21637D03*
G01X9864Y20838D03*
G01X9864Y20037D03*
G01X9864Y19237D03*
G01X9864Y18438D03*
G01X9864Y17637D03*
G01X9864Y16837D03*
G01X9864Y16037D03*
G01X9864Y15237D03*
G01X9864Y14438D03*
G01X9864Y13637D03*
G01X9864Y12837D03*
G01X9864Y12037D03*
G01X9864Y11237D03*
G01X9864Y10438D03*
G01X9864Y9637D03*
G01X9864Y8837D03*
G01X9864Y8037D03*
G01X12264Y40037D03*
G01X13064Y40838D03*
G01X13064Y40037D03*
G01X13864Y40838D03*
G01X13864Y40037D03*
G01X13864Y39237D03*
G01X14664Y41637D03*
G01X14664Y40838D03*
G01X14664Y40037D03*
G01X14664Y39237D03*
G01X14664Y38437D03*
G01X15464Y42437D03*
G01X15464Y41637D03*
G01X15464Y40838D03*
G01X15464Y40037D03*
G01X15464Y39237D03*
G01X15464Y38437D03*
G01X15464Y37637D03*
G01X15464Y36838D03*
G01X15464Y2438D03*
G01X16264Y42437D03*
G01X16264Y41637D03*
G01X16264Y40838D03*
G01X16264Y40037D03*
G01X16264Y39237D03*
G01X16264Y38437D03*
G01X16264Y37637D03*
G01X16264Y36838D03*
G01X16264Y2438D03*
G01X17064Y43238D03*
G01X17064Y42437D03*
G01X17064Y41637D03*
G01X17064Y40838D03*
G01X17064Y40037D03*
G01X17064Y39237D03*
G01X17064Y38437D03*
G01X17064Y37637D03*
G01X17064Y36838D03*
G01X17864Y43238D03*
G01X17864Y41637D03*
G01X17864Y40838D03*
G01X17864Y40037D03*
G01X17864Y39237D03*
G01X18664Y40037D03*
G01X18664Y39237D03*
G01X19464Y39237D03*
G01X19464Y2438D03*
G01X23464Y2438D03*
G01X24264Y39237D03*
G01X25064Y40037D03*
G01X25064Y39237D03*
G01X25864Y44037D03*
G01X25864Y41637D03*
G01X25864Y40838D03*
G01X25864Y40037D03*
G01X25864Y39237D03*
G01X26664Y44037D03*
G01X26664Y43238D03*
G01X26664Y42437D03*
G01X26664Y41637D03*
G01X26664Y40838D03*
G01X26664Y40037D03*
G01X26664Y39237D03*
G01X27464Y44037D03*
G01X27464Y43238D03*
G01X27464Y42437D03*
G01X27464Y41637D03*
G01X27464Y40838D03*
G01X27464Y40037D03*
G01X27464Y39237D03*
G01X27464Y2438D03*
G01X28264Y43238D03*
G01X28264Y42437D03*
G01X28264Y41637D03*
G01X28264Y40838D03*
G01X28264Y40037D03*
G01X28264Y39237D03*
G01X29064Y43238D03*
G01X29064Y42437D03*
G01X29064Y41637D03*
G01X29064Y40838D03*
G01X29064Y40037D03*
G01X29064Y39237D03*
G01X29864Y43238D03*
G01X29864Y42437D03*
G01X29864Y41637D03*
G01X29864Y40838D03*
G01X29864Y40037D03*
G01X29864Y39237D03*
G01X30664Y43238D03*
G01X30664Y42437D03*
G01X30664Y41637D03*
G01X30664Y40838D03*
G01X30664Y40037D03*
G01X30664Y39237D03*
G01X31464Y42437D03*
G01X31464Y41637D03*
G01X31464Y40838D03*
G01X31464Y40037D03*
G01X31464Y39237D03*
G01X31464Y2438D03*
G01X32264Y42437D03*
G01X32264Y41637D03*
G01X32264Y40838D03*
G01X32264Y40037D03*
G01X32264Y39237D03*
G01X33064Y42437D03*
G01X33064Y41637D03*
G01X33064Y40838D03*
G01X33064Y40037D03*
G01X33064Y39237D03*
G01X33864Y41637D03*
G01X33864Y40838D03*
G01X33864Y40037D03*
G01X33864Y39237D03*
G01X34664Y41637D03*
G01X34664Y40838D03*
G01X34664Y40037D03*
G01X34664Y39237D03*
G01X35464Y41637D03*
G01X35464Y40838D03*
G01X35464Y40037D03*
G01X35464Y39237D03*
G01X36264Y40838D03*
G01X36264Y40037D03*
G01X36264Y39237D03*
G01X37064Y40838D03*
G01X37064Y40037D03*
G01X37064Y39237D03*
G01X37064Y38437D03*
G01X37064Y37637D03*
G01X37064Y36838D03*
G01X37064Y2438D03*
G01X37864Y40838D03*
G01X37864Y40037D03*
G01X37864Y39237D03*
G01X37864Y38437D03*
G01X37864Y37637D03*
G01X37864Y36838D03*
G01X37864Y2438D03*
G01X38664Y40037D03*
G01X38664Y39237D03*
G01X38664Y38437D03*
G01X38664Y37637D03*
G01X38664Y36838D03*
G01X38664Y2438D03*
G01X39464Y40037D03*
G01X39464Y39237D03*
G01X39464Y38437D03*
G01X40264Y40037D03*
G01X40264Y39237D03*
G01X44264Y32037D03*
G01X44264Y31237D03*
G01X44264Y30437D03*
G01X44264Y29637D03*
G01X44264Y28838D03*
G01X44264Y28037D03*
G01X44264Y27237D03*
G01X44264Y26437D03*
G01X44264Y25637D03*
G01X44264Y24838D03*
G01X44264Y24037D03*
G01X44264Y23237D03*
G01X44264Y22438D03*
G01X44264Y21637D03*
G01X44264Y20838D03*
G01X44264Y20037D03*
G01X44264Y19237D03*
G01X44264Y18438D03*
G01X44264Y17637D03*
G01X44264Y16837D03*
G01X44264Y16037D03*
G01X44264Y15237D03*
G01X44264Y14438D03*
G01X44264Y13637D03*
G01X44264Y12837D03*
G01X44264Y12037D03*
G01X44264Y11237D03*
G01X44264Y10438D03*
G01X44264Y9637D03*
G01X44264Y8837D03*
G01X44264Y8037D03*
G01X45064Y32037D03*
G01X45064Y31237D03*
G01X45064Y30437D03*
G01X45064Y29637D03*
G01X45064Y28838D03*
G01X45064Y28037D03*
G01X45064Y27237D03*
G01X45064Y26437D03*
G01X45064Y25637D03*
G01X45064Y24838D03*
G01X45064Y24037D03*
G01X45064Y23237D03*
G01X45064Y22438D03*
G01X45064Y21637D03*
G01X45064Y20838D03*
G01X45064Y20037D03*
G01X45064Y19237D03*
G01X45064Y18438D03*
G01X45064Y17637D03*
G01X45064Y16837D03*
G01X45064Y16037D03*
G01X45064Y15237D03*
G01X45064Y14438D03*
G01X45064Y13637D03*
G01X45064Y12837D03*
G01X45064Y12037D03*
G01X45064Y11237D03*
G01X45064Y10438D03*
G01X45064Y9637D03*
G01X45064Y8837D03*
G01X45064Y8037D03*
G01X45864Y32037D03*
G01X45864Y31237D03*
G01X45864Y30437D03*
G01X45864Y29637D03*
G01X45864Y28838D03*
G01X45864Y28037D03*
G01X45864Y27237D03*
G01X45864Y26437D03*
G01X45864Y25637D03*
G01X45864Y24838D03*
G01X45864Y24037D03*
G01X45864Y23237D03*
G01X45864Y22438D03*
G01X45864Y21637D03*
G01X45864Y20838D03*
G01X45864Y20037D03*
G01X45864Y19237D03*
G01X45864Y18438D03*
G01X45864Y17637D03*
G01X45864Y16837D03*
G01X45864Y16037D03*
G01X45864Y15237D03*
G01X45864Y14438D03*
G01X45864Y13637D03*
G01X45864Y12837D03*
G01X45864Y12037D03*
G01X45864Y11237D03*
G01X45864Y10438D03*
G01X45864Y9637D03*
G01X45864Y8837D03*
G01X45864Y8037D03*
G01X45864Y7237D03*
G01X46664Y33637D03*
G01X46664Y32838D03*
G01X46664Y32037D03*
G01X46664Y7237D03*
G01X46664Y6438D03*
G01X47464Y34437D03*
G01X47464Y33637D03*
G01X47464Y32838D03*
G01X47464Y32037D03*
G01X47464Y7237D03*
G01X47464Y6438D03*
G01X47464Y5637D03*
G01X47464Y4837D03*
G01X48264Y34437D03*
G01X48264Y33637D03*
G01X48264Y32838D03*
G01X48264Y32037D03*
G01X48264Y7237D03*
G01X48264Y6438D03*
G01X48264Y5637D03*
G01X48264Y4837D03*
G01X49064Y34437D03*
G01X49064Y33637D03*
G01X49064Y6438D03*
G01X49064Y5637D03*
G01X49064Y4837D03*
G01X49864Y34437D03*
G01X49864Y33637D03*
G01X49864Y5637D03*
G01X49864Y4837D03*
G01X50664Y34437D03*
G01X50664Y33637D03*
G01X50664Y5637D03*
G01X50664Y4837D03*
M00*
M02*
