G04 Layer: BoardOutline*
G04 EasyEDA v6.4.2, 2020-07-29T20:00:14+08:00*
G04 a4d3a70eaac246dab60b55038e04b420,fed530592efb474aaabf7115e2e2b964,NaN*
G04 Gerber Generator version 0.2*
G04 Scale: 100 percent, Rotated: No, Reflected: No *
G04 Dimensions in millimeters *
G04 leading zeros omitted , absolute positions ,3 integer and 3 decimal *
%FSLAX33Y33*%
%MOMM*%
G90*
G71D02*

%ADD10C,0.254000*%
G54D10*
G01X43023Y0D02*
G01X9844Y0D01*
G01X47023Y3999D02*
G01X52102Y3999D01*
G01X52102Y35999D01*
G01X47023Y35999D02*
G01X52102Y35999D01*
G01X1851Y4348D02*
G01X7696Y626D01*
G01X117Y8686D02*
G01X7141Y36964D01*
G01X23067Y46515D02*
G01X44230Y39813D01*
G01X19755Y46104D02*
G01X8919Y39401D01*
G01X19755Y46104D01*
G01X43023Y8000D02*
G01X43023Y31999D01*
G01X15023Y3999D02*
G01X39023Y3999D01*
G01X11023Y31999D02*
G01X11023Y8000D01*
G01X39023Y35999D02*
G01X15023Y35999D01*
G75*
G01X9845Y0D02*
G02X7696Y626I0J4000D01*
G01*
G75*
G01X47023Y4000D02*
G02X43023Y0I-4000J0D01*
G01*
G75*
G01X43023Y8000D02*
G03X39023Y4000I0J-4000D01*
G01*
G75*
G01X15023Y4000D02*
G03X11023Y8000I-4000J0D01*
G01*
G75*
G01X118Y8687D02*
G03X1851Y4349I3882J-964D01*
G01*
G75*
G01X23068Y46516D02*
G03X19756Y46104I-1208J-3813D01*
G01*
G75*
G01X39023Y36000D02*
G03X43023Y32000I4000J0D01*
G01*
G75*
G01X11023Y32000D02*
G03X15023Y36000I0J4000D01*
G01*
G75*
G01X8919Y39402D02*
G03X7141Y36964I2104J-3402D01*
G01*
G75*
G01X44231Y39813D02*
G02X47023Y36000I-1208J-3813D01*
G01*
G01X50665Y31755D02*
G01X50665Y7755D01*
G75*
G01X50666Y7755D02*
G02X49166Y7755I-750J9D01*
G01*
G01X49165Y7755D02*
G01X49165Y31755D01*
G75*
G01X49166Y31755D02*
G02X50666Y31755I750J-9D01*
G01*
G01X50665Y31755D02*
G01X50665Y31755D01*
G01X6734Y21616D02*
G01X4575Y12879D01*
G75*
G01X4575Y12880D02*
G02X3119Y13240I-727J183D01*
G01*
G01X3119Y13239D02*
G01X5278Y21976D01*
G75*
G01X5278Y21977D02*
G02X6734Y21617I727J-184D01*
G01*
G01X6734Y21616D02*
G01X6734Y21616D01*

%LPD*%
M00*
M02*
