G04 Layer: BottomLayer*
G04 EasyEDA v6.4.2, 2020-07-29T20:00:14+08:00*
G04 a4d3a70eaac246dab60b55038e04b420,fed530592efb474aaabf7115e2e2b964,NaN*
G04 Gerber Generator version 0.2*
G04 Scale: 100 percent, Rotated: No, Reflected: No *
G04 Dimensions in millimeters *
G04 leading zeros omitted , absolute positions ,3 integer and 3 decimal *
%FSLAX33Y33*%
%MOMM*%
G90*
G71D02*

%ADD11C,0.599999*%

%LPD*%
G36*
G01X21947Y46445D02*
G01X21859Y46446D01*
G01X21769Y46445D01*
G01X21679Y46441D01*
G01X21589Y46436D01*
G01X21499Y46428D01*
G01X21410Y46419D01*
G01X21320Y46406D01*
G01X21232Y46392D01*
G01X21143Y46376D01*
G01X21054Y46358D01*
G01X20967Y46337D01*
G01X20879Y46315D01*
G01X20793Y46290D01*
G01X20707Y46264D01*
G01X20621Y46235D01*
G01X20537Y46204D01*
G01X20452Y46171D01*
G01X20369Y46136D01*
G01X20287Y46099D01*
G01X20206Y46061D01*
G01X20125Y46020D01*
G01X20046Y45977D01*
G01X19968Y45933D01*
G01X19890Y45886D01*
G01X9054Y39183D01*
G01X8980Y39136D01*
G01X8906Y39088D01*
G01X8835Y39037D01*
G01X8764Y38985D01*
G01X8695Y38931D01*
G01X8627Y38876D01*
G01X8560Y38819D01*
G01X8495Y38761D01*
G01X8431Y38701D01*
G01X8368Y38639D01*
G01X8307Y38577D01*
G01X8248Y38512D01*
G01X8190Y38447D01*
G01X8133Y38380D01*
G01X8078Y38311D01*
G01X8025Y38241D01*
G01X7973Y38171D01*
G01X7923Y38099D01*
G01X7875Y38025D01*
G01X7828Y37951D01*
G01X7783Y37876D01*
G01X7699Y37722D01*
G01X7660Y37644D01*
G01X7622Y37565D01*
G01X7587Y37484D01*
G01X7553Y37404D01*
G01X7521Y37322D01*
G01X7491Y37240D01*
G01X7463Y37157D01*
G01X7436Y37073D01*
G01X7412Y36989D01*
G01X7390Y36904D01*
G01X7390Y36902D01*
G01X366Y8624D01*
G01X366Y8622D01*
G01X345Y8534D01*
G01X326Y8445D01*
G01X310Y8356D01*
G01X296Y8266D01*
G01X284Y8176D01*
G01X273Y8085D01*
G01X266Y7995D01*
G01X260Y7904D01*
G01X257Y7813D01*
G01X256Y7722D01*
G01X257Y7635D01*
G01X260Y7548D01*
G01X265Y7460D01*
G01X272Y7373D01*
G01X282Y7286D01*
G01X293Y7200D01*
G01X306Y7113D01*
G01X321Y7027D01*
G01X338Y6941D01*
G01X358Y6856D01*
G01X379Y6772D01*
G01X402Y6687D01*
G01X427Y6604D01*
G01X454Y6520D01*
G01X483Y6438D01*
G01X514Y6356D01*
G01X547Y6275D01*
G01X582Y6195D01*
G01X618Y6116D01*
G01X656Y6037D01*
G01X697Y5960D01*
G01X739Y5883D01*
G01X782Y5808D01*
G01X828Y5733D01*
G01X875Y5660D01*
G01X925Y5587D01*
G01X975Y5516D01*
G01X1027Y5446D01*
G01X1081Y5377D01*
G01X1137Y5310D01*
G01X1194Y5244D01*
G01X1252Y5179D01*
G01X1313Y5116D01*
G01X1374Y5054D01*
G01X1437Y4993D01*
G01X1502Y4934D01*
G01X1567Y4876D01*
G01X1634Y4821D01*
G01X1703Y4766D01*
G01X1773Y4713D01*
G01X1843Y4662D01*
G01X1915Y4613D01*
G01X1988Y4565D01*
G01X1992Y4563D01*
G01X7834Y842D01*
G01X7838Y839D01*
G01X7839Y838D01*
G01X7914Y792D01*
G01X7990Y747D01*
G01X8067Y705D01*
G01X8145Y664D01*
G01X8224Y624D01*
G01X8304Y587D01*
G01X8385Y552D01*
G01X8466Y519D01*
G01X8549Y487D01*
G01X8632Y458D01*
G01X8716Y430D01*
G01X8800Y405D01*
G01X8885Y381D01*
G01X8971Y359D01*
G01X9057Y340D01*
G01X9143Y322D01*
G01X9230Y307D01*
G01X9317Y293D01*
G01X9404Y282D01*
G01X9492Y272D01*
G01X9580Y265D01*
G01X9668Y260D01*
G01X9756Y257D01*
G01X9844Y256D01*
G01X43023Y256D01*
G01X43111Y257D01*
G01X43198Y260D01*
G01X43286Y265D01*
G01X43373Y272D01*
G01X43461Y282D01*
G01X43547Y293D01*
G01X43634Y306D01*
G01X43721Y322D01*
G01X43807Y339D01*
G01X43892Y358D01*
G01X43977Y380D01*
G01X44062Y403D01*
G01X44146Y428D01*
G01X44230Y456D01*
G01X44312Y485D01*
G01X44394Y516D01*
G01X44476Y549D01*
G01X44556Y584D01*
G01X44636Y621D01*
G01X44714Y660D01*
G01X44792Y701D01*
G01X44869Y743D01*
G01X44945Y787D01*
G01X45020Y833D01*
G01X45093Y881D01*
G01X45166Y930D01*
G01X45237Y981D01*
G01X45307Y1034D01*
G01X45376Y1088D01*
G01X45444Y1144D01*
G01X45510Y1202D01*
G01X45575Y1261D01*
G01X45638Y1321D01*
G01X45700Y1383D01*
G01X45761Y1447D01*
G01X45820Y1512D01*
G01X45878Y1579D01*
G01X45934Y1646D01*
G01X45988Y1715D01*
G01X46041Y1785D01*
G01X46092Y1856D01*
G01X46141Y1929D01*
G01X46189Y2003D01*
G01X46235Y2077D01*
G01X46279Y2153D01*
G01X46322Y2230D01*
G01X46362Y2308D01*
G01X46401Y2387D01*
G01X46438Y2466D01*
G01X46506Y2628D01*
G01X46537Y2710D01*
G01X46566Y2793D01*
G01X46593Y2876D01*
G01X46619Y2960D01*
G01X46642Y3045D01*
G01X46664Y3130D01*
G01X46683Y3215D01*
G01X46701Y3302D01*
G01X46716Y3388D01*
G01X46729Y3474D01*
G01X46740Y3562D01*
G01X46750Y3649D01*
G01X46757Y3737D01*
G01X46762Y3824D01*
G01X46765Y3912D01*
G01X46766Y4000D01*
G01X46767Y4023D01*
G01X46771Y4046D01*
G01X46776Y4070D01*
G01X46783Y4092D01*
G01X46793Y4114D01*
G01X46805Y4135D01*
G01X46818Y4154D01*
G01X46833Y4172D01*
G01X46850Y4189D01*
G01X46868Y4204D01*
G01X46888Y4218D01*
G01X46908Y4229D01*
G01X46930Y4239D01*
G01X46953Y4246D01*
G01X46975Y4252D01*
G01X46999Y4255D01*
G01X47023Y4256D01*
G01X51744Y4256D01*
G01X51758Y4257D01*
G01X51772Y4260D01*
G01X51786Y4265D01*
G01X51798Y4272D01*
G01X51810Y4281D01*
G01X51820Y4291D01*
G01X51829Y4302D01*
G01X51836Y4316D01*
G01X51841Y4329D01*
G01X51844Y4343D01*
G01X51845Y4358D01*
G01X51845Y35641D01*
G01X51844Y35656D01*
G01X51841Y35670D01*
G01X51836Y35684D01*
G01X51829Y35696D01*
G01X51820Y35708D01*
G01X51810Y35718D01*
G01X51798Y35727D01*
G01X51786Y35734D01*
G01X51772Y35739D01*
G01X51758Y35742D01*
G01X51744Y35743D01*
G01X47023Y35743D01*
G01X46999Y35744D01*
G01X46975Y35747D01*
G01X46953Y35753D01*
G01X46930Y35760D01*
G01X46908Y35770D01*
G01X46888Y35781D01*
G01X46868Y35795D01*
G01X46850Y35810D01*
G01X46833Y35827D01*
G01X46818Y35845D01*
G01X46805Y35864D01*
G01X46793Y35885D01*
G01X46783Y35907D01*
G01X46776Y35929D01*
G01X46771Y35952D01*
G01X46767Y35976D01*
G01X46766Y36000D01*
G01X46765Y36087D01*
G01X46762Y36175D01*
G01X46757Y36262D01*
G01X46750Y36350D01*
G01X46741Y36436D01*
G01X46729Y36523D01*
G01X46716Y36610D01*
G01X46701Y36697D01*
G01X46683Y36782D01*
G01X46664Y36868D01*
G01X46643Y36953D01*
G01X46619Y37037D01*
G01X46594Y37121D01*
G01X46567Y37205D01*
G01X46538Y37287D01*
G01X46507Y37369D01*
G01X46474Y37450D01*
G01X46438Y37531D01*
G01X46402Y37610D01*
G01X46363Y37689D01*
G01X46323Y37766D01*
G01X46280Y37843D01*
G01X46236Y37919D01*
G01X46191Y37993D01*
G01X46143Y38067D01*
G01X46094Y38140D01*
G01X46043Y38211D01*
G01X45990Y38281D01*
G01X45936Y38350D01*
G01X45880Y38418D01*
G01X45823Y38484D01*
G01X45764Y38549D01*
G01X45703Y38612D01*
G01X45642Y38674D01*
G01X45578Y38735D01*
G01X45514Y38794D01*
G01X45447Y38851D01*
G01X45380Y38907D01*
G01X45311Y38962D01*
G01X45242Y39015D01*
G01X45098Y39115D01*
G01X45025Y39163D01*
G01X44950Y39209D01*
G01X44874Y39253D01*
G01X44798Y39295D01*
G01X44720Y39336D01*
G01X44641Y39375D01*
G01X44562Y39412D01*
G01X44482Y39447D01*
G01X44400Y39480D01*
G01X44319Y39511D01*
G01X44236Y39541D01*
G01X44153Y39568D01*
G01X44149Y39569D01*
G01X44147Y39570D01*
G01X22990Y46271D01*
G01X22986Y46272D01*
G01X22984Y46273D01*
G01X22984Y46272D01*
G01X22900Y46298D01*
G01X22815Y46322D01*
G01X22730Y46343D01*
G01X22645Y46362D01*
G01X22558Y46380D01*
G01X22472Y46395D01*
G01X22385Y46409D01*
G01X22298Y46420D01*
G01X22210Y46429D01*
G01X22123Y46436D01*
G01X22035Y46442D01*
G01X21947Y46445D01*
G37*

%LPC*%
G36*
G01X43109Y7503D02*
G01X43024Y7504D01*
G01X42939Y7503D01*
G01X42855Y7500D01*
G01X42770Y7495D01*
G01X42686Y7488D01*
G01X42602Y7479D01*
G01X42518Y7468D01*
G01X42435Y7455D01*
G01X42352Y7439D01*
G01X42269Y7422D01*
G01X42187Y7403D01*
G01X42104Y7382D01*
G01X42023Y7359D01*
G01X41942Y7333D01*
G01X41862Y7306D01*
G01X41783Y7277D01*
G01X41704Y7246D01*
G01X41626Y7213D01*
G01X41549Y7179D01*
G01X41473Y7142D01*
G01X41398Y7104D01*
G01X41323Y7063D01*
G01X41250Y7022D01*
G01X41177Y6978D01*
G01X41106Y6932D01*
G01X41036Y6885D01*
G01X40967Y6836D01*
G01X40899Y6786D01*
G01X40832Y6734D01*
G01X40767Y6680D01*
G01X40703Y6624D01*
G01X40640Y6568D01*
G01X40579Y6509D01*
G01X40519Y6449D01*
G01X40461Y6388D01*
G01X40404Y6325D01*
G01X40349Y6262D01*
G01X40295Y6196D01*
G01X40243Y6130D01*
G01X40193Y6062D01*
G01X40143Y5993D01*
G01X40096Y5922D01*
G01X40051Y5851D01*
G01X40007Y5779D01*
G01X39965Y5706D01*
G01X39925Y5631D01*
G01X39886Y5556D01*
G01X39850Y5479D01*
G01X39815Y5402D01*
G01X39782Y5325D01*
G01X39751Y5246D01*
G01X39722Y5167D01*
G01X39695Y5086D01*
G01X39670Y5005D01*
G01X39647Y4924D01*
G01X39626Y4842D01*
G01X39606Y4760D01*
G01X39589Y4677D01*
G01X39574Y4594D01*
G01X39561Y4510D01*
G01X39549Y4426D01*
G01X39540Y4343D01*
G01X39533Y4258D01*
G01X39528Y4174D01*
G01X39525Y4089D01*
G01X39524Y4005D01*
G01X39525Y3920D01*
G01X39528Y3836D01*
G01X39533Y3751D01*
G01X39540Y3667D01*
G01X39549Y3583D01*
G01X39561Y3499D01*
G01X39574Y3415D01*
G01X39589Y3332D01*
G01X39606Y3249D01*
G01X39626Y3167D01*
G01X39647Y3085D01*
G01X39670Y3004D01*
G01X39695Y2923D01*
G01X39722Y2843D01*
G01X39751Y2764D01*
G01X39782Y2685D01*
G01X39815Y2607D01*
G01X39850Y2530D01*
G01X39886Y2454D01*
G01X39925Y2379D01*
G01X39965Y2304D01*
G01X40007Y2231D01*
G01X40050Y2158D01*
G01X40096Y2087D01*
G01X40143Y2017D01*
G01X40192Y1948D01*
G01X40242Y1880D01*
G01X40295Y1813D01*
G01X40349Y1748D01*
G01X40404Y1684D01*
G01X40461Y1622D01*
G01X40519Y1560D01*
G01X40579Y1500D01*
G01X40640Y1442D01*
G01X40703Y1385D01*
G01X40767Y1330D01*
G01X40832Y1276D01*
G01X40898Y1224D01*
G01X40966Y1174D01*
G01X41035Y1124D01*
G01X41105Y1078D01*
G01X41177Y1032D01*
G01X41249Y988D01*
G01X41322Y946D01*
G01X41397Y906D01*
G01X41472Y867D01*
G01X41548Y831D01*
G01X41625Y796D01*
G01X41703Y763D01*
G01X41782Y732D01*
G01X41861Y703D01*
G01X41942Y676D01*
G01X42022Y651D01*
G01X42103Y628D01*
G01X42185Y607D01*
G01X42268Y587D01*
G01X42351Y570D01*
G01X42433Y555D01*
G01X42517Y542D01*
G01X42601Y531D01*
G01X42685Y521D01*
G01X42769Y514D01*
G01X42854Y509D01*
G01X42938Y506D01*
G01X43023Y505D01*
G01X43025Y505D01*
G01X43110Y506D01*
G01X43194Y509D01*
G01X43279Y514D01*
G01X43363Y521D01*
G01X43447Y531D01*
G01X43531Y542D01*
G01X43614Y555D01*
G01X43697Y570D01*
G01X43780Y587D01*
G01X43862Y607D01*
G01X43944Y628D01*
G01X44026Y651D01*
G01X44106Y676D01*
G01X44186Y703D01*
G01X44266Y732D01*
G01X44344Y763D01*
G01X44423Y796D01*
G01X44499Y831D01*
G01X44576Y867D01*
G01X44651Y906D01*
G01X44725Y946D01*
G01X44799Y988D01*
G01X44871Y1032D01*
G01X45013Y1124D01*
G01X45082Y1174D01*
G01X45150Y1224D01*
G01X45216Y1276D01*
G01X45281Y1330D01*
G01X45345Y1385D01*
G01X45408Y1442D01*
G01X45469Y1500D01*
G01X45529Y1560D01*
G01X45587Y1622D01*
G01X45644Y1684D01*
G01X45699Y1748D01*
G01X45753Y1813D01*
G01X45805Y1880D01*
G01X45856Y1948D01*
G01X45905Y2017D01*
G01X45952Y2087D01*
G01X45998Y2158D01*
G01X46041Y2231D01*
G01X46083Y2304D01*
G01X46123Y2379D01*
G01X46162Y2454D01*
G01X46198Y2530D01*
G01X46233Y2607D01*
G01X46266Y2685D01*
G01X46297Y2764D01*
G01X46326Y2843D01*
G01X46353Y2923D01*
G01X46378Y3004D01*
G01X46401Y3085D01*
G01X46422Y3167D01*
G01X46442Y3249D01*
G01X46459Y3332D01*
G01X46474Y3415D01*
G01X46487Y3499D01*
G01X46498Y3583D01*
G01X46508Y3667D01*
G01X46515Y3751D01*
G01X46520Y3836D01*
G01X46523Y3920D01*
G01X46524Y4005D01*
G01X46523Y4089D01*
G01X46520Y4174D01*
G01X46515Y4258D01*
G01X46508Y4343D01*
G01X46498Y4426D01*
G01X46487Y4510D01*
G01X46474Y4594D01*
G01X46459Y4677D01*
G01X46442Y4760D01*
G01X46422Y4842D01*
G01X46401Y4924D01*
G01X46378Y5005D01*
G01X46353Y5086D01*
G01X46326Y5167D01*
G01X46297Y5246D01*
G01X46266Y5325D01*
G01X46233Y5402D01*
G01X46198Y5479D01*
G01X46162Y5556D01*
G01X46123Y5631D01*
G01X46083Y5706D01*
G01X46041Y5779D01*
G01X45997Y5851D01*
G01X45952Y5922D01*
G01X45905Y5993D01*
G01X45855Y6062D01*
G01X45805Y6130D01*
G01X45753Y6196D01*
G01X45699Y6262D01*
G01X45644Y6325D01*
G01X45587Y6388D01*
G01X45529Y6449D01*
G01X45469Y6509D01*
G01X45408Y6568D01*
G01X45345Y6624D01*
G01X45281Y6680D01*
G01X45216Y6734D01*
G01X45149Y6786D01*
G01X45081Y6836D01*
G01X45012Y6885D01*
G01X44942Y6932D01*
G01X44871Y6978D01*
G01X44798Y7022D01*
G01X44725Y7063D01*
G01X44650Y7104D01*
G01X44575Y7142D01*
G01X44499Y7179D01*
G01X44422Y7213D01*
G01X44344Y7246D01*
G01X44265Y7277D01*
G01X44185Y7306D01*
G01X44106Y7333D01*
G01X44025Y7359D01*
G01X43943Y7382D01*
G01X43861Y7403D01*
G01X43779Y7422D01*
G01X43696Y7439D01*
G01X43613Y7455D01*
G01X43530Y7468D01*
G01X43446Y7479D01*
G01X43362Y7488D01*
G01X43278Y7495D01*
G01X43193Y7500D01*
G01X43109Y7503D01*
G37*
G36*
G01X11109Y7513D02*
G01X11024Y7514D01*
G01X10939Y7513D01*
G01X10855Y7510D01*
G01X10770Y7505D01*
G01X10686Y7498D01*
G01X10602Y7489D01*
G01X10518Y7478D01*
G01X10435Y7465D01*
G01X10352Y7449D01*
G01X10269Y7432D01*
G01X10187Y7413D01*
G01X10104Y7392D01*
G01X10023Y7369D01*
G01X9942Y7343D01*
G01X9862Y7316D01*
G01X9783Y7287D01*
G01X9704Y7256D01*
G01X9626Y7223D01*
G01X9549Y7189D01*
G01X9473Y7152D01*
G01X9398Y7114D01*
G01X9323Y7074D01*
G01X9177Y6988D01*
G01X9106Y6942D01*
G01X9036Y6895D01*
G01X8967Y6846D01*
G01X8899Y6796D01*
G01X8832Y6743D01*
G01X8767Y6690D01*
G01X8703Y6635D01*
G01X8640Y6578D01*
G01X8579Y6519D01*
G01X8519Y6459D01*
G01X8461Y6398D01*
G01X8404Y6335D01*
G01X8349Y6271D01*
G01X8295Y6206D01*
G01X8243Y6140D01*
G01X8193Y6072D01*
G01X8143Y6003D01*
G01X8096Y5933D01*
G01X8051Y5861D01*
G01X8007Y5789D01*
G01X7965Y5716D01*
G01X7925Y5641D01*
G01X7886Y5566D01*
G01X7850Y5490D01*
G01X7815Y5412D01*
G01X7782Y5335D01*
G01X7751Y5256D01*
G01X7722Y5176D01*
G01X7695Y5096D01*
G01X7670Y5016D01*
G01X7647Y4934D01*
G01X7626Y4852D01*
G01X7606Y4770D01*
G01X7589Y4687D01*
G01X7574Y4604D01*
G01X7561Y4520D01*
G01X7550Y4437D01*
G01X7540Y4352D01*
G01X7533Y4268D01*
G01X7528Y4184D01*
G01X7525Y4099D01*
G01X7524Y4014D01*
G01X7525Y3930D01*
G01X7528Y3846D01*
G01X7533Y3761D01*
G01X7540Y3677D01*
G01X7550Y3593D01*
G01X7561Y3509D01*
G01X7574Y3426D01*
G01X7589Y3342D01*
G01X7606Y3259D01*
G01X7626Y3177D01*
G01X7647Y3095D01*
G01X7670Y3014D01*
G01X7695Y2933D01*
G01X7722Y2853D01*
G01X7751Y2774D01*
G01X7782Y2695D01*
G01X7815Y2617D01*
G01X7850Y2540D01*
G01X7886Y2464D01*
G01X7925Y2388D01*
G01X7965Y2314D01*
G01X8007Y2240D01*
G01X8050Y2168D01*
G01X8096Y2097D01*
G01X8143Y2027D01*
G01X8192Y1958D01*
G01X8242Y1890D01*
G01X8295Y1823D01*
G01X8349Y1758D01*
G01X8404Y1694D01*
G01X8460Y1631D01*
G01X8519Y1570D01*
G01X8579Y1510D01*
G01X8640Y1452D01*
G01X8703Y1395D01*
G01X8767Y1340D01*
G01X8832Y1286D01*
G01X8898Y1234D01*
G01X8966Y1183D01*
G01X9035Y1135D01*
G01X9105Y1087D01*
G01X9177Y1042D01*
G01X9249Y998D01*
G01X9322Y956D01*
G01X9397Y916D01*
G01X9472Y877D01*
G01X9548Y841D01*
G01X9625Y806D01*
G01X9703Y773D01*
G01X9782Y742D01*
G01X9861Y713D01*
G01X9941Y686D01*
G01X10022Y661D01*
G01X10103Y638D01*
G01X10186Y616D01*
G01X10268Y597D01*
G01X10351Y580D01*
G01X10433Y565D01*
G01X10517Y551D01*
G01X10601Y540D01*
G01X10685Y531D01*
G01X10769Y524D01*
G01X10854Y519D01*
G01X10938Y516D01*
G01X11023Y515D01*
G01X11025Y515D01*
G01X11110Y516D01*
G01X11194Y519D01*
G01X11279Y524D01*
G01X11363Y531D01*
G01X11447Y540D01*
G01X11531Y551D01*
G01X11615Y565D01*
G01X11697Y580D01*
G01X11780Y597D01*
G01X11862Y616D01*
G01X11944Y638D01*
G01X12026Y661D01*
G01X12106Y686D01*
G01X12187Y713D01*
G01X12266Y742D01*
G01X12345Y773D01*
G01X12423Y806D01*
G01X12499Y841D01*
G01X12576Y877D01*
G01X12651Y916D01*
G01X12726Y956D01*
G01X12799Y998D01*
G01X12871Y1042D01*
G01X12942Y1087D01*
G01X13013Y1135D01*
G01X13082Y1183D01*
G01X13150Y1234D01*
G01X13216Y1286D01*
G01X13281Y1340D01*
G01X13345Y1395D01*
G01X13408Y1452D01*
G01X13469Y1510D01*
G01X13529Y1570D01*
G01X13587Y1631D01*
G01X13644Y1694D01*
G01X13699Y1758D01*
G01X13753Y1823D01*
G01X13806Y1890D01*
G01X13856Y1958D01*
G01X13905Y2027D01*
G01X13952Y2097D01*
G01X13998Y2168D01*
G01X14041Y2240D01*
G01X14083Y2314D01*
G01X14123Y2388D01*
G01X14162Y2464D01*
G01X14198Y2540D01*
G01X14233Y2617D01*
G01X14266Y2695D01*
G01X14297Y2774D01*
G01X14326Y2853D01*
G01X14353Y2933D01*
G01X14378Y3014D01*
G01X14401Y3095D01*
G01X14422Y3177D01*
G01X14442Y3259D01*
G01X14459Y3342D01*
G01X14474Y3426D01*
G01X14487Y3509D01*
G01X14498Y3593D01*
G01X14508Y3677D01*
G01X14515Y3761D01*
G01X14520Y3846D01*
G01X14523Y3930D01*
G01X14524Y4014D01*
G01X14523Y4099D01*
G01X14520Y4184D01*
G01X14515Y4268D01*
G01X14508Y4352D01*
G01X14498Y4437D01*
G01X14487Y4520D01*
G01X14474Y4604D01*
G01X14459Y4687D01*
G01X14442Y4770D01*
G01X14422Y4852D01*
G01X14401Y4934D01*
G01X14378Y5016D01*
G01X14353Y5096D01*
G01X14326Y5176D01*
G01X14296Y5256D01*
G01X14266Y5335D01*
G01X14233Y5412D01*
G01X14198Y5490D01*
G01X14162Y5566D01*
G01X14123Y5641D01*
G01X14083Y5716D01*
G01X14041Y5789D01*
G01X13997Y5861D01*
G01X13952Y5933D01*
G01X13905Y6003D01*
G01X13855Y6072D01*
G01X13805Y6140D01*
G01X13753Y6206D01*
G01X13699Y6271D01*
G01X13644Y6335D01*
G01X13587Y6398D01*
G01X13529Y6459D01*
G01X13469Y6519D01*
G01X13407Y6578D01*
G01X13345Y6635D01*
G01X13281Y6690D01*
G01X13216Y6743D01*
G01X13149Y6796D01*
G01X13081Y6846D01*
G01X13012Y6895D01*
G01X12942Y6942D01*
G01X12871Y6988D01*
G01X12725Y7074D01*
G01X12650Y7114D01*
G01X12575Y7152D01*
G01X12499Y7189D01*
G01X12422Y7223D01*
G01X12344Y7256D01*
G01X12265Y7287D01*
G01X12186Y7316D01*
G01X12105Y7343D01*
G01X12025Y7369D01*
G01X11943Y7392D01*
G01X11861Y7413D01*
G01X11779Y7432D01*
G01X11696Y7449D01*
G01X11613Y7465D01*
G01X11530Y7478D01*
G01X11446Y7489D01*
G01X11362Y7498D01*
G01X11278Y7505D01*
G01X11193Y7510D01*
G01X11109Y7513D01*
G37*
G36*
G01X39023Y36256D02*
G01X15023Y36256D01*
G01X14999Y36255D01*
G01X14975Y36252D01*
G01X14953Y36246D01*
G01X14930Y36239D01*
G01X14908Y36229D01*
G01X14888Y36218D01*
G01X14868Y36204D01*
G01X14850Y36189D01*
G01X14833Y36172D01*
G01X14818Y36154D01*
G01X14804Y36135D01*
G01X14793Y36114D01*
G01X14783Y36092D01*
G01X14776Y36070D01*
G01X14770Y36047D01*
G01X14767Y36023D01*
G01X14766Y36000D01*
G01X14765Y35912D01*
G01X14762Y35824D01*
G01X14757Y35736D01*
G01X14749Y35649D01*
G01X14740Y35562D01*
G01X14729Y35475D01*
G01X14716Y35388D01*
G01X14701Y35302D01*
G01X14683Y35215D01*
G01X14664Y35130D01*
G01X14642Y35045D01*
G01X14619Y34960D01*
G01X14593Y34876D01*
G01X14566Y34793D01*
G01X14537Y34710D01*
G01X14506Y34628D01*
G01X14473Y34547D01*
G01X14438Y34466D01*
G01X14401Y34387D01*
G01X14362Y34308D01*
G01X14322Y34230D01*
G01X14279Y34153D01*
G01X14235Y34077D01*
G01X14189Y34003D01*
G01X14141Y33929D01*
G01X14092Y33856D01*
G01X14041Y33785D01*
G01X13988Y33715D01*
G01X13934Y33646D01*
G01X13878Y33578D01*
G01X13820Y33512D01*
G01X13761Y33447D01*
G01X13700Y33384D01*
G01X13638Y33321D01*
G01X13575Y33261D01*
G01X13510Y33202D01*
G01X13444Y33145D01*
G01X13376Y33088D01*
G01X13307Y33034D01*
G01X13237Y32982D01*
G01X13166Y32930D01*
G01X13093Y32881D01*
G01X13020Y32833D01*
G01X12945Y32787D01*
G01X12869Y32743D01*
G01X12792Y32701D01*
G01X12714Y32660D01*
G01X12636Y32621D01*
G01X12556Y32584D01*
G01X12476Y32549D01*
G01X12394Y32516D01*
G01X12312Y32485D01*
G01X12229Y32456D01*
G01X12146Y32428D01*
G01X12062Y32403D01*
G01X11977Y32380D01*
G01X11892Y32358D01*
G01X11807Y32339D01*
G01X11721Y32322D01*
G01X11634Y32306D01*
G01X11547Y32293D01*
G01X11461Y32282D01*
G01X11373Y32272D01*
G01X11286Y32265D01*
G01X11198Y32260D01*
G01X11111Y32257D01*
G01X11023Y32256D01*
G01X10999Y32255D01*
G01X10975Y32252D01*
G01X10953Y32246D01*
G01X10930Y32239D01*
G01X10908Y32229D01*
G01X10888Y32218D01*
G01X10868Y32204D01*
G01X10850Y32189D01*
G01X10833Y32172D01*
G01X10818Y32154D01*
G01X10804Y32135D01*
G01X10793Y32114D01*
G01X10783Y32092D01*
G01X10776Y32070D01*
G01X10770Y32047D01*
G01X10767Y32023D01*
G01X10766Y32000D01*
G01X10766Y8000D01*
G01X10767Y7976D01*
G01X10770Y7952D01*
G01X10776Y7930D01*
G01X10783Y7907D01*
G01X10793Y7885D01*
G01X10804Y7865D01*
G01X10818Y7845D01*
G01X10833Y7826D01*
G01X10850Y7810D01*
G01X10868Y7795D01*
G01X10888Y7781D01*
G01X10908Y7770D01*
G01X10930Y7760D01*
G01X10953Y7753D01*
G01X10975Y7747D01*
G01X10999Y7744D01*
G01X11023Y7743D01*
G01X11111Y7742D01*
G01X11198Y7739D01*
G01X11286Y7733D01*
G01X11373Y7726D01*
G01X11461Y7717D01*
G01X11547Y7706D01*
G01X11634Y7693D01*
G01X11721Y7677D01*
G01X11807Y7660D01*
G01X11892Y7640D01*
G01X11977Y7619D01*
G01X12062Y7596D01*
G01X12146Y7570D01*
G01X12229Y7543D01*
G01X12312Y7514D01*
G01X12394Y7482D01*
G01X12476Y7449D01*
G01X12556Y7414D01*
G01X12636Y7378D01*
G01X12714Y7339D01*
G01X12792Y7298D01*
G01X12869Y7256D01*
G01X12945Y7212D01*
G01X13020Y7166D01*
G01X13093Y7118D01*
G01X13166Y7068D01*
G01X13237Y7018D01*
G01X13307Y6965D01*
G01X13376Y6910D01*
G01X13444Y6855D01*
G01X13510Y6797D01*
G01X13575Y6738D01*
G01X13638Y6677D01*
G01X13700Y6615D01*
G01X13761Y6552D01*
G01X13820Y6487D01*
G01X13878Y6421D01*
G01X13934Y6353D01*
G01X13988Y6284D01*
G01X14041Y6214D01*
G01X14092Y6142D01*
G01X14141Y6070D01*
G01X14189Y5997D01*
G01X14235Y5921D01*
G01X14279Y5846D01*
G01X14322Y5769D01*
G01X14362Y5691D01*
G01X14401Y5613D01*
G01X14438Y5533D01*
G01X14473Y5453D01*
G01X14506Y5371D01*
G01X14537Y5289D01*
G01X14566Y5206D01*
G01X14593Y5123D01*
G01X14619Y5039D01*
G01X14642Y4954D01*
G01X14664Y4869D01*
G01X14683Y4783D01*
G01X14701Y4698D01*
G01X14716Y4611D01*
G01X14729Y4524D01*
G01X14740Y4438D01*
G01X14749Y4350D01*
G01X14757Y4263D01*
G01X14762Y4175D01*
G01X14765Y4087D01*
G01X14766Y4000D01*
G01X14767Y3975D01*
G01X14771Y3951D01*
G01X14776Y3928D01*
G01X14784Y3905D01*
G01X14794Y3882D01*
G01X14806Y3861D01*
G01X14836Y3823D01*
G01X14854Y3806D01*
G01X14873Y3791D01*
G01X14893Y3778D01*
G01X14915Y3767D01*
G01X14937Y3757D01*
G01X14960Y3751D01*
G01X14991Y3745D01*
G01X15023Y3743D01*
G01X39023Y3743D01*
G01X39047Y3744D01*
G01X39070Y3747D01*
G01X39093Y3753D01*
G01X39116Y3760D01*
G01X39137Y3770D01*
G01X39158Y3781D01*
G01X39177Y3795D01*
G01X39195Y3810D01*
G01X39212Y3826D01*
G01X39227Y3845D01*
G01X39241Y3865D01*
G01X39252Y3885D01*
G01X39262Y3907D01*
G01X39270Y3929D01*
G01X39275Y3952D01*
G01X39278Y3976D01*
G01X39279Y4000D01*
G01X39279Y4008D01*
G01X39280Y4096D01*
G01X39284Y4183D01*
G01X39289Y4270D01*
G01X39296Y4358D01*
G01X39306Y4445D01*
G01X39317Y4532D01*
G01X39331Y4618D01*
G01X39346Y4705D01*
G01X39364Y4791D01*
G01X39383Y4876D01*
G01X39405Y4961D01*
G01X39428Y5046D01*
G01X39453Y5129D01*
G01X39481Y5212D01*
G01X39510Y5295D01*
G01X39542Y5377D01*
G01X39575Y5458D01*
G01X39610Y5538D01*
G01X39647Y5618D01*
G01X39686Y5696D01*
G01X39726Y5774D01*
G01X39769Y5851D01*
G01X39813Y5926D01*
G01X39859Y6001D01*
G01X39907Y6074D01*
G01X39956Y6147D01*
G01X40007Y6218D01*
G01X40060Y6288D01*
G01X40114Y6357D01*
G01X40171Y6424D01*
G01X40228Y6490D01*
G01X40287Y6555D01*
G01X40348Y6618D01*
G01X40410Y6680D01*
G01X40473Y6741D01*
G01X40538Y6800D01*
G01X40604Y6857D01*
G01X40672Y6913D01*
G01X40741Y6967D01*
G01X40811Y7020D01*
G01X40882Y7071D01*
G01X40955Y7120D01*
G01X41028Y7168D01*
G01X41103Y7213D01*
G01X41179Y7257D01*
G01X41255Y7300D01*
G01X41333Y7340D01*
G01X41412Y7379D01*
G01X41492Y7415D01*
G01X41572Y7450D01*
G01X41653Y7484D01*
G01X41735Y7514D01*
G01X41818Y7543D01*
G01X41901Y7571D01*
G01X41985Y7596D01*
G01X42069Y7620D01*
G01X42154Y7641D01*
G01X42240Y7660D01*
G01X42326Y7678D01*
G01X42412Y7693D01*
G01X42498Y7706D01*
G01X42585Y7717D01*
G01X42673Y7726D01*
G01X42760Y7734D01*
G01X42847Y7739D01*
G01X42935Y7742D01*
G01X43023Y7743D01*
G01X43047Y7744D01*
G01X43070Y7747D01*
G01X43093Y7753D01*
G01X43115Y7760D01*
G01X43137Y7770D01*
G01X43158Y7781D01*
G01X43177Y7795D01*
G01X43195Y7810D01*
G01X43212Y7826D01*
G01X43227Y7845D01*
G01X43241Y7865D01*
G01X43252Y7885D01*
G01X43262Y7907D01*
G01X43270Y7930D01*
G01X43275Y7952D01*
G01X43278Y7976D01*
G01X43279Y8000D01*
G01X43279Y32000D01*
G01X43278Y32023D01*
G01X43275Y32047D01*
G01X43270Y32070D01*
G01X43262Y32092D01*
G01X43252Y32114D01*
G01X43241Y32135D01*
G01X43227Y32154D01*
G01X43212Y32172D01*
G01X43195Y32189D01*
G01X43177Y32204D01*
G01X43158Y32218D01*
G01X43137Y32229D01*
G01X43115Y32239D01*
G01X43093Y32246D01*
G01X43070Y32252D01*
G01X43047Y32255D01*
G01X43023Y32256D01*
G01X42935Y32257D01*
G01X42847Y32260D01*
G01X42760Y32265D01*
G01X42673Y32272D01*
G01X42585Y32282D01*
G01X42498Y32293D01*
G01X42412Y32306D01*
G01X42326Y32322D01*
G01X42240Y32339D01*
G01X42154Y32358D01*
G01X42069Y32380D01*
G01X41985Y32403D01*
G01X41901Y32428D01*
G01X41818Y32455D01*
G01X41735Y32485D01*
G01X41653Y32516D01*
G01X41572Y32549D01*
G01X41492Y32583D01*
G01X41412Y32620D01*
G01X41333Y32659D01*
G01X41255Y32700D01*
G01X41179Y32742D01*
G01X41103Y32786D01*
G01X41028Y32832D01*
G01X40955Y32879D01*
G01X40882Y32928D01*
G01X40811Y32980D01*
G01X40741Y33032D01*
G01X40672Y33086D01*
G01X40604Y33142D01*
G01X40538Y33199D01*
G01X40473Y33258D01*
G01X40410Y33319D01*
G01X40348Y33381D01*
G01X40287Y33444D01*
G01X40228Y33509D01*
G01X40171Y33575D01*
G01X40114Y33642D01*
G01X40060Y33711D01*
G01X40007Y33781D01*
G01X39956Y33852D01*
G01X39907Y33924D01*
G01X39859Y33998D01*
G01X39813Y34073D01*
G01X39769Y34148D01*
G01X39726Y34225D01*
G01X39686Y34302D01*
G01X39647Y34381D01*
G01X39610Y34461D01*
G01X39575Y34541D01*
G01X39542Y34622D01*
G01X39510Y34704D01*
G01X39481Y34786D01*
G01X39454Y34870D01*
G01X39428Y34954D01*
G01X39405Y35038D01*
G01X39383Y35123D01*
G01X39364Y35208D01*
G01X39346Y35294D01*
G01X39331Y35380D01*
G01X39317Y35467D01*
G01X39306Y35554D01*
G01X39296Y35641D01*
G01X39289Y35728D01*
G01X39284Y35816D01*
G01X39280Y35904D01*
G01X39279Y35991D01*
G01X39279Y36000D01*
G01X39278Y36023D01*
G01X39275Y36047D01*
G01X39270Y36070D01*
G01X39262Y36092D01*
G01X39252Y36114D01*
G01X39241Y36135D01*
G01X39227Y36154D01*
G01X39212Y36172D01*
G01X39195Y36189D01*
G01X39177Y36204D01*
G01X39158Y36218D01*
G01X39137Y36229D01*
G01X39116Y36239D01*
G01X39093Y36246D01*
G01X39070Y36252D01*
G01X39047Y36255D01*
G01X39023Y36256D01*
G37*
G36*
G01X4089Y11264D02*
G01X4004Y11265D01*
G01X3919Y11264D01*
G01X3835Y11260D01*
G01X3750Y11255D01*
G01X3666Y11248D01*
G01X3582Y11239D01*
G01X3498Y11228D01*
G01X3415Y11215D01*
G01X3332Y11200D01*
G01X3249Y11182D01*
G01X3167Y11163D01*
G01X3085Y11142D01*
G01X3003Y11118D01*
G01X2923Y11093D01*
G01X2842Y11066D01*
G01X2763Y11037D01*
G01X2684Y11006D01*
G01X2606Y10973D01*
G01X2529Y10938D01*
G01X2453Y10902D01*
G01X2378Y10864D01*
G01X2303Y10824D01*
G01X2157Y10738D01*
G01X2086Y10692D01*
G01X2016Y10645D01*
G01X1947Y10596D01*
G01X1879Y10546D01*
G01X1812Y10493D01*
G01X1747Y10440D01*
G01X1683Y10384D01*
G01X1621Y10327D01*
G01X1559Y10269D01*
G01X1499Y10209D01*
G01X1441Y10148D01*
G01X1384Y10085D01*
G01X1329Y10021D01*
G01X1275Y9956D01*
G01X1223Y9889D01*
G01X1173Y9822D01*
G01X1123Y9753D01*
G01X1076Y9683D01*
G01X1031Y9612D01*
G01X987Y9539D01*
G01X945Y9466D01*
G01X905Y9391D01*
G01X866Y9316D01*
G01X830Y9240D01*
G01X795Y9162D01*
G01X762Y9084D01*
G01X702Y8926D01*
G01X675Y8846D01*
G01X650Y8765D01*
G01X627Y8684D01*
G01X606Y8602D01*
G01X586Y8520D01*
G01X569Y8437D01*
G01X554Y8354D01*
G01X541Y8270D01*
G01X529Y8187D01*
G01X520Y8102D01*
G01X513Y8018D01*
G01X508Y7934D01*
G01X505Y7849D01*
G01X504Y7764D01*
G01X505Y7680D01*
G01X508Y7596D01*
G01X513Y7511D01*
G01X520Y7427D01*
G01X529Y7343D01*
G01X541Y7259D01*
G01X554Y7176D01*
G01X569Y7092D01*
G01X586Y7010D01*
G01X606Y6927D01*
G01X627Y6845D01*
G01X650Y6764D01*
G01X675Y6683D01*
G01X702Y6603D01*
G01X731Y6524D01*
G01X762Y6445D01*
G01X795Y6367D01*
G01X830Y6290D01*
G01X866Y6214D01*
G01X905Y6138D01*
G01X945Y6064D01*
G01X987Y5990D01*
G01X1030Y5918D01*
G01X1076Y5847D01*
G01X1123Y5777D01*
G01X1172Y5708D01*
G01X1222Y5640D01*
G01X1275Y5573D01*
G01X1329Y5508D01*
G01X1384Y5444D01*
G01X1441Y5381D01*
G01X1499Y5320D01*
G01X1559Y5261D01*
G01X1620Y5202D01*
G01X1683Y5145D01*
G01X1747Y5090D01*
G01X1812Y5036D01*
G01X1878Y4984D01*
G01X1946Y4933D01*
G01X2015Y4885D01*
G01X2085Y4837D01*
G01X2157Y4792D01*
G01X2229Y4748D01*
G01X2302Y4706D01*
G01X2377Y4666D01*
G01X2452Y4628D01*
G01X2528Y4591D01*
G01X2605Y4556D01*
G01X2683Y4523D01*
G01X2762Y4492D01*
G01X2841Y4463D01*
G01X2922Y4436D01*
G01X3002Y4411D01*
G01X3084Y4388D01*
G01X3165Y4366D01*
G01X3248Y4347D01*
G01X3331Y4330D01*
G01X3413Y4315D01*
G01X3497Y4301D01*
G01X3581Y4290D01*
G01X3665Y4281D01*
G01X3749Y4274D01*
G01X3834Y4269D01*
G01X3918Y4266D01*
G01X4003Y4265D01*
G01X4005Y4265D01*
G01X4090Y4266D01*
G01X4174Y4269D01*
G01X4259Y4274D01*
G01X4343Y4281D01*
G01X4427Y4290D01*
G01X4511Y4301D01*
G01X4595Y4315D01*
G01X4677Y4330D01*
G01X4760Y4347D01*
G01X4842Y4366D01*
G01X4925Y4388D01*
G01X5006Y4411D01*
G01X5087Y4436D01*
G01X5167Y4463D01*
G01X5246Y4492D01*
G01X5324Y4523D01*
G01X5403Y4556D01*
G01X5480Y4591D01*
G01X5556Y4628D01*
G01X5631Y4666D01*
G01X5705Y4706D01*
G01X5779Y4748D01*
G01X5851Y4792D01*
G01X5923Y4837D01*
G01X5993Y4885D01*
G01X6062Y4933D01*
G01X6130Y4984D01*
G01X6196Y5036D01*
G01X6261Y5090D01*
G01X6325Y5145D01*
G01X6388Y5202D01*
G01X6449Y5261D01*
G01X6509Y5320D01*
G01X6568Y5381D01*
G01X6624Y5444D01*
G01X6679Y5508D01*
G01X6733Y5573D01*
G01X6786Y5640D01*
G01X6836Y5708D01*
G01X6885Y5777D01*
G01X6932Y5847D01*
G01X6978Y5918D01*
G01X7021Y5990D01*
G01X7063Y6064D01*
G01X7103Y6138D01*
G01X7142Y6214D01*
G01X7178Y6290D01*
G01X7213Y6367D01*
G01X7246Y6445D01*
G01X7277Y6524D01*
G01X7306Y6603D01*
G01X7333Y6683D01*
G01X7358Y6764D01*
G01X7381Y6845D01*
G01X7402Y6927D01*
G01X7422Y7010D01*
G01X7439Y7092D01*
G01X7454Y7176D01*
G01X7467Y7259D01*
G01X7478Y7343D01*
G01X7488Y7427D01*
G01X7495Y7511D01*
G01X7500Y7596D01*
G01X7503Y7680D01*
G01X7504Y7764D01*
G01X7503Y7849D01*
G01X7500Y7934D01*
G01X7495Y8018D01*
G01X7488Y8102D01*
G01X7478Y8187D01*
G01X7467Y8270D01*
G01X7454Y8354D01*
G01X7439Y8437D01*
G01X7422Y8520D01*
G01X7402Y8602D01*
G01X7381Y8684D01*
G01X7358Y8765D01*
G01X7333Y8846D01*
G01X7306Y8926D01*
G01X7277Y9005D01*
G01X7246Y9084D01*
G01X7213Y9162D01*
G01X7178Y9240D01*
G01X7142Y9316D01*
G01X7103Y9391D01*
G01X7063Y9466D01*
G01X7021Y9539D01*
G01X6977Y9612D01*
G01X6932Y9683D01*
G01X6885Y9753D01*
G01X6835Y9822D01*
G01X6785Y9889D01*
G01X6733Y9956D01*
G01X6679Y10021D01*
G01X6624Y10085D01*
G01X6567Y10148D01*
G01X6509Y10209D01*
G01X6449Y10269D01*
G01X6388Y10327D01*
G01X6325Y10384D01*
G01X6261Y10440D01*
G01X6196Y10493D01*
G01X6129Y10546D01*
G01X6061Y10596D01*
G01X5992Y10645D01*
G01X5922Y10692D01*
G01X5851Y10738D01*
G01X5705Y10824D01*
G01X5630Y10864D01*
G01X5555Y10902D01*
G01X5479Y10938D01*
G01X5402Y10973D01*
G01X5324Y11006D01*
G01X5245Y11037D01*
G01X5165Y11066D01*
G01X5086Y11093D01*
G01X5005Y11118D01*
G01X4924Y11142D01*
G01X4841Y11163D01*
G01X4759Y11182D01*
G01X4676Y11200D01*
G01X4593Y11215D01*
G01X4510Y11228D01*
G01X4426Y11239D01*
G01X4342Y11248D01*
G01X4258Y11255D01*
G01X4173Y11260D01*
G01X4089Y11264D01*
G37*
G36*
G01X49961Y32751D02*
G01X49915Y32752D01*
G01X49869Y32751D01*
G01X49823Y32748D01*
G01X49777Y32743D01*
G01X49732Y32736D01*
G01X49687Y32726D01*
G01X49642Y32714D01*
G01X49598Y32701D01*
G01X49554Y32685D01*
G01X49511Y32668D01*
G01X49470Y32648D01*
G01X49429Y32627D01*
G01X49389Y32604D01*
G01X49350Y32579D01*
G01X49313Y32552D01*
G01X49276Y32523D01*
G01X49241Y32493D01*
G01X49208Y32462D01*
G01X49176Y32428D01*
G01X49145Y32394D01*
G01X49116Y32358D01*
G01X49089Y32321D01*
G01X49063Y32282D01*
G01X49040Y32242D01*
G01X49018Y32202D01*
G01X48998Y32160D01*
G01X48980Y32118D01*
G01X48964Y32074D01*
G01X48950Y32031D01*
G01X48938Y31986D01*
G01X48928Y31941D01*
G01X48920Y31895D01*
G01X48914Y31850D01*
G01X48910Y31804D01*
G01X48909Y31758D01*
G01X48909Y7752D01*
G01X48910Y7706D01*
G01X48914Y7659D01*
G01X48920Y7614D01*
G01X48928Y7568D01*
G01X48938Y7523D01*
G01X48950Y7478D01*
G01X48964Y7435D01*
G01X48980Y7392D01*
G01X48998Y7349D01*
G01X49018Y7307D01*
G01X49040Y7267D01*
G01X49063Y7227D01*
G01X49089Y7188D01*
G01X49116Y7151D01*
G01X49145Y7115D01*
G01X49176Y7081D01*
G01X49208Y7048D01*
G01X49241Y7016D01*
G01X49276Y6986D01*
G01X49313Y6957D01*
G01X49350Y6930D01*
G01X49389Y6905D01*
G01X49429Y6882D01*
G01X49470Y6861D01*
G01X49511Y6841D01*
G01X49554Y6824D01*
G01X49598Y6808D01*
G01X49642Y6795D01*
G01X49687Y6783D01*
G01X49732Y6774D01*
G01X49777Y6766D01*
G01X49823Y6761D01*
G01X49869Y6758D01*
G01X49915Y6757D01*
G01X49961Y6758D01*
G01X50007Y6761D01*
G01X50053Y6766D01*
G01X50099Y6774D01*
G01X50144Y6783D01*
G01X50189Y6795D01*
G01X50233Y6808D01*
G01X50276Y6824D01*
G01X50319Y6841D01*
G01X50361Y6861D01*
G01X50402Y6882D01*
G01X50442Y6905D01*
G01X50480Y6930D01*
G01X50518Y6957D01*
G01X50554Y6986D01*
G01X50589Y7016D01*
G01X50623Y7048D01*
G01X50655Y7081D01*
G01X50685Y7115D01*
G01X50714Y7151D01*
G01X50742Y7188D01*
G01X50767Y7227D01*
G01X50790Y7267D01*
G01X50812Y7307D01*
G01X50833Y7349D01*
G01X50867Y7435D01*
G01X50880Y7478D01*
G01X50893Y7523D01*
G01X50903Y7568D01*
G01X50910Y7614D01*
G01X50916Y7659D01*
G01X50920Y7706D01*
G01X50922Y7752D01*
G01X50922Y31758D01*
G01X50920Y31804D01*
G01X50916Y31850D01*
G01X50910Y31895D01*
G01X50903Y31941D01*
G01X50893Y31986D01*
G01X50880Y32031D01*
G01X50867Y32074D01*
G01X50850Y32118D01*
G01X50833Y32160D01*
G01X50812Y32202D01*
G01X50790Y32242D01*
G01X50767Y32282D01*
G01X50742Y32321D01*
G01X50714Y32358D01*
G01X50685Y32394D01*
G01X50655Y32428D01*
G01X50623Y32462D01*
G01X50589Y32493D01*
G01X50554Y32523D01*
G01X50518Y32552D01*
G01X50480Y32579D01*
G01X50442Y32604D01*
G01X50402Y32627D01*
G01X50361Y32648D01*
G01X50319Y32668D01*
G01X50276Y32685D01*
G01X50233Y32701D01*
G01X50189Y32714D01*
G01X50144Y32726D01*
G01X50099Y32736D01*
G01X50053Y32743D01*
G01X50007Y32748D01*
G01X49961Y32751D01*
G37*
G36*
G01X6051Y22798D02*
G01X6005Y22799D01*
G01X5959Y22798D01*
G01X5913Y22795D01*
G01X5868Y22790D01*
G01X5822Y22782D01*
G01X5777Y22773D01*
G01X5732Y22762D01*
G01X5689Y22748D01*
G01X5646Y22733D01*
G01X5603Y22715D01*
G01X5561Y22696D01*
G01X5521Y22675D01*
G01X5480Y22652D01*
G01X5442Y22627D01*
G01X5404Y22601D01*
G01X5368Y22573D01*
G01X5333Y22543D01*
G01X5300Y22511D01*
G01X5268Y22478D01*
G01X5237Y22444D01*
G01X5208Y22408D01*
G01X5181Y22371D01*
G01X5155Y22333D01*
G01X5132Y22294D01*
G01X5110Y22254D01*
G01X5090Y22212D01*
G01X5072Y22170D01*
G01X5055Y22127D01*
G01X5041Y22083D01*
G01X5029Y22039D01*
G01X5028Y22038D01*
G01X2869Y13301D01*
G01X2869Y13300D01*
G01X2859Y13253D01*
G01X2851Y13206D01*
G01X2845Y13158D01*
G01X2842Y13111D01*
G01X2841Y13063D01*
G01X2842Y13016D01*
G01X2845Y12970D01*
G01X2851Y12924D01*
G01X2858Y12878D01*
G01X2868Y12832D01*
G01X2879Y12788D01*
G01X2893Y12743D01*
G01X2909Y12699D01*
G01X2927Y12656D01*
G01X2947Y12614D01*
G01X2968Y12573D01*
G01X2992Y12533D01*
G01X3017Y12494D01*
G01X3044Y12456D01*
G01X3073Y12420D01*
G01X3104Y12385D01*
G01X3136Y12351D01*
G01X3170Y12319D01*
G01X3205Y12289D01*
G01X3241Y12260D01*
G01X3279Y12232D01*
G01X3318Y12207D01*
G01X3358Y12184D01*
G01X3399Y12162D01*
G01X3441Y12142D01*
G01X3484Y12124D01*
G01X3528Y12108D01*
G01X3572Y12095D01*
G01X3617Y12083D01*
G01X3663Y12073D01*
G01X3709Y12066D01*
G01X3755Y12061D01*
G01X3801Y12058D01*
G01X3848Y12057D01*
G01X3893Y12058D01*
G01X3939Y12061D01*
G01X3985Y12066D01*
G01X4030Y12073D01*
G01X4075Y12082D01*
G01X4120Y12094D01*
G01X4164Y12107D01*
G01X4207Y12123D01*
G01X4250Y12140D01*
G01X4291Y12159D01*
G01X4332Y12180D01*
G01X4371Y12203D01*
G01X4410Y12228D01*
G01X4448Y12255D01*
G01X4484Y12283D01*
G01X4519Y12313D01*
G01X4552Y12344D01*
G01X4584Y12377D01*
G01X4615Y12412D01*
G01X4644Y12447D01*
G01X4671Y12484D01*
G01X4697Y12522D01*
G01X4720Y12561D01*
G01X4742Y12602D01*
G01X4763Y12643D01*
G01X4780Y12685D01*
G01X4797Y12729D01*
G01X4811Y12772D01*
G01X4824Y12816D01*
G01X4824Y12818D01*
G01X6983Y21555D01*
G01X6983Y21556D01*
G01X6993Y21603D01*
G01X7001Y21650D01*
G01X7006Y21697D01*
G01X7010Y21745D01*
G01X7011Y21793D01*
G01X7010Y21839D01*
G01X7007Y21886D01*
G01X7001Y21932D01*
G01X6994Y21978D01*
G01X6985Y22023D01*
G01X6973Y22068D01*
G01X6959Y22112D01*
G01X6943Y22156D01*
G01X6926Y22199D01*
G01X6906Y22241D01*
G01X6884Y22283D01*
G01X6861Y22323D01*
G01X6835Y22361D01*
G01X6808Y22399D01*
G01X6779Y22436D01*
G01X6748Y22471D01*
G01X6716Y22505D01*
G01X6683Y22537D01*
G01X6648Y22567D01*
G01X6611Y22596D01*
G01X6574Y22623D01*
G01X6535Y22648D01*
G01X6494Y22672D01*
G01X6453Y22694D01*
G01X6411Y22713D01*
G01X6368Y22731D01*
G01X6325Y22747D01*
G01X6280Y22761D01*
G01X6235Y22772D01*
G01X6190Y22782D01*
G01X6144Y22790D01*
G01X6098Y22795D01*
G01X6051Y22798D01*
G37*
G36*
G01X11120Y39509D02*
G01X11035Y39510D01*
G01X10951Y39509D01*
G01X10867Y39506D01*
G01X10782Y39501D01*
G01X10698Y39494D01*
G01X10614Y39485D01*
G01X10530Y39474D01*
G01X10446Y39461D01*
G01X10363Y39445D01*
G01X10281Y39428D01*
G01X10198Y39409D01*
G01X10116Y39387D01*
G01X10035Y39365D01*
G01X9954Y39339D01*
G01X9874Y39312D01*
G01X9794Y39283D01*
G01X9716Y39252D01*
G01X9638Y39219D01*
G01X9561Y39185D01*
G01X9485Y39148D01*
G01X9409Y39110D01*
G01X9335Y39069D01*
G01X9261Y39027D01*
G01X9189Y38984D01*
G01X9118Y38938D01*
G01X9048Y38891D01*
G01X8979Y38842D01*
G01X8910Y38792D01*
G01X8844Y38739D01*
G01X8779Y38686D01*
G01X8715Y38631D01*
G01X8652Y38574D01*
G01X8591Y38515D01*
G01X8531Y38455D01*
G01X8473Y38394D01*
G01X8416Y38331D01*
G01X8360Y38267D01*
G01X8307Y38202D01*
G01X8255Y38136D01*
G01X8204Y38068D01*
G01X8155Y37999D01*
G01X8108Y37928D01*
G01X8063Y37857D01*
G01X8019Y37785D01*
G01X7977Y37712D01*
G01X7937Y37637D01*
G01X7898Y37562D01*
G01X7861Y37485D01*
G01X7827Y37408D01*
G01X7794Y37331D01*
G01X7763Y37252D01*
G01X7734Y37172D01*
G01X7707Y37092D01*
G01X7682Y37012D01*
G01X7659Y36930D01*
G01X7637Y36848D01*
G01X7618Y36766D01*
G01X7601Y36683D01*
G01X7586Y36600D01*
G01X7572Y36516D01*
G01X7561Y36432D01*
G01X7552Y36349D01*
G01X7545Y36264D01*
G01X7540Y36179D01*
G01X7537Y36095D01*
G01X7536Y36011D01*
G01X7537Y35926D01*
G01X7540Y35842D01*
G01X7545Y35757D01*
G01X7552Y35673D01*
G01X7561Y35589D01*
G01X7572Y35505D01*
G01X7586Y35421D01*
G01X7601Y35338D01*
G01X7618Y35255D01*
G01X7637Y35173D01*
G01X7659Y35091D01*
G01X7682Y35010D01*
G01X7707Y34929D01*
G01X7734Y34849D01*
G01X7763Y34770D01*
G01X7794Y34691D01*
G01X7827Y34613D01*
G01X7861Y34536D01*
G01X7898Y34460D01*
G01X7936Y34384D01*
G01X7977Y34310D01*
G01X8018Y34237D01*
G01X8062Y34164D01*
G01X8108Y34093D01*
G01X8155Y34023D01*
G01X8204Y33954D01*
G01X8254Y33886D01*
G01X8306Y33819D01*
G01X8360Y33754D01*
G01X8416Y33690D01*
G01X8472Y33627D01*
G01X8530Y33566D01*
G01X8590Y33506D01*
G01X8651Y33448D01*
G01X8714Y33391D01*
G01X8778Y33336D01*
G01X8843Y33282D01*
G01X8910Y33230D01*
G01X8978Y33180D01*
G01X9047Y33130D01*
G01X9117Y33083D01*
G01X9188Y33038D01*
G01X9260Y32994D01*
G01X9334Y32952D01*
G01X9408Y32912D01*
G01X9483Y32873D01*
G01X9560Y32837D01*
G01X9637Y32802D01*
G01X9715Y32769D01*
G01X9793Y32738D01*
G01X9873Y32709D01*
G01X9953Y32682D01*
G01X10034Y32657D01*
G01X10115Y32634D01*
G01X10197Y32613D01*
G01X10280Y32593D01*
G01X10362Y32576D01*
G01X10445Y32561D01*
G01X10529Y32547D01*
G01X10613Y32536D01*
G01X10697Y32527D01*
G01X10781Y32520D01*
G01X10865Y32515D01*
G01X10950Y32512D01*
G01X11034Y32511D01*
G01X11037Y32511D01*
G01X11121Y32512D01*
G01X11206Y32515D01*
G01X11290Y32520D01*
G01X11375Y32527D01*
G01X11459Y32536D01*
G01X11542Y32547D01*
G01X11626Y32561D01*
G01X11709Y32576D01*
G01X11792Y32593D01*
G01X11874Y32613D01*
G01X11956Y32634D01*
G01X12037Y32657D01*
G01X12118Y32682D01*
G01X12198Y32709D01*
G01X12277Y32738D01*
G01X12356Y32769D01*
G01X12434Y32802D01*
G01X12511Y32837D01*
G01X12587Y32873D01*
G01X12663Y32912D01*
G01X12737Y32952D01*
G01X12811Y32994D01*
G01X12883Y33038D01*
G01X12954Y33083D01*
G01X13024Y33130D01*
G01X13093Y33180D01*
G01X13161Y33230D01*
G01X13228Y33282D01*
G01X13293Y33336D01*
G01X13357Y33391D01*
G01X13419Y33448D01*
G01X13481Y33506D01*
G01X13541Y33566D01*
G01X13599Y33627D01*
G01X13656Y33690D01*
G01X13711Y33754D01*
G01X13765Y33819D01*
G01X13817Y33886D01*
G01X13868Y33954D01*
G01X13916Y34023D01*
G01X13964Y34093D01*
G01X14009Y34164D01*
G01X14053Y34237D01*
G01X14095Y34310D01*
G01X14135Y34384D01*
G01X14173Y34460D01*
G01X14210Y34536D01*
G01X14244Y34613D01*
G01X14277Y34691D01*
G01X14308Y34770D01*
G01X14337Y34849D01*
G01X14364Y34929D01*
G01X14390Y35010D01*
G01X14413Y35091D01*
G01X14434Y35173D01*
G01X14453Y35255D01*
G01X14471Y35338D01*
G01X14486Y35421D01*
G01X14499Y35505D01*
G01X14510Y35589D01*
G01X14519Y35673D01*
G01X14526Y35757D01*
G01X14531Y35842D01*
G01X14535Y35926D01*
G01X14536Y36011D01*
G01X14535Y36095D01*
G01X14531Y36179D01*
G01X14526Y36264D01*
G01X14519Y36349D01*
G01X14510Y36432D01*
G01X14499Y36516D01*
G01X14486Y36600D01*
G01X14471Y36683D01*
G01X14453Y36766D01*
G01X14434Y36848D01*
G01X14413Y36930D01*
G01X14389Y37012D01*
G01X14364Y37092D01*
G01X14337Y37172D01*
G01X14308Y37252D01*
G01X14277Y37331D01*
G01X14244Y37408D01*
G01X14210Y37485D01*
G01X14173Y37562D01*
G01X14135Y37637D01*
G01X14095Y37712D01*
G01X14052Y37785D01*
G01X14009Y37857D01*
G01X13963Y37928D01*
G01X13916Y37999D01*
G01X13867Y38068D01*
G01X13817Y38136D01*
G01X13764Y38202D01*
G01X13711Y38267D01*
G01X13655Y38331D01*
G01X13599Y38394D01*
G01X13540Y38455D01*
G01X13480Y38515D01*
G01X13419Y38574D01*
G01X13356Y38631D01*
G01X13292Y38686D01*
G01X13227Y38739D01*
G01X13161Y38792D01*
G01X13093Y38842D01*
G01X13024Y38891D01*
G01X12954Y38938D01*
G01X12883Y38984D01*
G01X12810Y39027D01*
G01X12737Y39069D01*
G01X12662Y39110D01*
G01X12587Y39148D01*
G01X12511Y39185D01*
G01X12433Y39219D01*
G01X12355Y39252D01*
G01X12277Y39283D01*
G01X12197Y39312D01*
G01X12117Y39339D01*
G01X12036Y39365D01*
G01X11955Y39387D01*
G01X11873Y39409D01*
G01X11791Y39428D01*
G01X11708Y39445D01*
G01X11625Y39461D01*
G01X11541Y39474D01*
G01X11458Y39485D01*
G01X11373Y39494D01*
G01X11289Y39501D01*
G01X11205Y39506D01*
G01X11120Y39509D01*
G37*
G36*
G01X43119Y39524D02*
G01X43034Y39525D01*
G01X42950Y39524D01*
G01X42865Y39521D01*
G01X42780Y39515D01*
G01X42696Y39508D01*
G01X42612Y39499D01*
G01X42528Y39488D01*
G01X42445Y39475D01*
G01X42361Y39459D01*
G01X42278Y39442D01*
G01X42196Y39423D01*
G01X42114Y39402D01*
G01X42033Y39378D01*
G01X41952Y39353D01*
G01X41872Y39326D01*
G01X41793Y39297D01*
G01X41714Y39266D01*
G01X41636Y39234D01*
G01X41559Y39198D01*
G01X41483Y39162D01*
G01X41407Y39124D01*
G01X41333Y39084D01*
G01X41259Y39041D01*
G01X41187Y38998D01*
G01X41116Y38952D01*
G01X41046Y38905D01*
G01X40976Y38856D01*
G01X40909Y38806D01*
G01X40842Y38753D01*
G01X40777Y38700D01*
G01X40713Y38644D01*
G01X40650Y38587D01*
G01X40589Y38529D01*
G01X40529Y38469D01*
G01X40471Y38408D01*
G01X40414Y38346D01*
G01X40359Y38282D01*
G01X40305Y38216D01*
G01X40253Y38149D01*
G01X40202Y38082D01*
G01X40153Y38013D01*
G01X40106Y37943D01*
G01X40061Y37871D01*
G01X40017Y37799D01*
G01X39975Y37725D01*
G01X39935Y37651D01*
G01X39896Y37576D01*
G01X39860Y37499D01*
G01X39825Y37422D01*
G01X39792Y37344D01*
G01X39761Y37266D01*
G01X39732Y37186D01*
G01X39705Y37106D01*
G01X39680Y37025D01*
G01X39657Y36944D01*
G01X39636Y36862D01*
G01X39617Y36780D01*
G01X39599Y36697D01*
G01X39584Y36614D01*
G01X39571Y36530D01*
G01X39560Y36447D01*
G01X39550Y36362D01*
G01X39543Y36278D01*
G01X39538Y36194D01*
G01X39535Y36109D01*
G01X39534Y36024D01*
G01X39535Y35940D01*
G01X39538Y35855D01*
G01X39543Y35771D01*
G01X39550Y35687D01*
G01X39560Y35603D01*
G01X39571Y35519D01*
G01X39584Y35435D01*
G01X39599Y35352D01*
G01X39617Y35270D01*
G01X39635Y35187D01*
G01X39657Y35106D01*
G01X39680Y35024D01*
G01X39705Y34943D01*
G01X39732Y34863D01*
G01X39761Y34783D01*
G01X39792Y34705D01*
G01X39825Y34627D01*
G01X39860Y34550D01*
G01X39896Y34474D01*
G01X39935Y34398D01*
G01X39975Y34324D01*
G01X40017Y34251D01*
G01X40061Y34178D01*
G01X40106Y34107D01*
G01X40153Y34037D01*
G01X40202Y33968D01*
G01X40253Y33900D01*
G01X40305Y33833D01*
G01X40358Y33768D01*
G01X40414Y33704D01*
G01X40470Y33641D01*
G01X40529Y33580D01*
G01X40589Y33521D01*
G01X40650Y33462D01*
G01X40712Y33405D01*
G01X40776Y33350D01*
G01X40842Y33296D01*
G01X40908Y33244D01*
G01X40976Y33193D01*
G01X41045Y33145D01*
G01X41115Y33097D01*
G01X41186Y33052D01*
G01X41259Y33008D01*
G01X41332Y32966D01*
G01X41407Y32926D01*
G01X41482Y32888D01*
G01X41558Y32851D01*
G01X41635Y32816D01*
G01X41713Y32783D01*
G01X41792Y32752D01*
G01X41872Y32723D01*
G01X41951Y32696D01*
G01X42032Y32671D01*
G01X42113Y32648D01*
G01X42195Y32626D01*
G01X42277Y32607D01*
G01X42360Y32590D01*
G01X42444Y32575D01*
G01X42527Y32561D01*
G01X42611Y32550D01*
G01X42695Y32541D01*
G01X42779Y32534D01*
G01X42864Y32529D01*
G01X42948Y32525D01*
G01X43033Y32524D01*
G01X43035Y32524D01*
G01X43120Y32525D01*
G01X43204Y32529D01*
G01X43289Y32534D01*
G01X43373Y32541D01*
G01X43457Y32550D01*
G01X43541Y32561D01*
G01X43624Y32575D01*
G01X43707Y32590D01*
G01X43790Y32607D01*
G01X43873Y32626D01*
G01X43954Y32648D01*
G01X44036Y32671D01*
G01X44116Y32696D01*
G01X44197Y32723D01*
G01X44276Y32752D01*
G01X44355Y32783D01*
G01X44432Y32816D01*
G01X44510Y32851D01*
G01X44586Y32888D01*
G01X44661Y32926D01*
G01X44736Y32966D01*
G01X44809Y33008D01*
G01X44881Y33052D01*
G01X44953Y33097D01*
G01X45023Y33145D01*
G01X45092Y33193D01*
G01X45159Y33244D01*
G01X45226Y33296D01*
G01X45291Y33350D01*
G01X45355Y33405D01*
G01X45418Y33462D01*
G01X45479Y33521D01*
G01X45539Y33580D01*
G01X45597Y33641D01*
G01X45654Y33704D01*
G01X45709Y33768D01*
G01X45763Y33833D01*
G01X45815Y33900D01*
G01X45866Y33968D01*
G01X45915Y34037D01*
G01X45962Y34107D01*
G01X46007Y34178D01*
G01X46051Y34251D01*
G01X46093Y34324D01*
G01X46133Y34398D01*
G01X46172Y34474D01*
G01X46208Y34550D01*
G01X46243Y34627D01*
G01X46275Y34705D01*
G01X46306Y34783D01*
G01X46335Y34863D01*
G01X46363Y34943D01*
G01X46388Y35024D01*
G01X46411Y35106D01*
G01X46432Y35187D01*
G01X46452Y35270D01*
G01X46469Y35352D01*
G01X46484Y35435D01*
G01X46497Y35519D01*
G01X46509Y35603D01*
G01X46518Y35687D01*
G01X46525Y35771D01*
G01X46530Y35855D01*
G01X46533Y35940D01*
G01X46534Y36024D01*
G01X46533Y36109D01*
G01X46530Y36194D01*
G01X46525Y36278D01*
G01X46518Y36362D01*
G01X46509Y36447D01*
G01X46497Y36530D01*
G01X46484Y36614D01*
G01X46469Y36697D01*
G01X46452Y36780D01*
G01X46432Y36862D01*
G01X46411Y36944D01*
G01X46388Y37025D01*
G01X46363Y37106D01*
G01X46335Y37186D01*
G01X46306Y37266D01*
G01X46275Y37344D01*
G01X46243Y37422D01*
G01X46208Y37499D01*
G01X46171Y37576D01*
G01X46133Y37651D01*
G01X46093Y37725D01*
G01X46051Y37799D01*
G01X46007Y37871D01*
G01X45961Y37943D01*
G01X45914Y38013D01*
G01X45865Y38082D01*
G01X45815Y38149D01*
G01X45763Y38216D01*
G01X45709Y38282D01*
G01X45654Y38346D01*
G01X45597Y38408D01*
G01X45538Y38469D01*
G01X45479Y38529D01*
G01X45417Y38587D01*
G01X45355Y38644D01*
G01X45291Y38700D01*
G01X45159Y38806D01*
G01X45091Y38856D01*
G01X45022Y38905D01*
G01X44952Y38952D01*
G01X44880Y38998D01*
G01X44808Y39041D01*
G01X44735Y39084D01*
G01X44660Y39124D01*
G01X44585Y39162D01*
G01X44509Y39198D01*
G01X44432Y39234D01*
G01X44354Y39266D01*
G01X44275Y39297D01*
G01X44196Y39326D01*
G01X44115Y39353D01*
G01X44035Y39378D01*
G01X43953Y39402D01*
G01X43872Y39423D01*
G01X43789Y39442D01*
G01X43706Y39459D01*
G01X43623Y39475D01*
G01X43540Y39488D01*
G01X43456Y39499D01*
G01X43372Y39508D01*
G01X43287Y39515D01*
G01X43203Y39521D01*
G01X43119Y39524D01*
G37*
G36*
G01X21993Y46199D02*
G01X21908Y46200D01*
G01X21824Y46199D01*
G01X21739Y46196D01*
G01X21655Y46191D01*
G01X21570Y46183D01*
G01X21487Y46174D01*
G01X21403Y46163D01*
G01X21319Y46150D01*
G01X21236Y46134D01*
G01X21153Y46117D01*
G01X21070Y46098D01*
G01X20989Y46077D01*
G01X20907Y46053D01*
G01X20827Y46029D01*
G01X20747Y46001D01*
G01X20667Y45972D01*
G01X20588Y45941D01*
G01X20511Y45909D01*
G01X20433Y45874D01*
G01X20357Y45837D01*
G01X20282Y45799D01*
G01X20207Y45759D01*
G01X20134Y45717D01*
G01X20062Y45673D01*
G01X19990Y45627D01*
G01X19920Y45580D01*
G01X19851Y45531D01*
G01X19783Y45481D01*
G01X19717Y45429D01*
G01X19652Y45375D01*
G01X19588Y45319D01*
G01X19525Y45262D01*
G01X19464Y45204D01*
G01X19404Y45145D01*
G01X19345Y45083D01*
G01X19288Y45021D01*
G01X19233Y44957D01*
G01X19127Y44825D01*
G01X19077Y44757D01*
G01X19028Y44688D01*
G01X18981Y44618D01*
G01X18935Y44546D01*
G01X18892Y44474D01*
G01X18849Y44400D01*
G01X18809Y44326D01*
G01X18771Y44251D01*
G01X18734Y44174D01*
G01X18700Y44098D01*
G01X18667Y44019D01*
G01X18636Y43941D01*
G01X18607Y43861D01*
G01X18580Y43781D01*
G01X18554Y43700D01*
G01X18531Y43619D01*
G01X18510Y43537D01*
G01X18491Y43455D01*
G01X18474Y43372D01*
G01X18458Y43289D01*
G01X18445Y43206D01*
G01X18434Y43122D01*
G01X18425Y43037D01*
G01X18418Y42953D01*
G01X18413Y42869D01*
G01X18410Y42784D01*
G01X18409Y42700D01*
G01X18410Y42615D01*
G01X18413Y42530D01*
G01X18418Y42446D01*
G01X18425Y42362D01*
G01X18434Y42278D01*
G01X18445Y42194D01*
G01X18458Y42110D01*
G01X18474Y42028D01*
G01X18491Y41945D01*
G01X18510Y41862D01*
G01X18531Y41781D01*
G01X18554Y41699D01*
G01X18580Y41619D01*
G01X18607Y41538D01*
G01X18636Y41459D01*
G01X18667Y41380D01*
G01X18700Y41302D01*
G01X18734Y41225D01*
G01X18771Y41149D01*
G01X18809Y41073D01*
G01X18849Y40999D01*
G01X18891Y40926D01*
G01X18935Y40854D01*
G01X18981Y40782D01*
G01X19028Y40712D01*
G01X19077Y40643D01*
G01X19127Y40575D01*
G01X19179Y40509D01*
G01X19233Y40443D01*
G01X19288Y40379D01*
G01X19345Y40317D01*
G01X19403Y40255D01*
G01X19463Y40196D01*
G01X19524Y40137D01*
G01X19587Y40080D01*
G01X19651Y40025D01*
G01X19716Y39971D01*
G01X19783Y39919D01*
G01X19850Y39869D01*
G01X19919Y39820D01*
G01X19989Y39772D01*
G01X20061Y39727D01*
G01X20133Y39683D01*
G01X20207Y39641D01*
G01X20281Y39601D01*
G01X20356Y39563D01*
G01X20432Y39526D01*
G01X20510Y39491D01*
G01X20587Y39459D01*
G01X20666Y39428D01*
G01X20746Y39399D01*
G01X20826Y39371D01*
G01X20906Y39346D01*
G01X20988Y39323D01*
G01X21069Y39302D01*
G01X21152Y39282D01*
G01X21235Y39265D01*
G01X21318Y39250D01*
G01X21402Y39237D01*
G01X21486Y39225D01*
G01X21569Y39216D01*
G01X21654Y39209D01*
G01X21738Y39204D01*
G01X21822Y39200D01*
G01X21907Y39199D01*
G01X21910Y39199D01*
G01X21994Y39200D01*
G01X22079Y39204D01*
G01X22163Y39209D01*
G01X22248Y39216D01*
G01X22331Y39225D01*
G01X22415Y39237D01*
G01X22498Y39250D01*
G01X22582Y39265D01*
G01X22665Y39282D01*
G01X22747Y39302D01*
G01X22829Y39323D01*
G01X22910Y39346D01*
G01X22991Y39371D01*
G01X23071Y39399D01*
G01X23150Y39428D01*
G01X23229Y39459D01*
G01X23307Y39491D01*
G01X23384Y39526D01*
G01X23460Y39563D01*
G01X23536Y39601D01*
G01X23610Y39641D01*
G01X23684Y39683D01*
G01X23756Y39727D01*
G01X23827Y39772D01*
G01X23897Y39820D01*
G01X23966Y39869D01*
G01X24034Y39919D01*
G01X24101Y39971D01*
G01X24166Y40025D01*
G01X24230Y40080D01*
G01X24292Y40137D01*
G01X24354Y40196D01*
G01X24413Y40255D01*
G01X24472Y40317D01*
G01X24528Y40379D01*
G01X24584Y40443D01*
G01X24638Y40509D01*
G01X24689Y40575D01*
G01X24740Y40643D01*
G01X24789Y40712D01*
G01X24836Y40782D01*
G01X24926Y40926D01*
G01X24967Y40999D01*
G01X25007Y41073D01*
G01X25046Y41149D01*
G01X25083Y41225D01*
G01X25117Y41302D01*
G01X25150Y41380D01*
G01X25181Y41459D01*
G01X25210Y41538D01*
G01X25237Y41619D01*
G01X25262Y41699D01*
G01X25285Y41781D01*
G01X25307Y41862D01*
G01X25326Y41945D01*
G01X25343Y42028D01*
G01X25358Y42110D01*
G01X25372Y42194D01*
G01X25383Y42278D01*
G01X25392Y42362D01*
G01X25399Y42446D01*
G01X25404Y42530D01*
G01X25407Y42615D01*
G01X25408Y42700D01*
G01X25407Y42784D01*
G01X25404Y42869D01*
G01X25399Y42953D01*
G01X25392Y43037D01*
G01X25383Y43122D01*
G01X25372Y43206D01*
G01X25358Y43289D01*
G01X25343Y43372D01*
G01X25326Y43455D01*
G01X25307Y43537D01*
G01X25285Y43619D01*
G01X25262Y43700D01*
G01X25237Y43781D01*
G01X25210Y43861D01*
G01X25181Y43941D01*
G01X25150Y44019D01*
G01X25117Y44098D01*
G01X25082Y44174D01*
G01X25046Y44251D01*
G01X25007Y44326D01*
G01X24967Y44400D01*
G01X24925Y44474D01*
G01X24881Y44546D01*
G01X24836Y44618D01*
G01X24789Y44688D01*
G01X24740Y44757D01*
G01X24689Y44825D01*
G01X24637Y44891D01*
G01X24583Y44957D01*
G01X24528Y45021D01*
G01X24471Y45083D01*
G01X24413Y45145D01*
G01X24353Y45204D01*
G01X24292Y45262D01*
G01X24229Y45319D01*
G01X24165Y45375D01*
G01X24100Y45429D01*
G01X24034Y45481D01*
G01X23966Y45531D01*
G01X23896Y45580D01*
G01X23826Y45627D01*
G01X23755Y45673D01*
G01X23683Y45717D01*
G01X23609Y45759D01*
G01X23535Y45799D01*
G01X23460Y45837D01*
G01X23383Y45874D01*
G01X23306Y45909D01*
G01X23228Y45941D01*
G01X23149Y45972D01*
G01X23070Y46001D01*
G01X22990Y46029D01*
G01X22828Y46077D01*
G01X22746Y46098D01*
G01X22664Y46117D01*
G01X22581Y46134D01*
G01X22497Y46150D01*
G01X22414Y46163D01*
G01X22330Y46174D01*
G01X22246Y46183D01*
G01X22162Y46191D01*
G01X22077Y46196D01*
G01X21993Y46199D01*
G37*

%LPD*%
G54D11*
G01X5064Y12037D03*
G01X5864Y24838D03*
G01X5864Y24037D03*
G01X5864Y23237D03*
G01X5864Y15237D03*
G01X5864Y14438D03*
G01X5864Y13637D03*
G01X5864Y12837D03*
G01X5864Y12037D03*
G01X5864Y4037D03*
G01X5864Y3237D03*
G01X6664Y31237D03*
G01X6664Y30437D03*
G01X6664Y29637D03*
G01X6664Y28037D03*
G01X6664Y27237D03*
G01X6664Y26437D03*
G01X6664Y25637D03*
G01X6664Y24838D03*
G01X6664Y24037D03*
G01X6664Y23237D03*
G01X6664Y18438D03*
G01X6664Y17637D03*
G01X6664Y16837D03*
G01X6664Y16037D03*
G01X6664Y15237D03*
G01X6664Y14438D03*
G01X6664Y13637D03*
G01X6664Y12837D03*
G01X6664Y12037D03*
G01X6664Y11237D03*
G01X6664Y4037D03*
G01X6664Y3237D03*
G01X6664Y2438D03*
G01X7464Y33637D03*
G01X7464Y32838D03*
G01X7464Y32037D03*
G01X7464Y31237D03*
G01X7464Y30437D03*
G01X7464Y29637D03*
G01X7464Y28838D03*
G01X7464Y28037D03*
G01X7464Y27237D03*
G01X7464Y26437D03*
G01X7464Y25637D03*
G01X7464Y24838D03*
G01X7464Y24037D03*
G01X7464Y23237D03*
G01X7464Y22438D03*
G01X7464Y21637D03*
G01X7464Y20838D03*
G01X7464Y20037D03*
G01X7464Y19237D03*
G01X7464Y18438D03*
G01X7464Y17637D03*
G01X7464Y16837D03*
G01X7464Y16037D03*
G01X7464Y15237D03*
G01X7464Y14438D03*
G01X7464Y13637D03*
G01X7464Y12837D03*
G01X7464Y12037D03*
G01X7464Y11237D03*
G01X7464Y10438D03*
G01X8264Y32838D03*
G01X8264Y32037D03*
G01X8264Y31237D03*
G01X8264Y30437D03*
G01X8264Y29637D03*
G01X8264Y28838D03*
G01X8264Y28037D03*
G01X8264Y27237D03*
G01X8264Y26437D03*
G01X8264Y25637D03*
G01X8264Y24838D03*
G01X8264Y24037D03*
G01X8264Y23237D03*
G01X8264Y22438D03*
G01X8264Y21637D03*
G01X8264Y20838D03*
G01X8264Y20037D03*
G01X8264Y19237D03*
G01X8264Y18438D03*
G01X8264Y17637D03*
G01X8264Y16837D03*
G01X8264Y16037D03*
G01X8264Y15237D03*
G01X8264Y14438D03*
G01X8264Y13637D03*
G01X8264Y12837D03*
G01X8264Y12037D03*
G01X8264Y11237D03*
G01X8264Y10438D03*
G01X8264Y9637D03*
G01X8264Y8837D03*
G01X8264Y8037D03*
G01X8264Y7237D03*
G01X9064Y31237D03*
G01X9064Y30437D03*
G01X9064Y29637D03*
G01X9064Y28838D03*
G01X9064Y28037D03*
G01X9064Y27237D03*
G01X9064Y26437D03*
G01X9064Y25637D03*
G01X9064Y24838D03*
G01X9064Y24037D03*
G01X9064Y23237D03*
G01X9064Y22438D03*
G01X9064Y21637D03*
G01X9064Y20838D03*
G01X9064Y20037D03*
G01X9064Y19237D03*
G01X9064Y18438D03*
G01X9064Y17637D03*
G01X9064Y16837D03*
G01X9064Y16037D03*
G01X9064Y15237D03*
G01X9064Y14438D03*
G01X9064Y13637D03*
G01X9064Y12837D03*
G01X9064Y12037D03*
G01X9064Y11237D03*
G01X9064Y10438D03*
G01X9064Y9637D03*
G01X9064Y8837D03*
G01X9064Y8037D03*
G01X9864Y31237D03*
G01X9864Y30437D03*
G01X9864Y29637D03*
G01X9864Y28838D03*
G01X9864Y28037D03*
G01X9864Y27237D03*
G01X9864Y26437D03*
G01X9864Y25637D03*
G01X9864Y24838D03*
G01X9864Y24037D03*
G01X9864Y23237D03*
G01X9864Y22438D03*
G01X9864Y21637D03*
G01X9864Y20838D03*
G01X9864Y20037D03*
G01X9864Y19237D03*
G01X9864Y18438D03*
G01X9864Y17637D03*
G01X9864Y16837D03*
G01X9864Y16037D03*
G01X9864Y15237D03*
G01X9864Y14438D03*
G01X9864Y13637D03*
G01X9864Y12837D03*
G01X9864Y12037D03*
G01X9864Y11237D03*
G01X9864Y10438D03*
G01X9864Y9637D03*
G01X9864Y8837D03*
G01X9864Y8037D03*
G01X12264Y40037D03*
G01X13064Y40838D03*
G01X13064Y40037D03*
G01X13864Y40838D03*
G01X13864Y40037D03*
G01X13864Y39237D03*
G01X14664Y41637D03*
G01X14664Y40838D03*
G01X14664Y40037D03*
G01X14664Y39237D03*
G01X14664Y38437D03*
G01X15464Y42437D03*
G01X15464Y41637D03*
G01X15464Y40838D03*
G01X15464Y40037D03*
G01X15464Y39237D03*
G01X15464Y38437D03*
G01X15464Y37637D03*
G01X15464Y36838D03*
G01X15464Y2438D03*
G01X16264Y42437D03*
G01X16264Y41637D03*
G01X16264Y40838D03*
G01X16264Y40037D03*
G01X16264Y39237D03*
G01X16264Y38437D03*
G01X16264Y37637D03*
G01X16264Y36838D03*
G01X16264Y2438D03*
G01X17064Y43238D03*
G01X17064Y42437D03*
G01X17064Y41637D03*
G01X17064Y40838D03*
G01X17064Y40037D03*
G01X17064Y39237D03*
G01X17064Y38437D03*
G01X17064Y37637D03*
G01X17064Y36838D03*
G01X17864Y43238D03*
G01X17864Y41637D03*
G01X17864Y40838D03*
G01X17864Y40037D03*
G01X17864Y39237D03*
G01X18664Y40037D03*
G01X18664Y39237D03*
G01X19464Y39237D03*
G01X19464Y2438D03*
G01X23464Y2438D03*
G01X24264Y39237D03*
G01X25064Y40037D03*
G01X25064Y39237D03*
G01X25864Y44037D03*
G01X25864Y41637D03*
G01X25864Y40838D03*
G01X25864Y40037D03*
G01X25864Y39237D03*
G01X26664Y44037D03*
G01X26664Y43238D03*
G01X26664Y42437D03*
G01X26664Y41637D03*
G01X26664Y40838D03*
G01X26664Y40037D03*
G01X26664Y39237D03*
G01X27464Y44037D03*
G01X27464Y43238D03*
G01X27464Y42437D03*
G01X27464Y41637D03*
G01X27464Y40838D03*
G01X27464Y40037D03*
G01X27464Y39237D03*
G01X27464Y2438D03*
G01X28264Y43238D03*
G01X28264Y42437D03*
G01X28264Y41637D03*
G01X28264Y40838D03*
G01X28264Y40037D03*
G01X28264Y39237D03*
G01X29064Y43238D03*
G01X29064Y42437D03*
G01X29064Y41637D03*
G01X29064Y40838D03*
G01X29064Y40037D03*
G01X29064Y39237D03*
G01X29864Y43238D03*
G01X29864Y42437D03*
G01X29864Y41637D03*
G01X29864Y40838D03*
G01X29864Y40037D03*
G01X29864Y39237D03*
G01X30664Y43238D03*
G01X30664Y42437D03*
G01X30664Y41637D03*
G01X30664Y40838D03*
G01X30664Y40037D03*
G01X30664Y39237D03*
G01X31464Y42437D03*
G01X31464Y41637D03*
G01X31464Y40838D03*
G01X31464Y40037D03*
G01X31464Y39237D03*
G01X31464Y2438D03*
G01X32264Y42437D03*
G01X32264Y41637D03*
G01X32264Y40838D03*
G01X32264Y40037D03*
G01X32264Y39237D03*
G01X33064Y42437D03*
G01X33064Y41637D03*
G01X33064Y40838D03*
G01X33064Y40037D03*
G01X33064Y39237D03*
G01X33864Y41637D03*
G01X33864Y40838D03*
G01X33864Y40037D03*
G01X33864Y39237D03*
G01X34664Y41637D03*
G01X34664Y40838D03*
G01X34664Y40037D03*
G01X34664Y39237D03*
G01X35464Y41637D03*
G01X35464Y40838D03*
G01X35464Y40037D03*
G01X35464Y39237D03*
G01X36264Y40838D03*
G01X36264Y40037D03*
G01X36264Y39237D03*
G01X37064Y40838D03*
G01X37064Y40037D03*
G01X37064Y39237D03*
G01X37064Y38437D03*
G01X37064Y37637D03*
G01X37064Y36838D03*
G01X37064Y2438D03*
G01X37864Y40838D03*
G01X37864Y40037D03*
G01X37864Y39237D03*
G01X37864Y38437D03*
G01X37864Y37637D03*
G01X37864Y36838D03*
G01X37864Y2438D03*
G01X38664Y40037D03*
G01X38664Y39237D03*
G01X38664Y38437D03*
G01X38664Y37637D03*
G01X38664Y36838D03*
G01X38664Y2438D03*
G01X39464Y40037D03*
G01X39464Y39237D03*
G01X39464Y38437D03*
G01X40264Y40037D03*
G01X40264Y39237D03*
G01X44264Y32037D03*
G01X44264Y31237D03*
G01X44264Y30437D03*
G01X44264Y29637D03*
G01X44264Y28838D03*
G01X44264Y28037D03*
G01X44264Y27237D03*
G01X44264Y26437D03*
G01X44264Y25637D03*
G01X44264Y24838D03*
G01X44264Y24037D03*
G01X44264Y23237D03*
G01X44264Y22438D03*
G01X44264Y21637D03*
G01X44264Y20838D03*
G01X44264Y20037D03*
G01X44264Y19237D03*
G01X44264Y18438D03*
G01X44264Y17637D03*
G01X44264Y16837D03*
G01X44264Y16037D03*
G01X44264Y15237D03*
G01X44264Y14438D03*
G01X44264Y13637D03*
G01X44264Y12837D03*
G01X44264Y12037D03*
G01X44264Y11237D03*
G01X44264Y10438D03*
G01X44264Y9637D03*
G01X44264Y8837D03*
G01X44264Y8037D03*
G01X45064Y32037D03*
G01X45064Y31237D03*
G01X45064Y30437D03*
G01X45064Y29637D03*
G01X45064Y28838D03*
G01X45064Y28037D03*
G01X45064Y27237D03*
G01X45064Y26437D03*
G01X45064Y25637D03*
G01X45064Y24838D03*
G01X45064Y24037D03*
G01X45064Y23237D03*
G01X45064Y22438D03*
G01X45064Y21637D03*
G01X45064Y20838D03*
G01X45064Y20037D03*
G01X45064Y19237D03*
G01X45064Y18438D03*
G01X45064Y17637D03*
G01X45064Y16837D03*
G01X45064Y16037D03*
G01X45064Y15237D03*
G01X45064Y14438D03*
G01X45064Y13637D03*
G01X45064Y12837D03*
G01X45064Y12037D03*
G01X45064Y11237D03*
G01X45064Y10438D03*
G01X45064Y9637D03*
G01X45064Y8837D03*
G01X45064Y8037D03*
G01X45864Y32037D03*
G01X45864Y31237D03*
G01X45864Y30437D03*
G01X45864Y29637D03*
G01X45864Y28838D03*
G01X45864Y28037D03*
G01X45864Y27237D03*
G01X45864Y26437D03*
G01X45864Y25637D03*
G01X45864Y24838D03*
G01X45864Y24037D03*
G01X45864Y23237D03*
G01X45864Y22438D03*
G01X45864Y21637D03*
G01X45864Y20838D03*
G01X45864Y20037D03*
G01X45864Y19237D03*
G01X45864Y18438D03*
G01X45864Y17637D03*
G01X45864Y16837D03*
G01X45864Y16037D03*
G01X45864Y15237D03*
G01X45864Y14438D03*
G01X45864Y13637D03*
G01X45864Y12837D03*
G01X45864Y12037D03*
G01X45864Y11237D03*
G01X45864Y10438D03*
G01X45864Y9637D03*
G01X45864Y8837D03*
G01X45864Y8037D03*
G01X45864Y7237D03*
G01X46664Y33637D03*
G01X46664Y32838D03*
G01X46664Y32037D03*
G01X46664Y7237D03*
G01X46664Y6438D03*
G01X47464Y34437D03*
G01X47464Y33637D03*
G01X47464Y32838D03*
G01X47464Y32037D03*
G01X47464Y7237D03*
G01X47464Y6438D03*
G01X47464Y5637D03*
G01X47464Y4837D03*
G01X48264Y34437D03*
G01X48264Y33637D03*
G01X48264Y32838D03*
G01X48264Y32037D03*
G01X48264Y7237D03*
G01X48264Y6438D03*
G01X48264Y5637D03*
G01X48264Y4837D03*
G01X49064Y34437D03*
G01X49064Y33637D03*
G01X49064Y6438D03*
G01X49064Y5637D03*
G01X49064Y4837D03*
G01X49864Y34437D03*
G01X49864Y33637D03*
G01X49864Y5637D03*
G01X49864Y4837D03*
G01X50664Y34437D03*
G01X50664Y33637D03*
G01X50664Y5637D03*
G01X50664Y4837D03*
M00*
M02*
