;Layer: Drill PTH
;EasyEDA v6.3.53, 2020-06-10T14:59:09+08:00
;3b83d2e84b6f494eacd4771d3d7b0d36,fed530592efb474aaabf7115e2e2b964,10
;Gerber Generator version 0.2
M48
METRIC,LZ,000.000
;Holesize 1 = 0.301 METRIC
T01C0.301
;Holesize 2 = 1.000 METRIC
T02C1.000
%
G05
G90
T01
X+031582Y+005763
X+031582Y+004863
X+031582Y+003963
X+031582Y+003063
X+031582Y+002163
X+031582Y+001263
X+032482Y+005763
X+032482Y+004863
X+032482Y+003963
X+032482Y+003063
X+032482Y+002163
X+001110Y+013244
X+001110Y+012344
X+001110Y+011444
X+001110Y+010544
X+001110Y+009644
X+001110Y+008744
X+001110Y+005144
X+001110Y+004244
X+001110Y+003344
X+001110Y+002444
X+001110Y+001544
X+002010Y+014144
X+002010Y+013244
X+002010Y+012344
X+002010Y+011444
X+002010Y+010544
X+002010Y+009644
X+002010Y+008744
X+002010Y+006044
X+002010Y+005144
X+002010Y+004244
X+002010Y+003344
X+002010Y+002444
X+002010Y+001544
X+002910Y+011444
X+002910Y+010544
X+002910Y+009644
X+002910Y+008744
X+003810Y+010544
X+003810Y+009644
X+003810Y+008744
X+004710Y+009644
X+004710Y+008744
X+005610Y+009644
X+005610Y+008744
X+006510Y+008744
X+007410Y+019544
X+007410Y+008744
X+008310Y+009644
X+008310Y+008744
X+009210Y+021344
X+009210Y+020444
X+009210Y+009644
X+009210Y+008744
X+010110Y+022244
X+010110Y+018644
X+010110Y+010544
X+010110Y+009644
X+010110Y+008744
X+011010Y+023144
X+011010Y+022244
X+011010Y+020444
X+011010Y+018644
X+011010Y+017744
X+011010Y+011444
X+011010Y+010544
X+011010Y+009644
X+011010Y+008744
X+011910Y+024044
X+011910Y+023144
X+011910Y+022244
X+011910Y+020444
X+011910Y+018644
X+012810Y+024944
X+012810Y+024044
X+012810Y+023144
X+012810Y+022244
X+012810Y+020444
X+013710Y+024944
X+013710Y+024044
X+013710Y+023144
X+013710Y+022244
X+013710Y+015944
X+014610Y+024944
X+014610Y+023144
X+015510Y+024944
X+015510Y+012344
X+015510Y+009644
X+015510Y+008744
X+016410Y+024944
X+016410Y+013244
X+016410Y+012344
X+016410Y+008744
X+017310Y+012344
X+017310Y+008744
X+032610Y+024944
X+033510Y+024944
X+034410Y+024944
X+035310Y+024944
X+035310Y+024044
X+035310Y+023144
X+035310Y+022244
X+035310Y+021344
X+035310Y+020444
X+036210Y+024944
X+036210Y+024044
X+036210Y+023144
X+036210Y+022244
X+036210Y+021344
X+036210Y+020444
X+036210Y+019544
X+037110Y+024044
X+037110Y+023144
X+037110Y+022244
X+037110Y+021344
X+037110Y+020444
X+037110Y+019544
X+037110Y+018644
X+038010Y+023144
X+038010Y+022244
X+038010Y+021344
X+038010Y+020444
X+038010Y+019544
X+038010Y+018644
X+038010Y+017744
X+038910Y+022244
X+038910Y+021344
X+038910Y+020444
X+038910Y+019544
X+038910Y+018644
X+038910Y+010544
X+038910Y+009644
X+039810Y+021344
X+039810Y+020444
X+039810Y+019544
X+039810Y+009644
X+040710Y+020444
X+040710Y+019544
X+040710Y+009644
X+041610Y+019544
X+043410Y+009644
X+044310Y+009644
X+045210Y+010544
X+045210Y+009644
X+046110Y+011444
X+046110Y+010544
X+046110Y+009644
X+046110Y+008744
X+047010Y+014144
X+047010Y+013244
X+047010Y+012344
X+047010Y+011444
X+047010Y+010544
X+047010Y+009644
X+047010Y+008744
X+047010Y+002444
X+047010Y+001544
X+047910Y+013244
X+047910Y+012344
X+047910Y+011444
X+047910Y+010544
X+047910Y+009644
X+047910Y+008744
X+047910Y+005144
X+047910Y+004244
X+047910Y+003344
X+047910Y+002444
X+047910Y+001544
T02
X+019424Y+020049
X+019424Y+022589
X+021964Y+020049
X+021964Y+022589
X+024504Y+020049
X+024504Y+022589
X+027044Y+020049
X+027044Y+022589
X+029584Y+020049
X+029584Y+022589
X+044823Y+004785
X+044823Y+002245
X+042283Y+004785
X+042283Y+002245
X+039743Y+004785
X+039743Y+002245
X+037203Y+004785
X+037203Y+002245
X+034663Y+004785
X+034663Y+002245
X+014353Y+004785
X+014353Y+002245
X+011813Y+004785
X+011813Y+002245
X+009273Y+004785
X+009273Y+002245
X+006733Y+004785
X+006733Y+002245
X+004193Y+004785
X+004193Y+002245
M30
