G04 Layer: TopLayer*
G04 EasyEDA v6.3.53, 2020-06-10T14:59:09+08:00*
G04 3b83d2e84b6f494eacd4771d3d7b0d36,fed530592efb474aaabf7115e2e2b964,10*
G04 Gerber Generator version 0.2*
G04 Scale: 100 percent, Rotated: No, Reflected: No *
G04 Dimensions in millimeters *
G04 leading zeros omitted , absolute positions ,3 integer and 3 decimal *
%FSLAX33Y33*%
%MOMM*%
G90*
G71D02*

%ADD11C,0.299999*%
%ADD12C,0.599999*%
%ADD13C,1.799996*%
%ADD14R,1.799996X1.799996*%

%LPD*%
G36*
G01X21669Y23961D02*
G01X17704Y23961D01*
G01X17689Y23960D01*
G01X17673Y23956D01*
G01X17658Y23950D01*
G01X17644Y23942D01*
G01X17632Y23932D01*
G01X16656Y22956D01*
G01X16646Y22944D01*
G01X16638Y22930D01*
G01X16632Y22915D01*
G01X16628Y22900D01*
G01X16627Y22884D01*
G01X16627Y20716D01*
G01X16626Y20683D01*
G01X16622Y20651D01*
G01X16616Y20620D01*
G01X16609Y20588D01*
G01X16598Y20558D01*
G01X16586Y20528D01*
G01X16571Y20499D01*
G01X16555Y20471D01*
G01X16536Y20444D01*
G01X16516Y20420D01*
G01X16494Y20396D01*
G01X12755Y16657D01*
G01X12745Y16645D01*
G01X12737Y16631D01*
G01X12730Y16616D01*
G01X12726Y16600D01*
G01X12725Y16585D01*
G01X12725Y13753D01*
G01X12726Y13738D01*
G01X12729Y13724D01*
G01X12735Y13710D01*
G01X12742Y13698D01*
G01X12750Y13686D01*
G01X12760Y13676D01*
G01X12772Y13667D01*
G01X12785Y13660D01*
G01X12798Y13655D01*
G01X12812Y13652D01*
G01X12827Y13651D01*
G01X12843Y13653D01*
G01X12859Y13656D01*
G01X12873Y13662D01*
G01X12886Y13671D01*
G01X12899Y13681D01*
G01X16891Y17673D01*
G01X16901Y17685D01*
G01X16909Y17699D01*
G01X16915Y17713D01*
G01X16919Y17729D01*
G01X16920Y17745D01*
G01X16920Y20215D01*
G01X16921Y20248D01*
G01X16925Y20280D01*
G01X16931Y20311D01*
G01X16939Y20343D01*
G01X16949Y20373D01*
G01X16962Y20403D01*
G01X16976Y20432D01*
G01X16993Y20460D01*
G01X17011Y20487D01*
G01X17031Y20512D01*
G01X17053Y20535D01*
G01X18153Y21635D01*
G01X18176Y21657D01*
G01X18200Y21676D01*
G01X18226Y21694D01*
G01X18253Y21710D01*
G01X18281Y21725D01*
G01X18309Y21737D01*
G01X18339Y21747D01*
G01X18369Y21756D01*
G01X18384Y21760D01*
G01X18397Y21767D01*
G01X18410Y21775D01*
G01X18421Y21786D01*
G01X18430Y21798D01*
G01X18438Y21810D01*
G01X18443Y21825D01*
G01X18447Y21839D01*
G01X18448Y21855D01*
G01X18447Y21870D01*
G01X18443Y21885D01*
G01X18438Y21899D01*
G01X18430Y21912D01*
G01X18396Y21965D01*
G01X18365Y22020D01*
G01X18336Y22076D01*
G01X18910Y22076D01*
G01X18910Y21869D01*
G01X18911Y21855D01*
G01X18914Y21840D01*
G01X18919Y21827D01*
G01X18926Y21815D01*
G01X18935Y21803D01*
G01X18945Y21793D01*
G01X18957Y21784D01*
G01X18969Y21777D01*
G01X18983Y21772D01*
G01X18997Y21769D01*
G01X19011Y21768D01*
G01X19835Y21768D01*
G01X19850Y21769D01*
G01X19864Y21772D01*
G01X19878Y21777D01*
G01X19890Y21784D01*
G01X19902Y21793D01*
G01X19912Y21803D01*
G01X19921Y21815D01*
G01X19928Y21827D01*
G01X19933Y21840D01*
G01X19936Y21855D01*
G01X19937Y21869D01*
G01X19937Y22076D01*
G01X20511Y22076D01*
G01X20485Y22024D01*
G01X20457Y21974D01*
G01X20426Y21925D01*
G01X20419Y21913D01*
G01X20413Y21898D01*
G01X20410Y21884D01*
G01X20409Y21869D01*
G01X20410Y21855D01*
G01X20413Y21840D01*
G01X20418Y21827D01*
G01X20425Y21815D01*
G01X20434Y21803D01*
G01X20444Y21793D01*
G01X20456Y21784D01*
G01X20468Y21777D01*
G01X20482Y21772D01*
G01X20496Y21769D01*
G01X20511Y21768D01*
G01X20876Y21768D01*
G01X20891Y21769D01*
G01X20905Y21772D01*
G01X20918Y21777D01*
G01X20931Y21784D01*
G01X20943Y21793D01*
G01X20953Y21803D01*
G01X20962Y21815D01*
G01X20969Y21827D01*
G01X20974Y21840D01*
G01X20977Y21855D01*
G01X20978Y21869D01*
G01X20977Y21884D01*
G01X20974Y21898D01*
G01X20968Y21913D01*
G01X20961Y21925D01*
G01X20933Y21971D01*
G01X20906Y22017D01*
G01X20881Y22064D01*
G01X20860Y22113D01*
G01X20839Y22163D01*
G01X20821Y22213D01*
G01X20806Y22265D01*
G01X20792Y22316D01*
G01X20781Y22370D01*
G01X20772Y22425D01*
G01X20766Y22480D01*
G01X20762Y22534D01*
G01X20761Y22590D01*
G01X20762Y22645D01*
G01X20766Y22699D01*
G01X20772Y22754D01*
G01X20781Y22809D01*
G01X20792Y22863D01*
G01X20805Y22911D01*
G01X20819Y22958D01*
G01X20835Y23005D01*
G01X20853Y23052D01*
G01X20873Y23097D01*
G01X20895Y23141D01*
G01X20919Y23185D01*
G01X20944Y23227D01*
G01X20971Y23269D01*
G01X21000Y23309D01*
G01X21031Y23348D01*
G01X21063Y23386D01*
G01X21096Y23423D01*
G01X21131Y23458D01*
G01X21168Y23491D01*
G01X21206Y23523D01*
G01X21245Y23554D01*
G01X21285Y23582D01*
G01X21327Y23610D01*
G01X21370Y23635D01*
G01X21413Y23659D01*
G01X21457Y23680D01*
G01X21503Y23700D01*
G01X21549Y23719D01*
G01X21596Y23734D01*
G01X21644Y23749D01*
G01X21692Y23761D01*
G01X21706Y23765D01*
G01X21720Y23772D01*
G01X21732Y23781D01*
G01X21743Y23791D01*
G01X21753Y23803D01*
G01X21760Y23816D01*
G01X21766Y23830D01*
G01X21769Y23845D01*
G01X21770Y23860D01*
G01X21769Y23874D01*
G01X21766Y23889D01*
G01X21761Y23902D01*
G01X21754Y23915D01*
G01X21745Y23926D01*
G01X21735Y23936D01*
G01X21724Y23945D01*
G01X21711Y23952D01*
G01X21697Y23957D01*
G01X21683Y23960D01*
G01X21669Y23961D01*
G37*

%LPC*%
G36*
G01X18910Y23103D02*
G01X18910Y23677D01*
G01X18864Y23654D01*
G01X18818Y23629D01*
G01X18774Y23602D01*
G01X18731Y23573D01*
G01X18690Y23542D01*
G01X18649Y23510D01*
G01X18611Y23476D01*
G01X18573Y23440D01*
G01X18537Y23403D01*
G01X18503Y23363D01*
G01X18471Y23323D01*
G01X18440Y23282D01*
G01X18411Y23238D01*
G01X18385Y23195D01*
G01X18359Y23149D01*
G01X18336Y23103D01*
G01X18910Y23103D01*
G37*
G36*
G01X19983Y23654D02*
G01X19937Y23677D01*
G01X19937Y23103D01*
G01X20511Y23103D01*
G01X20488Y23149D01*
G01X20463Y23195D01*
G01X20436Y23238D01*
G01X20407Y23282D01*
G01X20376Y23323D01*
G01X20344Y23363D01*
G01X20310Y23403D01*
G01X20274Y23440D01*
G01X20237Y23476D01*
G01X20198Y23510D01*
G01X20157Y23542D01*
G01X20116Y23573D01*
G01X20073Y23602D01*
G01X20028Y23629D01*
G01X19983Y23654D01*
G37*

%LPD*%
G36*
G01X36839Y25798D02*
G01X12169Y25798D01*
G01X12153Y25797D01*
G01X12138Y25793D01*
G01X12123Y25787D01*
G01X12110Y25778D01*
G01X12098Y25768D01*
G01X286Y13957D01*
G01X275Y13945D01*
G01X267Y13931D01*
G01X261Y13916D01*
G01X257Y13900D01*
G01X256Y13885D01*
G01X256Y358D01*
G01X257Y343D01*
G01X260Y329D01*
G01X265Y315D01*
G01X272Y303D01*
G01X281Y291D01*
G01X291Y281D01*
G01X303Y272D01*
G01X315Y265D01*
G01X329Y260D01*
G01X343Y257D01*
G01X358Y256D01*
G01X10376Y256D01*
G01X10391Y257D01*
G01X10405Y260D01*
G01X10419Y265D01*
G01X10432Y272D01*
G01X10443Y281D01*
G01X10454Y291D01*
G01X10462Y303D01*
G01X10469Y315D01*
G01X10474Y329D01*
G01X10477Y343D01*
G01X10478Y358D01*
G01X10477Y373D01*
G01X10473Y389D01*
G01X10467Y404D01*
G01X10459Y418D01*
G01X10449Y429D01*
G01X9788Y1090D01*
G01X9776Y1100D01*
G01X9762Y1108D01*
G01X9748Y1115D01*
G01X9732Y1118D01*
G01X9717Y1120D01*
G01X9699Y1118D01*
G01X9682Y1114D01*
G01X9633Y1097D01*
G01X9582Y1083D01*
G01X9532Y1070D01*
G01X9481Y1060D01*
G01X9430Y1052D01*
G01X9378Y1046D01*
G01X9325Y1043D01*
G01X9274Y1042D01*
G01X9223Y1043D01*
G01X9173Y1046D01*
G01X9123Y1052D01*
G01X9073Y1059D01*
G01X9023Y1068D01*
G01X8974Y1080D01*
G01X8926Y1093D01*
G01X8878Y1109D01*
G01X8831Y1127D01*
G01X8784Y1146D01*
G01X8739Y1167D01*
G01X8694Y1191D01*
G01X8650Y1216D01*
G01X8608Y1243D01*
G01X8566Y1272D01*
G01X8526Y1303D01*
G01X8487Y1335D01*
G01X8450Y1369D01*
G01X8414Y1404D01*
G01X8379Y1441D01*
G01X8346Y1479D01*
G01X8315Y1518D01*
G01X8285Y1559D01*
G01X8258Y1601D01*
G01X8232Y1644D01*
G01X8207Y1689D01*
G01X8185Y1734D01*
G01X8165Y1780D01*
G01X8146Y1827D01*
G01X8130Y1874D01*
G01X8115Y1922D01*
G01X8103Y1971D01*
G01X8098Y1986D01*
G01X8091Y1999D01*
G01X8083Y2012D01*
G01X8073Y2023D01*
G01X8060Y2032D01*
G01X8047Y2040D01*
G01X8034Y2045D01*
G01X8019Y2049D01*
G01X8004Y2050D01*
G01X7988Y2049D01*
G01X7974Y2045D01*
G01X7959Y2040D01*
G01X7947Y2032D01*
G01X7934Y2023D01*
G01X7924Y2012D01*
G01X7916Y1999D01*
G01X7909Y1986D01*
G01X7904Y1971D01*
G01X7892Y1922D01*
G01X7878Y1874D01*
G01X7861Y1827D01*
G01X7843Y1780D01*
G01X7822Y1734D01*
G01X7800Y1689D01*
G01X7775Y1644D01*
G01X7750Y1601D01*
G01X7722Y1559D01*
G01X7692Y1518D01*
G01X7661Y1479D01*
G01X7628Y1441D01*
G01X7593Y1404D01*
G01X7557Y1369D01*
G01X7520Y1335D01*
G01X7481Y1303D01*
G01X7441Y1272D01*
G01X7400Y1243D01*
G01X7357Y1216D01*
G01X7313Y1191D01*
G01X7268Y1167D01*
G01X7223Y1146D01*
G01X7177Y1127D01*
G01X7129Y1109D01*
G01X7082Y1093D01*
G01X7033Y1080D01*
G01X6983Y1068D01*
G01X6934Y1059D01*
G01X6884Y1052D01*
G01X6834Y1046D01*
G01X6784Y1043D01*
G01X6734Y1042D01*
G01X6684Y1043D01*
G01X6634Y1046D01*
G01X6584Y1051D01*
G01X6534Y1059D01*
G01X6486Y1068D01*
G01X6437Y1079D01*
G01X6389Y1092D01*
G01X6341Y1108D01*
G01X6295Y1125D01*
G01X6248Y1144D01*
G01X6203Y1165D01*
G01X6158Y1188D01*
G01X6115Y1213D01*
G01X6073Y1240D01*
G01X6032Y1268D01*
G01X5992Y1298D01*
G01X5953Y1329D01*
G01X5916Y1362D01*
G01X5880Y1398D01*
G01X5846Y1434D01*
G01X5813Y1471D01*
G01X5782Y1510D01*
G01X5752Y1550D01*
G01X5724Y1592D01*
G01X5698Y1634D01*
G01X5673Y1677D01*
G01X5650Y1722D01*
G01X5630Y1767D01*
G01X5611Y1814D01*
G01X5594Y1861D01*
G01X5593Y1863D01*
G01X5593Y1865D01*
G01X5576Y1918D01*
G01X5563Y1971D01*
G01X5551Y2025D01*
G01X5542Y2079D01*
G01X5536Y2134D01*
G01X5532Y2189D01*
G01X5531Y2244D01*
G01X5532Y2300D01*
G01X5536Y2355D01*
G01X5542Y2409D01*
G01X5551Y2464D01*
G01X5563Y2518D01*
G01X5576Y2572D01*
G01X5593Y2624D01*
G01X5593Y2626D01*
G01X5594Y2628D01*
G01X5611Y2676D01*
G01X5631Y2723D01*
G01X5652Y2770D01*
G01X5675Y2815D01*
G01X5700Y2860D01*
G01X5727Y2903D01*
G01X5756Y2944D01*
G01X5786Y2986D01*
G01X5819Y3025D01*
G01X5852Y3063D01*
G01X5888Y3099D01*
G01X5925Y3134D01*
G01X5963Y3168D01*
G01X6003Y3200D01*
G01X6044Y3230D01*
G01X6086Y3258D01*
G01X6130Y3285D01*
G01X6175Y3309D01*
G01X6220Y3332D01*
G01X6267Y3353D01*
G01X6314Y3372D01*
G01X6362Y3388D01*
G01X6411Y3403D01*
G01X6460Y3416D01*
G01X6474Y3420D01*
G01X6488Y3426D01*
G01X6501Y3435D01*
G01X6512Y3446D01*
G01X6521Y3457D01*
G01X6529Y3471D01*
G01X6534Y3485D01*
G01X6537Y3500D01*
G01X6539Y3514D01*
G01X6537Y3530D01*
G01X6534Y3544D01*
G01X6529Y3559D01*
G01X6521Y3572D01*
G01X6512Y3583D01*
G01X6501Y3594D01*
G01X6488Y3602D01*
G01X6474Y3609D01*
G01X6460Y3613D01*
G01X6412Y3626D01*
G01X6365Y3640D01*
G01X6318Y3656D01*
G01X6272Y3674D01*
G01X6227Y3694D01*
G01X6182Y3716D01*
G01X6139Y3739D01*
G01X6096Y3765D01*
G01X6054Y3792D01*
G01X6014Y3821D01*
G01X5975Y3851D01*
G01X5938Y3883D01*
G01X5901Y3917D01*
G01X5866Y3952D01*
G01X5832Y3988D01*
G01X5800Y4026D01*
G01X5770Y4065D01*
G01X5741Y4106D01*
G01X5714Y4147D01*
G01X5689Y4189D01*
G01X5665Y4233D01*
G01X5643Y4277D01*
G01X5623Y4323D01*
G01X5605Y4369D01*
G01X5589Y4416D01*
G01X5575Y4463D01*
G01X5563Y4511D01*
G01X5558Y4526D01*
G01X5551Y4539D01*
G01X5543Y4552D01*
G01X5533Y4563D01*
G01X5520Y4572D01*
G01X5507Y4580D01*
G01X5494Y4585D01*
G01X5479Y4589D01*
G01X5464Y4590D01*
G01X5448Y4589D01*
G01X5434Y4585D01*
G01X5419Y4580D01*
G01X5407Y4572D01*
G01X5394Y4563D01*
G01X5384Y4552D01*
G01X5376Y4539D01*
G01X5369Y4526D01*
G01X5364Y4511D01*
G01X5352Y4462D01*
G01X5337Y4413D01*
G01X5320Y4365D01*
G01X5301Y4318D01*
G01X5281Y4271D01*
G01X5258Y4226D01*
G01X5233Y4181D01*
G01X5207Y4138D01*
G01X5179Y4095D01*
G01X5149Y4054D01*
G01X5117Y4014D01*
G01X5084Y3976D01*
G01X5049Y3939D01*
G01X5012Y3903D01*
G01X4974Y3869D01*
G01X4934Y3837D01*
G01X4894Y3807D01*
G01X4851Y3778D01*
G01X4808Y3751D01*
G01X4764Y3726D01*
G01X4719Y3703D01*
G01X4673Y3681D01*
G01X4625Y3662D01*
G01X4578Y3645D01*
G01X4575Y3644D01*
G01X4576Y3644D01*
G01X4573Y3643D01*
G01X4574Y3643D01*
G01X4521Y3627D01*
G01X4467Y3613D01*
G01X4413Y3602D01*
G01X4359Y3594D01*
G01X4304Y3587D01*
G01X4249Y3583D01*
G01X4194Y3582D01*
G01X4138Y3583D01*
G01X4083Y3587D01*
G01X4028Y3594D01*
G01X3974Y3602D01*
G01X3920Y3613D01*
G01X3866Y3627D01*
G01X3814Y3643D01*
G01X3810Y3645D01*
G01X3763Y3662D01*
G01X3717Y3680D01*
G01X3671Y3701D01*
G01X3627Y3724D01*
G01X3583Y3749D01*
G01X3540Y3775D01*
G01X3499Y3803D01*
G01X3459Y3832D01*
G01X3420Y3864D01*
G01X3382Y3897D01*
G01X3346Y3931D01*
G01X3312Y3967D01*
G01X3279Y4004D01*
G01X3247Y4043D01*
G01X3217Y4083D01*
G01X3189Y4124D01*
G01X3162Y4166D01*
G01X3137Y4210D01*
G01X3114Y4254D01*
G01X3093Y4299D01*
G01X3074Y4345D01*
G01X3057Y4392D01*
G01X3041Y4440D01*
G01X3028Y4488D01*
G01X3017Y4536D01*
G01X3007Y4586D01*
G01X3000Y4635D01*
G01X2995Y4685D01*
G01X2992Y4735D01*
G01X2991Y4784D01*
G01X2992Y4834D01*
G01X2995Y4884D01*
G01X3000Y4933D01*
G01X3007Y4982D01*
G01X3017Y5031D01*
G01X3028Y5080D01*
G01X3041Y5128D01*
G01X3056Y5175D01*
G01X3073Y5222D01*
G01X3092Y5267D01*
G01X3113Y5313D01*
G01X3136Y5357D01*
G01X3160Y5400D01*
G01X3187Y5442D01*
G01X3215Y5483D01*
G01X3245Y5523D01*
G01X3276Y5562D01*
G01X3309Y5599D01*
G01X3343Y5635D01*
G01X3379Y5669D01*
G01X3416Y5702D01*
G01X3455Y5733D01*
G01X3495Y5763D01*
G01X3536Y5791D01*
G01X3578Y5818D01*
G01X3621Y5842D01*
G01X3665Y5865D01*
G01X3710Y5886D01*
G01X3756Y5905D01*
G01X3803Y5922D01*
G01X3850Y5937D01*
G01X3898Y5950D01*
G01X3947Y5961D01*
G01X3995Y5971D01*
G01X4045Y5978D01*
G01X4094Y5983D01*
G01X4144Y5986D01*
G01X4194Y5987D01*
G01X4244Y5986D01*
G01X4294Y5983D01*
G01X4344Y5978D01*
G01X4394Y5970D01*
G01X4443Y5961D01*
G01X4493Y5949D01*
G01X4542Y5935D01*
G01X4589Y5920D01*
G01X4637Y5902D01*
G01X4683Y5883D01*
G01X4728Y5861D01*
G01X4773Y5838D01*
G01X4817Y5813D01*
G01X4860Y5786D01*
G01X4901Y5757D01*
G01X4941Y5727D01*
G01X4980Y5694D01*
G01X5017Y5661D01*
G01X5053Y5625D01*
G01X5088Y5589D01*
G01X5121Y5550D01*
G01X5152Y5511D01*
G01X5182Y5470D01*
G01X5210Y5428D01*
G01X5235Y5385D01*
G01X5260Y5341D01*
G01X5282Y5295D01*
G01X5303Y5249D01*
G01X5321Y5202D01*
G01X5338Y5155D01*
G01X5352Y5106D01*
G01X5364Y5058D01*
G01X5369Y5043D01*
G01X5376Y5030D01*
G01X5384Y5017D01*
G01X5394Y5006D01*
G01X5407Y4997D01*
G01X5419Y4989D01*
G01X5434Y4983D01*
G01X5448Y4980D01*
G01X5464Y4979D01*
G01X5479Y4980D01*
G01X5494Y4983D01*
G01X5507Y4989D01*
G01X5520Y4997D01*
G01X5533Y5006D01*
G01X5543Y5017D01*
G01X5551Y5030D01*
G01X5558Y5043D01*
G01X5563Y5058D01*
G01X5575Y5106D01*
G01X5590Y5155D01*
G01X5606Y5202D01*
G01X5625Y5249D01*
G01X5645Y5295D01*
G01X5667Y5341D01*
G01X5692Y5385D01*
G01X5718Y5428D01*
G01X5745Y5470D01*
G01X5775Y5511D01*
G01X5806Y5550D01*
G01X5839Y5589D01*
G01X5874Y5625D01*
G01X5910Y5661D01*
G01X5947Y5694D01*
G01X5986Y5727D01*
G01X6026Y5757D01*
G01X6068Y5786D01*
G01X6110Y5813D01*
G01X6154Y5838D01*
G01X6199Y5861D01*
G01X6244Y5883D01*
G01X6291Y5902D01*
G01X6338Y5920D01*
G01X6386Y5935D01*
G01X6434Y5949D01*
G01X6483Y5961D01*
G01X6533Y5970D01*
G01X6583Y5978D01*
G01X6633Y5983D01*
G01X6683Y5986D01*
G01X6734Y5987D01*
G01X6785Y5986D01*
G01X6838Y5983D01*
G01X6890Y5977D01*
G01X6941Y5969D01*
G01X6992Y5959D01*
G01X7042Y5947D01*
G01X7093Y5932D01*
G01X7142Y5916D01*
G01X7159Y5911D01*
G01X7177Y5910D01*
G01X7192Y5911D01*
G01X7208Y5915D01*
G01X7223Y5921D01*
G01X7236Y5929D01*
G01X7248Y5939D01*
G01X8343Y7034D01*
G01X8367Y7057D01*
G01X8392Y7077D01*
G01X8419Y7095D01*
G01X8447Y7112D01*
G01X8475Y7126D01*
G01X8505Y7138D01*
G01X8536Y7149D01*
G01X8567Y7157D01*
G01X8599Y7162D01*
G01X8631Y7166D01*
G01X8663Y7167D01*
G01X10544Y7167D01*
G01X10560Y7168D01*
G01X10576Y7172D01*
G01X10590Y7178D01*
G01X10603Y7186D01*
G01X10616Y7197D01*
G01X11419Y8000D01*
G01X11419Y7999D01*
G01X11424Y8006D01*
G01X11791Y8371D01*
G01X11801Y8384D01*
G01X11809Y8397D01*
G01X11815Y8412D01*
G01X11819Y8428D01*
G01X11820Y8443D01*
G01X11820Y16814D01*
G01X11821Y16847D01*
G01X11825Y16879D01*
G01X11831Y16910D01*
G01X11838Y16942D01*
G01X11849Y16972D01*
G01X11861Y17002D01*
G01X11876Y17031D01*
G01X11892Y17059D01*
G01X11911Y17086D01*
G01X11931Y17110D01*
G01X11953Y17134D01*
G01X15692Y20873D01*
G01X15702Y20885D01*
G01X15710Y20899D01*
G01X15717Y20914D01*
G01X15721Y20930D01*
G01X15722Y20945D01*
G01X15722Y23114D01*
G01X15723Y23146D01*
G01X15726Y23178D01*
G01X15732Y23210D01*
G01X15740Y23241D01*
G01X15750Y23271D01*
G01X15763Y23301D01*
G01X15777Y23330D01*
G01X15794Y23358D01*
G01X15812Y23385D01*
G01X15832Y23410D01*
G01X15854Y23434D01*
G01X17155Y24734D01*
G01X17179Y24756D01*
G01X17203Y24776D01*
G01X17230Y24794D01*
G01X17258Y24811D01*
G01X17287Y24825D01*
G01X17317Y24838D01*
G01X17347Y24848D01*
G01X17379Y24856D01*
G01X17410Y24862D01*
G01X17442Y24866D01*
G01X17475Y24867D01*
G01X24775Y24867D01*
G01X24807Y24866D01*
G01X24839Y24862D01*
G01X24871Y24856D01*
G01X24902Y24848D01*
G01X24933Y24838D01*
G01X24963Y24825D01*
G01X24992Y24811D01*
G01X25020Y24794D01*
G01X25046Y24776D01*
G01X25071Y24756D01*
G01X25095Y24734D01*
G01X26093Y23736D01*
G01X26115Y23712D01*
G01X26136Y23687D01*
G01X26154Y23660D01*
G01X26171Y23632D01*
G01X26185Y23603D01*
G01X26192Y23590D01*
G01X26201Y23578D01*
G01X26211Y23568D01*
G01X26222Y23560D01*
G01X26235Y23552D01*
G01X26249Y23547D01*
G01X26263Y23544D01*
G01X26277Y23543D01*
G01X26293Y23544D01*
G01X26309Y23548D01*
G01X26324Y23554D01*
G01X26337Y23563D01*
G01X26378Y23592D01*
G01X26421Y23618D01*
G01X26465Y23643D01*
G01X26509Y23667D01*
G01X26555Y23688D01*
G01X26601Y23708D01*
G01X26648Y23725D01*
G01X26696Y23741D01*
G01X26745Y23754D01*
G01X26793Y23766D01*
G01X26843Y23775D01*
G01X26893Y23783D01*
G01X26943Y23788D01*
G01X26993Y23791D01*
G01X27043Y23792D01*
G01X27094Y23791D01*
G01X27143Y23788D01*
G01X27193Y23783D01*
G01X27243Y23775D01*
G01X27291Y23766D01*
G01X27340Y23755D01*
G01X27388Y23741D01*
G01X27436Y23726D01*
G01X27483Y23709D01*
G01X27529Y23690D01*
G01X27574Y23669D01*
G01X27618Y23646D01*
G01X27662Y23621D01*
G01X27704Y23595D01*
G01X27745Y23566D01*
G01X27785Y23536D01*
G01X27824Y23505D01*
G01X27861Y23471D01*
G01X27897Y23437D01*
G01X27931Y23401D01*
G01X27964Y23363D01*
G01X27995Y23324D01*
G01X28025Y23284D01*
G01X28053Y23243D01*
G01X28080Y23200D01*
G01X28104Y23157D01*
G01X28126Y23112D01*
G01X28147Y23067D01*
G01X28166Y23021D01*
G01X28183Y22973D01*
G01X28189Y22959D01*
G01X28198Y22945D01*
G01X28208Y22934D01*
G01X28220Y22924D01*
G01X28234Y22915D01*
G01X28248Y22909D01*
G01X28264Y22905D01*
G01X28279Y22904D01*
G01X28294Y22905D01*
G01X28308Y22908D01*
G01X28322Y22913D01*
G01X28334Y22920D01*
G01X28346Y22929D01*
G01X28356Y22939D01*
G01X28365Y22951D01*
G01X28372Y22964D01*
G01X28377Y22977D01*
G01X28380Y22991D01*
G01X28381Y23006D01*
G01X28381Y23489D01*
G01X28382Y23514D01*
G01X28385Y23539D01*
G01X28390Y23564D01*
G01X28397Y23588D01*
G01X28406Y23611D01*
G01X28418Y23634D01*
G01X28430Y23655D01*
G01X28445Y23675D01*
G01X28461Y23695D01*
G01X28478Y23712D01*
G01X28498Y23728D01*
G01X28518Y23743D01*
G01X28539Y23756D01*
G01X28562Y23767D01*
G01X28585Y23775D01*
G01X28609Y23783D01*
G01X28634Y23788D01*
G01X28658Y23791D01*
G01X28684Y23792D01*
G01X30484Y23792D01*
G01X30508Y23791D01*
G01X30533Y23788D01*
G01X30558Y23783D01*
G01X30582Y23775D01*
G01X30605Y23767D01*
G01X30627Y23756D01*
G01X30649Y23743D01*
G01X30669Y23728D01*
G01X30688Y23712D01*
G01X30706Y23695D01*
G01X30722Y23675D01*
G01X30737Y23655D01*
G01X30750Y23634D01*
G01X30770Y23588D01*
G01X30777Y23564D01*
G01X30782Y23539D01*
G01X30785Y23514D01*
G01X30786Y23489D01*
G01X30786Y22069D01*
G01X30787Y22053D01*
G01X30791Y22038D01*
G01X30797Y22023D01*
G01X30806Y22010D01*
G01X30816Y21997D01*
G01X31015Y21797D01*
G01X31028Y21787D01*
G01X31041Y21779D01*
G01X31056Y21773D01*
G01X31072Y21769D01*
G01X31088Y21768D01*
G01X32174Y21768D01*
G01X32206Y21767D01*
G01X32238Y21763D01*
G01X32270Y21757D01*
G01X32301Y21750D01*
G01X32332Y21739D01*
G01X32362Y21727D01*
G01X32391Y21712D01*
G01X32419Y21696D01*
G01X32445Y21677D01*
G01X32470Y21657D01*
G01X32494Y21635D01*
G01X33294Y20835D01*
G01X33316Y20811D01*
G01X33336Y20786D01*
G01X33354Y20760D01*
G01X33371Y20732D01*
G01X33385Y20703D01*
G01X33398Y20673D01*
G01X33408Y20643D01*
G01X33416Y20611D01*
G01X33422Y20580D01*
G01X33425Y20548D01*
G01X33426Y20515D01*
G01X33426Y9543D01*
G01X33427Y9528D01*
G01X33431Y9512D01*
G01X33438Y9497D01*
G01X33446Y9483D01*
G01X33456Y9471D01*
G01X34531Y8396D01*
G01X34543Y8386D01*
G01X34557Y8378D01*
G01X34571Y8372D01*
G01X34587Y8368D01*
G01X34603Y8367D01*
G01X44673Y8367D01*
G01X44706Y8366D01*
G01X44738Y8362D01*
G01X44769Y8356D01*
G01X44801Y8348D01*
G01X44831Y8338D01*
G01X44861Y8326D01*
G01X44890Y8311D01*
G01X44918Y8295D01*
G01X44944Y8276D01*
G01X44969Y8256D01*
G01X44993Y8234D01*
G01X46794Y6433D01*
G01X46816Y6409D01*
G01X46836Y6385D01*
G01X46854Y6358D01*
G01X46871Y6330D01*
G01X46885Y6301D01*
G01X46898Y6271D01*
G01X46908Y6241D01*
G01X46916Y6209D01*
G01X46922Y6178D01*
G01X46925Y6146D01*
G01X46927Y6113D01*
G01X46927Y3893D01*
G01X46925Y3861D01*
G01X46922Y3829D01*
G01X46916Y3797D01*
G01X46908Y3766D01*
G01X46898Y3735D01*
G01X46885Y3705D01*
G01X46871Y3676D01*
G01X46854Y3648D01*
G01X46836Y3622D01*
G01X46816Y3597D01*
G01X46793Y3573D01*
G01X45979Y2759D01*
G01X45968Y2747D01*
G01X45960Y2734D01*
G01X45954Y2719D01*
G01X45950Y2703D01*
G01X45949Y2687D01*
G01X45950Y2670D01*
G01X45955Y2653D01*
G01X45971Y2604D01*
G01X45986Y2553D01*
G01X45998Y2503D01*
G01X46008Y2452D01*
G01X46016Y2400D01*
G01X46021Y2348D01*
G01X46025Y2297D01*
G01X46026Y2244D01*
G01X46025Y2195D01*
G01X46022Y2145D01*
G01X46017Y2096D01*
G01X46010Y2047D01*
G01X46000Y1998D01*
G01X45989Y1949D01*
G01X45976Y1901D01*
G01X45961Y1854D01*
G01X45944Y1807D01*
G01X45925Y1761D01*
G01X45904Y1717D01*
G01X45881Y1672D01*
G01X45857Y1629D01*
G01X45830Y1587D01*
G01X45802Y1546D01*
G01X45772Y1506D01*
G01X45741Y1467D01*
G01X45708Y1430D01*
G01X45674Y1394D01*
G01X45638Y1360D01*
G01X45601Y1327D01*
G01X45562Y1295D01*
G01X45522Y1266D01*
G01X45481Y1238D01*
G01X45439Y1212D01*
G01X45396Y1187D01*
G01X45352Y1164D01*
G01X45306Y1144D01*
G01X45261Y1124D01*
G01X45214Y1107D01*
G01X45167Y1092D01*
G01X45119Y1079D01*
G01X45070Y1068D01*
G01X45022Y1058D01*
G01X44972Y1051D01*
G01X44923Y1046D01*
G01X44873Y1043D01*
G01X44823Y1042D01*
G01X44773Y1043D01*
G01X44723Y1046D01*
G01X44673Y1052D01*
G01X44623Y1059D01*
G01X44573Y1068D01*
G01X44524Y1080D01*
G01X44475Y1093D01*
G01X44428Y1109D01*
G01X44380Y1127D01*
G01X44334Y1146D01*
G01X44288Y1167D01*
G01X44244Y1191D01*
G01X44200Y1216D01*
G01X44157Y1243D01*
G01X44116Y1272D01*
G01X44076Y1303D01*
G01X44037Y1335D01*
G01X44000Y1369D01*
G01X43964Y1404D01*
G01X43929Y1441D01*
G01X43896Y1479D01*
G01X43865Y1518D01*
G01X43835Y1559D01*
G01X43807Y1601D01*
G01X43781Y1644D01*
G01X43757Y1689D01*
G01X43735Y1734D01*
G01X43714Y1780D01*
G01X43696Y1827D01*
G01X43679Y1874D01*
G01X43665Y1922D01*
G01X43652Y1971D01*
G01X43648Y1986D01*
G01X43641Y1999D01*
G01X43633Y2012D01*
G01X43622Y2023D01*
G01X43611Y2032D01*
G01X43598Y2040D01*
G01X43583Y2045D01*
G01X43569Y2049D01*
G01X43553Y2050D01*
G01X43538Y2049D01*
G01X43523Y2045D01*
G01X43510Y2040D01*
G01X43496Y2032D01*
G01X43485Y2023D01*
G01X43474Y2012D01*
G01X43466Y1999D01*
G01X43459Y1986D01*
G01X43454Y1971D01*
G01X43442Y1922D01*
G01X43427Y1874D01*
G01X43411Y1827D01*
G01X43392Y1780D01*
G01X43372Y1734D01*
G01X43350Y1689D01*
G01X43325Y1644D01*
G01X43299Y1601D01*
G01X43271Y1559D01*
G01X43242Y1518D01*
G01X43210Y1479D01*
G01X43177Y1441D01*
G01X43143Y1404D01*
G01X43107Y1369D01*
G01X43070Y1335D01*
G01X43031Y1303D01*
G01X42991Y1272D01*
G01X42949Y1243D01*
G01X42907Y1216D01*
G01X42863Y1191D01*
G01X42819Y1167D01*
G01X42773Y1146D01*
G01X42726Y1127D01*
G01X42679Y1109D01*
G01X42631Y1093D01*
G01X42583Y1080D01*
G01X42534Y1068D01*
G01X42484Y1059D01*
G01X42434Y1052D01*
G01X42384Y1046D01*
G01X42334Y1043D01*
G01X42283Y1042D01*
G01X42233Y1043D01*
G01X42183Y1046D01*
G01X42133Y1052D01*
G01X42083Y1059D01*
G01X42033Y1068D01*
G01X41984Y1080D01*
G01X41935Y1093D01*
G01X41888Y1109D01*
G01X41840Y1127D01*
G01X41794Y1146D01*
G01X41748Y1167D01*
G01X41704Y1191D01*
G01X41660Y1216D01*
G01X41617Y1243D01*
G01X41576Y1272D01*
G01X41536Y1303D01*
G01X41497Y1335D01*
G01X41460Y1369D01*
G01X41424Y1404D01*
G01X41389Y1441D01*
G01X41356Y1479D01*
G01X41325Y1518D01*
G01X41295Y1559D01*
G01X41267Y1601D01*
G01X41241Y1644D01*
G01X41217Y1689D01*
G01X41195Y1734D01*
G01X41174Y1780D01*
G01X41156Y1827D01*
G01X41139Y1874D01*
G01X41125Y1922D01*
G01X41112Y1971D01*
G01X41108Y1986D01*
G01X41101Y1999D01*
G01X41093Y2012D01*
G01X41082Y2023D01*
G01X41071Y2032D01*
G01X41058Y2040D01*
G01X41043Y2045D01*
G01X41029Y2049D01*
G01X41013Y2050D01*
G01X40998Y2049D01*
G01X40983Y2045D01*
G01X40970Y2040D01*
G01X40956Y2032D01*
G01X40945Y2023D01*
G01X40934Y2012D01*
G01X40926Y1999D01*
G01X40919Y1986D01*
G01X40914Y1971D01*
G01X40902Y1922D01*
G01X40887Y1874D01*
G01X40871Y1827D01*
G01X40852Y1780D01*
G01X40832Y1734D01*
G01X40810Y1689D01*
G01X40785Y1644D01*
G01X40759Y1601D01*
G01X40731Y1559D01*
G01X40702Y1518D01*
G01X40670Y1479D01*
G01X40637Y1441D01*
G01X40603Y1404D01*
G01X40567Y1369D01*
G01X40530Y1335D01*
G01X40491Y1303D01*
G01X40451Y1272D01*
G01X40409Y1243D01*
G01X40367Y1216D01*
G01X40323Y1191D01*
G01X40279Y1167D01*
G01X40233Y1146D01*
G01X40186Y1127D01*
G01X40139Y1109D01*
G01X40091Y1093D01*
G01X40043Y1080D01*
G01X39994Y1068D01*
G01X39944Y1059D01*
G01X39894Y1052D01*
G01X39844Y1046D01*
G01X39794Y1043D01*
G01X39743Y1042D01*
G01X39693Y1043D01*
G01X39643Y1046D01*
G01X39593Y1052D01*
G01X39543Y1059D01*
G01X39493Y1068D01*
G01X39444Y1080D01*
G01X39395Y1093D01*
G01X39348Y1109D01*
G01X39300Y1127D01*
G01X39254Y1146D01*
G01X39208Y1167D01*
G01X39164Y1191D01*
G01X39120Y1216D01*
G01X39077Y1243D01*
G01X39036Y1272D01*
G01X38996Y1303D01*
G01X38957Y1335D01*
G01X38920Y1369D01*
G01X38884Y1404D01*
G01X38849Y1441D01*
G01X38816Y1479D01*
G01X38785Y1518D01*
G01X38755Y1559D01*
G01X38727Y1601D01*
G01X38701Y1644D01*
G01X38677Y1689D01*
G01X38655Y1734D01*
G01X38634Y1780D01*
G01X38616Y1827D01*
G01X38599Y1874D01*
G01X38585Y1922D01*
G01X38572Y1971D01*
G01X38568Y1986D01*
G01X38561Y1999D01*
G01X38553Y2012D01*
G01X38542Y2023D01*
G01X38531Y2032D01*
G01X38518Y2040D01*
G01X38503Y2045D01*
G01X38489Y2049D01*
G01X38473Y2050D01*
G01X38458Y2049D01*
G01X38443Y2045D01*
G01X38430Y2040D01*
G01X38416Y2032D01*
G01X38405Y2023D01*
G01X38394Y2012D01*
G01X38386Y1999D01*
G01X38379Y1986D01*
G01X38374Y1971D01*
G01X38362Y1922D01*
G01X38347Y1874D01*
G01X38331Y1827D01*
G01X38312Y1780D01*
G01X38292Y1734D01*
G01X38270Y1689D01*
G01X38245Y1644D01*
G01X38219Y1601D01*
G01X38191Y1559D01*
G01X38162Y1518D01*
G01X38130Y1479D01*
G01X38097Y1441D01*
G01X38063Y1404D01*
G01X38027Y1369D01*
G01X37990Y1335D01*
G01X37951Y1303D01*
G01X37911Y1272D01*
G01X37869Y1243D01*
G01X37827Y1216D01*
G01X37783Y1191D01*
G01X37739Y1167D01*
G01X37693Y1146D01*
G01X37646Y1127D01*
G01X37599Y1109D01*
G01X37551Y1093D01*
G01X37503Y1080D01*
G01X37454Y1068D01*
G01X37404Y1059D01*
G01X37354Y1052D01*
G01X37304Y1046D01*
G01X37254Y1043D01*
G01X37203Y1042D01*
G01X37154Y1043D01*
G01X37104Y1046D01*
G01X37054Y1051D01*
G01X37005Y1059D01*
G01X36955Y1068D01*
G01X36907Y1079D01*
G01X36859Y1092D01*
G01X36811Y1108D01*
G01X36764Y1125D01*
G01X36718Y1144D01*
G01X36673Y1165D01*
G01X36629Y1188D01*
G01X36585Y1213D01*
G01X36543Y1240D01*
G01X36502Y1268D01*
G01X36462Y1298D01*
G01X36423Y1329D01*
G01X36386Y1362D01*
G01X36350Y1398D01*
G01X36315Y1434D01*
G01X36283Y1471D01*
G01X36251Y1510D01*
G01X36222Y1550D01*
G01X36194Y1592D01*
G01X36168Y1634D01*
G01X36143Y1677D01*
G01X36120Y1722D01*
G01X36100Y1767D01*
G01X36081Y1814D01*
G01X36064Y1861D01*
G01X36062Y1865D01*
G01X36046Y1918D01*
G01X36032Y1971D01*
G01X36021Y2025D01*
G01X36012Y2079D01*
G01X36006Y2134D01*
G01X36002Y2189D01*
G01X36001Y2244D01*
G01X36002Y2300D01*
G01X36006Y2355D01*
G01X36012Y2409D01*
G01X36021Y2464D01*
G01X36032Y2518D01*
G01X36046Y2572D01*
G01X36062Y2624D01*
G01X36064Y2628D01*
G01X36081Y2676D01*
G01X36101Y2723D01*
G01X36122Y2770D01*
G01X36145Y2815D01*
G01X36170Y2860D01*
G01X36197Y2903D01*
G01X36226Y2944D01*
G01X36256Y2986D01*
G01X36288Y3025D01*
G01X36323Y3063D01*
G01X36358Y3099D01*
G01X36395Y3134D01*
G01X36433Y3168D01*
G01X36473Y3200D01*
G01X36514Y3230D01*
G01X36557Y3258D01*
G01X36600Y3285D01*
G01X36645Y3309D01*
G01X36690Y3332D01*
G01X36737Y3353D01*
G01X36784Y3372D01*
G01X36832Y3388D01*
G01X36881Y3403D01*
G01X36930Y3416D01*
G01X36945Y3420D01*
G01X36959Y3426D01*
G01X36971Y3435D01*
G01X36982Y3446D01*
G01X36991Y3457D01*
G01X36999Y3471D01*
G01X37004Y3485D01*
G01X37008Y3500D01*
G01X37009Y3514D01*
G01X37008Y3530D01*
G01X37004Y3544D01*
G01X36999Y3559D01*
G01X36991Y3572D01*
G01X36982Y3583D01*
G01X36971Y3594D01*
G01X36959Y3602D01*
G01X36945Y3609D01*
G01X36930Y3613D01*
G01X36882Y3626D01*
G01X36835Y3640D01*
G01X36788Y3656D01*
G01X36742Y3674D01*
G01X36696Y3694D01*
G01X36652Y3716D01*
G01X36609Y3739D01*
G01X36566Y3765D01*
G01X36525Y3792D01*
G01X36484Y3821D01*
G01X36445Y3851D01*
G01X36407Y3883D01*
G01X36371Y3917D01*
G01X36336Y3952D01*
G01X36302Y3988D01*
G01X36270Y4026D01*
G01X36240Y4065D01*
G01X36211Y4106D01*
G01X36184Y4147D01*
G01X36158Y4189D01*
G01X36135Y4233D01*
G01X36113Y4277D01*
G01X36093Y4323D01*
G01X36075Y4369D01*
G01X36059Y4416D01*
G01X36045Y4463D01*
G01X36032Y4511D01*
G01X36028Y4526D01*
G01X36021Y4539D01*
G01X36013Y4552D01*
G01X36002Y4563D01*
G01X35991Y4572D01*
G01X35978Y4580D01*
G01X35963Y4585D01*
G01X35949Y4589D01*
G01X35933Y4590D01*
G01X35918Y4589D01*
G01X35903Y4585D01*
G01X35890Y4580D01*
G01X35876Y4572D01*
G01X35865Y4563D01*
G01X35854Y4552D01*
G01X35846Y4539D01*
G01X35839Y4526D01*
G01X35834Y4511D01*
G01X35822Y4462D01*
G01X35807Y4413D01*
G01X35791Y4365D01*
G01X35772Y4318D01*
G01X35751Y4271D01*
G01X35728Y4226D01*
G01X35704Y4181D01*
G01X35677Y4138D01*
G01X35649Y4095D01*
G01X35619Y4054D01*
G01X35587Y4014D01*
G01X35553Y3976D01*
G01X35518Y3939D01*
G01X35482Y3903D01*
G01X35444Y3869D01*
G01X35405Y3837D01*
G01X35363Y3807D01*
G01X35322Y3778D01*
G01X35279Y3751D01*
G01X35234Y3726D01*
G01X35189Y3703D01*
G01X35142Y3681D01*
G01X35095Y3662D01*
G01X35047Y3645D01*
G01X35043Y3643D01*
G01X34991Y3627D01*
G01X34937Y3613D01*
G01X34883Y3602D01*
G01X34828Y3594D01*
G01X34774Y3587D01*
G01X34719Y3583D01*
G01X34663Y3582D01*
G01X34609Y3583D01*
G01X34553Y3587D01*
G01X34498Y3594D01*
G01X34444Y3602D01*
G01X34390Y3613D01*
G01X34336Y3627D01*
G01X34284Y3643D01*
G01X34281Y3644D01*
G01X34282Y3644D01*
G01X34279Y3645D01*
G01X34280Y3645D01*
G01X34233Y3662D01*
G01X34186Y3680D01*
G01X34141Y3701D01*
G01X34096Y3724D01*
G01X34053Y3749D01*
G01X34011Y3775D01*
G01X33969Y3803D01*
G01X33929Y3832D01*
G01X33890Y3864D01*
G01X33853Y3897D01*
G01X33817Y3931D01*
G01X33782Y3967D01*
G01X33748Y4004D01*
G01X33717Y4043D01*
G01X33687Y4083D01*
G01X33659Y4124D01*
G01X33632Y4166D01*
G01X33607Y4210D01*
G01X33584Y4254D01*
G01X33563Y4299D01*
G01X33544Y4345D01*
G01X33527Y4392D01*
G01X33511Y4440D01*
G01X33498Y4488D01*
G01X33487Y4536D01*
G01X33478Y4586D01*
G01X33470Y4635D01*
G01X33465Y4685D01*
G01X33462Y4735D01*
G01X33461Y4784D01*
G01X33462Y4834D01*
G01X33465Y4884D01*
G01X33470Y4933D01*
G01X33477Y4982D01*
G01X33486Y5031D01*
G01X33498Y5080D01*
G01X33511Y5128D01*
G01X33526Y5175D01*
G01X33543Y5222D01*
G01X33562Y5267D01*
G01X33583Y5313D01*
G01X33606Y5357D01*
G01X33631Y5400D01*
G01X33657Y5442D01*
G01X33685Y5483D01*
G01X33714Y5523D01*
G01X33746Y5562D01*
G01X33779Y5599D01*
G01X33813Y5635D01*
G01X33849Y5669D01*
G01X33886Y5702D01*
G01X33925Y5733D01*
G01X33965Y5763D01*
G01X34006Y5791D01*
G01X34048Y5818D01*
G01X34091Y5842D01*
G01X34136Y5865D01*
G01X34180Y5886D01*
G01X34227Y5905D01*
G01X34273Y5922D01*
G01X34320Y5937D01*
G01X34368Y5950D01*
G01X34417Y5961D01*
G01X34466Y5971D01*
G01X34515Y5978D01*
G01X34564Y5983D01*
G01X34614Y5986D01*
G01X34663Y5987D01*
G01X34714Y5986D01*
G01X34764Y5983D01*
G01X34814Y5978D01*
G01X34864Y5970D01*
G01X34914Y5961D01*
G01X34963Y5949D01*
G01X35011Y5935D01*
G01X35059Y5920D01*
G01X35106Y5902D01*
G01X35153Y5883D01*
G01X35199Y5861D01*
G01X35243Y5838D01*
G01X35287Y5813D01*
G01X35329Y5786D01*
G01X35371Y5757D01*
G01X35411Y5727D01*
G01X35450Y5694D01*
G01X35487Y5661D01*
G01X35523Y5625D01*
G01X35557Y5589D01*
G01X35590Y5550D01*
G01X35622Y5511D01*
G01X35651Y5470D01*
G01X35679Y5428D01*
G01X35705Y5385D01*
G01X35730Y5341D01*
G01X35752Y5295D01*
G01X35772Y5249D01*
G01X35791Y5202D01*
G01X35807Y5155D01*
G01X35822Y5106D01*
G01X35834Y5058D01*
G01X35839Y5043D01*
G01X35846Y5030D01*
G01X35854Y5017D01*
G01X35865Y5006D01*
G01X35876Y4997D01*
G01X35890Y4989D01*
G01X35903Y4983D01*
G01X35918Y4980D01*
G01X35933Y4979D01*
G01X35949Y4980D01*
G01X35963Y4983D01*
G01X35978Y4989D01*
G01X35991Y4997D01*
G01X36002Y5006D01*
G01X36013Y5017D01*
G01X36021Y5030D01*
G01X36028Y5043D01*
G01X36032Y5058D01*
G01X36045Y5106D01*
G01X36059Y5155D01*
G01X36076Y5202D01*
G01X36094Y5249D01*
G01X36115Y5295D01*
G01X36137Y5341D01*
G01X36161Y5385D01*
G01X36187Y5428D01*
G01X36215Y5470D01*
G01X36245Y5511D01*
G01X36276Y5550D01*
G01X36309Y5589D01*
G01X36344Y5625D01*
G01X36380Y5661D01*
G01X36417Y5694D01*
G01X36456Y5727D01*
G01X36496Y5757D01*
G01X36537Y5786D01*
G01X36580Y5813D01*
G01X36624Y5838D01*
G01X36668Y5861D01*
G01X36714Y5883D01*
G01X36760Y5902D01*
G01X36808Y5920D01*
G01X36855Y5935D01*
G01X36904Y5949D01*
G01X36953Y5961D01*
G01X37003Y5970D01*
G01X37053Y5978D01*
G01X37103Y5983D01*
G01X37153Y5986D01*
G01X37203Y5987D01*
G01X37254Y5986D01*
G01X37304Y5983D01*
G01X37354Y5978D01*
G01X37404Y5970D01*
G01X37454Y5961D01*
G01X37503Y5949D01*
G01X37551Y5935D01*
G01X37599Y5920D01*
G01X37646Y5902D01*
G01X37693Y5883D01*
G01X37739Y5861D01*
G01X37783Y5838D01*
G01X37827Y5813D01*
G01X37869Y5786D01*
G01X37911Y5757D01*
G01X37951Y5727D01*
G01X37990Y5694D01*
G01X38027Y5661D01*
G01X38063Y5625D01*
G01X38097Y5589D01*
G01X38130Y5550D01*
G01X38162Y5511D01*
G01X38191Y5470D01*
G01X38219Y5428D01*
G01X38245Y5385D01*
G01X38270Y5341D01*
G01X38292Y5295D01*
G01X38312Y5249D01*
G01X38331Y5202D01*
G01X38347Y5155D01*
G01X38362Y5106D01*
G01X38374Y5058D01*
G01X38379Y5043D01*
G01X38386Y5030D01*
G01X38394Y5017D01*
G01X38405Y5006D01*
G01X38416Y4997D01*
G01X38430Y4989D01*
G01X38443Y4983D01*
G01X38458Y4980D01*
G01X38473Y4979D01*
G01X38489Y4980D01*
G01X38503Y4983D01*
G01X38518Y4989D01*
G01X38531Y4997D01*
G01X38542Y5006D01*
G01X38553Y5017D01*
G01X38561Y5030D01*
G01X38568Y5043D01*
G01X38572Y5058D01*
G01X38585Y5106D01*
G01X38599Y5155D01*
G01X38616Y5202D01*
G01X38634Y5249D01*
G01X38655Y5295D01*
G01X38677Y5341D01*
G01X38701Y5385D01*
G01X38727Y5428D01*
G01X38755Y5470D01*
G01X38785Y5511D01*
G01X38816Y5550D01*
G01X38849Y5589D01*
G01X38884Y5625D01*
G01X38920Y5661D01*
G01X38957Y5694D01*
G01X38996Y5727D01*
G01X39036Y5757D01*
G01X39077Y5786D01*
G01X39120Y5813D01*
G01X39164Y5838D01*
G01X39208Y5861D01*
G01X39254Y5883D01*
G01X39300Y5902D01*
G01X39348Y5920D01*
G01X39395Y5935D01*
G01X39444Y5949D01*
G01X39493Y5961D01*
G01X39543Y5970D01*
G01X39593Y5978D01*
G01X39643Y5983D01*
G01X39693Y5986D01*
G01X39743Y5987D01*
G01X39794Y5986D01*
G01X39844Y5983D01*
G01X39894Y5978D01*
G01X39944Y5970D01*
G01X39994Y5961D01*
G01X40043Y5949D01*
G01X40091Y5935D01*
G01X40139Y5920D01*
G01X40186Y5902D01*
G01X40233Y5883D01*
G01X40279Y5861D01*
G01X40323Y5838D01*
G01X40367Y5813D01*
G01X40409Y5786D01*
G01X40451Y5757D01*
G01X40491Y5727D01*
G01X40530Y5694D01*
G01X40567Y5661D01*
G01X40603Y5625D01*
G01X40637Y5589D01*
G01X40670Y5550D01*
G01X40702Y5511D01*
G01X40731Y5470D01*
G01X40759Y5428D01*
G01X40785Y5385D01*
G01X40810Y5341D01*
G01X40832Y5295D01*
G01X40852Y5249D01*
G01X40871Y5202D01*
G01X40887Y5155D01*
G01X40902Y5106D01*
G01X40914Y5058D01*
G01X40919Y5043D01*
G01X40926Y5030D01*
G01X40934Y5017D01*
G01X40945Y5006D01*
G01X40956Y4997D01*
G01X40970Y4989D01*
G01X40983Y4983D01*
G01X40998Y4980D01*
G01X41013Y4979D01*
G01X41029Y4980D01*
G01X41043Y4983D01*
G01X41058Y4989D01*
G01X41071Y4997D01*
G01X41082Y5006D01*
G01X41093Y5017D01*
G01X41101Y5030D01*
G01X41108Y5043D01*
G01X41112Y5058D01*
G01X41125Y5106D01*
G01X41139Y5155D01*
G01X41156Y5202D01*
G01X41174Y5249D01*
G01X41195Y5295D01*
G01X41217Y5341D01*
G01X41241Y5385D01*
G01X41267Y5428D01*
G01X41295Y5470D01*
G01X41325Y5511D01*
G01X41356Y5550D01*
G01X41389Y5589D01*
G01X41424Y5625D01*
G01X41460Y5661D01*
G01X41497Y5694D01*
G01X41536Y5727D01*
G01X41576Y5757D01*
G01X41617Y5786D01*
G01X41660Y5813D01*
G01X41704Y5838D01*
G01X41748Y5861D01*
G01X41794Y5883D01*
G01X41840Y5902D01*
G01X41888Y5920D01*
G01X41935Y5935D01*
G01X41984Y5949D01*
G01X42033Y5961D01*
G01X42083Y5970D01*
G01X42133Y5978D01*
G01X42183Y5983D01*
G01X42233Y5986D01*
G01X42283Y5987D01*
G01X42334Y5986D01*
G01X42384Y5983D01*
G01X42434Y5978D01*
G01X42484Y5970D01*
G01X42534Y5961D01*
G01X42583Y5949D01*
G01X42631Y5935D01*
G01X42679Y5920D01*
G01X42726Y5902D01*
G01X42773Y5883D01*
G01X42819Y5861D01*
G01X42863Y5838D01*
G01X42907Y5813D01*
G01X42949Y5786D01*
G01X42991Y5757D01*
G01X43031Y5727D01*
G01X43070Y5694D01*
G01X43107Y5661D01*
G01X43143Y5625D01*
G01X43177Y5589D01*
G01X43210Y5550D01*
G01X43242Y5511D01*
G01X43271Y5470D01*
G01X43299Y5428D01*
G01X43325Y5385D01*
G01X43350Y5341D01*
G01X43372Y5295D01*
G01X43392Y5249D01*
G01X43411Y5202D01*
G01X43427Y5155D01*
G01X43442Y5106D01*
G01X43454Y5058D01*
G01X43459Y5043D01*
G01X43466Y5030D01*
G01X43474Y5017D01*
G01X43485Y5006D01*
G01X43496Y4997D01*
G01X43510Y4989D01*
G01X43523Y4983D01*
G01X43538Y4980D01*
G01X43553Y4979D01*
G01X43569Y4980D01*
G01X43583Y4983D01*
G01X43598Y4989D01*
G01X43611Y4997D01*
G01X43622Y5006D01*
G01X43633Y5017D01*
G01X43641Y5030D01*
G01X43648Y5043D01*
G01X43652Y5058D01*
G01X43665Y5106D01*
G01X43679Y5154D01*
G01X43696Y5201D01*
G01X43714Y5248D01*
G01X43734Y5294D01*
G01X43757Y5339D01*
G01X43780Y5383D01*
G01X43806Y5426D01*
G01X43834Y5468D01*
G01X43863Y5508D01*
G01X43894Y5548D01*
G01X43927Y5585D01*
G01X43936Y5598D01*
G01X43943Y5610D01*
G01X43948Y5624D01*
G01X43952Y5639D01*
G01X43953Y5654D01*
G01X43951Y5669D01*
G01X43948Y5685D01*
G01X43942Y5700D01*
G01X43933Y5713D01*
G01X43923Y5725D01*
G01X43116Y6532D01*
G01X43104Y6543D01*
G01X43090Y6551D01*
G01X43075Y6557D01*
G01X43060Y6561D01*
G01X43044Y6562D01*
G01X33574Y6562D01*
G01X33541Y6563D01*
G01X33509Y6566D01*
G01X33477Y6573D01*
G01X33446Y6580D01*
G01X33415Y6590D01*
G01X33386Y6603D01*
G01X33357Y6617D01*
G01X33329Y6634D01*
G01X33302Y6652D01*
G01X33277Y6673D01*
G01X33254Y6694D01*
G01X31754Y8195D01*
G01X31732Y8218D01*
G01X31711Y8243D01*
G01X31693Y8270D01*
G01X31676Y8298D01*
G01X31662Y8327D01*
G01X31649Y8357D01*
G01X31639Y8387D01*
G01X31631Y8418D01*
G01X31626Y8450D01*
G01X31622Y8482D01*
G01X31621Y8515D01*
G01X31621Y18585D01*
G01X31620Y18601D01*
G01X31616Y18616D01*
G01X31610Y18631D01*
G01X31602Y18645D01*
G01X31591Y18657D01*
G01X31016Y19232D01*
G01X31004Y19243D01*
G01X30990Y19251D01*
G01X30975Y19257D01*
G01X30960Y19261D01*
G01X30944Y19262D01*
G01X30537Y19262D01*
G01X30521Y19261D01*
G01X30505Y19257D01*
G01X30490Y19250D01*
G01X30475Y19241D01*
G01X30463Y19230D01*
G01X30427Y19192D01*
G01X30389Y19157D01*
G01X30350Y19123D01*
G01X30309Y19091D01*
G01X30267Y19060D01*
G01X30224Y19032D01*
G01X30179Y19005D01*
G01X30134Y18980D01*
G01X30087Y18958D01*
G01X30039Y18937D01*
G01X29991Y18918D01*
G01X29942Y18902D01*
G01X29892Y18887D01*
G01X29841Y18875D01*
G01X29790Y18865D01*
G01X29739Y18857D01*
G01X29687Y18851D01*
G01X29635Y18848D01*
G01X29583Y18847D01*
G01X29533Y18848D01*
G01X29482Y18851D01*
G01X29433Y18856D01*
G01X29382Y18864D01*
G01X29332Y18873D01*
G01X29284Y18885D01*
G01X29235Y18899D01*
G01X29187Y18914D01*
G01X29139Y18932D01*
G01X29093Y18951D01*
G01X29047Y18973D01*
G01X29002Y18997D01*
G01X28959Y19022D01*
G01X28916Y19049D01*
G01X28903Y19057D01*
G01X28889Y19062D01*
G01X28875Y19065D01*
G01X28859Y19066D01*
G01X28844Y19065D01*
G01X28829Y19061D01*
G01X28814Y19055D01*
G01X28800Y19047D01*
G01X28788Y19037D01*
G01X28778Y19025D01*
G01X28770Y19011D01*
G01X28763Y18997D01*
G01X28759Y18981D01*
G01X28753Y18950D01*
G01X28745Y18920D01*
G01X28735Y18891D01*
G01X28722Y18862D01*
G01X28708Y18834D01*
G01X28692Y18807D01*
G01X28674Y18782D01*
G01X28654Y18757D01*
G01X28633Y18735D01*
G01X27393Y17495D01*
G01X27370Y17473D01*
G01X27345Y17453D01*
G01X27318Y17435D01*
G01X27290Y17418D01*
G01X27261Y17404D01*
G01X27231Y17391D01*
G01X27201Y17381D01*
G01X27169Y17373D01*
G01X27138Y17367D01*
G01X27106Y17363D01*
G01X27073Y17362D01*
G01X19104Y17362D01*
G01X19088Y17361D01*
G01X19072Y17357D01*
G01X19058Y17351D01*
G01X19044Y17343D01*
G01X19032Y17333D01*
G01X14355Y12656D01*
G01X14345Y12644D01*
G01X14337Y12630D01*
G01X14331Y12616D01*
G01X14327Y12600D01*
G01X14326Y12584D01*
G01X14326Y7344D01*
G01X14327Y7328D01*
G01X14331Y7312D01*
G01X14337Y7297D01*
G01X14345Y7284D01*
G01X14355Y7272D01*
G01X14429Y7197D01*
G01X14441Y7187D01*
G01X14455Y7179D01*
G01X14470Y7173D01*
G01X14486Y7169D01*
G01X14501Y7168D01*
G01X15374Y7168D01*
G01X15407Y7166D01*
G01X15439Y7163D01*
G01X15471Y7157D01*
G01X15502Y7150D01*
G01X15533Y7139D01*
G01X15563Y7127D01*
G01X15592Y7112D01*
G01X15619Y7096D01*
G01X15646Y7077D01*
G01X15671Y7057D01*
G01X15695Y7035D01*
G01X16693Y6034D01*
G01X16715Y6011D01*
G01X16735Y5985D01*
G01X16753Y5959D01*
G01X16770Y5931D01*
G01X16784Y5902D01*
G01X16797Y5872D01*
G01X16807Y5842D01*
G01X16814Y5811D01*
G01X16820Y5779D01*
G01X16824Y5747D01*
G01X16825Y5715D01*
G01X16825Y1615D01*
G01X16824Y1583D01*
G01X16820Y1550D01*
G01X16814Y1519D01*
G01X16807Y1487D01*
G01X16797Y1457D01*
G01X16784Y1427D01*
G01X16770Y1399D01*
G01X16753Y1371D01*
G01X16735Y1344D01*
G01X16715Y1319D01*
G01X16693Y1295D01*
G01X15829Y429D01*
G01X15819Y417D01*
G01X15810Y404D01*
G01X15804Y389D01*
G01X15801Y373D01*
G01X15799Y358D01*
G01X15800Y343D01*
G01X15803Y329D01*
G01X15808Y315D01*
G01X15824Y291D01*
G01X15834Y281D01*
G01X15846Y272D01*
G01X15859Y265D01*
G01X15872Y260D01*
G01X15887Y257D01*
G01X15901Y256D01*
G01X18176Y256D01*
G01X18190Y257D01*
G01X18204Y260D01*
G01X18218Y265D01*
G01X18231Y272D01*
G01X18242Y281D01*
G01X18252Y291D01*
G01X18261Y303D01*
G01X18268Y315D01*
G01X18273Y329D01*
G01X18276Y343D01*
G01X18277Y358D01*
G01X18277Y16113D01*
G01X18278Y16137D01*
G01X18282Y16161D01*
G01X18287Y16183D01*
G01X18295Y16206D01*
G01X18304Y16228D01*
G01X18316Y16248D01*
G01X18329Y16268D01*
G01X18344Y16286D01*
G01X18361Y16303D01*
G01X18379Y16318D01*
G01X18399Y16331D01*
G01X18420Y16343D01*
G01X18441Y16353D01*
G01X18464Y16360D01*
G01X18487Y16365D01*
G01X18510Y16369D01*
G01X18534Y16370D01*
G01X30472Y16370D01*
G01X30496Y16369D01*
G01X30519Y16365D01*
G01X30542Y16360D01*
G01X30564Y16353D01*
G01X30586Y16343D01*
G01X30607Y16331D01*
G01X30626Y16318D01*
G01X30645Y16303D01*
G01X30661Y16286D01*
G01X30677Y16268D01*
G01X30690Y16248D01*
G01X30701Y16228D01*
G01X30711Y16206D01*
G01X30719Y16183D01*
G01X30724Y16161D01*
G01X30727Y16137D01*
G01X30728Y16113D01*
G01X30728Y358D01*
G01X30729Y343D01*
G01X30732Y329D01*
G01X30738Y315D01*
G01X30745Y303D01*
G01X30753Y291D01*
G01X30763Y281D01*
G01X30775Y272D01*
G01X30788Y265D01*
G01X30802Y260D01*
G01X30816Y257D01*
G01X30830Y256D01*
G01X48669Y256D01*
G01X48683Y257D01*
G01X48697Y260D01*
G01X48711Y265D01*
G01X48724Y272D01*
G01X48735Y281D01*
G01X48746Y291D01*
G01X48754Y303D01*
G01X48761Y315D01*
G01X48766Y329D01*
G01X48770Y343D01*
G01X48771Y358D01*
G01X48771Y13866D01*
G01X48769Y13882D01*
G01X48765Y13897D01*
G01X48759Y13912D01*
G01X48751Y13926D01*
G01X48741Y13938D01*
G01X36910Y25768D01*
G01X36898Y25778D01*
G01X36885Y25787D01*
G01X36870Y25793D01*
G01X36854Y25797D01*
G01X36839Y25798D01*
G37*

%LPC*%
G36*
G01X5396Y1731D02*
G01X4707Y1731D01*
G01X4707Y1042D01*
G01X5094Y1042D01*
G01X5119Y1043D01*
G01X5144Y1046D01*
G01X5168Y1051D01*
G01X5192Y1058D01*
G01X5215Y1067D01*
G01X5237Y1078D01*
G01X5259Y1091D01*
G01X5279Y1106D01*
G01X5298Y1122D01*
G01X5316Y1139D01*
G01X5332Y1159D01*
G01X5347Y1179D01*
G01X5359Y1200D01*
G01X5371Y1223D01*
G01X5380Y1246D01*
G01X5387Y1270D01*
G01X5392Y1295D01*
G01X5395Y1319D01*
G01X5396Y1345D01*
G01X5396Y1731D01*
G37*
G36*
G01X3680Y1731D02*
G01X2991Y1731D01*
G01X2991Y1345D01*
G01X2992Y1319D01*
G01X2995Y1295D01*
G01X3000Y1270D01*
G01X3007Y1246D01*
G01X3017Y1223D01*
G01X3028Y1200D01*
G01X3040Y1179D01*
G01X3055Y1159D01*
G01X3071Y1139D01*
G01X3089Y1122D01*
G01X3107Y1106D01*
G01X3128Y1091D01*
G01X3150Y1078D01*
G01X3172Y1067D01*
G01X3195Y1058D01*
G01X3219Y1051D01*
G01X3244Y1046D01*
G01X3268Y1043D01*
G01X3293Y1042D01*
G01X3680Y1042D01*
G01X3680Y1731D01*
G37*
G36*
G01X34150Y1731D02*
G01X33461Y1731D01*
G01X33461Y1345D01*
G01X33462Y1319D01*
G01X33465Y1295D01*
G01X33470Y1270D01*
G01X33477Y1246D01*
G01X33486Y1223D01*
G01X33498Y1200D01*
G01X33510Y1179D01*
G01X33525Y1159D01*
G01X33541Y1139D01*
G01X33558Y1122D01*
G01X33578Y1106D01*
G01X33598Y1091D01*
G01X33619Y1078D01*
G01X33642Y1067D01*
G01X33665Y1058D01*
G01X33689Y1051D01*
G01X33714Y1046D01*
G01X33738Y1043D01*
G01X33764Y1042D01*
G01X34150Y1042D01*
G01X34150Y1731D01*
G37*
G36*
G01X35866Y1731D02*
G01X35177Y1731D01*
G01X35177Y1042D01*
G01X35564Y1042D01*
G01X35588Y1043D01*
G01X35613Y1046D01*
G01X35638Y1051D01*
G01X35662Y1058D01*
G01X35685Y1067D01*
G01X35707Y1078D01*
G01X35729Y1091D01*
G01X35749Y1106D01*
G01X35768Y1122D01*
G01X35786Y1139D01*
G01X35802Y1159D01*
G01X35817Y1179D01*
G01X35830Y1200D01*
G01X35850Y1246D01*
G01X35857Y1270D01*
G01X35862Y1295D01*
G01X35865Y1319D01*
G01X35866Y1345D01*
G01X35866Y1731D01*
G37*
G36*
G01X3680Y3447D02*
G01X3293Y3447D01*
G01X3268Y3446D01*
G01X3244Y3443D01*
G01X3219Y3438D01*
G01X3195Y3431D01*
G01X3172Y3421D01*
G01X3150Y3411D01*
G01X3128Y3398D01*
G01X3107Y3383D01*
G01X3089Y3367D01*
G01X3071Y3349D01*
G01X3055Y3330D01*
G01X3040Y3310D01*
G01X3028Y3288D01*
G01X3017Y3266D01*
G01X3007Y3243D01*
G01X3000Y3219D01*
G01X2995Y3194D01*
G01X2992Y3169D01*
G01X2991Y3145D01*
G01X2991Y2758D01*
G01X3680Y2758D01*
G01X3680Y3447D01*
G37*
G36*
G01X5094Y3447D02*
G01X4707Y3447D01*
G01X4707Y2758D01*
G01X5396Y2758D01*
G01X5396Y3145D01*
G01X5395Y3169D01*
G01X5392Y3194D01*
G01X5387Y3219D01*
G01X5380Y3243D01*
G01X5371Y3266D01*
G01X5347Y3310D01*
G01X5332Y3330D01*
G01X5316Y3349D01*
G01X5298Y3367D01*
G01X5279Y3383D01*
G01X5259Y3398D01*
G01X5237Y3411D01*
G01X5215Y3421D01*
G01X5192Y3431D01*
G01X5168Y3438D01*
G01X5144Y3443D01*
G01X5119Y3446D01*
G01X5094Y3447D01*
G37*
G36*
G01X34150Y3447D02*
G01X33764Y3447D01*
G01X33738Y3446D01*
G01X33714Y3443D01*
G01X33689Y3438D01*
G01X33665Y3431D01*
G01X33619Y3411D01*
G01X33598Y3398D01*
G01X33578Y3383D01*
G01X33558Y3367D01*
G01X33541Y3349D01*
G01X33525Y3330D01*
G01X33510Y3310D01*
G01X33486Y3266D01*
G01X33477Y3243D01*
G01X33470Y3219D01*
G01X33465Y3194D01*
G01X33462Y3169D01*
G01X33461Y3145D01*
G01X33461Y2758D01*
G01X34150Y2758D01*
G01X34150Y3447D01*
G37*
G36*
G01X35564Y3447D02*
G01X35177Y3447D01*
G01X35177Y2758D01*
G01X35866Y2758D01*
G01X35866Y3145D01*
G01X35865Y3169D01*
G01X35862Y3194D01*
G01X35857Y3219D01*
G01X35850Y3243D01*
G01X35840Y3266D01*
G01X35830Y3288D01*
G01X35817Y3310D01*
G01X35802Y3330D01*
G01X35786Y3349D01*
G01X35768Y3367D01*
G01X35749Y3383D01*
G01X35729Y3398D01*
G01X35707Y3411D01*
G01X35685Y3421D01*
G01X35662Y3431D01*
G01X35638Y3438D01*
G01X35613Y3443D01*
G01X35588Y3446D01*
G01X35564Y3447D01*
G37*
G36*
G01X41985Y18679D02*
G01X41891Y18680D01*
G01X41797Y18679D01*
G01X41703Y18676D01*
G01X41609Y18670D01*
G01X41515Y18663D01*
G01X41422Y18654D01*
G01X41328Y18642D01*
G01X41235Y18629D01*
G01X41142Y18613D01*
G01X41050Y18596D01*
G01X40958Y18576D01*
G01X40867Y18554D01*
G01X40776Y18531D01*
G01X40685Y18505D01*
G01X40595Y18477D01*
G01X40506Y18448D01*
G01X40418Y18416D01*
G01X40330Y18382D01*
G01X40243Y18347D01*
G01X40156Y18310D01*
G01X40071Y18270D01*
G01X39987Y18229D01*
G01X39903Y18186D01*
G01X39820Y18141D01*
G01X39739Y18094D01*
G01X39658Y18046D01*
G01X39579Y17996D01*
G01X39501Y17944D01*
G01X39423Y17890D01*
G01X39347Y17834D01*
G01X39272Y17777D01*
G01X39199Y17719D01*
G01X39127Y17658D01*
G01X39056Y17596D01*
G01X38987Y17533D01*
G01X38919Y17468D01*
G01X38852Y17402D01*
G01X38787Y17333D01*
G01X38724Y17264D01*
G01X38662Y17193D01*
G01X38602Y17121D01*
G01X38543Y17048D01*
G01X38486Y16973D01*
G01X38430Y16897D01*
G01X38377Y16820D01*
G01X38325Y16742D01*
G01X38274Y16662D01*
G01X38226Y16582D01*
G01X38179Y16500D01*
G01X38135Y16418D01*
G01X38091Y16334D01*
G01X38050Y16249D01*
G01X38011Y16164D01*
G01X37974Y16078D01*
G01X37938Y15991D01*
G01X37904Y15903D01*
G01X37872Y15814D01*
G01X37843Y15725D01*
G01X37816Y15635D01*
G01X37790Y15545D01*
G01X37766Y15454D01*
G01X37744Y15362D01*
G01X37725Y15270D01*
G01X37707Y15178D01*
G01X37692Y15085D01*
G01X37678Y14992D01*
G01X37667Y14899D01*
G01X37658Y14805D01*
G01X37650Y14712D01*
G01X37645Y14618D01*
G01X37642Y14524D01*
G01X37641Y14430D01*
G01X37642Y14336D01*
G01X37645Y14242D01*
G01X37650Y14148D01*
G01X37658Y14054D01*
G01X37667Y13960D01*
G01X37678Y13867D01*
G01X37692Y13774D01*
G01X37707Y13681D01*
G01X37725Y13589D01*
G01X37744Y13497D01*
G01X37766Y13406D01*
G01X37790Y13315D01*
G01X37815Y13224D01*
G01X37843Y13134D01*
G01X37872Y13045D01*
G01X37904Y12957D01*
G01X37938Y12869D01*
G01X37973Y12782D01*
G01X38011Y12695D01*
G01X38050Y12610D01*
G01X38091Y12526D01*
G01X38134Y12442D01*
G01X38179Y12360D01*
G01X38225Y12278D01*
G01X38274Y12198D01*
G01X38325Y12118D01*
G01X38376Y12040D01*
G01X38430Y11962D01*
G01X38542Y11812D01*
G01X38601Y11738D01*
G01X38662Y11666D01*
G01X38724Y11596D01*
G01X38787Y11526D01*
G01X38852Y11458D01*
G01X38918Y11392D01*
G01X38986Y11327D01*
G01X39056Y11263D01*
G01X39127Y11201D01*
G01X39199Y11141D01*
G01X39272Y11083D01*
G01X39347Y11025D01*
G01X39422Y10970D01*
G01X39500Y10916D01*
G01X39578Y10864D01*
G01X39658Y10814D01*
G01X39738Y10765D01*
G01X39820Y10718D01*
G01X39902Y10674D01*
G01X39986Y10630D01*
G01X40070Y10589D01*
G01X40155Y10550D01*
G01X40242Y10513D01*
G01X40329Y10477D01*
G01X40416Y10443D01*
G01X40505Y10412D01*
G01X40594Y10382D01*
G01X40684Y10355D01*
G01X40775Y10329D01*
G01X40866Y10305D01*
G01X40957Y10283D01*
G01X41049Y10264D01*
G01X41141Y10246D01*
G01X41234Y10231D01*
G01X41327Y10217D01*
G01X41420Y10206D01*
G01X41514Y10197D01*
G01X41608Y10189D01*
G01X41702Y10184D01*
G01X41796Y10181D01*
G01X41890Y10180D01*
G01X41892Y10180D01*
G01X41986Y10181D01*
G01X42080Y10184D01*
G01X42174Y10189D01*
G01X42268Y10197D01*
G01X42361Y10206D01*
G01X42455Y10217D01*
G01X42548Y10231D01*
G01X42640Y10246D01*
G01X42732Y10264D01*
G01X42824Y10283D01*
G01X42916Y10305D01*
G01X43007Y10329D01*
G01X43097Y10355D01*
G01X43187Y10382D01*
G01X43277Y10412D01*
G01X43365Y10443D01*
G01X43453Y10477D01*
G01X43540Y10513D01*
G01X43626Y10550D01*
G01X43711Y10589D01*
G01X43796Y10630D01*
G01X43880Y10674D01*
G01X43962Y10718D01*
G01X44044Y10765D01*
G01X44124Y10814D01*
G01X44204Y10864D01*
G01X44282Y10916D01*
G01X44359Y10970D01*
G01X44435Y11025D01*
G01X44583Y11141D01*
G01X44655Y11201D01*
G01X44726Y11263D01*
G01X44795Y11327D01*
G01X44863Y11392D01*
G01X44930Y11458D01*
G01X44995Y11526D01*
G01X45058Y11596D01*
G01X45120Y11666D01*
G01X45180Y11738D01*
G01X45239Y11812D01*
G01X45296Y11887D01*
G01X45351Y11962D01*
G01X45405Y12040D01*
G01X45457Y12118D01*
G01X45507Y12198D01*
G01X45556Y12278D01*
G01X45603Y12360D01*
G01X45647Y12442D01*
G01X45691Y12526D01*
G01X45732Y12610D01*
G01X45771Y12695D01*
G01X45808Y12782D01*
G01X45844Y12869D01*
G01X45877Y12957D01*
G01X45909Y13045D01*
G01X45938Y13134D01*
G01X45966Y13224D01*
G01X45992Y13315D01*
G01X46016Y13406D01*
G01X46037Y13497D01*
G01X46057Y13589D01*
G01X46075Y13681D01*
G01X46090Y13774D01*
G01X46104Y13867D01*
G01X46115Y13960D01*
G01X46124Y14054D01*
G01X46131Y14148D01*
G01X46137Y14242D01*
G01X46140Y14336D01*
G01X46141Y14430D01*
G01X46140Y14524D01*
G01X46137Y14618D01*
G01X46131Y14712D01*
G01X46124Y14805D01*
G01X46115Y14899D01*
G01X46104Y14992D01*
G01X46090Y15085D01*
G01X46075Y15178D01*
G01X46057Y15270D01*
G01X46037Y15362D01*
G01X46016Y15454D01*
G01X45992Y15545D01*
G01X45966Y15635D01*
G01X45938Y15725D01*
G01X45909Y15814D01*
G01X45877Y15903D01*
G01X45843Y15991D01*
G01X45808Y16078D01*
G01X45771Y16164D01*
G01X45732Y16249D01*
G01X45690Y16334D01*
G01X45647Y16418D01*
G01X45602Y16500D01*
G01X45555Y16582D01*
G01X45507Y16662D01*
G01X45457Y16742D01*
G01X45405Y16820D01*
G01X45351Y16897D01*
G01X45296Y16973D01*
G01X45238Y17048D01*
G01X45180Y17121D01*
G01X45120Y17193D01*
G01X45058Y17264D01*
G01X44994Y17333D01*
G01X44929Y17402D01*
G01X44863Y17468D01*
G01X44794Y17533D01*
G01X44725Y17596D01*
G01X44655Y17658D01*
G01X44583Y17719D01*
G01X44509Y17777D01*
G01X44434Y17834D01*
G01X44359Y17890D01*
G01X44281Y17944D01*
G01X44203Y17996D01*
G01X44123Y18046D01*
G01X44043Y18094D01*
G01X43961Y18141D01*
G01X43879Y18186D01*
G01X43795Y18229D01*
G01X43710Y18270D01*
G01X43625Y18310D01*
G01X43539Y18347D01*
G01X43452Y18382D01*
G01X43364Y18416D01*
G01X43276Y18448D01*
G01X43186Y18477D01*
G01X43096Y18505D01*
G01X43006Y18531D01*
G01X42915Y18554D01*
G01X42823Y18576D01*
G01X42731Y18596D01*
G01X42639Y18613D01*
G01X42547Y18629D01*
G01X42453Y18642D01*
G01X42360Y18654D01*
G01X42267Y18663D01*
G01X42173Y18670D01*
G01X42079Y18676D01*
G01X41985Y18679D01*
G37*
G36*
G01X7185Y18679D02*
G01X7091Y18680D01*
G01X6997Y18679D01*
G01X6903Y18676D01*
G01X6809Y18670D01*
G01X6715Y18663D01*
G01X6622Y18654D01*
G01X6528Y18642D01*
G01X6435Y18629D01*
G01X6342Y18613D01*
G01X6250Y18596D01*
G01X6158Y18576D01*
G01X6067Y18554D01*
G01X5976Y18531D01*
G01X5885Y18505D01*
G01X5795Y18477D01*
G01X5706Y18448D01*
G01X5617Y18416D01*
G01X5530Y18382D01*
G01X5443Y18347D01*
G01X5356Y18310D01*
G01X5271Y18270D01*
G01X5187Y18229D01*
G01X5103Y18186D01*
G01X5020Y18141D01*
G01X4939Y18094D01*
G01X4858Y18046D01*
G01X4779Y17996D01*
G01X4701Y17944D01*
G01X4623Y17890D01*
G01X4547Y17834D01*
G01X4472Y17777D01*
G01X4399Y17719D01*
G01X4327Y17658D01*
G01X4256Y17596D01*
G01X4187Y17533D01*
G01X4119Y17468D01*
G01X4052Y17402D01*
G01X3987Y17333D01*
G01X3924Y17264D01*
G01X3862Y17193D01*
G01X3802Y17121D01*
G01X3743Y17048D01*
G01X3686Y16973D01*
G01X3630Y16897D01*
G01X3577Y16820D01*
G01X3525Y16742D01*
G01X3474Y16662D01*
G01X3426Y16582D01*
G01X3379Y16500D01*
G01X3335Y16418D01*
G01X3291Y16334D01*
G01X3250Y16249D01*
G01X3211Y16164D01*
G01X3173Y16078D01*
G01X3138Y15991D01*
G01X3104Y15903D01*
G01X3072Y15814D01*
G01X3043Y15725D01*
G01X3015Y15635D01*
G01X2990Y15545D01*
G01X2966Y15454D01*
G01X2944Y15362D01*
G01X2925Y15270D01*
G01X2907Y15178D01*
G01X2892Y15085D01*
G01X2878Y14992D01*
G01X2867Y14899D01*
G01X2858Y14805D01*
G01X2850Y14712D01*
G01X2845Y14618D01*
G01X2842Y14524D01*
G01X2841Y14430D01*
G01X2842Y14336D01*
G01X2845Y14242D01*
G01X2850Y14148D01*
G01X2858Y14054D01*
G01X2867Y13960D01*
G01X2878Y13867D01*
G01X2892Y13774D01*
G01X2907Y13681D01*
G01X2925Y13589D01*
G01X2944Y13497D01*
G01X2966Y13406D01*
G01X2990Y13315D01*
G01X3015Y13224D01*
G01X3043Y13134D01*
G01X3072Y13045D01*
G01X3104Y12957D01*
G01X3138Y12869D01*
G01X3173Y12782D01*
G01X3211Y12695D01*
G01X3250Y12610D01*
G01X3291Y12526D01*
G01X3334Y12442D01*
G01X3379Y12360D01*
G01X3425Y12278D01*
G01X3474Y12198D01*
G01X3525Y12118D01*
G01X3576Y12040D01*
G01X3630Y11962D01*
G01X3742Y11812D01*
G01X3801Y11738D01*
G01X3862Y11666D01*
G01X3924Y11596D01*
G01X3987Y11526D01*
G01X4052Y11458D01*
G01X4118Y11392D01*
G01X4186Y11327D01*
G01X4256Y11263D01*
G01X4327Y11201D01*
G01X4399Y11141D01*
G01X4472Y11083D01*
G01X4547Y11025D01*
G01X4622Y10970D01*
G01X4700Y10916D01*
G01X4778Y10864D01*
G01X4858Y10814D01*
G01X4938Y10765D01*
G01X5020Y10718D01*
G01X5102Y10674D01*
G01X5186Y10630D01*
G01X5270Y10589D01*
G01X5355Y10550D01*
G01X5442Y10513D01*
G01X5529Y10477D01*
G01X5616Y10443D01*
G01X5705Y10412D01*
G01X5794Y10382D01*
G01X5884Y10355D01*
G01X5975Y10329D01*
G01X6066Y10305D01*
G01X6157Y10283D01*
G01X6249Y10264D01*
G01X6341Y10246D01*
G01X6434Y10231D01*
G01X6527Y10217D01*
G01X6620Y10206D01*
G01X6714Y10197D01*
G01X6808Y10189D01*
G01X6902Y10184D01*
G01X6996Y10181D01*
G01X7090Y10180D01*
G01X7092Y10180D01*
G01X7186Y10181D01*
G01X7280Y10184D01*
G01X7374Y10189D01*
G01X7468Y10197D01*
G01X7561Y10206D01*
G01X7655Y10217D01*
G01X7748Y10231D01*
G01X7840Y10246D01*
G01X7932Y10264D01*
G01X8024Y10283D01*
G01X8116Y10305D01*
G01X8207Y10329D01*
G01X8297Y10355D01*
G01X8387Y10382D01*
G01X8476Y10412D01*
G01X8565Y10443D01*
G01X8653Y10477D01*
G01X8740Y10513D01*
G01X8826Y10550D01*
G01X8911Y10589D01*
G01X8996Y10630D01*
G01X9162Y10718D01*
G01X9244Y10765D01*
G01X9324Y10814D01*
G01X9404Y10864D01*
G01X9482Y10916D01*
G01X9559Y10970D01*
G01X9635Y11025D01*
G01X9783Y11141D01*
G01X9855Y11201D01*
G01X9926Y11263D01*
G01X9995Y11327D01*
G01X10063Y11392D01*
G01X10130Y11458D01*
G01X10195Y11526D01*
G01X10258Y11596D01*
G01X10320Y11666D01*
G01X10380Y11738D01*
G01X10439Y11812D01*
G01X10496Y11887D01*
G01X10551Y11962D01*
G01X10605Y12040D01*
G01X10657Y12118D01*
G01X10707Y12198D01*
G01X10756Y12278D01*
G01X10803Y12360D01*
G01X10847Y12442D01*
G01X10891Y12526D01*
G01X10932Y12610D01*
G01X10971Y12695D01*
G01X11008Y12782D01*
G01X11044Y12869D01*
G01X11077Y12957D01*
G01X11109Y13045D01*
G01X11138Y13134D01*
G01X11166Y13224D01*
G01X11192Y13315D01*
G01X11216Y13406D01*
G01X11237Y13497D01*
G01X11257Y13589D01*
G01X11275Y13681D01*
G01X11290Y13774D01*
G01X11304Y13867D01*
G01X11315Y13960D01*
G01X11324Y14054D01*
G01X11331Y14148D01*
G01X11337Y14242D01*
G01X11340Y14336D01*
G01X11341Y14430D01*
G01X11340Y14524D01*
G01X11337Y14618D01*
G01X11331Y14712D01*
G01X11324Y14805D01*
G01X11315Y14899D01*
G01X11304Y14992D01*
G01X11290Y15085D01*
G01X11275Y15178D01*
G01X11257Y15270D01*
G01X11237Y15362D01*
G01X11216Y15454D01*
G01X11192Y15545D01*
G01X11166Y15635D01*
G01X11138Y15725D01*
G01X11109Y15814D01*
G01X11077Y15903D01*
G01X11043Y15991D01*
G01X11008Y16078D01*
G01X10971Y16164D01*
G01X10932Y16249D01*
G01X10890Y16334D01*
G01X10847Y16418D01*
G01X10802Y16500D01*
G01X10755Y16582D01*
G01X10707Y16662D01*
G01X10657Y16742D01*
G01X10605Y16820D01*
G01X10551Y16897D01*
G01X10496Y16973D01*
G01X10438Y17048D01*
G01X10380Y17121D01*
G01X10320Y17193D01*
G01X10258Y17264D01*
G01X10194Y17333D01*
G01X10129Y17402D01*
G01X10062Y17468D01*
G01X9994Y17533D01*
G01X9925Y17596D01*
G01X9855Y17658D01*
G01X9783Y17719D01*
G01X9709Y17777D01*
G01X9634Y17834D01*
G01X9559Y17890D01*
G01X9481Y17944D01*
G01X9403Y17996D01*
G01X9323Y18046D01*
G01X9243Y18094D01*
G01X9161Y18141D01*
G01X9078Y18186D01*
G01X8995Y18229D01*
G01X8910Y18270D01*
G01X8825Y18310D01*
G01X8739Y18347D01*
G01X8652Y18382D01*
G01X8564Y18416D01*
G01X8475Y18448D01*
G01X8386Y18477D01*
G01X8296Y18505D01*
G01X8206Y18531D01*
G01X8115Y18554D01*
G01X8023Y18576D01*
G01X7931Y18596D01*
G01X7839Y18613D01*
G01X7747Y18629D01*
G01X7653Y18642D01*
G01X7560Y18654D01*
G01X7467Y18663D01*
G01X7373Y18670D01*
G01X7279Y18676D01*
G01X7185Y18679D01*
G37*

%LPD*%
G54D11*
G01X11813Y2245D02*
G01X13083Y3515D01*
G01X13083Y13225D01*
G01X17373Y17515D01*
G01X17373Y20215D01*
G01X18473Y21315D01*
G01X23228Y21315D01*
G01X24503Y22590D01*
G01X11744Y7686D02*
G01X12273Y8214D01*
G01X12273Y16814D01*
G01X16174Y20716D01*
G01X16174Y23114D01*
G01X17475Y24414D01*
G01X24775Y24414D01*
G01X25773Y23416D01*
G01X25773Y21084D01*
G01X26809Y20050D01*
G01X27043Y20050D01*
G01X16372Y1615D02*
G01X16372Y5715D01*
G01X15374Y6715D01*
G01X14272Y6715D01*
G01X13873Y7114D01*
G01X13873Y12814D01*
G01X18874Y17815D01*
G01X27073Y17815D01*
G01X28313Y19055D01*
G01X28313Y21094D01*
G01X27043Y22364D01*
G01X27043Y22590D01*
G01X44823Y2245D02*
G01X46474Y3893D01*
G01X46474Y6113D01*
G01X44673Y7914D01*
G01X34373Y7914D01*
G01X32974Y9314D01*
G01X32974Y20515D01*
G01X32174Y21315D01*
G01X30858Y21315D01*
G01X29583Y22590D01*
G01X44823Y4785D02*
G01X44823Y5465D01*
G01X43274Y7014D01*
G01X33574Y7014D01*
G01X32074Y8514D01*
G01X32074Y18815D01*
G01X31174Y19715D01*
G01X29918Y19715D01*
G01X29583Y20049D01*
G01X9273Y2245D02*
G01X10805Y713D01*
G01X15473Y713D01*
G01X16372Y1615D01*
G01X6733Y4785D02*
G01X8663Y6714D01*
G01X10774Y6714D02*
G01X11743Y7684D01*
G01X8663Y6714D02*
G01X10774Y6714D01*
G54D13*
G01X19423Y20049D03*
G01X19423Y22589D03*
G01X21963Y20049D03*
G01X21963Y22589D03*
G01X24503Y20049D03*
G01X24503Y22589D03*
G01X27043Y20049D03*
G01X27043Y22589D03*
G01X29583Y20049D03*
G54D14*
G01X29583Y22589D03*
G54D13*
G01X44823Y4785D03*
G01X44823Y2245D03*
G01X42283Y4785D03*
G01X42283Y2245D03*
G01X39743Y4785D03*
G01X39743Y2245D03*
G01X37203Y4785D03*
G01X37203Y2245D03*
G01X34663Y4785D03*
G54D14*
G01X34663Y2245D03*
G54D13*
G01X14354Y4785D03*
G01X14354Y2245D03*
G01X11814Y4785D03*
G01X11814Y2245D03*
G01X9274Y4785D03*
G01X9274Y2245D03*
G01X6734Y4785D03*
G01X6734Y2245D03*
G01X4194Y4785D03*
G54D14*
G01X4194Y2245D03*
G54D12*
G01X31582Y5763D03*
G01X31582Y4863D03*
G01X31582Y3963D03*
G01X31582Y3063D03*
G01X31582Y2163D03*
G01X31582Y1263D03*
G01X32482Y5763D03*
G01X32482Y4863D03*
G01X32482Y3963D03*
G01X32482Y3063D03*
G01X32482Y2163D03*
G01X1110Y13244D03*
G01X1110Y12344D03*
G01X1110Y11444D03*
G01X1110Y10544D03*
G01X1110Y9644D03*
G01X1110Y8744D03*
G01X1110Y5144D03*
G01X1110Y4244D03*
G01X1110Y3344D03*
G01X1110Y2444D03*
G01X1110Y1544D03*
G01X2010Y14144D03*
G01X2010Y13244D03*
G01X2010Y12344D03*
G01X2010Y11444D03*
G01X2010Y10544D03*
G01X2010Y9644D03*
G01X2010Y8744D03*
G01X2010Y6044D03*
G01X2010Y5144D03*
G01X2010Y4244D03*
G01X2010Y3344D03*
G01X2010Y2444D03*
G01X2010Y1544D03*
G01X2910Y11444D03*
G01X2910Y10544D03*
G01X2910Y9644D03*
G01X2910Y8744D03*
G01X3810Y10544D03*
G01X3810Y9644D03*
G01X3810Y8744D03*
G01X4710Y9644D03*
G01X4710Y8744D03*
G01X5610Y9644D03*
G01X5610Y8744D03*
G01X6510Y8744D03*
G01X7410Y19544D03*
G01X7410Y8744D03*
G01X8310Y9644D03*
G01X8310Y8744D03*
G01X9210Y21344D03*
G01X9210Y20444D03*
G01X9210Y9644D03*
G01X9210Y8744D03*
G01X10110Y22244D03*
G01X10110Y18644D03*
G01X10110Y10544D03*
G01X10110Y9644D03*
G01X10110Y8744D03*
G01X11010Y23144D03*
G01X11010Y22244D03*
G01X11010Y20444D03*
G01X11010Y18644D03*
G01X11010Y17744D03*
G01X11010Y11444D03*
G01X11010Y10544D03*
G01X11010Y9644D03*
G01X11010Y8744D03*
G01X11910Y24044D03*
G01X11910Y23144D03*
G01X11910Y22244D03*
G01X11910Y20444D03*
G01X11910Y18644D03*
G01X12810Y24944D03*
G01X12810Y24044D03*
G01X12810Y23144D03*
G01X12810Y22244D03*
G01X12810Y20444D03*
G01X13710Y24944D03*
G01X13710Y24044D03*
G01X13710Y23144D03*
G01X13710Y22244D03*
G01X13710Y15944D03*
G01X14610Y24944D03*
G01X14610Y23144D03*
G01X15510Y24944D03*
G01X15510Y12344D03*
G01X15510Y9644D03*
G01X15510Y8744D03*
G01X16410Y24944D03*
G01X16410Y13244D03*
G01X16410Y12344D03*
G01X16410Y8744D03*
G01X17310Y12344D03*
G01X17310Y8744D03*
G01X32610Y24944D03*
G01X33510Y24944D03*
G01X34410Y24944D03*
G01X35310Y24944D03*
G01X35310Y24044D03*
G01X35310Y23144D03*
G01X35310Y22244D03*
G01X35310Y21344D03*
G01X35310Y20444D03*
G01X36210Y24944D03*
G01X36210Y24044D03*
G01X36210Y23144D03*
G01X36210Y22244D03*
G01X36210Y21344D03*
G01X36210Y20444D03*
G01X36210Y19544D03*
G01X37110Y24044D03*
G01X37110Y23144D03*
G01X37110Y22244D03*
G01X37110Y21344D03*
G01X37110Y20444D03*
G01X37110Y19544D03*
G01X37110Y18644D03*
G01X38010Y23144D03*
G01X38010Y22244D03*
G01X38010Y21344D03*
G01X38010Y20444D03*
G01X38010Y19544D03*
G01X38010Y18644D03*
G01X38010Y17744D03*
G01X38910Y22244D03*
G01X38910Y21344D03*
G01X38910Y20444D03*
G01X38910Y19544D03*
G01X38910Y18644D03*
G01X38910Y10544D03*
G01X38910Y9644D03*
G01X39810Y21344D03*
G01X39810Y20444D03*
G01X39810Y19544D03*
G01X39810Y9644D03*
G01X40710Y20444D03*
G01X40710Y19544D03*
G01X40710Y9644D03*
G01X41610Y19544D03*
G01X43410Y9644D03*
G01X44310Y9644D03*
G01X45210Y10544D03*
G01X45210Y9644D03*
G01X46110Y11444D03*
G01X46110Y10544D03*
G01X46110Y9644D03*
G01X46110Y8744D03*
G01X47010Y14144D03*
G01X47010Y13244D03*
G01X47010Y12344D03*
G01X47010Y11444D03*
G01X47010Y10544D03*
G01X47010Y9644D03*
G01X47010Y8744D03*
G01X47010Y2444D03*
G01X47010Y1544D03*
G01X47910Y13244D03*
G01X47910Y12344D03*
G01X47910Y11444D03*
G01X47910Y10544D03*
G01X47910Y9644D03*
G01X47910Y8744D03*
G01X47910Y5144D03*
G01X47910Y4244D03*
G01X47910Y3344D03*
G01X47910Y2444D03*
G01X47910Y1544D03*
M00*
M02*
