G04 Layer: TopSolderMaskLayer*
G04 EasyEDA v6.3.53, 2020-06-10T14:59:09+08:00*
G04 3b83d2e84b6f494eacd4771d3d7b0d36,fed530592efb474aaabf7115e2e2b964,10*
G04 Gerber Generator version 0.2*
G04 Scale: 100 percent, Rotated: No, Reflected: No *
G04 Dimensions in millimeters *
G04 leading zeros omitted , absolute positions ,3 integer and 3 decimal *
%FSLAX33Y33*%
%MOMM*%
G90*
G71D02*

%ADD18C,1.599997*%
%ADD19C,2.003196*%

%LPD*%
G54D19*
G01X19423Y20049D03*
G01X19423Y22589D03*
G01X21963Y20049D03*
G01X21963Y22589D03*
G01X24503Y20049D03*
G01X24503Y22589D03*
G01X27043Y20049D03*
G01X27043Y22589D03*
G01X29583Y20049D03*
G36*
G01X28582Y21587D02*
G01X28582Y23591D01*
G01X30586Y23591D01*
G01X30586Y21587D01*
G01X28582Y21587D01*
G37*
G01X44823Y4785D03*
G01X44823Y2245D03*
G01X42283Y4785D03*
G01X42283Y2245D03*
G01X39743Y4785D03*
G01X39743Y2245D03*
G01X37203Y4785D03*
G01X37203Y2245D03*
G01X34663Y4785D03*
G36*
G01X33662Y1244D02*
G01X33662Y3246D01*
G01X35666Y3246D01*
G01X35666Y1244D01*
G01X33662Y1244D01*
G37*
G01X14354Y4785D03*
G01X14354Y2245D03*
G01X11814Y4785D03*
G01X11814Y2245D03*
G01X9274Y4785D03*
G01X9274Y2245D03*
G01X6734Y4785D03*
G01X6734Y2245D03*
G01X4194Y4785D03*
G36*
G01X3192Y1244D02*
G01X3192Y3246D01*
G01X5196Y3246D01*
G01X5196Y1244D01*
G01X3192Y1244D01*
G37*
G54D18*
G75*
G01X9091Y14430D02*
G03X9091Y14430I-2000J0D01*
G01*
G75*
G01X43891Y14430D02*
G03X43891Y14430I-2000J0D01*
G01*
M00*
M02*
