<svg version="1.1" xmlns="http://www.w3.org/2000/svg" xmlns:xlink="http://www.w3.org/1999/xlink" stroke-linecap="round" stroke-linejoin="round" stroke-width="0" fill-rule="evenodd" width="100.762mm" height="70.273mm" viewBox="0 0 100762 70273" id="uXdlo1WZQomCIlCnxpZk"><g transform="translate(0,70273) scale(1,-1)" fill="currentColor" stroke="currentColor"><path d="M 1481 70272 99278 70272 M 1481 1 99271 1 M 100762 1491 100762 68788 M 0 68791 0 1481 A 1481 1481 0 0 1 1481 0 M 0 1481 0 1481 M 99280 70271 A 1481 1481 0 0 0 100761 68790 1 1 0 0 0 100762 68789 M 0 68791 A 1481 1481 0 0 0 1481 70273 M 99279 70273 A 2 2 0 0 0 99280 70271 M 100762 1491 A 1481 1481 0 0 0 99281 10 10 10 0 0 0 99271 0" fill="none" stroke-width="254"/></g></svg>