<?xml version="1.0" encoding="iso-8859-1"?>
<!-- Generator: Adobe Illustrator 18.0.0, SVG Export Plug-In . SVG Version: 6.00 Build 0)  -->
<!DOCTYPE svg PUBLIC "-//W3C//DTD SVG 1.1//EN" "http://www.w3.org/Graphics/SVG/1.1/DTD/svg11.dtd">
<svg version="1.1" id="Capa_1" xmlns="http://www.w3.org/2000/svg" xmlns:xlink="http://www.w3.org/1999/xlink" x="0px" y="0px"
	 viewBox="0 0 325.082 325.082" style="enable-background:new 0 0 325.082 325.082;" xml:space="preserve">
<g>
	<path d="M309.045,73.456H230.42L212.154,27.43h-99.232L94.619,73.456H15.994C7.178,73.456,0,80.619,0,89.469v192.16
		c0,8.851,7.178,16.023,15.994,16.023h293.051c8.854,0,16.037-7.173,16.037-16.023V89.469
		C325.082,80.619,317.898,73.456,309.045,73.456z M162.518,255.476c-37.68,0-68.207-30.553-68.207-68.237
		c0-37.677,30.527-68.228,68.207-68.228c37.695,0,68.256,30.551,68.256,68.228C230.773,224.923,200.213,255.476,162.518,255.476z"/>
	<path d="M162.518,146.558c-21.516,0-38.969,17.466-38.969,38.987c0,21.541,17.453,38.995,38.969,38.995
		c21.557,0,39.016-17.454,39.016-38.995C201.533,164.023,184.074,146.558,162.518,146.558z"/>
</g>
<g>
</g>
<g>
</g>
<g>
</g>
<g>
</g>
<g>
</g>
<g>
</g>
<g>
</g>
<g>
</g>
<g>
</g>
<g>
</g>
<g>
</g>
<g>
</g>
<g>
</g>
<g>
</g>
<g>
</g>
</svg>
