G04 Layer: TopSolderMaskLayer*
G04 EasyEDA v6.3.39, 2020-04-29T16:10:24+08:00*
G04 8e32648d726441b9b9f64577d1232170,fed530592efb474aaabf7115e2e2b964,10*
G04 Gerber Generator version 0.2*
G04 Scale: 100 percent, Rotated: No, Reflected: No *
G04 Dimensions in millimeters *
G04 leading zeros omitted , absolute positions ,3 integer and 3 decimal *
%FSLAX33Y33*%
%MOMM*%
G90*
G71D02*

%ADD60C,1.799996*%
%ADD72C,1.203198*%
%ADD73C,0.803199*%
%ADD74C,0.483210*%
%ADD75C,1.599997*%
%ADD76C,0.100000*%
%ADD83C,2.703195*%
%ADD87C,1.778000*%
%ADD98C,2.003196*%
%ADD100C,2.803195*%
%ADD117R,2.003196X1.778000*%
%ADD118C,3.003296*%
%ADD120C,1.303198*%

%LPD*%
G54D72*
G01X99023Y48481D02*
G01X98223Y48481D01*
G01X99023Y39841D02*
G01X98223Y39841D01*
G01X95023Y48481D02*
G01X93923Y48481D01*
G01X95023Y39841D02*
G01X93923Y39841D01*
G54D73*
G01X21366Y33572D02*
G01X21366Y32372D01*
G01X20096Y33572D02*
G01X20096Y32372D01*
G01X18826Y33572D02*
G01X18826Y32372D01*
G01X17556Y33572D02*
G01X17556Y32372D01*
G01X21366Y27629D02*
G01X21366Y26429D01*
G01X20096Y27629D02*
G01X20096Y26429D01*
G01X18826Y27629D02*
G01X18826Y26429D01*
G01X17556Y27629D02*
G01X17556Y26429D01*
G01X87141Y50696D02*
G01X88061Y50696D01*
G01X87141Y51966D02*
G01X88061Y51966D01*
G01X87141Y53236D02*
G01X88061Y53236D01*
G01X87141Y54506D02*
G01X88061Y54506D01*
G01X81661Y50696D02*
G01X82581Y50696D01*
G01X81661Y51966D02*
G01X82581Y51966D01*
G01X81661Y53236D02*
G01X82581Y53236D01*
G01X81661Y54506D02*
G01X82581Y54506D01*
G01X87141Y57896D02*
G01X88061Y57896D01*
G01X87141Y59166D02*
G01X88061Y59166D01*
G01X87141Y60436D02*
G01X88061Y60436D01*
G01X87141Y61706D02*
G01X88061Y61706D01*
G01X81661Y57896D02*
G01X82581Y57896D01*
G01X81661Y59166D02*
G01X82581Y59166D01*
G01X81661Y60436D02*
G01X82581Y60436D01*
G01X81661Y61706D02*
G01X82581Y61706D01*
G54D74*
G01X68911Y20191D02*
G01X68911Y21711D01*
G01X68411Y20191D02*
G01X68411Y21711D01*
G01X67911Y20191D02*
G01X67911Y21711D01*
G01X67411Y20191D02*
G01X67411Y21711D01*
G01X66911Y20191D02*
G01X66911Y21711D01*
G01X66411Y20191D02*
G01X66411Y21711D01*
G01X65911Y20191D02*
G01X65911Y21711D01*
G01X65411Y20191D02*
G01X65411Y21711D01*
G01X64911Y20191D02*
G01X64911Y21711D01*
G01X64411Y20191D02*
G01X64411Y21711D01*
G01X63911Y20191D02*
G01X63911Y21711D01*
G01X63411Y20191D02*
G01X63411Y21711D01*
G01X62911Y20191D02*
G01X62911Y21711D01*
G01X62411Y20191D02*
G01X62411Y21711D01*
G01X61911Y20191D02*
G01X61911Y21711D01*
G01X61411Y20191D02*
G01X61411Y21711D01*
G01X60371Y22751D02*
G01X58851Y22751D01*
G01X60371Y23251D02*
G01X58851Y23251D01*
G01X60371Y23751D02*
G01X58851Y23751D01*
G01X60371Y24251D02*
G01X58851Y24251D01*
G01X60371Y24751D02*
G01X58851Y24751D01*
G01X60371Y25251D02*
G01X58851Y25251D01*
G01X60371Y25751D02*
G01X58851Y25751D01*
G01X60371Y26251D02*
G01X58851Y26251D01*
G01X60371Y26751D02*
G01X58851Y26751D01*
G01X60371Y27251D02*
G01X58851Y27251D01*
G01X60371Y27751D02*
G01X58851Y27751D01*
G01X60371Y28251D02*
G01X58851Y28251D01*
G01X60371Y28751D02*
G01X58851Y28751D01*
G01X60371Y29251D02*
G01X58851Y29251D01*
G01X60371Y29751D02*
G01X58851Y29751D01*
G01X60371Y30251D02*
G01X58851Y30251D01*
G01X61411Y31291D02*
G01X61411Y32811D01*
G01X61911Y31291D02*
G01X61911Y32811D01*
G01X62411Y31291D02*
G01X62411Y32811D01*
G01X62911Y31291D02*
G01X62911Y32811D01*
G01X63411Y31291D02*
G01X63411Y32811D01*
G01X63911Y31291D02*
G01X63911Y32811D01*
G01X64411Y31291D02*
G01X64411Y32811D01*
G01X64911Y31291D02*
G01X64911Y32811D01*
G01X65411Y31291D02*
G01X65411Y32811D01*
G01X65911Y31291D02*
G01X65911Y32811D01*
G01X66411Y31291D02*
G01X66411Y32811D01*
G01X66911Y31291D02*
G01X66911Y32811D01*
G01X67411Y31291D02*
G01X67411Y32811D01*
G01X67911Y31291D02*
G01X67911Y32811D01*
G01X68411Y31291D02*
G01X68411Y32811D01*
G01X68911Y31291D02*
G01X68911Y32811D01*
G01X71471Y30251D02*
G01X69951Y30251D01*
G01X71471Y29751D02*
G01X69951Y29751D01*
G01X71471Y29251D02*
G01X69951Y29251D01*
G01X71471Y28751D02*
G01X69951Y28751D01*
G01X71471Y28251D02*
G01X69951Y28251D01*
G01X71471Y27751D02*
G01X69951Y27751D01*
G01X71471Y27251D02*
G01X69951Y27251D01*
G01X71471Y26751D02*
G01X69951Y26751D01*
G01X71471Y26251D02*
G01X69951Y26251D01*
G01X71471Y25751D02*
G01X69951Y25751D01*
G01X71471Y25251D02*
G01X69951Y25251D01*
G01X71471Y24751D02*
G01X69951Y24751D01*
G01X71471Y24251D02*
G01X69951Y24251D01*
G01X71471Y23751D02*
G01X69951Y23751D01*
G01X71471Y23251D02*
G01X69951Y23251D01*
G01X71471Y22751D02*
G01X69951Y22751D01*
G01X30060Y50611D02*
G01X30060Y49991D01*
G01X30560Y50611D02*
G01X30560Y49991D01*
G01X31060Y50611D02*
G01X31060Y49991D01*
G01X31561Y50611D02*
G01X31561Y49991D01*
G01X32061Y50611D02*
G01X32061Y49991D01*
G01X32561Y50611D02*
G01X32561Y49991D01*
G01X33062Y50611D02*
G01X33062Y49991D01*
G01X33751Y49302D02*
G01X34371Y49302D01*
G01X33751Y48802D02*
G01X34371Y48802D01*
G01X33751Y48301D02*
G01X34371Y48301D01*
G01X33751Y47801D02*
G01X34371Y47801D01*
G01X33751Y47301D02*
G01X34371Y47301D01*
G01X33751Y46800D02*
G01X34371Y46800D01*
G01X33751Y46300D02*
G01X34371Y46300D01*
G01X33062Y45611D02*
G01X33062Y44991D01*
G01X32561Y45611D02*
G01X32561Y44991D01*
G01X32061Y45611D02*
G01X32061Y44991D01*
G01X31561Y45611D02*
G01X31561Y44991D01*
G01X31060Y45611D02*
G01X31060Y44991D01*
G01X30560Y45611D02*
G01X30560Y44991D01*
G01X30060Y45611D02*
G01X30060Y44991D01*
G01X28751Y46300D02*
G01X29371Y46300D01*
G01X28751Y46800D02*
G01X29371Y46800D01*
G01X28751Y47301D02*
G01X29371Y47301D01*
G01X28751Y47801D02*
G01X29371Y47801D01*
G01X28751Y48301D02*
G01X29371Y48301D01*
G01X28751Y48802D02*
G01X29371Y48802D01*
G01X28751Y49302D02*
G01X29371Y49302D01*
G01X12460Y46711D02*
G01X12460Y46091D01*
G01X12960Y46711D02*
G01X12960Y46091D01*
G01X13460Y46711D02*
G01X13460Y46091D01*
G01X13961Y46711D02*
G01X13961Y46091D01*
G01X14461Y46711D02*
G01X14461Y46091D01*
G01X14962Y46711D02*
G01X14962Y46091D01*
G01X15462Y46711D02*
G01X15462Y46091D01*
G01X16151Y45402D02*
G01X16771Y45402D01*
G01X16151Y44902D02*
G01X16771Y44902D01*
G01X16151Y44401D02*
G01X16771Y44401D01*
G01X16151Y43901D02*
G01X16771Y43901D01*
G01X16151Y43400D02*
G01X16771Y43400D01*
G01X16151Y42900D02*
G01X16771Y42900D01*
G01X16151Y42400D02*
G01X16771Y42400D01*
G01X15462Y41711D02*
G01X15462Y41091D01*
G01X14962Y41711D02*
G01X14962Y41091D01*
G01X14461Y41711D02*
G01X14461Y41091D01*
G01X13961Y41711D02*
G01X13961Y41091D01*
G01X13460Y41711D02*
G01X13460Y41091D01*
G01X12960Y41711D02*
G01X12960Y41091D01*
G01X12460Y41711D02*
G01X12460Y41091D01*
G01X11151Y42400D02*
G01X11771Y42400D01*
G01X11151Y42900D02*
G01X11771Y42900D01*
G01X11151Y43400D02*
G01X11771Y43400D01*
G01X11151Y43901D02*
G01X11771Y43901D01*
G01X11151Y44401D02*
G01X11771Y44401D01*
G01X11151Y44902D02*
G01X11771Y44902D01*
G01X11151Y45402D02*
G01X11771Y45402D01*
G01X70460Y50611D02*
G01X70460Y49991D01*
G01X70960Y50611D02*
G01X70960Y49991D01*
G01X71461Y50611D02*
G01X71461Y49991D01*
G01X71961Y50611D02*
G01X71961Y49991D01*
G01X72461Y50611D02*
G01X72461Y49991D01*
G01X72962Y50611D02*
G01X72962Y49991D01*
G01X73462Y50611D02*
G01X73462Y49991D01*
G01X74151Y49302D02*
G01X74771Y49302D01*
G01X74151Y48802D02*
G01X74771Y48802D01*
G01X74151Y48301D02*
G01X74771Y48301D01*
G01X74151Y47801D02*
G01X74771Y47801D01*
G01X74151Y47301D02*
G01X74771Y47301D01*
G01X74151Y46800D02*
G01X74771Y46800D01*
G01X74151Y46300D02*
G01X74771Y46300D01*
G01X73462Y45611D02*
G01X73462Y44991D01*
G01X72962Y45611D02*
G01X72962Y44991D01*
G01X72461Y45611D02*
G01X72461Y44991D01*
G01X71961Y45611D02*
G01X71961Y44991D01*
G01X71461Y45611D02*
G01X71461Y44991D01*
G01X70960Y45611D02*
G01X70960Y44991D01*
G01X70460Y45611D02*
G01X70460Y44991D01*
G01X69151Y46300D02*
G01X69771Y46300D01*
G01X69151Y46800D02*
G01X69771Y46800D01*
G01X69151Y47301D02*
G01X69771Y47301D01*
G01X69151Y47801D02*
G01X69771Y47801D01*
G01X69151Y48301D02*
G01X69771Y48301D01*
G01X69151Y48802D02*
G01X69771Y48802D01*
G01X69151Y49302D02*
G01X69771Y49302D01*
G01X50260Y50611D02*
G01X50260Y49991D01*
G01X50760Y50611D02*
G01X50760Y49991D01*
G01X51260Y50611D02*
G01X51260Y49991D01*
G01X51761Y50611D02*
G01X51761Y49991D01*
G01X52261Y50611D02*
G01X52261Y49991D01*
G01X52762Y50611D02*
G01X52762Y49991D01*
G01X53262Y50611D02*
G01X53262Y49991D01*
G01X53951Y49302D02*
G01X54571Y49302D01*
G01X53951Y48802D02*
G01X54571Y48802D01*
G01X53951Y48301D02*
G01X54571Y48301D01*
G01X53951Y47801D02*
G01X54571Y47801D01*
G01X53951Y47301D02*
G01X54571Y47301D01*
G01X53951Y46800D02*
G01X54571Y46800D01*
G01X53951Y46300D02*
G01X54571Y46300D01*
G01X53262Y45611D02*
G01X53262Y44991D01*
G01X52762Y45611D02*
G01X52762Y44991D01*
G01X52261Y45611D02*
G01X52261Y44991D01*
G01X51761Y45611D02*
G01X51761Y44991D01*
G01X51260Y45611D02*
G01X51260Y44991D01*
G01X50760Y45611D02*
G01X50760Y44991D01*
G01X50260Y45611D02*
G01X50260Y44991D01*
G01X48951Y46300D02*
G01X49571Y46300D01*
G01X48951Y46800D02*
G01X49571Y46800D01*
G01X48951Y47301D02*
G01X49571Y47301D01*
G01X48951Y47801D02*
G01X49571Y47801D01*
G01X48951Y48301D02*
G01X49571Y48301D01*
G01X48951Y48802D02*
G01X49571Y48802D01*
G01X48951Y49302D02*
G01X49571Y49302D01*
G36*
G01X93222Y40558D02*
G01X93222Y41363D01*
G01X94576Y41363D01*
G01X94576Y40558D01*
G01X93222Y40558D01*
G37*
G36*
G01X93222Y41358D02*
G01X93222Y42163D01*
G01X94576Y42163D01*
G01X94576Y41358D01*
G01X93222Y41358D01*
G37*
G36*
G01X93222Y46959D02*
G01X93222Y47762D01*
G01X94576Y47762D01*
G01X94576Y46959D01*
G01X93222Y46959D01*
G37*
G36*
G01X93222Y46159D02*
G01X93222Y46962D01*
G01X94576Y46962D01*
G01X94576Y46159D01*
G01X93222Y46159D01*
G37*
G36*
G01X93146Y45659D02*
G01X93146Y46161D01*
G01X94649Y46161D01*
G01X94649Y45659D01*
G01X93146Y45659D01*
G37*
G36*
G01X93222Y45158D02*
G01X93222Y45664D01*
G01X94576Y45664D01*
G01X94576Y45158D01*
G01X93222Y45158D01*
G37*
G36*
G01X93146Y44660D02*
G01X93146Y45163D01*
G01X94649Y45163D01*
G01X94649Y44660D01*
G01X93146Y44660D01*
G37*
G36*
G01X93146Y44160D02*
G01X93146Y44663D01*
G01X94649Y44663D01*
G01X94649Y44160D01*
G01X93146Y44160D01*
G37*
G36*
G01X93146Y43660D02*
G01X93146Y44162D01*
G01X94649Y44162D01*
G01X94649Y43660D01*
G01X93146Y43660D01*
G37*
G36*
G01X93146Y43159D02*
G01X93146Y43662D01*
G01X94649Y43662D01*
G01X94649Y43159D01*
G01X93146Y43159D01*
G37*
G36*
G01X93146Y42659D02*
G01X93146Y43162D01*
G01X94649Y43162D01*
G01X94649Y42659D01*
G01X93146Y42659D01*
G37*
G36*
G01X93222Y42158D02*
G01X93222Y42661D01*
G01X94576Y42661D01*
G01X94576Y42158D01*
G01X93222Y42158D01*
G37*
G36*
G01X73684Y22600D02*
G01X73684Y24203D01*
G01X75038Y24203D01*
G01X75038Y22600D01*
G01X73684Y22600D01*
G37*
G36*
G01X75284Y20398D02*
G01X75284Y21582D01*
G01X75724Y22003D01*
G01X76638Y22003D01*
G01X76638Y20398D01*
G01X75284Y20398D01*
G37*
G36*
G01X73684Y20398D02*
G01X73684Y22003D01*
G01X75038Y22003D01*
G01X75038Y20398D01*
G01X73684Y20398D01*
G37*
G36*
G01X75284Y22600D02*
G01X75284Y24203D01*
G01X76638Y24203D01*
G01X76638Y22600D01*
G01X75284Y22600D01*
G37*
G36*
G01X82160Y39148D02*
G01X82160Y41252D01*
G01X83562Y41252D01*
G01X83562Y39148D01*
G01X82160Y39148D01*
G37*
G36*
G01X85360Y39148D02*
G01X85360Y41252D01*
G01X86763Y41252D01*
G01X86763Y39148D01*
G01X85360Y39148D01*
G37*
G36*
G01X31959Y20825D02*
G01X31959Y22578D01*
G01X33163Y22578D01*
G01X33163Y20825D01*
G01X31959Y20825D01*
G37*
G36*
G01X29961Y20825D02*
G01X29961Y22578D01*
G01X31162Y22578D01*
G01X31162Y20825D01*
G01X29961Y20825D01*
G37*
G54D83*
G01X11382Y21825D03*
G01X3382Y21952D03*
G36*
G01X28419Y26603D02*
G01X27573Y27810D01*
G01X28945Y28770D01*
G01X29788Y27564D01*
G01X28419Y26603D01*
G37*
G36*
G01X30778Y23233D02*
G01X29933Y24439D01*
G01X31304Y25399D01*
G01X32150Y24193D01*
G01X30778Y23233D01*
G37*
G36*
G01X72358Y6624D02*
G01X72358Y8376D01*
G01X73562Y8376D01*
G01X73562Y6624D01*
G01X72358Y6624D01*
G37*
G36*
G01X70359Y6624D02*
G01X70359Y8376D01*
G01X71563Y8376D01*
G01X71563Y6624D01*
G01X70359Y6624D01*
G37*
G36*
G01X78985Y10800D02*
G01X78985Y12004D01*
G01X80738Y12004D01*
G01X80738Y10800D01*
G01X78985Y10800D01*
G37*
G36*
G01X78985Y8798D02*
G01X78985Y10002D01*
G01X80738Y10002D01*
G01X80738Y8798D01*
G01X78985Y8798D01*
G37*
G36*
G01X92508Y64899D02*
G01X92508Y65803D01*
G01X94012Y65803D01*
G01X94012Y64899D01*
G01X92508Y64899D01*
G37*
G36*
G01X86509Y64899D02*
G01X86509Y65803D01*
G01X88012Y65803D01*
G01X88012Y64899D01*
G01X86509Y64899D01*
G37*
G36*
G01X92508Y68600D02*
G01X92508Y69501D01*
G01X94012Y69501D01*
G01X94012Y68600D01*
G01X92508Y68600D01*
G37*
G36*
G01X86509Y68600D02*
G01X86509Y69501D01*
G01X88012Y69501D01*
G01X88012Y68600D01*
G01X86509Y68600D01*
G37*
G54D87*
G01X71341Y15101D03*
G01X68801Y15101D03*
G01X66261Y15101D03*
G01X63721Y15101D03*
G36*
G01X60291Y14211D02*
G01X60291Y15989D01*
G01X62069Y15989D01*
G01X62069Y14211D01*
G01X60291Y14211D01*
G37*
G36*
G01X82249Y44998D02*
G01X82249Y46202D01*
G01X83001Y46202D01*
G01X83001Y44998D01*
G01X82249Y44998D01*
G37*
G36*
G01X83199Y44998D02*
G01X83199Y46202D01*
G01X83951Y46202D01*
G01X83951Y44998D01*
G01X83199Y44998D01*
G37*
G36*
G01X84149Y44998D02*
G01X84149Y46202D01*
G01X84901Y46202D01*
G01X84901Y44998D01*
G01X84149Y44998D01*
G37*
G36*
G01X84149Y42199D02*
G01X84149Y43403D01*
G01X84901Y43403D01*
G01X84901Y42199D01*
G01X84149Y42199D01*
G37*
G36*
G01X83199Y42199D02*
G01X83199Y43403D01*
G01X83951Y43403D01*
G01X83951Y42199D01*
G01X83199Y42199D01*
G37*
G36*
G01X82249Y42199D02*
G01X82249Y43403D01*
G01X83001Y43403D01*
G01X83001Y42199D01*
G01X82249Y42199D01*
G37*
G36*
G01X24825Y26306D02*
G01X24825Y27779D01*
G01X26498Y27779D01*
G01X26498Y26306D01*
G01X24825Y26306D01*
G37*
G36*
G01X24825Y30421D02*
G01X24825Y31894D01*
G01X26498Y31894D01*
G01X26498Y30421D01*
G01X24825Y30421D01*
G37*
G36*
G01X47360Y25849D02*
G01X47360Y27152D01*
G01X48563Y27152D01*
G01X48563Y25849D01*
G01X47360Y25849D01*
G37*
G36*
G01X45559Y25849D02*
G01X45559Y27152D01*
G01X46763Y27152D01*
G01X46763Y25849D01*
G01X45559Y25849D01*
G37*
G36*
G01X33809Y19298D02*
G01X33809Y20502D01*
G01X35112Y20502D01*
G01X35112Y19298D01*
G01X33809Y19298D01*
G37*
G36*
G01X33809Y21099D02*
G01X33809Y22303D01*
G01X35112Y22303D01*
G01X35112Y21099D01*
G01X33809Y21099D01*
G37*
G36*
G01X83760Y46748D02*
G01X83760Y48054D01*
G01X84962Y48054D01*
G01X84962Y46748D01*
G01X83760Y46748D01*
G37*
G36*
G01X81959Y46748D02*
G01X81959Y48054D01*
G01X83163Y48054D01*
G01X83163Y46748D01*
G01X81959Y46748D01*
G37*
G36*
G01X23158Y32550D02*
G01X23158Y34653D01*
G01X24563Y34653D01*
G01X24563Y32550D01*
G01X23158Y32550D01*
G37*
G36*
G01X26359Y32550D02*
G01X26359Y34653D01*
G01X27763Y34653D01*
G01X27763Y32550D01*
G01X26359Y32550D01*
G37*
G36*
G01X17634Y28620D02*
G01X17634Y31381D01*
G01X21286Y31381D01*
G01X21286Y28620D01*
G01X17634Y28620D01*
G37*
G36*
G01X22610Y27698D02*
G01X22610Y28902D01*
G01X23913Y28902D01*
G01X23913Y27698D01*
G01X22610Y27698D01*
G37*
G36*
G01X22610Y29499D02*
G01X22610Y30703D01*
G01X23913Y30703D01*
G01X23913Y29499D01*
G01X22610Y29499D01*
G37*
G36*
G01X40931Y19425D02*
G01X37451Y20693D01*
G01X38271Y22951D01*
G01X41751Y21686D01*
G01X40931Y19425D01*
G37*
G36*
G01X39760Y26448D02*
G01X38536Y26893D01*
G01X39359Y29151D01*
G01X40583Y28707D01*
G01X39760Y26448D01*
G37*
G36*
G01X41921Y25661D02*
G01X40697Y26106D01*
G01X41520Y28364D01*
G01X42744Y27919D01*
G01X41921Y25661D01*
G37*
G36*
G01X44083Y24874D02*
G01X42859Y25321D01*
G01X43682Y27579D01*
G01X44906Y27132D01*
G01X44083Y24874D01*
G37*
G36*
G01X28409Y19499D02*
G01X28409Y20502D01*
G01X29112Y20502D01*
G01X29112Y19499D01*
G01X28409Y19499D01*
G37*
G36*
G01X27410Y19499D02*
G01X27410Y20502D01*
G01X28111Y20502D01*
G01X28111Y19499D01*
G01X27410Y19499D01*
G37*
G36*
G01X86460Y29400D02*
G01X86460Y31401D01*
G01X88462Y31401D01*
G01X88462Y29400D01*
G01X86460Y29400D01*
G37*
G54D98*
G01X87461Y32901D03*
G01X87461Y35401D03*
G36*
G01X86460Y8199D02*
G01X86460Y10203D01*
G01X88462Y10203D01*
G01X88462Y8199D01*
G01X86460Y8199D01*
G37*
G01X87461Y11701D03*
G01X87461Y14201D03*
G36*
G01X86460Y18798D02*
G01X86460Y20802D01*
G01X88462Y20802D01*
G01X88462Y18798D01*
G01X86460Y18798D01*
G37*
G01X87461Y22301D03*
G01X87461Y24801D03*
G36*
G01X14609Y51399D02*
G01X14609Y52402D01*
G01X15312Y52402D01*
G01X15312Y51399D01*
G01X14609Y51399D01*
G37*
G36*
G01X13608Y51399D02*
G01X13608Y52402D01*
G01X14312Y52402D01*
G01X14312Y51399D01*
G01X13608Y51399D01*
G37*
G36*
G01X18310Y45498D02*
G01X18310Y46502D01*
G01X19013Y46502D01*
G01X19013Y45498D01*
G01X18310Y45498D01*
G37*
G36*
G01X19310Y45498D02*
G01X19310Y46502D01*
G01X20011Y46502D01*
G01X20011Y45498D01*
G01X19310Y45498D01*
G37*
G36*
G01X12610Y49900D02*
G01X12610Y50904D01*
G01X13313Y50904D01*
G01X13313Y49900D01*
G01X12610Y49900D01*
G37*
G36*
G01X13611Y49900D02*
G01X13611Y50904D01*
G01X14312Y50904D01*
G01X14312Y49900D01*
G01X13611Y49900D01*
G37*
G36*
G01X8909Y45498D02*
G01X8909Y46502D01*
G01X9613Y46502D01*
G01X9613Y45498D01*
G01X8909Y45498D01*
G37*
G36*
G01X7908Y45498D02*
G01X7908Y46502D01*
G01X8612Y46502D01*
G01X8612Y45498D01*
G01X7908Y45498D01*
G37*
G36*
G01X32208Y55300D02*
G01X32208Y56304D01*
G01X32912Y56304D01*
G01X32912Y55300D01*
G01X32208Y55300D01*
G37*
G36*
G01X31210Y55300D02*
G01X31210Y56304D01*
G01X31911Y56304D01*
G01X31911Y55300D01*
G01X31210Y55300D01*
G37*
G36*
G01X35909Y49400D02*
G01X35909Y50403D01*
G01X36613Y50403D01*
G01X36613Y49400D01*
G01X35909Y49400D01*
G37*
G36*
G01X36910Y49400D02*
G01X36910Y50403D01*
G01X37614Y50403D01*
G01X37614Y49400D01*
G01X36910Y49400D01*
G37*
G36*
G01X30209Y53799D02*
G01X30209Y54803D01*
G01X30913Y54803D01*
G01X30913Y53799D01*
G01X30209Y53799D01*
G37*
G36*
G01X31210Y53799D02*
G01X31210Y54803D01*
G01X31914Y54803D01*
G01X31914Y53799D01*
G01X31210Y53799D01*
G37*
G36*
G01X26610Y49400D02*
G01X26610Y50403D01*
G01X27311Y50403D01*
G01X27311Y49400D01*
G01X26610Y49400D01*
G37*
G36*
G01X25609Y49400D02*
G01X25609Y50403D01*
G01X26313Y50403D01*
G01X26313Y49400D01*
G01X25609Y49400D01*
G37*
G36*
G01X52409Y55300D02*
G01X52409Y56304D01*
G01X53113Y56304D01*
G01X53113Y55300D01*
G01X52409Y55300D01*
G37*
G36*
G01X51408Y55300D02*
G01X51408Y56304D01*
G01X52112Y56304D01*
G01X52112Y55300D01*
G01X51408Y55300D01*
G37*
G36*
G01X56008Y49400D02*
G01X56008Y50403D01*
G01X56712Y50403D01*
G01X56712Y49400D01*
G01X56008Y49400D01*
G37*
G36*
G01X57009Y49400D02*
G01X57009Y50403D01*
G01X57713Y50403D01*
G01X57713Y49400D01*
G01X57009Y49400D01*
G37*
G36*
G01X50410Y53799D02*
G01X50410Y54803D01*
G01X51114Y54803D01*
G01X51114Y53799D01*
G01X50410Y53799D01*
G37*
G36*
G01X51408Y53799D02*
G01X51408Y54803D01*
G01X52112Y54803D01*
G01X52112Y53799D01*
G01X51408Y53799D01*
G37*
G36*
G01X46808Y49400D02*
G01X46808Y50403D01*
G01X47512Y50403D01*
G01X47512Y49400D01*
G01X46808Y49400D01*
G37*
G36*
G01X45810Y49400D02*
G01X45810Y50403D01*
G01X46511Y50403D01*
G01X46511Y49400D01*
G01X45810Y49400D01*
G37*
G36*
G01X72610Y55300D02*
G01X72610Y56304D01*
G01X73313Y56304D01*
G01X73313Y55300D01*
G01X72610Y55300D01*
G37*
G36*
G01X71609Y55300D02*
G01X71609Y56304D01*
G01X72312Y56304D01*
G01X72312Y55300D01*
G01X71609Y55300D01*
G37*
G36*
G01X76209Y49400D02*
G01X76209Y50403D01*
G01X76912Y50403D01*
G01X76912Y49400D01*
G01X76209Y49400D01*
G37*
G36*
G01X77210Y49400D02*
G01X77210Y50403D01*
G01X77913Y50403D01*
G01X77913Y49400D01*
G01X77210Y49400D01*
G37*
G36*
G01X70608Y53799D02*
G01X70608Y54803D01*
G01X71312Y54803D01*
G01X71312Y53799D01*
G01X70608Y53799D01*
G37*
G36*
G01X71609Y53799D02*
G01X71609Y54803D01*
G01X72312Y54803D01*
G01X72312Y53799D01*
G01X71609Y53799D01*
G37*
G36*
G01X67009Y49400D02*
G01X67009Y50403D01*
G01X67713Y50403D01*
G01X67713Y49400D01*
G01X67009Y49400D01*
G37*
G36*
G01X66008Y49400D02*
G01X66008Y50403D01*
G01X66712Y50403D01*
G01X66712Y49400D01*
G01X66008Y49400D01*
G37*
G36*
G01X73163Y13002D02*
G01X73163Y14297D01*
G01X74357Y14297D01*
G01X74357Y13002D01*
G01X73163Y13002D01*
G37*
G36*
G01X73163Y14704D02*
G01X73163Y15999D01*
G01X74357Y15999D01*
G01X74357Y14704D01*
G01X73163Y14704D01*
G37*
G54D100*
G01X5061Y14541D03*
G01X5061Y9461D03*
G36*
G01X17360Y36050D02*
G01X17360Y36753D01*
G01X18363Y36753D01*
G01X18363Y36050D01*
G01X17360Y36050D01*
G37*
G36*
G01X17360Y37050D02*
G01X17360Y37751D01*
G01X18363Y37751D01*
G01X18363Y37050D01*
G01X17360Y37050D01*
G37*
G36*
G01X12508Y36700D02*
G01X12508Y37703D01*
G01X13212Y37703D01*
G01X13212Y36700D01*
G01X12508Y36700D01*
G37*
G36*
G01X11510Y36700D02*
G01X11510Y37703D01*
G01X12214Y37703D01*
G01X12214Y36700D01*
G01X11510Y36700D01*
G37*
G36*
G01X13608Y36700D02*
G01X13608Y37703D01*
G01X14312Y37703D01*
G01X14312Y36700D01*
G01X13608Y36700D01*
G37*
G36*
G01X14609Y36700D02*
G01X14609Y37703D01*
G01X15312Y37703D01*
G01X15312Y36700D01*
G01X14609Y36700D01*
G37*
G36*
G01X29709Y45948D02*
G01X29709Y49651D01*
G01X33412Y49651D01*
G01X33412Y45948D01*
G01X29709Y45948D01*
G37*
G36*
G01X12109Y42049D02*
G01X12109Y45752D01*
G01X15813Y45752D01*
G01X15813Y42049D01*
G01X12109Y42049D01*
G37*
G36*
G01X70110Y45951D02*
G01X70110Y49654D01*
G01X73814Y49654D01*
G01X73814Y45951D01*
G01X70110Y45951D01*
G37*
G36*
G01X49910Y45951D02*
G01X49910Y49654D01*
G01X53613Y49654D01*
G01X53613Y45951D01*
G01X49910Y45951D01*
G37*
G36*
G01X28310Y21048D02*
G01X28310Y22552D01*
G01X29112Y22552D01*
G01X29112Y21048D01*
G01X28310Y21048D01*
G37*
G36*
G01X27360Y23449D02*
G01X27360Y24952D01*
G01X28162Y24952D01*
G01X28162Y23449D01*
G01X27360Y23449D01*
G37*
G36*
G01X26410Y21048D02*
G01X26410Y22552D01*
G01X27212Y22552D01*
G01X27212Y21048D01*
G01X26410Y21048D01*
G37*
G36*
G01X2760Y52489D02*
G01X2760Y54493D01*
G01X4761Y54493D01*
G01X4761Y52489D01*
G01X2760Y52489D01*
G37*
G54D98*
G01X3761Y56031D03*
G01X3761Y58571D03*
G01X3761Y61111D03*
G36*
G01X26750Y65498D02*
G01X26750Y67503D01*
G01X28751Y67503D01*
G01X28751Y65498D01*
G01X26750Y65498D01*
G37*
G01X30291Y66501D03*
G01X32831Y66501D03*
G01X35371Y66501D03*
G36*
G01X46940Y65498D02*
G01X46940Y67503D01*
G01X48942Y67503D01*
G01X48942Y65498D01*
G01X46940Y65498D01*
G37*
G01X50481Y66501D03*
G01X53021Y66501D03*
G01X55561Y66501D03*
G36*
G01X67149Y65498D02*
G01X67149Y67503D01*
G01X69153Y67503D01*
G01X69153Y65498D01*
G01X67149Y65498D01*
G37*
G01X70691Y66501D03*
G01X73231Y66501D03*
G01X75771Y66501D03*
G36*
G01X81258Y27500D02*
G01X81258Y28902D01*
G01X82462Y28902D01*
G01X82462Y27500D01*
G01X81258Y27500D01*
G37*
G36*
G01X81258Y30299D02*
G01X81258Y31701D01*
G01X82462Y31701D01*
G01X82462Y30299D01*
G01X81258Y30299D01*
G37*
G36*
G01X83059Y30299D02*
G01X83059Y31701D01*
G01X84263Y31701D01*
G01X84263Y30299D01*
G01X83059Y30299D01*
G37*
G36*
G01X83059Y27500D02*
G01X83059Y28902D01*
G01X84263Y28902D01*
G01X84263Y27500D01*
G01X83059Y27500D01*
G37*
G36*
G01X10758Y38049D02*
G01X10758Y38752D01*
G01X11761Y38752D01*
G01X11761Y38049D01*
G01X10758Y38049D01*
G37*
G36*
G01X10758Y39049D02*
G01X10758Y39753D01*
G01X11761Y39753D01*
G01X11761Y39049D01*
G01X10758Y39049D01*
G37*
G36*
G01X28660Y41950D02*
G01X28660Y42654D01*
G01X29663Y42654D01*
G01X29663Y41950D01*
G01X28660Y41950D01*
G37*
G36*
G01X28660Y42948D02*
G01X28660Y43652D01*
G01X29663Y43652D01*
G01X29663Y42948D01*
G01X28660Y42948D01*
G37*
G36*
G01X48858Y41950D02*
G01X48858Y42654D01*
G01X49861Y42654D01*
G01X49861Y41950D01*
G01X48858Y41950D01*
G37*
G36*
G01X48858Y42948D02*
G01X48858Y43652D01*
G01X49861Y43652D01*
G01X49861Y42948D01*
G01X48858Y42948D01*
G37*
G36*
G01X69059Y41950D02*
G01X69059Y42654D01*
G01X70062Y42654D01*
G01X70062Y41950D01*
G01X69059Y41950D01*
G37*
G36*
G01X69059Y42948D02*
G01X69059Y43652D01*
G01X70062Y43652D01*
G01X70062Y42948D01*
G01X69059Y42948D01*
G37*
G36*
G01X6410Y38524D02*
G01X6410Y39977D01*
G01X7311Y39977D01*
G01X7311Y38524D01*
G01X6410Y38524D01*
G37*
G36*
G01X7360Y36024D02*
G01X7360Y37477D01*
G01X8261Y37477D01*
G01X8261Y36024D01*
G01X7360Y36024D01*
G37*
G36*
G01X5460Y36024D02*
G01X5460Y37477D01*
G01X6361Y37477D01*
G01X6361Y36024D01*
G01X5460Y36024D01*
G37*
G36*
G01X9508Y36225D02*
G01X9508Y37678D01*
G01X10413Y37678D01*
G01X10413Y36225D01*
G01X9508Y36225D01*
G37*
G36*
G01X10458Y33726D02*
G01X10458Y35178D01*
G01X11363Y35178D01*
G01X11363Y33726D01*
G01X10458Y33726D01*
G37*
G36*
G01X8558Y33726D02*
G01X8558Y35178D01*
G01X9463Y35178D01*
G01X9463Y33726D01*
G01X8558Y33726D01*
G37*
G36*
G01X39186Y45049D02*
G01X39186Y45953D01*
G01X40639Y45953D01*
G01X40639Y45049D01*
G01X39186Y45049D01*
G37*
G36*
G01X41685Y45999D02*
G01X41685Y46903D01*
G01X43138Y46903D01*
G01X43138Y45999D01*
G01X41685Y45999D01*
G37*
G36*
G01X41685Y44099D02*
G01X41685Y45003D01*
G01X43138Y45003D01*
G01X43138Y44099D01*
G01X41685Y44099D01*
G37*
G36*
G01X39186Y41650D02*
G01X39186Y42552D01*
G01X40639Y42552D01*
G01X40639Y41650D01*
G01X39186Y41650D01*
G37*
G36*
G01X41685Y42600D02*
G01X41685Y43502D01*
G01X43138Y43502D01*
G01X43138Y42600D01*
G01X41685Y42600D01*
G37*
G36*
G01X41685Y40700D02*
G01X41685Y41602D01*
G01X43138Y41602D01*
G01X43138Y40700D01*
G01X41685Y40700D01*
G37*
G36*
G01X67085Y38450D02*
G01X67085Y39352D01*
G01X68538Y39352D01*
G01X68538Y38450D01*
G01X67085Y38450D01*
G37*
G36*
G01X69585Y39400D02*
G01X69585Y40302D01*
G01X71037Y40302D01*
G01X71037Y39400D01*
G01X69585Y39400D01*
G37*
G36*
G01X69585Y37500D02*
G01X69585Y38402D01*
G01X71037Y38402D01*
G01X71037Y37500D01*
G01X69585Y37500D01*
G37*
G36*
G01X73008Y38925D02*
G01X73008Y40378D01*
G01X73913Y40378D01*
G01X73913Y38925D01*
G01X73008Y38925D01*
G37*
G36*
G01X73958Y36426D02*
G01X73958Y37878D01*
G01X74863Y37878D01*
G01X74863Y36426D01*
G01X73958Y36426D01*
G37*
G36*
G01X72058Y36426D02*
G01X72058Y37878D01*
G01X72963Y37878D01*
G01X72963Y36426D01*
G01X72058Y36426D01*
G37*
G36*
G01X59186Y45049D02*
G01X59186Y45953D01*
G01X60639Y45953D01*
G01X60639Y45049D01*
G01X59186Y45049D01*
G37*
G36*
G01X61685Y45999D02*
G01X61685Y46903D01*
G01X63138Y46903D01*
G01X63138Y45999D01*
G01X61685Y45999D01*
G37*
G36*
G01X61685Y44099D02*
G01X61685Y45003D01*
G01X63138Y45003D01*
G01X63138Y44099D01*
G01X61685Y44099D01*
G37*
G36*
G01X59186Y41650D02*
G01X59186Y42552D01*
G01X60639Y42552D01*
G01X60639Y41650D01*
G01X59186Y41650D01*
G37*
G36*
G01X61685Y42600D02*
G01X61685Y43502D01*
G01X63138Y43502D01*
G01X63138Y42600D01*
G01X61685Y42600D01*
G37*
G36*
G01X61685Y40700D02*
G01X61685Y41602D01*
G01X63138Y41602D01*
G01X63138Y40700D01*
G01X61685Y40700D01*
G37*
G36*
G01X7459Y40149D02*
G01X7459Y41452D01*
G01X8663Y41452D01*
G01X8663Y40149D01*
G01X7459Y40149D01*
G37*
G36*
G01X9260Y40149D02*
G01X9260Y41452D01*
G01X10463Y41452D01*
G01X10463Y40149D01*
G01X9260Y40149D01*
G37*
G36*
G01X25358Y44048D02*
G01X25358Y45354D01*
G01X26562Y45354D01*
G01X26562Y44048D01*
G01X25358Y44048D01*
G37*
G36*
G01X27159Y44048D02*
G01X27159Y45354D01*
G01X28363Y45354D01*
G01X28363Y44048D01*
G01X27159Y44048D01*
G37*
G36*
G01X9460Y48249D02*
G01X9460Y49552D01*
G01X10662Y49552D01*
G01X10662Y48249D01*
G01X9460Y48249D01*
G37*
G36*
G01X7659Y48249D02*
G01X7659Y49552D01*
G01X8863Y49552D01*
G01X8863Y48249D01*
G01X7659Y48249D01*
G37*
G36*
G01X17261Y48249D02*
G01X17261Y49552D01*
G01X18462Y49552D01*
G01X18462Y48249D01*
G01X17261Y48249D01*
G37*
G36*
G01X19059Y48249D02*
G01X19059Y49552D01*
G01X20263Y49552D01*
G01X20263Y48249D01*
G01X19059Y48249D01*
G37*
G36*
G01X34860Y52148D02*
G01X34860Y53451D01*
G01X36062Y53451D01*
G01X36062Y52148D01*
G01X34860Y52148D01*
G37*
G36*
G01X36658Y52148D02*
G01X36658Y53451D01*
G01X37862Y53451D01*
G01X37862Y52148D01*
G01X36658Y52148D01*
G37*
G36*
G01X27060Y52148D02*
G01X27060Y53451D01*
G01X28261Y53451D01*
G01X28261Y52148D01*
G01X27060Y52148D01*
G37*
G36*
G01X25259Y52148D02*
G01X25259Y53451D01*
G01X26463Y53451D01*
G01X26463Y52148D01*
G01X25259Y52148D01*
G37*
G36*
G01X75259Y52148D02*
G01X75259Y53451D01*
G01X76463Y53451D01*
G01X76463Y52148D01*
G01X75259Y52148D01*
G37*
G36*
G01X77060Y52148D02*
G01X77060Y53451D01*
G01X78264Y53451D01*
G01X78264Y52148D01*
G01X77060Y52148D01*
G37*
G36*
G01X67459Y52148D02*
G01X67459Y53451D01*
G01X68662Y53451D01*
G01X68662Y52148D01*
G01X67459Y52148D01*
G37*
G36*
G01X65660Y52148D02*
G01X65660Y53451D01*
G01X66862Y53451D01*
G01X66862Y52148D01*
G01X65660Y52148D01*
G37*
G36*
G01X47260Y52148D02*
G01X47260Y53451D01*
G01X48462Y53451D01*
G01X48462Y52148D01*
G01X47260Y52148D01*
G37*
G36*
G01X45460Y52148D02*
G01X45460Y53451D01*
G01X46664Y53451D01*
G01X46664Y52148D01*
G01X45460Y52148D01*
G37*
G36*
G01X55058Y52148D02*
G01X55058Y53451D01*
G01X56262Y53451D01*
G01X56262Y52148D01*
G01X55058Y52148D01*
G37*
G36*
G01X56859Y52148D02*
G01X56859Y53451D01*
G01X58063Y53451D01*
G01X58063Y52148D01*
G01X56859Y52148D01*
G37*
G36*
G01X45559Y44048D02*
G01X45559Y45354D01*
G01X46763Y45354D01*
G01X46763Y44048D01*
G01X45559Y44048D01*
G37*
G36*
G01X47360Y44048D02*
G01X47360Y45354D01*
G01X48563Y45354D01*
G01X48563Y44048D01*
G01X47360Y44048D01*
G37*
G36*
G01X65759Y44048D02*
G01X65759Y45354D01*
G01X66963Y45354D01*
G01X66963Y44048D01*
G01X65759Y44048D01*
G37*
G36*
G01X67560Y44048D02*
G01X67560Y45354D01*
G01X68762Y45354D01*
G01X68762Y44048D01*
G01X67560Y44048D01*
G37*
G36*
G01X14959Y39049D02*
G01X14959Y39753D01*
G01X15963Y39753D01*
G01X15963Y39049D01*
G01X14959Y39049D01*
G37*
G36*
G01X14959Y38049D02*
G01X14959Y38752D01*
G01X15963Y38752D01*
G01X15963Y38049D01*
G01X14959Y38049D01*
G37*
G36*
G01X12160Y38049D02*
G01X12160Y38752D01*
G01X13163Y38752D01*
G01X13163Y38049D01*
G01X12160Y38049D01*
G37*
G36*
G01X12160Y39049D02*
G01X12160Y39753D01*
G01X13163Y39753D01*
G01X13163Y39049D01*
G01X12160Y39049D01*
G37*
G36*
G01X13560Y38049D02*
G01X13560Y38752D01*
G01X14563Y38752D01*
G01X14563Y38049D01*
G01X13560Y38049D01*
G37*
G36*
G01X13560Y39049D02*
G01X13560Y39753D01*
G01X14563Y39753D01*
G01X14563Y39049D01*
G01X13560Y39049D01*
G37*
G36*
G01X45663Y22405D02*
G01X45663Y23599D01*
G01X46958Y23599D01*
G01X46958Y22405D01*
G01X45663Y22405D01*
G37*
G36*
G01X47365Y22405D02*
G01X47365Y23599D01*
G01X48660Y23599D01*
G01X48660Y22405D01*
G01X47365Y22405D01*
G37*
G36*
G01X8759Y42948D02*
G01X8759Y43652D01*
G01X9762Y43652D01*
G01X9762Y42948D01*
G01X8759Y42948D01*
G37*
G36*
G01X8759Y41950D02*
G01X8759Y42651D01*
G01X9762Y42651D01*
G01X9762Y41950D01*
G01X8759Y41950D01*
G37*
G36*
G01X26260Y46850D02*
G01X26260Y47553D01*
G01X27263Y47553D01*
G01X27263Y46850D01*
G01X26260Y46850D01*
G37*
G36*
G01X26260Y45849D02*
G01X26260Y46553D01*
G01X27263Y46553D01*
G01X27263Y45849D01*
G01X26260Y45849D01*
G37*
G36*
G01X66658Y46850D02*
G01X66658Y47553D01*
G01X67662Y47553D01*
G01X67662Y46850D01*
G01X66658Y46850D01*
G37*
G36*
G01X66658Y45849D02*
G01X66658Y46553D01*
G01X67662Y46553D01*
G01X67662Y45849D01*
G01X66658Y45849D01*
G37*
G36*
G01X46460Y46850D02*
G01X46460Y47553D01*
G01X47461Y47553D01*
G01X47461Y46850D01*
G01X46460Y46850D01*
G37*
G36*
G01X46460Y45849D02*
G01X46460Y46553D01*
G01X47461Y46553D01*
G01X47461Y45849D01*
G01X46460Y45849D01*
G37*
G36*
G01X9734Y38930D02*
G01X9734Y39453D01*
G01X10258Y39453D01*
G01X10258Y38930D01*
G01X9734Y38930D01*
G37*
G36*
G01X9734Y38150D02*
G01X9734Y38674D01*
G01X10258Y38674D01*
G01X10258Y38150D01*
G01X9734Y38150D01*
G37*
G36*
G01X8665Y38150D02*
G01X8665Y38674D01*
G01X9188Y38674D01*
G01X9188Y38150D01*
G01X8665Y38150D01*
G37*
G36*
G01X8665Y38930D02*
G01X8665Y39453D01*
G01X9188Y39453D01*
G01X9188Y38930D01*
G01X8665Y38930D01*
G37*
G36*
G01X27634Y42829D02*
G01X27634Y43352D01*
G01X28157Y43352D01*
G01X28157Y42829D01*
G01X27634Y42829D01*
G37*
G36*
G01X27634Y42049D02*
G01X27634Y42572D01*
G01X28157Y42572D01*
G01X28157Y42049D01*
G01X27634Y42049D01*
G37*
G36*
G01X26565Y42049D02*
G01X26565Y42572D01*
G01X27088Y42572D01*
G01X27088Y42049D01*
G01X26565Y42049D01*
G37*
G36*
G01X26565Y42829D02*
G01X26565Y43352D01*
G01X27088Y43352D01*
G01X27088Y42829D01*
G01X26565Y42829D01*
G37*
G36*
G01X68035Y42829D02*
G01X68035Y43352D01*
G01X68558Y43352D01*
G01X68558Y42829D01*
G01X68035Y42829D01*
G37*
G36*
G01X68035Y42049D02*
G01X68035Y42572D01*
G01X68558Y42572D01*
G01X68558Y42049D01*
G01X68035Y42049D01*
G37*
G36*
G01X66963Y42049D02*
G01X66963Y42572D01*
G01X67486Y42572D01*
G01X67486Y42049D01*
G01X66963Y42049D01*
G37*
G36*
G01X66963Y42829D02*
G01X66963Y43352D01*
G01X67486Y43352D01*
G01X67486Y42829D01*
G01X66963Y42829D01*
G37*
G36*
G01X47834Y42829D02*
G01X47834Y43352D01*
G01X48358Y43352D01*
G01X48358Y42829D01*
G01X47834Y42829D01*
G37*
G36*
G01X47834Y42049D02*
G01X47834Y42572D01*
G01X48358Y42572D01*
G01X48358Y42049D01*
G01X47834Y42049D01*
G37*
G36*
G01X46765Y42049D02*
G01X46765Y42572D01*
G01X47288Y42572D01*
G01X47288Y42049D01*
G01X46765Y42049D01*
G37*
G36*
G01X46765Y42829D02*
G01X46765Y43352D01*
G01X47288Y43352D01*
G01X47288Y42829D01*
G01X46765Y42829D01*
G37*
G36*
G01X43389Y3804D02*
G01X43389Y4328D01*
G01X43913Y4328D01*
G01X43913Y3804D01*
G01X43389Y3804D01*
G37*
G36*
G01X42610Y3804D02*
G01X42610Y4328D01*
G01X43133Y4328D01*
G01X43133Y3804D01*
G01X42610Y3804D01*
G37*
G36*
G01X42610Y4874D02*
G01X42610Y5397D01*
G01X43133Y5397D01*
G01X43133Y4874D01*
G01X42610Y4874D01*
G37*
G36*
G01X43389Y4874D02*
G01X43389Y5397D01*
G01X43913Y5397D01*
G01X43913Y4874D01*
G01X43389Y4874D01*
G37*
G36*
G01X15048Y61462D02*
G01X12782Y63728D01*
G01X13633Y64579D01*
G01X15899Y62313D01*
G01X15048Y61462D01*
G37*
G36*
G01X11088Y65422D02*
G01X8823Y67688D01*
G01X9674Y68539D01*
G01X11939Y66273D01*
G01X11088Y65422D01*
G37*
G36*
G01X3059Y44998D02*
G01X3059Y48204D01*
G01X4263Y48204D01*
G01X4263Y44998D01*
G01X3059Y44998D01*
G37*
G36*
G01X3059Y39400D02*
G01X3059Y42603D01*
G01X4263Y42603D01*
G01X4263Y39400D01*
G01X3059Y39400D01*
G37*
G36*
G01X61258Y49199D02*
G01X61258Y52402D01*
G01X62462Y52402D01*
G01X62462Y49199D01*
G01X61258Y49199D01*
G37*
G36*
G01X61258Y54800D02*
G01X61258Y58003D01*
G01X62462Y58003D01*
G01X62462Y54800D01*
G01X61258Y54800D01*
G37*
G36*
G01X41060Y49199D02*
G01X41060Y52402D01*
G01X42262Y52402D01*
G01X42262Y49199D01*
G01X41060Y49199D01*
G37*
G36*
G01X41060Y54800D02*
G01X41060Y58003D01*
G01X42262Y58003D01*
G01X42262Y54800D01*
G01X41060Y54800D01*
G37*
G36*
G01X15810Y57950D02*
G01X15810Y59753D01*
G01X19313Y59753D01*
G01X19313Y57950D01*
G01X15810Y57950D01*
G37*
G36*
G01X15810Y51450D02*
G01X15810Y53253D01*
G01X19313Y53253D01*
G01X19313Y51450D01*
G01X15810Y51450D01*
G37*
G36*
G01X8609Y57950D02*
G01X8609Y59753D01*
G01X12112Y59753D01*
G01X12112Y57950D01*
G01X8609Y57950D01*
G37*
G36*
G01X8609Y51450D02*
G01X8609Y53253D01*
G01X12112Y53253D01*
G01X12112Y51450D01*
G01X8609Y51450D01*
G37*
G36*
G01X36910Y45199D02*
G01X36910Y46202D01*
G01X37614Y46202D01*
G01X37614Y45199D01*
G01X36910Y45199D01*
G37*
G36*
G01X35909Y45199D02*
G01X35909Y46202D01*
G01X36613Y46202D01*
G01X36613Y45199D01*
G01X35909Y45199D01*
G37*
G36*
G01X19310Y41300D02*
G01X19310Y42303D01*
G01X20011Y42303D01*
G01X20011Y41300D01*
G01X19310Y41300D01*
G37*
G36*
G01X18310Y41300D02*
G01X18310Y42303D01*
G01X19013Y42303D01*
G01X19013Y41300D01*
G01X18310Y41300D01*
G37*
G36*
G01X18708Y49999D02*
G01X18708Y51003D01*
G01X19412Y51003D01*
G01X19412Y49999D01*
G01X18708Y49999D01*
G37*
G36*
G01X17710Y49999D02*
G01X17710Y51003D01*
G01X18411Y51003D01*
G01X18411Y49999D01*
G01X17710Y49999D01*
G37*
G36*
G01X8510Y49999D02*
G01X8510Y51003D01*
G01X9214Y51003D01*
G01X9214Y49999D01*
G01X8510Y49999D01*
G37*
G36*
G01X9508Y49999D02*
G01X9508Y51003D01*
G01X10212Y51003D01*
G01X10212Y49999D01*
G01X9508Y49999D01*
G37*
G36*
G01X36308Y53898D02*
G01X36308Y54902D01*
G01X37012Y54902D01*
G01X37012Y53898D01*
G01X36308Y53898D01*
G37*
G36*
G01X35310Y53898D02*
G01X35310Y54902D01*
G01X36013Y54902D01*
G01X36013Y53898D01*
G01X35310Y53898D01*
G37*
G36*
G01X26110Y53898D02*
G01X26110Y54902D01*
G01X26813Y54902D01*
G01X26813Y53898D01*
G01X26110Y53898D01*
G37*
G36*
G01X27108Y53898D02*
G01X27108Y54902D01*
G01X27812Y54902D01*
G01X27812Y53898D01*
G01X27108Y53898D01*
G37*
G36*
G01X77210Y45199D02*
G01X77210Y46202D01*
G01X77913Y46202D01*
G01X77913Y45199D01*
G01X77210Y45199D01*
G37*
G36*
G01X76209Y45199D02*
G01X76209Y46202D01*
G01X76912Y46202D01*
G01X76912Y45199D01*
G01X76209Y45199D01*
G37*
G36*
G01X57009Y45199D02*
G01X57009Y46202D01*
G01X57713Y46202D01*
G01X57713Y45199D01*
G01X57009Y45199D01*
G37*
G36*
G01X56008Y45199D02*
G01X56008Y46202D01*
G01X56712Y46202D01*
G01X56712Y45199D01*
G01X56008Y45199D01*
G37*
G36*
G01X56509Y53898D02*
G01X56509Y54902D01*
G01X57212Y54902D01*
G01X57212Y53898D01*
G01X56509Y53898D01*
G37*
G36*
G01X55510Y53898D02*
G01X55510Y54902D01*
G01X56211Y54902D01*
G01X56211Y53898D01*
G01X55510Y53898D01*
G37*
G36*
G01X46310Y53898D02*
G01X46310Y54902D01*
G01X47012Y54902D01*
G01X47012Y53898D01*
G01X46310Y53898D01*
G37*
G36*
G01X47309Y53898D02*
G01X47309Y54902D01*
G01X48012Y54902D01*
G01X48012Y53898D01*
G01X47309Y53898D01*
G37*
G36*
G01X76709Y53898D02*
G01X76709Y54902D01*
G01X77413Y54902D01*
G01X77413Y53898D01*
G01X76709Y53898D01*
G37*
G36*
G01X75708Y53898D02*
G01X75708Y54902D01*
G01X76412Y54902D01*
G01X76412Y53898D01*
G01X75708Y53898D01*
G37*
G36*
G01X66509Y53898D02*
G01X66509Y54902D01*
G01X67212Y54902D01*
G01X67212Y53898D01*
G01X66509Y53898D01*
G37*
G36*
G01X67509Y53898D02*
G01X67509Y54902D01*
G01X68213Y54902D01*
G01X68213Y53898D01*
G01X67509Y53898D01*
G37*
G36*
G01X11660Y13200D02*
G01X11660Y13401D01*
G01X10959Y13401D01*
G01X10959Y14203D01*
G01X11660Y14203D01*
G01X11660Y15798D01*
G01X10959Y15798D01*
G01X10959Y16703D01*
G01X11660Y16703D01*
G01X11660Y17302D01*
G01X16062Y17302D01*
G01X16062Y16703D01*
G01X16763Y16703D01*
G01X16763Y15798D01*
G01X16062Y15798D01*
G01X16062Y14203D01*
G01X16763Y14203D01*
G01X16763Y13401D01*
G01X16062Y13401D01*
G01X16062Y13200D01*
G01X11660Y13200D01*
G37*
G36*
G01X15366Y16728D02*
G01X15366Y17950D01*
G01X16168Y17950D01*
G01X16168Y16728D01*
G01X15366Y16728D01*
G37*
G36*
G01X14096Y16728D02*
G01X14096Y17950D01*
G01X14898Y17950D01*
G01X14898Y16728D01*
G01X14096Y16728D01*
G37*
G36*
G01X12826Y16728D02*
G01X12826Y17950D01*
G01X13628Y17950D01*
G01X13628Y16728D01*
G01X12826Y16728D01*
G37*
G36*
G01X11553Y16728D02*
G01X11553Y17950D01*
G01X12356Y17950D01*
G01X12356Y16728D01*
G01X11553Y16728D01*
G37*
G36*
G01X15366Y11127D02*
G01X15366Y12600D01*
G01X16168Y12600D01*
G01X16168Y11127D01*
G01X15366Y11127D01*
G37*
G36*
G01X14096Y11127D02*
G01X14096Y12600D01*
G01X14898Y12600D01*
G01X14898Y11127D01*
G01X14096Y11127D01*
G37*
G36*
G01X12826Y11127D02*
G01X12826Y12600D01*
G01X13628Y12600D01*
G01X13628Y11127D01*
G01X12826Y11127D01*
G37*
G36*
G01X11556Y11127D02*
G01X11556Y12600D01*
G01X12358Y12600D01*
G01X12358Y11127D01*
G01X11556Y11127D01*
G37*
G36*
G01X39988Y31899D02*
G01X39988Y33903D01*
G01X41992Y33903D01*
G01X41992Y31899D01*
G01X39988Y31899D01*
G37*
G01X43531Y32901D03*
G36*
G01X96064Y57630D02*
G01X96064Y59634D01*
G01X98066Y59634D01*
G01X98066Y57630D01*
G01X96064Y57630D01*
G37*
G01X97065Y61171D03*
G36*
G01X84390Y2720D02*
G01X84390Y4724D01*
G01X86392Y4724D01*
G01X86392Y2720D01*
G01X84390Y2720D01*
G37*
G01X87931Y3722D03*
G36*
G01X76689Y2720D02*
G01X76689Y4724D01*
G01X78693Y4724D01*
G01X78693Y2720D01*
G01X76689Y2720D01*
G37*
G01X80231Y3722D03*
G36*
G01X53590Y2720D02*
G01X53590Y4724D01*
G01X55592Y4724D01*
G01X55592Y2720D01*
G01X53590Y2720D01*
G37*
G01X57131Y3722D03*
G36*
G01X61289Y2720D02*
G01X61289Y4724D01*
G01X63293Y4724D01*
G01X63293Y2720D01*
G01X61289Y2720D01*
G37*
G01X64831Y3722D03*
G36*
G01X68990Y2720D02*
G01X68990Y4724D01*
G01X70992Y4724D01*
G01X70992Y2720D01*
G01X68990Y2720D01*
G37*
G01X72531Y3722D03*
G36*
G01X37235Y11836D02*
G01X37235Y15539D01*
G01X41688Y15539D01*
G01X41688Y11836D01*
G01X37235Y11836D01*
G37*
G36*
G01X41015Y10891D02*
G01X41015Y12395D01*
G01X41718Y12395D01*
G01X41718Y10891D01*
G01X41015Y10891D01*
G37*
G36*
G01X39745Y10891D02*
G01X39745Y12395D01*
G01X40448Y12395D01*
G01X40448Y10891D01*
G01X39745Y10891D01*
G37*
G36*
G01X38475Y10891D02*
G01X38475Y12395D01*
G01X39178Y12395D01*
G01X39178Y10891D01*
G01X38475Y10891D01*
G37*
G36*
G01X37205Y10891D02*
G01X37205Y12395D01*
G01X37908Y12395D01*
G01X37908Y10891D01*
G01X37205Y10891D01*
G37*
G36*
G01X37205Y16606D02*
G01X37205Y18110D01*
G01X37908Y18110D01*
G01X37908Y16606D01*
G01X37205Y16606D01*
G37*
G36*
G01X38475Y16606D02*
G01X38475Y18110D01*
G01X39178Y18110D01*
G01X39178Y16606D01*
G01X38475Y16606D01*
G37*
G36*
G01X39745Y16606D02*
G01X39745Y18110D01*
G01X40448Y18110D01*
G01X40448Y16606D01*
G01X39745Y16606D01*
G37*
G36*
G01X41015Y16606D02*
G01X41015Y18110D01*
G01X41718Y18110D01*
G01X41718Y16606D01*
G01X41015Y16606D01*
G37*
G36*
G01X29135Y11836D02*
G01X29135Y15539D01*
G01X33588Y15539D01*
G01X33588Y11836D01*
G01X29135Y11836D01*
G37*
G36*
G01X32915Y10891D02*
G01X32915Y12395D01*
G01X33618Y12395D01*
G01X33618Y10891D01*
G01X32915Y10891D01*
G37*
G36*
G01X31645Y10891D02*
G01X31645Y12395D01*
G01X32348Y12395D01*
G01X32348Y10891D01*
G01X31645Y10891D01*
G37*
G36*
G01X30375Y10891D02*
G01X30375Y12395D01*
G01X31078Y12395D01*
G01X31078Y10891D01*
G01X30375Y10891D01*
G37*
G36*
G01X29105Y10891D02*
G01X29105Y12395D01*
G01X29808Y12395D01*
G01X29808Y10891D01*
G01X29105Y10891D01*
G37*
G36*
G01X29105Y16606D02*
G01X29105Y18110D01*
G01X29808Y18110D01*
G01X29808Y16606D01*
G01X29105Y16606D01*
G37*
G36*
G01X30375Y16606D02*
G01X30375Y18110D01*
G01X31078Y18110D01*
G01X31078Y16606D01*
G01X30375Y16606D01*
G37*
G36*
G01X31645Y16606D02*
G01X31645Y18110D01*
G01X32348Y18110D01*
G01X32348Y16606D01*
G01X31645Y16606D01*
G37*
G36*
G01X32915Y16606D02*
G01X32915Y18110D01*
G01X33618Y18110D01*
G01X33618Y16606D01*
G01X32915Y16606D01*
G37*
G36*
G01X7560Y32250D02*
G01X7560Y32953D01*
G01X8564Y32953D01*
G01X8564Y32250D01*
G01X7560Y32250D01*
G37*
G36*
G01X7560Y31249D02*
G01X7560Y31953D01*
G01X8564Y31953D01*
G01X8564Y31249D01*
G01X7560Y31249D01*
G37*
G36*
G01X22084Y12049D02*
G01X22084Y12953D01*
G01X23537Y12953D01*
G01X23537Y12049D01*
G01X22084Y12049D01*
G37*
G36*
G01X24583Y12999D02*
G01X24583Y13903D01*
G01X26036Y13903D01*
G01X26036Y12999D01*
G01X24583Y12999D01*
G37*
G36*
G01X24583Y11099D02*
G01X24583Y12004D01*
G01X26036Y12004D01*
G01X26036Y11099D01*
G01X24583Y11099D01*
G37*
G36*
G01X52285Y11348D02*
G01X52285Y12252D01*
G01X53737Y12252D01*
G01X53737Y11348D01*
G01X52285Y11348D01*
G37*
G36*
G01X54784Y12298D02*
G01X54784Y13202D01*
G01X56237Y13202D01*
G01X56237Y12298D01*
G01X54784Y12298D01*
G37*
G36*
G01X54784Y10398D02*
G01X54784Y11302D01*
G01X56237Y11302D01*
G01X56237Y10398D01*
G01X54784Y10398D01*
G37*
G36*
G01X52285Y7650D02*
G01X52285Y8552D01*
G01X53737Y8552D01*
G01X53737Y7650D01*
G01X52285Y7650D01*
G37*
G36*
G01X54784Y8600D02*
G01X54784Y9502D01*
G01X56237Y9502D01*
G01X56237Y8600D01*
G01X54784Y8600D01*
G37*
G36*
G01X54784Y6700D02*
G01X54784Y7602D01*
G01X56237Y7602D01*
G01X56237Y6700D01*
G01X54784Y6700D01*
G37*
G36*
G01X63008Y6598D02*
G01X63008Y7802D01*
G01X64311Y7802D01*
G01X64311Y6598D01*
G01X63008Y6598D01*
G37*
G36*
G01X63008Y8399D02*
G01X63008Y9603D01*
G01X64311Y9603D01*
G01X64311Y8399D01*
G01X63008Y8399D01*
G37*
G36*
G01X81258Y6850D02*
G01X81258Y8153D01*
G01X82462Y8153D01*
G01X82462Y6850D01*
G01X81258Y6850D01*
G37*
G36*
G01X83059Y6850D02*
G01X83059Y8153D01*
G01X84263Y8153D01*
G01X84263Y6850D01*
G01X83059Y6850D01*
G37*
G36*
G01X79460Y6850D02*
G01X79460Y8153D01*
G01X80661Y8153D01*
G01X80661Y6850D01*
G01X79460Y6850D01*
G37*
G36*
G01X77659Y6850D02*
G01X77659Y8153D01*
G01X78863Y8153D01*
G01X78863Y6850D01*
G01X77659Y6850D01*
G37*
G36*
G01X30458Y33225D02*
G01X30458Y34978D01*
G01X31662Y34978D01*
G01X31662Y33225D01*
G01X30458Y33225D01*
G37*
G36*
G01X28459Y33225D02*
G01X28459Y34978D01*
G01X29663Y34978D01*
G01X29663Y33225D01*
G01X28459Y33225D01*
G37*
G36*
G01X8810Y27698D02*
G01X8810Y28902D01*
G01X10113Y28902D01*
G01X10113Y27698D01*
G01X8810Y27698D01*
G37*
G36*
G01X8810Y29499D02*
G01X8810Y30703D01*
G01X10113Y30703D01*
G01X10113Y29499D01*
G01X8810Y29499D01*
G37*
G36*
G01X22658Y21549D02*
G01X22658Y22852D01*
G01X23862Y22852D01*
G01X23862Y21549D01*
G01X22658Y21549D01*
G37*
G36*
G01X24459Y21549D02*
G01X24459Y22852D01*
G01X25663Y22852D01*
G01X25663Y21549D01*
G01X24459Y21549D01*
G37*
G36*
G01X17360Y21549D02*
G01X17360Y23652D01*
G01X18762Y23652D01*
G01X18762Y21549D01*
G01X17360Y21549D01*
G37*
G36*
G01X20560Y21549D02*
G01X20560Y23652D01*
G01X21962Y23652D01*
G01X21962Y21549D01*
G01X20560Y21549D01*
G37*
G36*
G01X17659Y17099D02*
G01X17659Y18303D01*
G01X20862Y18303D01*
G01X20862Y17099D01*
G01X17659Y17099D01*
G37*
G36*
G01X23260Y17099D02*
G01X23260Y18303D01*
G01X26463Y18303D01*
G01X26463Y17099D01*
G01X23260Y17099D01*
G37*
G36*
G01X71060Y11750D02*
G01X71060Y12453D01*
G01X72064Y12453D01*
G01X72064Y11750D01*
G01X71060Y11750D01*
G37*
G36*
G01X71060Y12750D02*
G01X71060Y13451D01*
G01X72064Y13451D01*
G01X72064Y12750D01*
G01X71060Y12750D01*
G37*
G36*
G01X73958Y27050D02*
G01X73958Y27752D01*
G01X74962Y27752D01*
G01X74962Y27050D01*
G01X73958Y27050D01*
G37*
G36*
G01X73958Y28049D02*
G01X73958Y28752D01*
G01X74962Y28752D01*
G01X74962Y28049D01*
G01X73958Y28049D01*
G37*
G36*
G01X59910Y8100D02*
G01X59910Y9103D01*
G01X60613Y9103D01*
G01X60613Y8100D01*
G01X59910Y8100D01*
G37*
G36*
G01X58909Y8100D02*
G01X58909Y9103D01*
G01X59612Y9103D01*
G01X59612Y8100D01*
G01X58909Y8100D01*
G37*
G36*
G01X61009Y6700D02*
G01X61009Y7703D01*
G01X61713Y7703D01*
G01X61713Y6700D01*
G01X61009Y6700D01*
G37*
G36*
G01X60009Y6700D02*
G01X60009Y7703D01*
G01X60712Y7703D01*
G01X60712Y6700D01*
G01X60009Y6700D01*
G37*
G36*
G01X68708Y6700D02*
G01X68708Y7703D01*
G01X69412Y7703D01*
G01X69412Y6700D01*
G01X68708Y6700D01*
G37*
G36*
G01X67710Y6700D02*
G01X67710Y7703D01*
G01X68414Y7703D01*
G01X68414Y6700D01*
G01X67710Y6700D01*
G37*
G36*
G01X83359Y23850D02*
G01X83359Y24551D01*
G01X84362Y24551D01*
G01X84362Y23850D01*
G01X83359Y23850D01*
G37*
G36*
G01X83359Y22849D02*
G01X83359Y23553D01*
G01X84362Y23553D01*
G01X84362Y22849D01*
G01X83359Y22849D01*
G37*
G36*
G01X83359Y11849D02*
G01X83359Y12552D01*
G01X84362Y12552D01*
G01X84362Y11849D01*
G01X83359Y11849D01*
G37*
G36*
G01X83359Y10850D02*
G01X83359Y11551D01*
G01X84362Y11551D01*
G01X84362Y10850D01*
G01X83359Y10850D01*
G37*
G36*
G01X59513Y31343D02*
G01X58805Y32054D01*
G01X59303Y32550D01*
G01X60011Y31841D01*
G01X59513Y31343D01*
G37*
G36*
G01X60220Y32052D02*
G01X59511Y32760D01*
G01X60009Y33258D01*
G01X60717Y32550D01*
G01X60220Y32052D01*
G37*
G36*
G01X68609Y33599D02*
G01X68609Y34602D01*
G01X69313Y34602D01*
G01X69313Y33599D01*
G01X68609Y33599D01*
G37*
G36*
G01X67608Y33599D02*
G01X67608Y34602D01*
G01X68312Y34602D01*
G01X68312Y33599D01*
G01X67608Y33599D01*
G37*
G36*
G01X57260Y22550D02*
G01X57260Y23253D01*
G01X58261Y23253D01*
G01X58261Y22550D01*
G01X57260Y22550D01*
G37*
G36*
G01X57260Y21549D02*
G01X57260Y22252D01*
G01X58261Y22252D01*
G01X58261Y21549D01*
G01X57260Y21549D01*
G37*
G36*
G01X69209Y18498D02*
G01X69209Y19502D01*
G01X69912Y19502D01*
G01X69912Y18498D01*
G01X69209Y18498D01*
G37*
G36*
G01X70209Y18498D02*
G01X70209Y19502D01*
G01X70913Y19502D01*
G01X70913Y18498D01*
G01X70209Y18498D01*
G37*
G36*
G01X79110Y61300D02*
G01X79110Y62303D01*
G01X79813Y62303D01*
G01X79813Y61300D01*
G01X79110Y61300D01*
G37*
G36*
G01X80110Y61300D02*
G01X80110Y62303D01*
G01X80811Y62303D01*
G01X80811Y61300D01*
G01X80110Y61300D01*
G37*
G36*
G01X81909Y55699D02*
G01X81909Y56702D01*
G01X82612Y56702D01*
G01X82612Y55699D01*
G01X81909Y55699D01*
G37*
G36*
G01X82909Y55699D02*
G01X82909Y56702D01*
G01X83613Y56702D01*
G01X83613Y55699D01*
G01X82909Y55699D01*
G37*
G36*
G01X73709Y24698D02*
G01X73709Y25702D01*
G01X74413Y25702D01*
G01X74413Y24698D01*
G01X73709Y24698D01*
G37*
G36*
G01X74710Y24698D02*
G01X74710Y25702D01*
G01X75414Y25702D01*
G01X75414Y24698D01*
G01X74710Y24698D01*
G37*
G36*
G01X73709Y18900D02*
G01X73709Y19903D01*
G01X74413Y19903D01*
G01X74413Y18900D01*
G01X73709Y18900D01*
G37*
G36*
G01X74710Y18900D02*
G01X74710Y19903D01*
G01X75411Y19903D01*
G01X75411Y18900D01*
G01X74710Y18900D01*
G37*
G36*
G01X20359Y11198D02*
G01X20359Y12804D01*
G01X21764Y12804D01*
G01X21764Y11198D01*
G01X20359Y11198D01*
G37*
G36*
G01X16958Y11198D02*
G01X16958Y12804D01*
G01X18363Y12804D01*
G01X18363Y11198D01*
G01X16958Y11198D01*
G37*
G01X47561Y34041D03*
G01X47561Y31501D03*
G54D117*
G01X47561Y28961D03*
G36*
G01X56209Y24698D02*
G01X56209Y25702D01*
G01X56912Y25702D01*
G01X56912Y24698D01*
G01X56209Y24698D01*
G37*
G36*
G01X55208Y24698D02*
G01X55208Y25702D01*
G01X55912Y25702D01*
G01X55912Y24698D01*
G01X55208Y24698D01*
G37*
G36*
G01X56209Y23299D02*
G01X56209Y24302D01*
G01X56912Y24302D01*
G01X56912Y23299D01*
G01X56209Y23299D01*
G37*
G36*
G01X55208Y23299D02*
G01X55208Y24302D01*
G01X55912Y24302D01*
G01X55912Y23299D01*
G01X55208Y23299D01*
G37*
G36*
G01X81357Y8747D02*
G01X81357Y10053D01*
G01X82561Y10053D01*
G01X82561Y8747D01*
G01X81357Y8747D01*
G37*
G36*
G01X82958Y8747D02*
G01X82958Y10053D01*
G01X84162Y10053D01*
G01X84162Y8747D01*
G01X82958Y8747D01*
G37*
G36*
G01X74258Y6847D02*
G01X74258Y8153D01*
G01X75462Y8153D01*
G01X75462Y6847D01*
G01X74258Y6847D01*
G37*
G36*
G01X75858Y6847D02*
G01X75858Y8153D01*
G01X77062Y8153D01*
G01X77062Y6847D01*
G01X75858Y6847D01*
G37*
G36*
G01X25960Y19748D02*
G01X25960Y20452D01*
G01X26963Y20452D01*
G01X26963Y19748D01*
G01X25960Y19748D01*
G37*
G36*
G01X25960Y18750D02*
G01X25960Y19451D01*
G01X26963Y19451D01*
G01X26963Y18750D01*
G01X25960Y18750D01*
G37*
G36*
G01X12358Y29547D02*
G01X12358Y30853D01*
G01X13562Y30853D01*
G01X13562Y29547D01*
G01X12358Y29547D01*
G37*
G36*
G01X10758Y29547D02*
G01X10758Y30853D01*
G01X11962Y30853D01*
G01X11962Y29547D01*
G01X10758Y29547D01*
G37*
G36*
G01X15307Y20299D02*
G01X15307Y21501D01*
G01X16613Y21501D01*
G01X16613Y20299D01*
G01X15307Y20299D01*
G37*
G36*
G01X15307Y18900D02*
G01X15307Y20101D01*
G01X16613Y20101D01*
G01X16613Y18900D01*
G01X15307Y18900D01*
G37*
G36*
G01X16059Y24249D02*
G01X16059Y25554D01*
G01X17261Y25554D01*
G01X17261Y24249D01*
G01X16059Y24249D01*
G37*
G36*
G01X17459Y24249D02*
G01X17459Y25554D01*
G01X18660Y25554D01*
G01X18660Y24249D01*
G01X17459Y24249D01*
G37*
G36*
G01X10260Y25747D02*
G01X10260Y27053D01*
G01X11462Y27053D01*
G01X11462Y25747D01*
G01X10260Y25747D01*
G37*
G36*
G01X8861Y25747D02*
G01X8861Y27053D01*
G01X10062Y27053D01*
G01X10062Y25747D01*
G01X8861Y25747D01*
G37*
G36*
G01X24258Y47950D02*
G01X24258Y48653D01*
G01X25262Y48653D01*
G01X25262Y47950D01*
G01X24258Y47950D01*
G37*
G36*
G01X24258Y48950D02*
G01X24258Y49651D01*
G01X25262Y49651D01*
G01X25262Y48950D01*
G01X24258Y48950D01*
G37*
G36*
G01X31507Y40599D02*
G01X31507Y41602D01*
G01X32211Y41602D01*
G01X32211Y40599D01*
G01X31507Y40599D01*
G37*
G36*
G01X32508Y40599D02*
G01X32508Y41602D01*
G01X33212Y41602D01*
G01X33212Y40599D01*
G01X32508Y40599D01*
G37*
G36*
G01X30410Y40599D02*
G01X30410Y41602D01*
G01X31114Y41602D01*
G01X31114Y40599D01*
G01X30410Y40599D01*
G37*
G36*
G01X29409Y40599D02*
G01X29409Y41602D01*
G01X30113Y41602D01*
G01X30113Y40599D01*
G01X29409Y40599D01*
G37*
G36*
G01X44459Y47950D02*
G01X44459Y48653D01*
G01X45462Y48653D01*
G01X45462Y47950D01*
G01X44459Y47950D01*
G37*
G36*
G01X44459Y48950D02*
G01X44459Y49651D01*
G01X45462Y49651D01*
G01X45462Y48950D01*
G01X44459Y48950D01*
G37*
G36*
G01X64659Y47950D02*
G01X64659Y48653D01*
G01X65663Y48653D01*
G01X65663Y47950D01*
G01X64659Y47950D01*
G37*
G36*
G01X64659Y48950D02*
G01X64659Y49651D01*
G01X65663Y49651D01*
G01X65663Y48950D01*
G01X64659Y48950D01*
G37*
G36*
G01X70809Y40599D02*
G01X70809Y41602D01*
G01X71512Y41602D01*
G01X71512Y40599D01*
G01X70809Y40599D01*
G37*
G36*
G01X69808Y40599D02*
G01X69808Y41602D01*
G01X70512Y41602D01*
G01X70512Y40599D01*
G01X69808Y40599D01*
G37*
G36*
G01X71909Y40599D02*
G01X71909Y41602D01*
G01X72612Y41602D01*
G01X72612Y40599D01*
G01X71909Y40599D01*
G37*
G36*
G01X72909Y40599D02*
G01X72909Y41602D01*
G01X73613Y41602D01*
G01X73613Y40599D01*
G01X72909Y40599D01*
G37*
G36*
G01X51708Y40599D02*
G01X51708Y41602D01*
G01X52412Y41602D01*
G01X52412Y40599D01*
G01X51708Y40599D01*
G37*
G36*
G01X52709Y40599D02*
G01X52709Y41602D01*
G01X53412Y41602D01*
G01X53412Y40599D01*
G01X52709Y40599D01*
G37*
G36*
G01X50608Y40599D02*
G01X50608Y41602D01*
G01X51312Y41602D01*
G01X51312Y40599D01*
G01X50608Y40599D01*
G37*
G36*
G01X49607Y40599D02*
G01X49607Y41602D01*
G01X50311Y41602D01*
G01X50311Y40599D01*
G01X49607Y40599D01*
G37*
G36*
G01X12358Y27548D02*
G01X12358Y28854D01*
G01X13562Y28854D01*
G01X13562Y27548D01*
G01X12358Y27548D01*
G37*
G36*
G01X10758Y27548D02*
G01X10758Y28854D01*
G01X11962Y28854D01*
G01X11962Y27548D01*
G01X10758Y27548D01*
G37*
G36*
G01X69658Y11948D02*
G01X69658Y12651D01*
G01X70661Y12651D01*
G01X70661Y11948D01*
G01X69658Y11948D01*
G37*
G36*
G01X69658Y10949D02*
G01X69658Y11650D01*
G01X70661Y11650D01*
G01X70661Y10949D01*
G01X69658Y10949D01*
G37*
G36*
G01X62109Y10198D02*
G01X62109Y11201D01*
G01X62813Y11201D01*
G01X62813Y10198D01*
G01X62109Y10198D01*
G37*
G36*
G01X63110Y10198D02*
G01X63110Y11201D01*
G01X63814Y11201D01*
G01X63814Y10198D01*
G01X63110Y10198D01*
G37*
G36*
G01X68259Y11750D02*
G01X68259Y12451D01*
G01X69262Y12451D01*
G01X69262Y11750D01*
G01X68259Y11750D01*
G37*
G36*
G01X68259Y12748D02*
G01X68259Y13451D01*
G01X69262Y13451D01*
G01X69262Y12748D01*
G01X68259Y12748D01*
G37*
G36*
G01X63260Y11650D02*
G01X63260Y12351D01*
G01X64263Y12351D01*
G01X64263Y11650D01*
G01X63260Y11650D01*
G37*
G36*
G01X63260Y12649D02*
G01X63260Y13352D01*
G01X64263Y13352D01*
G01X64263Y12649D01*
G01X63260Y12649D01*
G37*
G36*
G01X66610Y16697D02*
G01X66610Y17701D01*
G01X67314Y17701D01*
G01X67314Y16697D01*
G01X66610Y16697D01*
G37*
G36*
G01X65609Y16697D02*
G01X65609Y17701D01*
G01X66313Y17701D01*
G01X66313Y16697D01*
G01X65609Y16697D01*
G37*
G36*
G01X35259Y16151D02*
G01X35259Y16852D01*
G01X36262Y16852D01*
G01X36262Y16151D01*
G01X35259Y16151D01*
G37*
G36*
G01X35259Y17150D02*
G01X35259Y17853D01*
G01X36262Y17853D01*
G01X36262Y17150D01*
G01X35259Y17150D01*
G37*
G36*
G01X26958Y16151D02*
G01X26958Y16852D01*
G01X27962Y16852D01*
G01X27962Y16151D01*
G01X26958Y16151D01*
G37*
G36*
G01X26958Y17150D02*
G01X26958Y17853D01*
G01X27962Y17853D01*
G01X27962Y17150D01*
G01X26958Y17150D01*
G37*
G36*
G01X27509Y12499D02*
G01X27509Y13502D01*
G01X28213Y13502D01*
G01X28213Y12499D01*
G01X27509Y12499D01*
G37*
G36*
G01X26509Y12499D02*
G01X26509Y13502D01*
G01X27212Y13502D01*
G01X27212Y12499D01*
G01X26509Y12499D01*
G37*
G36*
G01X57809Y12298D02*
G01X57809Y13301D01*
G01X58513Y13301D01*
G01X58513Y12298D01*
G01X57809Y12298D01*
G37*
G36*
G01X56808Y12298D02*
G01X56808Y13301D01*
G01X57512Y13301D01*
G01X57512Y12298D01*
G01X56808Y12298D01*
G37*
G36*
G01X57809Y9499D02*
G01X57809Y10502D01*
G01X58513Y10502D01*
G01X58513Y9499D01*
G01X57809Y9499D01*
G37*
G36*
G01X56808Y9499D02*
G01X56808Y10502D01*
G01X57512Y10502D01*
G01X57512Y9499D01*
G01X56808Y9499D01*
G37*
G36*
G01X92358Y31051D02*
G01X92358Y31752D01*
G01X93361Y31752D01*
G01X93361Y31051D01*
G01X92358Y31051D01*
G37*
G36*
G01X92358Y32049D02*
G01X92358Y32753D01*
G01X93361Y32753D01*
G01X93361Y32049D01*
G01X92358Y32049D01*
G37*
G36*
G01X98109Y54797D02*
G01X98109Y55801D01*
G01X98812Y55801D01*
G01X98812Y54797D01*
G01X98109Y54797D01*
G37*
G36*
G01X97108Y54797D02*
G01X97108Y55801D01*
G01X97812Y55801D01*
G01X97812Y54797D01*
G01X97108Y54797D01*
G37*
G36*
G01X94809Y54797D02*
G01X94809Y55801D01*
G01X95513Y55801D01*
G01X95513Y54797D01*
G01X94809Y54797D01*
G37*
G36*
G01X95810Y54797D02*
G01X95810Y55801D01*
G01X96514Y55801D01*
G01X96514Y54797D01*
G01X95810Y54797D01*
G37*
G36*
G01X84009Y55699D02*
G01X84009Y56702D01*
G01X84713Y56702D01*
G01X84713Y55699D01*
G01X84009Y55699D01*
G37*
G36*
G01X85010Y55699D02*
G01X85010Y56702D01*
G01X85714Y56702D01*
G01X85714Y55699D01*
G01X85010Y55699D01*
G37*
G36*
G01X87309Y62999D02*
G01X87309Y64002D01*
G01X88012Y64002D01*
G01X88012Y62999D01*
G01X87309Y62999D01*
G37*
G36*
G01X86308Y62999D02*
G01X86308Y64002D01*
G01X87011Y64002D01*
G01X87011Y62999D01*
G01X86308Y62999D01*
G37*
G36*
G01X93158Y61549D02*
G01X93158Y62252D01*
G01X94162Y62252D01*
G01X94162Y61549D01*
G01X93158Y61549D01*
G37*
G36*
G01X93158Y60551D02*
G01X93158Y61252D01*
G01X94162Y61252D01*
G01X94162Y60551D01*
G01X93158Y60551D01*
G37*
G36*
G01X66410Y10398D02*
G01X66410Y11602D01*
G01X67713Y11602D01*
G01X67713Y10398D01*
G01X66410Y10398D01*
G37*
G36*
G01X66410Y11998D02*
G01X66410Y13202D01*
G01X67713Y13202D01*
G01X67713Y11998D01*
G01X66410Y11998D01*
G37*
G36*
G01X32859Y42948D02*
G01X32859Y43652D01*
G01X33862Y43652D01*
G01X33862Y42948D01*
G01X32859Y42948D01*
G37*
G36*
G01X32859Y41950D02*
G01X32859Y42651D01*
G01X33862Y42651D01*
G01X33862Y41950D01*
G01X32859Y41950D01*
G37*
G36*
G01X31459Y41950D02*
G01X31459Y42651D01*
G01X32462Y42651D01*
G01X32462Y41950D01*
G01X31459Y41950D01*
G37*
G36*
G01X31459Y42948D02*
G01X31459Y43652D01*
G01X32462Y43652D01*
G01X32462Y42948D01*
G01X31459Y42948D01*
G37*
G36*
G01X30060Y41950D02*
G01X30060Y42651D01*
G01X31063Y42651D01*
G01X31063Y41950D01*
G01X30060Y41950D01*
G37*
G36*
G01X30060Y42948D02*
G01X30060Y43652D01*
G01X31063Y43652D01*
G01X31063Y42948D01*
G01X30060Y42948D01*
G37*
G36*
G01X73260Y42948D02*
G01X73260Y43652D01*
G01X74263Y43652D01*
G01X74263Y42948D01*
G01X73260Y42948D01*
G37*
G36*
G01X73260Y41950D02*
G01X73260Y42651D01*
G01X74263Y42651D01*
G01X74263Y41950D01*
G01X73260Y41950D01*
G37*
G36*
G01X53059Y42948D02*
G01X53059Y43652D01*
G01X54063Y43652D01*
G01X54063Y42948D01*
G01X53059Y42948D01*
G37*
G36*
G01X53059Y41950D02*
G01X53059Y42651D01*
G01X54063Y42651D01*
G01X54063Y41950D01*
G01X53059Y41950D01*
G37*
G36*
G01X70458Y41950D02*
G01X70458Y42651D01*
G01X71462Y42651D01*
G01X71462Y41950D01*
G01X70458Y41950D01*
G37*
G36*
G01X70458Y42948D02*
G01X70458Y43652D01*
G01X71462Y43652D01*
G01X71462Y42948D01*
G01X70458Y42948D01*
G37*
G36*
G01X71858Y41950D02*
G01X71858Y42651D01*
G01X72861Y42651D01*
G01X72861Y41950D01*
G01X71858Y41950D01*
G37*
G36*
G01X71858Y42948D02*
G01X71858Y43652D01*
G01X72861Y43652D01*
G01X72861Y42948D01*
G01X71858Y42948D01*
G37*
G36*
G01X51660Y41950D02*
G01X51660Y42651D01*
G01X52663Y42651D01*
G01X52663Y41950D01*
G01X51660Y41950D01*
G37*
G36*
G01X51660Y42948D02*
G01X51660Y43652D01*
G01X52663Y43652D01*
G01X52663Y42948D01*
G01X51660Y42948D01*
G37*
G36*
G01X50260Y41950D02*
G01X50260Y42651D01*
G01X51263Y42651D01*
G01X51263Y41950D01*
G01X50260Y41950D01*
G37*
G36*
G01X50260Y42948D02*
G01X50260Y43652D01*
G01X51263Y43652D01*
G01X51263Y42948D01*
G01X50260Y42948D01*
G37*
G36*
G01X46509Y24297D02*
G01X46509Y25300D01*
G01X47212Y25300D01*
G01X47212Y24297D01*
G01X46509Y24297D01*
G37*
G36*
G01X45508Y24297D02*
G01X45508Y25300D01*
G01X46211Y25300D01*
G01X46211Y24297D01*
G01X45508Y24297D01*
G37*
G36*
G01X72460Y25250D02*
G01X72460Y25951D01*
G01X73463Y25951D01*
G01X73463Y25250D01*
G01X72460Y25250D01*
G37*
G36*
G01X72460Y26248D02*
G01X72460Y26951D01*
G01X73463Y26951D01*
G01X73463Y26248D01*
G01X72460Y26248D01*
G37*
G36*
G01X56209Y21899D02*
G01X56209Y22903D01*
G01X56912Y22903D01*
G01X56912Y21899D01*
G01X56209Y21899D01*
G37*
G36*
G01X55208Y21899D02*
G01X55208Y22903D01*
G01X55912Y22903D01*
G01X55912Y21899D01*
G01X55208Y21899D01*
G37*
G36*
G01X26209Y61851D02*
G01X26209Y63652D01*
G01X29712Y63652D01*
G01X29712Y61851D01*
G01X26209Y61851D01*
G37*
G36*
G01X26209Y55349D02*
G01X26209Y57152D01*
G01X29712Y57152D01*
G01X29712Y55349D01*
G01X26209Y55349D01*
G37*
G36*
G01X33410Y61851D02*
G01X33410Y63652D01*
G01X36912Y63652D01*
G01X36912Y61851D01*
G01X33410Y61851D01*
G37*
G36*
G01X33410Y55349D02*
G01X33410Y57152D01*
G01X36912Y57152D01*
G01X36912Y55349D01*
G01X33410Y55349D01*
G37*
G36*
G01X66610Y61851D02*
G01X66610Y63652D01*
G01X70113Y63652D01*
G01X70113Y61851D01*
G01X66610Y61851D01*
G37*
G36*
G01X66610Y55349D02*
G01X66610Y57152D01*
G01X70113Y57152D01*
G01X70113Y55349D01*
G01X66610Y55349D01*
G37*
G36*
G01X73809Y61851D02*
G01X73809Y63652D01*
G01X77311Y63652D01*
G01X77311Y61851D01*
G01X73809Y61851D01*
G37*
G36*
G01X73809Y55349D02*
G01X73809Y57152D01*
G01X77311Y57152D01*
G01X77311Y55349D01*
G01X73809Y55349D01*
G37*
G36*
G01X53610Y61851D02*
G01X53610Y63652D01*
G01X57113Y63652D01*
G01X57113Y61851D01*
G01X53610Y61851D01*
G37*
G36*
G01X53610Y55349D02*
G01X53610Y57152D01*
G01X57113Y57152D01*
G01X57113Y55349D01*
G01X53610Y55349D01*
G37*
G36*
G01X46410Y61851D02*
G01X46410Y63652D01*
G01X49912Y63652D01*
G01X49912Y61851D01*
G01X46410Y61851D01*
G37*
G36*
G01X46410Y55349D02*
G01X46410Y57152D01*
G01X49912Y57152D01*
G01X49912Y55349D01*
G01X46410Y55349D01*
G37*
G36*
G01X35259Y14051D02*
G01X35259Y14752D01*
G01X36262Y14752D01*
G01X36262Y14051D01*
G01X35259Y14051D01*
G37*
G36*
G01X35259Y15049D02*
G01X35259Y15753D01*
G01X36262Y15753D01*
G01X36262Y15049D01*
G01X35259Y15049D01*
G37*
G36*
G01X26559Y14051D02*
G01X26559Y14752D01*
G01X27563Y14752D01*
G01X27563Y14051D01*
G01X26559Y14051D01*
G37*
G36*
G01X26559Y15049D02*
G01X26559Y15753D01*
G01X27563Y15753D01*
G01X27563Y15049D01*
G01X26559Y15049D01*
G37*
G36*
G01X26509Y11099D02*
G01X26509Y12103D01*
G01X27212Y12103D01*
G01X27212Y11099D01*
G01X26509Y11099D01*
G37*
G36*
G01X27509Y11099D02*
G01X27509Y12103D01*
G01X28213Y12103D01*
G01X28213Y11099D01*
G01X27509Y11099D01*
G37*
G36*
G01X56808Y10899D02*
G01X56808Y11902D01*
G01X57512Y11902D01*
G01X57512Y10899D01*
G01X56808Y10899D01*
G37*
G36*
G01X57809Y10899D02*
G01X57809Y11902D01*
G01X58513Y11902D01*
G01X58513Y10899D01*
G01X57809Y10899D01*
G37*
G36*
G01X56808Y8097D02*
G01X56808Y9100D01*
G01X57512Y9100D01*
G01X57512Y8097D01*
G01X56808Y8097D01*
G37*
G36*
G01X57809Y8097D02*
G01X57809Y9100D01*
G01X58513Y9100D01*
G01X58513Y8097D01*
G01X57809Y8097D01*
G37*
G36*
G01X65208Y10198D02*
G01X65208Y11201D01*
G01X65912Y11201D01*
G01X65912Y10198D01*
G01X65208Y10198D01*
G37*
G36*
G01X64207Y10198D02*
G01X64207Y11201D01*
G01X64911Y11201D01*
G01X64911Y10198D01*
G01X64207Y10198D01*
G37*
G36*
G01X93158Y56349D02*
G01X93158Y57050D01*
G01X94162Y57050D01*
G01X94162Y56349D01*
G01X93158Y56349D01*
G37*
G36*
G01X93158Y57348D02*
G01X93158Y58051D01*
G01X94162Y58051D01*
G01X94162Y57348D01*
G01X93158Y57348D01*
G37*
G36*
G01X93158Y58450D02*
G01X93158Y59151D01*
G01X94162Y59151D01*
G01X94162Y58450D01*
G01X93158Y58450D01*
G37*
G36*
G01X93158Y59448D02*
G01X93158Y60152D01*
G01X94162Y60152D01*
G01X94162Y59448D01*
G01X93158Y59448D01*
G37*
G36*
G01X24860Y45852D02*
G01X24860Y46553D01*
G01X25863Y46553D01*
G01X25863Y45852D01*
G01X24860Y45852D01*
G37*
G36*
G01X24860Y46850D02*
G01X24860Y47553D01*
G01X25863Y47553D01*
G01X25863Y46850D01*
G01X24860Y46850D01*
G37*
G36*
G01X45058Y45852D02*
G01X45058Y46553D01*
G01X46062Y46553D01*
G01X46062Y45852D01*
G01X45058Y45852D01*
G37*
G36*
G01X45058Y46850D02*
G01X45058Y47553D01*
G01X46062Y47553D01*
G01X46062Y46850D01*
G01X45058Y46850D01*
G37*
G36*
G01X65259Y45852D02*
G01X65259Y46553D01*
G01X66262Y46553D01*
G01X66262Y45852D01*
G01X65259Y45852D01*
G37*
G36*
G01X65259Y46850D02*
G01X65259Y47553D01*
G01X66262Y47553D01*
G01X66262Y46850D01*
G01X65259Y46850D01*
G37*
G36*
G01X56808Y13698D02*
G01X56808Y14701D01*
G01X57512Y14701D01*
G01X57512Y13698D01*
G01X56808Y13698D01*
G37*
G36*
G01X57809Y13698D02*
G01X57809Y14701D01*
G01X58513Y14701D01*
G01X58513Y13698D01*
G01X57809Y13698D01*
G37*
G36*
G01X18310Y44099D02*
G01X18310Y45102D01*
G01X19013Y45102D01*
G01X19013Y44099D01*
G01X18310Y44099D01*
G37*
G36*
G01X19310Y44099D02*
G01X19310Y45102D01*
G01X20014Y45102D01*
G01X20014Y44099D01*
G01X19310Y44099D01*
G37*
G36*
G01X18310Y42699D02*
G01X18310Y43703D01*
G01X19013Y43703D01*
G01X19013Y42699D01*
G01X18310Y42699D01*
G37*
G36*
G01X19310Y42699D02*
G01X19310Y43703D01*
G01X20014Y43703D01*
G01X20014Y42699D01*
G01X19310Y42699D01*
G37*
G36*
G01X35909Y46598D02*
G01X35909Y47602D01*
G01X36613Y47602D01*
G01X36613Y46598D01*
G01X35909Y46598D01*
G37*
G36*
G01X36910Y46598D02*
G01X36910Y47602D01*
G01X37614Y47602D01*
G01X37614Y46598D01*
G01X36910Y46598D01*
G37*
G36*
G01X35909Y47998D02*
G01X35909Y49001D01*
G01X36613Y49001D01*
G01X36613Y47998D01*
G01X35909Y47998D01*
G37*
G36*
G01X36910Y47998D02*
G01X36910Y49001D01*
G01X37614Y49001D01*
G01X37614Y47998D01*
G01X36910Y47998D01*
G37*
G36*
G01X56008Y46598D02*
G01X56008Y47602D01*
G01X56712Y47602D01*
G01X56712Y46598D01*
G01X56008Y46598D01*
G37*
G36*
G01X57009Y46598D02*
G01X57009Y47602D01*
G01X57713Y47602D01*
G01X57713Y46598D01*
G01X57009Y46598D01*
G37*
G36*
G01X56008Y47998D02*
G01X56008Y49001D01*
G01X56712Y49001D01*
G01X56712Y47998D01*
G01X56008Y47998D01*
G37*
G36*
G01X57009Y47998D02*
G01X57009Y49001D01*
G01X57713Y49001D01*
G01X57713Y47998D01*
G01X57009Y47998D01*
G37*
G36*
G01X76209Y47998D02*
G01X76209Y49001D01*
G01X76912Y49001D01*
G01X76912Y47998D01*
G01X76209Y47998D01*
G37*
G36*
G01X77210Y47998D02*
G01X77210Y49001D01*
G01X77913Y49001D01*
G01X77913Y47998D01*
G01X77210Y47998D01*
G37*
G36*
G01X76209Y46598D02*
G01X76209Y47602D01*
G01X76912Y47602D01*
G01X76912Y46598D01*
G01X76209Y46598D01*
G37*
G36*
G01X77210Y46598D02*
G01X77210Y47602D01*
G01X77913Y47602D01*
G01X77913Y46598D01*
G01X77210Y46598D01*
G37*
G54D98*
G01X97231Y13321D03*
G01X94691Y13321D03*
G01X97231Y15861D03*
G01X94691Y15861D03*
G01X97231Y18401D03*
G01X94691Y18401D03*
G01X97231Y20941D03*
G01X94691Y20941D03*
G01X97231Y23481D03*
G36*
G01X93689Y22478D02*
G01X93689Y24483D01*
G01X95693Y24483D01*
G01X95693Y22478D01*
G01X93689Y22478D01*
G37*
G54D118*
G01X39360Y5101D03*
G01X34280Y5101D03*
G01X29202Y5100D03*
G01X24120Y5101D03*
G01X19040Y5101D03*
G01X13963Y5099D03*
G36*
G01X89409Y52948D02*
G01X89409Y54251D01*
G01X90712Y54251D01*
G01X90712Y52948D01*
G01X89409Y52948D01*
G37*
G54D120*
G01X90060Y55099D03*
G01X90060Y56600D03*
G01X90060Y58101D03*
G01X90060Y59602D03*
G01X90060Y61101D03*
G01X90062Y62602D03*
G36*
G01X96064Y31729D02*
G01X96064Y33731D01*
G01X98066Y33731D01*
G01X98066Y31729D01*
G01X96064Y31729D01*
G37*
G54D98*
G01X97065Y35270D03*
G36*
G01X45889Y10299D02*
G01X45889Y12301D01*
G01X47890Y12301D01*
G01X47890Y10299D01*
G01X45889Y10299D01*
G37*
G01X49430Y11300D03*
G36*
G01X45889Y2722D02*
G01X45889Y4724D01*
G01X47890Y4724D01*
G01X47890Y2722D01*
G01X45889Y2722D01*
G37*
G01X49430Y3723D03*
G54D75*
G75*
G01X4538Y32075D02*
G03X4538Y32075I-2000J0D01*
G01*
G75*
G01X36328Y29455D02*
G03X36328Y29455I-2000J0D01*
G01*
G54D60*
G75*
G01X100198Y2575D02*
G03X100198Y2575I-2000J0D01*
G01*
G54D75*
G75*
G01X22398Y67055D02*
G03X22398Y67055I-2000J0D01*
G01*
G75*
G01X84538Y67265D02*
G03X84538Y67265I-2000J0D01*
G01*
G75*
G01X100198Y67855D02*
G03X100198Y67855I-2000J0D01*
G01*
G75*
G01X4469Y2575D02*
G03X4469Y2575I-2000J0D01*
G01*
G75*
G01X4470Y67855D02*
G03X4470Y67855I-2000J0D01*
G01*
G54D76*
G75*
G01X1728Y7888D02*
G03X1728Y7888I-650J0D01*
G01*
G75*
G01X90928Y67188D02*
G03X90928Y67188I-650J0D01*
G01*
M00*
M02*
