G04 Layer: TopPasteMaskLayer*
G04 EasyEDA v6.3.39, 2020-04-29T16:10:24+08:00*
G04 8e32648d726441b9b9f64577d1232170,fed530592efb474aaabf7115e2e2b964,10*
G04 Gerber Generator version 0.2*
G04 Scale: 100 percent, Rotated: No, Reflected: No *
G04 Dimensions in millimeters *
G04 leading zeros omitted , absolute positions ,3 integer and 3 decimal *
%FSLAX33Y33*%
%MOMM*%
G90*
G71D02*

%ADD11C,0.599999*%
%ADD20C,0.280010*%
%ADD22R,1.150010X0.599999*%
%ADD23R,1.299997X0.299999*%
%ADD24R,1.150010X0.299999*%
%ADD25R,1.150010X1.399997*%
%ADD26R,1.199998X1.899996*%
%ADD27R,0.999998X1.550010*%
%ADD29R,1.550010X0.999998*%
%ADD30R,1.299997X0.699999*%
%ADD31R,0.550012X0.999998*%
%ADD32R,1.470660X1.270000*%
%ADD33R,0.999998X1.099998*%
%ADD34R,1.099998X0.999998*%
%ADD35R,3.450082X2.559990*%
%ADD38R,0.499999X0.799998*%
%ADD39R,0.990600X1.092200*%
%ADD40R,0.799998X0.499999*%
%ADD41R,3.499993X3.499993*%
%ADD42R,0.599999X1.299997*%
%ADD43R,0.999998X1.199998*%
%ADD44R,0.699999X1.250010*%
%ADD45R,1.250010X0.699999*%
%ADD46R,1.092200X0.990600*%
%ADD47R,0.319989X0.319989*%
%ADD48R,2.999994X0.999998*%
%ADD49R,0.999998X2.999994*%
%ADD50R,3.299993X1.599997*%
%ADD51R,0.599999X1.019988*%
%ADD52R,0.599999X1.270000*%
%ADD53R,4.250004X3.499866*%
%ADD54R,0.499999X1.299997*%
%ADD55R,1.199998X1.399997*%

%LPD*%
G54D11*
G01X21366Y33572D02*
G01X21366Y32372D01*
G01X20096Y33572D02*
G01X20096Y32372D01*
G01X18826Y33572D02*
G01X18826Y32372D01*
G01X17556Y33572D02*
G01X17556Y32372D01*
G01X21366Y27629D02*
G01X21366Y26429D01*
G01X20096Y27629D02*
G01X20096Y26429D01*
G01X18826Y27629D02*
G01X18826Y26429D01*
G01X17556Y27629D02*
G01X17556Y26429D01*
G01X87141Y50696D02*
G01X88061Y50696D01*
G01X87141Y51966D02*
G01X88061Y51966D01*
G01X87141Y53236D02*
G01X88061Y53236D01*
G01X87141Y54506D02*
G01X88061Y54506D01*
G01X81661Y50696D02*
G01X82581Y50696D01*
G01X81661Y51966D02*
G01X82581Y51966D01*
G01X81661Y53236D02*
G01X82581Y53236D01*
G01X81661Y54506D02*
G01X82581Y54506D01*
G01X87141Y57896D02*
G01X88061Y57896D01*
G01X87141Y59166D02*
G01X88061Y59166D01*
G01X87141Y60436D02*
G01X88061Y60436D01*
G01X87141Y61706D02*
G01X88061Y61706D01*
G01X81661Y57896D02*
G01X82581Y57896D01*
G01X81661Y59166D02*
G01X82581Y59166D01*
G01X81661Y60436D02*
G01X82581Y60436D01*
G01X81661Y61706D02*
G01X82581Y61706D01*
G54D20*
G01X68911Y20191D02*
G01X68911Y21711D01*
G01X68411Y20191D02*
G01X68411Y21711D01*
G01X67911Y20191D02*
G01X67911Y21711D01*
G01X67411Y20191D02*
G01X67411Y21711D01*
G01X66911Y20191D02*
G01X66911Y21711D01*
G01X66411Y20191D02*
G01X66411Y21711D01*
G01X65911Y20191D02*
G01X65911Y21711D01*
G01X65411Y20191D02*
G01X65411Y21711D01*
G01X64911Y20191D02*
G01X64911Y21711D01*
G01X64411Y20191D02*
G01X64411Y21711D01*
G01X63911Y20191D02*
G01X63911Y21711D01*
G01X63411Y20191D02*
G01X63411Y21711D01*
G01X62911Y20191D02*
G01X62911Y21711D01*
G01X62411Y20191D02*
G01X62411Y21711D01*
G01X61911Y20191D02*
G01X61911Y21711D01*
G01X61411Y20191D02*
G01X61411Y21711D01*
G01X60371Y22751D02*
G01X58851Y22751D01*
G01X60371Y23251D02*
G01X58851Y23251D01*
G01X60371Y23751D02*
G01X58851Y23751D01*
G01X60371Y24251D02*
G01X58851Y24251D01*
G01X60371Y24751D02*
G01X58851Y24751D01*
G01X60371Y25251D02*
G01X58851Y25251D01*
G01X60371Y25751D02*
G01X58851Y25751D01*
G01X60371Y26251D02*
G01X58851Y26251D01*
G01X60371Y26751D02*
G01X58851Y26751D01*
G01X60371Y27251D02*
G01X58851Y27251D01*
G01X60371Y27751D02*
G01X58851Y27751D01*
G01X60371Y28251D02*
G01X58851Y28251D01*
G01X60371Y28751D02*
G01X58851Y28751D01*
G01X60371Y29251D02*
G01X58851Y29251D01*
G01X60371Y29751D02*
G01X58851Y29751D01*
G01X60371Y30251D02*
G01X58851Y30251D01*
G01X61411Y31291D02*
G01X61411Y32811D01*
G01X61911Y31291D02*
G01X61911Y32811D01*
G01X62411Y31291D02*
G01X62411Y32811D01*
G01X62911Y31291D02*
G01X62911Y32811D01*
G01X63411Y31291D02*
G01X63411Y32811D01*
G01X63911Y31291D02*
G01X63911Y32811D01*
G01X64411Y31291D02*
G01X64411Y32811D01*
G01X64911Y31291D02*
G01X64911Y32811D01*
G01X65411Y31291D02*
G01X65411Y32811D01*
G01X65911Y31291D02*
G01X65911Y32811D01*
G01X66411Y31291D02*
G01X66411Y32811D01*
G01X66911Y31291D02*
G01X66911Y32811D01*
G01X67411Y31291D02*
G01X67411Y32811D01*
G01X67911Y31291D02*
G01X67911Y32811D01*
G01X68411Y31291D02*
G01X68411Y32811D01*
G01X68911Y31291D02*
G01X68911Y32811D01*
G01X71471Y30251D02*
G01X69951Y30251D01*
G01X71471Y29751D02*
G01X69951Y29751D01*
G01X71471Y29251D02*
G01X69951Y29251D01*
G01X71471Y28751D02*
G01X69951Y28751D01*
G01X71471Y28251D02*
G01X69951Y28251D01*
G01X71471Y27751D02*
G01X69951Y27751D01*
G01X71471Y27251D02*
G01X69951Y27251D01*
G01X71471Y26751D02*
G01X69951Y26751D01*
G01X71471Y26251D02*
G01X69951Y26251D01*
G01X71471Y25751D02*
G01X69951Y25751D01*
G01X71471Y25251D02*
G01X69951Y25251D01*
G01X71471Y24751D02*
G01X69951Y24751D01*
G01X71471Y24251D02*
G01X69951Y24251D01*
G01X71471Y23751D02*
G01X69951Y23751D01*
G01X71471Y23251D02*
G01X69951Y23251D01*
G01X71471Y22751D02*
G01X69951Y22751D01*
G01X30060Y50611D02*
G01X30060Y49991D01*
G01X30560Y50611D02*
G01X30560Y49991D01*
G01X31060Y50611D02*
G01X31060Y49991D01*
G01X31561Y50611D02*
G01X31561Y49991D01*
G01X32061Y50611D02*
G01X32061Y49991D01*
G01X32561Y50611D02*
G01X32561Y49991D01*
G01X33062Y50611D02*
G01X33062Y49991D01*
G01X33751Y49302D02*
G01X34371Y49302D01*
G01X33751Y48802D02*
G01X34371Y48802D01*
G01X33751Y48301D02*
G01X34371Y48301D01*
G01X33751Y47801D02*
G01X34371Y47801D01*
G01X33751Y47301D02*
G01X34371Y47301D01*
G01X33751Y46800D02*
G01X34371Y46800D01*
G01X33751Y46300D02*
G01X34371Y46300D01*
G01X33062Y45611D02*
G01X33062Y44991D01*
G01X32561Y45611D02*
G01X32561Y44991D01*
G01X32061Y45611D02*
G01X32061Y44991D01*
G01X31561Y45611D02*
G01X31561Y44991D01*
G01X31060Y45611D02*
G01X31060Y44991D01*
G01X30560Y45611D02*
G01X30560Y44991D01*
G01X30060Y45611D02*
G01X30060Y44991D01*
G01X28751Y46300D02*
G01X29371Y46300D01*
G01X28751Y46800D02*
G01X29371Y46800D01*
G01X28751Y47301D02*
G01X29371Y47301D01*
G01X28751Y47801D02*
G01X29371Y47801D01*
G01X28751Y48301D02*
G01X29371Y48301D01*
G01X28751Y48802D02*
G01X29371Y48802D01*
G01X28751Y49302D02*
G01X29371Y49302D01*
G01X12460Y46711D02*
G01X12460Y46091D01*
G01X12960Y46711D02*
G01X12960Y46091D01*
G01X13460Y46711D02*
G01X13460Y46091D01*
G01X13961Y46711D02*
G01X13961Y46091D01*
G01X14461Y46711D02*
G01X14461Y46091D01*
G01X14962Y46711D02*
G01X14962Y46091D01*
G01X15462Y46711D02*
G01X15462Y46091D01*
G01X16151Y45402D02*
G01X16771Y45402D01*
G01X16151Y44902D02*
G01X16771Y44902D01*
G01X16151Y44401D02*
G01X16771Y44401D01*
G01X16151Y43901D02*
G01X16771Y43901D01*
G01X16151Y43400D02*
G01X16771Y43400D01*
G01X16151Y42900D02*
G01X16771Y42900D01*
G01X16151Y42400D02*
G01X16771Y42400D01*
G01X15462Y41711D02*
G01X15462Y41091D01*
G01X14962Y41711D02*
G01X14962Y41091D01*
G01X14461Y41711D02*
G01X14461Y41091D01*
G01X13961Y41711D02*
G01X13961Y41091D01*
G01X13460Y41711D02*
G01X13460Y41091D01*
G01X12960Y41711D02*
G01X12960Y41091D01*
G01X12460Y41711D02*
G01X12460Y41091D01*
G01X11151Y42400D02*
G01X11771Y42400D01*
G01X11151Y42900D02*
G01X11771Y42900D01*
G01X11151Y43400D02*
G01X11771Y43400D01*
G01X11151Y43901D02*
G01X11771Y43901D01*
G01X11151Y44401D02*
G01X11771Y44401D01*
G01X11151Y44902D02*
G01X11771Y44902D01*
G01X11151Y45402D02*
G01X11771Y45402D01*
G01X70460Y50611D02*
G01X70460Y49991D01*
G01X70960Y50611D02*
G01X70960Y49991D01*
G01X71461Y50611D02*
G01X71461Y49991D01*
G01X71961Y50611D02*
G01X71961Y49991D01*
G01X72461Y50611D02*
G01X72461Y49991D01*
G01X72962Y50611D02*
G01X72962Y49991D01*
G01X73462Y50611D02*
G01X73462Y49991D01*
G01X74151Y49302D02*
G01X74771Y49302D01*
G01X74151Y48802D02*
G01X74771Y48802D01*
G01X74151Y48301D02*
G01X74771Y48301D01*
G01X74151Y47801D02*
G01X74771Y47801D01*
G01X74151Y47301D02*
G01X74771Y47301D01*
G01X74151Y46800D02*
G01X74771Y46800D01*
G01X74151Y46300D02*
G01X74771Y46300D01*
G01X73462Y45611D02*
G01X73462Y44991D01*
G01X72962Y45611D02*
G01X72962Y44991D01*
G01X72461Y45611D02*
G01X72461Y44991D01*
G01X71961Y45611D02*
G01X71961Y44991D01*
G01X71461Y45611D02*
G01X71461Y44991D01*
G01X70960Y45611D02*
G01X70960Y44991D01*
G01X70460Y45611D02*
G01X70460Y44991D01*
G01X69151Y46300D02*
G01X69771Y46300D01*
G01X69151Y46800D02*
G01X69771Y46800D01*
G01X69151Y47301D02*
G01X69771Y47301D01*
G01X69151Y47801D02*
G01X69771Y47801D01*
G01X69151Y48301D02*
G01X69771Y48301D01*
G01X69151Y48802D02*
G01X69771Y48802D01*
G01X69151Y49302D02*
G01X69771Y49302D01*
G01X50260Y50611D02*
G01X50260Y49991D01*
G01X50760Y50611D02*
G01X50760Y49991D01*
G01X51260Y50611D02*
G01X51260Y49991D01*
G01X51761Y50611D02*
G01X51761Y49991D01*
G01X52261Y50611D02*
G01X52261Y49991D01*
G01X52762Y50611D02*
G01X52762Y49991D01*
G01X53262Y50611D02*
G01X53262Y49991D01*
G01X53951Y49302D02*
G01X54571Y49302D01*
G01X53951Y48802D02*
G01X54571Y48802D01*
G01X53951Y48301D02*
G01X54571Y48301D01*
G01X53951Y47801D02*
G01X54571Y47801D01*
G01X53951Y47301D02*
G01X54571Y47301D01*
G01X53951Y46800D02*
G01X54571Y46800D01*
G01X53951Y46300D02*
G01X54571Y46300D01*
G01X53262Y45611D02*
G01X53262Y44991D01*
G01X52762Y45611D02*
G01X52762Y44991D01*
G01X52261Y45611D02*
G01X52261Y44991D01*
G01X51761Y45611D02*
G01X51761Y44991D01*
G01X51260Y45611D02*
G01X51260Y44991D01*
G01X50760Y45611D02*
G01X50760Y44991D01*
G01X50260Y45611D02*
G01X50260Y44991D01*
G01X48951Y46300D02*
G01X49571Y46300D01*
G01X48951Y46800D02*
G01X49571Y46800D01*
G01X48951Y47301D02*
G01X49571Y47301D01*
G01X48951Y47801D02*
G01X49571Y47801D01*
G01X48951Y48301D02*
G01X49571Y48301D01*
G01X48951Y48802D02*
G01X49571Y48802D01*
G01X48951Y49302D02*
G01X49571Y49302D01*
G54D22*
G01X93898Y40961D03*
G01X93898Y41761D03*
G01X93898Y47361D03*
G01X93898Y46561D03*
G54D23*
G01X93898Y45911D03*
G54D24*
G01X93898Y45411D03*
G54D23*
G01X93898Y44911D03*
G01X93898Y44411D03*
G01X93898Y43911D03*
G01X93898Y43411D03*
G01X93898Y42911D03*
G54D24*
G01X93898Y42411D03*
G54D25*
G01X74361Y23401D03*
G36*
G01X75386Y20501D02*
G01X75386Y21539D01*
G01X75765Y21901D01*
G01X76536Y21901D01*
G01X76536Y20501D01*
G01X75386Y20501D01*
G37*
G01X74361Y21201D03*
G01X75961Y23401D03*
G54D26*
G01X82861Y40201D03*
G01X86061Y40201D03*
G54D27*
G01X32561Y21701D03*
G01X30561Y21701D03*
G36*
G01X28919Y28628D02*
G01X29647Y27588D01*
G01X28443Y26744D01*
G01X27714Y27785D01*
G01X28919Y28628D01*
G37*
G36*
G01X31279Y25257D02*
G01X32007Y24217D01*
G01X30803Y23374D01*
G01X30074Y24414D01*
G01X31279Y25257D01*
G37*
G01X72961Y7501D03*
G01X70961Y7501D03*
G54D29*
G01X79861Y11401D03*
G01X79861Y9401D03*
G54D30*
G01X93261Y65351D03*
G01X87261Y65351D03*
G01X93261Y69051D03*
G01X87261Y69051D03*
G54D31*
G01X82625Y45601D03*
G01X83575Y45601D03*
G01X84525Y45601D03*
G01X84525Y42801D03*
G01X83575Y42801D03*
G01X82625Y42801D03*
G54D32*
G01X25661Y27043D03*
G01X25661Y31158D03*
G54D33*
G01X47961Y26501D03*
G01X46161Y26501D03*
G54D34*
G01X34461Y19901D03*
G01X34461Y21701D03*
G54D33*
G01X84361Y47401D03*
G01X82561Y47401D03*
G54D26*
G01X23861Y33601D03*
G01X27061Y33601D03*
G54D35*
G01X19461Y30001D03*
G54D34*
G01X23261Y28301D03*
G01X23261Y30101D03*
G36*
G01X40869Y19557D02*
G01X37580Y20754D01*
G01X38333Y22821D01*
G01X41622Y21624D01*
G01X40869Y19557D01*
G37*
G36*
G01X39700Y26578D02*
G01X38666Y26954D01*
G01X39419Y29021D01*
G01X40452Y28645D01*
G01X39700Y26578D01*
G37*
G36*
G01X41861Y25791D02*
G01X40828Y26167D01*
G01X41580Y28235D01*
G01X42614Y27858D01*
G01X41861Y25791D01*
G37*
G36*
G01X44023Y25004D02*
G01X42989Y25381D01*
G01X43741Y27448D01*
G01X44775Y27072D01*
G01X44023Y25004D01*
G37*
G54D38*
G01X28761Y20001D03*
G01X27761Y20001D03*
G01X14961Y51901D03*
G01X13961Y51901D03*
G01X18661Y46001D03*
G01X19661Y46001D03*
G01X12961Y50401D03*
G01X13961Y50401D03*
G01X9261Y46001D03*
G01X8261Y46001D03*
G01X32561Y55801D03*
G01X31561Y55801D03*
G01X36261Y49901D03*
G01X37261Y49901D03*
G01X30561Y54301D03*
G01X31561Y54301D03*
G01X26961Y49901D03*
G01X25961Y49901D03*
G01X52761Y55801D03*
G01X51761Y55801D03*
G01X56361Y49901D03*
G01X57361Y49901D03*
G01X50761Y54301D03*
G01X51761Y54301D03*
G01X47161Y49901D03*
G01X46161Y49901D03*
G01X72961Y55801D03*
G01X71961Y55801D03*
G01X76561Y49901D03*
G01X77561Y49901D03*
G01X70961Y54301D03*
G01X71961Y54301D03*
G01X67361Y49901D03*
G01X66361Y49901D03*
G54D39*
G01X73761Y13650D03*
G01X73761Y15352D03*
G54D40*
G01X17861Y36401D03*
G01X17861Y37401D03*
G54D38*
G01X12861Y37201D03*
G01X11861Y37201D03*
G01X13961Y37201D03*
G01X14961Y37201D03*
G54D41*
G01X31561Y47801D03*
G01X13961Y43901D03*
G01X71961Y47801D03*
G01X51761Y47801D03*
G54D42*
G01X28711Y21801D03*
G01X27761Y24201D03*
G01X26811Y21801D03*
G54D43*
G01X81861Y28201D03*
G01X81861Y31001D03*
G01X83661Y31001D03*
G01X83661Y28201D03*
G54D40*
G01X11261Y38401D03*
G01X11261Y39401D03*
G01X29161Y42301D03*
G01X29161Y43301D03*
G01X49361Y42301D03*
G01X49361Y43301D03*
G01X69561Y42301D03*
G01X69561Y43301D03*
G54D44*
G01X6861Y39251D03*
G01X7811Y36751D03*
G01X5911Y36751D03*
G01X9961Y36951D03*
G01X10911Y34451D03*
G01X9011Y34451D03*
G54D45*
G01X39911Y45501D03*
G01X42411Y46451D03*
G01X42411Y44551D03*
G01X39911Y42101D03*
G01X42411Y43051D03*
G01X42411Y41151D03*
G01X67811Y38901D03*
G01X70310Y39851D03*
G01X70310Y37951D03*
G54D44*
G01X73461Y39651D03*
G01X74411Y37151D03*
G01X72511Y37151D03*
G54D45*
G01X59911Y45501D03*
G01X62411Y46451D03*
G01X62411Y44551D03*
G01X59911Y42101D03*
G01X62411Y43051D03*
G01X62411Y41151D03*
G54D33*
G01X8061Y40801D03*
G01X9861Y40801D03*
G01X25961Y44701D03*
G01X27761Y44701D03*
G01X10061Y48901D03*
G01X8261Y48901D03*
G01X17861Y48901D03*
G01X19661Y48901D03*
G01X35461Y52801D03*
G01X37261Y52801D03*
G01X27661Y52801D03*
G01X25861Y52801D03*
G01X75861Y52801D03*
G01X77661Y52801D03*
G01X68061Y52801D03*
G01X66261Y52801D03*
G01X47861Y52801D03*
G01X46061Y52801D03*
G01X55661Y52801D03*
G01X57461Y52801D03*
G01X46161Y44701D03*
G01X47961Y44701D03*
G01X66361Y44701D03*
G01X68161Y44701D03*
G54D40*
G01X15461Y39401D03*
G01X15461Y38401D03*
G01X12661Y38401D03*
G01X12661Y39401D03*
G01X14061Y38401D03*
G01X14061Y39401D03*
G54D46*
G01X46310Y23001D03*
G01X48012Y23001D03*
G54D40*
G01X9261Y43301D03*
G01X9261Y42301D03*
G01X26761Y47201D03*
G01X26761Y46201D03*
G01X67161Y47201D03*
G01X67161Y46201D03*
G01X46961Y47201D03*
G01X46961Y46201D03*
G54D47*
G01X9996Y39191D03*
G01X9996Y38411D03*
G01X8926Y38411D03*
G01X8926Y39191D03*
G01X27896Y43091D03*
G01X27896Y42311D03*
G01X26826Y42311D03*
G01X26826Y43091D03*
G01X68296Y43091D03*
G01X68296Y42311D03*
G01X67226Y42311D03*
G01X67226Y43091D03*
G01X48096Y43091D03*
G01X48096Y42311D03*
G01X47026Y42311D03*
G01X47026Y43091D03*
G01X43651Y4066D03*
G01X42871Y4066D03*
G01X42871Y5136D03*
G01X43651Y5136D03*
G36*
G01X13634Y64435D02*
G01X15755Y62314D01*
G01X15048Y61607D01*
G01X12926Y63728D01*
G01X13634Y64435D01*
G37*
G36*
G01X9674Y68395D02*
G01X11795Y66274D01*
G01X11088Y65567D01*
G01X8967Y67688D01*
G01X9674Y68395D01*
G37*
G54D49*
G01X3661Y46601D03*
G01X3661Y41001D03*
G01X61861Y50801D03*
G01X61861Y56401D03*
G01X41661Y50801D03*
G01X41661Y56401D03*
G54D50*
G01X17561Y58851D03*
G01X17561Y52351D03*
G01X10361Y58851D03*
G01X10361Y52351D03*
G54D38*
G01X37261Y45701D03*
G01X36261Y45701D03*
G01X19661Y41801D03*
G01X18661Y41801D03*
G01X19061Y50501D03*
G01X18061Y50501D03*
G01X8861Y50501D03*
G01X9861Y50501D03*
G01X36661Y54401D03*
G01X35661Y54401D03*
G01X26461Y54401D03*
G01X27461Y54401D03*
G01X77561Y45701D03*
G01X76561Y45701D03*
G01X57361Y45701D03*
G01X56361Y45701D03*
G01X56861Y54401D03*
G01X55861Y54401D03*
G01X46661Y54401D03*
G01X47661Y54401D03*
G01X77061Y54401D03*
G01X76061Y54401D03*
G01X66861Y54401D03*
G01X67861Y54401D03*
G36*
G01X11761Y17201D02*
G01X11761Y16601D01*
G01X11061Y16601D01*
G01X11061Y15901D01*
G01X11761Y15901D01*
G01X11761Y14101D01*
G01X11061Y14101D01*
G01X11061Y13501D01*
G01X11761Y13501D01*
G01X11761Y13301D01*
G01X15961Y13301D01*
G01X15961Y13501D01*
G01X16661Y13501D01*
G01X16661Y14101D01*
G01X15961Y14101D01*
G01X15961Y15901D01*
G01X16661Y15901D01*
G01X16661Y16601D01*
G01X15961Y16601D01*
G01X15961Y17201D01*
G01X11761Y17201D01*
G37*
G54D51*
G01X15767Y17338D03*
G01X14497Y17338D03*
G01X13227Y17338D03*
G01X11954Y17338D03*
G54D52*
G01X15767Y11863D03*
G01X14497Y11863D03*
G01X13227Y11863D03*
G01X11957Y11863D03*
G54D53*
G01X39461Y13688D03*
G54D54*
G01X41366Y11643D03*
G01X40096Y11643D03*
G01X38826Y11643D03*
G01X37556Y11643D03*
G01X37556Y17358D03*
G01X38826Y17358D03*
G01X40096Y17358D03*
G01X41366Y17358D03*
G54D53*
G01X31361Y13688D03*
G54D54*
G01X33266Y11643D03*
G01X31996Y11643D03*
G01X30726Y11643D03*
G01X29456Y11643D03*
G01X29456Y17358D03*
G01X30726Y17358D03*
G01X31996Y17358D03*
G01X33266Y17358D03*
G54D40*
G01X8061Y32601D03*
G01X8061Y31601D03*
G54D45*
G01X22811Y12501D03*
G01X25311Y13451D03*
G01X25311Y11551D03*
G01X53011Y11801D03*
G01X55511Y12751D03*
G01X55511Y10851D03*
G01X53011Y8101D03*
G01X55511Y9051D03*
G01X55511Y7151D03*
G54D34*
G01X63661Y7201D03*
G01X63661Y9001D03*
G54D33*
G01X81861Y7501D03*
G01X83661Y7501D03*
G01X80061Y7501D03*
G01X78261Y7501D03*
G54D27*
G01X31061Y34101D03*
G01X29061Y34101D03*
G54D34*
G01X9461Y28301D03*
G01X9461Y30101D03*
G54D33*
G01X23261Y22201D03*
G01X25061Y22201D03*
G54D26*
G01X18061Y22601D03*
G01X21261Y22601D03*
G54D48*
G01X19261Y17701D03*
G01X24861Y17701D03*
G54D40*
G01X71561Y12101D03*
G01X71561Y13101D03*
G01X74461Y27401D03*
G01X74461Y28401D03*
G54D38*
G01X60261Y8601D03*
G01X59261Y8601D03*
G01X61361Y7201D03*
G01X60361Y7201D03*
G01X69061Y7201D03*
G01X68061Y7201D03*
G54D40*
G01X83861Y24201D03*
G01X83861Y23201D03*
G01X83861Y12201D03*
G01X83861Y11201D03*
G36*
G01X58948Y32053D02*
G01X59301Y32407D01*
G01X59867Y31841D01*
G01X59513Y31488D01*
G01X58948Y32053D01*
G37*
G36*
G01X59655Y32761D02*
G01X60008Y33114D01*
G01X60574Y32548D01*
G01X60221Y32195D01*
G01X59655Y32761D01*
G37*
G54D38*
G01X68961Y34101D03*
G01X67961Y34101D03*
G54D40*
G01X57761Y22901D03*
G01X57761Y21901D03*
G54D38*
G01X69561Y19001D03*
G01X70561Y19001D03*
G01X79461Y61801D03*
G01X80461Y61801D03*
G01X82261Y56201D03*
G01X83261Y56201D03*
G01X74061Y25201D03*
G01X75061Y25201D03*
G01X74061Y19401D03*
G01X75061Y19401D03*
G54D55*
G01X21061Y12001D03*
G01X17661Y12001D03*
G54D38*
G01X56560Y25201D03*
G01X55560Y25201D03*
G01X56560Y23802D03*
G01X55560Y23802D03*
G54D33*
G01X81960Y9400D03*
G01X83560Y9400D03*
G01X74861Y7500D03*
G01X76461Y7500D03*
G54D40*
G01X26462Y20100D03*
G01X26462Y19100D03*
G54D33*
G01X12961Y30200D03*
G01X11361Y30200D03*
G54D34*
G01X15960Y20900D03*
G01X15960Y19500D03*
G54D33*
G01X16660Y24902D03*
G01X18060Y24902D03*
G01X10861Y26400D03*
G01X9461Y26400D03*
G54D40*
G01X24761Y48301D03*
G01X24761Y49301D03*
G54D38*
G01X31860Y41102D03*
G01X32860Y41102D03*
G01X30762Y41102D03*
G01X29762Y41102D03*
G54D40*
G01X44961Y48301D03*
G01X44961Y49301D03*
G01X65161Y48301D03*
G01X65161Y49301D03*
G54D38*
G01X71160Y41102D03*
G01X70160Y41102D03*
G01X72261Y41102D03*
G01X73261Y41102D03*
G01X52060Y41102D03*
G01X53060Y41102D03*
G01X50960Y41102D03*
G01X49960Y41102D03*
G54D33*
G01X12961Y28201D03*
G01X11361Y28201D03*
G54D40*
G01X70160Y12300D03*
G01X70160Y11300D03*
G54D38*
G01X62462Y10700D03*
G01X63462Y10700D03*
G54D40*
G01X68761Y12100D03*
G01X68761Y13100D03*
G01X63762Y12001D03*
G01X63762Y13001D03*
G54D38*
G01X66962Y17200D03*
G01X65962Y17200D03*
G54D40*
G01X35761Y16502D03*
G01X35761Y17502D03*
G01X27460Y16502D03*
G01X27460Y17502D03*
G54D38*
G01X27861Y13001D03*
G01X26861Y13001D03*
G01X58161Y12801D03*
G01X57161Y12801D03*
G01X58161Y10002D03*
G01X57161Y10002D03*
G54D40*
G01X92860Y31401D03*
G01X92860Y32401D03*
G54D38*
G01X98460Y55300D03*
G01X97460Y55300D03*
G01X95162Y55300D03*
G01X96162Y55300D03*
G01X84361Y56202D03*
G01X85361Y56202D03*
G01X87660Y63502D03*
G01X86660Y63502D03*
G54D40*
G01X93660Y61901D03*
G01X93660Y60901D03*
G54D34*
G01X67061Y11000D03*
G01X67061Y12600D03*
G54D40*
G01X33361Y43301D03*
G01X33361Y42301D03*
G01X31961Y42301D03*
G01X31961Y43301D03*
G01X30561Y42301D03*
G01X30561Y43301D03*
G01X73762Y43301D03*
G01X73762Y42301D03*
G01X53561Y43301D03*
G01X53561Y42301D03*
G01X70960Y42301D03*
G01X70960Y43301D03*
G01X72360Y42301D03*
G01X72360Y43301D03*
G01X52162Y42301D03*
G01X52162Y43301D03*
G01X50762Y42301D03*
G01X50762Y43301D03*
G54D38*
G01X46860Y24800D03*
G01X45860Y24800D03*
G54D40*
G01X72962Y25600D03*
G01X72962Y26600D03*
G54D38*
G01X56560Y22402D03*
G01X55560Y22402D03*
G54D50*
G01X27960Y62751D03*
G01X27960Y56251D03*
G01X35161Y62751D03*
G01X35161Y56251D03*
G01X68362Y62751D03*
G01X68362Y56251D03*
G01X75560Y62751D03*
G01X75560Y56251D03*
G01X55362Y62751D03*
G01X55362Y56251D03*
G01X48161Y62751D03*
G01X48161Y56251D03*
G54D40*
G01X35761Y14401D03*
G01X35761Y15401D03*
G01X27061Y14401D03*
G01X27061Y15401D03*
G54D38*
G01X26861Y11602D03*
G01X27861Y11602D03*
G01X57161Y11401D03*
G01X58161Y11401D03*
G01X57161Y8600D03*
G01X58161Y8600D03*
G01X65560Y10700D03*
G01X64560Y10700D03*
G54D40*
G01X93660Y56700D03*
G01X93660Y57700D03*
G01X93660Y58800D03*
G01X93660Y59800D03*
G01X25362Y46202D03*
G01X25362Y47202D03*
G01X45560Y46202D03*
G01X45560Y47202D03*
G01X65761Y46202D03*
G01X65761Y47202D03*
G54D38*
G01X57161Y14200D03*
G01X58161Y14200D03*
G01X18662Y44602D03*
G01X19662Y44602D03*
G01X18662Y43202D03*
G01X19662Y43202D03*
G01X36261Y47101D03*
G01X37261Y47101D03*
G01X36261Y48501D03*
G01X37261Y48501D03*
G01X56360Y47101D03*
G01X57360Y47101D03*
G01X56360Y48501D03*
G01X57360Y48501D03*
G01X76561Y48501D03*
G01X77561Y48501D03*
G01X76561Y47101D03*
G01X77561Y47101D03*
M00*
M02*
