;Layer: Drill PTH
;EasyEDA v6.3.39, 2020-04-29T16:10:24+08:00
;8e32648d726441b9b9f64577d1232170,fed530592efb474aaabf7115e2e2b964,10
;Gerber Generator version 0.2
M48
METRIC,LZ,000.000
;Holesize 1 = 0.301 METRIC
T01C0.301
;Holesize 2 = 0.305 METRIC
T02C0.305
;Holesize 3 = 0.610 METRIC
T03C0.610
;Holesize 4 = 0.800 METRIC
T04C0.800
;Holesize 5 = 1.000 METRIC
T05C1.000
;Holesize 6 = 1.021 METRIC
T06C1.021
;Holesize 7 = 1.050 METRIC
T07C1.050
;Holesize 8 = 1.100 METRIC
T08C1.100
;Holesize 9 = 1.200 METRIC
T09C1.200
;Holesize 10 = 1.600 METRIC
T10C1.600
;Holesize 11 = 1.800 METRIC
T11C1.800
%
G05
G90
T01
X+060861Y+011301
X+059461Y+011601
X+060161Y+011601
X+088761Y+046101
X+089461Y+046101
X+090161Y+046101
X+089061Y+046601
X+089761Y+046601
X+090461Y+046601
X+086361Y+046601
X+087061Y+046601
X+087761Y+046601
X+088461Y+046601
X+087761Y+045901
X+087061Y+045901
X+086361Y+045901
X+080761Y+026601
X+091961Y+015301
X+073161Y+018701
X+066161Y+019101
X+067661Y+018701
X+077461Y+032701
X+080361Y+028101
X+061661Y+027801
X+077261Y+031701
X+066661Y+022901
X+061561Y+028801
X+054361Y+025001
X+054361Y+024001
X+080761Y+025801
X+072911Y+012201
X+028261Y+014101
X+026261Y+016401
X+034561Y+016901
X+042561Y+003201
X+043761Y+002901
X+016371Y+033641
X+088161Y+062401
X+085861Y+053201
X+095761Y+043901
X+095561Y+045001
X+076161Y+050901
X+076761Y+050901
X+075611Y+051701
X+075111Y+051301
X+074761Y+051901
X+074711Y+050801
X+074761Y+052501
X+074761Y+053101
X+070561Y+049201
X+071261Y+049201
X+071961Y+049201
X+072661Y+049201
X+073361Y+049201
X+070561Y+048501
X+071261Y+048501
X+071961Y+048501
X+072661Y+048501
X+073361Y+048501
X+070561Y+047801
X+071261Y+047801
X+071961Y+047801
X+072661Y+047801
X+073361Y+047801
X+070561Y+047101
X+071261Y+047101
X+071961Y+047101
X+072661Y+047101
X+073361Y+047101
X+070561Y+046401
X+071261Y+046401
X+071961Y+046401
X+072661Y+046401
X+073361Y+046401
X+069161Y+053101
X+069161Y+052501
X+069161Y+051901
X+068311Y+051701
X+068761Y+051301
X+069211Y+050801
X+067761Y+050981
X+067161Y+050981
X+073461Y+038301
X+068961Y+039701
X+065961Y+043501
X+054511Y+050801
X+054911Y+051301
X+055411Y+051701
X+054561Y+051901
X+054561Y+052501
X+054561Y+053101
X+050361Y+049201
X+051061Y+049201
X+051761Y+049201
X+052461Y+049201
X+053161Y+049201
X+053161Y+048501
X+052461Y+048501
X+051761Y+048501
X+051061Y+048501
X+050361Y+048501
X+050361Y+047801
X+051061Y+047801
X+051761Y+047801
X+052461Y+047801
X+053161Y+047801
X+053161Y+047101
X+052461Y+047101
X+051761Y+047101
X+051061Y+047101
X+050361Y+047101
X+050361Y+046401
X+051061Y+046401
X+051761Y+046401
X+052461Y+046401
X+053161Y+046401
X+055961Y+050901
X+056551Y+050901
X+045761Y+043501
X+048161Y+040201
X+059761Y+042901
X+049261Y+040201
X+059561Y+043701
X+051261Y+040201
X+061161Y+040701
X+055761Y+039501
X+061261Y+042101
X+049011Y+050801
X+048561Y+051301
X+048111Y+051701
X+048961Y+051901
X+049061Y+052600
X+048961Y+053101
X+047561Y+050981
X+046961Y+050981
X+030161Y+049201
X+030861Y+049201
X+031561Y+049201
X+032261Y+049201
X+032961Y+049201
X+032961Y+048501
X+032961Y+047801
X+032961Y+047101
X+032961Y+046401
X+032261Y+046401
X+032261Y+047101
X+032261Y+047801
X+032261Y+048501
X+031561Y+048501
X+031561Y+047801
X+031561Y+047101
X+031561Y+046401
X+030861Y+046401
X+030161Y+046401
X+030161Y+047101
X+030861Y+047101
X+030861Y+047801
X+030161Y+047801
X+030161Y+048501
X+030861Y+048501
X+022161Y+045101
X+027661Y+041001
X+039661Y+042901
X+028761Y+040901
X+040061Y+043601
X+030961Y+040101
X+042461Y+040201
X+033961Y+040701
X+041261Y+042101
X+028661Y+032401
X+035761Y+050901
X+036351Y+050901
X+035211Y+051701
X+034711Y+051301
X+034311Y+050801
X+034361Y+051901
X+034361Y+052501
X+034361Y+053101
X+028361Y+051301
X+028811Y+050801
X+027911Y+051701
X+028761Y+051901
X+028860Y+052600
X+028761Y+053101
X+027361Y+050981
X+026761Y+050981
X+012561Y+045301
X+013261Y+045301
X+013961Y+045301
X+014661Y+045301
X+015361Y+045301
X+015361Y+044601
X+014661Y+044601
X+013961Y+044601
X+013261Y+044601
X+012561Y+044601
X+012561Y+043901
X+013261Y+043901
X+013961Y+043901
X+014661Y+043901
X+015361Y+043901
X+015361Y+043201
X+014661Y+043201
X+013961Y+043201
X+013261Y+043201
X+012561Y+043201
X+012561Y+042501
X+013261Y+042501
X+013961Y+042501
X+014661Y+042501
X+015361Y+042501
X+007861Y+039301
X+012111Y+016601
X+012811Y+016601
X+013511Y+016601
X+014211Y+016601
X+014911Y+016601
X+015611Y+016601
X+012111Y+015901
X+012811Y+015901
X+013511Y+015901
X+014211Y+015901
X+014911Y+015901
X+015611Y+015901
X+012111Y+015201
X+012811Y+015201
X+013511Y+015201
X+014211Y+015201
X+014911Y+015201
X+015611Y+015201
X+012111Y+014501
X+012811Y+014501
X+013511Y+014501
X+014211Y+014501
X+014911Y+014501
X+015611Y+014501
X+012111Y+013801
X+012811Y+013801
X+013511Y+013801
X+014211Y+013801
X+014911Y+013801
X+015611Y+013801
X+018161Y+030901
X+018761Y+030901
X+019461Y+030901
X+020161Y+030901
X+020761Y+030901
X+018161Y+030301
X+018761Y+030301
X+019461Y+030301
X+020161Y+030301
X+020761Y+030301
X+018161Y+029701
X+018761Y+029701
X+019461Y+029701
X+020161Y+029701
X+020761Y+029701
X+018161Y+029101
X+018761Y+029101
X+019461Y+029101
X+020161Y+029101
X+020761Y+029101
X+029661Y+015001
X+030361Y+015001
X+031061Y+015001
X+031761Y+015001
X+032461Y+015001
X+033061Y+015001
X+029661Y+014301
X+030361Y+014301
X+031061Y+014301
X+031761Y+014301
X+032461Y+014301
X+033061Y+014301
X+029661Y+013601
X+030361Y+013601
X+031061Y+013601
X+031761Y+013601
X+032461Y+013601
X+033061Y+013601
X+029661Y+012901
X+030361Y+012901
X+031061Y+012901
X+031761Y+012901
X+032461Y+012901
X+033061Y+012901
X+029661Y+012301
X+030361Y+012301
X+031061Y+012301
X+031761Y+012301
X+032461Y+012301
X+033061Y+012301
X+037761Y+015001
X+038461Y+015001
X+039161Y+015001
X+039861Y+015001
X+040561Y+015001
X+041161Y+015001
X+037761Y+014301
X+038461Y+014301
X+039161Y+014301
X+039861Y+014301
X+040561Y+014301
X+041161Y+014301
X+037761Y+013601
X+038461Y+013601
X+039161Y+013601
X+039861Y+013601
X+040561Y+013601
X+041161Y+013601
X+037761Y+013001
X+038461Y+013001
X+039161Y+013001
X+039861Y+013001
X+040561Y+013001
X+041161Y+013001
X+037761Y+012301
X+038461Y+012301
X+039161Y+012301
X+039861Y+012301
X+040561Y+012301
X+041161Y+012301
X+018161Y+047001
X+018751Y+047001
X+016711Y+046901
X+017111Y+047401
X+017611Y+047801
X+016761Y+048001
X+016660Y+048701
X+016761Y+049201
X+009761Y+047081
X+009161Y+047081
X+011161Y+049201
X+011261Y+048700
X+011161Y+048001
X+010491Y+047841
X+010941Y+047421
X+011211Y+046901
X+087969Y+040693
X+087969Y+039993
X+088669Y+041393
X+088669Y+040693
X+088669Y+039993
X+089369Y+041393
X+089369Y+040693
X+089369Y+039993
X+090069Y+041393
X+090069Y+040693
X+090069Y+039993
X+067961Y+022501
X+074069Y+010493
X+074069Y+009793
X+074769Y+010493
X+074769Y+009793
X+080461Y+014801
X+081161Y+014801
X+081861Y+014801
X+082561Y+014801
X+081561Y+014201
X+082261Y+014201
X+068971Y+022501
X+071461Y+017801
X+091661Y+030301
X+083461Y+026701
X+094461Y+026701
X+067371Y+030491
X+075461Y+032201
X+080461Y+041301
X+081061Y+041301
X+081061Y+040701
X+080461Y+040101
X+081061Y+040101
X+080461Y+039501
X+081061Y+039501
X+080461Y+038901
X+081061Y+038901
X+082561Y+049501
X+082561Y+048901
X+083161Y+049501
X+083761Y+049501
X+084361Y+049501
X+083161Y+048901
X+035661Y+022201
X+036261Y+022201
X+036861Y+022201
X+037461Y+022201
X+035661Y+021601
X+036261Y+021601
X+036861Y+021601
X+035661Y+021001
X+036261Y+021001
X+036861Y+021001
X+035661Y+020401
X+036261Y+020401
X+036861Y+020401
X+035661Y+019801
X+036261Y+019801
X+036861Y+019801
X+037461Y+019801
X+084461Y+033901
X+084461Y+033301
X+084461Y+032701
X+085961Y+033901
X+085961Y+032501
X+088861Y+033901
X+088861Y+032601
X+078361Y+032701
X+078361Y+032201
X+078361Y+031701
X+004869Y+044593
X+005569Y+048093
X+005569Y+047393
X+005569Y+046693
X+005569Y+045293
X+005569Y+044593
X+006161Y+048001
X+006269Y+047393
X+006269Y+045993
X+006269Y+044593
X+016023Y+061477
X+012261Y+064201
X+012861Y+064601
X+014461Y+064601
X+013861Y+065001
X+013261Y+065101
X+039969Y+052893
X+039969Y+052193
X+039961Y+051501
X+039861Y+050801
X+040461Y+049901
X+039969Y+049393
X+040661Y+051201
X+042769Y+052893
X+042761Y+051201
X+043469Y+052893
X+043469Y+052193
X+043361Y+051601
X+043469Y+050793
X+042961Y+049901
X+043469Y+049393
X+060169Y+052893
X+060169Y+052193
X+060169Y+051493
X+060021Y+050721
X+060661Y+049901
X+060169Y+049393
X+060861Y+051201
X+062969Y+052893
X+062861Y+051201
X+063669Y+052893
X+063669Y+052193
X+063561Y+051501
X+063669Y+050793
X+063061Y+049901
X+063669Y+049393
X+017961Y+035501
X+017361Y+041301
X+017861Y+041001
X+017361Y+040701
X+017361Y+035501
X+024061Y+046201
X+034861Y+045401
X+035461Y+045301
X+044461Y+046461
X+064631Y+046261
X+055961Y+044801
X+056561Y+044701
X+075861Y+044701
X+076461Y+044601
X+042361Y+031301
X+042961Y+031301
X+042661Y+030801
X+042361Y+030301
X+042961Y+030301
X+042371Y+034341
X+042971Y+034341
X+071961Y+056901
X+051761Y+057001
X+031561Y+056901
X+013961Y+053101
X+083843Y+059044
X+083843Y+058344
X+083843Y+057644
X+084543Y+059744
X+084543Y+059044
X+084543Y+058344
X+084543Y+057644
X+085243Y+060444
X+085243Y+059744
X+085243Y+059044
X+085243Y+058344
X+085243Y+057644
X+085943Y+060444
X+085943Y+059744
X+085943Y+059044
X+085943Y+058344
X+085943Y+057644
X+084861Y+055101
X+084061Y+054101
X+084961Y+053701
X+001064Y+053807
X+001064Y+053108
X+001064Y+052408
X+001064Y+051708
X+002529Y+050307
X+001064Y+050307
X+003261Y+050307
X+001796Y+050307
X+005964Y+064307
X+006664Y+065007
X+006664Y+064307
X+007364Y+069207
X+007364Y+068507
X+007364Y+067808
X+007364Y+067108
X+007364Y+066408
X+007161Y+065701
X+007261Y+065001
X+007364Y+064307
X+008064Y+069207
X+008064Y+068507
X+008064Y+067808
X+008064Y+067108
X+008064Y+066408
X+007761Y+065701
X+008621Y+068631
X+007961Y+064301
X+008764Y+069207
X+008661Y+067001
X+008661Y+066401
X+008764Y+065007
X+008841Y+064401
X+009464Y+069207
X+008961Y+065501
X+007161Y+063701
X+006561Y+063701
X+010164Y+069207
X+008361Y+063701
X+007761Y+063701
X+010864Y+069207
X+010661Y+068601
X+011561Y+069501
X+011661Y+068501
X+012361Y+069101
X+012264Y+068507
X+013161Y+069401
X+012964Y+068507
X+013664Y+069207
X+014364Y+069207
X+014364Y+068507
X+015064Y+069207
X+091561Y+055901
X+093261Y+064201
X+093761Y+063001
X+091561Y+058501
X+093061Y+055701
X+093461Y+052901
X+094261Y+052901
X+093140Y+063436
X+093140Y+055036
X+093140Y+054336
X+093140Y+053636
X+093840Y+055036
X+093840Y+054336
X+093840Y+053636
X+094540Y+053636
X+095240Y+062036
X+095240Y+053636
X+095240Y+052936
X+095940Y+053636
X+095940Y+052936
X+095940Y+052236
X+020225Y+060108
X+020225Y+059408
X+020925Y+060808
X+020925Y+060108
X+020925Y+059408
X+020925Y+058708
X+021625Y+061507
X+022325Y+062207
X+022325Y+061507
X+023025Y+062907
X+023025Y+062207
X+023025Y+061507
X+023025Y+060808
X+023025Y+060108
X+023025Y+058708
X+023025Y+058007
X+023025Y+057307
X+023025Y+056607
X+023725Y+063607
X+023725Y+062907
X+023725Y+062207
X+023725Y+061507
X+023725Y+060808
X+023725Y+060108
X+023725Y+059408
X+023725Y+058708
X+023725Y+058007
X+023725Y+057307
X+023725Y+056607
X+023725Y+055907
X+023725Y+055207
X+024425Y+064307
X+024425Y+063607
X+024425Y+062907
X+024425Y+062207
X+024425Y+061507
X+024425Y+060808
X+024425Y+060108
X+024425Y+059408
X+024425Y+058708
X+024425Y+058007
X+024425Y+057307
X+024425Y+056607
X+024425Y+055907
X+024425Y+055207
X+024961Y+069201
X+024961Y+068501
X+025825Y+069207
X+026525Y+069207
X+027225Y+069207
X+027925Y+069207
X+028625Y+069207
X+029325Y+069207
X+030025Y+069207
X+030725Y+069207
X+031425Y+069207
X+032125Y+069207
X+032825Y+069207
X+033525Y+069207
X+034225Y+069207
X+034925Y+069207
X+035625Y+069207
X+036325Y+069207
X+037025Y+069207
X+037261Y+068701
X+038425Y+069207
X+038425Y+068507
X+038425Y+067808
X+038425Y+067108
X+038425Y+066408
X+038425Y+065707
X+038425Y+065007
X+038425Y+064307
X+038425Y+063607
X+038425Y+062907
X+038425Y+062207
X+038425Y+061507
X+038425Y+060808
X+038425Y+060108
X+039125Y+069207
X+039125Y+068507
X+039125Y+067808
X+039125Y+067108
X+039125Y+066408
X+039125Y+065707
X+039125Y+065007
X+039125Y+064307
X+039125Y+063607
X+039125Y+062907
X+039125Y+062207
X+039125Y+061507
X+039125Y+060808
X+039125Y+060108
X+039125Y+059408
X+039125Y+058708
X+039125Y+058007
X+039125Y+057307
X+039161Y+056501
X+038861Y+055501
X+038781Y+056131
X+039825Y+069207
X+039825Y+068507
X+039825Y+067808
X+039825Y+067108
X+039825Y+066408
X+039825Y+065707
X+039825Y+065007
X+039825Y+064307
X+039825Y+063607
X+039825Y+062907
X+039825Y+062207
X+039825Y+061507
X+039825Y+060808
X+039825Y+060108
X+039825Y+059408
X+039825Y+058708
X+039825Y+058007
X+039825Y+057307
X+039761Y+056501
X+039261Y+056001
X+043241Y+056561
X+040525Y+069207
X+040525Y+068507
X+040525Y+067808
X+040525Y+067108
X+040525Y+066408
X+040525Y+065707
X+040525Y+065007
X+040525Y+064307
X+040525Y+063607
X+040525Y+062907
X+040525Y+062207
X+040525Y+061507
X+040525Y+060808
X+040525Y+060108
X+040525Y+059408
X+040525Y+058708
X+041225Y+069207
X+041225Y+068507
X+041225Y+067808
X+041225Y+067108
X+041225Y+066408
X+041225Y+065707
X+041225Y+065007
X+041225Y+064307
X+041225Y+063607
X+041225Y+062907
X+041225Y+062207
X+041225Y+061507
X+041225Y+060808
X+041225Y+060108
X+041225Y+059408
X+041925Y+069207
X+041925Y+068507
X+041925Y+067808
X+041925Y+067108
X+041925Y+066408
X+041925Y+065707
X+041925Y+065007
X+041925Y+064307
X+041925Y+063607
X+041925Y+062907
X+041925Y+062207
X+041925Y+061507
X+041925Y+060808
X+041925Y+060108
X+041925Y+059408
X+042625Y+069207
X+042625Y+068507
X+042625Y+067808
X+042625Y+067108
X+042625Y+066408
X+042625Y+065707
X+042625Y+065007
X+042625Y+064307
X+042625Y+063607
X+042625Y+062907
X+042625Y+062207
X+042625Y+061507
X+042625Y+060808
X+042625Y+060108
X+042625Y+059408
X+042625Y+058708
X+043325Y+069207
X+043325Y+068507
X+043325Y+067808
X+043325Y+067108
X+043325Y+066408
X+043325Y+065707
X+043325Y+065007
X+043325Y+064307
X+043325Y+063607
X+043325Y+062907
X+043325Y+062207
X+043325Y+061507
X+043325Y+060808
X+043325Y+060108
X+043325Y+059408
X+043325Y+058708
X+043325Y+058007
X+043325Y+057307
X+043761Y+056301
X+044025Y+069207
X+044025Y+068507
X+044025Y+067808
X+044025Y+067108
X+044025Y+066408
X+044025Y+065707
X+044025Y+065007
X+044025Y+064307
X+044025Y+063607
X+044025Y+062907
X+044025Y+062207
X+044025Y+061507
X+044025Y+060808
X+044025Y+060108
X+044025Y+059408
X+044025Y+058708
X+044025Y+058007
X+044025Y+057307
X+044361Y+056501
X+044261Y+055901
X+044461Y+055401
X+044725Y+069207
X+044725Y+068507
X+044725Y+067808
X+044725Y+067108
X+044725Y+066408
X+044725Y+065707
X+044725Y+065007
X+044725Y+064307
X+044725Y+063607
X+044725Y+062907
X+044725Y+062207
X+044725Y+061507
X+044725Y+060808
X+044725Y+060108
X+046061Y+068601
X+046125Y+069207
X+046825Y+069207
X+047525Y+069207
X+048225Y+069207
X+048925Y+069207
X+049625Y+069207
X+050325Y+069207
X+051025Y+069207
X+051725Y+069207
X+052425Y+069207
X+053125Y+069207
X+053825Y+069207
X+054525Y+069207
X+055225Y+069207
X+055925Y+069207
X+056625Y+069207
X+057325Y+069207
X+057561Y+068601
X+058725Y+069207
X+058725Y+068507
X+058725Y+067808
X+058725Y+067108
X+058725Y+066408
X+058725Y+065707
X+058725Y+065007
X+058725Y+064307
X+058725Y+063607
X+058725Y+062907
X+058725Y+062207
X+058725Y+061507
X+058725Y+060808
X+058725Y+060108
X+059425Y+069207
X+059425Y+068507
X+059425Y+067808
X+059425Y+067108
X+059425Y+066408
X+059425Y+065707
X+059425Y+065007
X+059425Y+064307
X+059425Y+063607
X+059425Y+062907
X+059425Y+062207
X+059425Y+061507
X+059425Y+060808
X+059425Y+060108
X+059425Y+059408
X+059425Y+058708
X+059425Y+058007
X+059425Y+057307
X+058961Y+056501
X+058961Y+055901
X+058961Y+055301
X+060125Y+069207
X+060125Y+068507
X+060125Y+067808
X+060125Y+067108
X+060125Y+066408
X+060125Y+065707
X+060125Y+065007
X+060125Y+064307
X+060125Y+063607
X+060125Y+062907
X+060125Y+062207
X+060125Y+061507
X+060125Y+060808
X+060125Y+060108
X+060125Y+059408
X+060125Y+058708
X+060125Y+058007
X+060125Y+057307
X+059561Y+056501
X+059491Y+055971
X+060825Y+069207
X+060825Y+068507
X+060825Y+067808
X+060825Y+067108
X+060825Y+066408
X+060825Y+065707
X+060825Y+065007
X+060825Y+064307
X+060825Y+063607
X+060825Y+062907
X+060825Y+062207
X+060825Y+061507
X+060825Y+060808
X+060825Y+060108
X+060825Y+059408
X+060825Y+058708
X+060141Y+056541
X+061525Y+069207
X+061525Y+068507
X+061525Y+067808
X+061525Y+067108
X+061525Y+066408
X+061525Y+065707
X+061525Y+065007
X+061525Y+064307
X+061525Y+063607
X+061525Y+062907
X+061525Y+062207
X+061525Y+061507
X+061525Y+060808
X+061525Y+060108
X+061525Y+059408
X+062225Y+069207
X+062225Y+068507
X+062225Y+067808
X+062225Y+067108
X+062225Y+066408
X+062225Y+065707
X+062225Y+065007
X+062225Y+064307
X+062225Y+063607
X+062225Y+062907
X+062225Y+062207
X+062225Y+061507
X+062225Y+060808
X+062225Y+060108
X+062225Y+059408
X+062925Y+069207
X+062925Y+068507
X+062925Y+067808
X+062925Y+067108
X+062925Y+066408
X+062925Y+065707
X+062925Y+065007
X+062925Y+064307
X+062925Y+063607
X+062925Y+062907
X+062925Y+062207
X+062925Y+061507
X+062925Y+060808
X+062925Y+060108
X+062925Y+059408
X+062925Y+058708
X+063625Y+069207
X+063625Y+068507
X+063625Y+067808
X+063625Y+067108
X+063625Y+066408
X+063625Y+065707
X+063625Y+065007
X+063625Y+064307
X+063625Y+063607
X+063625Y+062907
X+063625Y+062207
X+063625Y+061507
X+063625Y+060808
X+063625Y+060108
X+063625Y+059408
X+063625Y+058708
X+063625Y+058007
X+063625Y+057307
X+063601Y+056531
X+064161Y+056501
X+064161Y+056001
X+064325Y+069207
X+064325Y+068507
X+064325Y+067808
X+064325Y+067108
X+064325Y+066408
X+064325Y+065707
X+064325Y+065007
X+064325Y+064307
X+064325Y+063607
X+064325Y+062907
X+064325Y+062207
X+064325Y+061507
X+064325Y+060808
X+064325Y+060108
X+064325Y+059408
X+064325Y+058708
X+064325Y+058007
X+064325Y+057307
X+064761Y+056501
X+064761Y+055901
X+064761Y+055301
X+065025Y+069207
X+065025Y+068507
X+065025Y+067808
X+065025Y+067108
X+065025Y+066408
X+065025Y+065707
X+065025Y+065007
X+065025Y+064307
X+065025Y+063607
X+065025Y+062907
X+065025Y+062207
X+065025Y+061507
X+065025Y+060808
X+065025Y+060108
X+066261Y+068601
X+066425Y+069207
X+067125Y+069207
X+067825Y+069207
X+068525Y+069207
X+069225Y+069207
X+069925Y+069207
X+070625Y+069207
X+071325Y+069207
X+072025Y+069207
X+072725Y+069207
X+073425Y+069207
X+074125Y+069207
X+074825Y+069207
X+075525Y+069207
X+076225Y+069207
X+076925Y+069207
X+077625Y+069207
X+079025Y+063607
X+079025Y+062901
X+079025Y+060660
X+079025Y+054765
X+079025Y+054029
X+079025Y+053292
X+079025Y+052555
X+079025Y+051818
X+079025Y+051081
X+079025Y+050344
X+079025Y+049607
X+006061Y+041001
X+065026Y+041488
X+065026Y+040788
X+065026Y+040088
X+065026Y+039388
X+065026Y+038688
X+065026Y+037988
X+065026Y+037288
X+065726Y+041488
X+065726Y+040788
X+065726Y+040088
X+065726Y+039388
X+065726Y+038688
X+065726Y+037988
X+003761Y+038201
X+003761Y+037501
X+001064Y+041436
X+001061Y+040801
X+001064Y+040036
X+001064Y+039336
X+001064Y+038636
X+001064Y+037936
X+001064Y+037236
X+006361Y+041501
X+000761Y+036601
X+003861Y+038901
X+001761Y+040801
X+001764Y+040036
X+001764Y+039336
X+001764Y+038636
X+001764Y+037936
X+001764Y+037236
X+002461Y+040101
X+002461Y+039401
X+002464Y+038636
X+002464Y+037936
X+002464Y+037236
X+003164Y+038636
X+003164Y+037936
X+003164Y+037236
X+074400Y+041136
X+082846Y+025636
X+083561Y+025701
X+084261Y+025601
X+083361Y+025001
X+086061Y+025801
X+086061Y+024201
X+086401Y+027601
X+087101Y+027601
X+087801Y+027601
X+045425Y+018236
X+045425Y+017536
X+045425Y+016836
X+045425Y+016136
X+045425Y+015436
X+046125Y+018936
X+046125Y+018236
X+046125Y+017536
X+046125Y+016836
X+046125Y+016136
X+046125Y+015436
X+046825Y+018936
X+046825Y+018236
X+046825Y+017536
X+046825Y+016836
X+046825Y+016136
X+046825Y+015436
X+047525Y+018936
X+047525Y+018236
X+047525Y+017536
X+047525Y+016836
X+047525Y+016136
X+047525Y+015436
X+048225Y+018936
X+048225Y+018236
X+048225Y+017536
X+048225Y+016836
X+048225Y+016136
X+048225Y+015436
X+048925Y+018936
X+048925Y+018236
X+048925Y+017536
X+048925Y+016836
X+048925Y+016136
X+048925Y+015436
X+049625Y+018936
X+049625Y+018236
X+049625Y+017536
X+049625Y+016836
X+049625Y+016136
X+049625Y+015436
X+050325Y+018936
X+050325Y+018236
X+050325Y+017536
X+050325Y+016836
X+050325Y+016136
X+050325Y+015436
X+051025Y+018936
X+051025Y+018236
X+051025Y+017536
X+051025Y+016836
X+051025Y+016136
X+051025Y+015436
X+051725Y+018936
X+051725Y+018236
X+051725Y+017536
X+051725Y+016836
X+051725Y+016136
X+051725Y+015436
X+052425Y+018936
X+052425Y+018236
X+052425Y+017536
X+052425Y+016836
X+052425Y+016136
X+052425Y+015436
X+053125Y+018936
X+053125Y+018236
X+053125Y+017536
X+053125Y+016836
X+053125Y+016136
X+053125Y+015436
X+053825Y+018936
X+053825Y+018236
X+053825Y+017536
X+053825Y+016836
X+053825Y+016136
X+053825Y+015436
X+054525Y+018936
X+054525Y+018236
X+054525Y+017536
X+054525Y+016836
X+054525Y+016136
X+054525Y+015436
X+001064Y+027207
X+001064Y+026507
X+001064Y+025907
X+001064Y+025307
X+000764Y+011107
X+000764Y+010407
X+000764Y+009707
X+000764Y+009008
X+001764Y+027207
X+001764Y+026507
X+001764Y+025907
X+001764Y+025307
X+001464Y+011107
X+001464Y+010407
X+001464Y+009707
X+001464Y+009008
X+002464Y+027207
X+002464Y+026507
X+002464Y+025907
X+002464Y+025307
X+002164Y+011107
X+002164Y+010407
X+002164Y+009707
X+002164Y+009008
X+002164Y+008308
X+002164Y+007608
X+003164Y+027207
X+003164Y+026507
X+003164Y+025907
X+003164Y+025307
X+003164Y+011107
X+003164Y+010407
X+003164Y+009707
X+003164Y+009008
X+003164Y+008308
X+003164Y+007608
X+003864Y+027207
X+003864Y+026507
X+003864Y+025907
X+003864Y+025307
X+003864Y+011107
X+003864Y+007608
X+004564Y+027207
X+004564Y+026507
X+004564Y+025907
X+004564Y+025307
X+005264Y+027907
X+005264Y+027207
X+005264Y+026507
X+005264Y+025907
X+005264Y+025307
X+005264Y+007608
X+006761Y+004801
X+005964Y+028607
X+005964Y+027907
X+005964Y+027207
X+005964Y+026507
X+005964Y+025907
X+005964Y+025307
X+005961Y+007601
X+005761Y+006301
X+006664Y+029308
X+006664Y+028607
X+006664Y+027907
X+006664Y+027207
X+006664Y+026507
X+006664Y+025907
X+006664Y+025307
X+006664Y+024407
X+006664Y+023708
X+006664Y+023008
X+006664Y+007608
X+006961Y+008401
X+006461Y+006201
X+006664Y+005507
X+007364Y+030008
X+007364Y+029308
X+007364Y+028607
X+007364Y+027907
X+007364Y+027207
X+007364Y+026507
X+007364Y+025907
X+007364Y+025307
X+007364Y+024407
X+007364Y+023708
X+007364Y+011107
X+008064Y+030008
X+008064Y+029308
X+008064Y+028607
X+008064Y+027907
X+008064Y+027207
X+008064Y+026507
X+008064Y+025907
X+008064Y+025307
X+008064Y+024407
X+008064Y+023708
X+008064Y+023008
X+008064Y+011107
X+015064Y+023708
X+015064Y+023008
X+015064Y+022308
X+015764Y+023008
X+015764Y+022308
X+016464Y+023008
X+016464Y+022308
X+066164Y+004807
X+066261Y+005501
X+066461Y+004101
X+066461Y+003401
X+068261Y+003801
X+068261Y+003201
X+068261Y+004401
X+073161Y+005201
X+073761Y+004701
X+074161Y+004001
X+074161Y+003301
X+082264Y+035607
X+082964Y+035607
X+083664Y+035607
X+084364Y+035607
X+082561Y+036201
X+085861Y+035601
X+087261Y+067801
X+087261Y+067101
X+088651Y+067881
X+088651Y+067181
X+088651Y+066481
X+088561Y+069201
X+089264Y+068507
X+089264Y+035607
X+089264Y+014608
X+089264Y+013907
X+089964Y+035607
X+089964Y+014608
X+089964Y+013907
X+093461Y+066401
X+083361Y+036201
X+084061Y+036201
X+089661Y+015401
X+088961Y+015401
X+092061Y+069201
X+091364Y+068507
X+091364Y+035607
X+091961Y+035901
X+091364Y+032107
X+091364Y+031407
X+093461Y+027901
X+094161Y+027901
X+092061Y+025901
X+088261Y+015601
X+091364Y+007608
X+091364Y+006908
X+091364Y+004107
X+091364Y+003407
X+091364Y+002707
X+091364Y+002007
X+091364Y+001308
X+091861Y+067901
X+091861Y+067201
X+091861Y+066501
X+092061Y+028501
X+092064Y+027907
X+092064Y+025107
X+092064Y+013907
X+092064Y+009008
X+092064Y+008308
X+092064Y+007608
X+092064Y+006908
X+092064Y+004807
X+092064Y+004107
X+092064Y+003407
X+092064Y+002707
X+092064Y+002007
X+092064Y+001308
X+093361Y+068001
X+093361Y+067301
X+092764Y+029308
X+092761Y+028501
X+092764Y+027907
X+092061Y+024301
X+093161Y+013801
X+092764Y+009008
X+092764Y+008308
X+092764Y+007608
X+092764Y+006908
X+092764Y+004807
X+092764Y+004107
X+092764Y+003407
X+092764Y+002707
X+092764Y+002007
X+092764Y+001308
X+093464Y+029308
X+093461Y+028501
X+093464Y+025107
X+093464Y+014608
X+093464Y+009008
X+093464Y+008308
X+093464Y+007608
X+093464Y+006908
X+093464Y+006207
X+093464Y+005507
X+093464Y+004807
X+093464Y+004107
X+093464Y+001308
X+094164Y+035607
X+094164Y+032807
X+094164Y+032107
X+094164Y+031407
X+094164Y+029308
X+094161Y+028501
X+094164Y+025807
X+094164Y+025107
X+094164Y+009008
X+094164Y+008308
X+094164Y+006207
X+094164Y+005507
X+095561Y+036001
X+093861Y+030901
X+095261Y+032101
X+094864Y+029308
X+094861Y+028501
X+094864Y+025107
X+094864Y+009008
X+094864Y+008308
X+094864Y+006207
X+095564Y+029308
X+095561Y+028501
X+095564Y+027907
X+095564Y+009008
X+095564Y+008308
X+096264Y+030008
X+096264Y+029308
X+096261Y+028501
X+096264Y+027907
X+095761Y+026901
X+096264Y+009008
X+096264Y+008308
X+096264Y+007608
X+096961Y+030901
X+096964Y+030008
X+096964Y+029308
X+096961Y+028501
X+096964Y+027907
X+096261Y+026201
X+096964Y+026507
X+096964Y+025807
X+096964Y+025107
X+096964Y+009008
X+096964Y+008308
X+097661Y+030901
X+097664Y+030008
X+097664Y+029308
X+097661Y+028501
X+097664Y+027907
X+096361Y+026801
X+097664Y+026507
X+097664Y+025807
X+097664Y+025107
X+097664Y+009008
X+097664Y+008308
X+097664Y+007608
X+098364Y+046807
X+098364Y+046108
X+098364Y+045408
X+098364Y+044708
X+098364Y+044008
X+098364Y+043307
X+098364Y+042607
X+098364Y+041907
X+098364Y+041207
X+098364Y+038408
X+098364Y+009008
X+098364Y+008308
X+098364Y+007608
X+099064Y+046807
X+099064Y+046108
X+099064Y+045408
X+099064Y+044708
X+099064Y+044008
X+099064Y+043307
X+099064Y+042607
X+099064Y+041907
X+099064Y+041207
X+099064Y+038408
X+100061Y+039101
X+099064Y+009008
X+099064Y+008308
X+099064Y+007608
X+099764Y+062907
X+099764Y+058007
X+099764Y+057307
X+099261Y+051401
X+099764Y+051708
X+099764Y+051008
X+099764Y+050307
X+099764Y+049607
X+099764Y+046807
X+099764Y+046108
X+099764Y+045408
X+099764Y+044708
X+099764Y+044008
X+099764Y+043307
X+099764Y+042607
X+099764Y+041907
X+099764Y+041207
X+099764Y+038408
X+099061Y+037001
X+099764Y+037008
X+099764Y+036308
X+099764Y+015308
X+099764Y+014608
X+099764Y+013907
X+099764Y+013207
X+099764Y+012507
X+099764Y+011807
X+099764Y+011107
X+099764Y+010407
X+099764Y+009707
X+099764Y+009008
X+099764Y+008308
X+099764Y+007608
X+062161Y+039401
X+037361Y+043901
X+029061Y+039601
X+028361Y+039601
X+019661Y+036101
X+032561Y+035501
X+033261Y+035501
X+049461Y+022601
X+049761Y+022201
X+069661Y+033201
X+070061Y+033001
X+075661Y+015301
X+078761Y+012501
X+080661Y+012501
X+085221Y+015321
X+055461Y+008101
X+054861Y+008101
X+054861Y+010001
X+055461Y+009901
X+056061Y+009901
X+054861Y+011801
X+055461Y+011801
X+055961Y+011801
X+056461Y+011901
X+055561Y+013501
X+054861Y+013501
X+056261Y+013501
X+075761Y+003101
X+075761Y+003701
X+075761Y+004301
X+075761Y+004901
X+076161Y+018801
X+076861Y+018801
X+077561Y+018801
X+070361Y+020901
X+070361Y+020301
X+070361Y+021401
X+057391Y+023671
X+057891Y+023671
X+089361Y+008401
X+089361Y+007701
X+014261Y+030701
X+014261Y+030001
X+023761Y+045001
X+023761Y+039701
X+024061Y+037701
X+023061Y+039701
X+022361Y+039701
X+021661Y+039701
X+021961Y+037701
X+022661Y+037701
X+023361Y+037701
X+091761Y+043001
X+091761Y+043701
X+092461Y+043701
X+092461Y+043001
X+092561Y+045401
X+006861Y+035401
X+007361Y+034701
X+007061Y+059801
X+007581Y+059791
X+008161Y+059801
X+008161Y+059201
X+007581Y+059191
X+007061Y+058601
X+007581Y+058591
X+008161Y+058601
X+008161Y+057901
X+007581Y+057891
X+007061Y+057901
X+011061Y+036801
X+011761Y+034901
X+039661Y+046601
X+045761Y+040001
X+050261Y+040201
X+058141Y+037141
X+058761Y+036601
X+057661Y+044801
X+057661Y+044201
X+057661Y+043601
X+078461Y+046301
X+078461Y+045701
X+077761Y+044701
X+047661Y+027501
X+061971Y+030501
X+062661Y+030501
X+063661Y+030501
X+064661Y+030501
X+063761Y+027801
X+066561Y+027801
X+089461Y+020101
X+092061Y+022901
X+089461Y+019401
X+089461Y+018701
X+064361Y+023701
X+057961Y+007401
X+058761Y+005201
X+060461Y+004001
X+032661Y+019701
X+033061Y+019301
X+032561Y+019201
X+035361Y+018401
X+035961Y+018401
X+069261Y+018171
X+000961Y+054701
X+000961Y+055401
X+000961Y+056101
X+000961Y+056801
X+000961Y+057501
X+000961Y+058201
X+000961Y+058901
X+000961Y+059601
X+000961Y+060301
X+000961Y+061001
X+000961Y+061701
X+000961Y+062401
X+079025Y+057713
X+079025Y+058449
X+079025Y+059186
X+079025Y+059923
X+079025Y+055502
X+079025Y+056239
X+079025Y+056976
X+060461Y+004601
X+058761Y+005801
X+060661Y+003501
X+052831Y+029051
X+045161Y+040001
X+044561Y+040001
X+033961Y+035501
X+034661Y+035501
X+035361Y+035501
X+036061Y+035501
X+032861Y+034901
X+033561Y+034901
X+034361Y+034901
X+035061Y+034901
X+035761Y+034901
X+036461Y+034901
X+033261Y+034301
X+033960Y+034301
X+034761Y+034301
X+035461Y+034301
X+036161Y+034301
X+036861Y+034301
X+000861Y+047933
X+000861Y+049397
X+000861Y+047201
X+000861Y+048665
X+004461Y+036801
X+047161Y+040801
X+070361Y+044301
X+069661Y+045501
X+049401Y+045461
X+050161Y+044201
X+029171Y+045441
X+029861Y+044201
X+008961Y+002601
X+008961Y+001901
X+009661Y+002601
X+009661Y+001901
X+010361Y+001901
X+010361Y+002601
X+012061Y+001901
X+012761Y+001901
X+013461Y+001901
X+012061Y+003101
X+012761Y+003101
X+013461Y+003101
X+014461Y+001901
X+015161Y+001901
X+015861Y+001901
X+016561Y+001901
X+014461Y+003101
X+015161Y+003101
X+015861Y+003101
X+008961Y+004001
X+009661Y+004001
X+010361Y+004001
X+010361Y+003301
X+009661Y+003301
X+008961Y+003301
X+008961Y+005401
X+009661Y+005401
X+010361Y+005401
X+010361Y+004701
X+009661Y+004701
X+008961Y+004701
X+012061Y+009101
X+012761Y+009101
X+013461Y+009101
X+013461Y+008401
X+012761Y+008401
X+012061Y+008401
X+014461Y+009101
X+015161Y+009101
X+015861Y+009101
X+015861Y+008401
X+015161Y+008401
X+014461Y+008401
X+022961Y+003001
X+023661Y+003001
X+024361Y+003001
X+022161Y+002101
X+022861Y+002101
X+023561Y+002101
X+024561Y+002101
X+025261Y+002101
X+033061Y+002101
X+033761Y+002101
X+033161Y+003001
X+033861Y+003001
X+034561Y+003001
X+034761Y+002101
X+035461Y+002101
X+035261Y+003001
X+025061Y+003001
X+019161Y+015901
X+020161Y+016101
X+020661Y+015701
X+020261Y+019401
X+019861Y+019001
X+020096Y+025101
X+020096Y+024401
X+020096Y+023701
X+020861Y+025101
X+020861Y+024401
X+021661Y+025101
X+002161Y+019401
X+002861Y+019401
X+003561Y+019401
X+004261Y+019401
X+004961Y+019401
X+002161Y+018301
X+002861Y+018301
X+003561Y+018301
X+004261Y+018301
X+004961Y+018301
X+002161Y+017601
X+002861Y+017601
X+003561Y+017601
X+004261Y+017601
X+004961Y+017601
X+003061Y+016601
X+003761Y+016601
X+004461Y+016601
X+005161Y+016601
X+005861Y+016601
X+007361Y+013501
X+007361Y+014201
X+007361Y+014901
X+007361Y+015601
X+007361Y+016301
X+009861Y+019401
X+009761Y+018501
X+010541Y+018451
X+011241Y+018451
X+011934Y+018451
X+012641Y+018451
X+012661Y+019401
X+011961Y+019401
X+011261Y+019401
X+010561Y+019401
X+006661Y+019201
X+008061Y+019201
T02
X+059461Y+006701
X+052861Y+030101
X+053561Y+030701
X+054261Y+030101
X+054961Y+030701
X+055661Y+030101
X+051360Y+033401
X+008961Y+032901
X+052261Y+033701
X+053161Y+033401
X+054061Y+033601
X+055061Y+033401
X+056061Y+033601
X+056661Y+032901
X+049561Y+025001
X+050261Y+024301
X+050861Y+025001
X+051561Y+024301
X+052261Y+025001
X+052861Y+024301
X+053461Y+025001
X+065561Y+022901
X+057761Y+027301
X+061661Y+026401
X+063191Y+027091
X+059461Y+010401
X+064661Y+022801
X+064961Y+013101
X+060461Y+012501
X+068361Y+025901
X+064361Y+025601
X+062961Y+022901
X+068561Y+026901
X+063461Y+025701
X+062761Y+023701
X+068561Y+027801
X+064161Y+027101
X+061761Y+023701
X+066161Y+018201
X+084061Y+053001
X+083861Y+051801
X+060361Y+020501
X+060361Y+019701
X+059461Y+019701
X+058861Y+019101
X+058061Y+019101
X+058061Y+018101
X+058161Y+017301
X+028661Y+025001
X+028761Y+024501
X+028861Y+024001
X+028761Y+023301
X+027761Y+023001
X+026961Y+023201
X+026961Y+024201
X+027761Y+021901
X+027761Y+021301
X+081461Y+048901
X+083761Y+060801
X+072261Y+011301
X+008061Y+042101
X+067211Y+034501
X+061261Y+034201
X+052061Y+030701
X+051361Y+031301
X+025161Y+043401
X+024661Y+045201
X+060061Y+009701
X+076361Y+005601
X+007961Y+033801
X+005861Y+038201
T03
X+099069Y+048481G85X+098178Y+048481
X+099069Y+039841G85X+098178Y+039841
X+095069Y+048481G85X+093878Y+048481
X+095069Y+039841G85X+093878Y+039841
T04
X+090060Y+053600
X+090060Y+055100
X+090060Y+056600
X+090060Y+058102
X+090060Y+059602
X+090060Y+061102
X+090062Y+062602
T05
X+087461Y+030401
X+087461Y+032901
X+087461Y+035401
X+087461Y+009201
X+087461Y+011701
X+087461Y+014201
X+087461Y+019801
X+087461Y+022301
X+087461Y+024801
X+003761Y+053491
X+003761Y+056031
X+003761Y+058571
X+003761Y+061111
X+027751Y+066501
X+030291Y+066501
X+032831Y+066501
X+035371Y+066501
X+047941Y+066501
X+050481Y+066501
X+053021Y+066501
X+055561Y+066501
X+068151Y+066501
X+070691Y+066501
X+073231Y+066501
X+075771Y+066501
T06
X+071341Y+015101
X+068801Y+015101
X+066261Y+015101
X+063721Y+015101
X+061181Y+015101
T07
X+097065Y+058631
X+097065Y+061171
X+085391Y+003722
X+087931Y+003722
X+077691Y+003722
X+080231Y+003722
X+054591Y+003722
X+057131Y+003722
X+062291Y+003722
X+064831Y+003722
X+069991Y+003722
X+072531Y+003722
X+097065Y+032730
X+097065Y+035270
X+046890Y+011300
X+049430Y+011300
X+046890Y+003723
X+049430Y+003723
T08
X+097231Y+013321
X+094691Y+013321
X+097231Y+015861
X+094691Y+015861
X+097231Y+018401
X+094691Y+018401
X+097231Y+020941
X+094691Y+020941
X+097231Y+023481
X+094691Y+023481
T09
X+040991Y+032901
X+043531Y+032901
X+047561Y+034041
X+047561Y+031501
X+047561Y+028961
T10
X+011382Y+021825
X+003382Y+021952
X+005061Y+014541
X+005061Y+009461
T11
X+039360Y+005101
X+034280Y+005101
X+029202Y+005100
X+024120Y+005101
X+019040Y+005101
X+013963Y+005099
M30
